<?xml version="1.0" encoding="utf-8"?>
<!-- Generator: Adobe Illustrator 23.1.1, SVG Export Plug-In . SVG Version: 6.00 Build 0)  -->
<svg version="1.1" id="Camada_1" xmlns="http://www.w3.org/2000/svg" xmlns:xlink="http://www.w3.org/1999/xlink" x="0px" y="0px"
	 viewBox="0 0 595.3 416.7" style="enable-background:new 0 0 595.3 416.7;" xml:space="preserve">
<style type="text/css">
	.st0{opacity:0.9;fill:#F59B50;}
	.st1{opacity:0.8;fill:#F58442;}
	.st2{fill:#FFFFFF;}
</style>
<circle class="st0" cx="297.2" cy="212.3" r="151.8"/>
<circle class="st1" cx="290" cy="67.3" r="63.3"/>
<circle class="st1" cx="226.8" cy="349.1" r="63.3"/>
<circle class="st1" cx="170" cy="116.8" r="63.3"/>
<circle class="st1" cx="416.6" cy="116.8" r="63.3"/>
<circle class="st1" cx="145.4" cy="243.3" r="63.3"/>
<circle class="st1" cx="449" cy="243.3" r="63.3"/>
<circle class="st1" cx="369.8" cy="349.1" r="63.3"/>
<g>
	<g>
		<path class="st2" d="M263.6,219.1v7h-29.3v-37.9h28.6v7H243v8.2h17.6v6.8H243v8.8H263.6z"/>
		<path class="st2" d="M303.7,226.2l-0.1-22.7l-11.2,18.7h-4l-11.1-18.2v22.2h-8.2v-37.9h7.3l14.2,23.5l14-23.5h7.2l0.1,37.9H303.7z
			"/>
		<path class="st2" d="M323.3,225.6c-2.8-0.8-5-1.9-6.7-3.2l3-6.6c1.6,1.2,3.6,2.1,5.8,2.9c2.2,0.7,4.5,1.1,6.7,1.1
			c2.5,0,4.3-0.4,5.5-1.1c1.2-0.7,1.8-1.7,1.8-3c0-0.9-0.4-1.7-1.1-2.2c-0.7-0.6-1.6-1.1-2.7-1.4c-1.1-0.4-2.6-0.8-4.5-1.2
			c-2.9-0.7-5.2-1.4-7.1-2.1c-1.8-0.7-3.4-1.8-4.7-3.3s-2-3.5-2-6.1c0-2.2,0.6-4.2,1.8-6c1.2-1.8,3-3.2,5.4-4.2
			c2.4-1,5.3-1.6,8.8-1.6c2.4,0,4.8,0.3,7.1,0.9c2.3,0.6,4.3,1.4,6.1,2.5l-2.7,6.7c-3.5-2-7-3-10.5-3c-2.5,0-4.3,0.4-5.4,1.2
			c-1.2,0.8-1.8,1.8-1.8,3.1s0.7,2.3,2,2.9c1.4,0.6,3.4,1.3,6.2,1.9c2.9,0.7,5.3,1.4,7.1,2.1c1.8,0.7,3.4,1.8,4.7,3.2s2,3.5,2,6
			c0,2.2-0.6,4.1-1.8,5.9c-1.2,1.8-3,3.2-5.4,4.2c-2.4,1-5.4,1.6-8.8,1.6C329,226.8,326.1,226.4,323.3,225.6z"/>
		<path class="st2" d="M352.7,188.3h8.8v37.9h-8.8V188.3z"/>
	</g>
</g>
<g>
	<path class="st2" d="M117.4,121.9c-0.8-0.4-1.4-1-1.9-1.8s-0.7-1.6-0.7-2.5c0-0.9,0.2-1.8,0.7-2.5s1.1-1.3,1.9-1.8
		c0.8-0.4,1.7-0.6,2.7-0.6c1,0,1.9,0.2,2.7,0.6c0.8,0.4,1.4,1,1.9,1.8c0.5,0.7,0.7,1.6,0.7,2.5c0,0.9-0.2,1.8-0.7,2.5
		c-0.5,0.7-1.1,1.3-1.9,1.8c-0.8,0.4-1.7,0.6-2.7,0.6C119,122.5,118.1,122.3,117.4,121.9z M121.6,120.3c0.5-0.3,0.8-0.6,1.1-1.1
		c0.3-0.5,0.4-1,0.4-1.6c0-0.6-0.1-1.1-0.4-1.6c-0.3-0.5-0.6-0.8-1.1-1.1c-0.5-0.3-1-0.4-1.5-0.4c-0.6,0-1.1,0.1-1.5,0.4
		c-0.5,0.3-0.8,0.6-1.1,1.1c-0.3,0.5-0.4,1-0.4,1.6c0,0.6,0.1,1.1,0.4,1.6c0.3,0.5,0.6,0.8,1.1,1.1c0.5,0.3,1,0.4,1.5,0.4
		C120.6,120.7,121.1,120.5,121.6,120.3z"/>
	<path class="st2" d="M126.6,112.9h4.3c1,0,1.9,0.2,2.7,0.6c0.8,0.4,1.4,1,1.9,1.7c0.4,0.7,0.7,1.6,0.7,2.5c0,1-0.2,1.8-0.7,2.5
		c-0.4,0.7-1.1,1.3-1.9,1.7c-0.8,0.4-1.7,0.6-2.7,0.6h-4.3V112.9z M130.8,120.6c1,0,1.7-0.3,2.3-0.8c0.6-0.5,0.9-1.2,0.9-2.2
		c0-0.9-0.3-1.6-0.9-2.2c-0.6-0.5-1.3-0.8-2.3-0.8h-2v5.9H130.8z"/>
	<path class="st2" d="M139.4,121.9c-0.8-0.4-1.4-1-1.9-1.8s-0.7-1.6-0.7-2.5c0-0.9,0.2-1.8,0.7-2.5s1.1-1.3,1.9-1.8
		c0.8-0.4,1.7-0.6,2.7-0.6c1,0,1.9,0.2,2.7,0.6c0.8,0.4,1.4,1,1.9,1.8c0.5,0.7,0.7,1.6,0.7,2.5c0,0.9-0.2,1.8-0.7,2.5
		c-0.5,0.7-1.1,1.3-1.9,1.8c-0.8,0.4-1.7,0.6-2.7,0.6C141.1,122.5,140.2,122.3,139.4,121.9z M143.6,120.3c0.5-0.3,0.8-0.6,1.1-1.1
		c0.3-0.5,0.4-1,0.4-1.6c0-0.6-0.1-1.1-0.4-1.6c-0.3-0.5-0.6-0.8-1.1-1.1c-0.5-0.3-1-0.4-1.5-0.4c-0.6,0-1.1,0.1-1.5,0.4
		c-0.5,0.3-0.8,0.6-1.1,1.1c-0.3,0.5-0.4,1-0.4,1.6c0,0.6,0.1,1.1,0.4,1.6c0.3,0.5,0.6,0.8,1.1,1.1c0.5,0.3,1,0.4,1.5,0.4
		C142.6,120.7,143.1,120.5,143.6,120.3z"/>
	<path class="st2" d="M157.3,112.9v9.5h-1.8l-4.7-5.8v5.8h-2.2v-9.5h1.8l4.7,5.8v-5.8H157.3z"/>
	<path class="st2" d="M161.2,114.7h-3v-1.8h8.3v1.8h-3v7.7h-2.2V114.7z"/>
	<path class="st2" d="M169.1,121.9c-0.8-0.4-1.4-1-1.9-1.8s-0.7-1.6-0.7-2.5c0-0.9,0.2-1.8,0.7-2.5s1.1-1.3,1.9-1.8
		c0.8-0.4,1.7-0.6,2.7-0.6c1,0,1.9,0.2,2.7,0.6c0.8,0.4,1.4,1,1.9,1.8c0.5,0.7,0.7,1.6,0.7,2.5c0,0.9-0.2,1.8-0.7,2.5
		c-0.5,0.7-1.1,1.3-1.9,1.8c-0.8,0.4-1.7,0.6-2.7,0.6C170.8,122.5,169.9,122.3,169.1,121.9z M173.3,120.3c0.5-0.3,0.8-0.6,1.1-1.1
		c0.3-0.5,0.4-1,0.4-1.6c0-0.6-0.1-1.1-0.4-1.6c-0.3-0.5-0.6-0.8-1.1-1.1c-0.5-0.3-1-0.4-1.5-0.4c-0.6,0-1.1,0.1-1.5,0.4
		c-0.5,0.3-0.8,0.6-1.1,1.1c-0.3,0.5-0.4,1-0.4,1.6c0,0.6,0.1,1.1,0.4,1.6c0.3,0.5,0.6,0.8,1.1,1.1c0.5,0.3,1,0.4,1.5,0.4
		C172.4,120.7,172.9,120.5,173.3,120.3z M172.4,110.1h2.3l-2.5,2h-1.7L172.4,110.1z"/>
	<path class="st2" d="M178.3,112.9h2.2v7.7h4.8v1.8h-7V112.9z"/>
	<path class="st2" d="M188,121.9c-0.8-0.4-1.4-1-1.9-1.8s-0.7-1.6-0.7-2.5c0-0.9,0.2-1.8,0.7-2.5s1.1-1.3,1.9-1.8
		c0.8-0.4,1.7-0.6,2.7-0.6c1,0,1.9,0.2,2.7,0.6c0.8,0.4,1.4,1,1.9,1.8c0.5,0.7,0.7,1.6,0.7,2.5c0,0.9-0.2,1.8-0.7,2.5
		c-0.5,0.7-1.1,1.3-1.9,1.8c-0.8,0.4-1.7,0.6-2.7,0.6C189.7,122.5,188.8,122.3,188,121.9z M192.2,120.3c0.5-0.3,0.8-0.6,1.1-1.1
		c0.3-0.5,0.4-1,0.4-1.6c0-0.6-0.1-1.1-0.4-1.6c-0.3-0.5-0.6-0.8-1.1-1.1c-0.5-0.3-1-0.4-1.5-0.4c-0.6,0-1.1,0.1-1.5,0.4
		c-0.5,0.3-0.8,0.6-1.1,1.1c-0.3,0.5-0.4,1-0.4,1.6c0,0.6,0.1,1.1,0.4,1.6c0.3,0.5,0.6,0.8,1.1,1.1c0.5,0.3,1,0.4,1.5,0.4
		C191.2,120.7,191.7,120.5,192.2,120.3z"/>
	<path class="st2" d="M203.6,117.5h2v3.9c-0.5,0.4-1.1,0.7-1.8,0.9c-0.7,0.2-1.4,0.3-2.1,0.3c-1,0-1.9-0.2-2.7-0.6s-1.4-1-1.9-1.8
		s-0.7-1.6-0.7-2.5s0.2-1.8,0.7-2.5s1.1-1.3,1.9-1.8c0.8-0.4,1.7-0.6,2.7-0.6c0.8,0,1.6,0.1,2.3,0.4c0.7,0.3,1.3,0.7,1.7,1.2
		l-1.4,1.3c-0.7-0.7-1.5-1.1-2.5-1.1c-0.6,0-1.1,0.1-1.6,0.4s-0.8,0.6-1.1,1.1c-0.3,0.5-0.4,1-0.4,1.6c0,0.6,0.1,1.1,0.4,1.6
		c0.3,0.5,0.6,0.8,1.1,1.1c0.5,0.3,1,0.4,1.6,0.4c0.6,0,1.2-0.1,1.7-0.4V117.5z"/>
	<path class="st2" d="M209.3,121.9c-0.8-0.4-1.4-1-1.9-1.8s-0.7-1.6-0.7-2.5c0-0.9,0.2-1.8,0.7-2.5s1.1-1.3,1.9-1.8
		c0.8-0.4,1.7-0.6,2.7-0.6c1,0,1.9,0.2,2.7,0.6c0.8,0.4,1.4,1,1.9,1.8c0.5,0.7,0.7,1.6,0.7,2.5c0,0.9-0.2,1.8-0.7,2.5
		c-0.5,0.7-1.1,1.3-1.9,1.8c-0.8,0.4-1.7,0.6-2.7,0.6C211,122.5,210.1,122.3,209.3,121.9z M213.5,120.3c0.5-0.3,0.8-0.6,1.1-1.1
		c0.3-0.5,0.4-1,0.4-1.6c0-0.6-0.1-1.1-0.4-1.6c-0.3-0.5-0.6-0.8-1.1-1.1c-0.5-0.3-1-0.4-1.5-0.4c-0.6,0-1.1,0.1-1.5,0.4
		c-0.5,0.3-0.8,0.6-1.1,1.1c-0.3,0.5-0.4,1-0.4,1.6c0,0.6,0.1,1.1,0.4,1.6c0.3,0.5,0.6,0.8,1.1,1.1c0.5,0.3,1,0.4,1.5,0.4
		C212.5,120.7,213,120.5,213.5,120.3z"/>
	<path class="st2" d="M219.4,122.2c-0.7-0.2-1.3-0.5-1.7-0.8l0.7-1.7c0.4,0.3,0.9,0.5,1.5,0.7c0.6,0.2,1.1,0.3,1.7,0.3
		c0.6,0,1.1-0.1,1.4-0.3c0.3-0.2,0.4-0.4,0.4-0.7c0-0.2-0.1-0.4-0.3-0.6s-0.4-0.3-0.7-0.4c-0.3-0.1-0.7-0.2-1.1-0.3
		c-0.7-0.2-1.3-0.3-1.8-0.5c-0.5-0.2-0.9-0.4-1.2-0.8s-0.5-0.9-0.5-1.5c0-0.6,0.1-1.1,0.4-1.5c0.3-0.4,0.8-0.8,1.4-1.1
		s1.3-0.4,2.2-0.4c0.6,0,1.2,0.1,1.8,0.2c0.6,0.1,1.1,0.4,1.5,0.6l-0.7,1.7c-0.9-0.5-1.8-0.7-2.6-0.7c-0.6,0-1.1,0.1-1.4,0.3
		c-0.3,0.2-0.4,0.5-0.4,0.8c0,0.3,0.2,0.6,0.5,0.7c0.3,0.2,0.9,0.3,1.6,0.5c0.7,0.2,1.3,0.3,1.8,0.5c0.5,0.2,0.9,0.4,1.2,0.8
		c0.3,0.4,0.5,0.9,0.5,1.5c0,0.5-0.2,1-0.5,1.5c-0.3,0.4-0.8,0.8-1.4,1.1s-1.3,0.4-2.2,0.4C220.9,122.5,220.1,122.4,219.4,122.2z"/>
</g>
<g>
	<path class="st2" d="M267.1,67.3l0-5.7l-2.8,4.7h-1l-2.8-4.6v5.6h-2.1v-9.5h1.8l3.6,5.9l3.5-5.9h1.8l0,9.5H267.1z"/>
	<path class="st2" d="M278.5,65.5v1.8h-7.4v-9.5h7.2v1.8h-5v2.1h4.4v1.7h-4.4v2.2H278.5z M275.3,55h2.3l-2.5,2h-1.7L275.3,55z"/>
	<path class="st2" d="M279.9,57.7h4.3c1,0,1.9,0.2,2.7,0.6c0.8,0.4,1.4,1,1.9,1.7c0.4,0.7,0.7,1.6,0.7,2.5c0,1-0.2,1.8-0.7,2.5
		c-0.4,0.7-1.1,1.3-1.9,1.7c-0.8,0.4-1.7,0.6-2.7,0.6h-4.3V57.7z M284.1,65.5c1,0,1.7-0.3,2.3-0.8c0.6-0.5,0.9-1.2,0.9-2.2
		c0-0.9-0.3-1.6-0.9-2.2c-0.6-0.5-1.3-0.8-2.3-0.8h-2v5.9H284.1z"/>
	<path class="st2" d="M290.8,57.7h2.2v9.5h-2.2V57.7z"/>
	<path class="st2" d="M296.9,66.8c-0.8-0.4-1.4-1-1.9-1.8s-0.7-1.6-0.7-2.5s0.2-1.8,0.7-2.5s1.1-1.3,1.9-1.8
		c0.8-0.4,1.7-0.6,2.6-0.6c0.8,0,1.6,0.1,2.2,0.4c0.7,0.3,1.2,0.7,1.7,1.3l-1.4,1.3c-0.6-0.7-1.4-1.1-2.4-1.1
		c-0.6,0-1.1,0.1-1.6,0.4c-0.5,0.3-0.8,0.6-1.1,1.1c-0.3,0.5-0.4,1-0.4,1.6c0,0.6,0.1,1.1,0.4,1.6c0.3,0.5,0.6,0.8,1.1,1.1
		c0.5,0.3,1,0.4,1.6,0.4c1,0,1.8-0.4,2.4-1.1l1.4,1.3c-0.5,0.6-1,1-1.7,1.3c-0.7,0.3-1.4,0.4-2.2,0.4
		C298.5,67.4,297.6,67.2,296.9,66.8z"/>
	<path class="st2" d="M306.3,66.8c-0.8-0.4-1.4-1-1.9-1.8s-0.7-1.6-0.7-2.5c0-0.9,0.2-1.8,0.7-2.5s1.1-1.3,1.9-1.8
		c0.8-0.4,1.7-0.6,2.7-0.6c1,0,1.9,0.2,2.7,0.6c0.8,0.4,1.4,1,1.9,1.8c0.5,0.7,0.7,1.6,0.7,2.5c0,0.9-0.2,1.8-0.7,2.5
		c-0.5,0.7-1.1,1.3-1.9,1.8c-0.8,0.4-1.7,0.6-2.7,0.6C308,67.4,307.1,67.2,306.3,66.8z M310.5,65.2c0.5-0.3,0.8-0.6,1.1-1.1
		c0.3-0.5,0.4-1,0.4-1.6c0-0.6-0.1-1.1-0.4-1.6c-0.3-0.5-0.6-0.8-1.1-1.1c-0.5-0.3-1-0.4-1.5-0.4c-0.6,0-1.1,0.1-1.5,0.4
		c-0.5,0.3-0.8,0.6-1.1,1.1c-0.3,0.5-0.4,1-0.4,1.6c0,0.6,0.1,1.1,0.4,1.6c0.3,0.5,0.6,0.8,1.1,1.1c0.5,0.3,1,0.4,1.5,0.4
		C309.5,65.6,310,65.4,310.5,65.2z"/>
	<path class="st2" d="M316.4,67.1c-0.7-0.2-1.3-0.5-1.7-0.8l0.7-1.7c0.4,0.3,0.9,0.5,1.5,0.7c0.6,0.2,1.1,0.3,1.7,0.3
		c0.6,0,1.1-0.1,1.4-0.3c0.3-0.2,0.4-0.4,0.4-0.7c0-0.2-0.1-0.4-0.3-0.6s-0.4-0.3-0.7-0.4c-0.3-0.1-0.7-0.2-1.1-0.3
		c-0.7-0.2-1.3-0.3-1.8-0.5c-0.5-0.2-0.9-0.4-1.2-0.8s-0.5-0.9-0.5-1.5c0-0.6,0.1-1.1,0.4-1.5c0.3-0.4,0.8-0.8,1.4-1.1
		s1.3-0.4,2.2-0.4c0.6,0,1.2,0.1,1.8,0.2c0.6,0.1,1.1,0.4,1.5,0.6l-0.7,1.7c-0.9-0.5-1.8-0.7-2.6-0.7c-0.6,0-1.1,0.1-1.4,0.3
		c-0.3,0.2-0.4,0.5-0.4,0.8c0,0.3,0.2,0.6,0.5,0.7c0.3,0.2,0.9,0.3,1.6,0.5c0.7,0.2,1.3,0.3,1.8,0.5c0.5,0.2,0.9,0.4,1.2,0.8
		c0.3,0.4,0.5,0.9,0.5,1.5c0,0.5-0.2,1-0.5,1.5c-0.3,0.4-0.8,0.8-1.4,1.1s-1.3,0.4-2.2,0.4C317.9,67.4,317.1,67.3,316.4,67.1z"/>
</g>
<g>
	<path class="st2" d="M379.3,120.6v1.8H372v-9.5h7.2v1.8h-5v2.1h4.4v1.7h-4.4v2.2H379.3z"/>
	<path class="st2" d="M389.5,112.9v9.5h-1.8l-4.7-5.8v5.8h-2.2v-9.5h1.8l4.7,5.8v-5.8H389.5z"/>
	<path class="st2" d="M393.6,114.6v2.5h4.4v1.8h-4.4v3.5h-2.2v-9.5h7.2v1.8H393.6z"/>
	<path class="st2" d="M407.1,120.6v1.8h-7.4v-9.5h7.2v1.8h-5v2.1h4.4v1.7h-4.4v2.2H407.1z"/>
	<path class="st2" d="M414.6,122.4l-1.8-2.7h-0.1h-1.9v2.7h-2.2v-9.5h4.1c0.8,0,1.6,0.1,2.2,0.4s1.1,0.7,1.4,1.2
		c0.3,0.5,0.5,1.1,0.5,1.8c0,0.7-0.2,1.3-0.5,1.8s-0.8,0.9-1.4,1.2l2.1,3.1H414.6z M414.1,115.1c-0.3-0.3-0.8-0.4-1.5-0.4h-1.8v3.3
		h1.8c0.7,0,1.2-0.1,1.5-0.4s0.5-0.7,0.5-1.2C414.6,115.8,414.4,115.4,414.1,115.1z"/>
	<path class="st2" d="M426.9,122.4l0-5.7l-2.8,4.7h-1l-2.8-4.6v5.6h-2.1v-9.5h1.8l3.6,5.9l3.5-5.9h1.8l0,9.5H426.9z"/>
	<path class="st2" d="M438.2,120.6v1.8h-7.4v-9.5h7.2v1.8h-5v2.1h4.4v1.7h-4.4v2.2H438.2z"/>
	<path class="st2" d="M439.6,112.9h2.2v9.5h-2.2V112.9z"/>
	<path class="st2" d="M449.8,122.4l-1.8-2.7h-0.1H446v2.7h-2.2v-9.5h4.1c0.8,0,1.6,0.1,2.2,0.4s1.1,0.7,1.4,1.2
		c0.3,0.5,0.5,1.1,0.5,1.8c0,0.7-0.2,1.3-0.5,1.8s-0.8,0.9-1.4,1.2l2.1,3.1H449.8z M449.3,115.1c-0.3-0.3-0.8-0.4-1.5-0.4H446v3.3
		h1.8c0.7,0,1.2-0.1,1.5-0.4s0.5-0.7,0.5-1.2C449.8,115.8,449.6,115.4,449.3,115.1z"/>
	<path class="st2" d="M455.4,121.9c-0.8-0.4-1.4-1-1.9-1.8s-0.7-1.6-0.7-2.5c0-0.9,0.2-1.8,0.7-2.5s1.1-1.3,1.9-1.8
		c0.8-0.4,1.7-0.6,2.7-0.6c1,0,1.9,0.2,2.7,0.6c0.8,0.4,1.4,1,1.9,1.8c0.5,0.7,0.7,1.6,0.7,2.5c0,0.9-0.2,1.8-0.7,2.5
		c-0.5,0.7-1.1,1.3-1.9,1.8c-0.8,0.4-1.7,0.6-2.7,0.6C457.1,122.5,456.2,122.3,455.4,121.9z M459.6,120.3c0.5-0.3,0.8-0.6,1.1-1.1
		c0.3-0.5,0.4-1,0.4-1.6c0-0.6-0.1-1.1-0.4-1.6c-0.3-0.5-0.6-0.8-1.1-1.1c-0.5-0.3-1-0.4-1.5-0.4c-0.6,0-1.1,0.1-1.5,0.4
		c-0.5,0.3-0.8,0.6-1.1,1.1c-0.3,0.5-0.4,1-0.4,1.6c0,0.6,0.1,1.1,0.4,1.6c0.3,0.5,0.6,0.8,1.1,1.1c0.5,0.3,1,0.4,1.5,0.4
		C458.6,120.7,459.1,120.5,459.6,120.3z"/>
	<path class="st2" d="M465.5,122.2c-0.7-0.2-1.3-0.5-1.7-0.8l0.7-1.7c0.4,0.3,0.9,0.5,1.5,0.7c0.6,0.2,1.1,0.3,1.7,0.3
		c0.6,0,1.1-0.1,1.4-0.3c0.3-0.2,0.4-0.4,0.4-0.7c0-0.2-0.1-0.4-0.3-0.6s-0.4-0.3-0.7-0.4c-0.3-0.1-0.7-0.2-1.1-0.3
		c-0.7-0.2-1.3-0.3-1.8-0.5c-0.5-0.2-0.9-0.4-1.2-0.8s-0.5-0.9-0.5-1.5c0-0.6,0.1-1.1,0.4-1.5c0.3-0.4,0.8-0.8,1.4-1.1
		s1.3-0.4,2.2-0.4c0.6,0,1.2,0.1,1.8,0.2c0.6,0.1,1.1,0.4,1.5,0.6l-0.7,1.7c-0.9-0.5-1.8-0.7-2.6-0.7c-0.6,0-1.1,0.1-1.4,0.3
		c-0.3,0.2-0.4,0.5-0.4,0.8c0,0.3,0.2,0.6,0.5,0.7c0.3,0.2,0.9,0.3,1.6,0.5c0.7,0.2,1.3,0.3,1.8,0.5c0.5,0.2,0.9,0.4,1.2,0.8
		c0.3,0.4,0.5,0.9,0.5,1.5c0,0.5-0.2,1-0.5,1.5c-0.3,0.4-0.8,0.8-1.4,1.1s-1.3,0.4-2.2,0.4C467,122.5,466.2,122.4,465.5,122.2z"/>
</g>
<g>
	<g>
		<path class="st2" d="M407.5,234.6h-3v-1.8h8.3v1.8h-3v7.7h-2.2V234.6z"/>
		<path class="st2" d="M420.9,240.6v1.8h-7.4v-9.5h7.2v1.8h-5v2.1h4.4v1.7h-4.4v2.2H420.9z M417.8,230.1h2.3l-2.5,2h-1.7
			L417.8,230.1z"/>
		<path class="st2" d="M424.3,241.9c-0.8-0.4-1.4-1-1.9-1.8s-0.7-1.6-0.7-2.5s0.2-1.8,0.7-2.5s1.1-1.3,1.9-1.8
			c0.8-0.4,1.7-0.6,2.6-0.6c0.8,0,1.6,0.1,2.2,0.4c0.7,0.3,1.2,0.7,1.7,1.3l-1.4,1.3c-0.6-0.7-1.4-1.1-2.4-1.1
			c-0.6,0-1.1,0.1-1.6,0.4c-0.5,0.3-0.8,0.6-1.1,1.1c-0.3,0.5-0.4,1-0.4,1.6c0,0.6,0.1,1.1,0.4,1.6c0.3,0.5,0.6,0.8,1.1,1.1
			c0.5,0.3,1,0.4,1.6,0.4c1,0,1.8-0.4,2.4-1.1l1.4,1.3c-0.5,0.6-1,1-1.7,1.3c-0.7,0.3-1.4,0.4-2.2,0.4
			C425.9,242.5,425,242.3,424.3,241.9z"/>
		<path class="st2" d="M440.7,232.8v9.5h-1.8l-4.7-5.8v5.8H432v-9.5h1.8l4.7,5.8v-5.8H440.7z"/>
		<path class="st2" d="M442.6,232.8h2.2v9.5h-2.2V232.8z"/>
		<path class="st2" d="M448.7,241.9c-0.8-0.4-1.4-1-1.9-1.8s-0.7-1.6-0.7-2.5s0.2-1.8,0.7-2.5s1.1-1.3,1.9-1.8
			c0.8-0.4,1.7-0.6,2.6-0.6c0.8,0,1.6,0.1,2.2,0.4c0.7,0.3,1.2,0.7,1.7,1.3l-1.4,1.3c-0.6-0.7-1.4-1.1-2.4-1.1
			c-0.6,0-1.1,0.1-1.6,0.4c-0.5,0.3-0.8,0.6-1.1,1.1c-0.3,0.5-0.4,1-0.4,1.6c0,0.6,0.1,1.1,0.4,1.6c0.3,0.5,0.6,0.8,1.1,1.1
			c0.5,0.3,1,0.4,1.6,0.4c1,0,1.8-0.4,2.4-1.1l1.4,1.3c-0.5,0.6-1,1-1.7,1.3c-0.7,0.3-1.4,0.4-2.2,0.4
			C450.3,242.5,449.4,242.3,448.7,241.9z"/>
		<path class="st2" d="M458.1,241.8c-0.8-0.4-1.4-1-1.9-1.8s-0.7-1.6-0.7-2.5c0-0.9,0.2-1.8,0.7-2.5s1.1-1.3,1.9-1.8
			c0.8-0.4,1.7-0.6,2.7-0.6c1,0,1.9,0.2,2.7,0.6c0.8,0.4,1.4,1,1.9,1.8c0.5,0.7,0.7,1.6,0.7,2.5c0,0.9-0.2,1.8-0.7,2.5
			c-0.5,0.7-1.1,1.3-1.9,1.8c-0.8,0.4-1.7,0.6-2.7,0.6C459.8,242.5,458.9,242.3,458.1,241.8z M462.3,240.2c0.5-0.3,0.8-0.6,1.1-1.1
			c0.3-0.5,0.4-1,0.4-1.6c0-0.6-0.1-1.1-0.4-1.6c-0.3-0.5-0.6-0.8-1.1-1.1c-0.5-0.3-1-0.4-1.5-0.4c-0.6,0-1.1,0.1-1.5,0.4
			c-0.5,0.3-0.8,0.6-1.1,1.1c-0.3,0.5-0.4,1-0.4,1.6c0,0.6,0.1,1.1,0.4,1.6c0.3,0.5,0.6,0.8,1.1,1.1c0.5,0.3,1,0.4,1.5,0.4
			C461.3,240.6,461.9,240.5,462.3,240.2z"/>
		<path class="st2" d="M468.3,242.2c-0.7-0.2-1.3-0.5-1.7-0.8l0.7-1.7c0.4,0.3,0.9,0.5,1.5,0.7c0.6,0.2,1.1,0.3,1.7,0.3
			c0.6,0,1.1-0.1,1.4-0.3c0.3-0.2,0.4-0.4,0.4-0.7c0-0.2-0.1-0.4-0.3-0.6s-0.4-0.3-0.7-0.4c-0.3-0.1-0.7-0.2-1.1-0.3
			c-0.7-0.2-1.3-0.3-1.8-0.5c-0.5-0.2-0.9-0.4-1.2-0.8s-0.5-0.9-0.5-1.5c0-0.6,0.1-1.1,0.4-1.5c0.3-0.4,0.8-0.8,1.4-1.1
			s1.3-0.4,2.2-0.4c0.6,0,1.2,0.1,1.8,0.2c0.6,0.1,1.1,0.4,1.5,0.6l-0.7,1.7c-0.9-0.5-1.8-0.7-2.6-0.7c-0.6,0-1.1,0.1-1.4,0.3
			c-0.3,0.2-0.4,0.5-0.4,0.8c0,0.3,0.2,0.6,0.5,0.7c0.3,0.2,0.9,0.3,1.6,0.5c0.7,0.2,1.3,0.3,1.8,0.5c0.5,0.2,0.9,0.4,1.2,0.8
			c0.3,0.4,0.5,0.9,0.5,1.5c0,0.5-0.2,1-0.5,1.5c-0.3,0.4-0.8,0.8-1.4,1.1s-1.3,0.4-2.2,0.4C469.7,242.5,469,242.4,468.3,242.2z"/>
	</g>
	<path class="st2" d="M479.2,232.8h4.3c1,0,1.9,0.2,2.7,0.6c0.8,0.4,1.4,1,1.9,1.7c0.4,0.7,0.7,1.6,0.7,2.5c0,1-0.2,1.8-0.7,2.5
		c-0.4,0.7-1.1,1.3-1.9,1.7c-0.8,0.4-1.7,0.6-2.7,0.6h-4.3V232.8z M483.4,240.5c1,0,1.7-0.3,2.3-0.8c0.6-0.5,0.9-1.2,0.9-2.2
		c0-0.9-0.3-1.6-0.9-2.2c-0.6-0.5-1.3-0.8-2.3-0.8h-2v5.9H483.4z"/>
	<path class="st2" d="M497.4,240.6v1.8h-7.4v-9.5h7.2v1.8h-5v2.1h4.4v1.7h-4.4v2.2H497.4z"/>
	<path class="st2" d="M409.3,256.9v1.8H402v-9.5h7.2v1.8h-5v2.1h4.4v1.7h-4.4v2.2H409.3z"/>
	<path class="st2" d="M419.5,249.1v9.5h-1.8l-4.7-5.8v5.8h-2.2v-9.5h1.8l4.7,5.8v-5.8H419.5z"/>
	<path class="st2" d="M423.6,250.9v2.5h4.4v1.8h-4.4v3.5h-2.2v-9.5h7.2v1.8H423.6z"/>
	<path class="st2" d="M437.1,256.9v1.8h-7.4v-9.5h7.2v1.8h-5v2.1h4.4v1.7h-4.4v2.2H437.1z"/>
	<path class="st2" d="M444.6,258.7l-1.8-2.7h-0.1h-1.9v2.7h-2.2v-9.5h4.1c0.8,0,1.6,0.1,2.2,0.4s1.1,0.7,1.4,1.2
		c0.3,0.5,0.5,1.1,0.5,1.8c0,0.7-0.2,1.3-0.5,1.8s-0.8,0.9-1.4,1.2l2.1,3.1H444.6z M444.1,251.4c-0.3-0.3-0.8-0.4-1.5-0.4h-1.8v3.3
		h1.8c0.7,0,1.2-0.1,1.5-0.4s0.5-0.7,0.5-1.2C444.6,252,444.4,251.6,444.1,251.4z"/>
	<path class="st2" d="M456.9,258.7l0-5.7l-2.8,4.7h-1l-2.8-4.6v5.6h-2.1v-9.5h1.8l3.6,5.9l3.5-5.9h1.8l0,9.5H456.9z"/>
	<path class="st2" d="M467.1,256.6h-4.4l-0.8,2h-2.3l4.2-9.5h2.2l4.3,9.5H468L467.1,256.6z M466.4,254.9l-1.5-3.6l-1.5,3.6H466.4z"
		/>
	<path class="st2" d="M477.2,253.7h2v3.9c-0.5,0.4-1.1,0.7-1.8,0.9c-0.7,0.2-1.4,0.3-2.1,0.3c-1,0-1.9-0.2-2.7-0.6s-1.4-1-1.9-1.8
		s-0.7-1.6-0.7-2.5s0.2-1.8,0.7-2.5s1.1-1.3,1.9-1.8c0.8-0.4,1.7-0.6,2.7-0.6c0.8,0,1.6,0.1,2.3,0.4c0.7,0.3,1.3,0.7,1.7,1.2
		l-1.4,1.3c-0.7-0.7-1.5-1.1-2.5-1.1c-0.6,0-1.1,0.1-1.6,0.4s-0.8,0.6-1.1,1.1c-0.3,0.5-0.4,1-0.4,1.6c0,0.6,0.1,1.1,0.4,1.6
		c0.3,0.5,0.6,0.8,1.1,1.1c0.5,0.3,1,0.4,1.6,0.4c0.6,0,1.2-0.1,1.7-0.4V253.7z"/>
	<path class="st2" d="M488.3,256.9v1.8H481v-9.5h7.2v1.8h-5v2.1h4.4v1.7h-4.4v2.2H488.3z"/>
	<path class="st2" d="M498.4,258.7l0-5.7l-2.8,4.7h-1l-2.8-4.6v5.6h-2.1v-9.5h1.8l3.6,5.9l3.5-5.9h1.8l0,9.5H498.4z"/>
</g>
<g>
	<path class="st2" d="M350.6,338.1h-4.4l-0.8,2h-2.3l4.2-9.5h2.2l4.3,9.5h-2.3L350.6,338.1z M349.9,336.4l-1.5-3.6l-1.5,3.6H349.9z"
		/>
	<path class="st2" d="M360.7,335.2h2v3.9c-0.5,0.4-1.1,0.7-1.8,0.9c-0.7,0.2-1.4,0.3-2.1,0.3c-1,0-1.9-0.2-2.7-0.6s-1.4-1-1.9-1.8
		s-0.7-1.6-0.7-2.5s0.2-1.8,0.7-2.5s1.1-1.3,1.9-1.8c0.8-0.4,1.7-0.6,2.7-0.6c0.8,0,1.6,0.1,2.3,0.4c0.7,0.3,1.3,0.7,1.7,1.2
		l-1.4,1.3c-0.7-0.7-1.5-1.1-2.5-1.1c-0.6,0-1.1,0.1-1.6,0.4s-0.8,0.6-1.1,1.1c-0.3,0.5-0.4,1-0.4,1.6c0,0.6,0.1,1.1,0.4,1.6
		c0.3,0.5,0.6,0.8,1.1,1.1c0.5,0.3,1,0.4,1.6,0.4c0.6,0,1.2-0.1,1.7-0.4V335.2z"/>
	<path class="st2" d="M371.8,338.4v1.8h-7.4v-9.5h7.2v1.8h-5v2.1h4.4v1.7h-4.4v2.2H371.8z"/>
	<path class="st2" d="M381.9,330.6v9.5h-1.8l-4.7-5.8v5.8h-2.2v-9.5h1.8l4.7,5.8v-5.8H381.9z"/>
	<path class="st2" d="M385.8,332.4h-3v-1.8h8.3v1.8h-3v7.7h-2.2V332.4z"/>
	<path class="st2" d="M399.3,338.4v1.8h-7.4v-9.5h7.2v1.8h-5v2.1h4.4v1.7h-4.4v2.2H399.3z"/>
	<path class="st2" d="M326.2,346.9h2.2v9.5h-2.2V346.9z"/>
	<path class="st2" d="M339,346.9v9.5h-1.8l-4.7-5.8v5.8h-2.2v-9.5h1.8l4.7,5.8v-5.8H339z"/>
	<path class="st2" d="M341,346.9h4.3c1,0,1.9,0.2,2.7,0.6c0.8,0.4,1.4,1,1.9,1.7c0.4,0.7,0.7,1.6,0.7,2.5c0,1-0.2,1.8-0.7,2.5
		c-0.4,0.7-1.1,1.3-1.9,1.7c-0.8,0.4-1.7,0.6-2.7,0.6H341V346.9z M345.2,354.7c1,0,1.7-0.3,2.3-0.8c0.6-0.5,0.9-1.2,0.9-2.2
		c0-0.9-0.3-1.6-0.9-2.2c-0.6-0.5-1.3-0.8-2.3-0.8h-2v5.9H345.2z"/>
	<path class="st2" d="M353.6,344.2h2.3l-2.5,2h-1.7L353.6,344.2z M351.9,346.9h2.2v9.5h-2.2V346.9z"/>
	<path class="st2" d="M362.4,351.6h2v3.9c-0.5,0.4-1.1,0.7-1.8,0.9c-0.7,0.2-1.4,0.3-2.1,0.3c-1,0-1.9-0.2-2.7-0.6s-1.4-1-1.9-1.8
		s-0.7-1.6-0.7-2.5s0.2-1.8,0.7-2.5s1.1-1.3,1.9-1.8c0.8-0.4,1.7-0.6,2.7-0.6c0.8,0,1.6,0.1,2.3,0.4c0.7,0.3,1.3,0.7,1.7,1.2
		l-1.4,1.3c-0.7-0.7-1.5-1.1-2.5-1.1c-0.6,0-1.1,0.1-1.6,0.4s-0.8,0.6-1.1,1.1c-0.3,0.5-0.4,1-0.4,1.6c0,0.6,0.1,1.1,0.4,1.6
		c0.3,0.5,0.6,0.8,1.1,1.1c0.5,0.3,1,0.4,1.6,0.4c0.6,0,1.2-0.1,1.7-0.4V351.6z"/>
	<path class="st2" d="M373.5,354.7v1.8h-7.4v-9.5h7.2v1.8h-5v2.1h4.4v1.7h-4.4v2.2H373.5z"/>
	<path class="st2" d="M383.6,346.9v9.5h-1.8l-4.7-5.8v5.8h-2.2v-9.5h1.8l4.7,5.8v-5.8H383.6z"/>
	<path class="st2" d="M391.8,354.4h-4.4l-0.8,2h-2.3l4.2-9.5h2.2l4.3,9.5h-2.3L391.8,354.4z M391.1,352.8l-1.5-3.6l-1.5,3.6H391.1z"
		/>
	<path class="st2" d="M399.2,346.9h4.3c1,0,1.9,0.2,2.7,0.6c0.8,0.4,1.4,1,1.9,1.7c0.4,0.7,0.7,1.6,0.7,2.5c0,1-0.2,1.8-0.7,2.5
		c-0.4,0.7-1.1,1.3-1.9,1.7c-0.8,0.4-1.7,0.6-2.7,0.6h-4.3V346.9z M403.4,354.7c1,0,1.7-0.3,2.3-0.8c0.6-0.5,0.9-1.2,0.9-2.2
		c0-0.9-0.3-1.6-0.9-2.2c-0.6-0.5-1.3-0.8-2.3-0.8h-2v5.9H403.4z"/>
	<path class="st2" d="M417.4,354.7v1.8h-7.4v-9.5h7.2v1.8h-5v2.1h4.4v1.7h-4.4v2.2H417.4z"/>
	<path class="st2" d="M331.8,372.7c-0.7-0.2-1.3-0.5-1.7-0.8l0.7-1.7c0.4,0.3,0.9,0.5,1.5,0.7c0.6,0.2,1.1,0.3,1.7,0.3
		c0.6,0,1.1-0.1,1.4-0.3c0.3-0.2,0.4-0.4,0.4-0.7c0-0.2-0.1-0.4-0.3-0.6s-0.4-0.3-0.7-0.4c-0.3-0.1-0.7-0.2-1.1-0.3
		c-0.7-0.2-1.3-0.3-1.8-0.5c-0.5-0.2-0.9-0.4-1.2-0.8s-0.5-0.9-0.5-1.5c0-0.6,0.1-1.1,0.4-1.5c0.3-0.4,0.8-0.8,1.4-1.1
		s1.3-0.4,2.2-0.4c0.6,0,1.2,0.1,1.8,0.2c0.6,0.1,1.1,0.4,1.5,0.6l-0.7,1.7c-0.9-0.5-1.8-0.7-2.6-0.7c-0.6,0-1.1,0.1-1.4,0.3
		c-0.3,0.2-0.4,0.5-0.4,0.8c0,0.3,0.2,0.6,0.5,0.7c0.3,0.2,0.9,0.3,1.6,0.5c0.7,0.2,1.3,0.3,1.8,0.5c0.5,0.2,0.9,0.4,1.2,0.8
		c0.3,0.4,0.5,0.9,0.5,1.5c0,0.5-0.2,1-0.5,1.5c-0.3,0.4-0.8,0.8-1.4,1.1s-1.3,0.4-2.2,0.4C333.2,373,332.5,372.9,331.8,372.7z"/>
	<path class="st2" d="M345.4,370.8H341l-0.8,2h-2.3l4.2-9.5h2.2l4.3,9.5h-2.3L345.4,370.8z M344.7,369.1l-1.5-3.6l-1.5,3.6H344.7z"
		/>
	<path class="st2" d="M350.1,371.8c-0.8-0.8-1.1-1.8-1.1-3.2v-5.3h2.2v5.3c0,1.7,0.7,2.6,2.1,2.6c0.7,0,1.2-0.2,1.6-0.6
		c0.4-0.4,0.5-1.1,0.5-1.9v-5.3h2.2v5.3c0,1.4-0.4,2.5-1.1,3.2c-0.8,0.8-1.8,1.1-3.2,1.1C351.9,373,350.8,372.6,350.1,371.8z
		 M353.9,360.5h2.3l-2.5,2H352L353.9,360.5z"/>
	<path class="st2" d="M359.4,363.3h4.3c1,0,1.9,0.2,2.7,0.6c0.8,0.4,1.4,1,1.9,1.7c0.4,0.7,0.7,1.6,0.7,2.5c0,1-0.2,1.8-0.7,2.5
		c-0.4,0.7-1.1,1.3-1.9,1.7c-0.8,0.4-1.7,0.6-2.7,0.6h-4.3V363.3z M363.6,371c1,0,1.7-0.3,2.3-0.8c0.6-0.5,0.9-1.2,0.9-2.2
		c0-0.9-0.3-1.6-0.9-2.2c-0.6-0.5-1.3-0.8-2.3-0.8h-2v5.9H363.6z"/>
	<path class="st2" d="M377.7,371v1.8h-7.4v-9.5h7.2v1.8h-5v2.1h4.4v1.7h-4.4v2.2H377.7z"/>
	<path class="st2" d="M382.9,372.6c-0.3-1.1-0.4-2.3-0.4-3.5c0-1.2,0.1-2.4,0.4-3.5s0.7-2,1.3-2.9h2c-0.6,1-1,2-1.3,3.1
		c-0.3,1-0.4,2.1-0.4,3.3c0,1.2,0.1,2.3,0.4,3.3c0.3,1,0.7,2.1,1.3,3.1h-2C383.6,374.6,383.2,373.7,382.9,372.6z"/>
	<path class="st2" d="M393.4,370.8H389l-0.8,2h-2.3l4.2-9.5h2.2l4.3,9.5h-2.3L393.4,370.8z M392.7,369.1l-1.5-3.6l-1.5,3.6H392.7z"
		/>
	<path class="st2" d="M397.2,363.3h2.2v9.5h-2.2V363.3z"/>
	<path class="st2" d="M402.3,372.7c-0.7-0.2-1.3-0.5-1.7-0.8l0.7-1.7c0.4,0.3,0.9,0.5,1.5,0.7c0.6,0.2,1.1,0.3,1.7,0.3
		c0.6,0,1.1-0.1,1.4-0.3c0.3-0.2,0.4-0.4,0.4-0.7c0-0.2-0.1-0.4-0.3-0.6s-0.4-0.3-0.7-0.4c-0.3-0.1-0.7-0.2-1.1-0.3
		c-0.7-0.2-1.3-0.3-1.8-0.5c-0.5-0.2-0.9-0.4-1.2-0.8s-0.5-0.9-0.5-1.5c0-0.6,0.1-1.1,0.4-1.5c0.3-0.4,0.8-0.8,1.4-1.1
		s1.3-0.4,2.2-0.4c0.6,0,1.2,0.1,1.8,0.2c0.6,0.1,1.1,0.4,1.5,0.6l-0.7,1.7c-0.9-0.5-1.8-0.7-2.6-0.7c-0.6,0-1.1,0.1-1.4,0.3
		c-0.3,0.2-0.4,0.5-0.4,0.8c0,0.3,0.2,0.6,0.5,0.7c0.3,0.2,0.9,0.3,1.6,0.5c0.7,0.2,1.3,0.3,1.8,0.5c0.5,0.2,0.9,0.4,1.2,0.8
		c0.3,0.4,0.5,0.9,0.5,1.5c0,0.5-0.2,1-0.5,1.5c-0.3,0.4-0.8,0.8-1.4,1.1s-1.3,0.4-2.2,0.4C403.7,373,403,372.9,402.3,372.7z"/>
	<path class="st2" d="M408.7,375.4c0.6-1,1-2,1.3-3.1c0.3-1,0.4-2.1,0.4-3.3c0-1.2-0.1-2.3-0.4-3.3c-0.3-1-0.7-2.1-1.3-3.1h2
		c0.6,0.8,1,1.8,1.3,2.9s0.4,2.3,0.4,3.5c0,1.3-0.1,2.4-0.4,3.5s-0.7,2-1.3,2.9H408.7z"/>
</g>
<g>
	<path class="st2" d="M206,330.1h-4.4l-0.8,2h-2.3l4.2-9.5h2.2l4.3,9.5h-2.3L206,330.1z M205.3,328.4l-1.5-3.6l-1.5,3.6H205.3z"/>
	<path class="st2" d="M216.1,327.2h2v3.9c-0.5,0.4-1.1,0.7-1.8,0.9c-0.7,0.2-1.4,0.3-2.1,0.3c-1,0-1.9-0.2-2.7-0.6s-1.4-1-1.9-1.8
		s-0.7-1.6-0.7-2.5s0.2-1.8,0.7-2.5s1.1-1.3,1.9-1.8c0.8-0.4,1.7-0.6,2.7-0.6c0.8,0,1.6,0.1,2.3,0.4c0.7,0.3,1.3,0.7,1.7,1.2
		l-1.4,1.3c-0.7-0.7-1.5-1.1-2.5-1.1c-0.6,0-1.1,0.1-1.6,0.4s-0.8,0.6-1.1,1.1c-0.3,0.5-0.4,1-0.4,1.6c0,0.6,0.1,1.1,0.4,1.6
		c0.3,0.5,0.6,0.8,1.1,1.1c0.5,0.3,1,0.4,1.6,0.4c0.6,0,1.2-0.1,1.7-0.4V327.2z"/>
	<path class="st2" d="M227.2,330.4v1.8h-7.4v-9.5h7.2v1.8h-5v2.1h4.4v1.7H222v2.2H227.2z"/>
	<path class="st2" d="M237.3,322.6v9.5h-1.8l-4.7-5.8v5.8h-2.2v-9.5h1.8l4.7,5.8v-5.8H237.3z"/>
	<path class="st2" d="M241.2,324.4h-3v-1.8h8.3v1.8h-3v7.7h-2.2V324.4z"/>
	<path class="st2" d="M254.7,330.4v1.8h-7.4v-9.5h7.2v1.8h-5v2.1h4.4v1.7h-4.4v2.2H254.7z"/>
	<path class="st2" d="M181.6,338.9h2.2v9.5h-2.2V338.9z"/>
	<path class="st2" d="M194.4,338.9v9.5h-1.8l-4.7-5.8v5.8h-2.2v-9.5h1.8l4.7,5.8v-5.8H194.4z"/>
	<path class="st2" d="M196.3,338.9h4.3c1,0,1.9,0.2,2.7,0.6c0.8,0.4,1.4,1,1.9,1.7c0.4,0.7,0.7,1.6,0.7,2.5c0,1-0.2,1.8-0.7,2.5
		c-0.4,0.7-1.1,1.3-1.9,1.7c-0.8,0.4-1.7,0.6-2.7,0.6h-4.3V338.9z M200.5,346.7c1,0,1.7-0.3,2.3-0.8c0.6-0.5,0.9-1.2,0.9-2.2
		c0-0.9-0.3-1.6-0.9-2.2c-0.6-0.5-1.3-0.8-2.3-0.8h-2v5.9H200.5z"/>
	<path class="st2" d="M208.9,336.2h2.3l-2.5,2h-1.7L208.9,336.2z M207.2,338.9h2.2v9.5h-2.2V338.9z"/>
	<path class="st2" d="M217.8,343.6h2v3.9c-0.5,0.4-1.1,0.7-1.8,0.9c-0.7,0.2-1.4,0.3-2.1,0.3c-1,0-1.9-0.2-2.7-0.6s-1.4-1-1.9-1.8
		s-0.7-1.6-0.7-2.5s0.2-1.8,0.7-2.5s1.1-1.3,1.9-1.8c0.8-0.4,1.7-0.6,2.7-0.6c0.8,0,1.6,0.1,2.3,0.4c0.7,0.3,1.3,0.7,1.7,1.2
		l-1.4,1.3c-0.7-0.7-1.5-1.1-2.5-1.1c-0.6,0-1.1,0.1-1.6,0.4s-0.8,0.6-1.1,1.1c-0.3,0.5-0.4,1-0.4,1.6c0,0.6,0.1,1.1,0.4,1.6
		c0.3,0.5,0.6,0.8,1.1,1.1c0.5,0.3,1,0.4,1.6,0.4c0.6,0,1.2-0.1,1.7-0.4V343.6z"/>
	<path class="st2" d="M228.9,346.7v1.8h-7.4v-9.5h7.2v1.8h-5v2.1h4.4v1.7h-4.4v2.2H228.9z"/>
	<path class="st2" d="M239,338.9v9.5h-1.8l-4.7-5.8v5.8h-2.2v-9.5h1.8l4.7,5.8v-5.8H239z"/>
	<path class="st2" d="M247.2,346.4h-4.4l-0.8,2h-2.3l4.2-9.5h2.2l4.3,9.5h-2.3L247.2,346.4z M246.5,344.8l-1.5-3.6l-1.5,3.6H246.5z"
		/>
	<path class="st2" d="M254.5,338.9h4.3c1,0,1.9,0.2,2.7,0.6c0.8,0.4,1.4,1,1.9,1.7c0.4,0.7,0.7,1.6,0.7,2.5c0,1-0.2,1.8-0.7,2.5
		c-0.4,0.7-1.1,1.3-1.9,1.7c-0.8,0.4-1.7,0.6-2.7,0.6h-4.3V338.9z M258.8,346.7c1,0,1.7-0.3,2.3-0.8c0.6-0.5,0.9-1.2,0.9-2.2
		c0-0.9-0.3-1.6-0.9-2.2c-0.6-0.5-1.3-0.8-2.3-0.8h-2v5.9H258.8z"/>
	<path class="st2" d="M272.8,346.7v1.8h-7.4v-9.5h7.2v1.8h-5v2.1h4.4v1.7h-4.4v2.2H272.8z"/>
	<path class="st2" d="M179.3,364.7c-0.7-0.2-1.3-0.5-1.7-0.8l0.7-1.7c0.4,0.3,0.9,0.5,1.5,0.7c0.6,0.2,1.1,0.3,1.7,0.3
		c0.6,0,1.1-0.1,1.4-0.3c0.3-0.2,0.4-0.4,0.4-0.7c0-0.2-0.1-0.4-0.3-0.6s-0.4-0.3-0.7-0.4c-0.3-0.1-0.7-0.2-1.1-0.3
		c-0.7-0.2-1.3-0.3-1.8-0.5c-0.5-0.2-0.9-0.4-1.2-0.8s-0.5-0.9-0.5-1.5c0-0.6,0.1-1.1,0.4-1.5c0.3-0.4,0.8-0.8,1.4-1.1
		s1.3-0.4,2.2-0.4c0.6,0,1.2,0.1,1.8,0.2c0.6,0.1,1.1,0.4,1.5,0.6l-0.7,1.7c-0.9-0.5-1.8-0.7-2.6-0.7c-0.6,0-1.1,0.1-1.4,0.3
		c-0.3,0.2-0.4,0.5-0.4,0.8c0,0.3,0.2,0.6,0.5,0.7c0.3,0.2,0.9,0.3,1.6,0.5c0.7,0.2,1.3,0.3,1.8,0.5c0.5,0.2,0.9,0.4,1.2,0.8
		c0.3,0.4,0.5,0.9,0.5,1.5c0,0.5-0.2,1-0.5,1.5c-0.3,0.4-0.8,0.8-1.4,1.1s-1.3,0.4-2.2,0.4C180.7,365,180,364.9,179.3,364.7z"/>
	<path class="st2" d="M192.9,362.8h-4.4l-0.8,2h-2.3l4.2-9.5h2.2l4.3,9.5h-2.3L192.9,362.8z M192.2,361.1l-1.5-3.6l-1.5,3.6H192.2z"
		/>
	<path class="st2" d="M205.5,355.3v9.5h-1.8l-4.7-5.8v5.8h-2.2v-9.5h1.8l4.7,5.8v-5.8H205.5z"/>
	<path class="st2" d="M214.8,363v1.8h-7.4v-9.5h7.2v1.8h-5v2.1h4.4v1.7h-4.4v2.2H214.8z"/>
	<path class="st2" d="M222.5,362.8H218l-0.8,2h-2.3l4.2-9.5h2.2l4.3,9.5h-2.3L222.5,362.8z M221.8,361.1l-1.5-3.6l-1.5,3.6H221.8z"
		/>
	<path class="st2" d="M234.9,364.8l0-5.7l-2.8,4.7h-1l-2.8-4.6v5.6h-2.1v-9.5h1.8l3.6,5.9l3.5-5.9h1.8l0,9.5H234.9z"/>
	<path class="st2" d="M246.3,363v1.8h-7.4v-9.5h7.2v1.8h-5v2.1h4.4v1.7h-4.4v2.2H246.3z"/>
	<path class="st2" d="M256.5,355.3v9.5h-1.8l-4.7-5.8v5.8h-2.2v-9.5h1.8l4.7,5.8v-5.8H256.5z"/>
	<path class="st2" d="M260.3,357.1h-3v-1.8h8.3v1.8h-3v7.7h-2.2V357.1z"/>
	<path class="st2" d="M268.2,364.3c-0.8-0.4-1.4-1-1.9-1.8s-0.7-1.6-0.7-2.5c0-0.9,0.2-1.8,0.7-2.5s1.1-1.3,1.9-1.8
		c0.8-0.4,1.7-0.6,2.7-0.6c1,0,1.9,0.2,2.7,0.6c0.8,0.4,1.4,1,1.9,1.8c0.5,0.7,0.7,1.6,0.7,2.5c0,0.9-0.2,1.8-0.7,2.5
		c-0.5,0.7-1.1,1.3-1.9,1.8c-0.8,0.4-1.7,0.6-2.7,0.6C269.9,365,269,364.7,268.2,364.3z M272.4,362.7c0.5-0.3,0.8-0.6,1.1-1.1
		c0.3-0.5,0.4-1,0.4-1.6c0-0.6-0.1-1.1-0.4-1.6c-0.3-0.5-0.6-0.8-1.1-1.1c-0.5-0.3-1-0.4-1.5-0.4c-0.6,0-1.1,0.1-1.5,0.4
		c-0.5,0.3-0.8,0.6-1.1,1.1c-0.3,0.5-0.4,1-0.4,1.6c0,0.6,0.1,1.1,0.4,1.6c0.3,0.5,0.6,0.8,1.1,1.1c0.5,0.3,1,0.4,1.5,0.4
		C271.5,363.1,272,363,272.4,362.7z"/>
	<path class="st2" d="M202,380.9c-0.3-1.1-0.4-2.3-0.4-3.5c0-1.2,0.1-2.4,0.4-3.5s0.7-2,1.3-2.9h2c-0.6,1-1,2-1.3,3.1
		c-0.3,1-0.4,2.1-0.4,3.3c0,1.2,0.1,2.3,0.4,3.3c0.3,1,0.7,2.1,1.3,3.1h-2C202.7,382.9,202.3,382,202,380.9z"/>
	<path class="st2" d="M212.5,379.1h-4.4l-0.8,2H205l4.2-9.5h2.2l4.3,9.5h-2.3L212.5,379.1z M211.8,377.4l-1.5-3.6l-1.5,3.6H211.8z"
		/>
	<path class="st2" d="M216.3,371.6h2.2v9.5h-2.2V371.6z"/>
	<path class="st2" d="M221.4,381c-0.7-0.2-1.3-0.5-1.7-0.8l0.7-1.7c0.4,0.3,0.9,0.5,1.5,0.7c0.6,0.2,1.1,0.3,1.7,0.3
		c0.6,0,1.1-0.1,1.4-0.3c0.3-0.2,0.4-0.4,0.4-0.7c0-0.2-0.1-0.4-0.3-0.6s-0.4-0.3-0.7-0.4c-0.3-0.1-0.7-0.2-1.1-0.3
		c-0.7-0.2-1.3-0.3-1.8-0.5c-0.5-0.2-0.9-0.4-1.2-0.8s-0.5-0.9-0.5-1.5c0-0.6,0.1-1.1,0.4-1.5c0.3-0.4,0.8-0.8,1.4-1.1
		s1.3-0.4,2.2-0.4c0.6,0,1.2,0.1,1.8,0.2c0.6,0.1,1.1,0.4,1.5,0.6l-0.7,1.7c-0.9-0.5-1.8-0.7-2.6-0.7c-0.6,0-1.1,0.1-1.4,0.3
		c-0.3,0.2-0.4,0.5-0.4,0.8c0,0.3,0.2,0.6,0.5,0.7c0.3,0.2,0.9,0.3,1.6,0.5c0.7,0.2,1.3,0.3,1.8,0.5c0.5,0.2,0.9,0.4,1.2,0.8
		c0.3,0.4,0.5,0.9,0.5,1.5c0,0.5-0.2,1-0.5,1.5c-0.3,0.4-0.8,0.8-1.4,1.1s-1.3,0.4-2.2,0.4C222.8,381.3,222.1,381.2,221.4,381z"/>
	<path class="st2" d="M235.1,379.1h-4.4l-0.8,2h-2.3l4.2-9.5h2.2l4.3,9.5h-2.3L235.1,379.1z M234.4,377.4l-1.5-3.6l-1.5,3.6H234.4z"
		/>
	<path class="st2" d="M247.6,371.6v9.5h-1.8l-4.7-5.8v5.8h-2.2v-9.5h1.8l4.7,5.8v-5.8H247.6z"/>
	<path class="st2" d="M248.5,383.8c0.6-1,1-2,1.3-3.1c0.3-1,0.4-2.1,0.4-3.3c0-1.2-0.1-2.3-0.4-3.3c-0.3-1-0.7-2.1-1.3-3.1h2
		c0.6,0.8,1,1.8,1.3,2.9s0.4,2.3,0.4,3.5c0,1.3-0.1,2.4-0.4,3.5s-0.7,2-1.3,2.9H248.5z"/>
</g>
<g>
	<path class="st2" d="M174.9,243.4v1.8h-7.4v-9.5h7.2v1.8h-5v2.1h4.4v1.7h-4.4v2.2H174.9z"/>
	<path class="st2" d="M185,245.2l0-5.7l-2.8,4.7h-1l-2.8-4.6v5.6h-2.1v-9.5h1.8l3.6,5.9l3.5-5.9h1.8l0,9.5H185z"/>
	<path class="st2" d="M94.6,261.4c-0.7-0.2-1.3-0.5-1.7-0.8l0.7-1.7c0.4,0.3,0.9,0.5,1.5,0.7c0.6,0.2,1.1,0.3,1.7,0.3
		c0.6,0,1.1-0.1,1.4-0.3c0.3-0.2,0.4-0.4,0.4-0.7c0-0.2-0.1-0.4-0.3-0.6S98,258,97.7,258c-0.3-0.1-0.7-0.2-1.1-0.3
		c-0.7-0.2-1.3-0.3-1.8-0.5c-0.5-0.2-0.9-0.4-1.2-0.8s-0.5-0.9-0.5-1.5c0-0.6,0.1-1.1,0.4-1.5c0.3-0.4,0.8-0.8,1.4-1.1
		s1.3-0.4,2.2-0.4c0.6,0,1.2,0.1,1.8,0.2c0.6,0.1,1.1,0.4,1.5,0.6l-0.7,1.7c-0.9-0.5-1.8-0.7-2.6-0.7c-0.6,0-1.1,0.1-1.4,0.3
		c-0.3,0.2-0.4,0.5-0.4,0.8c0,0.3,0.2,0.6,0.5,0.7c0.3,0.2,0.9,0.3,1.6,0.5c0.7,0.2,1.3,0.3,1.8,0.5c0.5,0.2,0.9,0.4,1.2,0.8
		c0.3,0.4,0.5,0.9,0.5,1.5c0,0.5-0.2,1-0.5,1.5c-0.3,0.4-0.8,0.8-1.4,1.1s-1.3,0.4-2.2,0.4C96,261.7,95.3,261.6,94.6,261.4z"/>
	<path class="st2" d="M108.3,259.5h-4.4l-0.8,2h-2.3l4.2-9.5h2.2l4.3,9.5h-2.3L108.3,259.5z M107.6,257.8l-1.5-3.6l-1.5,3.6H107.6z"
		/>
	<path class="st2" d="M112.9,260.5c-0.8-0.8-1.1-1.8-1.1-3.2V252h2.2v5.3c0,1.7,0.7,2.6,2.1,2.6c0.7,0,1.2-0.2,1.6-0.6
		c0.4-0.4,0.5-1.1,0.5-1.9V252h2.2v5.3c0,1.4-0.4,2.5-1.1,3.2c-0.8,0.8-1.8,1.1-3.2,1.1C114.8,261.7,113.7,261.3,112.9,260.5z
		 M116.7,249.2h2.3l-2.5,2h-1.7L116.7,249.2z"/>
	<path class="st2" d="M122.3,252h4.3c1,0,1.9,0.2,2.7,0.6c0.8,0.4,1.4,1,1.9,1.7c0.4,0.7,0.7,1.6,0.7,2.5c0,1-0.2,1.8-0.7,2.5
		c-0.4,0.7-1.1,1.3-1.9,1.7c-0.8,0.4-1.7,0.6-2.7,0.6h-4.3V252z M126.5,259.7c1,0,1.7-0.3,2.3-0.8c0.6-0.5,0.9-1.2,0.9-2.2
		c0-0.9-0.3-1.6-0.9-2.2c-0.6-0.5-1.3-0.8-2.3-0.8h-2v5.9H126.5z"/>
	<path class="st2" d="M140.5,259.7v1.8h-7.4V252h7.2v1.8h-5v2.1h4.4v1.7h-4.4v2.2H140.5z"/>
	<path class="st2" d="M153.7,257.4c0.3,0.4,0.5,0.9,0.5,1.5c0,0.8-0.3,1.5-1,1.9c-0.6,0.4-1.6,0.7-2.8,0.7h-4.9V252h4.7
		c1.2,0,2.1,0.2,2.7,0.7s0.9,1,0.9,1.8c0,0.5-0.1,0.9-0.3,1.2c-0.2,0.4-0.5,0.6-0.9,0.9C153,256.7,153.4,257,153.7,257.4z
		 M147.7,253.6v2.2h2.2c0.5,0,1-0.1,1.2-0.3c0.3-0.2,0.4-0.5,0.4-0.8c0-0.4-0.1-0.7-0.4-0.8c-0.3-0.2-0.7-0.3-1.2-0.3H147.7z
		 M151.5,259.6c0.3-0.2,0.4-0.5,0.4-0.9c0-0.8-0.6-1.2-1.8-1.2h-2.6v2.4h2.6C150.8,259.8,151.2,259.8,151.5,259.6z"/>
	<path class="st2" d="M156.6,260.5c-0.8-0.8-1.1-1.8-1.1-3.2V252h2.2v5.3c0,1.7,0.7,2.6,2.1,2.6c0.7,0,1.2-0.2,1.6-0.6
		c0.4-0.4,0.5-1.1,0.5-1.9V252h2.2v5.3c0,1.4-0.4,2.5-1.1,3.2c-0.8,0.8-1.8,1.1-3.2,1.1C158.4,261.7,157.3,261.3,156.6,260.5z"/>
	<path class="st2" d="M167.8,261c-0.8-0.4-1.4-1-1.9-1.8s-0.7-1.6-0.7-2.5s0.2-1.8,0.7-2.5s1.1-1.3,1.9-1.8c0.8-0.4,1.7-0.6,2.6-0.6
		c0.8,0,1.6,0.1,2.2,0.4c0.7,0.3,1.2,0.7,1.7,1.3l-1.4,1.3c-0.6-0.7-1.4-1.1-2.4-1.1c-0.6,0-1.1,0.1-1.6,0.4
		c-0.5,0.3-0.8,0.6-1.1,1.1c-0.3,0.5-0.4,1-0.4,1.6c0,0.6,0.1,1.1,0.4,1.6c0.3,0.5,0.6,0.8,1.1,1.1c0.5,0.3,1,0.4,1.6,0.4
		c1,0,1.8-0.4,2.4-1.1l1.4,1.3c-0.5,0.6-1,1-1.7,1.3c-0.7,0.3-1.4,0.4-2.2,0.4C169.5,261.7,168.6,261.5,167.8,261z"/>
	<path class="st2" d="M181.6,259.5h-4.4l-0.8,2h-2.3l4.2-9.5h2.2l4.3,9.5h-2.3L181.6,259.5z M180.9,257.8l-1.5-3.6l-1.5,3.6H180.9z"
		/>
	<path class="st2" d="M185.4,252h2.2v7.7h4.8v1.8h-7V252z"/>
	<g>
		<path class="st2" d="M96.5,237.6h-3v-1.8h8.3v1.8h-3v7.7h-2.2V237.6z"/>
		<path class="st2" d="M109.9,243.6v1.8h-7.4v-9.5h7.2v1.8h-5v2.1h4.4v1.7h-4.4v2.2H109.9z M106.8,233.1h2.3l-2.5,2h-1.7
			L106.8,233.1z"/>
		<path class="st2" d="M113.3,244.9c-0.8-0.4-1.4-1-1.9-1.8s-0.7-1.6-0.7-2.5s0.2-1.8,0.7-2.5s1.1-1.3,1.9-1.8
			c0.8-0.4,1.7-0.6,2.6-0.6c0.8,0,1.6,0.1,2.2,0.4c0.7,0.3,1.2,0.7,1.7,1.3l-1.4,1.3c-0.6-0.7-1.4-1.1-2.4-1.1
			c-0.6,0-1.1,0.1-1.6,0.4c-0.5,0.3-0.8,0.6-1.1,1.1c-0.3,0.5-0.4,1-0.4,1.6c0,0.6,0.1,1.1,0.4,1.6c0.3,0.5,0.6,0.8,1.1,1.1
			c0.5,0.3,1,0.4,1.6,0.4c1,0,1.8-0.4,2.4-1.1l1.4,1.3c-0.5,0.6-1,1-1.7,1.3c-0.7,0.3-1.4,0.4-2.2,0.4
			C114.9,245.5,114,245.3,113.3,244.9z"/>
		<path class="st2" d="M129.7,235.8v9.5h-1.8l-4.7-5.8v5.8H121v-9.5h1.8l4.7,5.8v-5.8H129.7z"/>
		<path class="st2" d="M131.6,235.8h2.2v9.5h-2.2V235.8z"/>
		<path class="st2" d="M137.7,244.9c-0.8-0.4-1.4-1-1.9-1.8s-0.7-1.6-0.7-2.5s0.2-1.8,0.7-2.5s1.1-1.3,1.9-1.8
			c0.8-0.4,1.7-0.6,2.6-0.6c0.8,0,1.6,0.1,2.2,0.4c0.7,0.3,1.2,0.7,1.7,1.3l-1.4,1.3c-0.6-0.7-1.4-1.1-2.4-1.1
			c-0.6,0-1.1,0.1-1.6,0.4c-0.5,0.3-0.8,0.6-1.1,1.1c-0.3,0.5-0.4,1-0.4,1.6c0,0.6,0.1,1.1,0.4,1.6c0.3,0.5,0.6,0.8,1.1,1.1
			c0.5,0.3,1,0.4,1.6,0.4c1,0,1.8-0.4,2.4-1.1l1.4,1.3c-0.5,0.6-1,1-1.7,1.3c-0.7,0.3-1.4,0.4-2.2,0.4
			C139.3,245.5,138.4,245.3,137.7,244.9z"/>
		<path class="st2" d="M147.1,244.8c-0.8-0.4-1.4-1-1.9-1.8s-0.7-1.6-0.7-2.5c0-0.9,0.2-1.8,0.7-2.5s1.1-1.3,1.9-1.8
			c0.8-0.4,1.7-0.6,2.7-0.6c1,0,1.9,0.2,2.7,0.6c0.8,0.4,1.4,1,1.9,1.8c0.5,0.7,0.7,1.6,0.7,2.5c0,0.9-0.2,1.8-0.7,2.5
			c-0.5,0.7-1.1,1.3-1.9,1.8c-0.8,0.4-1.7,0.6-2.7,0.6C148.8,245.5,147.9,245.3,147.1,244.8z M151.3,243.2c0.5-0.3,0.8-0.6,1.1-1.1
			c0.3-0.5,0.4-1,0.4-1.6c0-0.6-0.1-1.1-0.4-1.6c-0.3-0.5-0.6-0.8-1.1-1.1c-0.5-0.3-1-0.4-1.5-0.4c-0.6,0-1.1,0.1-1.5,0.4
			c-0.5,0.3-0.8,0.6-1.1,1.1c-0.3,0.5-0.4,1-0.4,1.6c0,0.6,0.1,1.1,0.4,1.6c0.3,0.5,0.6,0.8,1.1,1.1c0.5,0.3,1,0.4,1.5,0.4
			C150.3,243.6,150.9,243.5,151.3,243.2z"/>
		<path class="st2" d="M157.3,245.2c-0.7-0.2-1.3-0.5-1.7-0.8l0.7-1.7c0.4,0.3,0.9,0.5,1.5,0.7c0.6,0.2,1.1,0.3,1.7,0.3
			c0.6,0,1.1-0.1,1.4-0.3c0.3-0.2,0.4-0.4,0.4-0.7c0-0.2-0.1-0.4-0.3-0.6s-0.4-0.3-0.7-0.4c-0.3-0.1-0.7-0.2-1.1-0.3
			c-0.7-0.2-1.3-0.3-1.8-0.5c-0.5-0.2-0.9-0.4-1.2-0.8s-0.5-0.9-0.5-1.5c0-0.6,0.1-1.1,0.4-1.5c0.3-0.4,0.8-0.8,1.4-1.1
			s1.3-0.4,2.2-0.4c0.6,0,1.2,0.1,1.8,0.2c0.6,0.1,1.1,0.4,1.5,0.6l-0.7,1.7c-0.9-0.5-1.8-0.7-2.6-0.7c-0.6,0-1.1,0.1-1.4,0.3
			c-0.3,0.2-0.4,0.5-0.4,0.8c0,0.3,0.2,0.6,0.5,0.7c0.3,0.2,0.9,0.3,1.6,0.5c0.7,0.2,1.3,0.3,1.8,0.5c0.5,0.2,0.9,0.4,1.2,0.8
			c0.3,0.4,0.5,0.9,0.5,1.5c0,0.5-0.2,1-0.5,1.5c-0.3,0.4-0.8,0.8-1.4,1.1s-1.3,0.4-2.2,0.4C158.7,245.5,158,245.4,157.3,245.2z"/>
	</g>
</g>
</svg>
