<?xml version="1.0" encoding="utf-8"?>
<!-- Generator: Adobe Illustrator 23.1.1, SVG Export Plug-In . SVG Version: 6.00 Build 0)  -->
<svg version="1.1" id="Camada_1" xmlns="http://www.w3.org/2000/svg" xmlns:xlink="http://www.w3.org/1999/xlink" x="0px" y="0px"
	 viewBox="0 0 595.3 248.4" style="enable-background:new 0 0 595.3 248.4;" xml:space="preserve">
<style type="text/css">
	.st0{fill:#904B27;}
	.st1{opacity:0.8;fill:#F58442;enable-background:new    ;}
	.st2{enable-background:new    ;}
	.st3{fill:#FFFFFF;}
	.st4{opacity:0.3;fill:#F58442;enable-background:new    ;}
	.st5{fill:#A3A3A3;}
	.st6{fill:#FFF9DE;}
</style>
<polygon class="st0" points="158.8,215.9 158.8,174 122.5,153 86.1,174 86.1,215.9 122.5,236.9 "/>
<polygon class="st1" points="199.7,147.5 199.7,105.5 163.4,84.6 127.1,105.5 127.1,147.5 163.4,168.5 "/>
<polygon class="st1" points="118.7,147.5 118.7,105.5 82.3,84.6 46,105.5 46,147.5 82.3,168.5 "/>
<polygon class="st1" points="159.4,78.7 159.4,36.8 123,15.8 86.7,36.8 86.7,78.7 123,99.7 "/>
<polygon class="st1" points="78.9,79.3 78.9,37.3 42.6,16.4 6.2,37.3 6.2,79.3 42.6,100.3 "/>
<g class="st2">
	<path class="st3" d="M19,56.7h-2.2v-1.3h6.1v1.3h-2.2v5.7H19V56.7z"/>
	<path class="st3" d="M29.1,61v1.3h-5.4v-7H29v1.3h-3.7v1.5h3.2v1.3h-3.2V61H29.1z M26.8,53.3h1.7l-1.8,1.4h-1.2L26.8,53.3z"/>
	<path class="st3" d="M31.8,62c-0.6-0.3-1-0.7-1.4-1.3c-0.3-0.5-0.5-1.2-0.5-1.9s0.2-1.3,0.5-1.9c0.3-0.5,0.8-1,1.4-1.3
		c0.6-0.3,1.2-0.5,1.9-0.5c0.6,0,1.2,0.1,1.6,0.3c0.5,0.2,0.9,0.5,1.2,0.9l-1,1c-0.5-0.5-1.1-0.8-1.8-0.8c-0.4,0-0.8,0.1-1.2,0.3
		c-0.3,0.2-0.6,0.5-0.8,0.8s-0.3,0.7-0.3,1.2s0.1,0.8,0.3,1.2s0.5,0.6,0.8,0.8c0.3,0.2,0.7,0.3,1.2,0.3c0.7,0,1.3-0.3,1.8-0.8l1,1
		c-0.3,0.4-0.7,0.7-1.2,0.9c-0.5,0.2-1,0.3-1.6,0.3C33,62.5,32.4,62.3,31.8,62z"/>
	<path class="st3" d="M44.1,55.3v7h-1.3l-3.5-4.2v4.2h-1.6v-7h1.3l3.5,4.2v-4.2H44.1z"/>
	<path class="st3" d="M45.8,55.3h1.6v7h-1.6V55.3z"/>
	<path class="st3" d="M50.5,62c-0.6-0.3-1-0.7-1.4-1.3c-0.3-0.5-0.5-1.2-0.5-1.9s0.2-1.3,0.5-1.9c0.3-0.5,0.8-1,1.4-1.3
		c0.6-0.3,1.2-0.5,1.9-0.5c0.6,0,1.2,0.1,1.6,0.3c0.5,0.2,0.9,0.5,1.2,0.9l-1,1c-0.5-0.5-1.1-0.8-1.8-0.8c-0.4,0-0.8,0.1-1.2,0.3
		c-0.3,0.2-0.6,0.5-0.8,0.8s-0.3,0.7-0.3,1.2s0.1,0.8,0.3,1.2s0.5,0.6,0.8,0.8c0.3,0.2,0.7,0.3,1.2,0.3c0.7,0,1.3-0.3,1.8-0.8l1,1
		c-0.3,0.4-0.7,0.7-1.2,0.9c-0.5,0.2-1,0.3-1.6,0.3C51.7,62.5,51.1,62.3,50.5,62z"/>
	<path class="st3" d="M57.7,62c-0.6-0.3-1-0.7-1.4-1.3c-0.3-0.6-0.5-1.2-0.5-1.9s0.2-1.3,0.5-1.9c0.3-0.5,0.8-1,1.4-1.3
		c0.6-0.3,1.2-0.5,2-0.5c0.7,0,1.4,0.2,2,0.5c0.6,0.3,1,0.7,1.4,1.3c0.3,0.6,0.5,1.2,0.5,1.9s-0.2,1.3-0.5,1.9
		c-0.3,0.5-0.8,1-1.4,1.3c-0.6,0.3-1.2,0.5-2,0.5C58.9,62.5,58.3,62.3,57.7,62z M60.8,60.8c0.3-0.2,0.6-0.5,0.8-0.8s0.3-0.7,0.3-1.2
		s-0.1-0.8-0.3-1.2s-0.5-0.6-0.8-0.8c-0.3-0.2-0.7-0.3-1.1-0.3c-0.4,0-0.8,0.1-1.1,0.3c-0.3,0.2-0.6,0.5-0.8,0.8s-0.3,0.7-0.3,1.2
		s0.1,0.8,0.3,1.2s0.5,0.6,0.8,0.8c0.3,0.2,0.7,0.3,1.1,0.3C60.1,61.1,60.4,61,60.8,60.8z"/>
	<path class="st3" d="M65.4,62.2c-0.5-0.1-0.9-0.3-1.2-0.6l0.6-1.2c0.3,0.2,0.7,0.4,1.1,0.5s0.8,0.2,1.2,0.2c0.5,0,0.8-0.1,1-0.2
		c0.2-0.1,0.3-0.3,0.3-0.5c0-0.2-0.1-0.3-0.2-0.4c-0.1-0.1-0.3-0.2-0.5-0.3c-0.2-0.1-0.5-0.1-0.8-0.2c-0.5-0.1-1-0.3-1.3-0.4
		c-0.3-0.1-0.6-0.3-0.9-0.6c-0.2-0.3-0.4-0.7-0.4-1.1c0-0.4,0.1-0.8,0.3-1.1s0.6-0.6,1-0.8s1-0.3,1.6-0.3c0.4,0,0.9,0.1,1.3,0.2
		c0.4,0.1,0.8,0.3,1.1,0.5l-0.5,1.2c-0.6-0.4-1.3-0.6-1.9-0.6c-0.5,0-0.8,0.1-1,0.2s-0.3,0.3-0.3,0.6c0,0.2,0.1,0.4,0.4,0.5
		c0.2,0.1,0.6,0.2,1.1,0.3c0.5,0.1,1,0.3,1.3,0.4c0.3,0.1,0.6,0.3,0.9,0.6c0.2,0.3,0.4,0.6,0.4,1.1c0,0.4-0.1,0.8-0.3,1.1
		c-0.2,0.3-0.6,0.6-1,0.8c-0.4,0.2-1,0.3-1.6,0.3C66.5,62.5,65.9,62.4,65.4,62.2z"/>
</g>
<g class="st2">
	<path class="st3" d="M99.5,56.7h-2.2v-1.3h6.1v1.3h-2.2v5.7h-1.6V56.7z"/>
	<path class="st3" d="M109.6,61v1.3h-5.4v-7h5.3v1.3h-3.7v1.5h3.2v1.3h-3.2V61H109.6z M107.3,53.3h1.7l-1.8,1.4h-1.2L107.3,53.3z"/>
	<path class="st3" d="M112.3,62c-0.6-0.3-1-0.7-1.4-1.3c-0.3-0.5-0.5-1.2-0.5-1.9s0.2-1.3,0.5-1.9c0.3-0.5,0.8-1,1.4-1.3
		c0.6-0.3,1.2-0.5,1.9-0.5c0.6,0,1.2,0.1,1.6,0.3c0.5,0.2,0.9,0.5,1.2,0.9l-1,1c-0.5-0.5-1.1-0.8-1.8-0.8c-0.4,0-0.8,0.1-1.2,0.3
		c-0.3,0.2-0.6,0.5-0.8,0.8s-0.3,0.7-0.3,1.2s0.1,0.8,0.3,1.2s0.5,0.6,0.8,0.8c0.3,0.2,0.7,0.3,1.2,0.3c0.7,0,1.3-0.3,1.8-0.8l1,1
		c-0.3,0.4-0.7,0.7-1.2,0.9c-0.5,0.2-1,0.3-1.6,0.3C113.5,62.5,112.9,62.3,112.3,62z"/>
	<path class="st3" d="M124.6,55.3v7h-1.3l-3.5-4.2v4.2h-1.6v-7h1.3l3.5,4.2v-4.2H124.6z"/>
	<path class="st3" d="M126.3,55.3h1.6v7h-1.6V55.3z"/>
	<path class="st3" d="M131,62c-0.6-0.3-1-0.7-1.4-1.3c-0.3-0.5-0.5-1.2-0.5-1.9s0.2-1.3,0.5-1.9c0.3-0.5,0.8-1,1.4-1.3
		c0.6-0.3,1.2-0.5,1.9-0.5c0.6,0,1.2,0.1,1.6,0.3c0.5,0.2,0.9,0.5,1.2,0.9l-1,1c-0.5-0.5-1.1-0.8-1.8-0.8c-0.4,0-0.8,0.1-1.2,0.3
		c-0.3,0.2-0.6,0.5-0.8,0.8s-0.3,0.7-0.3,1.2s0.1,0.8,0.3,1.2s0.5,0.6,0.8,0.8c0.3,0.2,0.7,0.3,1.2,0.3c0.7,0,1.3-0.3,1.8-0.8l1,1
		c-0.3,0.4-0.7,0.7-1.2,0.9c-0.5,0.2-1,0.3-1.6,0.3C132.2,62.5,131.6,62.3,131,62z"/>
	<path class="st3" d="M138.2,62c-0.6-0.3-1-0.7-1.4-1.3c-0.3-0.6-0.5-1.2-0.5-1.9s0.2-1.3,0.5-1.9c0.3-0.5,0.8-1,1.4-1.3
		c0.6-0.3,1.2-0.5,2-0.5c0.7,0,1.4,0.2,2,0.5c0.6,0.3,1,0.7,1.4,1.3c0.3,0.6,0.5,1.2,0.5,1.9s-0.2,1.3-0.5,1.9
		c-0.3,0.5-0.8,1-1.4,1.3c-0.6,0.3-1.2,0.5-2,0.5C139.4,62.5,138.8,62.3,138.2,62z M141.3,60.8c0.3-0.2,0.6-0.5,0.8-0.8
		s0.3-0.7,0.3-1.2s-0.1-0.8-0.3-1.2s-0.5-0.6-0.8-0.8c-0.3-0.2-0.7-0.3-1.1-0.3c-0.4,0-0.8,0.1-1.1,0.3c-0.3,0.2-0.6,0.5-0.8,0.8
		s-0.3,0.7-0.3,1.2s0.1,0.8,0.3,1.2s0.5,0.6,0.8,0.8c0.3,0.2,0.7,0.3,1.1,0.3C140.6,61.1,140.9,61,141.3,60.8z"/>
	<path class="st3" d="M145.9,62.2c-0.5-0.1-0.9-0.3-1.2-0.6l0.6-1.2c0.3,0.2,0.7,0.4,1.1,0.5s0.8,0.2,1.2,0.2c0.5,0,0.8-0.1,1-0.2
		c0.2-0.1,0.3-0.3,0.3-0.5c0-0.2-0.1-0.3-0.2-0.4c-0.1-0.1-0.3-0.2-0.5-0.3c-0.2-0.1-0.5-0.1-0.8-0.2c-0.5-0.1-1-0.3-1.3-0.4
		c-0.3-0.1-0.6-0.3-0.9-0.6c-0.2-0.3-0.4-0.7-0.4-1.1c0-0.4,0.1-0.8,0.3-1.1s0.6-0.6,1-0.8s1-0.3,1.6-0.3c0.4,0,0.9,0.1,1.3,0.2
		c0.4,0.1,0.8,0.3,1.1,0.5l-0.5,1.2c-0.6-0.4-1.3-0.6-1.9-0.6c-0.5,0-0.8,0.1-1,0.2s-0.3,0.3-0.3,0.6c0,0.2,0.1,0.4,0.4,0.5
		c0.2,0.1,0.6,0.2,1.1,0.3c0.5,0.1,1,0.3,1.3,0.4c0.3,0.1,0.6,0.3,0.9,0.6c0.2,0.3,0.4,0.6,0.4,1.1c0,0.4-0.1,0.8-0.3,1.1
		c-0.2,0.3-0.6,0.6-1,0.8c-0.4,0.2-1,0.3-1.6,0.3C146.9,62.5,146.4,62.4,145.9,62.2z"/>
</g>
<g class="st2">
	<path class="st3" d="M58.2,124H56v-1.3h6.1v1.3h-2.2v5.7h-1.6V124z"/>
	<path class="st3" d="M68.4,128.4v1.3h-5.4v-7h5.3v1.3h-3.7v1.5h3.2v1.3h-3.2v1.6H68.4z M66,120.6h1.7l-1.8,1.4h-1.2L66,120.6z"/>
	<path class="st3" d="M71,129.3c-0.6-0.3-1-0.7-1.4-1.3c-0.3-0.5-0.5-1.2-0.5-1.9s0.2-1.3,0.5-1.9c0.3-0.5,0.8-1,1.4-1.3
		c0.6-0.3,1.2-0.5,1.9-0.5c0.6,0,1.2,0.1,1.6,0.3c0.5,0.2,0.9,0.5,1.2,0.9l-1,1c-0.5-0.5-1.1-0.8-1.8-0.8c-0.4,0-0.8,0.1-1.2,0.3
		c-0.3,0.2-0.6,0.5-0.8,0.8s-0.3,0.7-0.3,1.2s0.1,0.8,0.3,1.2s0.5,0.6,0.8,0.8c0.3,0.2,0.7,0.3,1.2,0.3c0.7,0,1.3-0.3,1.8-0.8l1,1
		c-0.3,0.4-0.7,0.7-1.2,0.9c-0.5,0.2-1,0.3-1.6,0.3C72.3,129.8,71.6,129.6,71,129.3z"/>
	<path class="st3" d="M83.4,122.7v7H82l-3.5-4.2v4.2H77v-7h1.3l3.5,4.2v-4.2H83.4z"/>
	<path class="st3" d="M85,122.7h1.6v7H85V122.7z"/>
	<path class="st3" d="M89.7,129.3c-0.6-0.3-1-0.7-1.4-1.3c-0.3-0.5-0.5-1.2-0.5-1.9s0.2-1.3,0.5-1.9c0.3-0.5,0.8-1,1.4-1.3
		c0.6-0.3,1.2-0.5,1.9-0.5c0.6,0,1.2,0.1,1.6,0.3c0.5,0.2,0.9,0.5,1.2,0.9l-1,1c-0.5-0.5-1.1-0.8-1.8-0.8c-0.4,0-0.8,0.1-1.2,0.3
		c-0.3,0.2-0.6,0.5-0.8,0.8s-0.3,0.7-0.3,1.2s0.1,0.8,0.3,1.2s0.5,0.6,0.8,0.8c0.3,0.2,0.7,0.3,1.2,0.3c0.7,0,1.3-0.3,1.8-0.8l1,1
		c-0.3,0.4-0.7,0.7-1.2,0.9c-0.5,0.2-1,0.3-1.6,0.3C91,129.8,90.3,129.6,89.7,129.3z"/>
	<path class="st3" d="M96.9,129.3c-0.6-0.3-1-0.7-1.4-1.3c-0.3-0.6-0.5-1.2-0.5-1.9s0.2-1.3,0.5-1.9c0.3-0.5,0.8-1,1.4-1.3
		c0.6-0.3,1.2-0.5,2-0.5c0.7,0,1.4,0.2,2,0.5c0.6,0.3,1,0.7,1.4,1.3c0.3,0.6,0.5,1.2,0.5,1.9s-0.2,1.3-0.5,1.9
		c-0.3,0.5-0.8,1-1.4,1.3c-0.6,0.3-1.2,0.5-2,0.5C98.2,129.8,97.5,129.6,96.9,129.3z M100,128.1c0.3-0.2,0.6-0.5,0.8-0.8
		s0.3-0.7,0.3-1.2s-0.1-0.8-0.3-1.2s-0.5-0.6-0.8-0.8c-0.3-0.2-0.7-0.3-1.1-0.3c-0.4,0-0.8,0.1-1.1,0.3c-0.3,0.2-0.6,0.5-0.8,0.8
		s-0.3,0.7-0.3,1.2s0.1,0.8,0.3,1.2s0.5,0.6,0.8,0.8c0.3,0.2,0.7,0.3,1.1,0.3C99.3,128.4,99.7,128.3,100,128.1z"/>
	<path class="st3" d="M104.6,129.5c-0.5-0.1-0.9-0.3-1.2-0.6l0.6-1.2c0.3,0.2,0.7,0.4,1.1,0.5s0.8,0.2,1.2,0.2c0.5,0,0.8-0.1,1-0.2
		c0.2-0.1,0.3-0.3,0.3-0.5c0-0.2-0.1-0.3-0.2-0.4c-0.1-0.1-0.3-0.2-0.5-0.3c-0.2-0.1-0.5-0.1-0.8-0.2c-0.5-0.1-1-0.3-1.3-0.4
		c-0.3-0.1-0.6-0.3-0.9-0.6c-0.2-0.3-0.4-0.7-0.4-1.1c0-0.4,0.1-0.8,0.3-1.1s0.6-0.6,1-0.8s1-0.3,1.6-0.3c0.4,0,0.9,0.1,1.3,0.2
		c0.4,0.1,0.8,0.3,1.1,0.5l-0.5,1.2c-0.6-0.4-1.3-0.6-1.9-0.6c-0.5,0-0.8,0.1-1,0.2s-0.3,0.3-0.3,0.6c0,0.2,0.1,0.4,0.4,0.5
		c0.2,0.1,0.6,0.2,1.1,0.3c0.5,0.1,1,0.3,1.3,0.4c0.3,0.1,0.6,0.3,0.9,0.6c0.2,0.3,0.4,0.6,0.4,1.1c0,0.4-0.1,0.8-0.3,1.1
		c-0.2,0.3-0.6,0.6-1,0.8c-0.4,0.2-1,0.3-1.6,0.3C105.7,129.8,105.1,129.7,104.6,129.5z"/>
</g>
<g class="st2">
	<path class="st3" d="M140.4,125.1h-2.2v-1.3h6.1v1.3H142v5.7h-1.6V125.1z"/>
	<path class="st3" d="M150.5,129.5v1.3h-5.4v-7h5.3v1.3h-3.7v1.5h3.2v1.3h-3.2v1.6H150.5z M148.2,121.8h1.7l-1.8,1.4h-1.2
		L148.2,121.8z"/>
	<path class="st3" d="M153.2,130.4c-0.6-0.3-1-0.7-1.4-1.3c-0.3-0.5-0.5-1.2-0.5-1.9s0.2-1.3,0.5-1.9c0.3-0.5,0.8-1,1.4-1.3
		c0.6-0.3,1.2-0.5,1.9-0.5c0.6,0,1.2,0.1,1.6,0.3c0.5,0.2,0.9,0.5,1.2,0.9l-1,1c-0.5-0.5-1.1-0.8-1.8-0.8c-0.4,0-0.8,0.1-1.2,0.3
		c-0.3,0.2-0.6,0.5-0.8,0.8s-0.3,0.7-0.3,1.2s0.1,0.8,0.3,1.2s0.5,0.6,0.8,0.8c0.3,0.2,0.7,0.3,1.2,0.3c0.7,0,1.3-0.3,1.8-0.8l1,1
		c-0.3,0.4-0.7,0.7-1.2,0.9c-0.5,0.2-1,0.3-1.6,0.3C154.4,130.9,153.8,130.7,153.2,130.4z"/>
	<path class="st3" d="M165.5,123.8v7h-1.3l-3.5-4.2v4.2h-1.6v-7h1.3l3.5,4.2v-4.2H165.5z"/>
	<path class="st3" d="M167.2,123.8h1.6v7h-1.6V123.8z"/>
	<path class="st3" d="M171.9,130.4c-0.6-0.3-1-0.7-1.4-1.3c-0.3-0.5-0.5-1.2-0.5-1.9s0.2-1.3,0.5-1.9c0.3-0.5,0.8-1,1.4-1.3
		c0.6-0.3,1.2-0.5,1.9-0.5c0.6,0,1.2,0.1,1.6,0.3c0.5,0.2,0.9,0.5,1.2,0.9l-1,1c-0.5-0.5-1.1-0.8-1.8-0.8c-0.4,0-0.8,0.1-1.2,0.3
		c-0.3,0.2-0.6,0.5-0.8,0.8s-0.3,0.7-0.3,1.2s0.1,0.8,0.3,1.2s0.5,0.6,0.8,0.8c0.3,0.2,0.7,0.3,1.2,0.3c0.7,0,1.3-0.3,1.8-0.8l1,1
		c-0.3,0.4-0.7,0.7-1.2,0.9c-0.5,0.2-1,0.3-1.6,0.3C173.1,130.9,172.5,130.7,171.9,130.4z"/>
	<path class="st3" d="M179.1,130.4c-0.6-0.3-1-0.7-1.4-1.3c-0.3-0.6-0.5-1.2-0.5-1.9s0.2-1.3,0.5-1.9c0.3-0.5,0.8-1,1.4-1.3
		c0.6-0.3,1.2-0.5,2-0.5c0.7,0,1.4,0.2,2,0.5c0.6,0.3,1,0.7,1.4,1.3c0.3,0.6,0.5,1.2,0.5,1.9s-0.2,1.3-0.5,1.9
		c-0.3,0.5-0.8,1-1.4,1.3c-0.6,0.3-1.2,0.5-2,0.5C180.3,130.9,179.7,130.7,179.1,130.4z M182.2,129.2c0.3-0.2,0.6-0.5,0.8-0.8
		s0.3-0.7,0.3-1.2s-0.1-0.8-0.3-1.2s-0.5-0.6-0.8-0.8c-0.3-0.2-0.7-0.3-1.1-0.3c-0.4,0-0.8,0.1-1.1,0.3c-0.3,0.2-0.6,0.5-0.8,0.8
		s-0.3,0.7-0.3,1.2s0.1,0.8,0.3,1.2s0.5,0.6,0.8,0.8c0.3,0.2,0.7,0.3,1.1,0.3C181.5,129.5,181.8,129.4,182.2,129.2z"/>
	<path class="st3" d="M186.8,130.7c-0.5-0.1-0.9-0.3-1.2-0.6l0.6-1.2c0.3,0.2,0.7,0.4,1.1,0.5s0.8,0.2,1.2,0.2c0.5,0,0.8-0.1,1-0.2
		c0.2-0.1,0.3-0.3,0.3-0.5c0-0.2-0.1-0.3-0.2-0.4c-0.1-0.1-0.3-0.2-0.5-0.3c-0.2-0.1-0.5-0.1-0.8-0.2c-0.5-0.1-1-0.3-1.3-0.4
		c-0.3-0.1-0.6-0.3-0.9-0.6c-0.2-0.3-0.4-0.7-0.4-1.1c0-0.4,0.1-0.8,0.3-1.1s0.6-0.6,1-0.8s1-0.3,1.6-0.3c0.4,0,0.9,0.1,1.3,0.2
		c0.4,0.1,0.8,0.3,1.1,0.5l-0.5,1.2c-0.6-0.4-1.3-0.6-1.9-0.6c-0.5,0-0.8,0.1-1,0.2s-0.3,0.3-0.3,0.6c0,0.2,0.1,0.4,0.4,0.5
		c0.2,0.1,0.6,0.2,1.1,0.3c0.5,0.1,1,0.3,1.3,0.4c0.3,0.1,0.6,0.3,0.9,0.6c0.2,0.3,0.4,0.6,0.4,1.1c0,0.4-0.1,0.8-0.3,1.1
		c-0.2,0.3-0.6,0.6-1,0.8c-0.4,0.2-1,0.3-1.6,0.3C187.8,130.9,187.3,130.8,186.8,130.7z"/>
</g>
<g class="st2">
	<path class="st3" d="M113.8,199.8h-9.9l-1.9,4.6h-5.1l9.5-21.3h4.9l9.5,21.3h-5.2L113.8,199.8z M112.3,196.1l-3.4-8.2l-3.4,8.2
		H112.3z"/>
	<path class="st3" d="M123.1,183.1h4.9v21.3h-4.9V183.1z"/>
	<path class="st3" d="M135.2,204.1c-1.6-0.5-2.8-1.1-3.8-1.8l1.7-3.7c0.9,0.7,2,1.2,3.3,1.6c1.3,0.4,2.5,0.6,3.8,0.6
		c1.4,0,2.4-0.2,3.1-0.6s1-1,1-1.7c0-0.5-0.2-0.9-0.6-1.3c-0.4-0.3-0.9-0.6-1.5-0.8s-1.5-0.4-2.5-0.7c-1.6-0.4-3-0.8-4-1.2
		c-1-0.4-1.9-1-2.7-1.9c-0.7-0.9-1.1-2-1.1-3.4c0-1.2,0.3-2.4,1-3.4c0.7-1,1.7-1.8,3-2.4s3-0.9,5-0.9c1.4,0,2.7,0.2,4,0.5
		c1.3,0.3,2.4,0.8,3.4,1.4l-1.5,3.8c-2-1.1-3.9-1.7-5.9-1.7c-1.4,0-2.4,0.2-3.1,0.7c-0.7,0.4-1,1-1,1.8c0,0.7,0.4,1.3,1.1,1.6
		c0.8,0.4,1.9,0.7,3.5,1.1c1.6,0.4,3,0.8,4,1.2c1,0.4,1.9,1,2.7,1.8c0.7,0.8,1.1,2,1.1,3.4c0,1.2-0.3,2.3-1,3.3
		c-0.7,1-1.7,1.8-3.1,2.4c-1.4,0.6-3,0.9-5,0.9C138.4,204.8,136.8,204.5,135.2,204.1z"/>
</g>
<polygon class="st0" points="352.9,215.9 352.9,174 316.6,153 280.2,174 280.2,215.9 316.6,236.9 "/>
<polygon class="st4" points="393.8,147.5 393.8,105.5 357.5,84.6 321.1,105.5 321.1,147.5 357.5,168.5 "/>
<polygon class="st5" points="312.8,147.5 312.8,105.5 276.4,84.6 240.1,105.5 240.1,147.5 276.4,168.5 "/>
<polygon class="st1" points="353.5,78.7 353.5,36.8 317.1,15.8 280.8,36.8 280.8,78.7 317.1,99.7 "/>
<polygon class="st4" points="273,79.3 273,37.3 236.6,16.4 200.3,37.3 200.3,79.3 236.6,100.3 "/>
<g class="st2">
	<path class="st3" d="M293.5,56.7h-2.2v-1.3h6.1v1.3h-2.2v5.7h-1.6V56.7z"/>
	<path class="st3" d="M303.7,61v1.3h-5.4v-7h5.3v1.3h-3.7v1.5h3.2v1.3h-3.2V61H303.7z M301.4,53.3h1.7l-1.8,1.4H300L301.4,53.3z"/>
	<path class="st3" d="M306.4,62c-0.6-0.3-1-0.7-1.4-1.3s-0.5-1.2-0.5-1.9s0.2-1.3,0.5-1.9s0.8-1,1.4-1.3c0.6-0.3,1.2-0.5,1.9-0.5
		c0.6,0,1.2,0.1,1.6,0.3c0.5,0.2,0.9,0.5,1.2,0.9l-1,1c-0.5-0.5-1.1-0.8-1.8-0.8c-0.4,0-0.8,0.1-1.2,0.3c-0.3,0.2-0.6,0.5-0.8,0.8
		c-0.2,0.3-0.3,0.7-0.3,1.2s0.1,0.8,0.3,1.2c0.2,0.3,0.5,0.6,0.8,0.8c0.3,0.2,0.7,0.3,1.2,0.3c0.7,0,1.3-0.3,1.8-0.8l1,1
		c-0.3,0.4-0.7,0.7-1.2,0.9c-0.5,0.2-1,0.3-1.7,0.3C307.6,62.5,306.9,62.3,306.4,62z"/>
	<path class="st3" d="M318.7,55.3v7h-1.3l-3.5-4.2v4.2h-1.6v-7h1.3l3.5,4.2v-4.2H318.7z"/>
	<path class="st3" d="M320.4,55.3h1.6v7h-1.6V55.3z"/>
	<path class="st3" d="M325.1,62c-0.6-0.3-1-0.7-1.4-1.3s-0.5-1.2-0.5-1.9s0.2-1.3,0.5-1.9s0.8-1,1.4-1.3c0.6-0.3,1.2-0.5,1.9-0.5
		c0.6,0,1.2,0.1,1.6,0.3c0.5,0.2,0.9,0.5,1.2,0.9l-1,1c-0.5-0.5-1.1-0.8-1.8-0.8c-0.4,0-0.8,0.1-1.2,0.3c-0.3,0.2-0.6,0.5-0.8,0.8
		c-0.2,0.3-0.3,0.7-0.3,1.2s0.1,0.8,0.3,1.2c0.2,0.3,0.5,0.6,0.8,0.8c0.3,0.2,0.7,0.3,1.2,0.3c0.7,0,1.3-0.3,1.8-0.8l1,1
		c-0.3,0.4-0.7,0.7-1.2,0.9c-0.5,0.2-1,0.3-1.7,0.3C326.3,62.5,325.6,62.3,325.1,62z"/>
	<path class="st3" d="M332.3,62c-0.6-0.3-1-0.7-1.4-1.3c-0.3-0.6-0.5-1.2-0.5-1.9s0.2-1.3,0.5-1.9c0.3-0.5,0.8-1,1.4-1.3
		c0.6-0.3,1.2-0.5,2-0.5s1.4,0.2,2,0.5c0.6,0.3,1,0.7,1.4,1.3c0.3,0.6,0.5,1.2,0.5,1.9s-0.2,1.3-0.5,1.9c-0.3,0.5-0.8,1-1.4,1.3
		s-1.2,0.5-2,0.5S332.8,62.3,332.3,62z M335.3,60.8c0.3-0.2,0.6-0.5,0.8-0.8c0.2-0.3,0.3-0.7,0.3-1.2s-0.1-0.8-0.3-1.2
		c-0.2-0.3-0.5-0.6-0.8-0.8c-0.3-0.2-0.7-0.3-1.1-0.3s-0.8,0.1-1.1,0.3c-0.3,0.2-0.6,0.5-0.8,0.8c-0.2,0.3-0.3,0.7-0.3,1.2
		s0.1,0.8,0.3,1.2c0.2,0.3,0.5,0.6,0.8,0.8c0.3,0.2,0.7,0.3,1.1,0.3S335,61,335.3,60.8z"/>
	<path class="st3" d="M340,62.2c-0.5-0.1-0.9-0.3-1.2-0.6l0.5-1.2c0.3,0.2,0.7,0.4,1.1,0.5c0.4,0.1,0.8,0.2,1.2,0.2
		c0.5,0,0.8-0.1,1-0.2s0.3-0.3,0.3-0.5c0-0.2-0.1-0.3-0.2-0.4c-0.1-0.1-0.3-0.2-0.5-0.3c-0.2-0.1-0.5-0.1-0.8-0.2
		c-0.5-0.1-1-0.3-1.3-0.4s-0.6-0.3-0.9-0.6c-0.2-0.3-0.4-0.7-0.4-1.1c0-0.4,0.1-0.8,0.3-1.1c0.2-0.3,0.6-0.6,1-0.8s1-0.3,1.6-0.3
		c0.4,0,0.9,0.1,1.3,0.2c0.4,0.1,0.8,0.3,1.1,0.5l-0.5,1.2c-0.6-0.4-1.3-0.6-1.9-0.6c-0.5,0-0.8,0.1-1,0.2s-0.3,0.3-0.3,0.6
		c0,0.2,0.1,0.4,0.4,0.5c0.2,0.1,0.6,0.2,1.1,0.3c0.5,0.1,1,0.3,1.3,0.4s0.6,0.3,0.9,0.6s0.4,0.6,0.4,1.1c0,0.4-0.1,0.8-0.3,1.1
		c-0.2,0.3-0.6,0.6-1,0.8c-0.4,0.2-1,0.3-1.6,0.3C341,62.5,340.5,62.4,340,62.2z"/>
</g>
<g class="st2">
	<path class="st3" d="M248.1,128.5v1.2h-4.9v-6.3h4.8v1.2h-3.3v1.4h2.9v1.1h-2.9v1.5H248.1z"/>
	<path class="st3" d="M255,123.4v6.3h-1.2l-3.1-3.8v3.8h-1.4v-6.3h1.2l3.1,3.8v-3.8H255z"/>
	<path class="st3" d="M258,124.5v1.7h2.9v1.2H258v2.3h-1.5v-6.3h4.8v1.2H258z"/>
	<path class="st3" d="M267.2,128.5v1.2h-4.9v-6.3h4.8v1.2h-3.3v1.4h2.9v1.1h-2.9v1.5H267.2z"/>
	<path class="st3" d="M272.3,129.7l-1.2-1.8h-0.1h-1.3v1.8h-1.5v-6.3h2.7c0.6,0,1,0.1,1.5,0.3c0.4,0.2,0.7,0.5,0.9,0.8
		c0.2,0.3,0.3,0.7,0.3,1.2c0,0.5-0.1,0.9-0.3,1.2s-0.5,0.6-1,0.8l1.4,2H272.3z M272,124.8c-0.2-0.2-0.6-0.3-1-0.3h-1.2v2.2h1.2
		c0.4,0,0.8-0.1,1-0.3c0.2-0.2,0.3-0.5,0.3-0.8C272.3,125.3,272.2,125,272,124.8z"/>
	<path class="st3" d="M280.7,129.7l0-3.8l-1.9,3.1h-0.7l-1.8-3v3.7h-1.4v-6.3h1.2l2.4,3.9l2.3-3.9h1.2l0,6.3H280.7z"/>
	<path class="st3" d="M288.4,128.5v1.2h-4.9v-6.3h4.8v1.2H285v1.4h2.9v1.1H285v1.5H288.4z"/>
	<path class="st3" d="M289.6,123.4h1.5v6.3h-1.5V123.4z"/>
	<path class="st3" d="M296.5,129.7l-1.2-1.8h-0.1H294v1.8h-1.5v-6.3h2.7c0.6,0,1,0.1,1.5,0.3c0.4,0.2,0.7,0.5,0.9,0.8
		c0.2,0.3,0.3,0.7,0.3,1.2c0,0.5-0.1,0.9-0.3,1.2s-0.5,0.6-1,0.8l1.4,2H296.5z M296.2,124.8c-0.2-0.2-0.6-0.3-1-0.3H294v2.2h1.2
		c0.4,0,0.8-0.1,1-0.3c0.2-0.2,0.3-0.5,0.3-0.8C296.5,125.3,296.4,125,296.2,124.8z"/>
	<path class="st3" d="M300.4,129.3c-0.5-0.3-0.9-0.7-1.2-1.2s-0.4-1.1-0.4-1.7c0-0.6,0.1-1.2,0.4-1.7s0.7-0.9,1.2-1.2
		c0.5-0.3,1.1-0.4,1.8-0.4c0.7,0,1.2,0.1,1.8,0.4c0.5,0.3,0.9,0.7,1.2,1.2s0.5,1.1,0.5,1.7c0,0.6-0.2,1.2-0.5,1.7s-0.7,0.9-1.2,1.2
		c-0.5,0.3-1.1,0.4-1.8,0.4C301.5,129.8,301,129.6,300.4,129.3z M303.2,128.3c0.3-0.2,0.5-0.4,0.7-0.7c0.2-0.3,0.3-0.7,0.3-1
		c0-0.4-0.1-0.7-0.3-1c-0.2-0.3-0.4-0.5-0.7-0.7c-0.3-0.2-0.6-0.3-1-0.3s-0.7,0.1-1,0.3s-0.5,0.4-0.7,0.7c-0.2,0.3-0.3,0.7-0.3,1
		c0,0.4,0.1,0.7,0.3,1c0.2,0.3,0.4,0.5,0.7,0.7s0.6,0.3,1,0.3S302.9,128.4,303.2,128.3z"/>
	<path class="st3" d="M307.4,129.6c-0.5-0.1-0.8-0.3-1.1-0.5l0.5-1.1c0.3,0.2,0.6,0.4,1,0.5s0.7,0.2,1.1,0.2c0.4,0,0.7-0.1,0.9-0.2
		c0.2-0.1,0.3-0.3,0.3-0.5c0-0.1-0.1-0.3-0.2-0.4c-0.1-0.1-0.3-0.2-0.5-0.2c-0.2-0.1-0.4-0.1-0.7-0.2c-0.5-0.1-0.9-0.2-1.2-0.3
		c-0.3-0.1-0.6-0.3-0.8-0.5c-0.2-0.3-0.3-0.6-0.3-1c0-0.4,0.1-0.7,0.3-1s0.5-0.5,0.9-0.7c0.4-0.2,0.9-0.3,1.5-0.3
		c0.4,0,0.8,0,1.2,0.1c0.4,0.1,0.7,0.2,1,0.4l-0.5,1.1c-0.6-0.3-1.2-0.5-1.7-0.5c-0.4,0-0.7,0.1-0.9,0.2s-0.3,0.3-0.3,0.5
		c0,0.2,0.1,0.4,0.3,0.5c0.2,0.1,0.6,0.2,1,0.3c0.5,0.1,0.9,0.2,1.2,0.3c0.3,0.1,0.6,0.3,0.8,0.5s0.3,0.6,0.3,1c0,0.4-0.1,0.7-0.3,1
		s-0.5,0.5-0.9,0.7c-0.4,0.2-0.9,0.3-1.5,0.3C308.3,129.8,307.8,129.7,307.4,129.6z"/>
</g>
<g class="st2">
	<path class="st3" d="M307.9,199.8H298l-1.9,4.6H291l9.5-21.3h4.9l9.5,21.3h-5.2L307.9,199.8z M306.3,196.1l-3.4-8.2l-3.4,8.2H306.3
		z"/>
	<path class="st3" d="M317.2,183.1h4.9v21.3h-4.9V183.1z"/>
	<path class="st3" d="M329.3,204.1c-1.6-0.5-2.8-1.1-3.8-1.8l1.7-3.7c0.9,0.7,2,1.2,3.3,1.6c1.3,0.4,2.5,0.6,3.8,0.6
		c1.4,0,2.4-0.2,3.1-0.6s1-1,1-1.7c0-0.5-0.2-0.9-0.6-1.3c-0.4-0.3-0.9-0.6-1.5-0.8s-1.5-0.4-2.5-0.7c-1.6-0.4-3-0.8-4-1.2
		c-1-0.4-1.9-1-2.7-1.9c-0.7-0.9-1.1-2-1.1-3.4c0-1.2,0.3-2.4,1-3.4c0.7-1,1.7-1.8,3-2.4c1.4-0.6,3-0.9,5-0.9c1.4,0,2.7,0.2,4,0.5
		s2.4,0.8,3.4,1.4l-1.5,3.8c-2-1.1-3.9-1.7-5.9-1.7c-1.4,0-2.4,0.2-3.1,0.7c-0.7,0.4-1,1-1,1.8c0,0.7,0.4,1.3,1.1,1.6
		c0.8,0.4,1.9,0.7,3.5,1.1c1.6,0.4,3,0.8,4,1.2c1,0.4,1.9,1,2.7,1.8c0.7,0.8,1.1,2,1.1,3.4c0,1.2-0.3,2.3-1,3.3
		c-0.7,1-1.7,1.8-3.1,2.4s-3,0.9-5,0.9C332.5,204.8,330.9,204.5,329.3,204.1z"/>
</g>
<polygon class="st0" points="544.5,219.2 544.5,177.3 508.1,156.3 471.8,177.3 471.8,219.2 508.1,240.2 "/>
<polygon class="st4" points="585.4,150.8 585.4,108.8 549.1,87.9 512.7,108.8 512.7,150.8 549.1,171.8 "/>
<polygon class="st1" points="504.3,150.8 504.3,108.8 468,87.9 431.6,108.8 431.6,150.8 468,171.8 "/>
<polygon class="st6" points="545,82 545,40.1 508.7,19.1 472.4,40.1 472.4,82 508.7,103 "/>
<polygon class="st4" points="464.6,82.6 464.6,40.6 428.2,19.6 391.9,40.6 391.9,82.6 428.2,103.6 "/>
<g class="st2">
	<path class="st0" d="M491.8,65.6l0-4.2l-2.1,3.5H489l-2-3.4v4.1h-1.5v-7h1.3l2.6,4.3l2.6-4.3h1.3l0,7H491.8z"/>
	<path class="st0" d="M500.4,64.3v1.3H495v-7h5.3v1.3h-3.7v1.5h3.2v1.3h-3.2v1.6H500.4z M498.1,56.6h1.7l-1.8,1.4h-1.2L498.1,56.6z"
		/>
	<path class="st0" d="M501.7,58.6h3.2c0.8,0,1.4,0.1,2,0.4c0.6,0.3,1,0.7,1.4,1.2c0.3,0.5,0.5,1.1,0.5,1.8s-0.2,1.3-0.5,1.8
		c-0.3,0.5-0.8,0.9-1.4,1.2c-0.6,0.3-1.3,0.4-2,0.4h-3.2V58.6z M504.8,64.3c0.7,0,1.3-0.2,1.7-0.6c0.4-0.4,0.6-0.9,0.6-1.6
		s-0.2-1.2-0.6-1.6c-0.4-0.4-1-0.6-1.7-0.6h-1.5v4.3H504.8z"/>
	<path class="st0" d="M510,58.6h1.6v7H510V58.6z"/>
	<path class="st0" d="M514.6,65.3c-0.6-0.3-1-0.7-1.4-1.3c-0.3-0.5-0.5-1.2-0.5-1.9s0.2-1.3,0.5-1.9s0.8-1,1.4-1.3
		c0.6-0.3,1.2-0.5,1.9-0.5c0.6,0,1.2,0.1,1.6,0.3c0.5,0.2,0.9,0.5,1.2,0.9l-1,1c-0.5-0.5-1.1-0.8-1.8-0.8c-0.4,0-0.8,0.1-1.2,0.3
		c-0.3,0.2-0.6,0.5-0.8,0.8c-0.2,0.3-0.3,0.7-0.3,1.2s0.1,0.8,0.3,1.2c0.2,0.3,0.5,0.6,0.8,0.8c0.3,0.2,0.7,0.3,1.2,0.3
		c0.7,0,1.3-0.3,1.8-0.8l1,1c-0.3,0.4-0.7,0.7-1.2,0.9c-0.5,0.2-1,0.3-1.7,0.3C515.9,65.8,515.2,65.6,514.6,65.3z"/>
	<path class="st0" d="M521.8,65.3c-0.6-0.3-1-0.7-1.4-1.3c-0.3-0.6-0.5-1.2-0.5-1.9s0.2-1.3,0.5-1.9c0.3-0.5,0.8-1,1.4-1.3
		c0.6-0.3,1.2-0.5,2-0.5c0.7,0,1.4,0.2,2,0.5c0.6,0.3,1,0.7,1.4,1.3c0.3,0.6,0.5,1.2,0.5,1.9s-0.2,1.3-0.5,1.9
		c-0.3,0.5-0.8,1-1.4,1.3c-0.6,0.3-1.2,0.5-2,0.5C523.1,65.8,522.4,65.6,521.8,65.3z M524.9,64.1c0.3-0.2,0.6-0.5,0.8-0.8
		c0.2-0.3,0.3-0.7,0.3-1.2s-0.1-0.8-0.3-1.2c-0.2-0.3-0.5-0.6-0.8-0.8c-0.3-0.2-0.7-0.3-1.1-0.3c-0.4,0-0.8,0.1-1.1,0.3
		c-0.3,0.2-0.6,0.5-0.8,0.8c-0.2,0.3-0.3,0.7-0.3,1.2s0.1,0.8,0.3,1.2c0.2,0.3,0.5,0.6,0.8,0.8c0.3,0.2,0.7,0.3,1.1,0.3
		C524.2,64.4,524.6,64.3,524.9,64.1z"/>
	<path class="st0" d="M529.5,65.5c-0.5-0.1-0.9-0.3-1.2-0.6l0.6-1.2c0.3,0.2,0.7,0.4,1.1,0.5c0.4,0.1,0.8,0.2,1.2,0.2
		c0.5,0,0.8-0.1,1-0.2c0.2-0.1,0.3-0.3,0.3-0.5c0-0.2-0.1-0.3-0.2-0.4c-0.1-0.1-0.3-0.2-0.5-0.3c-0.2-0.1-0.5-0.1-0.8-0.2
		c-0.5-0.1-1-0.3-1.3-0.4c-0.3-0.1-0.6-0.3-0.9-0.6c-0.2-0.3-0.4-0.7-0.4-1.1c0-0.4,0.1-0.8,0.3-1.1c0.2-0.3,0.6-0.6,1-0.8
		s1-0.3,1.6-0.3c0.4,0,0.9,0.1,1.3,0.2s0.8,0.3,1.1,0.5l-0.5,1.2c-0.6-0.4-1.3-0.6-1.9-0.6c-0.5,0-0.8,0.1-1,0.2s-0.3,0.3-0.3,0.6
		c0,0.2,0.1,0.4,0.4,0.5c0.2,0.1,0.6,0.2,1.1,0.3c0.5,0.1,1,0.3,1.3,0.4c0.3,0.1,0.6,0.3,0.9,0.6c0.2,0.3,0.4,0.6,0.4,1.1
		c0,0.4-0.1,0.8-0.3,1.1s-0.6,0.6-1,0.8s-1,0.3-1.6,0.3C530.6,65.8,530.1,65.7,529.5,65.5z"/>
</g>
<g class="st2">
	<path class="st3" d="M443.9,127.3h-2.2v-1.3h6.1v1.3h-2.2v5.7h-1.6V127.3z"/>
	<path class="st3" d="M454,131.6v1.3h-5.4v-7h5.3v1.3h-3.7v1.5h3.2v1.3h-3.2v1.6H454z M451.7,123.9h1.7l-1.8,1.4h-1.2L451.7,123.9z"
		/>
	<path class="st3" d="M456.7,132.6c-0.6-0.3-1-0.7-1.4-1.3c-0.3-0.5-0.5-1.2-0.5-1.9s0.2-1.3,0.5-1.9c0.3-0.5,0.8-1,1.4-1.3
		c0.6-0.3,1.2-0.5,1.9-0.5c0.6,0,1.2,0.1,1.6,0.3c0.5,0.2,0.9,0.5,1.2,0.9l-1,1c-0.5-0.5-1.1-0.8-1.8-0.8c-0.4,0-0.8,0.1-1.2,0.3
		c-0.3,0.2-0.6,0.5-0.8,0.8c-0.2,0.3-0.3,0.7-0.3,1.2s0.1,0.8,0.3,1.2c0.2,0.3,0.5,0.6,0.8,0.8c0.3,0.2,0.7,0.3,1.2,0.3
		c0.7,0,1.3-0.3,1.8-0.8l1,1c-0.3,0.4-0.7,0.7-1.2,0.9c-0.5,0.2-1,0.3-1.6,0.3C457.9,133.1,457.3,132.9,456.7,132.6z"/>
	<path class="st3" d="M469,125.9v7h-1.3l-3.5-4.2v4.2h-1.6v-7h1.3l3.5,4.2v-4.2H469z"/>
	<path class="st3" d="M470.7,125.9h1.6v7h-1.6V125.9z"/>
	<path class="st3" d="M475.4,132.6c-0.6-0.3-1-0.7-1.4-1.3c-0.3-0.5-0.5-1.2-0.5-1.9s0.2-1.3,0.5-1.9c0.3-0.5,0.8-1,1.4-1.3
		c0.6-0.3,1.2-0.5,1.9-0.5c0.6,0,1.2,0.1,1.6,0.3c0.5,0.2,0.9,0.5,1.2,0.9l-1,1c-0.5-0.5-1.1-0.8-1.8-0.8c-0.4,0-0.8,0.1-1.2,0.3
		c-0.3,0.2-0.6,0.5-0.8,0.8c-0.2,0.3-0.3,0.7-0.3,1.2s0.1,0.8,0.3,1.2c0.2,0.3,0.5,0.6,0.8,0.8c0.3,0.2,0.7,0.3,1.2,0.3
		c0.7,0,1.3-0.3,1.8-0.8l1,1c-0.3,0.4-0.7,0.7-1.2,0.9c-0.5,0.2-1,0.3-1.6,0.3C476.6,133.1,476,132.9,475.4,132.6z"/>
	<path class="st3" d="M482.6,132.6c-0.6-0.3-1-0.7-1.4-1.3c-0.3-0.6-0.5-1.2-0.5-1.9s0.2-1.3,0.5-1.9c0.3-0.5,0.8-1,1.4-1.3
		c0.6-0.3,1.2-0.5,2-0.5c0.7,0,1.4,0.2,2,0.5c0.6,0.3,1,0.7,1.4,1.3c0.3,0.6,0.5,1.2,0.5,1.9s-0.2,1.3-0.5,1.9
		c-0.3,0.5-0.8,1-1.4,1.3c-0.6,0.3-1.2,0.5-2,0.5C483.8,133.1,483.2,132.9,482.6,132.6z M485.7,131.4c0.3-0.2,0.6-0.5,0.8-0.8
		c0.2-0.3,0.3-0.7,0.3-1.2s-0.1-0.8-0.3-1.2c-0.2-0.3-0.5-0.6-0.8-0.8c-0.3-0.2-0.7-0.3-1.1-0.3c-0.4,0-0.8,0.1-1.1,0.3
		c-0.3,0.2-0.6,0.5-0.8,0.8c-0.2,0.3-0.3,0.7-0.3,1.2s0.1,0.8,0.3,1.2c0.2,0.3,0.5,0.6,0.8,0.8c0.3,0.2,0.7,0.3,1.1,0.3
		C485,131.7,485.3,131.6,485.7,131.4z"/>
	<path class="st3" d="M490.3,132.8c-0.5-0.1-0.9-0.3-1.2-0.6l0.6-1.2c0.3,0.2,0.7,0.4,1.1,0.5c0.4,0.1,0.8,0.2,1.2,0.2
		c0.5,0,0.8-0.1,1-0.2c0.2-0.1,0.3-0.3,0.3-0.5c0-0.2-0.1-0.3-0.2-0.4c-0.1-0.1-0.3-0.2-0.5-0.3c-0.2-0.1-0.5-0.1-0.8-0.2
		c-0.5-0.1-1-0.3-1.3-0.4c-0.3-0.1-0.6-0.3-0.9-0.6c-0.2-0.3-0.4-0.7-0.4-1.1c0-0.4,0.1-0.8,0.3-1.1c0.2-0.3,0.6-0.6,1-0.8
		s1-0.3,1.6-0.3c0.4,0,0.9,0.1,1.3,0.2s0.8,0.3,1.1,0.5l-0.5,1.2c-0.6-0.4-1.3-0.6-1.9-0.6c-0.5,0-0.8,0.1-1,0.2s-0.3,0.3-0.3,0.6
		c0,0.2,0.1,0.4,0.4,0.5c0.2,0.1,0.6,0.2,1.1,0.3c0.5,0.1,1,0.3,1.3,0.4c0.3,0.1,0.6,0.3,0.9,0.6c0.2,0.3,0.4,0.6,0.4,1.1
		c0,0.4-0.1,0.8-0.3,1.1s-0.6,0.6-1,0.8s-1,0.3-1.6,0.3C491.3,133.1,490.8,133,490.3,132.8z"/>
</g>
<g class="st2">
	<path class="st3" d="M499.5,203.1h-9.9l-1.9,4.6h-5.1l9.5-21.3h4.9l9.5,21.3h-5.2L499.5,203.1z M497.9,199.4l-3.4-8.2l-3.4,8.2
		H497.9z"/>
	<path class="st3" d="M508.8,186.3h4.9v21.3h-4.9V186.3z"/>
	<path class="st3" d="M520.9,207.4c-1.6-0.5-2.8-1.1-3.8-1.8l1.7-3.7c0.9,0.7,2,1.2,3.3,1.6c1.3,0.4,2.5,0.6,3.8,0.6
		c1.4,0,2.4-0.2,3.1-0.6s1-1,1-1.7c0-0.5-0.2-0.9-0.6-1.3c-0.4-0.3-0.9-0.6-1.5-0.8s-1.5-0.4-2.5-0.7c-1.6-0.4-3-0.8-4-1.2
		c-1-0.4-1.9-1-2.7-1.9c-0.7-0.9-1.1-2-1.1-3.4c0-1.2,0.3-2.4,1-3.4c0.7-1,1.7-1.8,3-2.4c1.4-0.6,3-0.9,5-0.9c1.4,0,2.7,0.2,4,0.5
		c1.3,0.3,2.4,0.8,3.4,1.4l-1.5,3.8c-2-1.1-3.9-1.7-5.9-1.7c-1.4,0-2.4,0.2-3.1,0.7c-0.7,0.4-1,1-1,1.8c0,0.7,0.4,1.3,1.1,1.6
		c0.8,0.4,1.9,0.7,3.5,1.1c1.6,0.4,3,0.8,4,1.2c1,0.4,1.9,1,2.7,1.8c0.7,0.8,1.1,2,1.1,3.4c0,1.2-0.3,2.3-1,3.3
		c-0.7,1-1.7,1.8-3.1,2.4c-1.4,0.6-3,0.9-5,0.9C524.1,208.1,522.5,207.8,520.9,207.4z"/>
</g>
</svg>
