<?xml version="1.0" encoding="utf-8"?>
<!-- Generator: Adobe Illustrator 23.1.1, SVG Export Plug-In . SVG Version: 6.00 Build 0)  -->
<svg version="1.1" id="Camada_1" xmlns="http://www.w3.org/2000/svg" xmlns:xlink="http://www.w3.org/1999/xlink" x="0px" y="0px"
	 viewBox="0 0 631.3 339.3" style="enable-background:new 0 0 631.3 339.3;" xml:space="preserve">
<style type="text/css">
	.st0{enable-background:new    ;}
	.st1{fill:#666666;}
	.st2{opacity:0.5;fill:none;stroke:#CCCCCC;stroke-width:0.75;stroke-miterlimit:10;enable-background:new    ;}
	.st3{fill:#FF941C;}
	.st4{fill:#01AA2C;}
	.st5{fill:#6BA151;}
	.st6{fill:#F1B143;}
</style>
<g id="Layer_1">
</g>
<g>
	<g class="st0">
		<path class="st1" d="M97.1,24.4h5.7c1.3,0,2.5,0.2,3.5,0.7c1,0.5,1.8,1.2,2.4,2.1s0.8,2,0.8,3.2s-0.3,2.3-0.8,3.2
			s-1.4,1.6-2.4,2.1c-1,0.5-2.2,0.7-3.5,0.7h-5.7V24.4z M102.7,33.7c1,0,1.9-0.3,2.5-0.9c0.6-0.6,0.9-1.4,0.9-2.4s-0.3-1.8-0.9-2.4
			c-0.6-0.6-1.5-0.9-2.5-0.9h-2.1v6.6H102.7z"/>
		<path class="st1" d="M121,33.8v2.6h-9.6v-12h9.4V27h-6.1v2h5.3v2.5h-5.3v2.2H121z"/>
		<path class="st1" d="M133.7,36.4l0-6.4l-3.1,5.2h-1.5l-3.1-5v6.2h-3.1v-12h2.8l4.2,6.9l4.1-6.9h2.8l0,12H133.7z"/>
		<path class="st1" d="M147.3,34.1h-5.1l-0.9,2.3h-3.5l5.3-12h3.3l5.3,12h-3.5L147.3,34.1z M146.3,31.6l-1.5-3.8l-1.5,3.8H146.3z"/>
		<path class="st1" d="M158,33.2h-1.9v3.2h-3.4v-12h5.5c1.1,0,2,0.2,2.8,0.5c0.8,0.4,1.4,0.9,1.9,1.5c0.4,0.7,0.7,1.5,0.7,2.4
			c0,0.9-0.2,1.6-0.6,2.3c-0.4,0.6-1,1.2-1.7,1.5l2.6,3.8h-3.6L158,33.2z M159.6,27.6c-0.4-0.3-0.9-0.5-1.6-0.5h-1.9v3.5h1.9
			c0.7,0,1.2-0.2,1.6-0.5c0.4-0.3,0.5-0.7,0.5-1.3C160.1,28.3,160,27.9,159.6,27.6z"/>
		<path class="st1" d="M168,35.9c-1-0.5-1.8-1.3-2.4-2.2c-0.6-0.9-0.9-2-0.9-3.2c0-1.2,0.3-2.3,0.9-3.2c0.6-0.9,1.4-1.7,2.4-2.2
			c1-0.5,2.1-0.8,3.4-0.8c1.1,0,2.1,0.2,3,0.6c0.9,0.4,1.6,1,2.2,1.7l-2.2,2c-0.8-0.9-1.7-1.4-2.8-1.4c-0.7,0-1.2,0.1-1.7,0.4
			s-0.9,0.7-1.2,1.2c-0.3,0.5-0.4,1.1-0.4,1.8s0.1,1.3,0.4,1.8c0.3,0.5,0.7,0.9,1.2,1.2s1.1,0.4,1.7,0.4c1.1,0,2.1-0.5,2.8-1.4
			l2.2,2c-0.6,0.7-1.3,1.3-2.2,1.7c-0.9,0.4-1.9,0.6-3,0.6C170.2,36.7,169,36.4,168,35.9z"/>
		<path class="st1" d="M185.9,34.1h-5.1l-0.9,2.3h-3.5l5.3-12h3.3l5.3,12h-3.5L185.9,34.1z M184.9,31.6l-1.5-3.8l-1.5,3.8H184.9z"/>
		<path class="st1" d="M193.8,35.9c-1-0.5-1.8-1.3-2.4-2.2c-0.6-0.9-0.9-2-0.9-3.2c0-1.2,0.3-2.3,0.9-3.2c0.6-0.9,1.4-1.7,2.4-2.2
			c1-0.5,2.1-0.8,3.4-0.8c1.1,0,2.1,0.2,3,0.6c0.9,0.4,1.6,1,2.2,1.7l-2.2,2c-0.8-0.9-1.7-1.4-2.8-1.4c-0.7,0-1.2,0.1-1.7,0.4
			s-0.9,0.7-1.2,1.2c-0.3,0.5-0.4,1.1-0.4,1.8s0.1,1.3,0.4,1.8c0.3,0.5,0.7,0.9,1.2,1.2s1.1,0.4,1.7,0.4c1.1,0,2.1-0.5,2.8-1.4
			l2.2,2c-0.6,0.7-1.3,1.3-2.2,1.7c-0.9,0.4-1.9,0.6-3,0.6C195.9,36.7,194.8,36.4,193.8,35.9z M195.3,40.4c-0.3-0.1-0.6-0.2-0.7-0.3
			l0.4-1.3c0.3,0.2,0.7,0.2,1.1,0.2c0.6,0,0.9-0.2,0.9-0.5c0-0.3-0.3-0.4-0.8-0.4h-0.6l0.4-1.9h1.7l-0.2,1c0.5,0.1,0.9,0.2,1.1,0.5
			c0.2,0.3,0.4,0.6,0.4,0.9c0,0.5-0.2,1-0.7,1.3s-1.1,0.5-2,0.5C195.9,40.5,195.6,40.4,195.3,40.4z"/>
		<path class="st1" d="M211.7,34.1h-5.1l-0.9,2.3h-3.5l5.3-12h3.3l5.3,12h-3.5L211.7,34.1z M209.7,23.4c-0.2-0.1-0.5-0.3-0.8-0.5
			c-0.2-0.1-0.4-0.3-0.5-0.3s-0.2-0.1-0.3-0.1c-0.2,0-0.4,0.1-0.5,0.2c-0.1,0.2-0.2,0.4-0.2,0.7h-1.6c0-0.8,0.2-1.5,0.6-2
			c0.4-0.5,0.9-0.7,1.6-0.7c0.3,0,0.6,0.1,0.8,0.2s0.5,0.3,0.8,0.5c0.2,0.1,0.4,0.3,0.5,0.3c0.1,0.1,0.2,0.1,0.3,0.1
			c0.2,0,0.4-0.1,0.5-0.2s0.2-0.4,0.2-0.6h1.6c0,0.8-0.2,1.5-0.6,2s-0.9,0.7-1.6,0.7C210.3,23.6,210,23.5,209.7,23.4z M210.7,31.6
			l-1.5-3.8l-1.5,3.8H210.7z"/>
		<path class="st1" d="M219.6,35.9c-1-0.5-1.8-1.3-2.4-2.2c-0.6-1-0.9-2-0.9-3.2s0.3-2.3,0.9-3.2c0.6-1,1.4-1.7,2.4-2.2
			s2.2-0.8,3.4-0.8c1.3,0,2.4,0.3,3.4,0.8s1.8,1.3,2.4,2.2c0.6,1,0.9,2,0.9,3.2s-0.3,2.3-0.9,3.2c-0.6,1-1.4,1.7-2.4,2.2
			s-2.2,0.8-3.4,0.8C221.8,36.7,220.6,36.4,219.6,35.9z M224.7,33.4c0.5-0.3,0.9-0.7,1.2-1.2s0.4-1.1,0.4-1.8s-0.1-1.3-0.4-1.8
			s-0.7-0.9-1.2-1.2s-1-0.4-1.6-0.4c-0.6,0-1.2,0.1-1.6,0.4c-0.5,0.3-0.9,0.7-1.2,1.2s-0.4,1.1-0.4,1.8s0.1,1.3,0.4,1.8
			s0.7,0.9,1.2,1.2c0.5,0.3,1,0.4,1.6,0.4C223.7,33.9,224.2,33.7,224.7,33.4z"/>
		<path class="st1" d="M236.5,24.4h5.7c1.3,0,2.5,0.2,3.5,0.7c1,0.5,1.8,1.2,2.4,2.1s0.8,2,0.8,3.2s-0.3,2.3-0.8,3.2
			s-1.4,1.6-2.4,2.1c-1,0.5-2.2,0.7-3.5,0.7h-5.7V24.4z M242.1,33.7c1,0,1.9-0.3,2.5-0.9c0.6-0.6,0.9-1.4,0.9-2.4s-0.3-1.8-0.9-2.4
			c-0.6-0.6-1.5-0.9-2.5-0.9h-2.1v6.6H242.1z"/>
		<path class="st1" d="M260.3,33.8v2.6h-9.6v-12h9.4V27h-6.1v2h5.3v2.5h-5.3v2.2H260.3z"/>
		<path class="st1" d="M269.8,27.1h-3.7v-2.7h10.8v2.7h-3.7v9.3h-3.4V27.1z"/>
		<path class="st1" d="M287.8,33.8v2.6h-9.6v-12h9.4V27h-6.1v2h5.3v2.5h-5.3v2.2H287.8z"/>
		<path class="st1" d="M294.9,33.2h-1.9v3.2h-3.4v-12h5.5c1.1,0,2,0.2,2.8,0.5c0.8,0.4,1.4,0.9,1.9,1.5c0.4,0.7,0.7,1.5,0.7,2.4
			c0,0.9-0.2,1.6-0.6,2.3c-0.4,0.6-1,1.2-1.7,1.5l2.6,3.8h-3.6L294.9,33.2z M296.5,27.6c-0.4-0.3-0.9-0.5-1.6-0.5h-1.9v3.5h1.9
			c0.7,0,1.2-0.2,1.6-0.5c0.4-0.3,0.5-0.7,0.5-1.3C297.1,28.3,296.9,27.9,296.5,27.6z"/>
		<path class="st1" d="M307.6,33.2h-1.9v3.2h-3.4v-12h5.5c1.1,0,2,0.2,2.8,0.5c0.8,0.4,1.4,0.9,1.9,1.5c0.4,0.7,0.7,1.5,0.7,2.4
			c0,0.9-0.2,1.6-0.6,2.3c-0.4,0.6-1,1.2-1.7,1.5l2.6,3.8h-3.6L307.6,33.2z M309.2,27.6c-0.4-0.3-0.9-0.5-1.6-0.5h-1.9v3.5h1.9
			c0.7,0,1.2-0.2,1.6-0.5c0.4-0.3,0.5-0.7,0.5-1.3C309.8,28.3,309.6,27.9,309.2,27.6z"/>
		<path class="st1" d="M323.1,34.1H318l-0.9,2.3h-3.5l5.3-12h3.3l5.3,12h-3.5L323.1,34.1z M322.1,31.6l-1.5-3.8l-1.5,3.8H322.1z"/>
		<path class="st1" d="M329.9,36.3c-0.9-0.2-1.7-0.6-2.2-1l1.1-2.5c0.5,0.4,1.2,0.6,1.9,0.9c0.7,0.2,1.4,0.3,2.1,0.3
			c1.3,0,2-0.3,2-1c0-0.3-0.2-0.6-0.6-0.8s-1-0.3-1.8-0.5c-0.9-0.2-1.7-0.4-2.3-0.6c-0.6-0.2-1.1-0.6-1.6-1.1s-0.7-1.2-0.7-2
			c0-0.7,0.2-1.4,0.6-2c0.4-0.6,1-1.1,1.8-1.4c0.8-0.3,1.8-0.5,2.9-0.5c0.8,0,1.6,0.1,2.3,0.3c0.8,0.2,1.4,0.4,2,0.8l-1,2.5
			c-1.1-0.6-2.3-0.9-3.3-0.9c-0.7,0-1.2,0.1-1.5,0.3s-0.5,0.5-0.5,0.8s0.2,0.6,0.5,0.7s1,0.3,1.8,0.5c0.9,0.2,1.7,0.4,2.3,0.6
			c0.6,0.2,1.1,0.6,1.6,1.1c0.4,0.5,0.7,1.1,0.7,2c0,0.7-0.2,1.4-0.6,2c-0.4,0.6-1,1.1-1.8,1.4s-1.8,0.5-2.9,0.5
			C331.8,36.7,330.9,36.6,329.9,36.3z"/>
		<path class="st1" d="M344.7,24.4h3.4v12h-3.4V24.4z"/>
		<path class="st1" d="M361.9,24.4v12h-2.8l-5.3-6.4v6.4h-3.3v-12h2.8l5.3,6.4v-6.4H361.9z"/>
		<path class="st1" d="M364.3,24.4h5.7c1.3,0,2.5,0.2,3.5,0.7s1.8,1.2,2.4,2.1s0.8,2,0.8,3.2s-0.3,2.3-0.8,3.2s-1.4,1.6-2.4,2.1
			s-2.2,0.7-3.5,0.7h-5.7V24.4z M369.9,33.7c1,0,1.9-0.3,2.5-0.9c0.6-0.6,0.9-1.4,0.9-2.4s-0.3-1.8-0.9-2.4
			c-0.6-0.6-1.5-0.9-2.5-0.9h-2.1v6.6H369.9z"/>
		<path class="st1" d="M378.5,24.4h3.4v12h-3.4V24.4z M380.8,20.8h3.3l-3.2,2.6h-2.3L380.8,20.8z"/>
		<path class="st1" d="M392.4,30.2h3v5c-0.7,0.5-1.5,0.9-2.4,1.1c-0.9,0.3-1.8,0.4-2.7,0.4c-1.3,0-2.4-0.3-3.4-0.8s-1.8-1.3-2.4-2.2
			c-0.6-0.9-0.9-2-0.9-3.2c0-1.2,0.3-2.3,0.9-3.2c0.6-0.9,1.4-1.7,2.4-2.2c1-0.5,2.2-0.8,3.5-0.8c1.1,0,2.1,0.2,3,0.6
			c0.9,0.4,1.6,0.9,2.2,1.6l-2.2,2c-0.8-0.9-1.8-1.3-2.9-1.3c-1,0-1.9,0.3-2.5,0.9c-0.6,0.6-0.9,1.5-0.9,2.5c0,0.7,0.1,1.3,0.4,1.8
			c0.3,0.5,0.7,0.9,1.2,1.2c0.5,0.3,1.1,0.4,1.8,0.4c0.7,0,1.3-0.1,1.8-0.4V30.2z"/>
		<path class="st1" d="M407.2,33.8v2.6h-9.6v-12h9.4V27h-6.1v2h5.3v2.5h-5.3v2.2H407.2z"/>
		<path class="st1" d="M420.5,24.4v12h-2.8l-5.3-6.4v6.4h-3.3v-12h2.8l5.3,6.4v-6.4H420.5z"/>
		<path class="st1" d="M430.9,34.1h-5.1l-0.9,2.3h-3.5l5.3-12h3.3l5.3,12h-3.5L430.9,34.1z M429.9,31.6l-1.5-3.8l-1.5,3.8H429.9z"/>
		<path class="st1" d="M437.8,36.3c-0.9-0.2-1.7-0.6-2.2-1l1.1-2.5c0.5,0.4,1.2,0.6,1.9,0.9c0.7,0.2,1.4,0.3,2.1,0.3
			c1.3,0,2-0.3,2-1c0-0.3-0.2-0.6-0.6-0.8c-0.4-0.2-1-0.3-1.8-0.5c-0.9-0.2-1.7-0.4-2.3-0.6c-0.6-0.2-1.1-0.6-1.6-1.1
			s-0.7-1.2-0.7-2c0-0.7,0.2-1.4,0.6-2c0.4-0.6,1-1.1,1.8-1.4s1.8-0.5,2.9-0.5c0.8,0,1.6,0.1,2.3,0.3c0.8,0.2,1.4,0.4,2,0.8l-1,2.5
			c-1.1-0.6-2.3-0.9-3.3-0.9c-0.7,0-1.2,0.1-1.5,0.3c-0.3,0.2-0.5,0.5-0.5,0.8s0.2,0.6,0.5,0.7s1,0.3,1.8,0.5
			c0.9,0.2,1.7,0.4,2.3,0.6c0.6,0.2,1.1,0.6,1.6,1.1c0.4,0.5,0.7,1.1,0.7,2c0,0.7-0.2,1.4-0.6,2c-0.4,0.6-1,1.1-1.8,1.4
			c-0.8,0.3-1.8,0.5-2.9,0.5C439.6,36.7,438.7,36.6,437.8,36.3z"/>
		<path class="st1" d="M463.9,24.4v12h-2.8l-5.3-6.4v6.4h-3.3v-12h2.8l5.3,6.4v-6.4H463.9z"/>
		<path class="st1" d="M469,35.9c-1-0.5-1.8-1.3-2.4-2.2s-0.9-2-0.9-3.2s0.3-2.3,0.9-3.2s1.4-1.7,2.4-2.2c1-0.5,2.2-0.8,3.4-0.8
			c1.3,0,2.4,0.3,3.4,0.8s1.8,1.3,2.4,2.2s0.9,2,0.9,3.2s-0.3,2.3-0.9,3.2s-1.4,1.7-2.4,2.2s-2.2,0.8-3.4,0.8
			C471.1,36.7,470,36.4,469,35.9z M474,33.4c0.5-0.3,0.9-0.7,1.2-1.2s0.4-1.1,0.4-1.8s-0.1-1.3-0.4-1.8s-0.7-0.9-1.2-1.2
			c-0.5-0.3-1-0.4-1.6-0.4s-1.2,0.1-1.6,0.4s-0.9,0.7-1.2,1.2c-0.3,0.5-0.4,1.1-0.4,1.8s0.1,1.3,0.4,1.8c0.3,0.5,0.7,0.9,1.2,1.2
			s1,0.4,1.6,0.4S473.5,33.7,474,33.4z"/>
		<path class="st1" d="M496.7,31.3c0.4,0.5,0.6,1.1,0.6,1.8c0,1.1-0.4,1.9-1.3,2.4s-2.1,0.9-3.7,0.9h-6.5v-12h6.1
			c1.5,0,2.7,0.3,3.5,0.8s1.2,1.3,1.2,2.3c0,0.6-0.1,1.1-0.4,1.5c-0.3,0.5-0.7,0.8-1.2,1.1C495.8,30.4,496.3,30.8,496.7,31.3z
			 M489.2,26.9v2.3h2.3c1.1,0,1.7-0.4,1.7-1.2c0-0.8-0.6-1.2-1.7-1.2H489.2z M493.8,32.8c0-0.8-0.6-1.2-1.8-1.2h-2.8V34h2.8
			C493.2,34,493.8,33.6,493.8,32.8z"/>
		<path class="st1" d="M504.3,33.2h-1.9v3.2H499v-12h5.5c1.1,0,2,0.2,2.8,0.5c0.8,0.4,1.4,0.9,1.9,1.5c0.4,0.7,0.7,1.5,0.7,2.4
			c0,0.9-0.2,1.6-0.6,2.3c-0.4,0.6-1,1.2-1.7,1.5l2.6,3.8h-3.6L504.3,33.2z M505.9,27.6c-0.4-0.3-0.9-0.5-1.6-0.5h-1.9v3.5h1.9
			c0.7,0,1.2-0.2,1.6-0.5c0.4-0.3,0.5-0.7,0.5-1.3C506.4,28.3,506.3,27.9,505.9,27.6z"/>
		<path class="st1" d="M519.8,34.1h-5.1l-0.9,2.3h-3.5l5.3-12h3.3l5.3,12h-3.5L519.8,34.1z M518.8,31.6l-1.5-3.8l-1.5,3.8H518.8z"/>
		<path class="st1" d="M526.6,36.3c-0.9-0.2-1.7-0.6-2.2-1l1.1-2.5c0.5,0.4,1.2,0.6,1.9,0.9c0.7,0.2,1.4,0.3,2.1,0.3
			c1.3,0,2-0.3,2-1c0-0.3-0.2-0.6-0.6-0.8c-0.4-0.2-1-0.3-1.8-0.5c-0.9-0.2-1.7-0.4-2.3-0.6c-0.6-0.2-1.1-0.6-1.6-1.1
			s-0.7-1.2-0.7-2c0-0.7,0.2-1.4,0.6-2c0.4-0.6,1-1.1,1.8-1.4s1.8-0.5,2.9-0.5c0.8,0,1.6,0.1,2.3,0.3c0.8,0.2,1.4,0.4,2,0.8l-1,2.5
			c-1.1-0.6-2.3-0.9-3.3-0.9c-0.7,0-1.2,0.1-1.5,0.3c-0.3,0.2-0.5,0.5-0.5,0.8s0.2,0.6,0.5,0.7s1,0.3,1.8,0.5
			c0.9,0.2,1.7,0.4,2.3,0.6c0.6,0.2,1.1,0.6,1.6,1.1c0.4,0.5,0.7,1.1,0.7,2c0,0.7-0.2,1.4-0.6,2c-0.4,0.6-1,1.1-1.8,1.4
			c-0.8,0.3-1.8,0.5-2.9,0.5C528.5,36.7,527.5,36.6,526.6,36.3z"/>
		<path class="st1" d="M536.3,24.4h3.4v12h-3.4V24.4z"/>
		<path class="st1" d="M542.2,24.4h3.4v9.3h5.7v2.7h-9.1V24.4z"/>
	</g>
</g>
<g>
	<g>
		<rect x="28.5" y="54.4" class="st2" width="574.3" height="215.2"/>
		<line class="st2" x1="28.5" y1="77.9" x2="602.8" y2="77.9"/>
		<line class="st2" x1="28.5" y1="102.9" x2="602.8" y2="102.9"/>
		<line class="st2" x1="28.5" y1="126.3" x2="602.8" y2="126.3"/>
		<line class="st2" x1="28.5" y1="149.7" x2="602.8" y2="149.7"/>
		<line class="st2" x1="28.5" y1="174.8" x2="602.8" y2="174.8"/>
		<line class="st2" x1="28.5" y1="198.2" x2="602.8" y2="198.2"/>
		<line class="st2" x1="28.5" y1="221.6" x2="602.8" y2="221.6"/>
		<line class="st2" x1="28.5" y1="245" x2="602.8" y2="245"/>
	</g>
	<rect x="331.3" y="315.2" class="st3" width="9.7" height="9.7"/>
	<rect x="64.9" y="315.2" class="st4" width="9.7" height="9.7"/>
	<g class="st0">
		<path class="st1" d="M81.1,317.9h-1.9v-0.7h4.6v0.7h-1.9v4.9h-0.8V317.9z"/>
		<path class="st1" d="M88.8,322.2v0.7h-4.1v-5.6h4v0.7h-3.2v1.7h2.8v0.7h-2.8v1.8H88.8z"/>
		<path class="st1" d="M93.8,322.8l-1.2-1.7c-0.1,0-0.3,0-0.4,0h-1.4v1.7h-0.8v-5.6h2.2c0.7,0,1.3,0.2,1.7,0.5
			c0.4,0.3,0.6,0.8,0.6,1.4c0,0.4-0.1,0.8-0.3,1.1c-0.2,0.3-0.5,0.5-0.9,0.7l1.3,1.9H93.8z M93.4,320.1c0.3-0.2,0.4-0.5,0.4-0.9
			s-0.1-0.7-0.4-0.9c-0.3-0.2-0.7-0.3-1.2-0.3h-1.4v2.5h1.4C92.8,320.5,93.1,320.3,93.4,320.1z"/>
		<path class="st1" d="M99.7,322.8l-1.2-1.7c-0.1,0-0.3,0-0.4,0h-1.4v1.7h-0.8v-5.6h2.2c0.7,0,1.3,0.2,1.7,0.5
			c0.4,0.3,0.6,0.8,0.6,1.4c0,0.4-0.1,0.8-0.3,1.1c-0.2,0.3-0.5,0.5-0.9,0.7l1.3,1.9H99.7z M99.2,320.1c0.3-0.2,0.4-0.5,0.4-0.9
			s-0.1-0.7-0.4-0.9c-0.3-0.2-0.7-0.3-1.2-0.3h-1.4v2.5h1.4C98.6,320.5,99,320.3,99.2,320.1z"/>
		<path class="st1" d="M105.3,321.4h-3l-0.6,1.4h-0.8l2.5-5.6h0.8l2.5,5.6h-0.8L105.3,321.4z M105,320.8l-1.2-2.8l-1.2,2.8H105z"/>
		<path class="st1" d="M108,322.7c-0.4-0.1-0.7-0.3-0.9-0.5l0.3-0.6c0.2,0.2,0.5,0.3,0.8,0.5s0.7,0.2,1,0.2c0.5,0,0.8-0.1,1-0.2
			c0.2-0.2,0.3-0.4,0.3-0.6c0-0.2-0.1-0.3-0.2-0.5c-0.1-0.1-0.3-0.2-0.5-0.3c-0.2-0.1-0.4-0.1-0.8-0.2c-0.4-0.1-0.8-0.2-1-0.3
			s-0.5-0.3-0.7-0.5c-0.2-0.2-0.3-0.5-0.3-0.9c0-0.3,0.1-0.6,0.2-0.8s0.4-0.4,0.7-0.6c0.3-0.1,0.7-0.2,1.2-0.2c0.3,0,0.7,0,1,0.1
			c0.3,0.1,0.6,0.2,0.8,0.4l-0.3,0.6c-0.2-0.1-0.5-0.3-0.8-0.3c-0.3-0.1-0.5-0.1-0.8-0.1c-0.5,0-0.8,0.1-1,0.2
			c-0.2,0.2-0.3,0.4-0.3,0.6c0,0.2,0.1,0.3,0.2,0.5c0.1,0.1,0.3,0.2,0.5,0.3c0.2,0.1,0.4,0.1,0.8,0.2c0.4,0.1,0.8,0.2,1,0.3
			c0.3,0.1,0.5,0.3,0.7,0.5c0.2,0.2,0.3,0.5,0.3,0.8c0,0.3-0.1,0.6-0.2,0.8c-0.2,0.2-0.4,0.4-0.7,0.6c-0.3,0.1-0.7,0.2-1.2,0.2
			C108.8,322.9,108.4,322.8,108,322.7z"/>
		<path class="st1" d="M114.7,317.2h0.8v5.6h-0.8V317.2z"/>
		<path class="st1" d="M122.1,317.2v5.6h-0.7l-3.4-4.2v4.2h-0.8v-5.6h0.7l3.4,4.2v-4.2H122.1z"/>
		<path class="st1" d="M123.7,317.2h2.4c0.6,0,1.1,0.1,1.6,0.4c0.5,0.2,0.8,0.6,1.1,1s0.4,0.9,0.4,1.5c0,0.6-0.1,1-0.4,1.5
			s-0.6,0.8-1.1,1c-0.5,0.2-1,0.4-1.6,0.4h-2.4V317.2z M126.1,322.2c0.5,0,0.9-0.1,1.2-0.3c0.3-0.2,0.6-0.4,0.8-0.7
			c0.2-0.3,0.3-0.7,0.3-1.1c0-0.4-0.1-0.8-0.3-1.1c-0.2-0.3-0.5-0.6-0.8-0.7c-0.3-0.2-0.7-0.3-1.2-0.3h-1.5v4.2H126.1z"/>
		<path class="st1" d="M131.3,315.7h1l-1.3,1h-0.7L131.3,315.7z M130.4,317.2h0.8v5.6h-0.8V317.2z"/>
		<path class="st1" d="M136.7,320h0.8v2.2c-0.3,0.2-0.6,0.4-1,0.5c-0.4,0.1-0.8,0.2-1.2,0.2c-0.6,0-1.1-0.1-1.5-0.4
			c-0.5-0.2-0.8-0.6-1.1-1c-0.3-0.4-0.4-0.9-0.4-1.5c0-0.5,0.1-1,0.4-1.5c0.3-0.4,0.6-0.8,1.1-1s1-0.4,1.5-0.4
			c0.4,0,0.9,0.1,1.2,0.2c0.4,0.1,0.7,0.4,0.9,0.6l-0.5,0.5c-0.4-0.4-1-0.6-1.6-0.6c-0.4,0-0.8,0.1-1.2,0.3s-0.6,0.4-0.8,0.8
			c-0.2,0.3-0.3,0.7-0.3,1.1c0,0.4,0.1,0.8,0.3,1.1c0.2,0.3,0.5,0.6,0.8,0.8c0.3,0.2,0.7,0.3,1.1,0.3c0.5,0,0.9-0.1,1.3-0.4V320z"/>
		<path class="st1" d="M143.1,322.2v0.7H139v-5.6h4v0.7h-3.2v1.7h2.8v0.7h-2.8v1.8H143.1z"/>
		<path class="st1" d="M149.2,317.2v5.6h-0.7l-3.4-4.2v4.2h-0.8v-5.6h0.7l3.4,4.2v-4.2H149.2z"/>
		<path class="st1" d="M154.5,321.4h-3l-0.6,1.4h-0.8l2.5-5.6h0.8l2.5,5.6h-0.8L154.5,321.4z M154.2,320.8l-1.2-2.8l-1.2,2.8H154.2z
			"/>
		<path class="st1" d="M157.2,322.7c-0.4-0.1-0.7-0.3-0.9-0.5l0.3-0.6c0.2,0.2,0.5,0.3,0.8,0.5s0.7,0.2,1,0.2c0.5,0,0.8-0.1,1-0.2
			c0.2-0.2,0.3-0.4,0.3-0.6c0-0.2-0.1-0.3-0.2-0.5c-0.1-0.1-0.3-0.2-0.5-0.3c-0.2-0.1-0.4-0.1-0.8-0.2c-0.4-0.1-0.8-0.2-1-0.3
			s-0.5-0.3-0.7-0.5c-0.2-0.2-0.3-0.5-0.3-0.9c0-0.3,0.1-0.6,0.2-0.8s0.4-0.4,0.7-0.6c0.3-0.1,0.7-0.2,1.2-0.2c0.3,0,0.7,0,1,0.1
			c0.3,0.1,0.6,0.2,0.8,0.4l-0.3,0.6c-0.2-0.1-0.5-0.3-0.8-0.3c-0.3-0.1-0.5-0.1-0.8-0.1c-0.5,0-0.8,0.1-1,0.2
			c-0.2,0.2-0.3,0.4-0.3,0.6c0,0.2,0.1,0.3,0.2,0.5c0.1,0.1,0.3,0.2,0.5,0.3c0.2,0.1,0.4,0.1,0.8,0.2c0.4,0.1,0.8,0.2,1,0.3
			c0.3,0.1,0.5,0.3,0.7,0.5c0.2,0.2,0.3,0.5,0.3,0.8c0,0.3-0.1,0.6-0.2,0.8c-0.2,0.2-0.4,0.4-0.7,0.6c-0.3,0.1-0.7,0.2-1.2,0.2
			C158,322.9,157.6,322.8,157.2,322.7z"/>
		<path class="st1" d="M168.8,317.2v5.6H168v-2.5h-3.2v2.5h-0.8v-5.6h0.8v2.4h3.2v-2.4H168.8z"/>
		<path class="st1" d="M171.4,322.5c-0.5-0.2-0.8-0.6-1.1-1c-0.3-0.4-0.4-0.9-0.4-1.5c0-0.5,0.1-1,0.4-1.5c0.3-0.4,0.6-0.8,1.1-1
			c0.5-0.2,1-0.4,1.5-0.4c0.6,0,1.1,0.1,1.5,0.4c0.5,0.2,0.8,0.6,1.1,1c0.3,0.4,0.4,0.9,0.4,1.5c0,0.5-0.1,1-0.4,1.5
			c-0.3,0.4-0.6,0.8-1.1,1c-0.5,0.2-1,0.4-1.5,0.4C172.4,322.9,171.9,322.8,171.4,322.5z M174.1,321.9c0.3-0.2,0.6-0.4,0.8-0.8
			c0.2-0.3,0.3-0.7,0.3-1.1c0-0.4-0.1-0.8-0.3-1.1c-0.2-0.3-0.4-0.6-0.8-0.8c-0.3-0.2-0.7-0.3-1.1-0.3s-0.8,0.1-1.1,0.3
			c-0.3,0.2-0.6,0.4-0.8,0.8c-0.2,0.3-0.3,0.7-0.3,1.1c0,0.4,0.1,0.8,0.3,1.1c0.2,0.3,0.5,0.6,0.8,0.8c0.3,0.2,0.7,0.3,1.1,0.3
			S173.8,322.1,174.1,321.9z"/>
		<path class="st1" d="M182.4,322.8l0-4.1l-2,3.4H180l-2-3.4v4.1h-0.8v-5.6h0.7l2.3,3.9l2.3-3.9h0.7l0,5.6H182.4z"/>
		<path class="st1" d="M185.8,322.5c-0.5-0.2-0.8-0.6-1.1-1c-0.3-0.4-0.4-0.9-0.4-1.5c0-0.5,0.1-1,0.4-1.5c0.3-0.4,0.6-0.8,1.1-1
			c0.5-0.2,1-0.4,1.5-0.4c0.6,0,1.1,0.1,1.5,0.4c0.5,0.2,0.8,0.6,1.1,1c0.3,0.4,0.4,0.9,0.4,1.5c0,0.5-0.1,1-0.4,1.5
			c-0.3,0.4-0.6,0.8-1.1,1c-0.5,0.2-1,0.4-1.5,0.4C186.8,322.9,186.3,322.8,185.8,322.5z M188.5,321.9c0.3-0.2,0.6-0.4,0.8-0.8
			c0.2-0.3,0.3-0.7,0.3-1.1c0-0.4-0.1-0.8-0.3-1.1c-0.2-0.3-0.4-0.6-0.8-0.8c-0.3-0.2-0.7-0.3-1.1-0.3s-0.8,0.1-1.1,0.3
			c-0.3,0.2-0.6,0.4-0.8,0.8c-0.2,0.3-0.3,0.7-0.3,1.1c0,0.4,0.1,0.8,0.3,1.1c0.2,0.3,0.5,0.6,0.8,0.8c0.3,0.2,0.7,0.3,1.1,0.3
			S188.1,322.1,188.5,321.9z"/>
		<path class="st1" d="M191.6,317.2h0.8v4.9h3v0.7h-3.8V317.2z"/>
		<path class="st1" d="M197.2,322.5c-0.5-0.2-0.8-0.6-1.1-1c-0.3-0.4-0.4-0.9-0.4-1.5c0-0.5,0.1-1,0.4-1.5c0.3-0.4,0.6-0.8,1.1-1
			c0.5-0.2,1-0.4,1.5-0.4c0.6,0,1.1,0.1,1.5,0.4c0.5,0.2,0.8,0.6,1.1,1c0.3,0.4,0.4,0.9,0.4,1.5c0,0.5-0.1,1-0.4,1.5
			c-0.3,0.4-0.6,0.8-1.1,1c-0.5,0.2-1,0.4-1.5,0.4C198.2,322.9,197.7,322.8,197.2,322.5z M199.9,321.9c0.3-0.2,0.6-0.4,0.8-0.8
			c0.2-0.3,0.3-0.7,0.3-1.1c0-0.4-0.1-0.8-0.3-1.1c-0.2-0.3-0.4-0.6-0.8-0.8c-0.3-0.2-0.7-0.3-1.1-0.3s-0.8,0.1-1.1,0.3
			c-0.3,0.2-0.6,0.4-0.8,0.8c-0.2,0.3-0.3,0.7-0.3,1.1c0,0.4,0.1,0.8,0.3,1.1c0.2,0.3,0.5,0.6,0.8,0.8c0.3,0.2,0.7,0.3,1.1,0.3
			S199.5,322.1,199.9,321.9z"/>
		<path class="st1" d="M206.8,320h0.8v2.2c-0.3,0.2-0.6,0.4-1,0.5c-0.4,0.1-0.8,0.2-1.2,0.2c-0.6,0-1.1-0.1-1.5-0.4
			c-0.5-0.2-0.8-0.6-1.1-1c-0.3-0.4-0.4-0.9-0.4-1.5c0-0.5,0.1-1,0.4-1.5c0.3-0.4,0.6-0.8,1.1-1s1-0.4,1.5-0.4
			c0.4,0,0.9,0.1,1.2,0.2c0.4,0.1,0.7,0.4,0.9,0.6l-0.5,0.5c-0.4-0.4-1-0.6-1.6-0.6c-0.4,0-0.8,0.1-1.2,0.3s-0.6,0.4-0.8,0.8
			c-0.2,0.3-0.3,0.7-0.3,1.1c0,0.4,0.1,0.8,0.3,1.1c0.2,0.3,0.5,0.6,0.8,0.8c0.3,0.2,0.7,0.3,1.1,0.3c0.5,0,0.9-0.1,1.3-0.4V320z"/>
		<path class="st1" d="M212.7,321.4h-3l-0.6,1.4h-0.8l2.5-5.6h0.8l2.5,5.6h-0.8L212.7,321.4z M212.4,320.8l-1.2-2.8l-1.2,2.8H212.4z
			"/>
		<path class="st1" d="M215,317.2h2.4c0.6,0,1.1,0.1,1.6,0.4c0.5,0.2,0.8,0.6,1.1,1s0.4,0.9,0.4,1.5c0,0.6-0.1,1-0.4,1.5
			s-0.6,0.8-1.1,1c-0.5,0.2-1,0.4-1.6,0.4H215V317.2z M217.3,322.2c0.5,0,0.9-0.1,1.2-0.3c0.3-0.2,0.6-0.4,0.8-0.7
			c0.2-0.3,0.3-0.7,0.3-1.1c0-0.4-0.1-0.8-0.3-1.1c-0.2-0.3-0.5-0.6-0.8-0.7c-0.3-0.2-0.7-0.3-1.2-0.3h-1.5v4.2H217.3z"/>
		<path class="st1" d="M225.1,321.4h-3l-0.6,1.4h-0.8l2.5-5.6h0.8l2.5,5.6h-0.8L225.1,321.4z M224.9,320.8l-1.2-2.8l-1.2,2.8H224.9z
			"/>
		<path class="st1" d="M227.8,322.7c-0.4-0.1-0.7-0.3-0.9-0.5l0.3-0.6c0.2,0.2,0.5,0.3,0.8,0.5s0.7,0.2,1,0.2c0.5,0,0.8-0.1,1-0.2
			c0.2-0.2,0.3-0.4,0.3-0.6c0-0.2-0.1-0.3-0.2-0.5c-0.1-0.1-0.3-0.2-0.5-0.3c-0.2-0.1-0.4-0.1-0.8-0.2c-0.4-0.1-0.8-0.2-1-0.3
			s-0.5-0.3-0.7-0.5c-0.2-0.2-0.3-0.5-0.3-0.9c0-0.3,0.1-0.6,0.2-0.8s0.4-0.4,0.7-0.6c0.3-0.1,0.7-0.2,1.2-0.2c0.3,0,0.7,0,1,0.1
			c0.3,0.1,0.6,0.2,0.8,0.4l-0.3,0.6c-0.2-0.1-0.5-0.3-0.8-0.3c-0.3-0.1-0.5-0.1-0.8-0.1c-0.5,0-0.8,0.1-1,0.2
			c-0.2,0.2-0.3,0.4-0.3,0.6c0,0.2,0.1,0.3,0.2,0.5c0.1,0.1,0.3,0.2,0.5,0.3c0.2,0.1,0.4,0.1,0.8,0.2c0.4,0.1,0.8,0.2,1,0.3
			c0.3,0.1,0.5,0.3,0.7,0.5c0.2,0.2,0.3,0.5,0.3,0.8c0,0.3-0.1,0.6-0.2,0.8c-0.2,0.2-0.4,0.4-0.7,0.6c-0.3,0.1-0.7,0.2-1.2,0.2
			C228.6,322.9,228.2,322.8,227.8,322.7z"/>
		<path class="st1" d="M239.4,317.2v5.6h-0.7l-3.4-4.2v4.2h-0.8v-5.6h0.7l3.4,4.2v-4.2H239.4z"/>
		<path class="st1" d="M242.1,322.5c-0.5-0.2-0.8-0.6-1.1-1c-0.3-0.4-0.4-0.9-0.4-1.5c0-0.5,0.1-1,0.4-1.5c0.3-0.4,0.6-0.8,1.1-1
			c0.5-0.2,1-0.4,1.5-0.4c0.6,0,1.1,0.1,1.5,0.4c0.5,0.2,0.8,0.6,1.1,1c0.3,0.4,0.4,0.9,0.4,1.5c0,0.5-0.1,1-0.4,1.5
			c-0.3,0.4-0.6,0.8-1.1,1c-0.5,0.2-1,0.4-1.5,0.4C243,322.9,242.5,322.8,242.1,322.5z M244.7,321.9c0.3-0.2,0.6-0.4,0.8-0.8
			c0.2-0.3,0.3-0.7,0.3-1.1c0-0.4-0.1-0.8-0.3-1.1c-0.2-0.3-0.4-0.6-0.8-0.8c-0.3-0.2-0.7-0.3-1.1-0.3s-0.8,0.1-1.1,0.3
			c-0.3,0.2-0.6,0.4-0.8,0.8c-0.2,0.3-0.3,0.7-0.3,1.1c0,0.4,0.1,0.8,0.3,1.1c0.2,0.3,0.5,0.6,0.8,0.8c0.3,0.2,0.7,0.3,1.1,0.3
			S244.4,322.1,244.7,321.9z"/>
		<path class="st1" d="M253.9,320h0.8v2.2c-0.3,0.2-0.6,0.4-1,0.5c-0.4,0.1-0.8,0.2-1.2,0.2c-0.6,0-1.1-0.1-1.5-0.4
			c-0.5-0.2-0.8-0.6-1.1-1c-0.3-0.4-0.4-0.9-0.4-1.5c0-0.5,0.1-1,0.4-1.5c0.3-0.4,0.6-0.8,1.1-1s1-0.4,1.5-0.4
			c0.4,0,0.9,0.1,1.2,0.2c0.4,0.1,0.7,0.4,0.9,0.6l-0.5,0.5c-0.4-0.4-1-0.6-1.6-0.6c-0.4,0-0.8,0.1-1.2,0.3s-0.6,0.4-0.8,0.8
			c-0.2,0.3-0.3,0.7-0.3,1.1c0,0.4,0.1,0.8,0.3,1.1c0.2,0.3,0.5,0.6,0.8,0.8c0.3,0.2,0.7,0.3,1.1,0.3c0.5,0,0.9-0.1,1.3-0.4V320z"/>
		<path class="st1" d="M260.2,322.2v0.7h-4.1v-5.6h4v0.7H257v1.7h2.8v0.7H257v1.8H260.2z"/>
		<path class="st1" d="M265.3,322.8l-1.2-1.7c-0.1,0-0.3,0-0.4,0h-1.4v1.7h-0.8v-5.6h2.2c0.7,0,1.3,0.2,1.7,0.5
			c0.4,0.3,0.6,0.8,0.6,1.4c0,0.4-0.1,0.8-0.3,1.1c-0.2,0.3-0.5,0.5-0.9,0.7l1.3,1.9H265.3z M264.9,320.1c0.3-0.2,0.4-0.5,0.4-0.9
			s-0.1-0.7-0.4-0.9c-0.3-0.2-0.7-0.3-1.2-0.3h-1.4v2.5h1.4C264.2,320.5,264.6,320.3,264.9,320.1z"/>
		<path class="st1" d="M271.4,322.2v0.7h-4.1v-5.6h4v0.7h-3.2v1.7h2.8v0.7h-2.8v1.8H271.4z"/>
		<path class="st1" d="M277.6,317.2v5.6h-0.7l-3.4-4.2v4.2h-0.8v-5.6h0.7l3.4,4.2v-4.2H277.6z"/>
		<path class="st1" d="M280.2,322.5c-0.5-0.2-0.8-0.6-1.1-1c-0.3-0.4-0.4-0.9-0.4-1.5c0-0.5,0.1-1,0.4-1.5c0.3-0.4,0.6-0.8,1.1-1
			c0.5-0.2,1-0.4,1.5-0.4c0.4,0,0.8,0.1,1.2,0.2c0.4,0.1,0.7,0.4,0.9,0.7l-0.5,0.5c-0.4-0.4-0.9-0.7-1.6-0.7c-0.4,0-0.8,0.1-1.1,0.3
			c-0.3,0.2-0.6,0.4-0.8,0.8c-0.2,0.3-0.3,0.7-0.3,1.1c0,0.4,0.1,0.8,0.3,1.1c0.2,0.3,0.5,0.6,0.8,0.8c0.3,0.2,0.7,0.3,1.1,0.3
			c0.6,0,1.2-0.2,1.6-0.7l0.5,0.5c-0.3,0.3-0.6,0.5-0.9,0.7s-0.8,0.2-1.2,0.2C281.2,322.9,280.7,322.8,280.2,322.5z"/>
		<path class="st1" d="M285,317.2h0.8v5.6H285V317.2z"/>
		<path class="st1" d="M291.1,321.4h-3l-0.6,1.4h-0.8l2.5-5.6h0.8l2.5,5.6h-0.8L291.1,321.4z M290.8,320.8l-1.2-2.8l-1.2,2.8H290.8z
			"/>
		<path class="st1" d="M298.6,322.8l0-4.1l-2,3.4h-0.4l-2-3.4v4.1h-0.8v-5.6h0.7l2.3,3.9l2.3-3.9h0.7l0,5.6H298.6z"/>
		<path class="st1" d="M305.1,322.2v0.7H301v-5.6h4v0.7h-3.2v1.7h2.8v0.7h-2.8v1.8H305.1z"/>
		<path class="st1" d="M311.2,317.2v5.6h-0.7l-3.4-4.2v4.2h-0.8v-5.6h0.7l3.4,4.2v-4.2H311.2z"/>
		<path class="st1" d="M314,317.9h-1.9v-0.7h4.6v0.7h-1.9v4.9H314V317.9z"/>
		<path class="st1" d="M318.6,322.5c-0.5-0.2-0.8-0.6-1.1-1c-0.3-0.4-0.4-0.9-0.4-1.5c0-0.5,0.1-1,0.4-1.5c0.3-0.4,0.6-0.8,1.1-1
			s1-0.4,1.5-0.4c0.6,0,1.1,0.1,1.5,0.4s0.8,0.6,1.1,1s0.4,0.9,0.4,1.5c0,0.5-0.1,1-0.4,1.5s-0.6,0.8-1.1,1c-0.5,0.2-1,0.4-1.5,0.4
			C319.5,322.9,319,322.8,318.6,322.5z M321.2,321.9c0.3-0.2,0.6-0.4,0.8-0.8c0.2-0.3,0.3-0.7,0.3-1.1c0-0.4-0.1-0.8-0.3-1.1
			c-0.2-0.3-0.4-0.6-0.8-0.8c-0.3-0.2-0.7-0.3-1.1-0.3c-0.4,0-0.8,0.1-1.1,0.3c-0.3,0.2-0.6,0.4-0.8,0.8c-0.2,0.3-0.3,0.7-0.3,1.1
			c0,0.4,0.1,0.8,0.3,1.1c0.2,0.3,0.5,0.6,0.8,0.8c0.3,0.2,0.7,0.3,1.1,0.3C320.5,322.2,320.9,322.1,321.2,321.9z"/>
	</g>
	<g class="st0">
		<path class="st1" d="M349.1,317.9h-1.9v-0.7h4.6v0.7h-1.9v4.9h-0.8V317.9z"/>
		<path class="st1" d="M356.8,322.2v0.7h-4.1v-5.6h4v0.7h-3.2v1.7h2.8v0.7h-2.8v1.8H356.8z"/>
		<path class="st1" d="M361.8,322.8l-1.2-1.7c-0.1,0-0.3,0-0.4,0h-1.4v1.7h-0.8v-5.6h2.2c0.7,0,1.3,0.2,1.7,0.5
			c0.4,0.3,0.6,0.8,0.6,1.4c0,0.4-0.1,0.8-0.3,1.1c-0.2,0.3-0.5,0.5-0.9,0.7l1.3,1.9H361.8z M361.4,320.1c0.3-0.2,0.4-0.5,0.4-0.9
			s-0.1-0.7-0.4-0.9c-0.3-0.2-0.7-0.3-1.2-0.3h-1.4v2.5h1.4C360.7,320.5,361.1,320.3,361.4,320.1z"/>
		<path class="st1" d="M367.6,322.8l-1.2-1.7c-0.1,0-0.3,0-0.4,0h-1.4v1.7h-0.8v-5.6h2.2c0.7,0,1.3,0.2,1.7,0.5
			c0.4,0.3,0.6,0.8,0.6,1.4c0,0.4-0.1,0.8-0.3,1.1s-0.5,0.5-0.9,0.7l1.3,1.9H367.6z M367.2,320.1c0.3-0.2,0.4-0.5,0.4-0.9
			s-0.1-0.7-0.4-0.9c-0.3-0.2-0.7-0.3-1.2-0.3h-1.4v2.5h1.4C366.6,320.5,367,320.3,367.2,320.1z"/>
		<path class="st1" d="M373.3,321.4h-3l-0.6,1.4h-0.8l2.5-5.6h0.8l2.5,5.6h-0.8L373.3,321.4z M373,320.8l-1.2-2.8l-1.2,2.8H373z"/>
		<path class="st1" d="M376,322.7c-0.4-0.1-0.7-0.3-0.9-0.5l0.3-0.6c0.2,0.2,0.5,0.3,0.8,0.5s0.7,0.2,1,0.2c0.5,0,0.8-0.1,1-0.2
			c0.2-0.2,0.3-0.4,0.3-0.6c0-0.2-0.1-0.3-0.2-0.5c-0.1-0.1-0.3-0.2-0.5-0.3c-0.2-0.1-0.4-0.1-0.8-0.2c-0.4-0.1-0.8-0.2-1-0.3
			c-0.3-0.1-0.5-0.3-0.7-0.5c-0.2-0.2-0.3-0.5-0.3-0.9c0-0.3,0.1-0.6,0.2-0.8c0.2-0.2,0.4-0.4,0.7-0.6c0.3-0.1,0.7-0.2,1.2-0.2
			c0.3,0,0.7,0,1,0.1c0.3,0.1,0.6,0.2,0.8,0.4l-0.3,0.6c-0.2-0.1-0.5-0.3-0.8-0.3c-0.3-0.1-0.5-0.1-0.8-0.1c-0.5,0-0.8,0.1-1,0.2
			c-0.2,0.2-0.3,0.4-0.3,0.6c0,0.2,0.1,0.3,0.2,0.5s0.3,0.2,0.5,0.3c0.2,0.1,0.4,0.1,0.8,0.2c0.4,0.1,0.8,0.2,1,0.3
			c0.3,0.1,0.5,0.3,0.7,0.5c0.2,0.2,0.3,0.5,0.3,0.8c0,0.3-0.1,0.6-0.2,0.8s-0.4,0.4-0.7,0.6c-0.3,0.1-0.7,0.2-1.2,0.2
			C376.8,322.9,376.4,322.8,376,322.7z"/>
		<path class="st1" d="M382.7,317.2h0.8v5.6h-0.8V317.2z"/>
		<path class="st1" d="M390,317.2v5.6h-0.7l-3.4-4.2v4.2h-0.8v-5.6h0.7l3.4,4.2v-4.2H390z"/>
		<path class="st1" d="M391.7,317.2h2.4c0.6,0,1.1,0.1,1.6,0.4s0.8,0.6,1.1,1s0.4,0.9,0.4,1.5c0,0.6-0.1,1-0.4,1.5s-0.6,0.8-1.1,1
			s-1,0.4-1.6,0.4h-2.4V317.2z M394,322.2c0.5,0,0.9-0.1,1.2-0.3c0.3-0.2,0.6-0.4,0.8-0.7c0.2-0.3,0.3-0.7,0.3-1.1
			c0-0.4-0.1-0.8-0.3-1.1c-0.2-0.3-0.5-0.6-0.8-0.7c-0.3-0.2-0.7-0.3-1.2-0.3h-1.5v4.2H394z"/>
		<path class="st1" d="M399.2,315.7h1l-1.3,1h-0.7L399.2,315.7z M398.3,317.2h0.8v5.6h-0.8V317.2z"/>
		<path class="st1" d="M404.7,320h0.8v2.2c-0.3,0.2-0.6,0.4-1,0.5c-0.4,0.1-0.8,0.2-1.2,0.2c-0.6,0-1.1-0.1-1.5-0.4
			c-0.5-0.2-0.8-0.6-1.1-1c-0.3-0.4-0.4-0.9-0.4-1.5c0-0.5,0.1-1,0.4-1.5c0.3-0.4,0.6-0.8,1.1-1s1-0.4,1.5-0.4
			c0.4,0,0.9,0.1,1.2,0.2c0.4,0.1,0.7,0.4,0.9,0.6l-0.5,0.5c-0.4-0.4-1-0.6-1.6-0.6c-0.4,0-0.8,0.1-1.2,0.3
			c-0.3,0.2-0.6,0.4-0.8,0.8c-0.2,0.3-0.3,0.7-0.3,1.1c0,0.4,0.1,0.8,0.3,1.1c0.2,0.3,0.5,0.6,0.8,0.8c0.3,0.2,0.7,0.3,1.1,0.3
			c0.5,0,0.9-0.1,1.3-0.4V320z"/>
		<path class="st1" d="M411.1,322.2v0.7H407v-5.6h4v0.7h-3.2v1.7h2.8v0.7h-2.8v1.8H411.1z"/>
		<path class="st1" d="M417.2,317.2v5.6h-0.7l-3.4-4.2v4.2h-0.8v-5.6h0.7l3.4,4.2v-4.2H417.2z"/>
		<path class="st1" d="M422.5,321.4h-3l-0.6,1.4H418l2.5-5.6h0.8l2.5,5.6h-0.8L422.5,321.4z M422.2,320.8l-1.2-2.8l-1.2,2.8H422.2z"
			/>
		<path class="st1" d="M425.2,322.7c-0.4-0.1-0.7-0.3-0.9-0.5l0.3-0.6c0.2,0.2,0.5,0.3,0.8,0.5s0.7,0.2,1,0.2c0.5,0,0.8-0.1,1-0.2
			c0.2-0.2,0.3-0.4,0.3-0.6c0-0.2-0.1-0.3-0.2-0.5s-0.3-0.2-0.5-0.3c-0.2-0.1-0.4-0.1-0.8-0.2c-0.4-0.1-0.8-0.2-1-0.3
			c-0.3-0.1-0.5-0.3-0.7-0.5c-0.2-0.2-0.3-0.5-0.3-0.9c0-0.3,0.1-0.6,0.2-0.8c0.2-0.2,0.4-0.4,0.7-0.6s0.7-0.2,1.2-0.2
			c0.3,0,0.7,0,1,0.1c0.3,0.1,0.6,0.2,0.8,0.4l-0.3,0.6c-0.2-0.1-0.5-0.3-0.8-0.3c-0.3-0.1-0.5-0.1-0.8-0.1c-0.5,0-0.8,0.1-1,0.2
			c-0.2,0.2-0.3,0.4-0.3,0.6c0,0.2,0.1,0.3,0.2,0.5c0.1,0.1,0.3,0.2,0.5,0.3c0.2,0.1,0.4,0.1,0.8,0.2c0.4,0.1,0.8,0.2,1,0.3
			s0.5,0.3,0.7,0.5c0.2,0.2,0.3,0.5,0.3,0.8c0,0.3-0.1,0.6-0.2,0.8c-0.2,0.2-0.4,0.4-0.7,0.6s-0.7,0.2-1.2,0.2
			C426,322.9,425.6,322.8,425.2,322.7z"/>
		<path class="st1" d="M431.9,317.2h2.4c0.6,0,1.1,0.1,1.6,0.4s0.8,0.6,1.1,1s0.4,0.9,0.4,1.5c0,0.6-0.1,1-0.4,1.5s-0.6,0.8-1.1,1
			s-1,0.4-1.6,0.4h-2.4V317.2z M434.2,322.2c0.5,0,0.9-0.1,1.2-0.3c0.3-0.2,0.6-0.4,0.8-0.7c0.2-0.3,0.3-0.7,0.3-1.1
			c0-0.4-0.1-0.8-0.3-1.1c-0.2-0.3-0.5-0.6-0.8-0.7c-0.3-0.2-0.7-0.3-1.2-0.3h-1.5v4.2H434.2z"/>
		<path class="st1" d="M442.6,322.2v0.7h-4.1v-5.6h4v0.7h-3.2v1.7h2.8v0.7h-2.8v1.8H442.6z"/>
		<path class="st1" d="M444.9,322.5c-0.5-0.2-0.8-0.6-1.1-1c-0.3-0.4-0.4-0.9-0.4-1.5c0-0.5,0.1-1,0.4-1.5c0.3-0.4,0.6-0.8,1.1-1
			c0.5-0.2,1-0.4,1.5-0.4c0.4,0,0.8,0.1,1.2,0.2c0.4,0.1,0.7,0.4,0.9,0.7l-0.5,0.5c-0.4-0.4-0.9-0.7-1.6-0.7c-0.4,0-0.8,0.1-1.1,0.3
			c-0.3,0.2-0.6,0.4-0.8,0.8c-0.2,0.3-0.3,0.7-0.3,1.1c0,0.4,0.1,0.8,0.3,1.1c0.2,0.3,0.5,0.6,0.8,0.8c0.3,0.2,0.7,0.3,1.1,0.3
			c0.6,0,1.2-0.2,1.6-0.7l0.5,0.5c-0.3,0.3-0.6,0.5-0.9,0.7s-0.8,0.2-1.2,0.2C445.8,322.9,445.3,322.8,444.9,322.5z"/>
		<path class="st1" d="M449.7,317.2h0.8v4.9h3v0.7h-3.8V317.2z"/>
		<path class="st1" d="M458,321.4h-3l-0.6,1.4h-0.8l2.5-5.6h0.8l2.5,5.6h-0.8L458,321.4z M457.8,320.8l-1.2-2.8l-1.2,2.8H457.8z"/>
		<path class="st1" d="M464.1,322.8l-1.2-1.7c-0.1,0-0.3,0-0.4,0h-1.4v1.7h-0.8v-5.6h2.2c0.7,0,1.3,0.2,1.7,0.5
			c0.4,0.3,0.6,0.8,0.6,1.4c0,0.4-0.1,0.8-0.3,1.1c-0.2,0.3-0.5,0.5-0.9,0.7l1.3,1.9H464.1z M463.7,320.1c0.3-0.2,0.4-0.5,0.4-0.9
			s-0.1-0.7-0.4-0.9c-0.3-0.2-0.7-0.3-1.2-0.3h-1.4v2.5h1.4C463,320.5,463.4,320.3,463.7,320.1z"/>
		<path class="st1" d="M469.7,321.4h-3l-0.6,1.4h-0.8l2.5-5.6h0.8l2.5,5.6h-0.8L469.7,321.4z M469.5,320.8l-1.2-2.8l-1.2,2.8H469.5z
			"/>
		<path class="st1" d="M472,317.2h2.4c0.6,0,1.1,0.1,1.6,0.4s0.8,0.6,1.1,1s0.4,0.9,0.4,1.5c0,0.6-0.1,1-0.4,1.5s-0.6,0.8-1.1,1
			s-1,0.4-1.6,0.4H472V317.2z M474.3,322.2c0.5,0,0.9-0.1,1.2-0.3c0.3-0.2,0.6-0.4,0.8-0.7c0.2-0.3,0.3-0.7,0.3-1.1
			c0-0.4-0.1-0.8-0.3-1.1c-0.2-0.3-0.5-0.6-0.8-0.7c-0.3-0.2-0.7-0.3-1.2-0.3h-1.5v4.2H474.3z"/>
		<path class="st1" d="M482.1,321.4h-3l-0.6,1.4h-0.8l2.5-5.6h0.8l2.5,5.6h-0.8L482.1,321.4z M481.9,320.8l-1.2-2.8l-1.2,2.8H481.9z
			"/>
		<path class="st1" d="M484.8,322.7c-0.4-0.1-0.7-0.3-0.9-0.5l0.3-0.6c0.2,0.2,0.5,0.3,0.8,0.5s0.7,0.2,1,0.2c0.5,0,0.8-0.1,1-0.2
			c0.2-0.2,0.3-0.4,0.3-0.6c0-0.2-0.1-0.3-0.2-0.5s-0.3-0.2-0.5-0.3c-0.2-0.1-0.4-0.1-0.8-0.2c-0.4-0.1-0.8-0.2-1-0.3
			c-0.3-0.1-0.5-0.3-0.7-0.5c-0.2-0.2-0.3-0.5-0.3-0.9c0-0.3,0.1-0.6,0.2-0.8c0.2-0.2,0.4-0.4,0.7-0.6s0.7-0.2,1.2-0.2
			c0.3,0,0.7,0,1,0.1c0.3,0.1,0.6,0.2,0.8,0.4l-0.3,0.6c-0.2-0.1-0.5-0.3-0.8-0.3c-0.3-0.1-0.5-0.1-0.8-0.1c-0.5,0-0.8,0.1-1,0.2
			c-0.2,0.2-0.3,0.4-0.3,0.6c0,0.2,0.1,0.3,0.2,0.5c0.1,0.1,0.3,0.2,0.5,0.3c0.2,0.1,0.4,0.1,0.8,0.2c0.4,0.1,0.8,0.2,1,0.3
			s0.5,0.3,0.7,0.5c0.2,0.2,0.3,0.5,0.3,0.8c0,0.3-0.1,0.6-0.2,0.8c-0.2,0.2-0.4,0.4-0.7,0.6s-0.7,0.2-1.2,0.2
			C485.6,322.9,485.2,322.8,484.8,322.7z"/>
		<path class="st1" d="M496.4,317.2v5.6h-0.7l-3.4-4.2v4.2h-0.8v-5.6h0.7l3.4,4.2v-4.2H496.4z"/>
		<path class="st1" d="M499.1,322.5c-0.5-0.2-0.8-0.6-1.1-1c-0.3-0.4-0.4-0.9-0.4-1.5c0-0.5,0.1-1,0.4-1.5c0.3-0.4,0.6-0.8,1.1-1
			c0.5-0.2,1-0.4,1.5-0.4c0.6,0,1.1,0.1,1.5,0.4c0.5,0.2,0.8,0.6,1.1,1c0.3,0.4,0.4,0.9,0.4,1.5c0,0.5-0.1,1-0.4,1.5
			c-0.3,0.4-0.6,0.8-1.1,1c-0.5,0.2-1,0.4-1.5,0.4C500,322.9,499.5,322.8,499.1,322.5z M501.7,321.9c0.3-0.2,0.6-0.4,0.8-0.8
			c0.2-0.3,0.3-0.7,0.3-1.1c0-0.4-0.1-0.8-0.3-1.1c-0.2-0.3-0.4-0.6-0.8-0.8c-0.3-0.2-0.7-0.3-1.1-0.3c-0.4,0-0.8,0.1-1.1,0.3
			c-0.3,0.2-0.6,0.4-0.8,0.8c-0.2,0.3-0.3,0.7-0.3,1.1c0,0.4,0.1,0.8,0.3,1.1c0.2,0.3,0.5,0.6,0.8,0.8c0.3,0.2,0.7,0.3,1.1,0.3
			C501,322.2,501.4,322.1,501.7,321.9z"/>
		<path class="st1" d="M510.9,320h0.8v2.2c-0.3,0.2-0.6,0.4-1,0.5s-0.8,0.2-1.2,0.2c-0.6,0-1.1-0.1-1.5-0.4c-0.5-0.2-0.8-0.6-1.1-1
			c-0.3-0.4-0.4-0.9-0.4-1.5c0-0.5,0.1-1,0.4-1.5c0.3-0.4,0.6-0.8,1.1-1s1-0.4,1.5-0.4c0.4,0,0.9,0.1,1.2,0.2
			c0.4,0.1,0.7,0.4,0.9,0.6l-0.5,0.5c-0.4-0.4-1-0.6-1.6-0.6c-0.4,0-0.8,0.1-1.2,0.3c-0.3,0.2-0.6,0.4-0.8,0.8
			c-0.2,0.3-0.3,0.7-0.3,1.1c0,0.4,0.1,0.8,0.3,1.1c0.2,0.3,0.5,0.6,0.8,0.8c0.3,0.2,0.7,0.3,1.1,0.3c0.5,0,0.9-0.1,1.3-0.4V320z"/>
		<path class="st1" d="M517.2,322.2v0.7h-4.1v-5.6h4v0.7H514v1.7h2.8v0.7H514v1.8H517.2z"/>
		<path class="st1" d="M522.3,322.8l-1.2-1.7c-0.1,0-0.3,0-0.4,0h-1.4v1.7h-0.8v-5.6h2.2c0.7,0,1.3,0.2,1.7,0.5
			c0.4,0.3,0.6,0.8,0.6,1.4c0,0.4-0.1,0.8-0.3,1.1c-0.2,0.3-0.5,0.5-0.9,0.7l1.3,1.9H522.3z M521.9,320.1c0.3-0.2,0.4-0.5,0.4-0.9
			s-0.1-0.7-0.4-0.9c-0.3-0.2-0.7-0.3-1.2-0.3h-1.4v2.5h1.4C521.2,320.5,521.6,320.3,521.9,320.1z"/>
		<path class="st1" d="M528.4,322.2v0.7h-4.1v-5.6h4v0.7h-3.2v1.7h2.8v0.7h-2.8v1.8H528.4z"/>
		<path class="st1" d="M534.6,317.2v5.6h-0.7l-3.4-4.2v4.2h-0.8v-5.6h0.7l3.4,4.2v-4.2H534.6z"/>
		<path class="st1" d="M537.2,322.5c-0.5-0.2-0.8-0.6-1.1-1c-0.3-0.4-0.4-0.9-0.4-1.5c0-0.5,0.1-1,0.4-1.5c0.3-0.4,0.6-0.8,1.1-1
			c0.5-0.2,1-0.4,1.5-0.4c0.4,0,0.8,0.1,1.2,0.2c0.4,0.1,0.7,0.4,0.9,0.7l-0.5,0.5c-0.4-0.4-0.9-0.7-1.6-0.7c-0.4,0-0.8,0.1-1.1,0.3
			c-0.3,0.2-0.6,0.4-0.8,0.8c-0.2,0.3-0.3,0.7-0.3,1.1c0,0.4,0.1,0.8,0.3,1.1c0.2,0.3,0.5,0.6,0.8,0.8c0.3,0.2,0.7,0.3,1.1,0.3
			c0.6,0,1.2-0.2,1.6-0.7l0.5,0.5c-0.3,0.3-0.6,0.5-0.9,0.7s-0.8,0.2-1.2,0.2C538.2,322.9,537.7,322.8,537.2,322.5z"/>
		<path class="st1" d="M542,317.2h0.8v5.6H542V317.2z"/>
		<path class="st1" d="M548.1,321.4h-3l-0.6,1.4h-0.8l2.5-5.6h0.8l2.5,5.6h-0.8L548.1,321.4z M547.8,320.8l-1.2-2.8l-1.2,2.8H547.8z
			"/>
		<path class="st1" d="M555.6,322.8l0-4.1l-2,3.4h-0.4l-2-3.4v4.1h-0.8v-5.6h0.7l2.3,3.9l2.3-3.9h0.7l0,5.6H555.6z"/>
		<path class="st1" d="M562.1,322.2v0.7h-4.1v-5.6h4v0.7h-3.2v1.7h2.8v0.7h-2.8v1.8H562.1z"/>
		<path class="st1" d="M568.3,317.2v5.6h-0.7l-3.4-4.2v4.2h-0.8v-5.6h0.7l3.4,4.2v-4.2H568.3z"/>
		<path class="st1" d="M571,317.9h-1.9v-0.7h4.6v0.7h-1.9v4.9H571V317.9z"/>
		<path class="st1" d="M575.6,322.5c-0.5-0.2-0.8-0.6-1.1-1c-0.3-0.4-0.4-0.9-0.4-1.5c0-0.5,0.1-1,0.4-1.5c0.3-0.4,0.6-0.8,1.1-1
			s1-0.4,1.5-0.4c0.6,0,1.1,0.1,1.5,0.4s0.8,0.6,1.1,1s0.4,0.9,0.4,1.5c0,0.5-0.1,1-0.4,1.5s-0.6,0.8-1.1,1c-0.5,0.2-1,0.4-1.5,0.4
			C576.5,322.9,576,322.8,575.6,322.5z M578.2,321.9c0.3-0.2,0.6-0.4,0.8-0.8c0.2-0.3,0.3-0.7,0.3-1.1c0-0.4-0.1-0.8-0.3-1.1
			c-0.2-0.3-0.4-0.6-0.8-0.8c-0.3-0.2-0.7-0.3-1.1-0.3c-0.4,0-0.8,0.1-1.1,0.3c-0.3,0.2-0.6,0.4-0.8,0.8c-0.2,0.3-0.3,0.7-0.3,1.1
			c0,0.4,0.1,0.8,0.3,1.1c0.2,0.3,0.5,0.6,0.8,0.8c0.3,0.2,0.7,0.3,1.1,0.3C577.5,322.2,577.9,322.1,578.2,321.9z"/>
	</g>
	<g class="st0">
		<path class="st1" d="M54.2,276.2v1.3h2.3v0.9h-2.3v1.8h-1.1v-4.9h3.7v0.9H54.2z"/>
		<path class="st1" d="M62.1,275.3v4.9h-1.1v-2h-2.2v2h-1.1v-4.9h1.1v1.9h2.2v-1.9H62.1z"/>
		<path class="st1" d="M64.2,280c-0.4-0.2-0.7-0.5-1-0.9s-0.3-0.8-0.3-1.3s0.1-0.9,0.3-1.3c0.2-0.4,0.5-0.7,1-0.9
			c0.4-0.2,0.9-0.3,1.4-0.3c0.4,0,0.8,0.1,1.2,0.2c0.3,0.1,0.6,0.4,0.9,0.6l-0.7,0.7c-0.3-0.4-0.7-0.6-1.2-0.6
			c-0.3,0-0.6,0.1-0.8,0.2c-0.2,0.1-0.4,0.3-0.6,0.6c-0.1,0.2-0.2,0.5-0.2,0.8c0,0.3,0.1,0.6,0.2,0.8c0.1,0.2,0.3,0.4,0.6,0.6
			c0.2,0.1,0.5,0.2,0.8,0.2c0.5,0,0.9-0.2,1.2-0.6l0.7,0.7c-0.2,0.3-0.5,0.5-0.9,0.7c-0.3,0.1-0.7,0.2-1.2,0.2
			C65.1,280.3,64.6,280.2,64.2,280z"/>
		<path class="st1" d="M69.8,274.3h1l-2.3,6.6h-1L69.8,274.3z"/>
		<path class="st1" d="M74.3,275.5c0.3,0.1,0.6,0.3,0.7,0.6c0.2,0.3,0.3,0.6,0.3,0.9c0,0.4-0.1,0.7-0.3,0.9
			c-0.2,0.3-0.4,0.5-0.7,0.6c-0.3,0.1-0.7,0.2-1.1,0.2h-1v1.4h-1.1v-4.9h2.1C73.6,275.3,74,275.4,74.3,275.5z M73.9,277.7
			c0.2-0.1,0.3-0.4,0.3-0.6c0-0.3-0.1-0.5-0.3-0.6c-0.2-0.1-0.4-0.2-0.8-0.2h-0.9v1.7h0.9C73.5,278,73.7,277.9,73.9,277.7z"/>
		<path class="st1" d="M76.7,280.2c-0.4-0.1-0.7-0.2-0.9-0.4l0.4-0.9c0.2,0.2,0.5,0.3,0.7,0.4c0.3,0.1,0.6,0.1,0.9,0.1
			c0.3,0,0.6,0,0.7-0.1c0.2-0.1,0.2-0.2,0.2-0.4c0-0.1,0-0.2-0.1-0.3c-0.1-0.1-0.2-0.1-0.3-0.2c-0.1,0-0.3-0.1-0.6-0.2
			c-0.4-0.1-0.7-0.2-0.9-0.3c-0.2-0.1-0.4-0.2-0.6-0.4s-0.3-0.5-0.3-0.8c0-0.3,0.1-0.5,0.2-0.8c0.2-0.2,0.4-0.4,0.7-0.5
			c0.3-0.1,0.7-0.2,1.1-0.2c0.3,0,0.6,0,0.9,0.1c0.3,0.1,0.6,0.2,0.8,0.3l-0.4,0.9c-0.5-0.3-0.9-0.4-1.4-0.4c-0.3,0-0.6,0.1-0.7,0.2
			s-0.2,0.2-0.2,0.4s0.1,0.3,0.3,0.4c0.2,0.1,0.4,0.2,0.8,0.2c0.4,0.1,0.7,0.2,0.9,0.3c0.2,0.1,0.4,0.2,0.6,0.4
			c0.2,0.2,0.3,0.5,0.3,0.8c0,0.3-0.1,0.5-0.2,0.8c-0.2,0.2-0.4,0.4-0.7,0.5c-0.3,0.1-0.7,0.2-1.1,0.2
			C77.4,280.3,77.1,280.3,76.7,280.2z"/>
		<path class="st1" d="M80.7,275.3h2.2c0.5,0,1,0.1,1.4,0.3c0.4,0.2,0.7,0.5,1,0.9c0.2,0.4,0.3,0.8,0.3,1.3s-0.1,0.9-0.3,1.3
			c-0.2,0.4-0.5,0.7-1,0.9c-0.4,0.2-0.9,0.3-1.4,0.3h-2.2V275.3z M82.8,279.3c0.5,0,0.9-0.1,1.2-0.4c0.3-0.3,0.4-0.6,0.4-1.1
			s-0.1-0.8-0.4-1.1c-0.3-0.3-0.7-0.4-1.2-0.4h-1v3H82.8z"/>
		<path class="st1" d="M90.7,278.1c0.2,0.2,0.2,0.5,0.2,0.8c0,0.4-0.2,0.8-0.5,1c-0.3,0.2-0.8,0.3-1.5,0.3h-2.5v-4.9h2.4
			c0.6,0,1.1,0.1,1.4,0.3c0.3,0.2,0.5,0.5,0.5,0.9c0,0.2-0.1,0.5-0.2,0.6c-0.1,0.2-0.3,0.3-0.5,0.4
			C90.3,277.8,90.6,277.9,90.7,278.1z M87.6,276.2v1.2h1.1c0.3,0,0.5,0,0.6-0.1c0.1-0.1,0.2-0.2,0.2-0.4s-0.1-0.3-0.2-0.4
			c-0.1-0.1-0.4-0.1-0.6-0.1H87.6z M89.6,279.2c0.2-0.1,0.2-0.2,0.2-0.5c0-0.4-0.3-0.6-0.9-0.6h-1.3v1.2h1.3
			C89.2,279.4,89.4,279.3,89.6,279.2z"/>
	</g>
	<g class="st0">
		<path class="st1" d="M52.9,288.5c-0.2-0.6-0.2-1.2-0.2-1.8s0.1-1.2,0.2-1.8c0.2-0.6,0.4-1.1,0.6-1.5h1c-0.3,0.5-0.5,1-0.6,1.6
			c-0.1,0.5-0.2,1.1-0.2,1.7s0.1,1.2,0.2,1.7c0.1,0.5,0.3,1.1,0.6,1.6h-1C53.3,289.6,53.1,289.1,52.9,288.5z"/>
		<path class="st1" d="M56.9,283.7v4.9h-1.1v-4h-1v-0.9H56.9z"/>
		<path class="st1" d="M61.1,284.3c0.4,0.4,0.6,1,0.6,1.8c0,0.6-0.1,1-0.3,1.4s-0.5,0.7-0.9,0.9c-0.4,0.2-0.8,0.3-1.3,0.3
			c-0.3,0-0.5,0-0.7-0.1c-0.2-0.1-0.4-0.1-0.6-0.2l0.4-0.8c0.2,0.2,0.5,0.2,0.9,0.2c0.4,0,0.7-0.1,1-0.4c0.2-0.2,0.4-0.6,0.4-1.1
			c-0.3,0.3-0.7,0.4-1.2,0.4c-0.3,0-0.6-0.1-0.9-0.2c-0.3-0.1-0.5-0.3-0.6-0.5c-0.1-0.2-0.2-0.5-0.2-0.8c0-0.3,0.1-0.6,0.2-0.9
			c0.2-0.2,0.4-0.4,0.7-0.6c0.3-0.1,0.6-0.2,0.9-0.2C60.2,283.6,60.7,283.9,61.1,284.3z M60.2,285.8c0.2-0.1,0.2-0.3,0.2-0.5
			s-0.1-0.4-0.2-0.5c-0.2-0.1-0.4-0.2-0.6-0.2c-0.2,0-0.4,0.1-0.6,0.2c-0.2,0.1-0.2,0.3-0.2,0.5c0,0.2,0.1,0.4,0.2,0.5
			c0.2,0.1,0.4,0.2,0.6,0.2C59.8,286,60,285.9,60.2,285.8z"/>
		<path class="st1" d="M65.6,284.3c0.4,0.4,0.6,1,0.6,1.8c0,0.6-0.1,1-0.3,1.4s-0.5,0.7-0.9,0.9c-0.4,0.2-0.8,0.3-1.3,0.3
			c-0.3,0-0.5,0-0.7-0.1c-0.2-0.1-0.4-0.1-0.6-0.2l0.4-0.8c0.2,0.2,0.5,0.2,0.9,0.2c0.4,0,0.7-0.1,1-0.4c0.2-0.2,0.4-0.6,0.4-1.1
			c-0.3,0.3-0.7,0.4-1.2,0.4c-0.3,0-0.6-0.1-0.9-0.2c-0.3-0.1-0.5-0.3-0.6-0.5c-0.1-0.2-0.2-0.5-0.2-0.8c0-0.3,0.1-0.6,0.2-0.9
			c0.2-0.2,0.4-0.4,0.7-0.6c0.3-0.1,0.6-0.2,0.9-0.2C64.7,283.6,65.2,283.9,65.6,284.3z M64.7,285.8c0.2-0.1,0.2-0.3,0.2-0.5
			s-0.1-0.4-0.2-0.5c-0.2-0.1-0.4-0.2-0.6-0.2c-0.2,0-0.4,0.1-0.6,0.2c-0.2,0.1-0.2,0.3-0.2,0.5c0,0.2,0.1,0.4,0.2,0.5
			c0.2,0.1,0.4,0.2,0.6,0.2C64.3,286,64.5,285.9,64.7,285.8z"/>
		<path class="st1" d="M69.9,286c0.3,0.3,0.5,0.6,0.5,1.1c0,0.3-0.1,0.6-0.2,0.8s-0.4,0.4-0.7,0.6c-0.3,0.1-0.7,0.2-1.1,0.2
			c-0.3,0-0.7,0-1-0.1s-0.6-0.2-0.9-0.4l0.4-0.9c0.2,0.1,0.4,0.2,0.6,0.3s0.5,0.1,0.7,0.1c0.3,0,0.5-0.1,0.7-0.2
			c0.2-0.1,0.2-0.3,0.2-0.5c0-0.2-0.1-0.4-0.3-0.5c-0.2-0.1-0.5-0.2-0.9-0.2h-1.3l0.3-2.8h3v0.9h-2l-0.1,0.9h0.4
			C69.1,285.6,69.6,285.7,69.9,286z"/>
		<path class="st1" d="M71,286.2h2v0.9h-2V286.2z"/>
		<path class="st1" d="M75.3,283.7v4.9h-1.1v-4h-1v-0.9H75.3z"/>
		<path class="st1" d="M79.5,284.3c0.4,0.4,0.6,1,0.6,1.8c0,0.6-0.1,1-0.3,1.4s-0.5,0.7-0.9,0.9c-0.4,0.2-0.8,0.3-1.3,0.3
			c-0.3,0-0.5,0-0.7-0.1c-0.2-0.1-0.4-0.1-0.6-0.2l0.4-0.8c0.2,0.2,0.5,0.2,0.9,0.2c0.4,0,0.7-0.1,1-0.4c0.2-0.2,0.4-0.6,0.4-1.1
			c-0.3,0.3-0.7,0.4-1.2,0.4c-0.3,0-0.6-0.1-0.9-0.2c-0.3-0.1-0.5-0.3-0.6-0.5c-0.1-0.2-0.2-0.5-0.2-0.8c0-0.3,0.1-0.6,0.2-0.9
			c0.2-0.2,0.4-0.4,0.7-0.6c0.3-0.1,0.6-0.2,0.9-0.2C78.6,283.6,79.1,283.9,79.5,284.3z M78.6,285.8c0.2-0.1,0.2-0.3,0.2-0.5
			s-0.1-0.4-0.2-0.5c-0.2-0.1-0.4-0.2-0.6-0.2c-0.2,0-0.4,0.1-0.6,0.2c-0.2,0.1-0.2,0.3-0.2,0.5c0,0.2,0.1,0.4,0.2,0.5
			c0.2,0.1,0.4,0.2,0.6,0.2C78.2,286,78.4,285.9,78.6,285.8z"/>
		<path class="st1" d="M84,284.3c0.4,0.4,0.6,1,0.6,1.8c0,0.6-0.1,1-0.3,1.4s-0.5,0.7-0.9,0.9c-0.4,0.2-0.8,0.3-1.3,0.3
			c-0.3,0-0.5,0-0.7-0.1c-0.2-0.1-0.4-0.1-0.6-0.2l0.4-0.8c0.2,0.2,0.5,0.2,0.9,0.2c0.4,0,0.7-0.1,1-0.4c0.2-0.2,0.4-0.6,0.4-1.1
			c-0.3,0.3-0.7,0.4-1.2,0.4c-0.3,0-0.6-0.1-0.9-0.2c-0.3-0.1-0.5-0.3-0.6-0.5c-0.1-0.2-0.2-0.5-0.2-0.8c0-0.3,0.1-0.6,0.2-0.9
			c0.2-0.2,0.4-0.4,0.7-0.6c0.3-0.1,0.6-0.2,0.9-0.2C83,283.6,83.6,283.9,84,284.3z M83,285.8c0.2-0.1,0.2-0.3,0.2-0.5
			s-0.1-0.4-0.2-0.5c-0.2-0.1-0.4-0.2-0.6-0.2c-0.2,0-0.4,0.1-0.6,0.2c-0.2,0.1-0.2,0.3-0.2,0.5c0,0.2,0.1,0.4,0.2,0.5
			c0.2,0.1,0.4,0.2,0.6,0.2C82.7,286,82.9,285.9,83,285.8z"/>
		<path class="st1" d="M89,286.5c0.1,0.2,0.2,0.4,0.2,0.7c0,0.3-0.1,0.6-0.3,0.8c-0.2,0.2-0.4,0.4-0.7,0.5c-0.3,0.1-0.7,0.2-1.1,0.2
			c-0.4,0-0.8-0.1-1.1-0.2c-0.3-0.1-0.6-0.3-0.7-0.5c-0.2-0.2-0.3-0.5-0.3-0.8c0-0.3,0.1-0.5,0.2-0.7c0.1-0.2,0.3-0.4,0.5-0.5
			c-0.2-0.1-0.3-0.3-0.4-0.4c-0.1-0.2-0.1-0.4-0.1-0.6c0-0.3,0.1-0.5,0.2-0.7c0.2-0.2,0.4-0.4,0.7-0.5c0.3-0.1,0.6-0.2,1-0.2
			c0.4,0,0.7,0.1,1,0.2s0.5,0.3,0.7,0.5s0.2,0.5,0.2,0.7c0,0.2,0,0.4-0.1,0.6c-0.1,0.2-0.2,0.3-0.4,0.4
			C88.7,286.2,88.9,286.3,89,286.5z M87.8,287.7c0.2-0.1,0.2-0.3,0.2-0.5s-0.1-0.4-0.2-0.5s-0.4-0.2-0.7-0.2c-0.3,0-0.5,0.1-0.7,0.2
			c-0.2,0.1-0.2,0.3-0.2,0.5c0,0.2,0.1,0.4,0.2,0.5c0.2,0.1,0.4,0.2,0.7,0.2C87.4,287.9,87.6,287.8,87.8,287.7z M86.6,284.6
			c-0.1,0.1-0.2,0.3-0.2,0.5c0,0.2,0.1,0.3,0.2,0.4s0.3,0.2,0.6,0.2c0.2,0,0.4-0.1,0.6-0.2c0.1-0.1,0.2-0.3,0.2-0.4
			c0-0.2-0.1-0.3-0.2-0.5c-0.1-0.1-0.3-0.2-0.6-0.2C86.9,284.5,86.7,284.5,86.6,284.6z"/>
		<path class="st1" d="M89.5,290c0.3-0.5,0.5-1,0.6-1.6s0.2-1.1,0.2-1.7s-0.1-1.2-0.2-1.7s-0.4-1.1-0.6-1.6h1
			c0.3,0.4,0.5,0.9,0.7,1.5c0.2,0.6,0.2,1.2,0.2,1.8s-0.1,1.2-0.2,1.8s-0.4,1-0.7,1.5H89.5z"/>
	</g>
	<g class="st0">
		<path class="st1" d="M134.4,276.2v1.3h2.3v0.9h-2.3v1.8h-1.1v-4.9h3.7v0.9H134.4z"/>
		<path class="st1" d="M142.2,275.3v4.9h-1.1v-2h-2.2v2h-1.1v-4.9h1.1v1.9h2.2v-1.9H142.2z"/>
		<path class="st1" d="M144.4,280c-0.4-0.2-0.7-0.5-1-0.9s-0.3-0.8-0.3-1.3s0.1-0.9,0.3-1.3c0.2-0.4,0.5-0.7,1-0.9
			c0.4-0.2,0.9-0.3,1.4-0.3c0.4,0,0.8,0.1,1.2,0.2c0.3,0.1,0.6,0.4,0.9,0.6l-0.7,0.7c-0.3-0.4-0.7-0.6-1.2-0.6
			c-0.3,0-0.6,0.1-0.8,0.2c-0.2,0.1-0.4,0.3-0.6,0.6c-0.1,0.2-0.2,0.5-0.2,0.8c0,0.3,0.1,0.6,0.2,0.8c0.1,0.2,0.3,0.4,0.6,0.6
			c0.2,0.1,0.5,0.2,0.8,0.2c0.5,0,0.9-0.2,1.2-0.6l0.7,0.7c-0.2,0.3-0.5,0.5-0.9,0.7c-0.3,0.1-0.7,0.2-1.2,0.2
			C145.2,280.3,144.8,280.2,144.4,280z"/>
		<path class="st1" d="M150,274.3h1l-2.3,6.6h-1L150,274.3z"/>
		<path class="st1" d="M154.5,275.5c0.3,0.1,0.6,0.3,0.7,0.6c0.2,0.3,0.3,0.6,0.3,0.9c0,0.4-0.1,0.7-0.3,0.9
			c-0.2,0.3-0.4,0.5-0.7,0.6c-0.3,0.1-0.7,0.2-1.1,0.2h-1v1.4h-1.1v-4.9h2.1C153.8,275.3,154.2,275.4,154.5,275.5z M154.1,277.7
			c0.2-0.1,0.3-0.4,0.3-0.6c0-0.3-0.1-0.5-0.3-0.6c-0.2-0.1-0.4-0.2-0.8-0.2h-0.9v1.7h0.9C153.7,278,153.9,277.9,154.1,277.7z"/>
		<path class="st1" d="M156.9,280.2c-0.4-0.1-0.7-0.2-0.9-0.4l0.4-0.9c0.2,0.2,0.5,0.3,0.7,0.4c0.3,0.1,0.6,0.1,0.9,0.1
			c0.3,0,0.6,0,0.7-0.1c0.2-0.1,0.2-0.2,0.2-0.4c0-0.1,0-0.2-0.1-0.3c-0.1-0.1-0.2-0.1-0.3-0.2c-0.1,0-0.3-0.1-0.6-0.2
			c-0.4-0.1-0.7-0.2-0.9-0.3c-0.2-0.1-0.4-0.2-0.6-0.4s-0.3-0.5-0.3-0.8c0-0.3,0.1-0.5,0.2-0.8c0.2-0.2,0.4-0.4,0.7-0.5
			c0.3-0.1,0.7-0.2,1.1-0.2c0.3,0,0.6,0,0.9,0.1c0.3,0.1,0.6,0.2,0.8,0.3l-0.4,0.9c-0.5-0.3-0.9-0.4-1.4-0.4c-0.3,0-0.6,0.1-0.7,0.2
			s-0.2,0.2-0.2,0.4s0.1,0.3,0.3,0.4c0.2,0.1,0.4,0.2,0.8,0.2c0.4,0.1,0.7,0.2,0.9,0.3c0.2,0.1,0.4,0.2,0.6,0.4
			c0.2,0.2,0.3,0.5,0.3,0.8c0,0.3-0.1,0.5-0.2,0.8c-0.2,0.2-0.4,0.4-0.7,0.5c-0.3,0.1-0.7,0.2-1.1,0.2
			C157.6,280.3,157.2,280.3,156.9,280.2z"/>
		<path class="st1" d="M160.9,275.3h2.2c0.5,0,1,0.1,1.4,0.3c0.4,0.2,0.7,0.5,1,0.9c0.2,0.4,0.3,0.8,0.3,1.3s-0.1,0.9-0.3,1.3
			c-0.2,0.4-0.5,0.7-1,0.9c-0.4,0.2-0.9,0.3-1.4,0.3h-2.2V275.3z M163,279.3c0.5,0,0.9-0.1,1.2-0.4c0.3-0.3,0.4-0.6,0.4-1.1
			s-0.1-0.8-0.4-1.1c-0.3-0.3-0.7-0.4-1.2-0.4h-1v3H163z"/>
		<path class="st1" d="M170.9,278.1c0.2,0.2,0.2,0.5,0.2,0.8c0,0.4-0.2,0.8-0.5,1c-0.3,0.2-0.8,0.3-1.5,0.3h-2.5v-4.9h2.4
			c0.6,0,1.1,0.1,1.4,0.3c0.3,0.2,0.5,0.5,0.5,0.9c0,0.2-0.1,0.5-0.2,0.6c-0.1,0.2-0.3,0.3-0.5,0.4
			C170.5,277.8,170.7,277.9,170.9,278.1z M167.8,276.2v1.2h1.1c0.3,0,0.5,0,0.6-0.1c0.1-0.1,0.2-0.2,0.2-0.4s-0.1-0.3-0.2-0.4
			c-0.1-0.1-0.4-0.1-0.6-0.1H167.8z M169.8,279.2c0.2-0.1,0.2-0.2,0.2-0.5c0-0.4-0.3-0.6-0.9-0.6h-1.3v1.2h1.3
			C169.4,279.4,169.6,279.3,169.8,279.2z"/>
	</g>
	<g class="st0">
		<path class="st1" d="M132.2,288.5c-0.2-0.6-0.2-1.2-0.2-1.8s0.1-1.2,0.2-1.8c0.2-0.6,0.4-1.1,0.6-1.5h1c-0.3,0.5-0.5,1-0.6,1.6
			c-0.1,0.5-0.2,1.1-0.2,1.7s0.1,1.2,0.2,1.7c0.1,0.5,0.3,1.1,0.6,1.6h-1C132.6,289.6,132.4,289.1,132.2,288.5z"/>
		<path class="st1" d="M136.2,283.7v4.9h-1.1v-4h-1v-0.9H136.2z"/>
		<path class="st1" d="M140.4,284.3c0.4,0.4,0.6,1,0.6,1.8c0,0.6-0.1,1-0.3,1.4s-0.5,0.7-0.9,0.9c-0.4,0.2-0.8,0.3-1.3,0.3
			c-0.3,0-0.5,0-0.7-0.1c-0.2-0.1-0.4-0.1-0.6-0.2l0.4-0.8c0.2,0.2,0.5,0.2,0.9,0.2c0.4,0,0.7-0.1,1-0.4c0.2-0.2,0.4-0.6,0.4-1.1
			c-0.3,0.3-0.7,0.4-1.2,0.4c-0.3,0-0.6-0.1-0.9-0.2c-0.3-0.1-0.5-0.3-0.6-0.5c-0.1-0.2-0.2-0.5-0.2-0.8c0-0.3,0.1-0.6,0.2-0.9
			c0.2-0.2,0.4-0.4,0.7-0.6c0.3-0.1,0.6-0.2,0.9-0.2C139.5,283.6,140,283.9,140.4,284.3z M139.5,285.8c0.2-0.1,0.2-0.3,0.2-0.5
			s-0.1-0.4-0.2-0.5c-0.2-0.1-0.4-0.2-0.6-0.2c-0.2,0-0.4,0.1-0.6,0.2c-0.2,0.1-0.2,0.3-0.2,0.5c0,0.2,0.1,0.4,0.2,0.5
			c0.2,0.1,0.4,0.2,0.6,0.2C139.1,286,139.3,285.9,139.5,285.8z"/>
		<path class="st1" d="M144.9,284.3c0.4,0.4,0.6,1,0.6,1.8c0,0.6-0.1,1-0.3,1.4s-0.5,0.7-0.9,0.9c-0.4,0.2-0.8,0.3-1.3,0.3
			c-0.3,0-0.5,0-0.7-0.1c-0.2-0.1-0.4-0.1-0.6-0.2l0.4-0.8c0.2,0.2,0.5,0.2,0.9,0.2c0.4,0,0.7-0.1,1-0.4c0.2-0.2,0.4-0.6,0.4-1.1
			c-0.3,0.3-0.7,0.4-1.2,0.4c-0.3,0-0.6-0.1-0.9-0.2c-0.3-0.1-0.5-0.3-0.6-0.5c-0.1-0.2-0.2-0.5-0.2-0.8c0-0.3,0.1-0.6,0.2-0.9
			c0.2-0.2,0.4-0.4,0.7-0.6c0.3-0.1,0.6-0.2,0.9-0.2C143.9,283.6,144.5,283.9,144.9,284.3z M143.9,285.8c0.2-0.1,0.2-0.3,0.2-0.5
			s-0.1-0.4-0.2-0.5c-0.2-0.1-0.4-0.2-0.6-0.2c-0.2,0-0.4,0.1-0.6,0.2c-0.2,0.1-0.2,0.3-0.2,0.5c0,0.2,0.1,0.4,0.2,0.5
			c0.2,0.1,0.4,0.2,0.6,0.2C143.6,286,143.8,285.9,143.9,285.8z"/>
		<path class="st1" d="M149.3,284.3c0.4,0.4,0.6,1,0.6,1.8c0,0.6-0.1,1-0.3,1.4s-0.5,0.7-0.9,0.9c-0.4,0.2-0.8,0.3-1.3,0.3
			c-0.3,0-0.5,0-0.7-0.1c-0.2-0.1-0.4-0.1-0.6-0.2l0.4-0.8c0.2,0.2,0.5,0.2,0.9,0.2c0.4,0,0.7-0.1,1-0.4c0.2-0.2,0.4-0.6,0.4-1.1
			c-0.3,0.3-0.7,0.4-1.2,0.4c-0.3,0-0.6-0.1-0.9-0.2c-0.3-0.1-0.5-0.3-0.6-0.5c-0.1-0.2-0.2-0.5-0.2-0.8c0-0.3,0.1-0.6,0.2-0.9
			c0.2-0.2,0.4-0.4,0.7-0.6c0.3-0.1,0.6-0.2,0.9-0.2C148.4,283.6,148.9,283.9,149.3,284.3z M148.4,285.8c0.2-0.1,0.2-0.3,0.2-0.5
			s-0.1-0.4-0.2-0.5c-0.2-0.1-0.4-0.2-0.6-0.2c-0.2,0-0.4,0.1-0.6,0.2c-0.2,0.1-0.2,0.3-0.2,0.5c0,0.2,0.1,0.4,0.2,0.5
			c0.2,0.1,0.4,0.2,0.6,0.2C148,286,148.2,285.9,148.4,285.8z"/>
		<path class="st1" d="M150.6,286.2h2v0.9h-2V286.2z"/>
		<path class="st1" d="M156.7,287.7v0.9H153v-0.7l1.9-1.8c0.2-0.2,0.3-0.4,0.4-0.5c0.1-0.1,0.1-0.3,0.1-0.4c0-0.2-0.1-0.3-0.2-0.5
			c-0.1-0.1-0.3-0.2-0.6-0.2c-0.2,0-0.4,0-0.6,0.1c-0.2,0.1-0.3,0.2-0.4,0.4l-0.8-0.5c0.2-0.3,0.5-0.5,0.8-0.7s0.7-0.2,1.2-0.2
			c0.4,0,0.7,0.1,1,0.2s0.5,0.3,0.6,0.5s0.2,0.5,0.2,0.8c0,0.3-0.1,0.5-0.2,0.7s-0.3,0.5-0.7,0.8l-1.1,1.1H156.7z"/>
		<path class="st1" d="M158.2,288.4c-0.3-0.2-0.6-0.5-0.7-0.9c-0.2-0.4-0.3-0.8-0.3-1.4s0.1-1,0.3-1.4c0.2-0.4,0.4-0.7,0.7-0.9
			c0.3-0.2,0.7-0.3,1.1-0.3c0.4,0,0.8,0.1,1.1,0.3c0.3,0.2,0.6,0.5,0.7,0.9c0.2,0.4,0.3,0.8,0.3,1.4s-0.1,1-0.3,1.4
			c-0.2,0.4-0.4,0.7-0.7,0.9c-0.3,0.2-0.7,0.3-1.1,0.3C158.9,288.7,158.5,288.6,158.2,288.4z M160,287.4c0.2-0.3,0.3-0.7,0.3-1.2
			c0-0.5-0.1-0.9-0.3-1.2c-0.2-0.3-0.4-0.4-0.7-0.4c-0.3,0-0.5,0.1-0.7,0.4s-0.3,0.7-0.3,1.2c0,0.5,0.1,0.9,0.3,1.2s0.4,0.4,0.7,0.4
			C159.6,287.8,159.8,287.6,160,287.4z"/>
		<path class="st1" d="M162.9,288.4c-0.3-0.2-0.6-0.5-0.7-0.9c-0.2-0.4-0.3-0.8-0.3-1.4s0.1-1,0.3-1.4c0.2-0.4,0.4-0.7,0.7-0.9
			c0.3-0.2,0.7-0.3,1.1-0.3c0.4,0,0.8,0.1,1.1,0.3c0.3,0.2,0.6,0.5,0.7,0.9c0.2,0.4,0.3,0.8,0.3,1.4s-0.1,1-0.3,1.4
			c-0.2,0.4-0.4,0.7-0.7,0.9c-0.3,0.2-0.7,0.3-1.1,0.3C163.6,288.7,163.3,288.6,162.9,288.4z M164.7,287.4c0.2-0.3,0.3-0.7,0.3-1.2
			c0-0.5-0.1-0.9-0.3-1.2c-0.2-0.3-0.4-0.4-0.7-0.4c-0.3,0-0.5,0.1-0.7,0.4s-0.3,0.7-0.3,1.2c0,0.5,0.1,0.9,0.3,1.2s0.4,0.4,0.7,0.4
			C164.3,287.8,164.6,287.6,164.7,287.4z"/>
		<path class="st1" d="M170.3,287.7v0.9h-3.7v-0.7l1.9-1.8c0.2-0.2,0.3-0.4,0.4-0.5c0.1-0.1,0.1-0.3,0.1-0.4c0-0.2-0.1-0.3-0.2-0.5
			c-0.1-0.1-0.3-0.2-0.6-0.2c-0.2,0-0.4,0-0.6,0.1c-0.2,0.1-0.3,0.2-0.4,0.4l-0.8-0.5c0.2-0.3,0.5-0.5,0.8-0.7s0.7-0.2,1.2-0.2
			c0.4,0,0.7,0.1,1,0.2s0.5,0.3,0.6,0.5s0.2,0.5,0.2,0.8c0,0.3-0.1,0.5-0.2,0.7s-0.3,0.5-0.7,0.8l-1.1,1.1H170.3z"/>
		<path class="st1" d="M170.6,290c0.3-0.5,0.5-1,0.6-1.6s0.2-1.1,0.2-1.7s-0.1-1.2-0.2-1.7s-0.4-1.1-0.6-1.6h1
			c0.3,0.4,0.5,0.9,0.7,1.5c0.2,0.6,0.2,1.2,0.2,1.8s-0.1,1.2-0.2,1.8s-0.4,1-0.7,1.5H170.6z"/>
	</g>
	<g class="st0">
		<path class="st1" d="M217,275.3h1.1v4h2.5v0.9H217V275.3z"/>
		<path class="st1" d="M221.7,279.7c-0.4-0.4-0.6-0.9-0.6-1.7v-2.7h1.1v2.7c0,0.9,0.4,1.3,1.1,1.3c0.4,0,0.6-0.1,0.8-0.3
			c0.2-0.2,0.3-0.5,0.3-1v-2.7h1.1v2.7c0,0.7-0.2,1.3-0.6,1.7s-0.9,0.6-1.6,0.6C222.6,280.3,222,280.1,221.7,279.7z"/>
		<path class="st1" d="M226.6,275.3h1.1v4h2.5v0.9h-3.6V275.3z"/>
		<path class="st1" d="M234.1,279.2h-2.3l-0.4,1h-1.2l2.2-4.9h1.1l2.2,4.9h-1.2L234.1,279.2z M233.8,278.3l-0.8-1.9l-0.8,1.9H233.8z
			"/>
		<path class="st1" d="M238,274.3h1l-2.3,6.6h-1L238,274.3z"/>
		<path class="st1" d="M242.5,275.5c0.3,0.1,0.6,0.3,0.7,0.6c0.2,0.3,0.3,0.6,0.3,0.9c0,0.4-0.1,0.7-0.3,0.9
			c-0.2,0.3-0.4,0.5-0.7,0.6c-0.3,0.1-0.7,0.2-1.1,0.2h-1v1.4h-1.1v-4.9h2.1C241.8,275.3,242.2,275.4,242.5,275.5z M242.1,277.7
			c0.2-0.1,0.3-0.4,0.3-0.6c0-0.3-0.1-0.5-0.3-0.6c-0.2-0.1-0.4-0.2-0.8-0.2h-0.9v1.7h0.9C241.6,278,241.9,277.9,242.1,277.7z"/>
		<path class="st1" d="M245.2,276.3h-1.6v-0.9h4.3v0.9h-1.6v4h-1.1V276.3z"/>
	</g>
	<g class="st0">
		<path class="st1" d="M211.4,288.5c-0.2-0.6-0.2-1.2-0.2-1.8s0.1-1.2,0.2-1.8c0.2-0.6,0.4-1.1,0.6-1.5h1c-0.3,0.5-0.5,1-0.6,1.6
			c-0.1,0.5-0.2,1.1-0.2,1.7s0.1,1.2,0.2,1.7c0.1,0.5,0.3,1.1,0.6,1.6h-1C211.8,289.6,211.6,289.1,211.4,288.5z"/>
		<path class="st1" d="M217.1,287.7v0.9h-3.7v-0.7l1.9-1.8c0.2-0.2,0.3-0.4,0.4-0.5c0.1-0.1,0.1-0.3,0.1-0.4c0-0.2-0.1-0.3-0.2-0.5
			c-0.1-0.1-0.3-0.2-0.6-0.2c-0.2,0-0.4,0-0.6,0.1c-0.2,0.1-0.3,0.2-0.4,0.4l-0.8-0.5c0.2-0.3,0.5-0.5,0.8-0.7s0.7-0.2,1.2-0.2
			c0.4,0,0.7,0.1,1,0.2s0.5,0.3,0.6,0.5s0.2,0.5,0.2,0.8c0,0.3-0.1,0.5-0.2,0.7s-0.3,0.5-0.7,0.8l-1.1,1.1H217.1z"/>
		<path class="st1" d="M218.6,288.4c-0.3-0.2-0.6-0.5-0.7-0.9c-0.2-0.4-0.3-0.8-0.3-1.4s0.1-1,0.3-1.4c0.2-0.4,0.4-0.7,0.7-0.9
			c0.3-0.2,0.7-0.3,1.1-0.3c0.4,0,0.8,0.1,1.1,0.3c0.3,0.2,0.6,0.5,0.7,0.9c0.2,0.4,0.3,0.8,0.3,1.4s-0.1,1-0.3,1.4
			c-0.2,0.4-0.4,0.7-0.7,0.9c-0.3,0.2-0.7,0.3-1.1,0.3C219.3,288.7,218.9,288.6,218.6,288.4z M220.4,287.4c0.2-0.3,0.3-0.7,0.3-1.2
			c0-0.5-0.1-0.9-0.3-1.2c-0.2-0.3-0.4-0.4-0.7-0.4c-0.3,0-0.5,0.1-0.7,0.4s-0.3,0.7-0.3,1.2c0,0.5,0.1,0.9,0.3,1.2s0.4,0.4,0.7,0.4
			C220,287.8,220.2,287.6,220.4,287.4z"/>
		<path class="st1" d="M223.3,288.4c-0.3-0.2-0.6-0.5-0.7-0.9c-0.2-0.4-0.3-0.8-0.3-1.4s0.1-1,0.3-1.4c0.2-0.4,0.4-0.7,0.7-0.9
			c0.3-0.2,0.7-0.3,1.1-0.3c0.4,0,0.8,0.1,1.1,0.3c0.3,0.2,0.6,0.5,0.7,0.9c0.2,0.4,0.3,0.8,0.3,1.4s-0.1,1-0.3,1.4
			c-0.2,0.4-0.4,0.7-0.7,0.9c-0.3,0.2-0.7,0.3-1.1,0.3C224,288.7,223.6,288.6,223.3,288.4z M225.1,287.4c0.2-0.3,0.3-0.7,0.3-1.2
			c0-0.5-0.1-0.9-0.3-1.2c-0.2-0.3-0.4-0.4-0.7-0.4c-0.3,0-0.5,0.1-0.7,0.4s-0.3,0.7-0.3,1.2c0,0.5,0.1,0.9,0.3,1.2s0.4,0.4,0.7,0.4
			C224.7,287.8,224.9,287.6,225.1,287.4z"/>
		<path class="st1" d="M230.3,286.2c0.2,0.2,0.3,0.6,0.3,0.9c0,0.3-0.1,0.5-0.2,0.8c-0.1,0.2-0.4,0.4-0.7,0.6s-0.7,0.2-1.1,0.2
			c-0.3,0-0.7,0-1-0.1c-0.3-0.1-0.6-0.2-0.9-0.4l0.4-0.9c0.2,0.1,0.4,0.2,0.6,0.3s0.5,0.1,0.8,0.1c0.3,0,0.5-0.1,0.7-0.2
			c0.2-0.1,0.2-0.3,0.2-0.5c0-0.4-0.3-0.6-0.9-0.6H228v-0.7l1-1.1H227v-0.9h3.4v0.7l-1.1,1.3C229.7,285.8,230,286,230.3,286.2z"/>
		<path class="st1" d="M232.9,282.7h1l-2.3,6.6h-1L232.9,282.7z"/>
		<path class="st1" d="M237.5,287.7v0.9h-3.7v-0.7l1.9-1.8c0.2-0.2,0.3-0.4,0.4-0.5c0.1-0.1,0.1-0.3,0.1-0.4c0-0.2-0.1-0.3-0.2-0.5
			c-0.1-0.1-0.3-0.2-0.6-0.2c-0.2,0-0.4,0-0.6,0.1c-0.2,0.1-0.3,0.2-0.4,0.4l-0.8-0.5c0.2-0.3,0.5-0.5,0.8-0.7s0.7-0.2,1.2-0.2
			c0.4,0,0.7,0.1,1,0.2s0.5,0.3,0.6,0.5s0.2,0.5,0.2,0.8c0,0.3-0.1,0.5-0.2,0.7s-0.3,0.5-0.7,0.8l-1.1,1.1H237.5z"/>
		<path class="st1" d="M239,288.4c-0.3-0.2-0.6-0.5-0.7-0.9c-0.2-0.4-0.3-0.8-0.3-1.4s0.1-1,0.3-1.4c0.2-0.4,0.4-0.7,0.7-0.9
			c0.3-0.2,0.7-0.3,1.1-0.3c0.4,0,0.8,0.1,1.1,0.3c0.3,0.2,0.6,0.5,0.7,0.9c0.2,0.4,0.3,0.8,0.3,1.4s-0.1,1-0.3,1.4
			c-0.2,0.4-0.4,0.7-0.7,0.9c-0.3,0.2-0.7,0.3-1.1,0.3C239.7,288.7,239.3,288.6,239,288.4z M240.8,287.4c0.2-0.3,0.3-0.7,0.3-1.2
			c0-0.5-0.1-0.9-0.3-1.2c-0.2-0.3-0.4-0.4-0.7-0.4c-0.3,0-0.5,0.1-0.7,0.4s-0.3,0.7-0.3,1.2c0,0.5,0.1,0.9,0.3,1.2s0.4,0.4,0.7,0.4
			C240.4,287.8,240.6,287.6,240.8,287.4z"/>
		<path class="st1" d="M243.8,288.4c-0.3-0.2-0.6-0.5-0.7-0.9c-0.2-0.4-0.3-0.8-0.3-1.4s0.1-1,0.3-1.4c0.2-0.4,0.4-0.7,0.7-0.9
			c0.3-0.2,0.7-0.3,1.1-0.3c0.4,0,0.8,0.1,1.1,0.3c0.3,0.2,0.6,0.5,0.7,0.9c0.2,0.4,0.3,0.8,0.3,1.4s-0.1,1-0.3,1.4
			c-0.2,0.4-0.4,0.7-0.7,0.9c-0.3,0.2-0.7,0.3-1.1,0.3C244.4,288.7,244.1,288.6,243.8,288.4z M245.6,287.4c0.2-0.3,0.3-0.7,0.3-1.2
			c0-0.5-0.1-0.9-0.3-1.2c-0.2-0.3-0.4-0.4-0.7-0.4c-0.3,0-0.5,0.1-0.7,0.4s-0.3,0.7-0.3,1.2c0,0.5,0.1,0.9,0.3,1.2s0.4,0.4,0.7,0.4
			C245.2,287.8,245.4,287.6,245.6,287.4z"/>
		<path class="st1" d="M250.7,285.7c0.3,0.1,0.5,0.3,0.6,0.5c0.1,0.2,0.2,0.5,0.2,0.8c0,0.3-0.1,0.6-0.2,0.9
			c-0.2,0.2-0.4,0.4-0.7,0.6c-0.3,0.1-0.6,0.2-0.9,0.2c-0.7,0-1.2-0.2-1.6-0.6s-0.6-1-0.6-1.8c0-0.6,0.1-1,0.3-1.4
			c0.2-0.4,0.5-0.7,0.9-0.9c0.4-0.2,0.8-0.3,1.3-0.3c0.3,0,0.5,0,0.8,0.1s0.4,0.1,0.6,0.2l-0.4,0.8c-0.2-0.2-0.5-0.2-0.9-0.2
			c-0.4,0-0.7,0.1-1,0.4c-0.2,0.2-0.4,0.6-0.4,1.1c0.3-0.3,0.7-0.4,1.2-0.4C250.2,285.6,250.5,285.6,250.7,285.7z M250.2,287.7
			c0.2-0.1,0.2-0.3,0.2-0.5c0-0.2-0.1-0.4-0.2-0.5c-0.2-0.1-0.4-0.2-0.6-0.2c-0.2,0-0.5,0.1-0.6,0.2s-0.2,0.3-0.2,0.5
			s0.1,0.4,0.2,0.5c0.2,0.1,0.4,0.2,0.6,0.2C249.9,287.9,250.1,287.8,250.2,287.7z"/>
		<path class="st1" d="M251.8,290c0.3-0.5,0.5-1,0.6-1.6s0.2-1.1,0.2-1.7s-0.1-1.2-0.2-1.7s-0.4-1.1-0.6-1.6h1
			c0.3,0.4,0.5,0.9,0.7,1.5c0.2,0.6,0.2,1.2,0.2,1.8s-0.1,1.2-0.2,1.8s-0.4,1-0.7,1.5H251.8z"/>
	</g>
	<g>
		<rect x="40" y="67.8" class="st5" width="29.8" height="201.3"/>
		<rect x="122.3" y="214.1" class="st5" width="29.8" height="55"/>
		<rect x="203.6" y="151.3" class="st5" width="29.8" height="117.8"/>
		<rect x="69.8" y="166.5" class="st6" width="29.8" height="102.6"/>
		<rect x="152.2" y="163.6" class="st6" width="29.8" height="105.5"/>
		<rect x="233.6" y="216.4" class="st6" width="29.8" height="52.8"/>
		<g>
			<g class="st0">
				<path class="st1" d="M50.6,57.8v5.6h-1.3v-4.6h-1.1v-1H50.6z"/>
				<path class="st1" d="M53.7,57.8v5.6h-1.3v-4.6h-1.1v-1H53.7z"/>
				<path class="st1" d="M59.9,62.2h-0.9v1.2h-1.3v-1.2h-3v-0.9l2.6-3.6h1.4l-2.5,3.4h1.5v-1h1.2v1h0.9V62.2z"/>
			</g>
		</g>
		<g>
			<g class="st0">
				<path class="st1" d="M136.5,207.5c0.3,0.3,0.4,0.6,0.4,1.1c0,0.3-0.1,0.6-0.3,0.9s-0.4,0.5-0.8,0.7s-0.8,0.2-1.3,0.2
					c-0.4,0-0.8-0.1-1.2-0.2c-0.4-0.1-0.7-0.3-1-0.4l0.5-1c0.2,0.2,0.5,0.3,0.7,0.4c0.3,0.1,0.6,0.1,0.9,0.1c0.3,0,0.6-0.1,0.8-0.2
					c0.2-0.1,0.3-0.3,0.3-0.5c0-0.5-0.4-0.7-1.1-0.7H134V207l1.2-1.3h-2.4v-1h3.9v0.8l-1.3,1.4C135.9,207,136.3,207.2,136.5,207.5z"
					/>
				<path class="st1" d="M139.7,204.7v5.6h-1.3v-4.6h-1.1v-1H139.7z"/>
			</g>
		</g>
		<g>
			<g class="st0">
				<path class="st1" d="M216.4,137.2c0.3,0.1,0.5,0.3,0.7,0.6c0.2,0.3,0.3,0.6,0.3,0.9c0,0.4-0.1,0.7-0.3,1
					c-0.2,0.3-0.4,0.5-0.8,0.7c-0.3,0.2-0.7,0.2-1.1,0.2c-0.8,0-1.4-0.2-1.8-0.7c-0.4-0.5-0.7-1.2-0.7-2.1c0-0.6,0.1-1.2,0.4-1.6
					c0.2-0.5,0.6-0.8,1-1s0.9-0.4,1.5-0.4c0.3,0,0.6,0,0.9,0.1c0.3,0.1,0.5,0.2,0.7,0.3l-0.5,1c-0.3-0.2-0.6-0.3-1.1-0.3
					c-0.5,0-0.9,0.1-1.1,0.4c-0.3,0.3-0.4,0.7-0.4,1.2c0.3-0.3,0.8-0.5,1.4-0.5C215.8,137,216.1,137,216.4,137.2z M215.8,139.4
					c0.2-0.1,0.3-0.4,0.3-0.6c0-0.3-0.1-0.5-0.3-0.6c-0.2-0.2-0.4-0.2-0.7-0.2c-0.3,0-0.5,0.1-0.7,0.2c-0.2,0.2-0.3,0.4-0.3,0.6
					c0,0.2,0.1,0.4,0.3,0.6c0.2,0.2,0.4,0.2,0.7,0.2C215.4,139.6,215.7,139.5,215.8,139.4z"/>
				<path class="st1" d="M223,139.3H222v1.2h-1.3v-1.2h-3v-0.9l2.6-3.6h1.4l-2.5,3.4h1.5v-1h1.2v1h0.9V139.3z"/>
			</g>
		</g>
		<g class="st0">
			<path class="st1" d="M83.6,158c0.4,0.3,0.6,0.7,0.6,1.3c0,0.3-0.1,0.7-0.3,0.9c-0.2,0.3-0.4,0.5-0.8,0.7
				c-0.4,0.2-0.8,0.3-1.3,0.3c-0.4,0-0.8-0.1-1.2-0.2c-0.4-0.1-0.7-0.3-1-0.4l0.5-1c0.2,0.2,0.5,0.3,0.7,0.4
				c0.3,0.1,0.6,0.1,0.9,0.1c0.3,0,0.6-0.1,0.8-0.2s0.3-0.3,0.3-0.5c0-0.2-0.1-0.4-0.3-0.5c-0.2-0.1-0.5-0.2-1-0.2h-1.4l0.3-3.2h3.4
				v1h-2.3l-0.1,1.1h0.5C82.6,157.6,83.2,157.7,83.6,158z"/>
			<path class="st1" d="M89.2,158.7c0.1,0.2,0.2,0.5,0.2,0.8c0,0.3-0.1,0.7-0.3,0.9c-0.2,0.3-0.5,0.5-0.8,0.6
				c-0.4,0.1-0.8,0.2-1.2,0.2s-0.9-0.1-1.2-0.2s-0.6-0.3-0.8-0.6c-0.2-0.3-0.3-0.6-0.3-0.9c0-0.3,0.1-0.6,0.2-0.8s0.4-0.4,0.6-0.5
				c-0.2-0.1-0.4-0.3-0.5-0.5s-0.2-0.4-0.2-0.7c0-0.3,0.1-0.6,0.3-0.8c0.2-0.2,0.4-0.4,0.8-0.6c0.3-0.1,0.7-0.2,1.1-0.2
				c0.4,0,0.8,0.1,1.1,0.2c0.3,0.1,0.6,0.3,0.8,0.6s0.3,0.5,0.3,0.8c0,0.3-0.1,0.5-0.2,0.7s-0.3,0.4-0.5,0.5
				C88.8,158.3,89,158.4,89.2,158.7z M87.8,160c0.2-0.1,0.3-0.3,0.3-0.6c0-0.2-0.1-0.4-0.3-0.6c-0.2-0.1-0.4-0.2-0.8-0.2
				c-0.3,0-0.6,0.1-0.8,0.2s-0.3,0.3-0.3,0.6c0,0.3,0.1,0.4,0.3,0.6s0.4,0.2,0.8,0.2C87.3,160.2,87.6,160.1,87.8,160z M86.4,156.5
				c-0.2,0.1-0.2,0.3-0.2,0.5c0,0.2,0.1,0.4,0.2,0.5c0.2,0.1,0.4,0.2,0.6,0.2c0.3,0,0.5-0.1,0.6-0.2c0.2-0.1,0.2-0.3,0.2-0.5
				c0-0.2-0.1-0.4-0.2-0.5c-0.2-0.1-0.4-0.2-0.6-0.2C86.8,156.3,86.5,156.4,86.4,156.5z"/>
		</g>
		<g class="st0">
			<path class="st1" d="M166,156.4c0.3,0.1,0.5,0.3,0.7,0.6c0.2,0.3,0.3,0.6,0.3,0.9c0,0.4-0.1,0.7-0.3,1c-0.2,0.3-0.4,0.5-0.8,0.7
				c-0.3,0.2-0.7,0.2-1.1,0.2c-0.8,0-1.4-0.2-1.8-0.7c-0.4-0.5-0.7-1.2-0.7-2.1c0-0.6,0.1-1.2,0.4-1.6c0.2-0.5,0.6-0.8,1-1
				s0.9-0.4,1.5-0.4c0.3,0,0.6,0,0.9,0.1c0.3,0.1,0.5,0.2,0.7,0.3l-0.5,1c-0.3-0.2-0.6-0.3-1.1-0.3c-0.5,0-0.9,0.1-1.1,0.4
				c-0.3,0.3-0.4,0.7-0.4,1.2c0.3-0.3,0.8-0.5,1.4-0.5C165.4,156.2,165.7,156.3,166,156.4z M165.5,158.6c0.2-0.1,0.3-0.4,0.3-0.6
				c0-0.3-0.1-0.5-0.3-0.6c-0.2-0.2-0.4-0.2-0.7-0.2c-0.3,0-0.5,0.1-0.7,0.2c-0.2,0.2-0.3,0.4-0.3,0.6c0,0.2,0.1,0.4,0.3,0.6
				c0.2,0.2,0.4,0.2,0.7,0.2C165.1,158.9,165.3,158.8,165.5,158.6z"/>
			<path class="st1" d="M168.6,159.5c-0.4-0.2-0.6-0.6-0.9-1c-0.2-0.4-0.3-1-0.3-1.6c0-0.6,0.1-1.1,0.3-1.6c0.2-0.4,0.5-0.8,0.9-1
				c0.4-0.2,0.8-0.3,1.2-0.3c0.5,0,0.9,0.1,1.2,0.3c0.4,0.2,0.6,0.6,0.9,1c0.2,0.4,0.3,1,0.3,1.6c0,0.6-0.1,1.1-0.3,1.6
				c-0.2,0.4-0.5,0.8-0.9,1c-0.4,0.2-0.8,0.3-1.2,0.3C169.4,159.8,169,159.7,168.6,159.5z M170.7,158.3c0.2-0.3,0.3-0.7,0.3-1.4
				c0-0.6-0.1-1.1-0.3-1.4c-0.2-0.3-0.5-0.4-0.8-0.4c-0.3,0-0.6,0.1-0.8,0.4c-0.2,0.3-0.3,0.7-0.3,1.4c0,0.6,0.1,1.1,0.3,1.4
				c0.2,0.3,0.5,0.4,0.8,0.4C170.2,158.7,170.5,158.6,170.7,158.3z"/>
		</g>
		<g class="st0">
			<path class="st1" d="M247.6,208.8c0.3,0.3,0.4,0.6,0.4,1.1c0,0.3-0.1,0.6-0.3,0.9s-0.4,0.5-0.8,0.7s-0.8,0.2-1.3,0.2
				c-0.4,0-0.8-0.1-1.2-0.2c-0.4-0.1-0.7-0.3-1-0.4l0.5-1c0.2,0.2,0.5,0.3,0.7,0.4c0.3,0.1,0.6,0.1,0.9,0.1c0.3,0,0.6-0.1,0.8-0.2
				c0.2-0.1,0.3-0.3,0.3-0.5c0-0.5-0.4-0.7-1.1-0.7h-0.6v-0.9l1.2-1.3h-2.4v-1h3.9v0.8l-1.3,1.4C247,208.4,247.4,208.5,247.6,208.8z
				"/>
			<path class="st1" d="M249.8,211.4c-0.4-0.2-0.6-0.6-0.9-1c-0.2-0.4-0.3-1-0.3-1.6c0-0.6,0.1-1.1,0.3-1.6c0.2-0.4,0.5-0.8,0.9-1
				c0.4-0.2,0.8-0.3,1.2-0.3c0.5,0,0.9,0.1,1.2,0.3c0.4,0.2,0.6,0.6,0.9,1c0.2,0.4,0.3,1,0.3,1.6c0,0.6-0.1,1.1-0.3,1.6
				c-0.2,0.4-0.5,0.8-0.9,1c-0.4,0.2-0.8,0.3-1.2,0.3C250.5,211.7,250.1,211.6,249.8,211.4z M251.8,210.2c0.2-0.3,0.3-0.7,0.3-1.4
				c0-0.6-0.1-1.1-0.3-1.4c-0.2-0.3-0.5-0.4-0.8-0.4c-0.3,0-0.6,0.1-0.8,0.4c-0.2,0.3-0.3,0.7-0.3,1.4c0,0.6,0.1,1.1,0.3,1.4
				c0.2,0.3,0.5,0.4,0.8,0.4C251.4,210.6,251.6,210.5,251.8,210.2z"/>
		</g>
	</g>
	<g>
		<rect x="284.6" y="232" class="st5" width="29.8" height="37.1"/>
		<rect x="366.9" y="248.6" class="st5" width="29.8" height="20.6"/>
		<rect x="448.2" y="252.7" class="st5" width="29.8" height="16.4"/>
		<rect x="314.4" y="179.4" class="st6" width="29.8" height="89.7"/>
		<rect x="396.8" y="248.6" class="st6" width="29.8" height="20.6"/>
		<rect x="478.2" y="242.7" class="st6" width="29.8" height="26.4"/>
		<g>
			<g class="st0">
				<path class="st1" d="M299.1,226.3v1.1h-4.2v-0.8l2.2-2c0.2-0.2,0.4-0.4,0.5-0.6c0.1-0.2,0.1-0.3,0.1-0.5c0-0.2-0.1-0.4-0.2-0.5
					s-0.4-0.2-0.7-0.2c-0.2,0-0.5,0-0.7,0.1c-0.2,0.1-0.4,0.2-0.5,0.4l-0.9-0.6c0.2-0.3,0.5-0.6,0.9-0.8c0.4-0.2,0.8-0.3,1.3-0.3
					c0.4,0,0.8,0.1,1.1,0.2c0.3,0.1,0.6,0.3,0.7,0.6c0.2,0.2,0.3,0.5,0.3,0.9c0,0.3-0.1,0.6-0.2,0.9c-0.1,0.3-0.4,0.6-0.7,0.9
					l-1.3,1.2H299.1z"/>
				<path class="st1" d="M301.8,221.8v5.6h-1.3v-4.6h-1.1v-1H301.8z"/>
			</g>
		</g>
		<g>
			<g class="st0">
				<path class="st1" d="M380.3,237.7v5.6H379v-4.6h-1.1v-1H380.3z"/>
				<path class="st1" d="M383.5,237.7v5.6h-1.3v-4.6H381v-1H383.5z"/>
			</g>
		</g>
		<g>
			<g class="st0">
				<path class="st1" d="M460.5,244.9v5.6h-1.3v-4.6h-1.1v-1H460.5z"/>
				<path class="st1" d="M462.6,250.2c-0.4-0.2-0.6-0.6-0.9-1s-0.3-1-0.3-1.6c0-0.6,0.1-1.1,0.3-1.6s0.5-0.8,0.9-1
					c0.4-0.2,0.8-0.3,1.2-0.3s0.9,0.1,1.2,0.3c0.4,0.2,0.6,0.6,0.9,1s0.3,1,0.3,1.6c0,0.6-0.1,1.1-0.3,1.6s-0.5,0.8-0.9,1
					c-0.4,0.2-0.8,0.3-1.2,0.3S463,250.5,462.6,250.2z M464.7,249.1c0.2-0.3,0.3-0.7,0.3-1.4c0-0.6-0.1-1.1-0.3-1.4
					s-0.5-0.4-0.8-0.4c-0.3,0-0.6,0.1-0.8,0.4s-0.3,0.7-0.3,1.4c0,0.6,0.1,1.1,0.3,1.4s0.5,0.4,0.8,0.4
					C464.2,249.5,464.5,249.3,464.7,249.1z"/>
			</g>
		</g>
		<g class="st0">
			<path class="st1" d="M329.3,173c0.4,0.3,0.6,0.7,0.6,1.3c0,0.3-0.1,0.7-0.3,0.9c-0.2,0.3-0.4,0.5-0.8,0.7
				c-0.4,0.2-0.8,0.3-1.3,0.3c-0.4,0-0.8-0.1-1.2-0.2c-0.4-0.1-0.7-0.3-1-0.4l0.5-1c0.2,0.2,0.5,0.3,0.7,0.4
				c0.3,0.1,0.6,0.1,0.9,0.1c0.3,0,0.6-0.1,0.8-0.2s0.3-0.3,0.3-0.5c0-0.2-0.1-0.4-0.3-0.5c-0.2-0.1-0.5-0.2-1-0.2h-1.4l0.3-3.2h3.4
				v1h-2.3l-0.1,1.1h0.5C328.3,172.6,328.9,172.7,329.3,173z"/>
			<path class="st1" d="M332.5,170.5v5.6h-1.3v-4.6h-1.1v-1H332.5z"/>
		</g>
		<g class="st0">
			<path class="st1" d="M411.3,238.1v5.6H410v-4.6h-1.1v-1H411.3z"/>
			<path class="st1" d="M414.4,238.1v5.6h-1.3v-4.6H412v-1H414.4z"/>
		</g>
		<g class="st0">
			<path class="st1" d="M491.8,236v5.6h-1.3V237h-1.1v-1H491.8z"/>
			<path class="st1" d="M496.4,238.6c0.4,0.3,0.6,0.7,0.6,1.3c0,0.3-0.1,0.7-0.3,0.9c-0.2,0.3-0.4,0.5-0.8,0.7
				c-0.4,0.2-0.8,0.3-1.3,0.3c-0.4,0-0.8-0.1-1.2-0.2c-0.4-0.1-0.7-0.3-1-0.4l0.5-1c0.2,0.2,0.5,0.3,0.7,0.4
				c0.3,0.1,0.6,0.1,0.9,0.1c0.3,0,0.6-0.1,0.8-0.2c0.2-0.1,0.3-0.3,0.3-0.5c0-0.2-0.1-0.4-0.3-0.5s-0.5-0.2-1-0.2h-1.4l0.3-3.2h3.4
				v1h-2.3l-0.1,1.1h0.5C495.5,238.1,496,238.3,496.4,238.6z"/>
		</g>
		<g>
			<g class="st0">
				<path class="st1" d="M543,263.2c-0.4-0.2-0.6-0.6-0.9-1c-0.2-0.4-0.3-1-0.3-1.6c0-0.6,0.1-1.1,0.3-1.6c0.2-0.4,0.5-0.8,0.9-1
					c0.4-0.2,0.8-0.3,1.2-0.3c0.5,0,0.9,0.1,1.2,0.3c0.4,0.2,0.6,0.6,0.9,1c0.2,0.4,0.3,1,0.3,1.6c0,0.6-0.1,1.1-0.3,1.6
					c-0.2,0.4-0.5,0.8-0.9,1c-0.4,0.2-0.8,0.3-1.2,0.3C543.7,263.6,543.3,263.5,543,263.2z M545,262.1c0.2-0.3,0.3-0.7,0.3-1.4
					c0-0.6-0.1-1.1-0.3-1.4c-0.2-0.3-0.5-0.4-0.8-0.4c-0.3,0-0.6,0.1-0.8,0.4c-0.2,0.3-0.3,0.7-0.3,1.4c0,0.6,0.1,1.1,0.3,1.4
					c0.2,0.3,0.5,0.4,0.8,0.4C544.6,262.5,544.8,262.3,545,262.1z"/>
			</g>
		</g>
		<g class="st0">
			<path class="st1" d="M573.9,263.4c-0.4-0.2-0.6-0.6-0.9-1c-0.2-0.4-0.3-1-0.3-1.6c0-0.6,0.1-1.1,0.3-1.6c0.2-0.4,0.5-0.8,0.9-1
				c0.4-0.2,0.8-0.3,1.2-0.3c0.5,0,0.9,0.1,1.2,0.3c0.4,0.2,0.6,0.6,0.9,1c0.2,0.4,0.3,1,0.3,1.6c0,0.6-0.1,1.1-0.3,1.6
				c-0.2,0.4-0.5,0.8-0.9,1c-0.4,0.2-0.8,0.3-1.2,0.3C574.7,263.7,574.3,263.6,573.9,263.4z M575.9,262.2c0.2-0.3,0.3-0.7,0.3-1.4
				c0-0.6-0.1-1.1-0.3-1.4c-0.2-0.3-0.5-0.4-0.8-0.4c-0.3,0-0.6,0.1-0.8,0.4c-0.2,0.3-0.3,0.7-0.3,1.4c0,0.6,0.1,1.1,0.3,1.4
				c0.2,0.3,0.5,0.4,0.8,0.4C575.5,262.6,575.7,262.5,575.9,262.2z"/>
		</g>
	</g>
	<g class="st0">
		<path class="st1" d="M301.6,275.3h1.1v4h2.5v0.9h-3.6V275.3z"/>
		<path class="st1" d="M305.8,275.3h1.1v4h2.5v0.9h-3.6V275.3z"/>
		<path class="st1" d="M310.5,279.7c-0.4-0.4-0.6-0.9-0.6-1.7v-2.7h1.1v2.7c0,0.9,0.4,1.3,1.1,1.3c0.4,0,0.6-0.1,0.8-0.3
			c0.2-0.2,0.3-0.5,0.3-1v-2.7h1.1v2.7c0,0.7-0.2,1.3-0.6,1.7s-0.9,0.6-1.6,0.6C311.4,280.3,310.9,280.1,310.5,279.7z"/>
		<path class="st1" d="M315.5,275.3h1.1v4h2.5v0.9h-3.6V275.3z"/>
		<path class="st1" d="M323,279.2h-2.3l-0.4,1h-1.2l2.2-4.9h1.1l2.2,4.9h-1.2L323,279.2z M322.6,278.3l-0.8-1.9l-0.8,1.9H322.6z"/>
		<path class="st1" d="M326.8,274.3h1l-2.3,6.6h-1L326.8,274.3z"/>
		<path class="st1" d="M331.3,275.5c0.3,0.1,0.6,0.3,0.7,0.6c0.2,0.3,0.3,0.6,0.3,0.9c0,0.4-0.1,0.7-0.3,0.9
			c-0.2,0.3-0.4,0.5-0.7,0.6s-0.7,0.2-1.1,0.2h-1v1.4h-1.1v-4.9h2.1C330.6,275.3,331,275.4,331.3,275.5z M330.9,277.7
			c0.2-0.1,0.3-0.4,0.3-0.6c0-0.3-0.1-0.5-0.3-0.6c-0.2-0.1-0.4-0.2-0.8-0.2h-0.9v1.7h0.9C330.5,278,330.7,277.9,330.9,277.7z"/>
		<path class="st1" d="M334,276.3h-1.6v-0.9h4.3v0.9h-1.6v4H334V276.3z"/>
	</g>
	<g class="st0">
		<path class="st1" d="M298.6,288.5c-0.2-0.6-0.2-1.2-0.2-1.8s0.1-1.2,0.2-1.8s0.4-1.1,0.6-1.5h1c-0.3,0.5-0.5,1-0.6,1.6
			c-0.1,0.5-0.2,1.1-0.2,1.7s0.1,1.2,0.2,1.7c0.1,0.5,0.3,1.1,0.6,1.6h-1C299,289.6,298.8,289.1,298.6,288.5z"/>
		<path class="st1" d="M304.3,287.7v0.9h-3.7v-0.7l1.9-1.8c0.2-0.2,0.3-0.4,0.4-0.5c0.1-0.1,0.1-0.3,0.1-0.4c0-0.2-0.1-0.3-0.2-0.5
			c-0.1-0.1-0.3-0.2-0.6-0.2c-0.2,0-0.4,0-0.6,0.1c-0.2,0.1-0.3,0.2-0.4,0.4l-0.8-0.5c0.2-0.3,0.5-0.5,0.8-0.7s0.7-0.2,1.2-0.2
			c0.4,0,0.7,0.1,1,0.2c0.3,0.1,0.5,0.3,0.6,0.5c0.2,0.2,0.2,0.5,0.2,0.8c0,0.3-0.1,0.5-0.2,0.7c-0.1,0.2-0.3,0.5-0.7,0.8l-1.1,1.1
			H304.3z"/>
		<path class="st1" d="M305.8,288.4c-0.3-0.2-0.6-0.5-0.7-0.9c-0.2-0.4-0.3-0.8-0.3-1.4s0.1-1,0.3-1.4c0.2-0.4,0.4-0.7,0.7-0.9
			c0.3-0.2,0.7-0.3,1.1-0.3s0.8,0.1,1.1,0.3c0.3,0.2,0.6,0.5,0.7,0.9c0.2,0.4,0.3,0.8,0.3,1.4s-0.1,1-0.3,1.4
			c-0.2,0.4-0.4,0.7-0.7,0.9c-0.3,0.2-0.7,0.3-1.1,0.3S306.1,288.6,305.8,288.4z M307.6,287.4c0.2-0.3,0.3-0.7,0.3-1.2
			c0-0.5-0.1-0.9-0.3-1.2c-0.2-0.3-0.4-0.4-0.7-0.4c-0.3,0-0.5,0.1-0.7,0.4c-0.2,0.3-0.3,0.7-0.3,1.2c0,0.5,0.1,0.9,0.3,1.2
			c0.2,0.3,0.4,0.4,0.7,0.4C307.2,287.8,307.4,287.6,307.6,287.4z"/>
		<path class="st1" d="M310.5,288.4c-0.3-0.2-0.6-0.5-0.7-0.9c-0.2-0.4-0.3-0.8-0.3-1.4s0.1-1,0.3-1.4c0.2-0.4,0.4-0.7,0.7-0.9
			c0.3-0.2,0.7-0.3,1.1-0.3s0.8,0.1,1.1,0.3c0.3,0.2,0.6,0.5,0.7,0.9c0.2,0.4,0.3,0.8,0.3,1.4s-0.1,1-0.3,1.4
			c-0.2,0.4-0.4,0.7-0.7,0.9c-0.3,0.2-0.7,0.3-1.1,0.3S310.9,288.6,310.5,288.4z M312.3,287.4c0.2-0.3,0.3-0.7,0.3-1.2
			c0-0.5-0.1-0.9-0.3-1.2c-0.2-0.3-0.4-0.4-0.7-0.4c-0.3,0-0.5,0.1-0.7,0.4c-0.2,0.3-0.3,0.7-0.3,1.2c0,0.5,0.1,0.9,0.3,1.2
			c0.2,0.3,0.4,0.4,0.7,0.4C311.9,287.8,312.2,287.6,312.3,287.4z"/>
		<path class="st1" d="M318.1,283.7v0.7l-1.8,4.2H315l1.8-4h-1.6v0.8h-1v-1.7H318.1z"/>
		<path class="st1" d="M318.3,286.2h2v0.9h-2V286.2z"/>
		<path class="st1" d="M322.7,283.7v4.9h-1.1v-4h-1v-0.9H322.7z"/>
		<path class="st1" d="M324.6,288.4c-0.3-0.2-0.6-0.5-0.7-0.9c-0.2-0.4-0.3-0.8-0.3-1.4s0.1-1,0.3-1.4c0.2-0.4,0.4-0.7,0.7-0.9
			c0.3-0.2,0.7-0.3,1.1-0.3c0.4,0,0.8,0.1,1.1,0.3c0.3,0.2,0.6,0.5,0.7,0.9c0.2,0.4,0.3,0.8,0.3,1.4s-0.1,1-0.3,1.4
			c-0.2,0.4-0.4,0.7-0.7,0.9c-0.3,0.2-0.7,0.3-1.1,0.3C325.2,288.7,324.9,288.6,324.6,288.4z M326.3,287.4c0.2-0.3,0.3-0.7,0.3-1.2
			c0-0.5-0.1-0.9-0.3-1.2s-0.4-0.4-0.7-0.4c-0.3,0-0.5,0.1-0.7,0.4c-0.2,0.3-0.3,0.7-0.3,1.2c0,0.5,0.1,0.9,0.3,1.2
			c0.2,0.3,0.4,0.4,0.7,0.4C325.9,287.8,326.2,287.6,326.3,287.4z"/>
		<path class="st1" d="M329.3,288.4c-0.3-0.2-0.6-0.5-0.7-0.9c-0.2-0.4-0.3-0.8-0.3-1.4s0.1-1,0.3-1.4c0.2-0.4,0.4-0.7,0.7-0.9
			c0.3-0.2,0.7-0.3,1.1-0.3c0.4,0,0.8,0.1,1.1,0.3c0.3,0.2,0.6,0.5,0.7,0.9c0.2,0.4,0.3,0.8,0.3,1.4s-0.1,1-0.3,1.4
			c-0.2,0.4-0.4,0.7-0.7,0.9c-0.3,0.2-0.7,0.3-1.1,0.3C330,288.7,329.6,288.6,329.3,288.4z M331.1,287.4c0.2-0.3,0.3-0.7,0.3-1.2
			c0-0.5-0.1-0.9-0.3-1.2s-0.4-0.4-0.7-0.4c-0.3,0-0.5,0.1-0.7,0.4c-0.2,0.3-0.3,0.7-0.3,1.2c0,0.5,0.1,0.9,0.3,1.2
			c0.2,0.3,0.4,0.4,0.7,0.4C330.7,287.8,330.9,287.6,331.1,287.4z"/>
		<path class="st1" d="M336.4,284.3c0.4,0.4,0.6,1,0.6,1.8c0,0.6-0.1,1-0.3,1.4c-0.2,0.4-0.5,0.7-0.9,0.9c-0.4,0.2-0.8,0.3-1.3,0.3
			c-0.3,0-0.5,0-0.7-0.1c-0.2-0.1-0.4-0.1-0.6-0.2l0.4-0.8c0.2,0.2,0.5,0.2,0.9,0.2c0.4,0,0.7-0.1,1-0.4c0.2-0.2,0.4-0.6,0.4-1.1
			c-0.3,0.3-0.7,0.4-1.2,0.4c-0.3,0-0.6-0.1-0.9-0.2s-0.5-0.3-0.6-0.5c-0.1-0.2-0.2-0.5-0.2-0.8c0-0.3,0.1-0.6,0.2-0.9
			s0.4-0.4,0.7-0.6c0.3-0.1,0.6-0.2,0.9-0.2C335.5,283.6,336,283.9,336.4,284.3z M335.5,285.8c0.2-0.1,0.2-0.3,0.2-0.5
			s-0.1-0.4-0.2-0.5c-0.2-0.1-0.4-0.2-0.6-0.2c-0.2,0-0.4,0.1-0.6,0.2c-0.2,0.1-0.2,0.3-0.2,0.5c0,0.2,0.1,0.4,0.2,0.5
			c0.2,0.1,0.4,0.2,0.6,0.2C335.1,286,335.3,285.9,335.5,285.8z"/>
		<path class="st1" d="M337.3,290c0.3-0.5,0.5-1,0.6-1.6s0.2-1.1,0.2-1.7s-0.1-1.2-0.2-1.7s-0.4-1.1-0.6-1.6h1
			c0.3,0.4,0.5,0.9,0.7,1.5c0.2,0.6,0.2,1.2,0.2,1.8s-0.1,1.2-0.2,1.8s-0.4,1-0.7,1.5H337.3z"/>
	</g>
	<g class="st0">
		<path class="st1" d="M381.4,275.3h2.2c0.5,0,1,0.1,1.4,0.3c0.4,0.2,0.7,0.5,1,0.9c0.2,0.4,0.3,0.8,0.3,1.3s-0.1,0.9-0.3,1.3
			c-0.2,0.4-0.5,0.7-1,0.9c-0.4,0.2-0.9,0.3-1.4,0.3h-2.2V275.3z M383.5,279.3c0.5,0,0.9-0.1,1.2-0.4c0.3-0.3,0.4-0.6,0.4-1.1
			s-0.1-0.8-0.4-1.1c-0.3-0.3-0.7-0.4-1.2-0.4h-1v3H383.5z"/>
		<path class="st1" d="M387.1,275.3h1.1v4.9h-1.1V275.3z"/>
		<path class="st1" d="M389.4,275.3h1.1v4h2.5v0.9h-3.6V275.3z"/>
		<path class="st1" d="M398.1,280.2l0-2.9l-1.4,2.4h-0.5l-1.4-2.4v2.9h-1.1v-4.9h0.9l1.8,3l1.8-3h0.9l0,4.9H398.1z"/>
		<path class="st1" d="M403.6,279.2h-2.3l-0.4,1h-1.2l2.2-4.9h1.1l2.2,4.9H404L403.6,279.2z M403.2,278.3l-0.8-1.9l-0.8,1.9H403.2z"
			/>
		<path class="st1" d="M407.4,274.3h1l-2.3,6.6h-1L407.4,274.3z"/>
		<path class="st1" d="M411.9,275.5c0.3,0.1,0.6,0.3,0.7,0.6c0.2,0.3,0.3,0.6,0.3,0.9c0,0.4-0.1,0.7-0.3,0.9
			c-0.2,0.3-0.4,0.5-0.7,0.6s-0.7,0.2-1.1,0.2h-1v1.4h-1.1v-4.9h2.1C411.2,275.3,411.6,275.4,411.9,275.5z M411.5,277.7
			c0.2-0.1,0.3-0.4,0.3-0.6c0-0.3-0.1-0.5-0.3-0.6c-0.2-0.1-0.4-0.2-0.8-0.2h-0.9v1.7h0.9C411.1,278,411.3,277.9,411.5,277.7z"/>
		<path class="st1" d="M414.6,276.3H413v-0.9h4.3v0.9h-1.6v4h-1.1V276.3z"/>
	</g>
	<g class="st0">
		<path class="st1" d="M380.8,288.5c-0.2-0.6-0.2-1.2-0.2-1.8s0.1-1.2,0.2-1.8s0.4-1.1,0.6-1.5h1c-0.3,0.5-0.5,1-0.6,1.6
			c-0.1,0.5-0.2,1.1-0.2,1.7s0.1,1.2,0.2,1.7c0.1,0.5,0.3,1.1,0.6,1.6h-1C381.2,289.6,381,289.1,380.8,288.5z"/>
		<path class="st1" d="M386.5,287.7v0.9h-3.7v-0.7l1.9-1.8c0.2-0.2,0.3-0.4,0.4-0.5c0.1-0.1,0.1-0.3,0.1-0.4c0-0.2-0.1-0.3-0.2-0.5
			c-0.1-0.1-0.3-0.2-0.6-0.2c-0.2,0-0.4,0-0.6,0.1c-0.2,0.1-0.3,0.2-0.4,0.4l-0.8-0.5c0.2-0.3,0.5-0.5,0.8-0.7s0.7-0.2,1.2-0.2
			c0.4,0,0.7,0.1,1,0.2c0.3,0.1,0.5,0.3,0.6,0.5c0.2,0.2,0.2,0.5,0.2,0.8c0,0.3-0.1,0.5-0.2,0.7c-0.1,0.2-0.3,0.5-0.7,0.8l-1.1,1.1
			H386.5z"/>
		<path class="st1" d="M388,288.4c-0.3-0.2-0.6-0.5-0.7-0.9c-0.2-0.4-0.3-0.8-0.3-1.4s0.1-1,0.3-1.4c0.2-0.4,0.4-0.7,0.7-0.9
			c0.3-0.2,0.7-0.3,1.1-0.3s0.8,0.1,1.1,0.3c0.3,0.2,0.6,0.5,0.7,0.9c0.2,0.4,0.3,0.8,0.3,1.4s-0.1,1-0.3,1.4
			c-0.2,0.4-0.4,0.7-0.7,0.9c-0.3,0.2-0.7,0.3-1.1,0.3S388.3,288.6,388,288.4z M389.8,287.4c0.2-0.3,0.3-0.7,0.3-1.2
			c0-0.5-0.1-0.9-0.3-1.2c-0.2-0.3-0.4-0.4-0.7-0.4c-0.3,0-0.5,0.1-0.7,0.4c-0.2,0.3-0.3,0.7-0.3,1.2c0,0.5,0.1,0.9,0.3,1.2
			c0.2,0.3,0.4,0.4,0.7,0.4C389.4,287.8,389.6,287.6,389.8,287.4z"/>
		<path class="st1" d="M393.6,283.7v4.9h-1.1v-4h-1v-0.9H393.6z"/>
		<path class="st1" d="M396.3,283.7v4.9h-1.1v-4h-1v-0.9H396.3z"/>
		<path class="st1" d="M397.2,286.2h2v0.9h-2V286.2z"/>
		<path class="st1" d="M403.4,287.7v0.9h-3.7v-0.7l1.9-1.8c0.2-0.2,0.3-0.4,0.4-0.5s0.1-0.3,0.1-0.4c0-0.2-0.1-0.3-0.2-0.5
			c-0.1-0.1-0.3-0.2-0.6-0.2c-0.2,0-0.4,0-0.6,0.1c-0.2,0.1-0.3,0.2-0.4,0.4l-0.8-0.5c0.2-0.3,0.5-0.5,0.8-0.7s0.7-0.2,1.2-0.2
			c0.4,0,0.7,0.1,1,0.2c0.3,0.1,0.5,0.3,0.6,0.5c0.2,0.2,0.2,0.5,0.2,0.8c0,0.3-0.1,0.5-0.2,0.7c-0.1,0.2-0.3,0.5-0.7,0.8l-1.1,1.1
			H403.4z"/>
		<path class="st1" d="M404.9,288.4c-0.3-0.2-0.6-0.5-0.7-0.9c-0.2-0.4-0.3-0.8-0.3-1.4s0.1-1,0.3-1.4c0.2-0.4,0.4-0.7,0.7-0.9
			c0.3-0.2,0.7-0.3,1.1-0.3s0.8,0.1,1.1,0.3c0.3,0.2,0.6,0.5,0.7,0.9c0.2,0.4,0.3,0.8,0.3,1.4s-0.1,1-0.3,1.4
			c-0.2,0.4-0.4,0.7-0.7,0.9c-0.3,0.2-0.7,0.3-1.1,0.3S405.2,288.6,404.9,288.4z M406.7,287.4c0.2-0.3,0.3-0.7,0.3-1.2
			c0-0.5-0.1-0.9-0.3-1.2c-0.2-0.3-0.4-0.4-0.7-0.4c-0.3,0-0.5,0.1-0.7,0.4c-0.2,0.3-0.3,0.7-0.3,1.2c0,0.5,0.1,0.9,0.3,1.2
			c0.2,0.3,0.4,0.4,0.7,0.4C406.3,287.8,406.5,287.6,406.7,287.4z"/>
		<path class="st1" d="M410.5,283.7v4.9h-1.1v-4h-1v-0.9H410.5z"/>
		<path class="st1" d="M415.8,287.6H415v1h-1.1v-1h-2.6v-0.8l2.3-3.1h1.2l-2.1,2.9h1.3v-0.9h1.1v0.9h0.8V287.6z"/>
		<path class="st1" d="M415.9,290c0.3-0.5,0.5-1,0.6-1.6s0.2-1.1,0.2-1.7s-0.1-1.2-0.2-1.7s-0.4-1.1-0.6-1.6h1
			c0.3,0.4,0.5,0.9,0.7,1.5c0.2,0.6,0.2,1.2,0.2,1.8s-0.1,1.2-0.2,1.8s-0.4,1-0.7,1.5H415.9z"/>
	</g>
	<g class="st0">
		<path class="st1" d="M461.5,275.3h2.2c0.5,0,1,0.1,1.4,0.3s0.7,0.5,1,0.9c0.2,0.4,0.3,0.8,0.3,1.3s-0.1,0.9-0.3,1.3
			c-0.2,0.4-0.5,0.7-1,0.9s-0.9,0.3-1.4,0.3h-2.2V275.3z M463.7,279.3c0.5,0,0.9-0.1,1.2-0.4c0.3-0.3,0.4-0.6,0.4-1.1
			s-0.1-0.8-0.4-1.1c-0.3-0.3-0.7-0.4-1.2-0.4h-1v3H463.7z"/>
		<path class="st1" d="M467.3,275.3h1.1v4.9h-1.1V275.3z"/>
		<path class="st1" d="M469.6,275.3h1.1v4h2.5v0.9h-3.6V275.3z"/>
		<path class="st1" d="M478.3,280.2l0-2.9l-1.4,2.4h-0.5l-1.4-2.4v2.9h-1.1v-4.9h0.9l1.8,3l1.8-3h0.9l0,4.9H478.3z"/>
		<path class="st1" d="M483.7,279.2h-2.3l-0.4,1h-1.2l2.2-4.9h1.1l2.2,4.9h-1.2L483.7,279.2z M483.4,278.3l-0.8-1.9l-0.8,1.9H483.4z
			"/>
		<path class="st1" d="M487.6,274.3h1l-2.3,6.6h-1L487.6,274.3z"/>
		<path class="st1" d="M492.1,275.5c0.3,0.1,0.6,0.3,0.7,0.6c0.2,0.3,0.3,0.6,0.3,0.9c0,0.4-0.1,0.7-0.3,0.9s-0.4,0.5-0.7,0.6
			c-0.3,0.1-0.7,0.2-1.1,0.2h-1v1.4h-1.1v-4.9h2.1C491.4,275.3,491.8,275.4,492.1,275.5z M491.7,277.7c0.2-0.1,0.3-0.4,0.3-0.6
			c0-0.3-0.1-0.5-0.3-0.6c-0.2-0.1-0.4-0.2-0.8-0.2H490v1.7h0.9C491.2,278,491.5,277.9,491.7,277.7z"/>
		<path class="st1" d="M494.8,276.3h-1.6v-0.9h4.3v0.9h-1.6v4h-1.1V276.3z"/>
	</g>
	<g class="st0">
		<path class="st1" d="M460.4,288.5c-0.2-0.6-0.2-1.2-0.2-1.8s0.1-1.2,0.2-1.8s0.4-1.1,0.6-1.5h1c-0.3,0.5-0.5,1-0.6,1.6
			c-0.1,0.5-0.2,1.1-0.2,1.7s0.1,1.2,0.2,1.7c0.1,0.5,0.3,1.1,0.6,1.6h-1C460.8,289.6,460.5,289.1,460.4,288.5z"/>
		<path class="st1" d="M466.1,287.7v0.9h-3.7v-0.7l1.9-1.8c0.2-0.2,0.3-0.4,0.4-0.5c0.1-0.1,0.1-0.3,0.1-0.4c0-0.2-0.1-0.3-0.2-0.5
			c-0.1-0.1-0.3-0.2-0.6-0.2c-0.2,0-0.4,0-0.6,0.1c-0.2,0.1-0.3,0.2-0.4,0.4l-0.8-0.5c0.2-0.3,0.5-0.5,0.8-0.7s0.7-0.2,1.2-0.2
			c0.4,0,0.7,0.1,1,0.2c0.3,0.1,0.5,0.3,0.6,0.5c0.2,0.2,0.2,0.5,0.2,0.8c0,0.3-0.1,0.5-0.2,0.7c-0.1,0.2-0.3,0.5-0.7,0.8l-1.1,1.1
			H466.1z"/>
		<path class="st1" d="M467.6,288.4c-0.3-0.2-0.6-0.5-0.7-0.9c-0.2-0.4-0.3-0.8-0.3-1.4s0.1-1,0.3-1.4c0.2-0.4,0.4-0.7,0.7-0.9
			c0.3-0.2,0.7-0.3,1.1-0.3s0.8,0.1,1.1,0.3c0.3,0.2,0.6,0.5,0.7,0.9c0.2,0.4,0.3,0.8,0.3,1.4s-0.1,1-0.3,1.4
			c-0.2,0.4-0.4,0.7-0.7,0.9c-0.3,0.2-0.7,0.3-1.1,0.3S467.9,288.6,467.6,288.4z M469.3,287.4c0.2-0.3,0.3-0.7,0.3-1.2
			c0-0.5-0.1-0.9-0.3-1.2c-0.2-0.3-0.4-0.4-0.7-0.4c-0.3,0-0.5,0.1-0.7,0.4c-0.2,0.3-0.3,0.7-0.3,1.2c0,0.5,0.1,0.9,0.3,1.2
			c0.2,0.3,0.4,0.4,0.7,0.4C468.9,287.8,469.2,287.6,469.3,287.4z"/>
		<path class="st1" d="M473.1,283.7v4.9H472v-4h-1v-0.9H473.1z"/>
		<path class="st1" d="M477.2,286c0.3,0.3,0.5,0.6,0.5,1.1c0,0.3-0.1,0.6-0.2,0.8s-0.4,0.4-0.7,0.6c-0.3,0.1-0.7,0.2-1.1,0.2
			c-0.3,0-0.7,0-1-0.1c-0.3-0.1-0.6-0.2-0.9-0.4l0.4-0.9c0.2,0.1,0.4,0.2,0.6,0.3c0.2,0.1,0.5,0.1,0.7,0.1c0.3,0,0.5-0.1,0.7-0.2
			s0.2-0.3,0.2-0.5c0-0.2-0.1-0.4-0.3-0.5c-0.2-0.1-0.5-0.2-0.9-0.2h-1.3l0.3-2.8h3v0.9h-2l-0.1,0.9h0.4
			C476.4,285.6,476.9,285.7,477.2,286z"/>
		<path class="st1" d="M478.2,286.2h2v0.9h-2V286.2z"/>
		<path class="st1" d="M484.4,287.7v0.9h-3.7v-0.7l1.9-1.8c0.2-0.2,0.3-0.4,0.4-0.5s0.1-0.3,0.1-0.4c0-0.2-0.1-0.3-0.2-0.5
			c-0.1-0.1-0.3-0.2-0.6-0.2c-0.2,0-0.4,0-0.6,0.1c-0.2,0.1-0.3,0.2-0.4,0.4l-0.8-0.5c0.2-0.3,0.5-0.5,0.8-0.7s0.7-0.2,1.2-0.2
			c0.4,0,0.7,0.1,1,0.2c0.3,0.1,0.5,0.3,0.6,0.5c0.2,0.2,0.2,0.5,0.2,0.8c0,0.3-0.1,0.5-0.2,0.7c-0.1,0.2-0.3,0.5-0.7,0.8l-1.1,1.1
			H484.4z"/>
		<path class="st1" d="M485.9,288.4c-0.3-0.2-0.6-0.5-0.7-0.9c-0.2-0.4-0.3-0.8-0.3-1.4s0.1-1,0.3-1.4c0.2-0.4,0.4-0.7,0.7-0.9
			c0.3-0.2,0.7-0.3,1.1-0.3s0.8,0.1,1.1,0.3c0.3,0.2,0.6,0.5,0.7,0.9c0.2,0.4,0.3,0.8,0.3,1.4s-0.1,1-0.3,1.4
			c-0.2,0.4-0.4,0.7-0.7,0.9c-0.3,0.2-0.7,0.3-1.1,0.3S486.2,288.6,485.9,288.4z M487.7,287.4c0.2-0.3,0.3-0.7,0.3-1.2
			c0-0.5-0.1-0.9-0.3-1.2c-0.2-0.3-0.4-0.4-0.7-0.4c-0.3,0-0.5,0.1-0.7,0.4c-0.2,0.3-0.3,0.7-0.3,1.2c0,0.5,0.1,0.9,0.3,1.2
			c0.2,0.3,0.4,0.4,0.7,0.4C487.3,287.8,487.5,287.6,487.7,287.4z"/>
		<path class="st1" d="M491.5,283.7v4.9h-1.1v-4h-1v-0.9H491.5z"/>
		<path class="st1" d="M495.5,285.7c0.3,0.1,0.5,0.3,0.6,0.5c0.1,0.2,0.2,0.5,0.2,0.8c0,0.3-0.1,0.6-0.2,0.9
			c-0.2,0.2-0.4,0.4-0.7,0.6s-0.6,0.2-0.9,0.2c-0.7,0-1.2-0.2-1.6-0.6c-0.4-0.4-0.6-1-0.6-1.8c0-0.6,0.1-1,0.3-1.4
			c0.2-0.4,0.5-0.7,0.9-0.9c0.4-0.2,0.8-0.3,1.3-0.3c0.3,0,0.5,0,0.8,0.1s0.4,0.1,0.6,0.2l-0.4,0.8c-0.2-0.2-0.5-0.2-0.9-0.2
			c-0.4,0-0.7,0.1-1,0.4c-0.2,0.2-0.4,0.6-0.4,1.1c0.3-0.3,0.7-0.4,1.2-0.4C495,285.6,495.3,285.6,495.5,285.7z M495,287.7
			c0.2-0.1,0.2-0.3,0.2-0.5c0-0.2-0.1-0.4-0.2-0.5s-0.4-0.2-0.6-0.2c-0.2,0-0.5,0.1-0.6,0.2c-0.2,0.1-0.2,0.3-0.2,0.5
			s0.1,0.4,0.2,0.5c0.2,0.1,0.4,0.2,0.6,0.2C494.7,287.9,494.9,287.8,495,287.7z"/>
		<path class="st1" d="M496.6,290c0.3-0.5,0.5-1,0.6-1.6s0.2-1.1,0.2-1.7s-0.1-1.2-0.2-1.7s-0.4-1.1-0.6-1.6h1
			c0.3,0.4,0.5,0.9,0.7,1.5c0.2,0.6,0.2,1.2,0.2,1.8s-0.1,1.2-0.2,1.8s-0.4,1-0.7,1.5H496.6z"/>
	</g>
	<g class="st0">
		<path class="st1" d="M535.4,276.3h-1.6v-0.9h4.3v0.9h-1.6v4h-1.1V276.3z"/>
		<path class="st1" d="M542.5,279.3v0.9h-3.8v-4.9h3.7v0.9h-2.6v1.1h2.3v0.9h-2.3v1.1H542.5z"/>
		<path class="st1" d="M547.8,280.2l0-2.9l-1.4,2.4h-0.5l-1.4-2.4v2.9h-1.1v-4.9h0.9l1.8,3l1.8-3h0.9l0,4.9H547.8z"/>
		<path class="st1" d="M553.9,279.3v0.9h-3.8v-4.9h3.7v0.9h-2.6v1.1h2.3v0.9h-2.3v1.1H553.9z"/>
		<path class="st1" d="M557.9,280.2l-0.9-1.4h-0.1h-1v1.4h-1.1v-4.9h2.1c0.4,0,0.8,0.1,1.1,0.2s0.6,0.3,0.7,0.6
			c0.2,0.3,0.3,0.6,0.3,0.9s-0.1,0.7-0.3,0.9s-0.4,0.5-0.7,0.6l1.1,1.6H557.9z M557.6,276.5c-0.2-0.1-0.4-0.2-0.8-0.2h-0.9v1.7h0.9
			c0.3,0,0.6-0.1,0.8-0.2c0.2-0.1,0.3-0.4,0.3-0.6C557.9,276.8,557.8,276.6,557.6,276.5z"/>
		<path class="st1" d="M561.4,274.3h1l-2.3,6.6h-1L561.4,274.3z"/>
		<path class="st1" d="M565.9,275.5c0.3,0.1,0.6,0.3,0.7,0.6c0.2,0.3,0.3,0.6,0.3,0.9c0,0.4-0.1,0.7-0.3,0.9
			c-0.2,0.3-0.4,0.5-0.7,0.6s-0.7,0.2-1.1,0.2h-1v1.4h-1.1v-4.9h2.1C565.2,275.3,565.6,275.4,565.9,275.5z M565.5,277.7
			c0.2-0.1,0.3-0.4,0.3-0.6c0-0.3-0.1-0.5-0.3-0.6c-0.2-0.1-0.4-0.2-0.8-0.2h-0.9v1.7h0.9C565.1,278,565.3,277.9,565.5,277.7z"/>
		<path class="st1" d="M572.2,280.2l0-2.9l-1.4,2.4h-0.5l-1.4-2.4v2.9h-1.1v-4.9h0.9l1.8,3l1.8-3h0.9l0,4.9H572.2z"/>
		<path class="st1" d="M574.4,275.3h2.2c0.5,0,1,0.1,1.4,0.3c0.4,0.2,0.7,0.5,1,0.9c0.2,0.4,0.3,0.8,0.3,1.3s-0.1,0.9-0.3,1.3
			c-0.2,0.4-0.5,0.7-1,0.9c-0.4,0.2-0.9,0.3-1.4,0.3h-2.2V275.3z M576.6,279.3c0.5,0,0.9-0.1,1.2-0.4c0.3-0.3,0.4-0.6,0.4-1.1
			s-0.1-0.8-0.4-1.1c-0.3-0.3-0.7-0.4-1.2-0.4h-1v3H576.6z"/>
		<path class="st1" d="M584.4,278.1c0.2,0.2,0.2,0.5,0.2,0.8c0,0.4-0.2,0.8-0.5,1c-0.3,0.2-0.8,0.3-1.5,0.3h-2.5v-4.9h2.4
			c0.6,0,1.1,0.1,1.4,0.3s0.5,0.5,0.5,0.9c0,0.2-0.1,0.5-0.2,0.6c-0.1,0.2-0.3,0.3-0.5,0.4C584.1,277.8,584.3,277.9,584.4,278.1z
			 M581.3,276.2v1.2h1.1c0.3,0,0.5,0,0.6-0.1c0.1-0.1,0.2-0.2,0.2-0.4s-0.1-0.3-0.2-0.4c-0.1-0.1-0.4-0.1-0.6-0.1H581.3z
			 M583.3,279.2c0.2-0.1,0.2-0.2,0.2-0.5c0-0.4-0.3-0.6-0.9-0.6h-1.3v1.2h1.3C582.9,279.4,583.1,279.3,583.3,279.2z"/>
	</g>
	<g class="st0">
		<path class="st1" d="M548,288.5c-0.2-0.6-0.2-1.2-0.2-1.8s0.1-1.2,0.2-1.8c0.2-0.6,0.4-1.1,0.6-1.5h1c-0.3,0.5-0.5,1-0.6,1.6
			s-0.2,1.1-0.2,1.7s0.1,1.2,0.2,1.7s0.3,1.1,0.6,1.6h-1C548.4,289.6,548.2,289.1,548,288.5z"/>
		<path class="st1" d="M553.7,287.7v0.9H550v-0.7l1.9-1.8c0.2-0.2,0.3-0.4,0.4-0.5s0.1-0.3,0.1-0.4c0-0.2-0.1-0.3-0.2-0.5
			c-0.1-0.1-0.3-0.2-0.6-0.2c-0.2,0-0.4,0-0.6,0.1c-0.2,0.1-0.3,0.2-0.4,0.4l-0.8-0.5c0.2-0.3,0.5-0.5,0.8-0.7s0.7-0.2,1.2-0.2
			c0.4,0,0.7,0.1,1,0.2c0.3,0.1,0.5,0.3,0.6,0.5c0.2,0.2,0.2,0.5,0.2,0.8c0,0.3-0.1,0.5-0.2,0.7c-0.1,0.2-0.3,0.5-0.7,0.8l-1.1,1.1
			H553.7z"/>
		<path class="st1" d="M555.2,288.4c-0.3-0.2-0.6-0.5-0.7-0.9c-0.2-0.4-0.3-0.8-0.3-1.4s0.1-1,0.3-1.4c0.2-0.4,0.4-0.7,0.7-0.9
			c0.3-0.2,0.7-0.3,1.1-0.3c0.4,0,0.8,0.1,1.1,0.3c0.3,0.2,0.6,0.5,0.7,0.9c0.2,0.4,0.3,0.8,0.3,1.4s-0.1,1-0.3,1.4
			c-0.2,0.4-0.4,0.7-0.7,0.9c-0.3,0.2-0.7,0.3-1.1,0.3C555.9,288.7,555.5,288.6,555.2,288.4z M557,287.4c0.2-0.3,0.3-0.7,0.3-1.2
			c0-0.5-0.1-0.9-0.3-1.2s-0.4-0.4-0.7-0.4c-0.3,0-0.5,0.1-0.7,0.4c-0.2,0.3-0.3,0.7-0.3,1.2c0,0.5,0.1,0.9,0.3,1.2
			c0.2,0.3,0.4,0.4,0.7,0.4C556.6,287.8,556.8,287.6,557,287.4z"/>
		<path class="st1" d="M560.8,283.7v4.9h-1.1v-4h-1v-0.9H560.8z"/>
		<path class="st1" d="M564.8,285.7c0.3,0.1,0.5,0.3,0.6,0.5c0.1,0.2,0.2,0.5,0.2,0.8c0,0.3-0.1,0.6-0.2,0.9
			c-0.2,0.2-0.4,0.4-0.7,0.6s-0.6,0.2-0.9,0.2c-0.7,0-1.2-0.2-1.6-0.6c-0.4-0.4-0.6-1-0.6-1.8c0-0.6,0.1-1,0.3-1.4
			c0.2-0.4,0.5-0.7,0.9-0.9c0.4-0.2,0.8-0.3,1.3-0.3c0.3,0,0.5,0,0.8,0.1s0.4,0.1,0.6,0.2l-0.4,0.8c-0.2-0.2-0.5-0.2-0.9-0.2
			c-0.4,0-0.7,0.1-1,0.4c-0.2,0.2-0.4,0.6-0.4,1.1c0.3-0.3,0.7-0.4,1.2-0.4C564.3,285.6,564.6,285.6,564.8,285.7z M564.3,287.7
			c0.2-0.1,0.2-0.3,0.2-0.5c0-0.2-0.1-0.4-0.2-0.5s-0.4-0.2-0.6-0.2c-0.2,0-0.5,0.1-0.6,0.2c-0.2,0.1-0.2,0.3-0.2,0.5
			s0.1,0.4,0.2,0.5c0.2,0.1,0.4,0.2,0.6,0.2C564,287.9,564.2,287.8,564.3,287.7z"/>
		<path class="st1" d="M566.2,286.2h2v0.9h-2V286.2z"/>
		<path class="st1" d="M568.6,290c0.3-0.5,0.5-1,0.6-1.6s0.2-1.1,0.2-1.7s-0.1-1.2-0.2-1.7s-0.4-1.1-0.6-1.6h1
			c0.3,0.4,0.5,0.9,0.7,1.5s0.2,1.2,0.2,1.8s-0.1,1.2-0.2,1.8s-0.4,1-0.7,1.5H568.6z"/>
	</g>
</g>
</svg>
