<?xml version="1.0" encoding="utf-8"?>
<!-- Generator: Adobe Illustrator 23.1.1, SVG Export Plug-In . SVG Version: 6.00 Build 0)  -->
<svg version="1.1" id="Camada_1" xmlns="http://www.w3.org/2000/svg" xmlns:xlink="http://www.w3.org/1999/xlink" x="0px" y="0px"
	 viewBox="0 0 288.8 277.7" style="enable-background:new 0 0 288.8 277.7;" xml:space="preserve">
<style type="text/css">
	.st0{fill:#666666;}
	.st1{opacity:0.5;fill:none;stroke:#CCCCCC;stroke-width:0.75;stroke-miterlimit:10;}
	.st2{fill:#6BA151;}
	.st3{fill:#F1B143;}
	.st4{fill:#FF941C;}
	.st5{fill:#01AA2C;}
	.st6{fill:#FFFFFF;}
</style>
<g id="Layer_1">
</g>
<g>
	<g>
		<path class="st0" d="M39.3,12.3h3.2c0.8,0,1.4,0.1,2,0.4c0.6,0.3,1,0.7,1.4,1.2c0.3,0.5,0.5,1.1,0.5,1.8c0,0.7-0.2,1.3-0.5,1.8
			c-0.3,0.5-0.8,0.9-1.4,1.2c-0.6,0.3-1.2,0.4-2,0.4h-3.2V12.3z M42.5,17.6c0.6,0,1.1-0.2,1.4-0.5s0.5-0.8,0.5-1.4
			c0-0.6-0.2-1-0.5-1.4s-0.8-0.5-1.4-0.5h-1.2v3.8H42.5z"/>
		<path class="st0" d="M47.2,12.3h1.9v6.9h-1.9V12.3z"/>
		<path class="st0" d="M51,19.1c-0.5-0.1-0.9-0.3-1.3-0.5l0.6-1.4c0.3,0.2,0.7,0.4,1.1,0.5s0.8,0.2,1.2,0.2c0.7,0,1.1-0.2,1.1-0.6
			c0-0.2-0.1-0.3-0.3-0.4c-0.2-0.1-0.6-0.2-1-0.3c-0.5-0.1-0.9-0.2-1.3-0.4c-0.3-0.1-0.6-0.3-0.9-0.6c-0.2-0.3-0.4-0.7-0.4-1.1
			c0-0.4,0.1-0.8,0.3-1.1s0.6-0.6,1-0.8c0.5-0.2,1-0.3,1.7-0.3c0.5,0,0.9,0.1,1.3,0.2c0.4,0.1,0.8,0.2,1.2,0.4l-0.6,1.4
			c-0.7-0.4-1.3-0.5-1.9-0.5c-0.4,0-0.7,0.1-0.8,0.2s-0.3,0.3-0.3,0.4s0.1,0.3,0.3,0.4c0.2,0.1,0.5,0.2,1,0.3c0.5,0.1,1,0.2,1.3,0.4
			c0.3,0.1,0.6,0.3,0.9,0.6c0.3,0.3,0.4,0.7,0.4,1.1c0,0.4-0.1,0.8-0.3,1.1s-0.6,0.6-1,0.8c-0.5,0.2-1,0.3-1.7,0.3
			C52.1,19.3,51.6,19.2,51,19.1z"/>
		<path class="st0" d="M57.7,13.9h-2.1v-1.5h6.1v1.5h-2.1v5.3h-1.9V13.9z"/>
		<path class="st0" d="M65.2,17.4h-1.1v1.8h-1.9v-6.9h3.1c0.6,0,1.2,0.1,1.6,0.3c0.5,0.2,0.8,0.5,1.1,0.9c0.2,0.4,0.4,0.8,0.4,1.3
			c0,0.5-0.1,0.9-0.3,1.3c-0.2,0.4-0.6,0.7-1,0.9l1.5,2.2h-2.1L65.2,17.4z M66.1,14.1c-0.2-0.2-0.5-0.3-0.9-0.3h-1.1v2h1.1
			c0.4,0,0.7-0.1,0.9-0.3c0.2-0.2,0.3-0.4,0.3-0.7C66.4,14.5,66.3,14.3,66.1,14.1z"/>
		<path class="st0" d="M69.2,12.3h1.9v6.9h-1.9V12.3z"/>
		<path class="st0" d="M78.5,16.2c0.2,0.3,0.3,0.6,0.3,1.1c0,0.6-0.2,1.1-0.7,1.4c-0.5,0.3-1.2,0.5-2.1,0.5h-3.7v-6.9h3.5
			c0.9,0,1.5,0.2,2,0.5c0.5,0.3,0.7,0.8,0.7,1.3c0,0.3-0.1,0.6-0.2,0.9c-0.2,0.3-0.4,0.5-0.7,0.6C78,15.7,78.3,16,78.5,16.2z
			 M74.2,13.7V15h1.3c0.7,0,1-0.2,1-0.7c0-0.4-0.3-0.7-1-0.7H74.2z M76.9,17.1c0-0.5-0.3-0.7-1-0.7h-1.6v1.4h1.6
			C76.5,17.8,76.9,17.5,76.9,17.1z"/>
		<path class="st0" d="M80.4,18.5c-0.6-0.6-0.8-1.3-0.8-2.4v-3.8h1.9v3.7c0,1.1,0.4,1.6,1.3,1.6c0.9,0,1.3-0.5,1.3-1.6v-3.7H86v3.8
			c0,1-0.3,1.8-0.8,2.4s-1.4,0.8-2.4,0.8C81.7,19.3,80.9,19,80.4,18.5z"/>
		<path class="st0" d="M87,12.3H89v6.9H87V12.3z"/>
		<path class="st0" d="M91.6,18.9c-0.6-0.3-1-0.7-1.3-1.3s-0.5-1.2-0.5-1.8c0-0.7,0.2-1.3,0.5-1.8c0.3-0.5,0.8-1,1.3-1.3
			c0.6-0.3,1.2-0.5,1.9-0.5c0.6,0,1.2,0.1,1.7,0.3c0.5,0.2,0.9,0.5,1.3,1l-1.2,1.1c-0.4-0.5-1-0.8-1.6-0.8c-0.4,0-0.7,0.1-1,0.2
			c-0.3,0.2-0.5,0.4-0.7,0.7c-0.2,0.3-0.2,0.6-0.2,1c0,0.4,0.1,0.7,0.2,1c0.2,0.3,0.4,0.5,0.7,0.7c0.3,0.2,0.6,0.2,1,0.2
			c0.6,0,1.2-0.3,1.6-0.8l1.2,1.1c-0.3,0.4-0.8,0.7-1.3,1c-0.5,0.2-1.1,0.3-1.7,0.3C92.8,19.3,92.2,19.2,91.6,18.9z M92.4,21.4
			c-0.2,0-0.3-0.1-0.4-0.1l0.3-0.7c0.2,0.1,0.4,0.1,0.6,0.1c0.3,0,0.5-0.1,0.5-0.3c0-0.2-0.1-0.2-0.4-0.2h-0.4l0.3-1.1h1l-0.1,0.6
			c0.3,0,0.5,0.1,0.6,0.3s0.2,0.3,0.2,0.5c0,0.3-0.1,0.6-0.4,0.7c-0.3,0.2-0.7,0.3-1.1,0.3C92.8,21.5,92.6,21.5,92.4,21.4z"/>
		<path class="st0" d="M101.6,17.8h-2.9l-0.5,1.3h-2l3-6.9h1.9l3,6.9h-2L101.6,17.8z M100.4,11.7c-0.1-0.1-0.3-0.2-0.5-0.3
			c-0.1-0.1-0.2-0.1-0.3-0.2c-0.1,0-0.1,0-0.2,0c-0.1,0-0.2,0-0.3,0.1c-0.1,0.1-0.1,0.2-0.1,0.4h-0.9c0-0.5,0.1-0.9,0.4-1.1
			s0.5-0.4,0.9-0.4c0.2,0,0.3,0,0.5,0.1s0.3,0.2,0.5,0.3c0.1,0.1,0.2,0.1,0.3,0.2c0.1,0,0.1,0,0.2,0c0.1,0,0.2,0,0.3-0.1
			c0.1-0.1,0.1-0.2,0.1-0.4h0.9c0,0.5-0.1,0.8-0.4,1.1s-0.5,0.4-0.9,0.4C100.7,11.8,100.6,11.8,100.4,11.7z M101,16.4l-0.9-2.2
			l-0.9,2.2H101z"/>
		<path class="st0" d="M105.8,18.9c-0.6-0.3-1-0.7-1.4-1.3c-0.3-0.5-0.5-1.2-0.5-1.8c0-0.7,0.2-1.3,0.5-1.8c0.3-0.5,0.8-1,1.4-1.3
			c0.6-0.3,1.2-0.5,2-0.5c0.7,0,1.4,0.2,2,0.5c0.6,0.3,1,0.7,1.4,1.3c0.3,0.5,0.5,1.2,0.5,1.8c0,0.7-0.2,1.3-0.5,1.8
			c-0.3,0.5-0.8,1-1.4,1.3s-1.2,0.5-2,0.5C107.1,19.3,106.4,19.2,105.8,18.9z M108.7,17.5c0.3-0.2,0.5-0.4,0.7-0.7
			c0.2-0.3,0.2-0.6,0.2-1c0-0.4-0.1-0.7-0.2-1c-0.2-0.3-0.4-0.5-0.7-0.7c-0.3-0.2-0.6-0.2-0.9-0.2c-0.3,0-0.7,0.1-0.9,0.2
			c-0.3,0.2-0.5,0.4-0.7,0.7c-0.2,0.3-0.2,0.6-0.2,1c0,0.4,0.1,0.7,0.2,1c0.2,0.3,0.4,0.5,0.7,0.7c0.3,0.2,0.6,0.2,0.9,0.2
			C108.1,17.7,108.4,17.6,108.7,17.5z"/>
		<path class="st0" d="M119.7,12.6c0.5,0.2,0.8,0.5,1.1,0.9c0.2,0.4,0.4,0.8,0.4,1.3c0,0.5-0.1,1-0.4,1.3c-0.2,0.4-0.6,0.7-1.1,0.9
			c-0.5,0.2-1,0.3-1.6,0.3h-1.2v1.8H115v-6.9h3.1C118.7,12.3,119.3,12.4,119.7,12.6z M118.9,15.6c0.2-0.2,0.3-0.4,0.3-0.7
			c0-0.3-0.1-0.6-0.3-0.7c-0.2-0.2-0.5-0.3-0.9-0.3h-1.1v2h1.1C118.4,15.9,118.7,15.8,118.9,15.6z"/>
		<path class="st0" d="M127.4,17.7v1.5h-5.5v-6.9h5.4v1.5h-3.5V15h3v1.4h-3v1.3H127.4z"/>
		<path class="st0" d="M131.2,17.4h-1.1v1.8h-1.9v-6.9h3.1c0.6,0,1.2,0.1,1.6,0.3c0.5,0.2,0.8,0.5,1.1,0.9c0.2,0.4,0.4,0.8,0.4,1.3
			c0,0.5-0.1,0.9-0.3,1.3c-0.2,0.4-0.6,0.7-1,0.9l1.5,2.2h-2.1L131.2,17.4z M132.1,14.1c-0.2-0.2-0.5-0.3-0.9-0.3h-1.1v2h1.1
			c0.4,0,0.7-0.1,0.9-0.3c0.2-0.2,0.3-0.4,0.3-0.7C132.4,14.5,132.3,14.3,132.1,14.1z"/>
		<path class="st0" d="M136.7,18.9c-0.6-0.3-1-0.7-1.3-1.3s-0.5-1.2-0.5-1.8c0-0.7,0.2-1.3,0.5-1.8c0.3-0.5,0.8-1,1.3-1.3
			c0.6-0.3,1.2-0.5,1.9-0.5c0.6,0,1.2,0.1,1.7,0.3c0.5,0.2,0.9,0.5,1.3,1l-1.2,1.1c-0.4-0.5-1-0.8-1.6-0.8c-0.4,0-0.7,0.1-1,0.2
			c-0.3,0.2-0.5,0.4-0.7,0.7c-0.2,0.3-0.2,0.6-0.2,1c0,0.4,0.1,0.7,0.2,1c0.2,0.3,0.4,0.5,0.7,0.7c0.3,0.2,0.6,0.2,1,0.2
			c0.6,0,1.2-0.3,1.6-0.8l1.2,1.1c-0.3,0.4-0.8,0.7-1.3,1c-0.5,0.2-1.1,0.3-1.7,0.3C137.9,19.3,137.3,19.2,136.7,18.9z"/>
		<path class="st0" d="M147.7,17.7v1.5h-5.5v-6.9h5.4v1.5h-3.5V15h3v1.4h-3v1.3H147.7z"/>
		<path class="st0" d="M150,13.9h-2.1v-1.5h6.1v1.5h-2.1v5.3H150V13.9z"/>
		<path class="st0" d="M155.2,18.5c-0.6-0.6-0.8-1.3-0.8-2.4v-3.8h1.9v3.7c0,1.1,0.4,1.6,1.3,1.6c0.9,0,1.3-0.5,1.3-1.6v-3.7h1.9
			v3.8c0,1-0.3,1.8-0.8,2.4s-1.4,0.8-2.4,0.8C156.5,19.3,155.7,19,155.2,18.5z"/>
		<path class="st0" d="M166.3,17.8h-2.9l-0.5,1.3h-2l3-6.9h1.9l3,6.9h-2L166.3,17.8z M165.7,16.4l-0.9-2.2l-0.9,2.2H165.7z"/>
		<path class="st0" d="M169.2,12.3h1.9v5.3h3.3v1.5h-5.2V12.3z"/>
		<path class="st0" d="M177.5,12.3h3.2c0.8,0,1.4,0.1,2,0.4s1,0.7,1.4,1.2c0.3,0.5,0.5,1.1,0.5,1.8c0,0.7-0.2,1.3-0.5,1.8
			c-0.3,0.5-0.8,0.9-1.4,1.2c-0.6,0.3-1.2,0.4-2,0.4h-3.2V12.3z M180.7,17.6c0.6,0,1.1-0.2,1.4-0.5c0.4-0.3,0.5-0.8,0.5-1.4
			c0-0.6-0.2-1-0.5-1.4c-0.4-0.3-0.8-0.5-1.4-0.5h-1.2v3.8H180.7z"/>
		<path class="st0" d="M189.8,17.8h-2.9l-0.5,1.3h-2l3-6.9h1.9l3,6.9h-2L189.8,17.8z M189.3,16.4l-0.9-2.2l-0.9,2.2H189.3z"/>
		<path class="st0" d="M193.5,19.1c-0.5-0.1-0.9-0.3-1.3-0.5l0.6-1.4c0.3,0.2,0.7,0.4,1.1,0.5s0.8,0.2,1.2,0.2
			c0.7,0,1.1-0.2,1.1-0.6c0-0.2-0.1-0.3-0.3-0.4c-0.2-0.1-0.6-0.2-1-0.3c-0.5-0.1-0.9-0.2-1.3-0.4c-0.3-0.1-0.6-0.3-0.9-0.6
			s-0.4-0.7-0.4-1.1c0-0.4,0.1-0.8,0.3-1.1s0.6-0.6,1-0.8c0.5-0.2,1-0.3,1.7-0.3c0.5,0,0.9,0.1,1.3,0.2c0.4,0.1,0.8,0.2,1.2,0.4
			l-0.6,1.4c-0.7-0.4-1.3-0.5-1.9-0.5c-0.4,0-0.7,0.1-0.8,0.2s-0.3,0.3-0.3,0.4s0.1,0.3,0.3,0.4c0.2,0.1,0.5,0.2,1,0.3
			c0.5,0.1,1,0.2,1.3,0.4c0.3,0.1,0.6,0.3,0.9,0.6c0.3,0.3,0.4,0.7,0.4,1.1c0,0.4-0.1,0.8-0.3,1.1c-0.2,0.3-0.6,0.6-1,0.8
			s-1,0.3-1.7,0.3C194.5,19.3,194,19.2,193.5,19.1z"/>
		<path class="st0" d="M206.1,12.6c0.5,0.2,0.8,0.5,1.1,0.9c0.2,0.4,0.4,0.8,0.4,1.3c0,0.5-0.1,1-0.4,1.3c-0.2,0.4-0.6,0.7-1.1,0.9
			c-0.5,0.2-1,0.3-1.6,0.3h-1.2v1.8h-1.9v-6.9h3.1C205.1,12.3,205.7,12.4,206.1,12.6z M205.3,15.6c0.2-0.2,0.3-0.4,0.3-0.7
			c0-0.3-0.1-0.6-0.3-0.7c-0.2-0.2-0.5-0.3-0.9-0.3h-1.1v2h1.1C204.8,15.9,205.1,15.8,205.3,15.6z"/>
		<path class="st0" d="M213.8,17.7v1.5h-5.5v-6.9h5.4v1.5h-3.5V15h3v1.4h-3v1.3H213.8z"/>
		<path class="st0" d="M215.4,19.1c-0.5-0.1-0.9-0.3-1.3-0.5l0.6-1.4c0.3,0.2,0.7,0.4,1.1,0.5s0.8,0.2,1.2,0.2
			c0.7,0,1.1-0.2,1.1-0.6c0-0.2-0.1-0.3-0.3-0.4c-0.2-0.1-0.6-0.2-1-0.3c-0.5-0.1-0.9-0.2-1.3-0.4c-0.3-0.1-0.6-0.3-0.9-0.6
			s-0.4-0.7-0.4-1.1c0-0.4,0.1-0.8,0.3-1.1s0.6-0.6,1-0.8c0.5-0.2,1-0.3,1.7-0.3c0.5,0,0.9,0.1,1.3,0.2c0.4,0.1,0.8,0.2,1.2,0.4
			l-0.6,1.4c-0.7-0.4-1.3-0.5-1.9-0.5c-0.4,0-0.7,0.1-0.8,0.2s-0.3,0.3-0.3,0.4s0.1,0.3,0.3,0.4c0.2,0.1,0.5,0.2,1,0.3
			c0.5,0.1,1,0.2,1.3,0.4c0.3,0.1,0.6,0.3,0.9,0.6c0.3,0.3,0.4,0.7,0.4,1.1c0,0.4-0.1,0.8-0.3,1.1c-0.2,0.3-0.6,0.6-1,0.8
			s-1,0.3-1.7,0.3C216.5,19.3,215.9,19.2,215.4,19.1z"/>
		<path class="st0" d="M221.5,19.1c-0.5-0.1-0.9-0.3-1.3-0.5l0.6-1.4c0.3,0.2,0.7,0.4,1.1,0.5s0.8,0.2,1.2,0.2
			c0.7,0,1.1-0.2,1.1-0.6c0-0.2-0.1-0.3-0.3-0.4c-0.2-0.1-0.6-0.2-1-0.3c-0.5-0.1-0.9-0.2-1.3-0.4c-0.3-0.1-0.6-0.3-0.9-0.6
			s-0.4-0.7-0.4-1.1c0-0.4,0.1-0.8,0.3-1.1s0.6-0.6,1-0.8c0.5-0.2,1-0.3,1.7-0.3c0.5,0,0.9,0.1,1.3,0.2c0.4,0.1,0.8,0.2,1.2,0.4
			l-0.6,1.4c-0.7-0.4-1.3-0.5-1.9-0.5c-0.4,0-0.7,0.1-0.8,0.2s-0.3,0.3-0.3,0.4s0.1,0.3,0.3,0.4c0.2,0.1,0.5,0.2,1,0.3
			c0.5,0.1,1,0.2,1.3,0.4c0.3,0.1,0.6,0.3,0.9,0.6c0.3,0.3,0.4,0.7,0.4,1.1c0,0.4-0.1,0.8-0.3,1.1c-0.2,0.3-0.6,0.6-1,0.8
			s-1,0.3-1.7,0.3C222.6,19.3,222,19.2,221.5,19.1z"/>
		<path class="st0" d="M228.3,18.9c-0.6-0.3-1-0.7-1.4-1.3c-0.3-0.5-0.5-1.2-0.5-1.8c0-0.7,0.2-1.3,0.5-1.8c0.3-0.5,0.8-1,1.4-1.3
			c0.6-0.3,1.2-0.5,2-0.5c0.7,0,1.4,0.2,2,0.5c0.6,0.3,1,0.7,1.4,1.3c0.3,0.5,0.5,1.2,0.5,1.8c0,0.7-0.2,1.3-0.5,1.8s-0.8,1-1.4,1.3
			c-0.6,0.3-1.2,0.5-2,0.5C229.5,19.3,228.9,19.2,228.3,18.9z M231.2,17.5c0.3-0.2,0.5-0.4,0.7-0.7c0.2-0.3,0.2-0.6,0.2-1
			c0-0.4-0.1-0.7-0.2-1c-0.2-0.3-0.4-0.5-0.7-0.7c-0.3-0.2-0.6-0.2-0.9-0.2c-0.3,0-0.7,0.1-0.9,0.2c-0.3,0.2-0.5,0.4-0.7,0.7
			c-0.2,0.3-0.2,0.6-0.2,1c0,0.4,0.1,0.7,0.2,1c0.2,0.3,0.4,0.5,0.7,0.7c0.3,0.2,0.6,0.2,0.9,0.2C230.6,17.7,230.9,17.6,231.2,17.5z
			"/>
		<path class="st0" d="M239.3,17.8h-2.9l-0.5,1.3h-2l3-6.9h1.9l3,6.9h-2L239.3,17.8z M238.8,16.4l-0.9-2.2l-0.9,2.2H238.8z"/>
		<path class="st0" d="M243,19.1c-0.5-0.1-0.9-0.3-1.3-0.5l0.6-1.4c0.3,0.2,0.7,0.4,1.1,0.5s0.8,0.2,1.2,0.2c0.7,0,1.1-0.2,1.1-0.6
			c0-0.2-0.1-0.3-0.3-0.4c-0.2-0.1-0.6-0.2-1-0.3c-0.5-0.1-0.9-0.2-1.3-0.4c-0.3-0.1-0.6-0.3-0.9-0.6s-0.4-0.7-0.4-1.1
			c0-0.4,0.1-0.8,0.3-1.1s0.6-0.6,1-0.8c0.5-0.2,1-0.3,1.7-0.3c0.5,0,0.9,0.1,1.3,0.2c0.4,0.1,0.8,0.2,1.2,0.4l-0.6,1.4
			c-0.7-0.4-1.3-0.5-1.9-0.5c-0.4,0-0.7,0.1-0.8,0.2s-0.3,0.3-0.3,0.4s0.1,0.3,0.3,0.4c0.2,0.1,0.5,0.2,1,0.3c0.5,0.1,1,0.2,1.3,0.4
			c0.3,0.1,0.6,0.3,0.9,0.6c0.3,0.3,0.4,0.7,0.4,1.1c0,0.4-0.1,0.8-0.3,1.1c-0.2,0.3-0.6,0.6-1,0.8s-1,0.3-1.7,0.3
			C244,19.3,243.5,19.2,243,19.1z"/>
		<path class="st0" d="M34.8,26.5h1.9v6.9h-1.9V26.5z"/>
		<path class="st0" d="M44.4,26.5v6.9h-1.6l-3-3.7v3.7h-1.9v-6.9h1.6l3,3.7v-3.7H44.4z"/>
		<path class="st0" d="M45.5,26.5h3.2c0.8,0,1.4,0.1,2,0.4c0.6,0.3,1,0.7,1.4,1.2c0.3,0.5,0.5,1.1,0.5,1.8s-0.2,1.3-0.5,1.8
			c-0.3,0.5-0.8,0.9-1.4,1.2c-0.6,0.3-1.2,0.4-2,0.4h-3.2V26.5z M48.7,31.8c0.6,0,1.1-0.2,1.4-0.5s0.5-0.8,0.5-1.4s-0.2-1-0.5-1.4
			s-0.8-0.5-1.4-0.5h-1.2v3.8H48.7z"/>
		<path class="st0" d="M53.3,26.5h1.9v6.9h-1.9V26.5z M54.7,24.5h1.9L54.7,26h-1.3L54.7,24.5z"/>
		<path class="st0" d="M61,29.8h1.7v2.8c-0.4,0.3-0.8,0.5-1.4,0.6c-0.5,0.2-1,0.2-1.5,0.2c-0.7,0-1.4-0.2-1.9-0.5s-1-0.7-1.4-1.3
			s-0.5-1.2-0.5-1.8s0.2-1.3,0.5-1.8c0.3-0.5,0.8-1,1.4-1.3c0.6-0.3,1.2-0.5,2-0.5c0.6,0,1.2,0.1,1.7,0.3c0.5,0.2,0.9,0.5,1.3,0.9
			l-1.2,1.1c-0.5-0.5-1-0.8-1.7-0.8c-0.6,0-1.1,0.2-1.4,0.5S58,29.4,58,30c0,0.4,0.1,0.7,0.2,1c0.2,0.3,0.4,0.5,0.7,0.7
			s0.6,0.2,1,0.2c0.4,0,0.7-0.1,1-0.2V29.8z"/>
		<path class="st0" d="M69.2,31.9v1.5h-5.5v-6.9h5.4V28h-3.5v1.2h3v1.4h-3v1.3H69.2z"/>
		<path class="st0" d="M76.6,26.5v6.9H75l-3-3.7v3.7h-1.9v-6.9h1.6l3,3.7v-3.7H76.6z"/>
		<path class="st0" d="M82.3,32h-2.9l-0.5,1.3h-2l3-6.9h1.9l3,6.9h-2L82.3,32z M81.7,30.6l-0.9-2.2L80,30.6H81.7z"/>
		<path class="st0" d="M86,33.3c-0.5-0.1-0.9-0.3-1.3-0.5l0.6-1.4c0.3,0.2,0.7,0.4,1.1,0.5s0.8,0.2,1.2,0.2c0.7,0,1.1-0.2,1.1-0.6
			c0-0.2-0.1-0.3-0.3-0.4c-0.2-0.1-0.6-0.2-1-0.3c-0.5-0.1-0.9-0.2-1.3-0.4c-0.3-0.1-0.6-0.3-0.9-0.6c-0.2-0.3-0.4-0.7-0.4-1.1
			c0-0.4,0.1-0.8,0.3-1.1s0.6-0.6,1-0.8c0.5-0.2,1-0.3,1.7-0.3c0.5,0,0.9,0.1,1.3,0.2c0.4,0.1,0.8,0.2,1.2,0.4l-0.6,1.4
			c-0.7-0.4-1.3-0.5-1.9-0.5c-0.4,0-0.7,0.1-0.8,0.2s-0.3,0.3-0.3,0.4s0.1,0.3,0.3,0.4c0.2,0.1,0.5,0.2,1,0.3c0.5,0.1,1,0.2,1.3,0.4
			c0.3,0.1,0.6,0.3,0.9,0.6c0.3,0.3,0.4,0.7,0.4,1.1c0,0.4-0.1,0.8-0.3,1.1s-0.6,0.6-1,0.8c-0.5,0.2-1,0.3-1.7,0.3
			C87,33.5,86.5,33.5,86,33.3z"/>
		<path class="st0" d="M93.9,26.5h3.2c0.8,0,1.4,0.1,2,0.4c0.6,0.3,1,0.7,1.4,1.2c0.3,0.5,0.5,1.1,0.5,1.8s-0.2,1.3-0.5,1.8
			c-0.3,0.5-0.8,0.9-1.4,1.2c-0.6,0.3-1.2,0.4-2,0.4h-3.2V26.5z M97,31.8c0.6,0,1.1-0.2,1.4-0.5S99,30.5,99,30s-0.2-1-0.5-1.4
			s-0.8-0.5-1.4-0.5h-1.2v3.8H97z"/>
		<path class="st0" d="M107.2,31.9v1.5h-5.5v-6.9h5.4V28h-3.5v1.2h3v1.4h-3v1.3H107.2z"/>
		<path class="st0" d="M113.2,26.5v6.9h-1.9V28H110v-1.5H113.2z"/>
		<path class="st0" d="M118.7,29.6c0.5,0.4,0.7,0.9,0.7,1.6c0,0.4-0.1,0.8-0.3,1.2c-0.2,0.4-0.6,0.6-1,0.9c-0.4,0.2-1,0.3-1.7,0.3
			c-0.5,0-1-0.1-1.4-0.2s-0.9-0.3-1.2-0.5l0.7-1.5c0.3,0.2,0.6,0.3,0.9,0.4c0.3,0.1,0.7,0.1,1,0.1s0.6-0.1,0.8-0.2
			c0.2-0.1,0.3-0.3,0.3-0.5c0-0.2-0.1-0.4-0.3-0.5c-0.2-0.1-0.5-0.2-1-0.2h-1.9l0.3-4h4.4V28h-2.8l-0.1,1h0.5
			C117.5,29,118.3,29.2,118.7,29.6z"/>
		<path class="st0" d="M127.3,32h-2.9l-0.5,1.3h-2l3-6.9h1.9l3,6.9h-2L127.3,32z M126.7,30.6l-0.9-2.2l-0.9,2.2H126.7z"/>
		<path class="st0" d="M136.7,26.5v6.9h-1.6l-3-3.7v3.7h-1.9v-6.9h1.6l3,3.7v-3.7H136.7z"/>
		<path class="st0" d="M139.3,33.1c-0.6-0.3-1-0.7-1.4-1.3c-0.3-0.5-0.5-1.2-0.5-1.8s0.2-1.3,0.5-1.8c0.3-0.5,0.8-1,1.4-1.3
			c0.6-0.3,1.2-0.5,2-0.5c0.7,0,1.4,0.2,2,0.5c0.6,0.3,1,0.7,1.4,1.3c0.3,0.5,0.5,1.2,0.5,1.8s-0.2,1.3-0.5,1.8
			c-0.3,0.5-0.8,1-1.4,1.3s-1.2,0.5-2,0.5C140.5,33.5,139.9,33.4,139.3,33.1z M142.2,31.7c0.3-0.2,0.5-0.4,0.7-0.7
			c0.2-0.3,0.2-0.6,0.2-1s-0.1-0.7-0.2-1c-0.2-0.3-0.4-0.5-0.7-0.7c-0.3-0.2-0.6-0.2-0.9-0.2c-0.3,0-0.7,0.1-0.9,0.2
			c-0.3,0.2-0.5,0.4-0.7,0.7c-0.2,0.3-0.2,0.6-0.2,1s0.1,0.7,0.2,1c0.2,0.3,0.4,0.5,0.7,0.7c0.3,0.2,0.6,0.2,0.9,0.2
			C141.6,31.9,141.9,31.8,142.2,31.7z"/>
		<path class="st0" d="M146.6,33.3c-0.5-0.1-0.9-0.3-1.3-0.5l0.6-1.4c0.3,0.2,0.7,0.4,1.1,0.5s0.8,0.2,1.2,0.2
			c0.7,0,1.1-0.2,1.1-0.6c0-0.2-0.1-0.3-0.3-0.4c-0.2-0.1-0.6-0.2-1-0.3c-0.5-0.1-0.9-0.2-1.3-0.4c-0.3-0.1-0.6-0.3-0.9-0.6
			c-0.2-0.3-0.4-0.7-0.4-1.1c0-0.4,0.1-0.8,0.3-1.1s0.6-0.6,1-0.8c0.5-0.2,1-0.3,1.7-0.3c0.5,0,0.9,0.1,1.3,0.2
			c0.4,0.1,0.8,0.2,1.2,0.4l-0.6,1.4c-0.7-0.4-1.3-0.5-1.9-0.5c-0.4,0-0.7,0.1-0.8,0.2s-0.3,0.3-0.3,0.4s0.1,0.3,0.3,0.4
			c0.2,0.1,0.5,0.2,1,0.3c0.5,0.1,1,0.2,1.3,0.4c0.3,0.1,0.6,0.3,0.9,0.6c0.3,0.3,0.4,0.7,0.4,1.1c0,0.4-0.1,0.8-0.3,1.1
			s-0.6,0.6-1,0.8c-0.5,0.2-1,0.3-1.7,0.3C147.7,33.5,147.1,33.5,146.6,33.3z"/>
		<path class="st0" d="M156,33.1c-0.6-0.3-1-0.7-1.4-1.3c-0.3-0.5-0.5-1.2-0.5-1.8s0.2-1.3,0.5-1.8c0.3-0.5,0.8-1,1.4-1.3
			c0.6-0.3,1.2-0.5,2-0.5c0.7,0,1.4,0.2,2,0.5c0.6,0.3,1,0.7,1.4,1.3c0.3,0.5,0.5,1.2,0.5,1.8s-0.2,1.3-0.5,1.8
			c-0.3,0.5-0.8,1-1.4,1.3s-1.2,0.5-2,0.5C157.3,33.5,156.6,33.4,156,33.1z M158.9,31.7c0.3-0.2,0.5-0.4,0.7-0.7
			c0.2-0.3,0.2-0.6,0.2-1s-0.1-0.7-0.2-1c-0.2-0.3-0.4-0.5-0.7-0.7c-0.3-0.2-0.6-0.2-0.9-0.2c-0.3,0-0.7,0.1-0.9,0.2
			c-0.3,0.2-0.5,0.4-0.7,0.7c-0.2,0.3-0.2,0.6-0.2,1s0.1,0.7,0.2,1c0.2,0.3,0.4,0.5,0.7,0.7c0.3,0.2,0.6,0.2,0.9,0.2
			C158.3,31.9,158.6,31.8,158.9,31.7z"/>
		<path class="st0" d="M163.4,32.7c-0.6-0.6-0.8-1.3-0.8-2.4v-3.8h1.9v3.7c0,1.1,0.4,1.6,1.3,1.6c0.9,0,1.3-0.5,1.3-1.6v-3.7h1.9
			v3.8c0,1-0.3,1.8-0.8,2.4s-1.4,0.8-2.4,0.8C164.7,33.5,163.9,33.2,163.4,32.7z"/>
		<path class="st0" d="M178.8,33.4l0-3.6l-1.8,3h-0.9l-1.8-2.9v3.5h-1.8v-6.9h1.6l2.4,4l2.4-4h1.6l0,6.9H178.8z"/>
		<path class="st0" d="M186.3,32h-2.9l-0.5,1.3h-2l3-6.9h1.9l3,6.9h-2L186.3,32z M185.8,30.6l-0.9-2.2l-0.9,2.2H185.8z"/>
		<path class="st0" d="M189.2,26.5h1.9v6.9h-1.9V26.5z"/>
		<path class="st0" d="M193.1,33.3c-0.5-0.1-0.9-0.3-1.3-0.5l0.6-1.4c0.3,0.2,0.7,0.4,1.1,0.5s0.8,0.2,1.2,0.2
			c0.7,0,1.1-0.2,1.1-0.6c0-0.2-0.1-0.3-0.3-0.4c-0.2-0.1-0.6-0.2-1-0.3c-0.5-0.1-0.9-0.2-1.3-0.4c-0.3-0.1-0.6-0.3-0.9-0.6
			s-0.4-0.7-0.4-1.1c0-0.4,0.1-0.8,0.3-1.1s0.6-0.6,1-0.8c0.5-0.2,1-0.3,1.7-0.3c0.5,0,0.9,0.1,1.3,0.2c0.4,0.1,0.8,0.2,1.2,0.4
			l-0.6,1.4c-0.7-0.4-1.3-0.5-1.9-0.5c-0.4,0-0.7,0.1-0.8,0.2s-0.3,0.3-0.3,0.4s0.1,0.3,0.3,0.4c0.2,0.1,0.5,0.2,1,0.3
			c0.5,0.1,1,0.2,1.3,0.4c0.3,0.1,0.6,0.3,0.9,0.6c0.3,0.3,0.4,0.7,0.4,1.1c0,0.4-0.1,0.8-0.3,1.1c-0.2,0.3-0.6,0.6-1,0.8
			s-1,0.3-1.7,0.3C194.1,33.5,193.6,33.5,193.1,33.3z"/>
		<path class="st0" d="M201,26.5h3.2c0.8,0,1.4,0.1,2,0.4s1,0.7,1.4,1.2c0.3,0.5,0.5,1.1,0.5,1.8s-0.2,1.3-0.5,1.8
			c-0.3,0.5-0.8,0.9-1.4,1.2c-0.6,0.3-1.2,0.4-2,0.4H201V26.5z M204.1,31.8c0.6,0,1.1-0.2,1.4-0.5c0.4-0.3,0.5-0.8,0.5-1.4
			s-0.2-1-0.5-1.4c-0.4-0.3-0.8-0.5-1.4-0.5h-1.2v3.8H204.1z"/>
		<path class="st0" d="M214.3,31.9v1.5h-5.5v-6.9h5.4V28h-3.5v1.2h3v1.4h-3v1.3H214.3z"/>
		<path class="st0" d="M217.7,26.5h1.9v6.9h-1.9V26.5z"/>
		<path class="st0" d="M220.8,26.5h3.2c0.8,0,1.4,0.1,2,0.4s1,0.7,1.4,1.2c0.3,0.5,0.5,1.1,0.5,1.8s-0.2,1.3-0.5,1.8
			c-0.3,0.5-0.8,0.9-1.4,1.2c-0.6,0.3-1.2,0.4-2,0.4h-3.2V26.5z M224,31.8c0.6,0,1.1-0.2,1.4-0.5c0.4-0.3,0.5-0.8,0.5-1.4
			s-0.2-1-0.5-1.4c-0.4-0.3-0.8-0.5-1.4-0.5h-1.2v3.8H224z"/>
		<path class="st0" d="M233.2,32h-2.9l-0.5,1.3h-2l3-6.9h1.9l3,6.9h-2L233.2,32z M232.6,30.6l-0.9-2.2l-0.9,2.2H232.6z"/>
		<path class="st0" d="M236,26.5h3.2c0.8,0,1.4,0.1,2,0.4s1,0.7,1.4,1.2c0.3,0.5,0.5,1.1,0.5,1.8s-0.2,1.3-0.5,1.8
			c-0.3,0.5-0.8,0.9-1.4,1.2c-0.6,0.3-1.2,0.4-2,0.4H236V26.5z M239.2,31.8c0.6,0,1.1-0.2,1.4-0.5c0.4-0.3,0.5-0.8,0.5-1.4
			s-0.2-1-0.5-1.4c-0.4-0.3-0.8-0.5-1.4-0.5H238v3.8H239.2z"/>
		<path class="st0" d="M249.4,31.9v1.5h-5.5v-6.9h5.4V28h-3.5v1.2h3v1.4h-3v1.3H249.4z"/>
		<path class="st0" d="M251.8,31.6c0.2,0.2,0.3,0.5,0.3,0.8c0,0.2,0,0.3-0.1,0.5c0,0.2-0.1,0.4-0.3,0.7l-0.6,1.4H250l0.5-1.6
			c-0.2-0.1-0.3-0.2-0.4-0.4c-0.1-0.2-0.2-0.4-0.2-0.6c0-0.3,0.1-0.6,0.3-0.8c0.2-0.2,0.5-0.3,0.8-0.3
			C251.3,31.3,251.6,31.4,251.8,31.6z"/>
		<path class="st0" d="M63.1,41c0.5,0.2,0.8,0.5,1.1,0.9c0.2,0.4,0.4,0.8,0.4,1.3c0,0.5-0.1,1-0.4,1.3c-0.2,0.4-0.6,0.7-1.1,0.9
			c-0.5,0.2-1,0.3-1.6,0.3h-1.2v1.8h-1.9v-6.9h3.1C62.1,40.7,62.6,40.8,63.1,41z M62.3,44c0.2-0.2,0.3-0.4,0.3-0.7
			c0-0.3-0.1-0.6-0.3-0.7c-0.2-0.2-0.5-0.3-0.9-0.3h-1.1v2h1.1C61.8,44.3,62.1,44.2,62.3,44z"/>
		<path class="st0" d="M66.8,47.3c-0.6-0.3-1-0.7-1.4-1.3c-0.3-0.5-0.5-1.2-0.5-1.8s0.2-1.3,0.5-1.8c0.3-0.5,0.8-1,1.4-1.3
			c0.6-0.3,1.2-0.5,2-0.5c0.7,0,1.4,0.2,2,0.5c0.6,0.3,1,0.7,1.4,1.3c0.3,0.5,0.5,1.2,0.5,1.8s-0.2,1.3-0.5,1.8
			c-0.3,0.5-0.8,1-1.4,1.3s-1.2,0.5-2,0.5C68,47.7,67.4,47.6,66.8,47.3z M69.7,45.9c0.3-0.2,0.5-0.4,0.7-0.7c0.2-0.3,0.2-0.6,0.2-1
			s-0.1-0.7-0.2-1c-0.2-0.3-0.4-0.5-0.7-0.7c-0.3-0.2-0.6-0.2-0.9-0.2c-0.3,0-0.7,0.1-0.9,0.2c-0.3,0.2-0.5,0.4-0.7,0.7
			c-0.2,0.3-0.2,0.6-0.2,1s0.1,0.7,0.2,1c0.2,0.3,0.4,0.5,0.7,0.7c0.3,0.2,0.6,0.2,0.9,0.2C69.1,46.1,69.4,46,69.7,45.9z"/>
		<path class="st0" d="M76.4,45.8h-1.1v1.8h-1.9v-6.9h3.1c0.6,0,1.2,0.1,1.6,0.3c0.5,0.2,0.8,0.5,1.1,0.9c0.2,0.4,0.4,0.8,0.4,1.3
			c0,0.5-0.1,0.9-0.3,1.3c-0.2,0.4-0.6,0.7-1,0.9l1.5,2.2h-2.1L76.4,45.8z M77.3,42.5c-0.2-0.2-0.5-0.3-0.9-0.3h-1.1v2h1.1
			c0.4,0,0.7-0.1,0.9-0.3c0.2-0.2,0.3-0.4,0.3-0.7C77.6,42.9,77.5,42.7,77.3,42.5z"/>
		<path class="st0" d="M83,40.7h1.9V46h3.3v1.5H83V40.7z"/>
		<path class="st0" d="M90.1,47.3c-0.6-0.3-1-0.7-1.4-1.3c-0.3-0.5-0.5-1.2-0.5-1.8s0.2-1.3,0.5-1.8c0.3-0.5,0.8-1,1.4-1.3
			c0.6-0.3,1.2-0.5,2-0.5c0.7,0,1.4,0.2,2,0.5c0.6,0.3,1,0.7,1.4,1.3c0.3,0.5,0.5,1.2,0.5,1.8s-0.2,1.3-0.5,1.8
			c-0.3,0.5-0.8,1-1.4,1.3s-1.2,0.5-2,0.5C91.3,47.7,90.7,47.6,90.1,47.3z M93,45.9c0.3-0.2,0.5-0.4,0.7-0.7c0.2-0.3,0.2-0.6,0.2-1
			s-0.1-0.7-0.2-1c-0.2-0.3-0.4-0.5-0.7-0.7c-0.3-0.2-0.6-0.2-0.9-0.2c-0.3,0-0.7,0.1-0.9,0.2c-0.3,0.2-0.5,0.4-0.7,0.7
			c-0.2,0.3-0.2,0.6-0.2,1s0.1,0.7,0.2,1c0.2,0.3,0.4,0.5,0.7,0.7c0.3,0.2,0.6,0.2,0.9,0.2C92.4,46.1,92.7,46,93,45.9z"/>
		<path class="st0" d="M98.1,47.3c-0.6-0.3-1-0.7-1.3-1.3s-0.5-1.2-0.5-1.8s0.2-1.3,0.5-1.8c0.3-0.5,0.8-1,1.3-1.3
			c0.6-0.3,1.2-0.5,1.9-0.5c0.6,0,1.2,0.1,1.7,0.3c0.5,0.2,0.9,0.5,1.3,1l-1.2,1.1c-0.4-0.5-1-0.8-1.6-0.8c-0.4,0-0.7,0.1-1,0.2
			c-0.3,0.2-0.5,0.4-0.7,0.7c-0.2,0.3-0.2,0.6-0.2,1s0.1,0.7,0.2,1c0.2,0.3,0.4,0.5,0.7,0.7c0.3,0.2,0.6,0.2,1,0.2
			c0.6,0,1.2-0.3,1.6-0.8l1.2,1.1c-0.3,0.4-0.8,0.7-1.3,1c-0.5,0.2-1.1,0.3-1.7,0.3C99.3,47.7,98.7,47.6,98.1,47.3z"/>
		<path class="st0" d="M108.1,46.3h-2.9l-0.5,1.3h-2l3-6.9h1.9l3,6.9h-2L108.1,46.3z M107.5,44.8l-0.9-2.2l-0.9,2.2H107.5z"/>
		<path class="st0" d="M111,40.7h1.9V46h3.3v1.5H111V40.7z"/>
		<path class="st0" d="M116.7,40.7h1.9v6.9h-1.9V40.7z"/>
		<path class="st0" d="M125.6,46v1.5h-6.1v-1.2l3.5-4.1h-3.4v-1.5h5.9v1.2L122,46H125.6z"/>
		<path class="st0" d="M130.8,46.3h-2.9l-0.5,1.3h-2l3-6.9h1.9l3,6.9h-2L130.8,46.3z M130.2,44.8l-0.9-2.2l-0.9,2.2H130.2z"/>
		<path class="st0" d="M135,47.3c-0.6-0.3-1-0.7-1.3-1.3s-0.5-1.2-0.5-1.8s0.2-1.3,0.5-1.8c0.3-0.5,0.8-1,1.3-1.3
			c0.6-0.3,1.2-0.5,1.9-0.5c0.6,0,1.2,0.1,1.7,0.3c0.5,0.2,0.9,0.5,1.3,1l-1.2,1.1c-0.4-0.5-1-0.8-1.6-0.8c-0.4,0-0.7,0.1-1,0.2
			c-0.3,0.2-0.5,0.4-0.7,0.7c-0.2,0.3-0.2,0.6-0.2,1s0.1,0.7,0.2,1c0.2,0.3,0.4,0.5,0.7,0.7c0.3,0.2,0.6,0.2,1,0.2
			c0.6,0,1.2-0.3,1.6-0.8l1.2,1.1c-0.3,0.4-0.8,0.7-1.3,1c-0.5,0.2-1.1,0.3-1.7,0.3C136.2,47.7,135.6,47.6,135,47.3z M135.8,49.8
			c-0.2,0-0.3-0.1-0.4-0.1l0.3-0.7c0.2,0.1,0.4,0.1,0.6,0.1c0.3,0,0.5-0.1,0.5-0.3c0-0.2-0.1-0.2-0.4-0.2H136l0.3-1.1h1l-0.1,0.6
			c0.3,0,0.5,0.1,0.6,0.3s0.2,0.3,0.2,0.5c0,0.3-0.1,0.6-0.4,0.7c-0.3,0.2-0.7,0.3-1.1,0.3C136.2,49.9,136,49.9,135.8,49.8z"/>
		<path class="st0" d="M145,46.3h-2.9l-0.5,1.3h-2l3-6.9h1.9l3,6.9h-2L145,46.3z M143.8,40.1c-0.1-0.1-0.3-0.2-0.5-0.3
			c-0.1-0.1-0.2-0.1-0.3-0.2c-0.1,0-0.1,0-0.2,0c-0.1,0-0.2,0-0.3,0.1c-0.1,0.1-0.1,0.2-0.1,0.4h-0.9c0-0.5,0.1-0.9,0.4-1.1
			s0.5-0.4,0.9-0.4c0.2,0,0.3,0,0.5,0.1s0.3,0.2,0.5,0.3c0.1,0.1,0.2,0.1,0.3,0.2c0.1,0,0.1,0,0.2,0c0.1,0,0.2,0,0.3-0.1
			c0.1-0.1,0.1-0.2,0.1-0.4h0.9c0,0.5-0.1,0.8-0.4,1.1s-0.5,0.4-0.9,0.4C144.1,40.2,144,40.2,143.8,40.1z M144.4,44.8l-0.9-2.2
			l-0.9,2.2H144.4z"/>
		<path class="st0" d="M149.3,47.3c-0.6-0.3-1-0.7-1.4-1.3c-0.3-0.5-0.5-1.2-0.5-1.8s0.2-1.3,0.5-1.8c0.3-0.5,0.8-1,1.4-1.3
			c0.6-0.3,1.2-0.5,2-0.5c0.7,0,1.4,0.2,2,0.5c0.6,0.3,1,0.7,1.4,1.3c0.3,0.5,0.5,1.2,0.5,1.8s-0.2,1.3-0.5,1.8
			c-0.3,0.5-0.8,1-1.4,1.3s-1.2,0.5-2,0.5C150.5,47.7,149.8,47.6,149.3,47.3z M152.1,45.9c0.3-0.2,0.5-0.4,0.7-0.7
			c0.2-0.3,0.2-0.6,0.2-1s-0.1-0.7-0.2-1c-0.2-0.3-0.4-0.5-0.7-0.7c-0.3-0.2-0.6-0.2-0.9-0.2c-0.3,0-0.7,0.1-0.9,0.2
			c-0.3,0.2-0.5,0.4-0.7,0.7c-0.2,0.3-0.2,0.6-0.2,1s0.1,0.7,0.2,1c0.2,0.3,0.4,0.5,0.7,0.7c0.3,0.2,0.6,0.2,0.9,0.2
			C151.6,46.1,151.9,46,152.1,45.9z"/>
		<path class="st0" d="M158.4,40.7h3.2c0.8,0,1.4,0.1,2,0.4c0.6,0.3,1,0.7,1.4,1.2c0.3,0.5,0.5,1.1,0.5,1.8s-0.2,1.3-0.5,1.8
			c-0.3,0.5-0.8,0.9-1.4,1.2c-0.6,0.3-1.2,0.4-2,0.4h-3.2V40.7z M161.6,46c0.6,0,1.1-0.2,1.4-0.5s0.5-0.8,0.5-1.4s-0.2-1-0.5-1.4
			s-0.8-0.5-1.4-0.5h-1.2V46H161.6z"/>
		<path class="st0" d="M167.7,47.3c-0.6-0.3-1-0.7-1.4-1.3c-0.3-0.5-0.5-1.2-0.5-1.8s0.2-1.3,0.5-1.8c0.3-0.5,0.8-1,1.4-1.3
			c0.6-0.3,1.2-0.5,2-0.5c0.7,0,1.4,0.2,2,0.5c0.6,0.3,1,0.7,1.4,1.3c0.3,0.5,0.5,1.2,0.5,1.8s-0.2,1.3-0.5,1.8
			c-0.3,0.5-0.8,1-1.4,1.3s-1.2,0.5-2,0.5C169,47.7,168.3,47.6,167.7,47.3z M170.6,45.9c0.3-0.2,0.5-0.4,0.7-0.7
			c0.2-0.3,0.2-0.6,0.2-1s-0.1-0.7-0.2-1c-0.2-0.3-0.4-0.5-0.7-0.7c-0.3-0.2-0.6-0.2-0.9-0.2c-0.3,0-0.7,0.1-0.9,0.2
			c-0.3,0.2-0.5,0.4-0.7,0.7c-0.2,0.3-0.2,0.6-0.2,1s0.1,0.7,0.2,1c0.2,0.3,0.4,0.5,0.7,0.7c0.3,0.2,0.6,0.2,0.9,0.2
			C170,46.1,170.4,46,170.6,45.9z"/>
		<path class="st0" d="M176.9,40.7h3.2c0.8,0,1.4,0.1,2,0.4s1,0.7,1.4,1.2c0.3,0.5,0.5,1.1,0.5,1.8s-0.2,1.3-0.5,1.8
			c-0.3,0.5-0.8,0.9-1.4,1.2c-0.6,0.3-1.2,0.4-2,0.4h-3.2V40.7z M180.1,46c0.6,0,1.1-0.2,1.4-0.5c0.4-0.3,0.5-0.8,0.5-1.4
			s-0.2-1-0.5-1.4c-0.4-0.3-0.8-0.5-1.4-0.5h-1.2V46H180.1z"/>
		<path class="st0" d="M186.2,47.3c-0.6-0.3-1-0.7-1.4-1.3c-0.3-0.5-0.5-1.2-0.5-1.8s0.2-1.3,0.5-1.8c0.3-0.5,0.8-1,1.4-1.3
			c0.6-0.3,1.2-0.5,2-0.5c0.7,0,1.4,0.2,2,0.5c0.6,0.3,1,0.7,1.4,1.3c0.3,0.5,0.5,1.2,0.5,1.8s-0.2,1.3-0.5,1.8s-0.8,1-1.4,1.3
			c-0.6,0.3-1.2,0.5-2,0.5C187.5,47.7,186.8,47.6,186.2,47.3z M189.1,45.9c0.3-0.2,0.5-0.4,0.7-0.7c0.2-0.3,0.2-0.6,0.2-1
			s-0.1-0.7-0.2-1c-0.2-0.3-0.4-0.5-0.7-0.7c-0.3-0.2-0.6-0.2-0.9-0.2c-0.3,0-0.7,0.1-0.9,0.2c-0.3,0.2-0.5,0.4-0.7,0.7
			c-0.2,0.3-0.2,0.6-0.2,1s0.1,0.7,0.2,1c0.2,0.3,0.4,0.5,0.7,0.7c0.3,0.2,0.6,0.2,0.9,0.2C188.5,46.1,188.9,46,189.1,45.9z"/>
		<path class="st0" d="M199,47.6l0-3.6l-1.8,3h-0.9l-1.8-2.9v3.5h-1.8v-6.9h1.6l2.4,4l2.4-4h1.6l0,6.9H199z"/>
		<path class="st0" d="M201.9,40.7h1.9v6.9h-1.9V40.7z"/>
		<path class="st0" d="M206.4,47.3c-0.6-0.3-1-0.7-1.3-1.3c-0.3-0.5-0.5-1.2-0.5-1.8s0.2-1.3,0.5-1.8c0.3-0.5,0.8-1,1.3-1.3
			s1.2-0.5,1.9-0.5c0.6,0,1.2,0.1,1.7,0.3c0.5,0.2,0.9,0.5,1.3,1l-1.2,1.1c-0.4-0.5-1-0.8-1.6-0.8c-0.4,0-0.7,0.1-1,0.2
			c-0.3,0.2-0.5,0.4-0.7,0.7c-0.2,0.3-0.2,0.6-0.2,1s0.1,0.7,0.2,1c0.2,0.3,0.4,0.5,0.7,0.7c0.3,0.2,0.6,0.2,1,0.2
			c0.6,0,1.2-0.3,1.6-0.8l1.2,1.1c-0.3,0.4-0.8,0.7-1.3,1c-0.5,0.2-1.1,0.3-1.7,0.3C207.7,47.7,207,47.6,206.4,47.3z"/>
		<path class="st0" d="M211.9,40.7h1.9v6.9h-1.9V40.7z M213.3,38.7h1.9l-1.8,1.5H212L213.3,38.7z"/>
		<path class="st0" d="M215,40.7h1.9V46h3.3v1.5H215V40.7z"/>
		<path class="st0" d="M220.7,40.7h1.9v6.9h-1.9V40.7z"/>
		<path class="st0" d="M225.3,47.3c-0.6-0.3-1-0.7-1.4-1.3c-0.3-0.5-0.5-1.2-0.5-1.8s0.2-1.3,0.5-1.8c0.3-0.5,0.8-1,1.4-1.3
			c0.6-0.3,1.2-0.5,2-0.5c0.7,0,1.4,0.2,2,0.5c0.6,0.3,1,0.7,1.4,1.3c0.3,0.5,0.5,1.2,0.5,1.8s-0.2,1.3-0.5,1.8s-0.8,1-1.4,1.3
			c-0.6,0.3-1.2,0.5-2,0.5C226.6,47.7,225.9,47.6,225.3,47.3z M228.2,45.9c0.3-0.2,0.5-0.4,0.7-0.7c0.2-0.3,0.2-0.6,0.2-1
			s-0.1-0.7-0.2-1c-0.2-0.3-0.4-0.5-0.7-0.7c-0.3-0.2-0.6-0.2-0.9-0.2c-0.3,0-0.7,0.1-0.9,0.2c-0.3,0.2-0.5,0.4-0.7,0.7
			c-0.2,0.3-0.2,0.6-0.2,1s0.1,0.7,0.2,1c0.2,0.3,0.4,0.5,0.7,0.7c0.3,0.2,0.6,0.2,0.9,0.2C227.6,46.1,227.9,46,228.2,45.9z"/>
		<path class="st0" d="M37.9,61.7c-0.5-0.1-0.9-0.3-1.3-0.5l0.6-1.4c0.3,0.2,0.7,0.4,1.1,0.5s0.8,0.2,1.2,0.2c0.7,0,1.1-0.2,1.1-0.6
			c0-0.2-0.1-0.3-0.3-0.4c-0.2-0.1-0.6-0.2-1-0.3c-0.5-0.1-0.9-0.2-1.3-0.4c-0.3-0.1-0.6-0.3-0.9-0.6c-0.2-0.3-0.4-0.7-0.4-1.1
			c0-0.4,0.1-0.8,0.3-1.1s0.6-0.6,1-0.8c0.5-0.2,1-0.3,1.7-0.3c0.5,0,0.9,0.1,1.3,0.2c0.4,0.1,0.8,0.2,1.2,0.4l-0.6,1.4
			c-0.7-0.4-1.3-0.5-1.9-0.5c-0.4,0-0.7,0.1-0.8,0.2s-0.3,0.3-0.3,0.4s0.1,0.3,0.3,0.4c0.2,0.1,0.5,0.2,1,0.3c0.5,0.1,1,0.2,1.3,0.4
			c0.3,0.1,0.6,0.3,0.9,0.6c0.3,0.3,0.4,0.7,0.4,1.1c0,0.4-0.1,0.8-0.3,1.1s-0.6,0.6-1,0.8c-0.5,0.2-1,0.3-1.7,0.3
			C39,61.9,38.4,61.9,37.9,61.7z"/>
		<path class="st0" d="M48.7,60.3v1.5h-5.5v-6.9h5.4v1.5h-3.5v1.2h3V59h-3v1.3H48.7z"/>
		<path class="st0" d="M54.1,58.2h1.7v2.8c-0.4,0.3-0.8,0.5-1.4,0.6c-0.5,0.2-1,0.2-1.5,0.2c-0.7,0-1.4-0.2-1.9-0.5s-1-0.7-1.4-1.3
			s-0.5-1.2-0.5-1.8s0.2-1.3,0.5-1.8c0.3-0.5,0.8-1,1.4-1.3c0.6-0.3,1.2-0.5,2-0.5c0.6,0,1.2,0.1,1.7,0.3c0.5,0.2,0.9,0.5,1.3,0.9
			l-1.2,1.1c-0.5-0.5-1-0.8-1.7-0.8c-0.6,0-1.1,0.2-1.4,0.5s-0.5,0.8-0.5,1.4c0,0.4,0.1,0.7,0.2,1c0.2,0.3,0.4,0.5,0.7,0.7
			s0.6,0.2,1,0.2c0.4,0,0.7-0.1,1-0.2V58.2z"/>
		<path class="st0" d="M57.6,61.1c-0.6-0.6-0.8-1.3-0.8-2.4v-3.8h1.9v3.7c0,1.1,0.4,1.6,1.3,1.6c0.9,0,1.3-0.5,1.3-1.6v-3.7h1.9v3.8
			c0,1-0.3,1.8-0.8,2.4S61,61.9,60,61.9C59,61.9,58.2,61.6,57.6,61.1z"/>
		<path class="st0" d="M64.3,54.9h3.2c0.8,0,1.4,0.1,2,0.4c0.6,0.3,1,0.7,1.4,1.2c0.3,0.5,0.5,1.1,0.5,1.8s-0.2,1.3-0.5,1.8
			c-0.3,0.5-0.8,0.9-1.4,1.2c-0.6,0.3-1.2,0.4-2,0.4h-3.2V54.9z M67.5,60.2c0.6,0,1.1-0.2,1.4-0.5s0.5-0.8,0.5-1.4s-0.2-1-0.5-1.4
			s-0.8-0.5-1.4-0.5h-1.2v3.8H67.5z"/>
		<path class="st0" d="M73.6,61.5c-0.6-0.3-1-0.7-1.4-1.3c-0.3-0.5-0.5-1.2-0.5-1.8s0.2-1.3,0.5-1.8c0.3-0.5,0.8-1,1.4-1.3
			c0.6-0.3,1.2-0.5,2-0.5c0.7,0,1.4,0.2,2,0.5c0.6,0.3,1,0.7,1.4,1.3c0.3,0.5,0.5,1.2,0.5,1.8s-0.2,1.3-0.5,1.8
			c-0.3,0.5-0.8,1-1.4,1.3s-1.2,0.5-2,0.5C74.9,61.9,74.2,61.8,73.6,61.5z M76.5,60.1c0.3-0.2,0.5-0.4,0.7-0.7
			c0.2-0.3,0.2-0.6,0.2-1s-0.1-0.7-0.2-1c-0.2-0.3-0.4-0.5-0.7-0.7c-0.3-0.2-0.6-0.2-0.9-0.2c-0.3,0-0.7,0.1-0.9,0.2
			c-0.3,0.2-0.5,0.4-0.7,0.7c-0.2,0.3-0.2,0.6-0.2,1s0.1,0.7,0.2,1c0.2,0.3,0.4,0.5,0.7,0.7c0.3,0.2,0.6,0.2,0.9,0.2
			C75.9,60.3,76.3,60.2,76.5,60.1z"/>
		<path class="st0" d="M87.4,60.5h-2.9l-0.5,1.3h-2l3-6.9h1.9l3,6.9h-2L87.4,60.5z M86.8,59l-0.9-2.2L85,59H86.8z"/>
		<path class="st0" d="M94.3,61.5c-0.6-0.3-1-0.7-1.3-1.3s-0.5-1.2-0.5-1.8s0.2-1.3,0.5-1.8c0.3-0.5,0.8-1,1.3-1.3
			c0.6-0.3,1.2-0.5,1.9-0.5c0.6,0,1.2,0.1,1.7,0.3c0.5,0.2,0.9,0.5,1.3,1L98,57.2c-0.4-0.5-1-0.8-1.6-0.8c-0.4,0-0.7,0.1-1,0.2
			c-0.3,0.2-0.5,0.4-0.7,0.7c-0.2,0.3-0.2,0.6-0.2,1s0.1,0.7,0.2,1c0.2,0.3,0.4,0.5,0.7,0.7c0.3,0.2,0.6,0.2,1,0.2
			c0.6,0,1.2-0.3,1.6-0.8l1.2,1.1c-0.3,0.4-0.8,0.7-1.3,1c-0.5,0.2-1.1,0.3-1.7,0.3C95.5,61.9,94.9,61.8,94.3,61.5z"/>
		<path class="st0" d="M101.2,61.5c-0.6-0.3-1-0.7-1.4-1.3c-0.3-0.5-0.5-1.2-0.5-1.8s0.2-1.3,0.5-1.8c0.3-0.5,0.8-1,1.4-1.3
			c0.6-0.3,1.2-0.5,2-0.5c0.7,0,1.4,0.2,2,0.5c0.6,0.3,1,0.7,1.4,1.3c0.3,0.5,0.5,1.2,0.5,1.8s-0.2,1.3-0.5,1.8
			c-0.3,0.5-0.8,1-1.4,1.3s-1.2,0.5-2,0.5C102.4,61.9,101.8,61.8,101.2,61.5z M104.1,60.1c0.3-0.2,0.5-0.4,0.7-0.7
			c0.2-0.3,0.2-0.6,0.2-1s-0.1-0.7-0.2-1c-0.2-0.3-0.4-0.5-0.7-0.7c-0.3-0.2-0.6-0.2-0.9-0.2c-0.3,0-0.7,0.1-0.9,0.2
			c-0.3,0.2-0.5,0.4-0.7,0.7c-0.2,0.3-0.2,0.6-0.2,1s0.1,0.7,0.2,1c0.2,0.3,0.4,0.5,0.7,0.7c0.3,0.2,0.6,0.2,0.9,0.2
			C103.5,60.3,103.8,60.2,104.1,60.1z"/>
		<path class="st0" d="M114.3,54.9v6.9h-1.6l-3-3.7v3.7h-1.9v-6.9h1.6l3,3.7v-3.7H114.3z"/>
		<path class="st0" d="M115.4,54.9h3.2c0.8,0,1.4,0.1,2,0.4c0.6,0.3,1,0.7,1.4,1.2c0.3,0.5,0.5,1.1,0.5,1.8s-0.2,1.3-0.5,1.8
			c-0.3,0.5-0.8,0.9-1.4,1.2c-0.6,0.3-1.2,0.4-2,0.4h-3.2V54.9z M118.5,60.2c0.6,0,1.1-0.2,1.4-0.5s0.5-0.8,0.5-1.4s-0.2-1-0.5-1.4
			s-0.8-0.5-1.4-0.5h-1.2v3.8H118.5z"/>
		<path class="st0" d="M123.2,54.9h1.9v6.9h-1.9V54.9z"/>
		<path class="st0" d="M127.8,61.5c-0.6-0.3-1-0.7-1.3-1.3s-0.5-1.2-0.5-1.8s0.2-1.3,0.5-1.8c0.3-0.5,0.8-1,1.3-1.3
			c0.6-0.3,1.2-0.5,1.9-0.5c0.6,0,1.2,0.1,1.7,0.3c0.5,0.2,0.9,0.5,1.3,1l-1.2,1.1c-0.4-0.5-1-0.8-1.6-0.8c-0.4,0-0.7,0.1-1,0.2
			c-0.3,0.2-0.5,0.4-0.7,0.7c-0.2,0.3-0.2,0.6-0.2,1s0.1,0.7,0.2,1c0.2,0.3,0.4,0.5,0.7,0.7c0.3,0.2,0.6,0.2,1,0.2
			c0.6,0,1.2-0.3,1.6-0.8l1.2,1.1c-0.3,0.4-0.8,0.7-1.3,1c-0.5,0.2-1.1,0.3-1.7,0.3C129,61.9,128.4,61.8,127.8,61.5z M128.6,64
			c-0.2,0-0.3-0.1-0.4-0.1l0.3-0.7c0.2,0.1,0.4,0.1,0.6,0.1c0.3,0,0.5-0.1,0.5-0.3c0-0.2-0.1-0.2-0.4-0.2h-0.4l0.3-1.1h1l-0.1,0.6
			c0.3,0,0.5,0.1,0.6,0.3s0.2,0.3,0.2,0.5c0,0.3-0.1,0.6-0.4,0.7c-0.3,0.2-0.7,0.3-1.1,0.3C129,64.1,128.8,64.1,128.6,64z"/>
		<path class="st0" d="M137.8,60.5h-2.9l-0.5,1.3h-2l3-6.9h1.9l3,6.9h-2L137.8,60.5z M136.6,54.3c-0.1-0.1-0.3-0.2-0.5-0.3
			c-0.1-0.1-0.2-0.1-0.3-0.2c-0.1,0-0.1,0-0.2,0c-0.1,0-0.2,0-0.3,0.1c-0.1,0.1-0.1,0.2-0.1,0.4h-0.9c0-0.5,0.1-0.9,0.4-1.1
			s0.5-0.4,0.9-0.4c0.2,0,0.3,0,0.5,0.1s0.3,0.2,0.5,0.3c0.1,0.1,0.2,0.1,0.3,0.2c0.1,0,0.1,0,0.2,0c0.1,0,0.2,0,0.3-0.1
			c0.1-0.1,0.1-0.2,0.1-0.4h0.9c0,0.5-0.1,0.8-0.4,1.1s-0.5,0.4-0.9,0.4C136.9,54.4,136.8,54.4,136.6,54.3z M137.2,59l-0.9-2.2
			l-0.9,2.2H137.2z"/>
		<path class="st0" d="M142,61.5c-0.6-0.3-1-0.7-1.4-1.3c-0.3-0.5-0.5-1.2-0.5-1.8s0.2-1.3,0.5-1.8c0.3-0.5,0.8-1,1.4-1.3
			c0.6-0.3,1.2-0.5,2-0.5c0.7,0,1.4,0.2,2,0.5c0.6,0.3,1,0.7,1.4,1.3c0.3,0.5,0.5,1.2,0.5,1.8s-0.2,1.3-0.5,1.8
			c-0.3,0.5-0.8,1-1.4,1.3s-1.2,0.5-2,0.5C143.3,61.9,142.6,61.8,142,61.5z M144.9,60.1c0.3-0.2,0.5-0.4,0.7-0.7
			c0.2-0.3,0.2-0.6,0.2-1s-0.1-0.7-0.2-1c-0.2-0.3-0.4-0.5-0.7-0.7c-0.3-0.2-0.6-0.2-0.9-0.2c-0.3,0-0.7,0.1-0.9,0.2
			c-0.3,0.2-0.5,0.4-0.7,0.7c-0.2,0.3-0.2,0.6-0.2,1s0.1,0.7,0.2,1c0.2,0.3,0.4,0.5,0.7,0.7c0.3,0.2,0.6,0.2,0.9,0.2
			C144.3,60.3,144.6,60.2,144.9,60.1z"/>
		<path class="st0" d="M151.2,54.9h3.2c0.8,0,1.4,0.1,2,0.4c0.6,0.3,1,0.7,1.4,1.2c0.3,0.5,0.5,1.1,0.5,1.8s-0.2,1.3-0.5,1.8
			c-0.3,0.5-0.8,0.9-1.4,1.2c-0.6,0.3-1.2,0.4-2,0.4h-3.2V54.9z M154.3,60.2c0.6,0,1.1-0.2,1.4-0.5s0.5-0.8,0.5-1.4s-0.2-1-0.5-1.4
			s-0.8-0.5-1.4-0.5h-1.2v3.8H154.3z"/>
		<path class="st0" d="M164.5,60.3v1.5H159v-6.9h5.4v1.5h-3.5v1.2h3V59h-3v1.3H164.5z"/>
		<path class="st0" d="M172.6,60.5h-2.9l-0.5,1.3h-2l3-6.9h1.9l3,6.9h-2L172.6,60.5z M172,59l-0.9-2.2l-0.9,2.2H172z"/>
		<path class="st0" d="M175.4,54.9h1.9v5.3h3.3v1.5h-5.2V54.9z"/>
		<path class="st0" d="M183.1,56.4v1.5h3v1.5h-3v2.4h-1.9v-6.9h5.4v1.5H183.1z"/>
		<path class="st0" d="M191.5,60.5h-2.9l-0.5,1.3h-2l3-6.9h1.9l3,6.9h-2L191.5,60.5z M191,59l-0.9-2.2l-0.9,2.2H191z"/>
		<path class="st0" d="M200.6,58.9c0.2,0.3,0.3,0.6,0.3,1.1c0,0.6-0.2,1.1-0.7,1.4s-1.2,0.5-2.1,0.5h-3.7v-6.9h3.5
			c0.9,0,1.5,0.2,2,0.5s0.7,0.8,0.7,1.3c0,0.3-0.1,0.6-0.2,0.9c-0.2,0.3-0.4,0.5-0.7,0.6C200,58.3,200.4,58.6,200.6,58.9z
			 M196.3,56.3v1.3h1.3c0.7,0,1-0.2,1-0.7c0-0.4-0.3-0.7-1-0.7H196.3z M198.9,59.7c0-0.5-0.3-0.7-1-0.7h-1.6v1.4h1.6
			C198.6,60.4,198.9,60.2,198.9,59.7z"/>
		<path class="st0" d="M207.2,60.3v1.5h-5.5v-6.9h5.4v1.5h-3.5v1.2h3V59h-3v1.3H207.2z"/>
		<path class="st0" d="M209.5,56.5h-2.1v-1.5h6.1v1.5h-2.1v5.3h-1.9V56.5z"/>
		<path class="st0" d="M214,54.9h1.9v6.9H214V54.9z"/>
		<path class="st0" d="M222.9,60.2v1.5h-6.1v-1.2l3.5-4.1h-3.4v-1.5h5.9v1.2l-3.5,4.1H222.9z"/>
		<path class="st0" d="M228.1,60.5h-2.9l-0.5,1.3h-2l3-6.9h1.9l3,6.9h-2L228.1,60.5z M227.5,59l-0.9-2.2l-0.9,2.2H227.5z"/>
		<path class="st0" d="M232.3,61.5c-0.6-0.3-1-0.7-1.3-1.3c-0.3-0.5-0.5-1.2-0.5-1.8s0.2-1.3,0.5-1.8c0.3-0.5,0.8-1,1.3-1.3
			s1.2-0.5,1.9-0.5c0.6,0,1.2,0.1,1.7,0.3c0.5,0.2,0.9,0.5,1.3,1l-1.2,1.1c-0.4-0.5-1-0.8-1.6-0.8c-0.4,0-0.7,0.1-1,0.2
			c-0.3,0.2-0.5,0.4-0.7,0.7c-0.2,0.3-0.2,0.6-0.2,1s0.1,0.7,0.2,1c0.2,0.3,0.4,0.5,0.7,0.7c0.3,0.2,0.6,0.2,1,0.2
			c0.6,0,1.2-0.3,1.6-0.8l1.2,1.1c-0.3,0.4-0.8,0.7-1.3,1c-0.5,0.2-1.1,0.3-1.7,0.3C233.5,61.9,232.9,61.8,232.3,61.5z M233.1,64
			c-0.2,0-0.3-0.1-0.4-0.1l0.3-0.7c0.2,0.1,0.4,0.1,0.6,0.1c0.3,0,0.5-0.1,0.5-0.3c0-0.2-0.1-0.2-0.4-0.2h-0.4l0.3-1.1h1l-0.1,0.6
			c0.3,0,0.5,0.1,0.6,0.3c0.1,0.1,0.2,0.3,0.2,0.5c0,0.3-0.1,0.6-0.4,0.7c-0.3,0.2-0.7,0.3-1.1,0.3C233.5,64.1,233.3,64.1,233.1,64z
			"/>
		<path class="st0" d="M242.3,60.5h-2.9l-0.5,1.3h-2l3-6.9h1.9l3,6.9h-2L242.3,60.5z M241.1,54.3c-0.1-0.1-0.3-0.2-0.5-0.3
			c-0.1-0.1-0.2-0.1-0.3-0.2c-0.1,0-0.1,0-0.2,0c-0.1,0-0.2,0-0.3,0.1c-0.1,0.1-0.1,0.2-0.1,0.4h-0.9c0-0.5,0.1-0.9,0.4-1.1
			s0.5-0.4,0.9-0.4c0.2,0,0.3,0,0.5,0.1c0.1,0.1,0.3,0.2,0.5,0.3c0.1,0.1,0.2,0.1,0.3,0.2c0.1,0,0.1,0,0.2,0c0.1,0,0.2,0,0.3-0.1
			c0.1-0.1,0.1-0.2,0.1-0.4h0.9c0,0.5-0.1,0.8-0.4,1.1c-0.2,0.3-0.5,0.4-0.9,0.4C241.4,54.4,241.3,54.4,241.1,54.3z M241.7,59
			l-0.9-2.2L240,59H241.7z"/>
		<path class="st0" d="M246.6,61.5c-0.6-0.3-1-0.7-1.4-1.3c-0.3-0.5-0.5-1.2-0.5-1.8s0.2-1.3,0.5-1.8c0.3-0.5,0.8-1,1.4-1.3
			c0.6-0.3,1.2-0.5,2-0.5c0.7,0,1.4,0.2,2,0.5c0.6,0.3,1,0.7,1.4,1.3c0.3,0.5,0.5,1.2,0.5,1.8s-0.2,1.3-0.5,1.8s-0.8,1-1.4,1.3
			c-0.6,0.3-1.2,0.5-2,0.5C247.8,61.9,247.1,61.8,246.6,61.5z M249.4,60.1c0.3-0.2,0.5-0.4,0.7-0.7c0.2-0.3,0.2-0.6,0.2-1
			s-0.1-0.7-0.2-1c-0.2-0.3-0.4-0.5-0.7-0.7c-0.3-0.2-0.6-0.2-0.9-0.2c-0.3,0-0.7,0.1-0.9,0.2c-0.3,0.2-0.5,0.4-0.7,0.7
			c-0.2,0.3-0.2,0.6-0.2,1s0.1,0.7,0.2,1c0.2,0.3,0.4,0.5,0.7,0.7c0.3,0.2,0.6,0.2,0.9,0.2C248.9,60.3,249.2,60.2,249.4,60.1z"/>
		<path class="st0" d="M117.5,73.1c0.2,0.3,0.3,0.6,0.3,1.1c0,0.6-0.2,1.1-0.7,1.4c-0.5,0.3-1.2,0.5-2.1,0.5h-3.7v-6.9h3.5
			c0.9,0,1.5,0.2,2,0.5c0.5,0.3,0.7,0.8,0.7,1.3c0,0.3-0.1,0.6-0.2,0.9c-0.2,0.3-0.4,0.5-0.7,0.6C117,72.6,117.3,72.8,117.5,73.1z
			 M113.2,70.5v1.3h1.3c0.7,0,1-0.2,1-0.7c0-0.4-0.3-0.7-1-0.7H113.2z M115.9,73.9c0-0.5-0.3-0.7-1-0.7h-1.6v1.4h1.6
			C115.5,74.6,115.9,74.4,115.9,73.9z"/>
		<path class="st0" d="M121.6,74.2h-1.1V76h-1.9v-6.9h3.1c0.6,0,1.2,0.1,1.6,0.3c0.5,0.2,0.8,0.5,1.1,0.9c0.2,0.4,0.4,0.8,0.4,1.3
			c0,0.5-0.1,0.9-0.3,1.3c-0.2,0.4-0.6,0.7-1,0.9l1.5,2.2h-2.1L121.6,74.2z M122.5,70.9c-0.2-0.2-0.5-0.3-0.9-0.3h-1.1v2h1.1
			c0.4,0,0.7-0.1,0.9-0.3c0.2-0.2,0.3-0.4,0.3-0.7C122.8,71.4,122.7,71.1,122.5,70.9z"/>
		<path class="st0" d="M130.2,74.7h-2.9l-0.5,1.3h-2l3-6.9h1.9l3,6.9h-2L130.2,74.7z M129.6,73.2l-0.9-2.2l-0.9,2.2H129.6z"/>
		<path class="st0" d="M133.8,75.9c-0.5-0.1-0.9-0.3-1.3-0.5l0.6-1.4c0.3,0.2,0.7,0.4,1.1,0.5s0.8,0.2,1.2,0.2
			c0.7,0,1.1-0.2,1.1-0.6c0-0.2-0.1-0.3-0.3-0.4c-0.2-0.1-0.6-0.2-1-0.3c-0.5-0.1-0.9-0.2-1.3-0.4c-0.3-0.1-0.6-0.3-0.9-0.6
			c-0.2-0.3-0.4-0.7-0.4-1.1c0-0.4,0.1-0.8,0.3-1.1s0.6-0.6,1-0.8c0.5-0.2,1-0.3,1.7-0.3c0.5,0,0.9,0.1,1.3,0.2
			c0.4,0.1,0.8,0.2,1.2,0.4l-0.6,1.4c-0.7-0.4-1.3-0.5-1.9-0.5c-0.4,0-0.7,0.1-0.8,0.2s-0.3,0.3-0.3,0.4s0.1,0.3,0.3,0.4
			c0.2,0.1,0.5,0.2,1,0.3c0.5,0.1,1,0.2,1.3,0.4c0.3,0.1,0.6,0.3,0.9,0.6c0.3,0.3,0.4,0.7,0.4,1.1c0,0.4-0.1,0.8-0.3,1.1
			s-0.6,0.6-1,0.8c-0.5,0.2-1,0.3-1.7,0.3C134.9,76.1,134.4,76.1,133.8,75.9z"/>
		<path class="st0" d="M139.1,69.1h1.9V76h-1.9V69.1z"/>
		<path class="st0" d="M142.2,69.1h1.9v5.3h3.3V76h-5.2V69.1z"/>
		<path class="st0" d="M150.3,72.5h2.9v1.4h-2.9V72.5z"/>
		<path class="st0" d="M161.7,74.5V76h-5.3v-1.2l2.6-2.4c0.2-0.2,0.4-0.4,0.5-0.6c0.1-0.2,0.1-0.3,0.1-0.5c0-0.2-0.1-0.4-0.2-0.5
			c-0.2-0.1-0.4-0.2-0.7-0.2c-0.3,0-0.5,0.1-0.7,0.2c-0.2,0.1-0.4,0.3-0.5,0.5l-1.4-0.8c0.3-0.4,0.6-0.8,1.1-1
			c0.5-0.3,1.1-0.4,1.7-0.4c0.5,0,1,0.1,1.4,0.3c0.4,0.2,0.7,0.4,0.9,0.7c0.2,0.3,0.3,0.7,0.3,1.1c0,0.4-0.1,0.7-0.2,1.1
			c-0.2,0.3-0.5,0.7-0.9,1.1l-1.3,1.2H161.7z"/>
		<path class="st0" d="M163.4,75.7c-0.5-0.3-0.8-0.7-1.1-1.2c-0.3-0.5-0.4-1.2-0.4-1.9c0-0.7,0.1-1.4,0.4-1.9
			c0.3-0.5,0.6-0.9,1.1-1.2c0.5-0.3,1-0.4,1.6-0.4c0.6,0,1.1,0.1,1.6,0.4c0.5,0.3,0.8,0.7,1.1,1.2c0.3,0.5,0.4,1.2,0.4,1.9
			c0,0.7-0.1,1.4-0.4,1.9c-0.3,0.5-0.6,0.9-1.1,1.2c-0.5,0.3-1,0.4-1.6,0.4C164.4,76.1,163.9,76,163.4,75.7z M165.8,74.1
			c0.2-0.3,0.3-0.8,0.3-1.5s-0.1-1.2-0.3-1.5c-0.2-0.3-0.5-0.5-0.8-0.5c-0.3,0-0.6,0.2-0.8,0.5c-0.2,0.3-0.3,0.8-0.3,1.5
			s0.1,1.2,0.3,1.5c0.2,0.3,0.5,0.5,0.8,0.5C165.3,74.5,165.6,74.4,165.8,74.1z"/>
		<path class="st0" d="M171.3,69.1V76h-1.9v-5.4h-1.3v-1.5H171.3z"/>
		<path class="st0" d="M173.5,75.7c-0.5-0.3-0.8-0.7-1.1-1.2c-0.3-0.5-0.4-1.2-0.4-1.9c0-0.7,0.1-1.4,0.4-1.9
			c0.3-0.5,0.6-0.9,1.1-1.2c0.5-0.3,1-0.4,1.6-0.4c0.6,0,1.1,0.1,1.6,0.4s0.8,0.7,1.1,1.2c0.3,0.5,0.4,1.2,0.4,1.9
			c0,0.7-0.1,1.4-0.4,1.9c-0.3,0.5-0.6,0.9-1.1,1.2s-1,0.4-1.6,0.4C174.5,76.1,174,76,173.5,75.7z M175.9,74.1
			c0.2-0.3,0.3-0.8,0.3-1.5s-0.1-1.2-0.3-1.5c-0.2-0.3-0.5-0.5-0.8-0.5c-0.3,0-0.6,0.2-0.8,0.5c-0.2,0.3-0.3,0.8-0.3,1.5
			s0.1,1.2,0.3,1.5c0.2,0.3,0.5,0.5,0.8,0.5C175.4,74.5,175.7,74.4,175.9,74.1z"/>
	</g>
</g>
<g>
	<g>
		<rect x="28.5" y="88.7" class="st1" width="247.2" height="147.5"/>
		<line class="st1" x1="28.5" y1="104.7" x2="275.7" y2="104.7"/>
		<line class="st1" x1="28.5" y1="121.9" x2="275.7" y2="121.9"/>
		<line class="st1" x1="28.5" y1="137.9" x2="275.7" y2="137.9"/>
		<line class="st1" x1="28.5" y1="154" x2="275.7" y2="154"/>
		<line class="st1" x1="28.5" y1="171.1" x2="275.7" y2="171.1"/>
		<line class="st1" x1="28.5" y1="187.2" x2="275.7" y2="187.2"/>
		<line class="st1" x1="28.5" y1="203.2" x2="275.7" y2="203.2"/>
		<line class="st1" x1="28.5" y1="219.3" x2="275.7" y2="219.3"/>
	</g>
	<rect x="40" y="111.2" class="st2" width="29.8" height="124.4"/>
	<rect x="122.3" y="125.6" class="st2" width="29.8" height="110"/>
	<rect x="203.6" y="96.8" class="st2" width="29.8" height="138.9"/>
	<rect x="69.8" y="198.5" class="st3" width="29.8" height="37.1"/>
	<rect x="152.2" y="182.9" class="st3" width="29.8" height="52.7"/>
	<rect x="233.6" y="212.3" class="st3" width="29.8" height="23.4"/>
	<g>
		<path class="st0" d="M17.3,83.7c0.4,0.5,0.6,1.2,0.6,2.1c0,0.6-0.1,1.2-0.3,1.6s-0.6,0.8-1,1c-0.4,0.2-0.9,0.3-1.4,0.3
			c-0.3,0-0.6,0-0.8-0.1c-0.3-0.1-0.5-0.2-0.7-0.3l0.4-0.8c0.3,0.2,0.6,0.3,1.1,0.3c0.5,0,1-0.2,1.3-0.5c0.3-0.3,0.5-0.8,0.5-1.4v0
			c-0.2,0.2-0.4,0.3-0.6,0.4c-0.3,0.1-0.5,0.1-0.9,0.1c-0.4,0-0.7-0.1-1-0.2s-0.5-0.3-0.7-0.6c-0.2-0.3-0.2-0.6-0.2-0.9
			c0-0.4,0.1-0.7,0.3-1s0.4-0.5,0.7-0.6c0.3-0.1,0.7-0.2,1-0.2C16.3,83,16.9,83.2,17.3,83.7z M16.4,85.4c0.2-0.2,0.3-0.4,0.3-0.7
			c0-0.3-0.1-0.5-0.3-0.7c-0.2-0.2-0.5-0.3-0.9-0.3c-0.3,0-0.6,0.1-0.8,0.3c-0.2,0.2-0.3,0.4-0.3,0.7c0,0.3,0.1,0.5,0.3,0.7
			c0.2,0.2,0.5,0.3,0.8,0.3C15.9,85.7,16.2,85.6,16.4,85.4z"/>
		<path class="st0" d="M19.7,88.4c-0.4-0.2-0.6-0.6-0.8-1c-0.2-0.4-0.3-1-0.3-1.6s0.1-1.1,0.3-1.6c0.2-0.4,0.5-0.8,0.8-1
			c0.4-0.2,0.8-0.3,1.2-0.3c0.4,0,0.9,0.1,1.2,0.3c0.4,0.2,0.6,0.6,0.8,1c0.2,0.4,0.3,1,0.3,1.6S23.2,87,23,87.4
			c-0.2,0.4-0.5,0.8-0.8,1c-0.4,0.2-0.8,0.3-1.2,0.3C20.5,88.7,20.1,88.6,19.7,88.4z M21.9,87.3c0.2-0.3,0.3-0.8,0.3-1.5
			c0-0.7-0.1-1.2-0.3-1.5c-0.2-0.3-0.5-0.5-1-0.5c-0.4,0-0.7,0.2-0.9,0.5c-0.2,0.3-0.3,0.8-0.3,1.5c0,0.7,0.1,1.2,0.3,1.5
			s0.5,0.5,0.9,0.5C21.3,87.8,21.6,87.7,21.9,87.3z"/>
		<path class="st0" d="M17.7,102.9c0.2,0.2,0.2,0.5,0.2,0.8c0,0.3-0.1,0.6-0.3,0.9c-0.2,0.3-0.5,0.5-0.8,0.6
			c-0.3,0.1-0.8,0.2-1.2,0.2c-0.5,0-0.9-0.1-1.2-0.2c-0.3-0.1-0.6-0.3-0.8-0.6c-0.2-0.3-0.3-0.6-0.3-0.9c0-0.3,0.1-0.6,0.2-0.8
			c0.2-0.2,0.4-0.4,0.7-0.5c-0.2-0.1-0.4-0.3-0.5-0.5c-0.1-0.2-0.2-0.4-0.2-0.7c0-0.3,0.1-0.6,0.3-0.8c0.2-0.2,0.4-0.4,0.7-0.5
			c0.3-0.1,0.7-0.2,1.1-0.2c0.4,0,0.8,0.1,1.1,0.2c0.3,0.1,0.6,0.3,0.7,0.5c0.2,0.2,0.3,0.5,0.3,0.8c0,0.3-0.1,0.5-0.2,0.7
			s-0.3,0.4-0.5,0.5C17.4,102.4,17.6,102.6,17.7,102.9z M16.6,104.3c0.2-0.2,0.3-0.4,0.3-0.7c0-0.3-0.1-0.5-0.3-0.7
			c-0.2-0.2-0.5-0.2-0.9-0.2c-0.4,0-0.7,0.1-0.9,0.2c-0.2,0.2-0.3,0.4-0.3,0.7c0,0.3,0.1,0.5,0.3,0.7c0.2,0.2,0.5,0.2,0.9,0.2
			C16.1,104.5,16.4,104.4,16.6,104.3z M14.9,100.6c-0.2,0.1-0.3,0.3-0.3,0.6c0,0.2,0.1,0.4,0.3,0.6c0.2,0.1,0.4,0.2,0.8,0.2
			c0.3,0,0.6-0.1,0.8-0.2s0.3-0.3,0.3-0.6c0-0.3-0.1-0.4-0.3-0.6c-0.2-0.1-0.5-0.2-0.8-0.2C15.3,100.4,15.1,100.5,14.9,100.6z"/>
		<path class="st0" d="M19.7,105c-0.4-0.2-0.6-0.6-0.8-1c-0.2-0.4-0.3-1-0.3-1.6s0.1-1.1,0.3-1.6c0.2-0.4,0.5-0.8,0.8-1
			c0.4-0.2,0.8-0.3,1.2-0.3c0.4,0,0.9,0.1,1.2,0.3c0.4,0.2,0.6,0.6,0.8,1c0.2,0.4,0.3,1,0.3,1.6s-0.1,1.1-0.3,1.6
			c-0.2,0.4-0.5,0.8-0.8,1c-0.4,0.2-0.8,0.3-1.2,0.3C20.5,105.3,20.1,105.2,19.7,105z M21.9,103.9c0.2-0.3,0.3-0.8,0.3-1.5
			c0-0.7-0.1-1.2-0.3-1.5c-0.2-0.3-0.5-0.5-1-0.5c-0.4,0-0.7,0.2-0.9,0.5c-0.2,0.3-0.3,0.8-0.3,1.5c0,0.7,0.1,1.2,0.3,1.5
			s0.5,0.5,0.9,0.5C21.3,104.4,21.6,104.3,21.9,103.9z"/>
		<path class="st0" d="M18.2,116.3v0.7l-2.2,4.9h-1.1l2.1-4.7h-2.2v1h-1v-1.8H18.2z"/>
		<path class="st0" d="M19.7,121.6c-0.4-0.2-0.6-0.6-0.8-1c-0.2-0.4-0.3-1-0.3-1.6s0.1-1.1,0.3-1.6c0.2-0.4,0.5-0.8,0.8-1
			c0.4-0.2,0.8-0.3,1.2-0.3c0.4,0,0.9,0.1,1.2,0.3c0.4,0.2,0.6,0.6,0.8,1c0.2,0.4,0.3,1,0.3,1.6s-0.1,1.1-0.3,1.6
			c-0.2,0.4-0.5,0.8-0.8,1c-0.4,0.2-0.8,0.3-1.2,0.3C20.5,121.9,20.1,121.8,19.7,121.6z M21.9,120.5c0.2-0.3,0.3-0.8,0.3-1.5
			c0-0.7-0.1-1.2-0.3-1.5c-0.2-0.3-0.5-0.5-1-0.5c-0.4,0-0.7,0.2-0.9,0.5c-0.2,0.3-0.3,0.8-0.3,1.5c0,0.7,0.1,1.2,0.3,1.5
			s0.5,0.5,0.9,0.5C21.3,121,21.6,120.9,21.9,120.5z"/>
		<path class="st0" d="M17.2,135.2c0.3,0.1,0.5,0.3,0.7,0.6c0.2,0.3,0.2,0.6,0.2,0.9c0,0.4-0.1,0.7-0.3,1s-0.4,0.5-0.7,0.6
			c-0.3,0.1-0.7,0.2-1,0.2c-0.8,0-1.4-0.2-1.8-0.7c-0.4-0.5-0.6-1.2-0.6-2.1c0-0.6,0.1-1.2,0.3-1.6c0.2-0.4,0.6-0.8,1-1
			s0.9-0.3,1.4-0.3c0.3,0,0.6,0,0.8,0.1c0.3,0.1,0.5,0.2,0.7,0.3l-0.4,0.8c-0.3-0.2-0.6-0.3-1.1-0.3c-0.5,0-1,0.2-1.3,0.5
			c-0.3,0.3-0.5,0.8-0.5,1.4v0c0.2-0.2,0.4-0.3,0.6-0.4c0.3-0.1,0.5-0.1,0.9-0.1C16.5,135,16.9,135.1,17.2,135.2z M16.8,137.5
			c0.2-0.2,0.3-0.4,0.3-0.7c0-0.3-0.1-0.5-0.3-0.7c-0.2-0.2-0.5-0.3-0.8-0.3c-0.3,0-0.6,0.1-0.8,0.3c-0.2,0.2-0.3,0.4-0.3,0.7
			c0,0.3,0.1,0.5,0.3,0.7c0.2,0.2,0.5,0.3,0.9,0.3C16.3,137.7,16.6,137.7,16.8,137.5z"/>
		<path class="st0" d="M19.7,138.2c-0.4-0.2-0.6-0.6-0.8-1c-0.2-0.4-0.3-1-0.3-1.6s0.1-1.1,0.3-1.6c0.2-0.4,0.5-0.8,0.8-1
			c0.4-0.2,0.8-0.3,1.2-0.3c0.4,0,0.9,0.1,1.2,0.3c0.4,0.2,0.6,0.6,0.8,1c0.2,0.4,0.3,1,0.3,1.6s-0.1,1.1-0.3,1.6
			c-0.2,0.4-0.5,0.8-0.8,1c-0.4,0.2-0.8,0.3-1.2,0.3C20.5,138.6,20.1,138.4,19.7,138.2z M21.9,137.2c0.2-0.3,0.3-0.8,0.3-1.5
			c0-0.7-0.1-1.2-0.3-1.5c-0.2-0.3-0.5-0.5-1-0.5c-0.4,0-0.7,0.2-0.9,0.5c-0.2,0.3-0.3,0.8-0.3,1.5c0,0.7,0.1,1.2,0.3,1.5
			s0.5,0.5,0.9,0.5C21.3,137.7,21.6,137.5,21.9,137.2z"/>
		<path class="st0" d="M17.5,152.1c0.4,0.3,0.6,0.7,0.6,1.3c0,0.3-0.1,0.6-0.2,0.9c-0.2,0.3-0.4,0.5-0.7,0.6
			c-0.3,0.2-0.7,0.2-1.2,0.2c-0.4,0-0.8-0.1-1.2-0.2s-0.7-0.3-0.9-0.5l0.4-0.8c0.2,0.2,0.5,0.3,0.7,0.4c0.3,0.1,0.6,0.1,0.9,0.1
			c0.4,0,0.7-0.1,0.9-0.2c0.2-0.2,0.3-0.4,0.3-0.6c0-0.3-0.1-0.5-0.3-0.7c-0.2-0.1-0.6-0.2-1.2-0.2h-1.4l0.3-3.1h3.3v0.9h-2.4
			l-0.1,1.3h0.5C16.5,151.6,17.1,151.8,17.5,152.1z"/>
		<path class="st0" d="M19.7,154.8c-0.4-0.2-0.6-0.6-0.8-1c-0.2-0.4-0.3-1-0.3-1.6s0.1-1.1,0.3-1.6c0.2-0.4,0.5-0.8,0.8-1
			c0.4-0.2,0.8-0.3,1.2-0.3c0.4,0,0.9,0.1,1.2,0.3c0.4,0.2,0.6,0.6,0.8,1c0.2,0.4,0.3,1,0.3,1.6s-0.1,1.1-0.3,1.6
			c-0.2,0.4-0.5,0.8-0.8,1c-0.4,0.2-0.8,0.3-1.2,0.3C20.5,155.2,20.1,155.1,19.7,154.8z M21.9,153.8c0.2-0.3,0.3-0.8,0.3-1.5
			c0-0.7-0.1-1.2-0.3-1.5c-0.2-0.3-0.5-0.5-1-0.5c-0.4,0-0.7,0.2-0.9,0.5c-0.2,0.3-0.3,0.8-0.3,1.5c0,0.7,0.1,1.2,0.3,1.5
			s0.5,0.5,0.9,0.5C21.3,154.3,21.6,154.1,21.9,153.8z"/>
		<path class="st0" d="M18.2,170.4h-1v1.3h-1v-1.3h-3.1v-0.7l2.8-3.6H17l-2.6,3.5h1.8v-1.1h1v1.1h1V170.4z"/>
		<path class="st0" d="M19.7,171.4c-0.4-0.2-0.6-0.6-0.8-1c-0.2-0.4-0.3-1-0.3-1.6s0.1-1.1,0.3-1.6c0.2-0.4,0.5-0.8,0.8-1
			c0.4-0.2,0.8-0.3,1.2-0.3c0.4,0,0.9,0.1,1.2,0.3c0.4,0.2,0.6,0.6,0.8,1c0.2,0.4,0.3,1,0.3,1.6s-0.1,1.1-0.3,1.6
			c-0.2,0.4-0.5,0.8-0.8,1c-0.4,0.2-0.8,0.3-1.2,0.3C20.5,171.8,20.1,171.7,19.7,171.4z M21.9,170.4c0.2-0.3,0.3-0.8,0.3-1.5
			c0-0.7-0.1-1.2-0.3-1.5c-0.2-0.3-0.5-0.5-1-0.5c-0.4,0-0.7,0.2-0.9,0.5c-0.2,0.3-0.3,0.8-0.3,1.5c0,0.7,0.1,1.2,0.3,1.5
			s0.5,0.5,0.9,0.5C21.3,170.9,21.6,170.7,21.9,170.4z"/>
		<path class="st0" d="M17.6,185.5c0.3,0.3,0.4,0.6,0.4,1.1c0,0.3-0.1,0.6-0.2,0.9c-0.2,0.3-0.4,0.5-0.7,0.6s-0.7,0.2-1.2,0.2
			c-0.4,0-0.8-0.1-1.2-0.2s-0.7-0.3-1-0.5l0.4-0.8c0.2,0.2,0.5,0.3,0.7,0.4c0.3,0.1,0.6,0.1,0.9,0.1c0.4,0,0.7-0.1,0.9-0.2
			c0.2-0.2,0.3-0.4,0.3-0.6c0-0.3-0.1-0.5-0.3-0.6c-0.2-0.1-0.5-0.2-0.9-0.2h-0.5v-0.7l1.3-1.5h-2.5v-0.9h3.8v0.7l-1.4,1.6
			C16.9,185.1,17.3,185.2,17.6,185.5z"/>
		<path class="st0" d="M19.7,188c-0.4-0.2-0.6-0.6-0.8-1c-0.2-0.4-0.3-1-0.3-1.6s0.1-1.1,0.3-1.6c0.2-0.4,0.5-0.8,0.8-1
			c0.4-0.2,0.8-0.3,1.2-0.3c0.4,0,0.9,0.1,1.2,0.3c0.4,0.2,0.6,0.6,0.8,1c0.2,0.4,0.3,1,0.3,1.6s-0.1,1.1-0.3,1.6
			c-0.2,0.4-0.5,0.8-0.8,1c-0.4,0.2-0.8,0.3-1.2,0.3C20.5,188.4,20.1,188.3,19.7,188z M21.9,187c0.2-0.3,0.3-0.8,0.3-1.5
			c0-0.7-0.1-1.2-0.3-1.5c-0.2-0.3-0.5-0.5-1-0.5c-0.4,0-0.7,0.2-0.9,0.5c-0.2,0.3-0.3,0.8-0.3,1.5c0,0.7,0.1,1.2,0.3,1.5
			s0.5,0.5,0.9,0.5C21.3,187.5,21.6,187.3,21.9,187z"/>
		<path class="st0" d="M18.1,204v0.9h-4.1v-0.7l2.2-2.1c0.3-0.2,0.4-0.5,0.5-0.6c0.1-0.2,0.1-0.4,0.1-0.5c0-0.3-0.1-0.5-0.3-0.6
			c-0.2-0.1-0.4-0.2-0.8-0.2c-0.6,0-1,0.2-1.3,0.6l-0.7-0.6c0.2-0.3,0.5-0.5,0.9-0.7c0.4-0.2,0.8-0.2,1.2-0.2c0.6,0,1.1,0.1,1.5,0.4
			c0.4,0.3,0.5,0.7,0.5,1.2c0,0.3-0.1,0.6-0.2,0.9c-0.1,0.3-0.4,0.6-0.7,0.9l-1.5,1.4H18.1z"/>
		<path class="st0" d="M19.7,204.6c-0.4-0.2-0.6-0.6-0.8-1c-0.2-0.4-0.3-1-0.3-1.6s0.1-1.1,0.3-1.6c0.2-0.4,0.5-0.8,0.8-1
			c0.4-0.2,0.8-0.3,1.2-0.3c0.4,0,0.9,0.1,1.2,0.3c0.4,0.2,0.6,0.6,0.8,1c0.2,0.4,0.3,1,0.3,1.6s-0.1,1.1-0.3,1.6
			c-0.2,0.4-0.5,0.8-0.8,1c-0.4,0.2-0.8,0.3-1.2,0.3C20.5,205,20.1,204.9,19.7,204.6z M21.9,203.6c0.2-0.3,0.3-0.8,0.3-1.5
			c0-0.7-0.1-1.2-0.3-1.5c-0.2-0.3-0.5-0.5-1-0.5c-0.4,0-0.7,0.2-0.9,0.5c-0.2,0.3-0.3,0.8-0.3,1.5c0,0.7,0.1,1.2,0.3,1.5
			s0.5,0.5,0.9,0.5C21.3,204.1,21.6,203.9,21.9,203.6z"/>
		<path class="st0" d="M17.5,215.9v5.6h-1v-4.7h-1.2v-0.9H17.5z"/>
		<path class="st0" d="M19.7,221.3c-0.4-0.2-0.6-0.6-0.8-1c-0.2-0.4-0.3-1-0.3-1.6s0.1-1.1,0.3-1.6c0.2-0.4,0.5-0.8,0.8-1
			c0.4-0.2,0.8-0.3,1.2-0.3c0.4,0,0.9,0.1,1.2,0.3c0.4,0.2,0.6,0.6,0.8,1c0.2,0.4,0.3,1,0.3,1.6s-0.1,1.1-0.3,1.6
			c-0.2,0.4-0.5,0.8-0.8,1c-0.4,0.2-0.8,0.3-1.2,0.3C20.5,221.6,20.1,221.5,19.7,221.3z M21.9,220.2c0.2-0.3,0.3-0.8,0.3-1.5
			c0-0.7-0.1-1.2-0.3-1.5c-0.2-0.3-0.5-0.5-1-0.5c-0.4,0-0.7,0.2-0.9,0.5c-0.2,0.3-0.3,0.8-0.3,1.5c0,0.7,0.1,1.2,0.3,1.5
			s0.5,0.5,0.9,0.5C21.3,220.7,21.6,220.5,21.9,220.2z"/>
		<path class="st0" d="M19.7,237.9c-0.4-0.2-0.6-0.6-0.8-1s-0.3-1-0.3-1.6c0-0.6,0.1-1.1,0.3-1.6s0.5-0.8,0.8-1
			c0.4-0.2,0.8-0.3,1.2-0.3c0.4,0,0.9,0.1,1.2,0.3c0.4,0.2,0.6,0.6,0.8,1s0.3,1,0.3,1.6c0,0.6-0.1,1.1-0.3,1.6s-0.5,0.8-0.8,1
			c-0.4,0.2-0.8,0.3-1.2,0.3C20.5,238.2,20.1,238.1,19.7,237.9z M21.9,236.8c0.2-0.3,0.3-0.8,0.3-1.5c0-0.7-0.1-1.2-0.3-1.5
			c-0.2-0.3-0.5-0.5-1-0.5c-0.4,0-0.7,0.2-0.9,0.5c-0.2,0.3-0.3,0.8-0.3,1.5c0,0.7,0.1,1.2,0.3,1.5c0.2,0.3,0.5,0.5,0.9,0.5
			C21.3,237.3,21.6,237.1,21.9,236.8z"/>
	</g>
	<rect x="181.3" y="259.7" class="st4" width="9.7" height="9.7"/>
	<rect x="64.9" y="259.7" class="st5" width="9.7" height="9.7"/>
	<g>
		<path class="st0" d="M83.6,266h-3l-0.6,1.4h-0.8l2.5-5.6h0.8l2.5,5.6h-0.8L83.6,266z M83.3,265.3l-1.2-2.8l-1.2,2.8H83.3z"/>
		<path class="st0" d="M85.6,261.4h0.8v5.9h-0.8V261.4z"/>
		<path class="st0" d="M88.5,262.7v0.4h1.2v0.6h-1.2v3.6h-0.8v-3.6H87v-0.6h0.7v-0.4c0-0.4,0.1-0.8,0.4-1c0.2-0.2,0.6-0.4,1-0.4
			c0.2,0,0.3,0,0.5,0.1c0.1,0,0.3,0.1,0.4,0.2l-0.2,0.6c-0.2-0.1-0.4-0.2-0.6-0.2C88.7,262,88.5,262.2,88.5,262.7z"/>
		<path class="st0" d="M93,263.5c0.3,0.3,0.5,0.7,0.5,1.3v2.6h-0.7v-0.6c-0.1,0.2-0.3,0.3-0.5,0.5s-0.5,0.2-0.8,0.2
			c-0.5,0-0.9-0.1-1.1-0.3c-0.3-0.2-0.4-0.5-0.4-0.9c0-0.4,0.1-0.7,0.4-0.9c0.3-0.2,0.7-0.3,1.3-0.3h1.2v-0.2c0-0.3-0.1-0.6-0.3-0.8
			s-0.5-0.3-0.8-0.3c-0.3,0-0.5,0-0.7,0.1s-0.4,0.2-0.6,0.3l-0.3-0.6c0.2-0.2,0.5-0.3,0.8-0.4c0.3-0.1,0.6-0.1,1-0.1
			C92.3,263.1,92.7,263.2,93,263.5z M92.3,266.6c0.2-0.1,0.4-0.3,0.5-0.6v-0.6h-1.2c-0.7,0-1,0.2-1,0.7c0,0.2,0.1,0.4,0.2,0.5
			s0.4,0.2,0.7,0.2S92.1,266.7,92.3,266.6z"/>
		<path class="st0" d="M98.1,263.3c0.3,0.2,0.6,0.4,0.8,0.8c0.2,0.3,0.3,0.7,0.3,1.1s-0.1,0.8-0.3,1.1c-0.2,0.3-0.4,0.6-0.8,0.8
			c-0.3,0.2-0.7,0.3-1.1,0.3c-0.3,0-0.6-0.1-0.9-0.2c-0.3-0.1-0.5-0.3-0.6-0.5v0.7h-0.7v-5.9h0.8v2.3c0.2-0.2,0.4-0.4,0.6-0.5
			c0.3-0.1,0.5-0.2,0.8-0.2C97.4,263.1,97.8,263.2,98.1,263.3z M97.7,266.5c0.2-0.1,0.4-0.3,0.5-0.5s0.2-0.5,0.2-0.8
			s-0.1-0.6-0.2-0.8s-0.3-0.4-0.5-0.5c-0.2-0.1-0.5-0.2-0.7-0.2c-0.3,0-0.5,0.1-0.7,0.2c-0.2,0.1-0.4,0.3-0.5,0.5s-0.2,0.5-0.2,0.8
			s0.1,0.6,0.2,0.8s0.3,0.4,0.5,0.5c0.2,0.1,0.5,0.2,0.7,0.2C97.2,266.7,97.5,266.7,97.7,266.5z"/>
		<path class="st0" d="M103.8,265.5h-3.4c0,0.4,0.2,0.7,0.5,0.9c0.3,0.2,0.6,0.3,1,0.3c0.5,0,0.9-0.2,1.2-0.5l0.4,0.5
			c-0.2,0.2-0.4,0.4-0.7,0.5c-0.3,0.1-0.6,0.2-1,0.2c-0.4,0-0.8-0.1-1.2-0.3c-0.3-0.2-0.6-0.4-0.8-0.8c-0.2-0.3-0.3-0.7-0.3-1.1
			c0-0.4,0.1-0.8,0.3-1.1c0.2-0.3,0.4-0.6,0.8-0.8s0.7-0.3,1.1-0.3s0.8,0.1,1.1,0.3c0.3,0.2,0.6,0.4,0.7,0.8
			c0.2,0.3,0.3,0.7,0.3,1.1C103.9,265.3,103.8,265.4,103.8,265.5z M100.8,264.1c-0.2,0.2-0.4,0.5-0.4,0.9h2.7c0-0.4-0.2-0.7-0.4-0.9
			c-0.2-0.2-0.6-0.3-0.9-0.3C101.4,263.7,101.1,263.8,100.8,264.1z"/>
		<path class="st0" d="M107.1,267.1c-0.1,0.1-0.3,0.2-0.4,0.2c-0.2,0.1-0.3,0.1-0.5,0.1c-0.4,0-0.8-0.1-1-0.3
			c-0.2-0.2-0.4-0.6-0.4-1v-2.3h-0.7v-0.6h0.7v-0.9h0.8v0.9h1.2v0.6h-1.2v2.3c0,0.2,0.1,0.4,0.2,0.5c0.1,0.1,0.3,0.2,0.5,0.2
			c0.2,0,0.4-0.1,0.6-0.2L107.1,267.1z"/>
		<path class="st0" d="M107.8,262.1c-0.1-0.1-0.1-0.2-0.1-0.4c0-0.1,0-0.3,0.1-0.4c0.1-0.1,0.2-0.1,0.4-0.1c0.1,0,0.3,0,0.4,0.1
			c0.1,0.1,0.1,0.2,0.1,0.3c0,0.1,0,0.3-0.1,0.4c-0.1,0.1-0.2,0.1-0.4,0.1C108.1,262.3,107.9,262.2,107.8,262.1z M107.8,263.1h0.8
			v4.2h-0.8V263.1z"/>
		<path class="st0" d="M113,266.7v0.6h-3.6v-0.5l2.5-3.1h-2.5v-0.6h3.4v0.5l-2.5,3.1H113z"/>
		<path class="st0" d="M116.7,263.5c0.3,0.3,0.5,0.7,0.5,1.3v2.6h-0.7v-0.6c-0.1,0.2-0.3,0.3-0.5,0.5s-0.5,0.2-0.8,0.2
			c-0.5,0-0.9-0.1-1.1-0.3c-0.3-0.2-0.4-0.5-0.4-0.9c0-0.4,0.1-0.7,0.4-0.9c0.3-0.2,0.7-0.3,1.3-0.3h1.2v-0.2c0-0.3-0.1-0.6-0.3-0.8
			s-0.5-0.3-0.8-0.3c-0.3,0-0.5,0-0.7,0.1s-0.4,0.2-0.6,0.3l-0.3-0.6c0.2-0.2,0.5-0.3,0.8-0.4c0.3-0.1,0.6-0.1,1-0.1
			C116,263.1,116.4,263.2,116.7,263.5z M116,266.6c0.2-0.1,0.4-0.3,0.5-0.6v-0.6h-1.2c-0.7,0-1,0.2-1,0.7c0,0.2,0.1,0.4,0.2,0.5
			s0.4,0.2,0.7,0.2S115.8,266.7,116,266.6z"/>
		<path class="st0" d="M122.5,261.4v5.9h-0.7v-0.7c-0.2,0.2-0.4,0.4-0.6,0.5c-0.3,0.1-0.6,0.2-0.9,0.2c-0.4,0-0.8-0.1-1.1-0.3
			s-0.6-0.4-0.8-0.8s-0.3-0.7-0.3-1.1s0.1-0.8,0.3-1.1s0.4-0.6,0.8-0.8s0.7-0.3,1.1-0.3c0.3,0,0.6,0.1,0.8,0.2
			c0.3,0.1,0.5,0.3,0.6,0.5v-2.3H122.5z M121,266.5c0.2-0.1,0.4-0.3,0.5-0.5c0.1-0.2,0.2-0.5,0.2-0.8s-0.1-0.6-0.2-0.8
			c-0.1-0.2-0.3-0.4-0.5-0.5s-0.5-0.2-0.7-0.2c-0.3,0-0.5,0.1-0.7,0.2c-0.2,0.1-0.4,0.3-0.5,0.5s-0.2,0.5-0.2,0.8s0.1,0.6,0.2,0.8
			s0.3,0.4,0.5,0.5c0.2,0.1,0.5,0.2,0.7,0.2C120.6,266.7,120.8,266.7,121,266.5z"/>
		<path class="st0" d="M124.4,267.1c-0.3-0.2-0.6-0.4-0.8-0.8c-0.2-0.3-0.3-0.7-0.3-1.1s0.1-0.8,0.3-1.1c0.2-0.3,0.5-0.6,0.8-0.8
			s0.7-0.3,1.1-0.3c0.4,0,0.8,0.1,1.1,0.3s0.6,0.4,0.8,0.8c0.2,0.3,0.3,0.7,0.3,1.1s-0.1,0.8-0.3,1.1c-0.2,0.3-0.5,0.6-0.8,0.8
			s-0.7,0.3-1.1,0.3C125.1,267.4,124.8,267.3,124.4,267.1z M126.3,266.5c0.2-0.1,0.4-0.3,0.5-0.5c0.1-0.2,0.2-0.5,0.2-0.8
			s-0.1-0.6-0.2-0.8c-0.1-0.2-0.3-0.4-0.5-0.5s-0.5-0.2-0.7-0.2c-0.3,0-0.5,0.1-0.7,0.2c-0.2,0.1-0.4,0.3-0.5,0.5s-0.2,0.5-0.2,0.8
			s0.1,0.6,0.2,0.8s0.3,0.4,0.5,0.5c0.2,0.1,0.5,0.2,0.7,0.2C125.8,266.7,126.1,266.7,126.3,266.5z"/>
		<path class="st0" d="M128.8,267.3c-0.3-0.1-0.6-0.2-0.8-0.4l0.3-0.6c0.2,0.1,0.4,0.2,0.7,0.3c0.3,0.1,0.5,0.1,0.8,0.1
			c0.7,0,1-0.2,1-0.6c0-0.1,0-0.2-0.1-0.3c-0.1-0.1-0.2-0.1-0.3-0.2c-0.1,0-0.3-0.1-0.6-0.1c-0.3-0.1-0.6-0.1-0.8-0.2
			c-0.2-0.1-0.4-0.2-0.6-0.4c-0.2-0.2-0.2-0.4-0.2-0.7c0-0.4,0.2-0.7,0.5-0.9c0.3-0.2,0.8-0.3,1.3-0.3c0.3,0,0.6,0,0.9,0.1
			c0.3,0.1,0.5,0.2,0.7,0.3l-0.3,0.6c-0.3-0.2-0.8-0.3-1.2-0.3c-0.3,0-0.6,0.1-0.7,0.2c-0.2,0.1-0.3,0.2-0.3,0.4
			c0,0.1,0,0.2,0.1,0.3s0.2,0.1,0.4,0.2c0.1,0,0.3,0.1,0.6,0.1c0.3,0.1,0.6,0.1,0.8,0.2c0.2,0.1,0.4,0.2,0.5,0.3
			c0.1,0.2,0.2,0.4,0.2,0.7c0,0.4-0.2,0.7-0.5,0.9c-0.3,0.2-0.8,0.3-1.3,0.3C129.5,267.4,129.2,267.4,128.8,267.3z"/>
	</g>
	<g>
		<path class="st0" d="M201.6,266h-3l-0.6,1.4h-0.8l2.5-5.6h0.8l2.5,5.6h-0.8L201.6,266z M201.3,265.3l-1.2-2.8l-1.2,2.8H201.3z"/>
		<path class="st0" d="M207.1,263.5c0.3,0.3,0.5,0.8,0.5,1.4v2.4h-0.8V265c0-0.4-0.1-0.7-0.3-0.9c-0.2-0.2-0.5-0.3-0.8-0.3
			c-0.4,0-0.7,0.1-1,0.4c-0.2,0.2-0.4,0.6-0.4,1v2.2h-0.8v-4.2h0.7v0.6c0.2-0.2,0.4-0.4,0.6-0.5c0.3-0.1,0.6-0.2,0.9-0.2
			C206.3,263.1,206.8,263.2,207.1,263.5z"/>
		<path class="st0" d="M211.7,263.5c0.3,0.3,0.5,0.7,0.5,1.3v2.6h-0.7v-0.6c-0.1,0.2-0.3,0.3-0.5,0.5c-0.2,0.1-0.5,0.2-0.8,0.2
			c-0.5,0-0.9-0.1-1.1-0.3c-0.3-0.2-0.4-0.5-0.4-0.9c0-0.4,0.1-0.7,0.4-0.9s0.7-0.3,1.3-0.3h1.2v-0.2c0-0.3-0.1-0.6-0.3-0.8
			s-0.5-0.3-0.9-0.3c-0.3,0-0.5,0-0.7,0.1s-0.4,0.2-0.6,0.3l-0.3-0.6c0.2-0.2,0.5-0.3,0.8-0.4c0.3-0.1,0.6-0.1,1-0.1
			C210.9,263.1,211.4,263.2,211.7,263.5z M210.9,266.6c0.2-0.1,0.4-0.3,0.5-0.6v-0.6h-1.2c-0.7,0-1,0.2-1,0.7c0,0.2,0.1,0.4,0.2,0.5
			s0.4,0.2,0.7,0.2S210.7,266.7,210.9,266.6z"/>
		<path class="st0" d="M213.4,261.4h0.8v5.9h-0.8V261.4z"/>
		<path class="st0" d="M216.3,262.7v0.4h1.2v0.6h-1.2v3.6h-0.8v-3.6h-0.7v-0.6h0.7v-0.4c0-0.4,0.1-0.8,0.4-1c0.2-0.2,0.6-0.4,1-0.4
			c0.2,0,0.3,0,0.5,0.1c0.2,0,0.3,0.1,0.4,0.2l-0.2,0.6c-0.2-0.1-0.4-0.2-0.6-0.2C216.5,262,216.3,262.2,216.3,262.7z"/>
		<path class="st0" d="M220.9,263.5c0.3,0.3,0.5,0.7,0.5,1.3v2.6h-0.7v-0.6c-0.1,0.2-0.3,0.3-0.5,0.5c-0.2,0.1-0.5,0.2-0.8,0.2
			c-0.5,0-0.9-0.1-1.1-0.3c-0.3-0.2-0.4-0.5-0.4-0.9c0-0.4,0.1-0.7,0.4-0.9s0.7-0.3,1.3-0.3h1.2v-0.2c0-0.3-0.1-0.6-0.3-0.8
			s-0.5-0.3-0.9-0.3c-0.3,0-0.5,0-0.7,0.1s-0.4,0.2-0.6,0.3l-0.3-0.6c0.2-0.2,0.5-0.3,0.8-0.4c0.3-0.1,0.6-0.1,1-0.1
			C220.1,263.1,220.6,263.2,220.9,263.5z M220.1,266.6c0.2-0.1,0.4-0.3,0.5-0.6v-0.6h-1.2c-0.7,0-1,0.2-1,0.7c0,0.2,0.1,0.4,0.2,0.5
			s0.4,0.2,0.7,0.2S219.9,266.7,220.1,266.6z"/>
		<path class="st0" d="M225.9,263.3c0.3,0.2,0.6,0.4,0.8,0.8s0.3,0.7,0.3,1.1s-0.1,0.8-0.3,1.1s-0.4,0.6-0.8,0.8s-0.7,0.3-1.1,0.3
			c-0.3,0-0.6-0.1-0.9-0.2c-0.3-0.1-0.5-0.3-0.6-0.5v0.7h-0.7v-5.9h0.8v2.3c0.2-0.2,0.4-0.4,0.6-0.5s0.5-0.2,0.8-0.2
			C225.2,263.1,225.6,263.2,225.9,263.3z M225.5,266.5c0.2-0.1,0.4-0.3,0.5-0.5c0.1-0.2,0.2-0.5,0.2-0.8s-0.1-0.6-0.2-0.8
			c-0.1-0.2-0.3-0.4-0.5-0.5c-0.2-0.1-0.5-0.2-0.7-0.2c-0.3,0-0.5,0.1-0.7,0.2c-0.2,0.1-0.4,0.3-0.5,0.5s-0.2,0.5-0.2,0.8
			s0.1,0.6,0.2,0.8s0.3,0.4,0.5,0.5c0.2,0.1,0.5,0.2,0.7,0.2C225,266.7,225.3,266.7,225.5,266.5z"/>
		<path class="st0" d="M231.7,265.5h-3.4c0,0.4,0.2,0.7,0.5,0.9c0.3,0.2,0.6,0.3,1,0.3c0.5,0,0.9-0.2,1.2-0.5l0.4,0.5
			c-0.2,0.2-0.4,0.4-0.7,0.5c-0.3,0.1-0.6,0.2-1,0.2c-0.4,0-0.8-0.1-1.2-0.3c-0.3-0.2-0.6-0.4-0.8-0.8c-0.2-0.3-0.3-0.7-0.3-1.1
			c0-0.4,0.1-0.8,0.3-1.1c0.2-0.3,0.4-0.6,0.8-0.8s0.7-0.3,1.1-0.3s0.8,0.1,1.1,0.3s0.6,0.4,0.7,0.8c0.2,0.3,0.3,0.7,0.3,1.1
			C231.7,265.3,231.7,265.4,231.7,265.5z M228.7,264.1c-0.2,0.2-0.4,0.5-0.4,0.9h2.7c0-0.4-0.2-0.7-0.4-0.9
			c-0.2-0.2-0.6-0.3-0.9-0.3C229.2,263.7,228.9,263.8,228.7,264.1z"/>
		<path class="st0" d="M234.9,267.1c-0.1,0.1-0.3,0.2-0.4,0.2c-0.2,0.1-0.3,0.1-0.5,0.1c-0.4,0-0.8-0.1-1-0.3
			c-0.2-0.2-0.4-0.6-0.4-1v-2.3h-0.7v-0.6h0.7v-0.9h0.8v0.9h1.2v0.6h-1.2v2.3c0,0.2,0.1,0.4,0.2,0.5c0.1,0.1,0.3,0.2,0.5,0.2
			c0.2,0,0.4-0.1,0.6-0.2L234.9,267.1z"/>
		<path class="st0" d="M236.2,267.1c-0.3-0.2-0.6-0.4-0.8-0.8c-0.2-0.3-0.3-0.7-0.3-1.1s0.1-0.8,0.3-1.1c0.2-0.3,0.5-0.6,0.8-0.8
			s0.7-0.3,1.1-0.3c0.4,0,0.8,0.1,1.1,0.3c0.3,0.2,0.6,0.4,0.8,0.8s0.3,0.7,0.3,1.1s-0.1,0.8-0.3,1.1c-0.2,0.3-0.5,0.6-0.8,0.8
			c-0.3,0.2-0.7,0.3-1.1,0.3C236.9,267.4,236.5,267.3,236.2,267.1z M238.1,266.5c0.2-0.1,0.4-0.3,0.5-0.5s0.2-0.5,0.2-0.8
			s-0.1-0.6-0.2-0.8s-0.3-0.4-0.5-0.5s-0.5-0.2-0.7-0.2s-0.5,0.1-0.7,0.2c-0.2,0.1-0.4,0.3-0.5,0.5s-0.2,0.5-0.2,0.8
			s0.1,0.6,0.2,0.8s0.3,0.4,0.5,0.5c0.2,0.1,0.5,0.2,0.7,0.2S237.9,266.7,238.1,266.5z"/>
		<path class="st0" d="M240.6,267.3c-0.3-0.1-0.6-0.2-0.8-0.4l0.3-0.6c0.2,0.1,0.4,0.2,0.7,0.3c0.3,0.1,0.5,0.1,0.8,0.1
			c0.7,0,1-0.2,1-0.6c0-0.1,0-0.2-0.1-0.3c-0.1-0.1-0.2-0.1-0.3-0.2c-0.1,0-0.3-0.1-0.6-0.1c-0.3-0.1-0.6-0.1-0.8-0.2
			c-0.2-0.1-0.4-0.2-0.6-0.4c-0.2-0.2-0.2-0.4-0.2-0.7c0-0.4,0.2-0.7,0.5-0.9c0.3-0.2,0.8-0.3,1.3-0.3c0.3,0,0.6,0,0.8,0.1
			c0.3,0.1,0.5,0.2,0.7,0.3l-0.3,0.6c-0.3-0.2-0.8-0.3-1.2-0.3c-0.3,0-0.6,0.1-0.7,0.2c-0.2,0.1-0.3,0.2-0.3,0.4
			c0,0.1,0,0.2,0.1,0.3c0.1,0.1,0.2,0.1,0.4,0.2c0.1,0,0.3,0.1,0.6,0.1c0.3,0.1,0.6,0.1,0.8,0.2c0.2,0.1,0.4,0.2,0.5,0.3
			c0.1,0.2,0.2,0.4,0.2,0.7c0,0.4-0.2,0.7-0.5,0.9c-0.3,0.2-0.8,0.3-1.3,0.3C241.3,267.4,241,267.4,240.6,267.3z"/>
	</g>
	<g>
		<path class="st0" d="M63.1,243.5h-1.3v-0.8h3.5v0.8H64v3.3h-0.9V243.5z"/>
		<path class="st0" d="M66.4,246.5c-0.3-0.2-0.6-0.4-0.8-0.7c-0.2-0.3-0.3-0.7-0.3-1.1c0-0.4,0.1-0.7,0.3-1.1
			c0.2-0.3,0.5-0.6,0.8-0.7s0.7-0.3,1.1-0.3c0.4,0,0.8,0.1,1.1,0.3c0.3,0.2,0.6,0.4,0.8,0.7c0.2,0.3,0.3,0.7,0.3,1.1
			c0,0.4-0.1,0.7-0.3,1.1c-0.2,0.3-0.5,0.6-0.8,0.7c-0.3,0.2-0.7,0.3-1.1,0.3C67.1,246.8,66.8,246.7,66.4,246.5z M68.2,245.9
			c0.2-0.1,0.3-0.3,0.4-0.5c0.1-0.2,0.2-0.4,0.2-0.7c0-0.2-0.1-0.5-0.2-0.7c-0.1-0.2-0.3-0.3-0.4-0.5s-0.4-0.2-0.6-0.2
			c-0.2,0-0.5,0.1-0.6,0.2s-0.3,0.3-0.4,0.5c-0.1,0.2-0.2,0.4-0.2,0.7c0,0.2,0.1,0.5,0.2,0.7c0.1,0.2,0.3,0.3,0.4,0.5
			s0.4,0.2,0.6,0.2C67.8,246,68,246,68.2,245.9z"/>
		<path class="st0" d="M71.1,243.5h-1.3v-0.8h3.5v0.8H72v3.3h-0.9V243.5z"/>
		<path class="st0" d="M76.1,245.9h-1.9l-0.4,0.9h-1l1.8-4h0.9l1.8,4h-1L76.1,245.9z M75.8,245.2l-0.6-1.5l-0.6,1.5H75.8z"/>
		<path class="st0" d="M77.7,242.7h0.9v3.3h2v0.8h-2.9V242.7z"/>
	</g>
	<g>
		<path class="st0" d="M124,243.5h-1.3v-0.8h3.5v0.8H125v3.3H124V243.5z"/>
		<path class="st0" d="M129.7,246v0.7h-3.1v-4h3v0.7h-2.1v0.9h1.9v0.7h-1.9v0.9H129.7z"/>
		<path class="st0" d="M132.9,246.7l-0.8-1.1h0h-0.8v1.1h-0.9v-4h1.7c0.4,0,0.7,0.1,0.9,0.2c0.3,0.1,0.5,0.3,0.6,0.5
			s0.2,0.5,0.2,0.8c0,0.3-0.1,0.6-0.2,0.8s-0.3,0.4-0.6,0.5l0.9,1.3H132.9z M132.6,243.7c-0.1-0.1-0.4-0.2-0.6-0.2h-0.8v1.4h0.8
			c0.3,0,0.5-0.1,0.6-0.2c0.1-0.1,0.2-0.3,0.2-0.5C132.8,244,132.8,243.8,132.6,243.7z"/>
		<path class="st0" d="M136.9,246.7l-0.8-1.1h0h-0.8v1.1h-0.9v-4h1.7c0.4,0,0.7,0.1,0.9,0.2c0.3,0.1,0.5,0.3,0.6,0.5
			s0.2,0.5,0.2,0.8c0,0.3-0.1,0.6-0.2,0.8s-0.3,0.4-0.6,0.5l0.9,1.3H136.9z M136.7,243.7c-0.1-0.1-0.4-0.2-0.6-0.2h-0.8v1.4h0.8
			c0.3,0,0.5-0.1,0.6-0.2c0.1-0.1,0.2-0.3,0.2-0.5C136.9,244,136.8,243.8,136.7,243.7z"/>
		<path class="st0" d="M141.1,245.9h-1.9l-0.4,0.9h-1l1.8-4h0.9l1.8,4h-1L141.1,245.9z M140.8,245.2l-0.6-1.5l-0.6,1.5H140.8z"/>
		<path class="st0" d="M143.1,246.7c-0.3-0.1-0.5-0.2-0.7-0.3l0.3-0.7c0.2,0.1,0.4,0.2,0.6,0.3c0.2,0.1,0.5,0.1,0.7,0.1
			c0.3,0,0.5,0,0.6-0.1s0.2-0.2,0.2-0.3c0-0.1,0-0.2-0.1-0.2c-0.1-0.1-0.2-0.1-0.3-0.2c-0.1,0-0.3-0.1-0.5-0.1
			c-0.3-0.1-0.6-0.1-0.8-0.2c-0.2-0.1-0.4-0.2-0.5-0.3c-0.1-0.2-0.2-0.4-0.2-0.6c0-0.2,0.1-0.4,0.2-0.6s0.3-0.3,0.6-0.4
			c0.3-0.1,0.6-0.2,0.9-0.2c0.3,0,0.5,0,0.8,0.1c0.2,0.1,0.5,0.1,0.6,0.3l-0.3,0.7c-0.4-0.2-0.7-0.3-1.1-0.3c-0.3,0-0.5,0-0.6,0.1
			s-0.2,0.2-0.2,0.3s0.1,0.2,0.2,0.3c0.1,0.1,0.4,0.1,0.7,0.2c0.3,0.1,0.6,0.1,0.8,0.2s0.4,0.2,0.5,0.3c0.1,0.2,0.2,0.4,0.2,0.6
			c0,0.2-0.1,0.4-0.2,0.6c-0.1,0.2-0.3,0.3-0.6,0.4c-0.3,0.1-0.6,0.2-0.9,0.2C143.7,246.8,143.4,246.8,143.1,246.7z"/>
		<path class="st0" d="M147.7,242.7h0.9v4h-0.9V242.7z"/>
		<path class="st0" d="M153.1,242.7v4h-0.8l-2-2.4v2.4h-0.9v-4h0.8l2,2.4v-2.4H153.1z"/>
		<path class="st0" d="M153.9,242.7h1.8c0.4,0,0.8,0.1,1.2,0.2c0.3,0.2,0.6,0.4,0.8,0.7c0.2,0.3,0.3,0.7,0.3,1.1
			c0,0.4-0.1,0.8-0.3,1.1c-0.2,0.3-0.4,0.5-0.8,0.7c-0.3,0.2-0.7,0.2-1.2,0.2h-1.8V242.7z M155.7,246c0.4,0,0.7-0.1,1-0.3
			s0.4-0.5,0.4-0.9c0-0.4-0.1-0.7-0.4-0.9s-0.6-0.3-1-0.3h-0.8v2.5H155.7z"/>
		<path class="st0" d="M159.2,241.6h1l-1,0.8h-0.7L159.2,241.6z M158.5,242.7h0.9v4h-0.9V242.7z"/>
		<path class="st0" d="M162.9,244.7h0.8v1.6c-0.2,0.2-0.5,0.3-0.8,0.4c-0.3,0.1-0.6,0.1-0.9,0.1c-0.4,0-0.8-0.1-1.1-0.3
			c-0.3-0.2-0.6-0.4-0.8-0.7c-0.2-0.3-0.3-0.7-0.3-1.1c0-0.4,0.1-0.8,0.3-1.1c0.2-0.3,0.5-0.6,0.8-0.7s0.7-0.3,1.1-0.3
			c0.4,0,0.7,0.1,1,0.2c0.3,0.1,0.5,0.3,0.7,0.5l-0.6,0.5c-0.3-0.3-0.6-0.5-1-0.5c-0.3,0-0.5,0.1-0.7,0.2c-0.2,0.1-0.4,0.3-0.5,0.5
			c-0.1,0.2-0.2,0.4-0.2,0.7c0,0.2,0.1,0.5,0.2,0.7c0.1,0.2,0.3,0.3,0.5,0.5s0.4,0.2,0.7,0.2c0.3,0,0.5-0.1,0.7-0.2V244.7z"/>
		<path class="st0" d="M167.6,246v0.7h-3.1v-4h3v0.7h-2.1v0.9h1.9v0.7h-1.9v0.9H167.6z"/>
		<path class="st0" d="M171.9,242.7v4h-0.8l-2-2.4v2.4h-0.9v-4h0.8l2,2.4v-2.4H171.9z"/>
		<path class="st0" d="M175.3,245.9h-1.9l-0.4,0.9h-1l1.8-4h0.9l1.8,4h-1L175.3,245.9z M175,245.2l-0.6-1.5l-0.6,1.5H175z"/>
		<path class="st0" d="M177.3,246.7c-0.3-0.1-0.5-0.2-0.7-0.3l0.3-0.7c0.2,0.1,0.4,0.2,0.6,0.3c0.2,0.1,0.5,0.1,0.7,0.1
			c0.3,0,0.5,0,0.6-0.1s0.2-0.2,0.2-0.3c0-0.1,0-0.2-0.1-0.2c-0.1-0.1-0.2-0.1-0.3-0.2c-0.1,0-0.3-0.1-0.5-0.1
			c-0.3-0.1-0.6-0.1-0.8-0.2c-0.2-0.1-0.4-0.2-0.5-0.3c-0.1-0.2-0.2-0.4-0.2-0.6c0-0.2,0.1-0.4,0.2-0.6s0.3-0.3,0.6-0.4
			c0.3-0.1,0.6-0.2,0.9-0.2c0.3,0,0.5,0,0.8,0.1c0.2,0.1,0.5,0.1,0.6,0.3l-0.3,0.7c-0.4-0.2-0.7-0.3-1.1-0.3c-0.3,0-0.5,0-0.6,0.1
			s-0.2,0.2-0.2,0.3s0.1,0.2,0.2,0.3c0.1,0.1,0.4,0.1,0.7,0.2c0.3,0.1,0.6,0.1,0.8,0.2s0.4,0.2,0.5,0.3s0.2,0.4,0.2,0.6
			c0,0.2-0.1,0.4-0.2,0.6c-0.1,0.2-0.3,0.3-0.6,0.4c-0.3,0.1-0.6,0.2-0.9,0.2C177.9,246.8,177.6,246.8,177.3,246.7z"/>
	</g>
	<g>
		<path class="st0" d="M188.5,243.5v1.1h1.9v0.7h-1.9v1.5h-0.9v-4h3v0.7H188.5z"/>
		<path class="st0" d="M191.8,246.5c-0.3-0.2-0.6-0.4-0.8-0.7c-0.2-0.3-0.3-0.7-0.3-1.1c0-0.4,0.1-0.7,0.3-1.1
			c0.2-0.3,0.5-0.6,0.8-0.7s0.7-0.3,1.1-0.3s0.8,0.1,1.1,0.3s0.6,0.4,0.8,0.7c0.2,0.3,0.3,0.7,0.3,1.1c0,0.4-0.1,0.7-0.3,1.1
			c-0.2,0.3-0.5,0.6-0.8,0.7s-0.7,0.3-1.1,0.3S192.2,246.7,191.8,246.5z M193.6,245.9c0.2-0.1,0.3-0.3,0.4-0.5
			c0.1-0.2,0.2-0.4,0.2-0.7c0-0.2-0.1-0.5-0.2-0.7c-0.1-0.2-0.3-0.3-0.4-0.5c-0.2-0.1-0.4-0.2-0.6-0.2c-0.2,0-0.5,0.1-0.6,0.2
			c-0.2,0.1-0.3,0.3-0.4,0.5c-0.1,0.2-0.2,0.4-0.2,0.7c0,0.2,0.1,0.5,0.2,0.7c0.1,0.2,0.3,0.3,0.4,0.5c0.2,0.1,0.4,0.2,0.6,0.2
			C193.2,246,193.4,246,193.6,245.9z"/>
		<path class="st0" d="M198.3,246.7l-0.8-1.1h0h-0.8v1.1h-0.9v-4h1.7c0.4,0,0.7,0.1,0.9,0.2c0.3,0.1,0.5,0.3,0.6,0.5
			c0.1,0.2,0.2,0.5,0.2,0.8c0,0.3-0.1,0.6-0.2,0.8c-0.1,0.2-0.3,0.4-0.6,0.5l0.9,1.3H198.3z M198,243.7c-0.1-0.1-0.4-0.2-0.6-0.2
			h-0.8v1.4h0.8c0.3,0,0.5-0.1,0.6-0.2c0.1-0.1,0.2-0.3,0.2-0.5C198.2,244,198.2,243.8,198,243.7z"/>
		<path class="st0" d="M202.4,245.9h-1.9l-0.4,0.9h-1l1.8-4h0.9l1.8,4h-1L202.4,245.9z M202.1,245.2l-0.6-1.5l-0.6,1.5H202.1z"/>
		<path class="st0" d="M205.5,242.7h1.8c0.4,0,0.8,0.1,1.2,0.2s0.6,0.4,0.8,0.7c0.2,0.3,0.3,0.7,0.3,1.1c0,0.4-0.1,0.8-0.3,1.1
			c-0.2,0.3-0.4,0.5-0.8,0.7s-0.7,0.2-1.2,0.2h-1.8V242.7z M207.3,246c0.4,0,0.7-0.1,1-0.3s0.4-0.5,0.4-0.9c0-0.4-0.1-0.7-0.4-0.9
			s-0.6-0.3-1-0.3h-0.8v2.5H207.3z"/>
		<path class="st0" d="M212.7,245.9h-1.9l-0.4,0.9h-1l1.8-4h0.9l1.8,4h-1L212.7,245.9z M212.4,245.2l-0.6-1.5l-0.6,1.5H212.4z"/>
		<path class="st0" d="M214.7,246.7c-0.3-0.1-0.5-0.2-0.7-0.3l0.3-0.7c0.2,0.1,0.4,0.2,0.6,0.3c0.2,0.1,0.5,0.1,0.7,0.1
			c0.3,0,0.5,0,0.6-0.1s0.2-0.2,0.2-0.3c0-0.1,0-0.2-0.1-0.2c-0.1-0.1-0.2-0.1-0.3-0.2c-0.1,0-0.3-0.1-0.5-0.1
			c-0.3-0.1-0.6-0.1-0.8-0.2c-0.2-0.1-0.4-0.2-0.5-0.3c-0.1-0.2-0.2-0.4-0.2-0.6c0-0.2,0.1-0.4,0.2-0.6s0.3-0.3,0.6-0.4
			c0.3-0.1,0.6-0.2,0.9-0.2c0.3,0,0.5,0,0.8,0.1c0.2,0.1,0.5,0.1,0.6,0.3l-0.3,0.7c-0.4-0.2-0.7-0.3-1.1-0.3c-0.3,0-0.5,0-0.6,0.1
			s-0.2,0.2-0.2,0.3s0.1,0.2,0.2,0.3c0.1,0.1,0.4,0.1,0.7,0.2c0.3,0.1,0.6,0.1,0.8,0.2s0.4,0.2,0.5,0.3s0.2,0.4,0.2,0.6
			c0,0.2-0.1,0.4-0.2,0.6c-0.1,0.2-0.3,0.3-0.6,0.4c-0.3,0.1-0.6,0.2-0.9,0.2C215.3,246.8,215,246.8,214.7,246.7z"/>
		<path class="st0" d="M220.1,243.5h-1.3v-0.8h3.5v0.8H221v3.3h-0.9V243.5z"/>
		<path class="st0" d="M225.8,246v0.7h-3.1v-4h3v0.7h-2.1v0.9h1.9v0.7h-1.9v0.9H225.8z"/>
		<path class="st0" d="M228.9,246.7l-0.8-1.1h0h-0.8v1.1h-0.9v-4h1.7c0.4,0,0.7,0.1,0.9,0.2c0.3,0.1,0.5,0.3,0.6,0.5
			c0.1,0.2,0.2,0.5,0.2,0.8c0,0.3-0.1,0.6-0.2,0.8c-0.1,0.2-0.3,0.4-0.6,0.5l0.9,1.3H228.9z M228.7,243.7c-0.1-0.1-0.4-0.2-0.6-0.2
			h-0.8v1.4h0.8c0.3,0,0.5-0.1,0.6-0.2c0.1-0.1,0.2-0.3,0.2-0.5C228.9,244,228.8,243.8,228.7,243.7z"/>
		<path class="st0" d="M233,246.7l-0.8-1.1h0h-0.8v1.1h-0.9v-4h1.7c0.4,0,0.7,0.1,0.9,0.2c0.3,0.1,0.5,0.3,0.6,0.5
			c0.1,0.2,0.2,0.5,0.2,0.8c0,0.3-0.1,0.6-0.2,0.8c-0.1,0.2-0.3,0.4-0.6,0.5l0.9,1.3H233z M232.7,243.7c-0.1-0.1-0.4-0.2-0.6-0.2
			h-0.8v1.4h0.8c0.3,0,0.5-0.1,0.6-0.2c0.1-0.1,0.2-0.3,0.2-0.5C232.9,244,232.9,243.8,232.7,243.7z"/>
		<path class="st0" d="M237.1,245.9h-1.9l-0.4,0.9h-1l1.8-4h0.9l1.8,4h-1L237.1,245.9z M236.8,245.2l-0.6-1.5l-0.6,1.5H236.8z"/>
		<path class="st0" d="M239.1,246.7c-0.3-0.1-0.5-0.2-0.7-0.3l0.3-0.7c0.2,0.1,0.4,0.2,0.6,0.3c0.2,0.1,0.5,0.1,0.7,0.1
			c0.3,0,0.5,0,0.6-0.1s0.2-0.2,0.2-0.3c0-0.1,0-0.2-0.1-0.2c-0.1-0.1-0.2-0.1-0.3-0.2c-0.1,0-0.3-0.1-0.5-0.1
			c-0.3-0.1-0.6-0.1-0.8-0.2c-0.2-0.1-0.4-0.2-0.5-0.3c-0.1-0.2-0.2-0.4-0.2-0.6c0-0.2,0.1-0.4,0.2-0.6s0.3-0.3,0.6-0.4
			c0.3-0.1,0.6-0.2,0.9-0.2c0.3,0,0.5,0,0.8,0.1c0.2,0.1,0.5,0.1,0.6,0.3l-0.3,0.7c-0.4-0.2-0.7-0.3-1.1-0.3c-0.3,0-0.5,0-0.6,0.1
			s-0.2,0.2-0.2,0.3s0.1,0.2,0.2,0.3c0.1,0.1,0.4,0.1,0.7,0.2c0.3,0.1,0.6,0.1,0.8,0.2s0.4,0.2,0.5,0.3s0.2,0.4,0.2,0.6
			c0,0.2-0.1,0.4-0.2,0.6c-0.1,0.2-0.3,0.3-0.6,0.4c-0.3,0.1-0.6,0.2-0.9,0.2C239.7,246.8,239.4,246.8,239.1,246.7z"/>
		<path class="st0" d="M243.7,242.7h0.9v4h-0.9V242.7z"/>
		<path class="st0" d="M249.1,242.7v4h-0.8l-2-2.4v2.4h-0.9v-4h0.8l2,2.4v-2.4H249.1z"/>
		<path class="st0" d="M249.9,242.7h1.8c0.4,0,0.8,0.1,1.2,0.2s0.6,0.4,0.8,0.7c0.2,0.3,0.3,0.7,0.3,1.1c0,0.4-0.1,0.8-0.3,1.1
			c-0.2,0.3-0.4,0.5-0.8,0.7s-0.7,0.2-1.2,0.2h-1.8V242.7z M251.7,246c0.4,0,0.7-0.1,1-0.3s0.4-0.5,0.4-0.9c0-0.4-0.1-0.7-0.4-0.9
			s-0.6-0.3-1-0.3h-0.8v2.5H251.7z"/>
		<path class="st0" d="M255.2,241.6h1l-1,0.8h-0.7L255.2,241.6z M254.5,242.7h0.9v4h-0.9V242.7z"/>
		<path class="st0" d="M259,244.7h0.8v1.6c-0.2,0.2-0.5,0.3-0.8,0.4c-0.3,0.1-0.6,0.1-0.9,0.1c-0.4,0-0.8-0.1-1.1-0.3
			c-0.3-0.2-0.6-0.4-0.8-0.7c-0.2-0.3-0.3-0.7-0.3-1.1c0-0.4,0.1-0.8,0.3-1.1c0.2-0.3,0.5-0.6,0.8-0.7s0.7-0.3,1.1-0.3
			c0.4,0,0.7,0.1,1,0.2c0.3,0.1,0.5,0.3,0.7,0.5l-0.6,0.5c-0.3-0.3-0.6-0.5-1-0.5c-0.3,0-0.5,0.1-0.7,0.2c-0.2,0.1-0.4,0.3-0.5,0.5
			c-0.1,0.2-0.2,0.4-0.2,0.7c0,0.2,0.1,0.5,0.2,0.7c0.1,0.2,0.3,0.3,0.5,0.5c0.2,0.1,0.4,0.2,0.7,0.2c0.3,0,0.5-0.1,0.7-0.2V244.7z"
			/>
		<path class="st0" d="M263.6,246v0.7h-3.1v-4h3v0.7h-2.1v0.9h1.9v0.7h-1.9v0.9H263.6z"/>
		<path class="st0" d="M267.9,242.7v4h-0.8l-2-2.4v2.4h-0.9v-4h0.8l2,2.4v-2.4H267.9z"/>
		<path class="st0" d="M271.3,245.9h-1.9l-0.4,0.9h-1l1.8-4h0.9l1.8,4h-1L271.3,245.9z M271.1,245.2l-0.6-1.5l-0.6,1.5H271.1z"/>
		<path class="st0" d="M273.3,246.7c-0.3-0.1-0.5-0.2-0.7-0.3l0.3-0.7c0.2,0.1,0.4,0.2,0.6,0.3c0.2,0.1,0.5,0.1,0.7,0.1
			c0.3,0,0.5,0,0.6-0.1s0.2-0.2,0.2-0.3c0-0.1,0-0.2-0.1-0.2c-0.1-0.1-0.2-0.1-0.3-0.2c-0.1,0-0.3-0.1-0.5-0.1
			c-0.3-0.1-0.6-0.1-0.8-0.2c-0.2-0.1-0.4-0.2-0.5-0.3c-0.1-0.2-0.2-0.4-0.2-0.6c0-0.2,0.1-0.4,0.2-0.6s0.3-0.3,0.6-0.4
			c0.3-0.1,0.6-0.2,0.9-0.2c0.3,0,0.5,0,0.8,0.1c0.2,0.1,0.5,0.1,0.6,0.3l-0.3,0.7c-0.4-0.2-0.7-0.3-1.1-0.3c-0.3,0-0.5,0-0.6,0.1
			s-0.2,0.2-0.2,0.3s0.1,0.2,0.2,0.3c0.1,0.1,0.4,0.1,0.7,0.2c0.3,0.1,0.6,0.1,0.8,0.2s0.4,0.2,0.5,0.3s0.2,0.4,0.2,0.6
			c0,0.2-0.1,0.4-0.2,0.6c-0.1,0.2-0.3,0.3-0.6,0.4c-0.3,0.1-0.6,0.2-0.9,0.2C274,246.8,273.6,246.8,273.3,246.7z"/>
	</g>
	<g>
		<path class="st6" d="M50.3,116.3v0.8l-2.1,4.8h-1.4l2-4.6h-1.9v0.9h-1.2v-2H50.3z"/>
		<path class="st6" d="M54.2,118.6c0.3,0.1,0.5,0.3,0.7,0.6c0.2,0.3,0.3,0.6,0.3,0.9c0,0.4-0.1,0.7-0.3,1c-0.2,0.3-0.4,0.5-0.8,0.7
			c-0.3,0.2-0.7,0.2-1.1,0.2c-0.8,0-1.4-0.2-1.8-0.7c-0.4-0.5-0.7-1.2-0.7-2.1c0-0.6,0.1-1.2,0.4-1.6c0.2-0.5,0.6-0.8,1-1
			c0.4-0.2,0.9-0.4,1.5-0.4c0.3,0,0.6,0,0.9,0.1c0.3,0.1,0.5,0.2,0.7,0.3l-0.5,1c-0.3-0.2-0.6-0.3-1.1-0.3c-0.5,0-0.9,0.1-1.1,0.4
			s-0.4,0.7-0.4,1.2c0.3-0.3,0.8-0.5,1.4-0.5C53.6,118.4,53.9,118.4,54.2,118.6z M53.6,120.8c0.2-0.1,0.3-0.4,0.3-0.6
			c0-0.3-0.1-0.5-0.3-0.6c-0.2-0.2-0.4-0.2-0.7-0.2c-0.3,0-0.5,0.1-0.7,0.2c-0.2,0.2-0.3,0.4-0.3,0.6c0,0.2,0.1,0.4,0.3,0.6
			c0.2,0.2,0.4,0.2,0.7,0.2C53.2,121,53.4,120.9,53.6,120.8z"/>
		<path class="st6" d="M55.7,121.7c-0.1-0.1-0.2-0.3-0.2-0.6c0-0.2,0.1-0.4,0.2-0.6c0.1-0.1,0.3-0.2,0.6-0.2s0.4,0.1,0.6,0.2
			c0.1,0.1,0.2,0.3,0.2,0.6c0,0.2-0.1,0.4-0.2,0.6c-0.1,0.1-0.3,0.2-0.6,0.2S55.8,121.9,55.7,121.7z"/>
		<path class="st6" d="M61,118.6c0.3,0.1,0.5,0.3,0.7,0.6c0.2,0.3,0.3,0.6,0.3,0.9c0,0.4-0.1,0.7-0.3,1c-0.2,0.3-0.4,0.5-0.8,0.7
			c-0.3,0.2-0.7,0.2-1.1,0.2c-0.8,0-1.4-0.2-1.8-0.7c-0.4-0.5-0.7-1.2-0.7-2.1c0-0.6,0.1-1.2,0.4-1.6c0.2-0.5,0.6-0.8,1-1
			c0.4-0.2,0.9-0.4,1.5-0.4c0.3,0,0.6,0,0.9,0.1c0.3,0.1,0.5,0.2,0.7,0.3l-0.5,1c-0.3-0.2-0.6-0.3-1.1-0.3c-0.5,0-0.9,0.1-1.1,0.4
			s-0.4,0.7-0.4,1.2c0.3-0.3,0.8-0.5,1.4-0.5C60.3,118.4,60.7,118.4,61,118.6z M60.4,120.8c0.2-0.1,0.3-0.4,0.3-0.6
			c0-0.3-0.1-0.5-0.3-0.6c-0.2-0.2-0.4-0.2-0.7-0.2c-0.3,0-0.5,0.1-0.7,0.2c-0.2,0.2-0.3,0.4-0.3,0.6c0,0.2,0.1,0.4,0.3,0.6
			c0.2,0.2,0.4,0.2,0.7,0.2C60,121,60.2,120.9,60.4,120.8z"/>
	</g>
	<g>
		<path class="st6" d="M132.3,133.5c0.3,0.1,0.5,0.3,0.7,0.6c0.2,0.3,0.3,0.6,0.3,0.9c0,0.4-0.1,0.7-0.3,1c-0.2,0.3-0.4,0.5-0.8,0.7
			c-0.3,0.2-0.7,0.2-1.1,0.2c-0.8,0-1.4-0.2-1.8-0.7c-0.4-0.5-0.7-1.2-0.7-2.1c0-0.6,0.1-1.2,0.4-1.6c0.2-0.5,0.6-0.8,1-1
			c0.4-0.2,0.9-0.4,1.5-0.4c0.3,0,0.6,0,0.9,0.1c0.3,0.1,0.5,0.2,0.7,0.3l-0.5,1c-0.3-0.2-0.6-0.3-1.1-0.3c-0.5,0-0.9,0.1-1.1,0.4
			s-0.4,0.7-0.4,1.2c0.3-0.3,0.8-0.5,1.4-0.5C131.7,133.3,132,133.3,132.3,133.5z M131.7,135.7c0.2-0.1,0.3-0.4,0.3-0.6
			c0-0.3-0.1-0.5-0.3-0.6c-0.2-0.2-0.4-0.2-0.7-0.2c-0.3,0-0.5,0.1-0.7,0.2c-0.2,0.2-0.3,0.4-0.3,0.6c0,0.2,0.1,0.4,0.3,0.6
			c0.2,0.2,0.4,0.2,0.7,0.2C131.3,135.9,131.6,135.8,131.7,135.7z"/>
		<path class="st6" d="M137.9,131.2v0.8l-2.1,4.8h-1.4l2-4.6h-1.9v0.9h-1.2v-2H137.9z"/>
		<path class="st6" d="M139.2,135.5c0.1,0.1,0.2,0.3,0.2,0.6c0,0.1,0,0.2,0,0.3c0,0.1-0.1,0.3-0.2,0.5l-0.5,1.2h-0.8l0.4-1.3
			c-0.1-0.1-0.2-0.1-0.3-0.3c-0.1-0.1-0.1-0.3-0.1-0.4c0-0.2,0.1-0.4,0.2-0.6s0.3-0.2,0.6-0.2C138.8,135.3,139,135.4,139.2,135.5z"
			/>
		<path class="st6" d="M144,131.2v0.8l-2.1,4.8h-1.4l2-4.6h-1.9v0.9h-1.2v-2H144z"/>
	</g>
	<g>
		<path class="st6" d="M214.2,104.6c0.1,0.2,0.2,0.5,0.2,0.8c0,0.3-0.1,0.7-0.3,0.9c-0.2,0.3-0.5,0.5-0.8,0.6
			c-0.4,0.1-0.8,0.2-1.2,0.2s-0.9-0.1-1.2-0.2s-0.6-0.3-0.8-0.6c-0.2-0.3-0.3-0.6-0.3-0.9c0-0.3,0.1-0.6,0.2-0.8
			c0.1-0.2,0.4-0.4,0.6-0.5c-0.2-0.1-0.4-0.3-0.5-0.5s-0.2-0.4-0.2-0.7c0-0.3,0.1-0.6,0.3-0.9c0.2-0.2,0.4-0.4,0.8-0.6
			s0.7-0.2,1.1-0.2c0.4,0,0.8,0.1,1.1,0.2c0.3,0.1,0.6,0.3,0.8,0.6c0.2,0.2,0.3,0.5,0.3,0.9c0,0.3-0.1,0.5-0.2,0.7s-0.3,0.4-0.5,0.5
			C213.9,104.2,214.1,104.4,214.2,104.6z M212.9,105.9c0.2-0.1,0.3-0.3,0.3-0.6c0-0.2-0.1-0.4-0.3-0.6c-0.2-0.1-0.4-0.2-0.8-0.2
			c-0.3,0-0.6,0.1-0.8,0.2c-0.2,0.1-0.3,0.3-0.3,0.6c0,0.3,0.1,0.4,0.3,0.6c0.2,0.1,0.4,0.2,0.8,0.2
			C212.4,106.1,212.7,106.1,212.9,105.9z M211.5,102.4c-0.2,0.1-0.2,0.3-0.2,0.5c0,0.2,0.1,0.4,0.2,0.5c0.2,0.1,0.4,0.2,0.6,0.2
			s0.5-0.1,0.6-0.2c0.2-0.1,0.2-0.3,0.2-0.5c0-0.2-0.1-0.4-0.2-0.5s-0.4-0.2-0.6-0.2C211.8,102.3,211.6,102.3,211.5,102.4z"/>
		<path class="st6" d="M218.5,104c0.4,0.3,0.6,0.7,0.6,1.3c0,0.3-0.1,0.7-0.3,0.9c-0.2,0.3-0.4,0.5-0.8,0.7
			c-0.3,0.2-0.8,0.3-1.3,0.3c-0.4,0-0.8-0.1-1.2-0.2c-0.4-0.1-0.7-0.3-1-0.4l0.5-1c0.2,0.2,0.5,0.3,0.7,0.4c0.3,0.1,0.6,0.1,0.9,0.1
			c0.3,0,0.6-0.1,0.8-0.2c0.2-0.1,0.3-0.3,0.3-0.5c0-0.2-0.1-0.4-0.3-0.5s-0.5-0.2-1-0.2H215l0.3-3.2h3.4v1h-2.3l-0.1,1.1h0.5
			C217.6,103.5,218.2,103.7,218.5,104z"/>
		<path class="st6" d="M220.7,105.7c0.1,0.1,0.2,0.3,0.2,0.6c0,0.1,0,0.2,0,0.3c0,0.1-0.1,0.3-0.2,0.5l-0.5,1.2h-0.8l0.4-1.3
			c-0.1-0.1-0.2-0.1-0.3-0.3c-0.1-0.1-0.1-0.3-0.1-0.4c0-0.2,0.1-0.4,0.2-0.6c0.1-0.1,0.3-0.2,0.6-0.2S220.6,105.6,220.7,105.7z"/>
		<path class="st6" d="M225,104c0.4,0.3,0.6,0.7,0.6,1.3c0,0.3-0.1,0.7-0.3,0.9c-0.2,0.3-0.4,0.5-0.8,0.7c-0.3,0.2-0.8,0.3-1.3,0.3
			c-0.4,0-0.8-0.1-1.2-0.2c-0.4-0.1-0.7-0.3-1-0.4l0.5-1c0.2,0.2,0.5,0.3,0.7,0.4c0.3,0.1,0.6,0.1,0.9,0.1c0.3,0,0.6-0.1,0.8-0.2
			c0.2-0.1,0.3-0.3,0.3-0.5c0-0.2-0.1-0.4-0.3-0.5s-0.5-0.2-1-0.2h-1.4l0.3-3.2h3.4v1h-2.3l-0.1,1.1h0.5
			C224,103.5,224.6,103.7,225,104z"/>
	</g>
	<g>
		<path class="st0" d="M80.8,193.5v1.1h-4.2v-0.8l2.2-2c0.2-0.2,0.4-0.4,0.5-0.6s0.1-0.3,0.1-0.5c0-0.2-0.1-0.4-0.2-0.5
			c-0.2-0.1-0.4-0.2-0.7-0.2c-0.2,0-0.5,0-0.7,0.1c-0.2,0.1-0.4,0.2-0.5,0.4l-0.9-0.6c0.2-0.3,0.5-0.6,0.9-0.8
			c0.4-0.2,0.8-0.3,1.3-0.3c0.4,0,0.8,0.1,1.1,0.2c0.3,0.1,0.6,0.3,0.7,0.6c0.2,0.2,0.3,0.5,0.3,0.9c0,0.3-0.1,0.6-0.2,0.9
			c-0.1,0.3-0.4,0.6-0.7,0.9l-1.3,1.2H80.8z"/>
		<path class="st0" d="M84.9,191.8c0.3,0.3,0.4,0.6,0.4,1.1c0,0.3-0.1,0.6-0.3,0.9c-0.2,0.3-0.4,0.5-0.8,0.7s-0.8,0.2-1.3,0.2
			c-0.4,0-0.8-0.1-1.2-0.2c-0.4-0.1-0.7-0.3-1-0.4l0.5-1c0.2,0.2,0.5,0.3,0.7,0.4s0.6,0.1,0.9,0.1c0.3,0,0.6-0.1,0.8-0.2
			c0.2-0.1,0.3-0.3,0.3-0.5c0-0.5-0.4-0.7-1.1-0.7h-0.6v-0.9l1.2-1.3h-2.4v-1H85v0.8l-1.3,1.4C84.2,191.3,84.6,191.5,84.9,191.8z"/>
		<path class="st0" d="M87,193.3c0.1,0.1,0.2,0.3,0.2,0.6c0,0.1,0,0.2,0,0.3c0,0.1-0.1,0.3-0.2,0.5l-0.5,1.2h-0.8l0.4-1.3
			c-0.1-0.1-0.2-0.1-0.3-0.3c-0.1-0.1-0.1-0.3-0.1-0.4c0-0.2,0.1-0.4,0.2-0.6s0.3-0.2,0.6-0.2C86.6,193.1,86.8,193.2,87,193.3z"/>
		<path class="st0" d="M92.7,193.4h-0.9v1.2h-1.3v-1.2h-3v-0.9l2.6-3.6h1.4l-2.5,3.4h1.5v-1.1h1.2v1.1h0.9V193.4z"/>
	</g>
	<g>
		<path class="st0" d="M163.4,177.5c0.3,0.3,0.4,0.6,0.4,1.1c0,0.3-0.1,0.6-0.3,0.9c-0.2,0.3-0.4,0.5-0.8,0.7s-0.8,0.2-1.3,0.2
			c-0.4,0-0.8-0.1-1.2-0.2c-0.4-0.1-0.7-0.3-1-0.4l0.5-1c0.2,0.2,0.5,0.3,0.7,0.4s0.6,0.1,0.9,0.1c0.3,0,0.6-0.1,0.8-0.2
			c0.2-0.1,0.3-0.3,0.3-0.5c0-0.5-0.4-0.7-1.1-0.7h-0.6V177l1.2-1.3h-2.4v-1h3.9v0.8l-1.3,1.4C162.7,177,163.1,177.2,163.4,177.5z"
			/>
		<path class="st0" d="M168.3,179.2v1.1h-4.2v-0.8l2.2-2c0.2-0.2,0.4-0.4,0.5-0.6s0.1-0.3,0.1-0.5c0-0.2-0.1-0.4-0.2-0.5
			c-0.2-0.1-0.4-0.2-0.7-0.2c-0.2,0-0.5,0-0.7,0.1c-0.2,0.1-0.4,0.2-0.5,0.4l-0.9-0.6c0.2-0.3,0.5-0.6,0.9-0.8
			c0.4-0.2,0.8-0.3,1.3-0.3c0.4,0,0.8,0.1,1.1,0.2c0.3,0.1,0.6,0.3,0.7,0.6c0.2,0.2,0.3,0.5,0.3,0.9c0,0.3-0.1,0.6-0.2,0.9
			c-0.1,0.3-0.4,0.6-0.7,0.9l-1.3,1.2H168.3z"/>
		<path class="st0" d="M170,179c0.1,0.1,0.2,0.3,0.2,0.6c0,0.1,0,0.2,0,0.3s-0.1,0.3-0.2,0.5l-0.5,1.2h-0.8l0.4-1.3
			c-0.1-0.1-0.2-0.1-0.3-0.3c-0.1-0.1-0.1-0.3-0.1-0.4c0-0.2,0.1-0.4,0.2-0.6s0.3-0.2,0.6-0.2C169.7,178.7,169.9,178.8,170,179z"/>
		<path class="st0" d="M174.5,177.5c0.3,0.3,0.4,0.6,0.4,1.1c0,0.3-0.1,0.6-0.3,0.9c-0.2,0.3-0.4,0.5-0.8,0.7
			c-0.4,0.2-0.8,0.2-1.3,0.2c-0.4,0-0.8-0.1-1.2-0.2c-0.4-0.1-0.7-0.3-1-0.4l0.5-1c0.2,0.2,0.5,0.3,0.7,0.4c0.3,0.1,0.6,0.1,0.9,0.1
			c0.3,0,0.6-0.1,0.8-0.2c0.2-0.1,0.3-0.3,0.3-0.5c0-0.5-0.4-0.7-1.1-0.7h-0.6V177l1.2-1.3h-2.4v-1h3.9v0.8l-1.3,1.4
			C173.8,177,174.2,177.2,174.5,177.5z"/>
	</g>
	<g>
		<path class="st0" d="M243.5,202.5v5.6h-1.3v-4.6H241v-1H243.5z"/>
		<path class="st0" d="M249.4,206.9h-0.9v1.2h-1.3v-1.2h-3v-0.9l2.6-3.6h1.4l-2.5,3.4h1.5v-1.1h1.2v1.1h0.9V206.9z"/>
		<path class="st0" d="M251,206.8c0.1,0.1,0.2,0.3,0.2,0.6c0,0.1,0,0.2,0,0.3c0,0.1-0.1,0.3-0.2,0.5l-0.5,1.2h-0.8l0.4-1.3
			c-0.1-0.1-0.2-0.1-0.3-0.3c-0.1-0.1-0.1-0.3-0.1-0.4c0-0.2,0.1-0.4,0.2-0.6c0.1-0.1,0.3-0.2,0.6-0.2S250.9,206.7,251,206.8z"/>
		<path class="st0" d="M255.3,205.1c0.4,0.3,0.6,0.7,0.6,1.3c0,0.3-0.1,0.7-0.3,0.9c-0.2,0.3-0.4,0.5-0.8,0.7
			c-0.3,0.2-0.8,0.3-1.3,0.3c-0.4,0-0.8-0.1-1.2-0.2c-0.4-0.1-0.7-0.3-1-0.4l0.5-1c0.2,0.2,0.5,0.3,0.7,0.4c0.3,0.1,0.6,0.1,0.9,0.1
			c0.3,0,0.6-0.1,0.8-0.2c0.2-0.1,0.3-0.3,0.3-0.5c0-0.2-0.1-0.4-0.3-0.5s-0.5-0.2-1-0.2h-1.4l0.3-3.2h3.4v1h-2.3l-0.1,1.1h0.5
			C254.3,204.6,254.9,204.8,255.3,205.1z"/>
	</g>
</g>
</svg>
