<?xml version="1.0" encoding="utf-8"?>
<!-- Generator: Adobe Illustrator 23.1.1, SVG Export Plug-In . SVG Version: 6.00 Build 0)  -->
<svg version="1.1" id="Camada_1" xmlns="http://www.w3.org/2000/svg" xmlns:xlink="http://www.w3.org/1999/xlink" x="0px" y="0px"
	 viewBox="0 0 631.3 339.3" style="enable-background:new 0 0 631.3 339.3;" xml:space="preserve">
<style type="text/css">
	.st0{fill:#666666;}
	.st1{font-family:'Montserrat-ExtraBold';}
	.st2{font-size:17.1655px;}
	.st3{opacity:0.5;fill:none;stroke:#CCCCCC;stroke-width:0.75;stroke-miterlimit:10;}
	.st4{fill:#FF941C;}
	.st5{fill:#01AA2C;}
	.st6{font-family:'Montserrat-Medium';}
	.st7{font-size:8.0177px;}
	.st8{font-family:'Montserrat-Bold';}
	.st9{font-size:7px;}
	.st10{fill:#6BA151;}
	.st11{fill:#F1B143;}
</style>
<g id="Layer_1">
</g>
<g>
	<text transform="matrix(1 0 0 1 95.9462 36.4331)" class="st0 st1 st2">DEMARCAÇÃO DE TERRAS INDÍGENAS NO BRASIL</text>
</g>
<g>
	<g>
		<rect x="28.5" y="54.4" class="st3" width="574.3" height="215.2"/>
		<line class="st3" x1="28.5" y1="77.9" x2="602.8" y2="77.9"/>
		<line class="st3" x1="28.5" y1="102.9" x2="602.8" y2="102.9"/>
		<line class="st3" x1="28.5" y1="126.3" x2="602.8" y2="126.3"/>
		<line class="st3" x1="28.5" y1="149.7" x2="602.8" y2="149.7"/>
		<line class="st3" x1="28.5" y1="174.8" x2="602.8" y2="174.8"/>
		<line class="st3" x1="28.5" y1="198.2" x2="602.8" y2="198.2"/>
		<line class="st3" x1="28.5" y1="221.6" x2="602.8" y2="221.6"/>
		<line class="st3" x1="28.5" y1="245" x2="602.8" y2="245"/>
	</g>
	<rect x="331.3" y="315.2" class="st4" width="9.7" height="9.7"/>
	<rect x="64.9" y="315.2" class="st5" width="9.7" height="9.7"/>
	<text transform="matrix(1 0 0 1 79.1666 322.8482)" class="st0 st6 st7">TERRAS INDÍGENAS HOMOLOGADAS NO GERENCIAMENTO</text>
	<text transform="matrix(1 0 0 1 347.1417 322.8482)" class="st0 st6 st7">TERRAS INDÍGENAS DECLARADAS NO GERENCIAMENTO</text>
	<text transform="matrix(1 0 0 1 52.5025 280.232)"><tspan x="0" y="0" class="st0 st8 st9">FHC/PSDB</tspan><tspan x="-0.3" y="8.4" class="st0 st8 st9">(1995-1998)</tspan></text>
	<text transform="matrix(1 0 0 1 132.6798 280.232)"><tspan x="0" y="0" class="st0 st8 st9">FHC/PSDB</tspan><tspan x="-1.2" y="8.4" class="st0 st8 st9">(1999-2002)</tspan></text>
	<text transform="matrix(1 0 0 1 216.3712 280.232)"><tspan x="0" y="0" class="st0 st8 st9">LULA/PT</tspan><tspan x="-5.7" y="8.4" class="st0 st8 st9">(2003/2006)</tspan></text>
	<g>
		<rect x="40" y="67.8" class="st10" width="29.8" height="201.3"/>
		<rect x="122.3" y="214.1" class="st10" width="29.8" height="55"/>
		<rect x="203.6" y="151.3" class="st10" width="29.8" height="117.8"/>
		<rect x="69.8" y="166.5" class="st11" width="29.8" height="102.6"/>
		<rect x="152.2" y="163.6" class="st11" width="29.8" height="105.5"/>
		<rect x="233.6" y="216.4" class="st11" width="29.8" height="52.8"/>
		<g>
			<text transform="matrix(1 0 0 1 48.1217 63.3838)" class="st0 st8 st7">114</text>
		</g>
		<g>
			<text transform="matrix(1 0 0 1 132.4503 210.274)" class="st0 st8 st7">31</text>
		</g>
		<g>
			<text transform="matrix(1 0 0 1 212.4015 140.4937)" class="st0 st8 st7">64</text>
		</g>
		<text transform="matrix(1 0 0 1 79.6061 161.0733)" class="st0 st8 st7">58</text>
		<text transform="matrix(1 0 0 1 162.0441 159.7242)" class="st0 st8 st7">60</text>
		<text transform="matrix(1 0 0 1 243.547 211.6099)" class="st0 st8 st7">30</text>
	</g>
	<g>
		<rect x="284.6" y="232" class="st10" width="29.8" height="37.1"/>
		<rect x="366.9" y="248.6" class="st10" width="29.8" height="20.6"/>
		<rect x="448.2" y="252.7" class="st10" width="29.8" height="16.4"/>
		<rect x="314.4" y="179.4" class="st11" width="29.8" height="89.7"/>
		<rect x="396.8" y="248.6" class="st11" width="29.8" height="20.6"/>
		<rect x="478.2" y="242.7" class="st11" width="29.8" height="26.4"/>
		<g>
			<text transform="matrix(1 0 0 1 294.5884 227.3838)" class="st0 st8 st7">21</text>
		</g>
		<g>
			<text transform="matrix(1 0 0 1 377.8506 243.274)" class="st0 st8 st7">11</text>
		</g>
		<g>
			<text transform="matrix(1 0 0 1 458.0225 250.4937)" class="st0 st8 st7">10</text>
		</g>
		<text transform="matrix(1 0 0 1 325.2788 176.0733)" class="st0 st8 st7">51</text>
		<text transform="matrix(1 0 0 1 408.7754 243.7242)" class="st0 st8 st7">11</text>
		<text transform="matrix(1 0 0 1 489.2842 241.6099)" class="st0 st8 st7">15</text>
		<g>
			<text transform="matrix(1 0 0 1 541.4932 263.4937)" class="st0 st8 st7">0</text>
		</g>
		<text transform="matrix(1 0 0 1 572.418 263.6099)" class="st0 st8 st7">0</text>
	</g>
	<text transform="matrix(1 0 0 1 300.9904 280.232)"><tspan x="0" y="0" class="st0 st8 st9">LLULA/PT </tspan><tspan x="-3.1" y="8.4" class="st0 st8 st9">(2007-1009)</tspan></text>
	<text transform="matrix(1 0 0 1 380.7721 280.232)"><tspan x="0" y="0" class="st0 st8 st9">DILMA/PT</tspan><tspan x="-0.7" y="8.4" class="st0 st8 st9">(2011-2014)</tspan></text>
	<text transform="matrix(1 0 0 1 460.9493 280.232)"><tspan x="0" y="0" class="st0 st8 st9">DILMA/PT</tspan><tspan x="-1.3" y="8.4" class="st0 st8 st9">(2015-2016)</tspan></text>
	<text transform="matrix(1 0 0 1 533.7775 280.232)"><tspan x="0" y="0" class="st0 st8 st9">TEMER/PMDB </tspan><tspan x="13.5" y="8.4" class="st0 st8 st9">(2016-)</tspan></text>
</g>
</svg>
