<?xml version="1.0" encoding="utf-8"?>
<!-- Generator: Adobe Illustrator 24.2.1, SVG Export Plug-In . SVG Version: 6.00 Build 0)  -->
<svg version="1.1" id="Camada_1" xmlns="http://www.w3.org/2000/svg" xmlns:xlink="http://www.w3.org/1999/xlink" x="0px" y="0px"
	 viewBox="0 0 631.3 339.3" style="enable-background:new 0 0 631.3 339.3;" xml:space="preserve">
<style type="text/css">
	.st0{fill:#666666;}
	.st1{opacity:0.5;fill:none;stroke:#CCCCCC;stroke-width:0.75;stroke-miterlimit:10;}
	.st2{fill:#FF941C;}
	.st3{fill:#01AA2C;}
	.st4{fill:#6BA151;}
	.st5{fill:#F1B143;}
</style>
<g id="Layer_1">
</g>
<g>
	<g>
		<path class="st0" d="M134,24.4h5.7c1.3,0,2.5,0.2,3.5,0.7c1,0.5,1.8,1.2,2.4,2.1c0.6,0.9,0.8,2,0.8,3.2s-0.3,2.3-0.8,3.2
			c-0.6,0.9-1.4,1.6-2.4,2.1c-1,0.5-2.2,0.7-3.5,0.7H134V24.4z M139.5,33.7c1,0,1.9-0.3,2.5-0.9c0.6-0.6,0.9-1.4,0.9-2.4
			c0-1-0.3-1.8-0.9-2.4c-0.6-0.6-1.5-0.9-2.5-0.9h-2.1v6.6H139.5z"/>
		<path class="st0" d="M157,32.6h-6.8c0.1,0.5,0.4,0.9,0.8,1.1c0.4,0.3,0.9,0.4,1.5,0.4c0.4,0,0.8-0.1,1.2-0.2
			c0.3-0.1,0.7-0.3,1-0.6l1.7,1.8c-0.9,1-2.2,1.5-4,1.5c-1.1,0-2-0.2-2.9-0.6c-0.8-0.4-1.5-1-1.9-1.7c-0.5-0.7-0.7-1.6-0.7-2.5
			c0-0.9,0.2-1.7,0.7-2.5c0.4-0.7,1-1.3,1.8-1.7c0.8-0.4,1.7-0.6,2.6-0.6c0.9,0,1.8,0.2,2.5,0.6c0.8,0.4,1.4,0.9,1.8,1.7
			c0.4,0.7,0.7,1.6,0.7,2.6C157.1,31.8,157,32.1,157,32.6z M150.8,29.7c-0.3,0.3-0.6,0.7-0.6,1.2h3.8c-0.1-0.5-0.3-0.9-0.6-1.2
			c-0.3-0.3-0.8-0.4-1.3-0.4C151.6,29.3,151.2,29.4,150.8,29.7z"/>
		<path class="st0" d="M173,28c0.7,0.7,1,1.7,1,3.1v5.3h-3.3v-4.8c0-0.7-0.1-1.1-0.4-1.4c-0.2-0.3-0.6-0.5-1-0.5
			c-0.5,0-0.9,0.2-1.2,0.5c-0.3,0.3-0.4,0.9-0.4,1.6v4.6h-3.3v-4.8c0-1.3-0.5-1.9-1.4-1.9c-0.5,0-0.9,0.2-1.2,0.5
			c-0.3,0.3-0.4,0.9-0.4,1.6v4.6h-3.3v-9.3h3.1v1c0.3-0.4,0.8-0.7,1.2-0.8c0.5-0.2,1-0.3,1.6-0.3c0.7,0,1.2,0.1,1.8,0.4
			c0.5,0.2,0.9,0.6,1.3,1.1c0.4-0.5,0.8-0.8,1.4-1.1c0.6-0.3,1.2-0.4,1.8-0.4C171.4,27,172.3,27.3,173,28z"/>
		<path class="st0" d="M183.2,28c0.8,0.7,1.2,1.8,1.2,3.2v5.2h-3v-1.2c-0.5,0.9-1.4,1.4-2.7,1.4c-0.7,0-1.3-0.1-1.9-0.4
			s-0.9-0.6-1.2-1s-0.4-0.9-0.4-1.5c0-0.9,0.3-1.6,1-2.1c0.7-0.5,1.7-0.7,3.1-0.7h1.9c-0.1-1-0.7-1.5-2-1.5c-0.4,0-0.9,0.1-1.4,0.2
			c-0.5,0.1-0.8,0.3-1.2,0.6l-1.1-2.2c0.5-0.3,1.1-0.6,1.9-0.8c0.7-0.2,1.5-0.3,2.2-0.3C181.2,27,182.3,27.3,183.2,28z M180.5,34.3
			c0.3-0.2,0.5-0.5,0.6-0.8v-0.8h-1.4c-1,0-1.4,0.3-1.4,0.9c0,0.3,0.1,0.5,0.3,0.7c0.2,0.2,0.5,0.3,0.9,0.3
			C179.9,34.5,180.2,34.4,180.5,34.3z"/>
		<path class="st0" d="M190.4,27.3c0.5-0.2,1.1-0.3,1.8-0.3v2.9c-0.3,0-0.5-0.1-0.7-0.1c-0.7,0-1.2,0.2-1.6,0.6
			c-0.4,0.4-0.6,1-0.6,1.7v4.3H186v-9.3h3.1v1.1C189.4,27.8,189.9,27.5,190.4,27.3z"/>
		<path class="st0" d="M195,36c-0.8-0.4-1.4-1-1.9-1.7c-0.5-0.7-0.7-1.6-0.7-2.5c0-0.9,0.2-1.8,0.7-2.5c0.5-0.7,1.1-1.3,1.9-1.7
			s1.7-0.6,2.8-0.6c1.1,0,2,0.2,2.7,0.7c0.8,0.5,1.3,1.1,1.6,1.9l-2.5,1.3c-0.4-0.8-1-1.3-1.9-1.3c-0.6,0-1.1,0.2-1.5,0.6
			c-0.4,0.4-0.6,0.9-0.6,1.6c0,0.7,0.2,1.2,0.6,1.6c0.4,0.4,0.9,0.6,1.5,0.6c0.8,0,1.4-0.4,1.9-1.3l2.5,1.3
			c-0.3,0.8-0.9,1.4-1.6,1.9s-1.7,0.7-2.7,0.7C196.8,36.6,195.9,36.4,195,36z"/>
		<path class="st0" d="M210.5,28c0.8,0.7,1.2,1.8,1.2,3.2v5.2h-3v-1.2c-0.5,0.9-1.4,1.4-2.7,1.4c-0.7,0-1.3-0.1-1.9-0.4
			s-0.9-0.6-1.2-1c-0.3-0.4-0.4-0.9-0.4-1.5c0-0.9,0.3-1.6,1-2.1c0.7-0.5,1.7-0.7,3.1-0.7h1.9c-0.1-1-0.7-1.5-2-1.5
			c-0.4,0-0.9,0.1-1.4,0.2s-0.8,0.3-1.2,0.6l-1.1-2.2c0.5-0.3,1.1-0.6,1.9-0.8c0.7-0.2,1.5-0.3,2.2-0.3
			C208.5,27,209.7,27.3,210.5,28z M207.8,34.3c0.3-0.2,0.5-0.5,0.6-0.8v-0.8H207c-1,0-1.4,0.3-1.4,0.9c0,0.3,0.1,0.5,0.3,0.7
			c0.2,0.2,0.5,0.3,0.9,0.3S207.5,34.4,207.8,34.3z"/>
		<path class="st0" d="M215.5,36c-0.8-0.4-1.4-1-1.9-1.7c-0.5-0.7-0.7-1.6-0.7-2.5c0-0.9,0.2-1.8,0.7-2.5c0.5-0.7,1.1-1.3,1.9-1.7
			s1.7-0.6,2.8-0.6c1.1,0,2,0.2,2.7,0.7c0.8,0.5,1.3,1.1,1.6,1.9l-2.5,1.3c-0.4-0.8-1-1.3-1.9-1.3c-0.6,0-1.1,0.2-1.5,0.6
			c-0.4,0.4-0.6,0.9-0.6,1.6c0,0.7,0.2,1.2,0.6,1.6c0.4,0.4,0.9,0.6,1.5,0.6c0.8,0,1.4-0.4,1.9-1.3l2.5,1.3
			c-0.3,0.8-0.9,1.4-1.6,1.9s-1.7,0.7-2.7,0.7C217.2,36.6,216.3,36.4,215.5,36z M216.3,40.4c-0.3-0.1-0.6-0.2-0.7-0.3l0.4-1.3
			c0.3,0.2,0.7,0.2,1.1,0.2c0.6,0,0.9-0.2,0.9-0.5c0-0.3-0.3-0.4-0.8-0.4h-0.6l0.4-1.9h1.7l-0.2,1c0.5,0.1,0.9,0.2,1.1,0.5
			c0.2,0.3,0.4,0.6,0.4,0.9c0,0.5-0.2,1-0.7,1.3s-1.2,0.5-2,0.5C216.9,40.5,216.6,40.4,216.3,40.4z"/>
		<path class="st0" d="M230.9,28c0.8,0.7,1.2,1.8,1.2,3.2v5.2h-3v-1.2c-0.5,0.9-1.4,1.4-2.7,1.4c-0.7,0-1.3-0.1-1.9-0.4
			s-0.9-0.6-1.2-1c-0.3-0.4-0.4-0.9-0.4-1.5c0-0.9,0.3-1.6,1-2.1c0.7-0.5,1.7-0.7,3.1-0.7h1.9c-0.1-1-0.7-1.5-2-1.5
			c-0.4,0-0.9,0.1-1.4,0.2s-0.8,0.3-1.2,0.6l-1.1-2.2c0.5-0.3,1.1-0.6,1.9-0.8c0.7-0.2,1.5-0.3,2.2-0.3
			C228.9,27,230.1,27.3,230.9,28z M228.2,26c-0.2-0.1-0.5-0.3-0.8-0.5c-0.2-0.1-0.4-0.3-0.5-0.3c-0.1-0.1-0.2-0.1-0.3-0.1
			c-0.2,0-0.4,0.1-0.5,0.2c-0.1,0.2-0.2,0.4-0.2,0.7h-1.6c0-0.8,0.2-1.5,0.6-2c0.4-0.5,0.9-0.7,1.6-0.7c0.3,0,0.6,0.1,0.8,0.2
			s0.5,0.3,0.8,0.5c0.2,0.1,0.4,0.3,0.5,0.3c0.1,0.1,0.2,0.1,0.3,0.1c0.2,0,0.4-0.1,0.5-0.2c0.1-0.2,0.2-0.4,0.2-0.6h1.6
			c0,0.8-0.2,1.5-0.6,2c-0.4,0.5-0.9,0.7-1.6,0.7C228.7,26.1,228.5,26.1,228.2,26z M228.2,34.3c0.3-0.2,0.5-0.5,0.6-0.8v-0.8h-1.4
			c-1,0-1.4,0.3-1.4,0.9c0,0.3,0.1,0.5,0.3,0.7c0.2,0.2,0.5,0.3,0.9,0.3S227.9,34.4,228.2,34.3z"/>
		<path class="st0" d="M235.9,36c-0.8-0.4-1.4-1-1.9-1.7c-0.5-0.7-0.7-1.6-0.7-2.5c0-0.9,0.2-1.7,0.7-2.5c0.5-0.7,1.1-1.3,1.9-1.7
			c0.8-0.4,1.7-0.6,2.7-0.6s1.9,0.2,2.7,0.6s1.4,1,1.9,1.7c0.4,0.7,0.7,1.6,0.7,2.5c0,0.9-0.2,1.8-0.7,2.5c-0.4,0.7-1.1,1.3-1.9,1.7
			s-1.7,0.6-2.7,0.6C237.6,36.6,236.7,36.4,235.9,36z M240,33.4c0.4-0.4,0.5-0.9,0.5-1.6c0-0.7-0.2-1.2-0.5-1.6
			c-0.4-0.4-0.8-0.6-1.4-0.6s-1,0.2-1.4,0.6c-0.4,0.4-0.5,0.9-0.5,1.6c0,0.7,0.2,1.2,0.5,1.6c0.4,0.4,0.8,0.6,1.4,0.6
			S239.6,33.8,240,33.4z"/>
		<path class="st0" d="M259.3,23.7v12.7h-3.1v-0.9c-0.6,0.7-1.5,1.1-2.7,1.1c-0.8,0-1.6-0.2-2.3-0.6c-0.7-0.4-1.3-1-1.7-1.7
			c-0.4-0.7-0.6-1.6-0.6-2.5c0-1,0.2-1.8,0.6-2.5c0.4-0.7,1-1.3,1.7-1.7c0.7-0.4,1.5-0.6,2.3-0.6c1.1,0,2,0.3,2.6,1v-4.2H259.3z
			 M255.6,33.4c0.4-0.4,0.5-0.9,0.5-1.6c0-0.7-0.2-1.2-0.5-1.6c-0.4-0.4-0.8-0.6-1.4-0.6s-1,0.2-1.4,0.6c-0.4,0.4-0.5,0.9-0.5,1.6
			c0,0.7,0.2,1.2,0.5,1.6c0.4,0.4,0.8,0.6,1.4,0.6C254.7,34,255.2,33.8,255.6,33.4z"/>
		<path class="st0" d="M270.5,32.6h-6.8c0.1,0.5,0.4,0.9,0.8,1.1c0.4,0.3,0.9,0.4,1.5,0.4c0.4,0,0.8-0.1,1.2-0.2
			c0.3-0.1,0.7-0.3,1-0.6l1.7,1.8c-0.9,1-2.2,1.5-4,1.5c-1.1,0-2-0.2-2.9-0.6s-1.5-1-1.9-1.7c-0.5-0.7-0.7-1.6-0.7-2.5
			c0-0.9,0.2-1.7,0.7-2.5c0.4-0.7,1-1.3,1.8-1.7s1.7-0.6,2.6-0.6c0.9,0,1.8,0.2,2.5,0.6c0.8,0.4,1.4,0.9,1.8,1.7
			c0.4,0.7,0.7,1.6,0.7,2.6C270.5,31.8,270.5,32.1,270.5,32.6z M264.3,29.7c-0.3,0.3-0.6,0.7-0.6,1.2h3.8c-0.1-0.5-0.3-0.9-0.6-1.2
			c-0.3-0.3-0.8-0.4-1.3-0.4S264.6,29.4,264.3,29.7z"/>
		<path class="st0" d="M282.6,36.1c-0.3,0.2-0.6,0.3-1,0.4s-0.8,0.1-1.3,0.1c-1.2,0-2.1-0.3-2.8-0.9c-0.7-0.6-1-1.5-1-2.7v-3.1h-1.4
			v-2.4h1.4v-2.4h3.3v2.4h2.1v2.4h-2.1V33c0,0.3,0.1,0.6,0.3,0.8c0.2,0.2,0.4,0.3,0.7,0.3c0.4,0,0.7-0.1,1-0.3L282.6,36.1z"/>
		<path class="st0" d="M292.6,32.6h-6.8c0.1,0.5,0.4,0.9,0.8,1.1c0.4,0.3,0.9,0.4,1.5,0.4c0.4,0,0.8-0.1,1.2-0.2
			c0.3-0.1,0.7-0.3,1-0.6l1.7,1.8c-0.9,1-2.2,1.5-4,1.5c-1.1,0-2-0.2-2.9-0.6s-1.5-1-1.9-1.7c-0.5-0.7-0.7-1.6-0.7-2.5
			c0-0.9,0.2-1.7,0.7-2.5c0.4-0.7,1-1.3,1.8-1.7s1.7-0.6,2.6-0.6c0.9,0,1.8,0.2,2.5,0.6c0.8,0.4,1.4,0.9,1.8,1.7
			c0.4,0.7,0.7,1.6,0.7,2.6C292.6,31.8,292.6,32.1,292.6,32.6z M286.4,29.7c-0.3,0.3-0.6,0.7-0.6,1.2h3.8c-0.1-0.5-0.3-0.9-0.6-1.2
			c-0.3-0.3-0.8-0.4-1.3-0.4S286.8,29.4,286.4,29.7z"/>
		<path class="st0" d="M298.1,27.3c0.5-0.2,1.1-0.3,1.8-0.3v2.9c-0.3,0-0.5-0.1-0.7-0.1c-0.7,0-1.2,0.2-1.6,0.6
			c-0.4,0.4-0.6,1-0.6,1.7v4.3h-3.3v-9.3h3.1v1.1C297.2,27.8,297.6,27.5,298.1,27.3z"/>
		<path class="st0" d="M305.3,27.3c0.5-0.2,1.1-0.3,1.8-0.3v2.9c-0.3,0-0.5-0.1-0.7-0.1c-0.7,0-1.2,0.2-1.6,0.6
			c-0.4,0.4-0.6,1-0.6,1.7v4.3h-3.3v-9.3h3.1v1.1C304.3,27.8,304.7,27.5,305.3,27.3z"/>
		<path class="st0" d="M315.4,28c0.8,0.7,1.2,1.8,1.2,3.2v5.2h-3v-1.2c-0.5,0.9-1.4,1.4-2.7,1.4c-0.7,0-1.3-0.1-1.9-0.4
			s-0.9-0.6-1.2-1c-0.3-0.4-0.4-0.9-0.4-1.5c0-0.9,0.3-1.6,1-2.1c0.7-0.5,1.7-0.7,3.1-0.7h1.9c-0.1-1-0.7-1.5-2-1.5
			c-0.4,0-0.9,0.1-1.4,0.2c-0.5,0.1-0.8,0.3-1.2,0.6l-1.1-2.2c0.5-0.3,1.1-0.6,1.9-0.8c0.7-0.2,1.5-0.3,2.2-0.3
			C313.4,27,314.6,27.3,315.4,28z M312.8,34.3c0.3-0.2,0.5-0.5,0.6-0.8v-0.8H312c-1,0-1.4,0.3-1.4,0.9c0,0.3,0.1,0.5,0.3,0.7
			c0.2,0.2,0.5,0.3,0.9,0.3C312.2,34.5,312.5,34.4,312.8,34.3z"/>
		<path class="st0" d="M319.4,36.3c-0.8-0.2-1.4-0.4-1.8-0.7l1-2.2c0.4,0.3,0.9,0.5,1.5,0.6c0.6,0.2,1.2,0.2,1.7,0.2
			c0.5,0,0.9-0.1,1.1-0.2c0.2-0.1,0.3-0.3,0.3-0.5c0-0.2-0.1-0.4-0.4-0.4c-0.3-0.1-0.7-0.2-1.3-0.2c-0.7-0.1-1.4-0.2-1.9-0.4
			c-0.5-0.1-1-0.4-1.3-0.8c-0.4-0.4-0.6-1-0.6-1.7c0-0.6,0.2-1.1,0.5-1.6c0.4-0.5,0.9-0.8,1.6-1.1s1.5-0.4,2.4-0.4
			c0.7,0,1.3,0.1,2,0.2c0.7,0.1,1.2,0.3,1.7,0.6l-1,2.2c-0.8-0.5-1.7-0.7-2.7-0.7c-0.5,0-0.9,0.1-1.1,0.2s-0.4,0.3-0.4,0.5
			c0,0.2,0.1,0.4,0.4,0.5c0.3,0.1,0.7,0.2,1.3,0.3c0.8,0.1,1.4,0.2,1.9,0.4c0.5,0.1,0.9,0.4,1.3,0.8c0.4,0.4,0.6,0.9,0.6,1.7
			c0,0.6-0.2,1.1-0.5,1.6c-0.4,0.5-0.9,0.8-1.6,1.1c-0.7,0.3-1.5,0.4-2.5,0.4C320.9,36.6,320.1,36.5,319.4,36.3z"/>
		<path class="st0" d="M332,25.6c-0.4-0.3-0.5-0.7-0.5-1.2c0-0.5,0.2-0.9,0.5-1.2c0.4-0.3,0.8-0.5,1.4-0.5s1.1,0.2,1.4,0.5
			c0.4,0.3,0.5,0.7,0.5,1.2c0,0.5-0.2,0.9-0.5,1.3c-0.4,0.3-0.8,0.5-1.4,0.5S332.4,25.9,332,25.6z M331.8,27.1h3.3v9.3h-3.3V27.1z"
			/>
		<path class="st0" d="M345.6,28c0.7,0.7,1.1,1.7,1.1,3.1v5.3h-3.3v-4.8c0-1.3-0.5-1.9-1.5-1.9c-0.6,0-1,0.2-1.3,0.5
			c-0.3,0.4-0.5,0.9-0.5,1.6v4.5h-3.3v-9.3h3.1v1c0.4-0.4,0.8-0.7,1.3-0.9c0.5-0.2,1.1-0.3,1.6-0.3C344,27,344.9,27.3,345.6,28z"/>
		<path class="st0" d="M358.3,23.7v12.7h-3.1v-0.9c-0.6,0.7-1.5,1.1-2.7,1.1c-0.8,0-1.6-0.2-2.3-0.6c-0.7-0.4-1.3-1-1.7-1.7
			s-0.6-1.6-0.6-2.5c0-1,0.2-1.8,0.6-2.5c0.4-0.7,1-1.3,1.7-1.7c0.7-0.4,1.5-0.6,2.3-0.6c1.1,0,2,0.3,2.6,1v-4.2H358.3z M354.5,33.4
			c0.4-0.4,0.5-0.9,0.5-1.6c0-0.7-0.2-1.2-0.5-1.6c-0.4-0.4-0.8-0.6-1.4-0.6c-0.6,0-1,0.2-1.4,0.6c-0.4,0.4-0.5,0.9-0.5,1.6
			c0,0.7,0.2,1.2,0.5,1.6c0.4,0.4,0.8,0.6,1.4,0.6C353.7,34,354.2,33.8,354.5,33.4z"/>
		<path class="st0" d="M362.2,23.4h3.3l-3.2,2.6h-2.3L362.2,23.4z M360,27.1h3.3v9.3H360V27.1z"/>
		<path class="st0" d="M374.9,27.1v7.6c0,1.7-0.5,3-1.4,3.9c-0.9,0.9-2.3,1.3-4.1,1.3c-0.9,0-1.8-0.1-2.6-0.3
			c-0.8-0.2-1.5-0.5-2-0.9l1.2-2.3c0.4,0.3,0.9,0.6,1.4,0.7c0.6,0.2,1.1,0.3,1.7,0.3c0.9,0,1.5-0.2,1.9-0.6c0.4-0.4,0.6-0.9,0.6-1.7
			v-0.3c-0.6,0.7-1.6,1.1-2.8,1.1c-0.8,0-1.6-0.2-2.3-0.6c-0.7-0.4-1.3-0.9-1.7-1.6c-0.4-0.7-0.6-1.5-0.6-2.4c0-0.9,0.2-1.7,0.6-2.3
			c0.4-0.7,1-1.2,1.7-1.6c0.7-0.4,1.5-0.6,2.3-0.6c1.3,0,2.3,0.4,2.9,1.3v-1.1H374.9z M371.1,32.8c0.4-0.4,0.6-0.8,0.6-1.4
			c0-0.6-0.2-1-0.6-1.4c-0.4-0.3-0.9-0.5-1.5-0.5s-1.1,0.2-1.5,0.5c-0.4,0.3-0.6,0.8-0.6,1.4c0,0.6,0.2,1,0.6,1.4
			c0.4,0.4,0.9,0.5,1.5,0.5C370.2,33.4,370.7,33.2,371.1,32.8z"/>
		<path class="st0" d="M386,32.6h-6.8c0.1,0.5,0.4,0.9,0.8,1.1c0.4,0.3,0.9,0.4,1.5,0.4c0.4,0,0.8-0.1,1.2-0.2
			c0.3-0.1,0.7-0.3,1-0.6l1.7,1.8c-0.9,1-2.2,1.5-4,1.5c-1.1,0-2-0.2-2.9-0.6s-1.5-1-1.9-1.7c-0.5-0.7-0.7-1.6-0.7-2.5
			c0-0.9,0.2-1.7,0.7-2.5c0.4-0.7,1-1.3,1.8-1.7s1.7-0.6,2.6-0.6c0.9,0,1.8,0.2,2.5,0.6c0.8,0.4,1.4,0.9,1.8,1.7
			c0.4,0.7,0.7,1.6,0.7,2.6C386.1,31.8,386.1,32.1,386,32.6z M379.9,29.7c-0.3,0.3-0.6,0.7-0.6,1.2h3.8c-0.1-0.5-0.3-0.9-0.6-1.2
			c-0.3-0.3-0.8-0.4-1.3-0.4S380.2,29.4,379.9,29.7z"/>
		<path class="st0" d="M396,28c0.7,0.7,1.1,1.7,1.1,3.1v5.3h-3.3v-4.8c0-1.3-0.5-1.9-1.5-1.9c-0.6,0-1,0.2-1.3,0.5
			c-0.3,0.4-0.5,0.9-0.5,1.6v4.5h-3.3v-9.3h3.1v1c0.4-0.4,0.8-0.7,1.3-0.9c0.5-0.2,1.1-0.3,1.6-0.3C394.4,27,395.3,27.3,396,28z"/>
		<path class="st0" d="M406.2,28c0.8,0.7,1.2,1.8,1.2,3.2v5.2h-3v-1.2c-0.5,0.9-1.4,1.4-2.7,1.4c-0.7,0-1.3-0.1-1.9-0.4
			s-0.9-0.6-1.2-1c-0.3-0.4-0.4-0.9-0.4-1.5c0-0.9,0.3-1.6,1-2.1c0.7-0.5,1.7-0.7,3.1-0.7h1.9c-0.1-1-0.7-1.5-2-1.5
			c-0.4,0-0.9,0.1-1.4,0.2c-0.5,0.1-0.8,0.3-1.2,0.6l-1.1-2.2c0.5-0.3,1.1-0.6,1.9-0.8c0.7-0.2,1.5-0.3,2.2-0.3
			C404.2,27,405.4,27.3,406.2,28z M403.5,34.3c0.3-0.2,0.5-0.5,0.6-0.8v-0.8h-1.4c-1,0-1.4,0.3-1.4,0.9c0,0.3,0.1,0.5,0.3,0.7
			c0.2,0.2,0.5,0.3,0.9,0.3C402.9,34.5,403.2,34.4,403.5,34.3z"/>
		<path class="st0" d="M410.1,36.3c-0.8-0.2-1.4-0.4-1.8-0.7l1-2.2c0.4,0.3,0.9,0.5,1.5,0.6c0.6,0.2,1.2,0.2,1.7,0.2
			c0.5,0,0.9-0.1,1.1-0.2c0.2-0.1,0.3-0.3,0.3-0.5c0-0.2-0.1-0.4-0.4-0.4c-0.3-0.1-0.7-0.2-1.3-0.2c-0.7-0.1-1.4-0.2-1.9-0.4
			c-0.5-0.1-1-0.4-1.3-0.8c-0.4-0.4-0.6-1-0.6-1.7c0-0.6,0.2-1.1,0.5-1.6c0.4-0.5,0.9-0.8,1.6-1.1s1.5-0.4,2.4-0.4
			c0.7,0,1.3,0.1,2,0.2c0.7,0.1,1.2,0.3,1.7,0.6l-1,2.2c-0.8-0.5-1.7-0.7-2.7-0.7c-0.5,0-0.9,0.1-1.1,0.2s-0.4,0.3-0.4,0.5
			c0,0.2,0.1,0.4,0.4,0.5c0.3,0.1,0.7,0.2,1.3,0.3c0.8,0.1,1.4,0.2,1.9,0.4c0.5,0.1,0.9,0.4,1.3,0.8c0.4,0.4,0.6,0.9,0.6,1.7
			c0,0.6-0.2,1.1-0.5,1.6c-0.4,0.5-0.9,0.8-1.6,1.1c-0.7,0.3-1.5,0.4-2.5,0.4C411.6,36.6,410.9,36.5,410.1,36.3z"/>
		<path class="st0" d="M431.4,28c0.7,0.7,1.1,1.7,1.1,3.1v5.3h-3.3v-4.8c0-1.3-0.5-1.9-1.5-1.9c-0.6,0-1,0.2-1.3,0.5
			c-0.3,0.4-0.5,0.9-0.5,1.6v4.5h-3.3v-9.3h3.1v1c0.4-0.4,0.8-0.7,1.3-0.9c0.5-0.2,1.1-0.3,1.6-0.3C429.8,27,430.7,27.3,431.4,28z"
			/>
		<path class="st0" d="M436.2,36c-0.8-0.4-1.4-1-1.9-1.7c-0.5-0.7-0.7-1.6-0.7-2.5c0-0.9,0.2-1.7,0.7-2.5s1.1-1.3,1.9-1.7
			c0.8-0.4,1.7-0.6,2.7-0.6s1.9,0.2,2.7,0.6c0.8,0.4,1.4,1,1.9,1.7c0.4,0.7,0.7,1.6,0.7,2.5c0,0.9-0.2,1.8-0.7,2.5
			c-0.4,0.7-1.1,1.3-1.9,1.7c-0.8,0.4-1.7,0.6-2.7,0.6C437.9,36.6,437,36.4,436.2,36z M440.3,33.4c0.4-0.4,0.5-0.9,0.5-1.6
			c0-0.7-0.2-1.2-0.5-1.6c-0.4-0.4-0.8-0.6-1.4-0.6s-1,0.2-1.4,0.6c-0.4,0.4-0.5,0.9-0.5,1.6c0,0.7,0.2,1.2,0.5,1.6
			c0.4,0.4,0.8,0.6,1.4,0.6S439.9,33.8,440.3,33.4z"/>
		<path class="st0" d="M460.8,31.3c0.4,0.5,0.6,1.1,0.6,1.8c0,1.1-0.4,1.9-1.3,2.4c-0.8,0.6-2.1,0.9-3.7,0.9h-6.5v-12h6.1
			c1.5,0,2.7,0.3,3.5,0.8s1.2,1.3,1.2,2.3c0,0.6-0.1,1.1-0.4,1.5c-0.3,0.5-0.7,0.8-1.2,1.1C459.9,30.4,460.4,30.8,460.8,31.3z
			 M453.3,26.9v2.3h2.3c1.1,0,1.7-0.4,1.7-1.2c0-0.8-0.6-1.1-1.7-1.1H453.3z M457.9,32.8c0-0.8-0.6-1.2-1.8-1.2h-2.8V34h2.8
			C457.3,34,457.9,33.6,457.9,32.8z"/>
		<path class="st0" d="M467,27.3c0.5-0.2,1.1-0.3,1.8-0.3v2.9c-0.3,0-0.5-0.1-0.7-0.1c-0.7,0-1.2,0.2-1.6,0.6
			c-0.4,0.4-0.6,1-0.6,1.7v4.3h-3.3v-9.3h3.1v1.1C466,27.8,466.4,27.5,467,27.3z"/>
		<path class="st0" d="M477.1,28c0.8,0.7,1.2,1.8,1.2,3.2v5.2h-3v-1.2c-0.5,0.9-1.4,1.4-2.7,1.4c-0.7,0-1.3-0.1-1.9-0.4
			s-0.9-0.6-1.2-1c-0.3-0.4-0.4-0.9-0.4-1.5c0-0.9,0.3-1.6,1-2.1c0.7-0.5,1.7-0.7,3.1-0.7h1.9c-0.1-1-0.7-1.5-2-1.5
			c-0.4,0-0.9,0.1-1.4,0.2c-0.5,0.1-0.8,0.3-1.2,0.6l-1.1-2.2c0.5-0.3,1.1-0.6,1.9-0.8c0.7-0.2,1.5-0.3,2.2-0.3
			C475.1,27,476.3,27.3,477.1,28z M474.5,34.3c0.3-0.2,0.5-0.5,0.6-0.8v-0.8h-1.4c-1,0-1.4,0.3-1.4,0.9c0,0.3,0.1,0.5,0.3,0.7
			c0.2,0.2,0.5,0.3,0.9,0.3C473.8,34.5,474.2,34.4,474.5,34.3z"/>
		<path class="st0" d="M481.1,36.3c-0.8-0.2-1.4-0.4-1.8-0.7l1-2.2c0.4,0.3,0.9,0.5,1.5,0.6c0.6,0.2,1.2,0.2,1.7,0.2
			c0.5,0,0.9-0.1,1.1-0.2c0.2-0.1,0.3-0.3,0.3-0.5c0-0.2-0.1-0.4-0.4-0.4c-0.3-0.1-0.7-0.2-1.3-0.2c-0.7-0.1-1.4-0.2-1.9-0.4
			c-0.5-0.1-1-0.4-1.3-0.8c-0.4-0.4-0.6-1-0.6-1.7c0-0.6,0.2-1.1,0.5-1.6c0.4-0.5,0.9-0.8,1.6-1.1S483,27,484,27
			c0.7,0,1.3,0.1,2,0.2c0.7,0.1,1.2,0.3,1.7,0.6l-1,2.2c-0.8-0.5-1.7-0.7-2.7-0.7c-0.5,0-0.9,0.1-1.1,0.2s-0.4,0.3-0.4,0.5
			c0,0.2,0.1,0.4,0.4,0.5c0.3,0.1,0.7,0.2,1.3,0.3c0.8,0.1,1.4,0.2,1.9,0.4c0.5,0.1,0.9,0.4,1.3,0.8c0.4,0.4,0.6,0.9,0.6,1.7
			c0,0.6-0.2,1.1-0.5,1.6c-0.4,0.5-0.9,0.8-1.6,1.1c-0.7,0.3-1.5,0.4-2.5,0.4C482.6,36.6,481.8,36.5,481.1,36.3z"/>
		<path class="st0" d="M489.1,25.6c-0.4-0.3-0.5-0.7-0.5-1.2c0-0.5,0.2-0.9,0.5-1.2c0.4-0.3,0.8-0.5,1.4-0.5s1.1,0.2,1.4,0.5
			c0.4,0.3,0.5,0.7,0.5,1.2c0,0.5-0.2,0.9-0.5,1.3c-0.4,0.3-0.8,0.5-1.4,0.5S489.5,25.9,489.1,25.6z M488.9,27.1h3.3v9.3h-3.3V27.1z
			"/>
		<path class="st0" d="M493.9,23.7h3.3v12.7h-3.3V23.7z"/>
	</g>
</g>
<g>
	<g>
		<rect x="28.5" y="54.4" class="st1" width="574.3" height="215.2"/>
		<line class="st1" x1="28.5" y1="77.9" x2="602.8" y2="77.9"/>
		<line class="st1" x1="28.5" y1="102.9" x2="602.8" y2="102.9"/>
		<line class="st1" x1="28.5" y1="126.3" x2="602.8" y2="126.3"/>
		<line class="st1" x1="28.5" y1="149.7" x2="602.8" y2="149.7"/>
		<line class="st1" x1="28.5" y1="174.8" x2="602.8" y2="174.8"/>
		<line class="st1" x1="28.5" y1="198.2" x2="602.8" y2="198.2"/>
		<line class="st1" x1="28.5" y1="221.6" x2="602.8" y2="221.6"/>
		<line class="st1" x1="28.5" y1="245" x2="602.8" y2="245"/>
	</g>
	<rect x="331.3" y="315.2" class="st2" width="9.7" height="9.7"/>
	<rect x="64.9" y="315.2" class="st3" width="9.7" height="9.7"/>
	<g>
		<path class="st0" d="M81.1,317.9h-1.9v-0.7h4.6v0.7h-1.9v4.9h-0.8V317.9z"/>
		<path class="st0" d="M88.6,322.2v0.7h-4.1v-5.6h4v0.7h-3.2v1.7h2.8v0.7h-2.8v1.8H88.6z"/>
		<path class="st0" d="M93.4,322.8l-1.2-1.7c-0.1,0-0.3,0-0.4,0h-1.4v1.7h-0.8v-5.6h2.2c0.7,0,1.3,0.2,1.7,0.5
			c0.4,0.3,0.6,0.8,0.6,1.4c0,0.4-0.1,0.8-0.3,1.1c-0.2,0.3-0.5,0.5-0.9,0.7l1.3,1.9H93.4z M93,320.1c0.3-0.2,0.4-0.5,0.4-0.9
			s-0.1-0.7-0.4-0.9c-0.3-0.2-0.7-0.3-1.2-0.3h-1.4v2.5h1.4C92.4,320.5,92.7,320.3,93,320.1z"/>
		<path class="st0" d="M99.1,322.8l-1.2-1.7c-0.1,0-0.3,0-0.4,0h-1.4v1.7h-0.8v-5.6h2.2c0.7,0,1.3,0.2,1.7,0.5
			c0.4,0.3,0.6,0.8,0.6,1.4c0,0.4-0.1,0.8-0.3,1.1c-0.2,0.3-0.5,0.5-0.9,0.7l1.3,1.9H99.1z M98.6,320.1c0.3-0.2,0.4-0.5,0.4-0.9
			s-0.1-0.7-0.4-0.9c-0.3-0.2-0.7-0.3-1.2-0.3h-1.4v2.5h1.4C98,320.5,98.4,320.3,98.6,320.1z"/>
		<path class="st0" d="M104.5,321.4h-3l-0.6,1.4h-0.8l2.5-5.6h0.8l2.5,5.6h-0.8L104.5,321.4z M104.2,320.8l-1.2-2.8l-1.2,2.8H104.2z
			"/>
		<path class="st0" d="M107,322.7c-0.4-0.1-0.7-0.3-0.9-0.5l0.3-0.6c0.2,0.2,0.5,0.3,0.8,0.5s0.7,0.2,1,0.2c0.5,0,0.8-0.1,1-0.2
			c0.2-0.2,0.3-0.4,0.3-0.6c0-0.2-0.1-0.3-0.2-0.5c-0.1-0.1-0.3-0.2-0.5-0.3c-0.2-0.1-0.4-0.1-0.8-0.2c-0.4-0.1-0.8-0.2-1-0.3
			s-0.5-0.3-0.7-0.5c-0.2-0.2-0.3-0.5-0.3-0.9c0-0.3,0.1-0.6,0.2-0.8s0.4-0.4,0.7-0.6c0.3-0.1,0.7-0.2,1.2-0.2c0.3,0,0.7,0,1,0.1
			c0.3,0.1,0.6,0.2,0.8,0.4l-0.3,0.6c-0.2-0.1-0.5-0.3-0.8-0.3c-0.3-0.1-0.5-0.1-0.8-0.1c-0.5,0-0.8,0.1-1,0.2
			c-0.2,0.2-0.3,0.4-0.3,0.6c0,0.2,0.1,0.3,0.2,0.5c0.1,0.1,0.3,0.2,0.5,0.3c0.2,0.1,0.4,0.1,0.8,0.2c0.4,0.1,0.8,0.2,1,0.3
			c0.3,0.1,0.5,0.3,0.7,0.5c0.2,0.2,0.3,0.5,0.3,0.8c0,0.3-0.1,0.6-0.2,0.8c-0.2,0.2-0.4,0.4-0.7,0.6s-0.7,0.2-1.2,0.2
			C107.8,322.9,107.4,322.8,107,322.7z"/>
		<path class="st0" d="M113.3,317.2h0.8v5.6h-0.8V317.2z"/>
		<path class="st0" d="M120.5,317.2v5.6h-0.7l-3.4-4.2v4.2h-0.8v-5.6h0.7l3.4,4.2v-4.2H120.5z"/>
		<path class="st0" d="M121.9,317.2h2.4c0.6,0,1.1,0.1,1.6,0.4c0.5,0.2,0.8,0.6,1.1,1s0.4,0.9,0.4,1.5c0,0.6-0.1,1-0.4,1.5
			s-0.6,0.8-1.1,1c-0.5,0.2-1,0.4-1.6,0.4h-2.4V317.2z M124.3,322.2c0.5,0,0.9-0.1,1.2-0.3c0.3-0.2,0.6-0.4,0.8-0.7
			c0.2-0.3,0.3-0.7,0.3-1.1c0-0.4-0.1-0.8-0.3-1.1c-0.2-0.3-0.5-0.6-0.8-0.7c-0.3-0.2-0.7-0.3-1.2-0.3h-1.5v4.2H124.3z"/>
		<path class="st0" d="M129.3,315.7h1l-1.3,1h-0.7L129.3,315.7z M128.4,317.2h0.8v5.6h-0.8V317.2z"/>
		<path class="st0" d="M134.5,320h0.8v2.2c-0.3,0.2-0.6,0.4-1,0.5c-0.4,0.1-0.8,0.2-1.2,0.2c-0.6,0-1.1-0.1-1.5-0.4
			c-0.5-0.2-0.8-0.6-1.1-1c-0.3-0.4-0.4-0.9-0.4-1.5c0-0.5,0.1-1,0.4-1.5c0.3-0.4,0.6-0.8,1.1-1s1-0.4,1.5-0.4
			c0.4,0,0.9,0.1,1.2,0.2c0.4,0.1,0.7,0.4,0.9,0.6l-0.5,0.5c-0.4-0.4-1-0.6-1.6-0.6c-0.4,0-0.8,0.1-1.2,0.3s-0.6,0.4-0.8,0.8
			c-0.2,0.3-0.3,0.7-0.3,1.1c0,0.4,0.1,0.8,0.3,1.1c0.2,0.3,0.5,0.6,0.8,0.8c0.3,0.2,0.7,0.3,1.1,0.3c0.5,0,0.9-0.1,1.3-0.4V320z"/>
		<path class="st0" d="M140.7,322.2v0.7h-4.1v-5.6h4v0.7h-3.2v1.7h2.8v0.7h-2.8v1.8H140.7z"/>
		<path class="st0" d="M146.6,317.2v5.6H146l-3.4-4.2v4.2h-0.8v-5.6h0.7l3.4,4.2v-4.2H146.6z"/>
		<path class="st0" d="M151.7,321.4h-3l-0.6,1.4h-0.8l2.5-5.6h0.8l2.5,5.6h-0.8L151.7,321.4z M151.4,320.8l-1.2-2.8l-1.2,2.8H151.4z
			"/>
		<path class="st0" d="M154.2,322.7c-0.4-0.1-0.7-0.3-0.9-0.5l0.3-0.6c0.2,0.2,0.5,0.3,0.8,0.5s0.7,0.2,1,0.2c0.5,0,0.8-0.1,1-0.2
			c0.2-0.2,0.3-0.4,0.3-0.6c0-0.2-0.1-0.3-0.2-0.5c-0.1-0.1-0.3-0.2-0.5-0.3c-0.2-0.1-0.4-0.1-0.8-0.2c-0.4-0.1-0.8-0.2-1-0.3
			s-0.5-0.3-0.7-0.5c-0.2-0.2-0.3-0.5-0.3-0.9c0-0.3,0.1-0.6,0.2-0.8s0.4-0.4,0.7-0.6c0.3-0.1,0.7-0.2,1.2-0.2c0.3,0,0.7,0,1,0.1
			c0.3,0.1,0.6,0.2,0.8,0.4l-0.3,0.6c-0.2-0.1-0.5-0.3-0.8-0.3c-0.3-0.1-0.5-0.1-0.8-0.1c-0.5,0-0.8,0.1-1,0.2
			c-0.2,0.2-0.3,0.4-0.3,0.6c0,0.2,0.1,0.3,0.2,0.5c0.1,0.1,0.3,0.2,0.5,0.3c0.2,0.1,0.4,0.1,0.8,0.2c0.4,0.1,0.8,0.2,1,0.3
			c0.3,0.1,0.5,0.3,0.7,0.5c0.2,0.2,0.3,0.5,0.3,0.8c0,0.3-0.1,0.6-0.2,0.8c-0.2,0.2-0.4,0.4-0.7,0.6s-0.7,0.2-1.2,0.2
			C155,322.9,154.6,322.8,154.2,322.7z"/>
		<path class="st0" d="M165.3,317.2v5.6h-0.8v-2.5h-3.2v2.5h-0.8v-5.6h0.8v2.4h3.2v-2.4H165.3z"/>
		<path class="st0" d="M167.8,322.5c-0.5-0.2-0.8-0.6-1.1-1c-0.3-0.4-0.4-0.9-0.4-1.5c0-0.5,0.1-1,0.4-1.5c0.3-0.4,0.6-0.8,1.1-1
			c0.5-0.2,1-0.4,1.5-0.4c0.6,0,1.1,0.1,1.5,0.4c0.5,0.2,0.8,0.6,1.1,1c0.3,0.4,0.4,0.9,0.4,1.5c0,0.5-0.1,1-0.4,1.5
			c-0.3,0.4-0.6,0.8-1.1,1c-0.5,0.2-1,0.4-1.5,0.4C168.8,322.9,168.3,322.8,167.8,322.5z M170.5,321.9c0.3-0.2,0.6-0.4,0.8-0.8
			c0.2-0.3,0.3-0.7,0.3-1.1c0-0.4-0.1-0.8-0.3-1.1c-0.2-0.3-0.4-0.6-0.8-0.8c-0.3-0.2-0.7-0.3-1.1-0.3s-0.8,0.1-1.1,0.3
			c-0.3,0.2-0.6,0.4-0.8,0.8c-0.2,0.3-0.3,0.7-0.3,1.1c0,0.4,0.1,0.8,0.3,1.1c0.2,0.3,0.5,0.6,0.8,0.8c0.3,0.2,0.7,0.3,1.1,0.3
			S170.1,322.1,170.5,321.9z"/>
		<path class="st0" d="M178.6,322.8l0-4.1l-2,3.4h-0.4l-2-3.4v4.1h-0.8v-5.6h0.7l2.3,3.9l2.3-3.9h0.7l0,5.6H178.6z"/>
		<path class="st0" d="M181.8,322.5c-0.5-0.2-0.8-0.6-1.1-1c-0.3-0.4-0.4-0.9-0.4-1.5c0-0.5,0.1-1,0.4-1.5c0.3-0.4,0.6-0.8,1.1-1
			s1-0.4,1.5-0.4c0.6,0,1.1,0.1,1.5,0.4c0.5,0.2,0.8,0.6,1.1,1c0.3,0.4,0.4,0.9,0.4,1.5c0,0.5-0.1,1-0.4,1.5c-0.3,0.4-0.6,0.8-1.1,1
			c-0.5,0.2-1,0.4-1.5,0.4C182.8,322.9,182.3,322.8,181.8,322.5z M184.5,321.9c0.3-0.2,0.6-0.4,0.8-0.8c0.2-0.3,0.3-0.7,0.3-1.1
			c0-0.4-0.1-0.8-0.3-1.1c-0.2-0.3-0.4-0.6-0.8-0.8c-0.3-0.2-0.7-0.3-1.1-0.3c-0.4,0-0.8,0.1-1.1,0.3c-0.3,0.2-0.6,0.4-0.8,0.8
			c-0.2,0.3-0.3,0.7-0.3,1.1c0,0.4,0.1,0.8,0.3,1.1c0.2,0.3,0.5,0.6,0.8,0.8c0.3,0.2,0.7,0.3,1.1,0.3
			C183.8,322.2,184.1,322.1,184.5,321.9z"/>
		<path class="st0" d="M187.4,317.2h0.8v4.9h3v0.7h-3.8V317.2z"/>
		<path class="st0" d="M192.8,322.5c-0.5-0.2-0.8-0.6-1.1-1c-0.3-0.4-0.4-0.9-0.4-1.5c0-0.5,0.1-1,0.4-1.5c0.3-0.4,0.6-0.8,1.1-1
			s1-0.4,1.5-0.4c0.6,0,1.1,0.1,1.5,0.4c0.5,0.2,0.8,0.6,1.1,1c0.3,0.4,0.4,0.9,0.4,1.5c0,0.5-0.1,1-0.4,1.5c-0.3,0.4-0.6,0.8-1.1,1
			c-0.5,0.2-1,0.4-1.5,0.4C193.8,322.9,193.3,322.8,192.8,322.5z M195.5,321.9c0.3-0.2,0.6-0.4,0.8-0.8c0.2-0.3,0.3-0.7,0.3-1.1
			c0-0.4-0.1-0.8-0.3-1.1c-0.2-0.3-0.4-0.6-0.8-0.8c-0.3-0.2-0.7-0.3-1.1-0.3c-0.4,0-0.8,0.1-1.1,0.3c-0.3,0.2-0.6,0.4-0.8,0.8
			c-0.2,0.3-0.3,0.7-0.3,1.1c0,0.4,0.1,0.8,0.3,1.1c0.2,0.3,0.5,0.6,0.8,0.8c0.3,0.2,0.7,0.3,1.1,0.3
			C194.8,322.2,195.1,322.1,195.5,321.9z"/>
		<path class="st0" d="M202.2,320h0.8v2.2c-0.3,0.2-0.6,0.4-1,0.5c-0.4,0.1-0.8,0.2-1.2,0.2c-0.6,0-1.1-0.1-1.5-0.4
			c-0.5-0.2-0.8-0.6-1.1-1c-0.3-0.4-0.4-0.9-0.4-1.5c0-0.5,0.1-1,0.4-1.5c0.3-0.4,0.6-0.8,1.1-1s1-0.4,1.5-0.4
			c0.4,0,0.9,0.1,1.2,0.2c0.4,0.1,0.7,0.4,0.9,0.6l-0.5,0.5c-0.4-0.4-1-0.6-1.6-0.6c-0.4,0-0.8,0.1-1.2,0.3
			c-0.3,0.2-0.6,0.4-0.8,0.8c-0.2,0.3-0.3,0.7-0.3,1.1c0,0.4,0.1,0.8,0.3,1.1c0.2,0.3,0.5,0.6,0.8,0.8c0.3,0.2,0.7,0.3,1.1,0.3
			c0.5,0,0.9-0.1,1.3-0.4V320z"/>
		<path class="st0" d="M207.9,321.4h-3l-0.6,1.4h-0.8l2.5-5.6h0.8l2.5,5.6h-0.8L207.9,321.4z M207.6,320.8l-1.2-2.8l-1.2,2.8H207.6z
			"/>
		<path class="st0" d="M210,317.2h2.4c0.6,0,1.1,0.1,1.6,0.4c0.5,0.2,0.8,0.6,1.1,1c0.3,0.4,0.4,0.9,0.4,1.5c0,0.6-0.1,1-0.4,1.5
			c-0.3,0.4-0.6,0.8-1.1,1c-0.5,0.2-1,0.4-1.6,0.4H210V317.2z M212.3,322.2c0.5,0,0.9-0.1,1.2-0.3c0.3-0.2,0.6-0.4,0.8-0.7
			c0.2-0.3,0.3-0.7,0.3-1.1c0-0.4-0.1-0.8-0.3-1.1c-0.2-0.3-0.5-0.6-0.8-0.7s-0.7-0.3-1.2-0.3h-1.5v4.2H212.3z"/>
		<path class="st0" d="M219.9,321.4h-3l-0.6,1.4h-0.8l2.5-5.6h0.8l2.5,5.6h-0.8L219.9,321.4z M219.6,320.8l-1.2-2.8l-1.2,2.8H219.6z
			"/>
		<path class="st0" d="M222.4,322.7c-0.4-0.1-0.7-0.3-0.9-0.5l0.3-0.6c0.2,0.2,0.5,0.3,0.8,0.5s0.7,0.2,1,0.2c0.5,0,0.8-0.1,1-0.2
			c0.2-0.2,0.3-0.4,0.3-0.6c0-0.2-0.1-0.3-0.2-0.5c-0.1-0.1-0.3-0.2-0.5-0.3c-0.2-0.1-0.4-0.1-0.8-0.2c-0.4-0.1-0.8-0.2-1-0.3
			c-0.3-0.1-0.5-0.3-0.7-0.5c-0.2-0.2-0.3-0.5-0.3-0.9c0-0.3,0.1-0.6,0.2-0.8c0.2-0.2,0.4-0.4,0.7-0.6c0.3-0.1,0.7-0.2,1.2-0.2
			c0.3,0,0.7,0,1,0.1c0.3,0.1,0.6,0.2,0.8,0.4l-0.3,0.6c-0.2-0.1-0.5-0.3-0.8-0.3c-0.3-0.1-0.5-0.1-0.8-0.1c-0.5,0-0.8,0.1-1,0.2
			c-0.2,0.2-0.3,0.4-0.3,0.6c0,0.2,0.1,0.3,0.2,0.5c0.1,0.1,0.3,0.2,0.5,0.3c0.2,0.1,0.4,0.1,0.8,0.2c0.4,0.1,0.8,0.2,1,0.3
			c0.3,0.1,0.5,0.3,0.7,0.5c0.2,0.2,0.3,0.5,0.3,0.8c0,0.3-0.1,0.6-0.2,0.8c-0.2,0.2-0.4,0.4-0.7,0.6c-0.3,0.1-0.7,0.2-1.2,0.2
			C223.2,322.9,222.8,322.8,222.4,322.7z"/>
		<path class="st0" d="M233.6,317.2v5.6h-0.7l-3.4-4.2v4.2h-0.8v-5.6h0.7l3.4,4.2v-4.2H233.6z"/>
		<path class="st0" d="M236.1,322.5c-0.5-0.2-0.8-0.6-1.1-1c-0.3-0.4-0.4-0.9-0.4-1.5c0-0.5,0.1-1,0.4-1.5c0.3-0.4,0.6-0.8,1.1-1
			s1-0.4,1.5-0.4c0.6,0,1.1,0.1,1.5,0.4c0.5,0.2,0.8,0.6,1.1,1c0.3,0.4,0.4,0.9,0.4,1.5c0,0.5-0.1,1-0.4,1.5c-0.3,0.4-0.6,0.8-1.1,1
			c-0.5,0.2-1,0.4-1.5,0.4C237,322.9,236.5,322.8,236.1,322.5z M238.7,321.9c0.3-0.2,0.6-0.4,0.8-0.8c0.2-0.3,0.3-0.7,0.3-1.1
			c0-0.4-0.1-0.8-0.3-1.1c-0.2-0.3-0.4-0.6-0.8-0.8c-0.3-0.2-0.7-0.3-1.1-0.3c-0.4,0-0.8,0.1-1.1,0.3c-0.3,0.2-0.6,0.4-0.8,0.8
			c-0.2,0.3-0.3,0.7-0.3,1.1c0,0.4,0.1,0.8,0.3,1.1c0.2,0.3,0.5,0.6,0.8,0.8c0.3,0.2,0.7,0.3,1.1,0.3
			C238,322.2,238.4,322.1,238.7,321.9z"/>
		<path class="st0" d="M247.4,320h0.8v2.2c-0.3,0.2-0.6,0.4-1,0.5c-0.4,0.1-0.8,0.2-1.2,0.2c-0.6,0-1.1-0.1-1.5-0.4
			c-0.5-0.2-0.8-0.6-1.1-1c-0.3-0.4-0.4-0.9-0.4-1.5c0-0.5,0.1-1,0.4-1.5c0.3-0.4,0.6-0.8,1.1-1s1-0.4,1.5-0.4
			c0.4,0,0.9,0.1,1.2,0.2c0.4,0.1,0.7,0.4,0.9,0.6l-0.5,0.5c-0.4-0.4-1-0.6-1.6-0.6c-0.4,0-0.8,0.1-1.2,0.3
			c-0.3,0.2-0.6,0.4-0.8,0.8c-0.2,0.3-0.3,0.7-0.3,1.1c0,0.4,0.1,0.8,0.3,1.1c0.2,0.3,0.5,0.6,0.8,0.8c0.3,0.2,0.7,0.3,1.1,0.3
			c0.5,0,0.9-0.1,1.3-0.4V320z"/>
		<path class="st0" d="M253.6,322.2v0.7h-4.1v-5.6h4v0.7h-3.2v1.7h2.8v0.7h-2.8v1.8H253.6z"/>
		<path class="st0" d="M258.5,322.8l-1.2-1.7c-0.2,0-0.3,0-0.4,0h-1.4v1.7h-0.8v-5.6h2.2c0.7,0,1.3,0.2,1.7,0.5
			c0.4,0.3,0.6,0.8,0.6,1.4c0,0.4-0.1,0.8-0.3,1.1s-0.5,0.5-0.9,0.7l1.3,1.9H258.5z M258,320.1c0.3-0.2,0.4-0.5,0.4-0.9
			s-0.1-0.7-0.4-0.9c-0.3-0.2-0.7-0.3-1.2-0.3h-1.4v2.5h1.4C257.4,320.5,257.8,320.3,258,320.1z"/>
		<path class="st0" d="M264.4,322.2v0.7h-4.1v-5.6h4v0.7h-3.2v1.7h2.8v0.7h-2.8v1.8H264.4z"/>
		<path class="st0" d="M270.3,317.2v5.6h-0.7l-3.4-4.2v4.2h-0.8v-5.6h0.7l3.4,4.2v-4.2H270.3z"/>
		<path class="st0" d="M272.8,322.5c-0.5-0.2-0.8-0.6-1.1-1s-0.4-0.9-0.4-1.5c0-0.5,0.1-1,0.4-1.5s0.6-0.8,1.1-1s1-0.4,1.5-0.4
			c0.4,0,0.8,0.1,1.2,0.2c0.4,0.1,0.7,0.4,0.9,0.7l-0.5,0.5c-0.4-0.4-0.9-0.7-1.6-0.7c-0.4,0-0.8,0.1-1.1,0.3
			c-0.3,0.2-0.6,0.4-0.8,0.8c-0.2,0.3-0.3,0.7-0.3,1.1c0,0.4,0.1,0.8,0.3,1.1c0.2,0.3,0.5,0.6,0.8,0.8c0.3,0.2,0.7,0.3,1.1,0.3
			c0.6,0,1.2-0.2,1.6-0.7l0.5,0.5c-0.3,0.3-0.6,0.5-0.9,0.7s-0.8,0.2-1.2,0.2C273.8,322.9,273.3,322.8,272.8,322.5z"/>
		<path class="st0" d="M277.4,317.2h0.8v5.6h-0.8V317.2z"/>
		<path class="st0" d="M283.3,321.4h-3l-0.6,1.4h-0.8l2.5-5.6h0.8l2.5,5.6h-0.8L283.3,321.4z M283,320.8l-1.2-2.8l-1.2,2.8H283z"/>
		<path class="st0" d="M290.6,322.8l0-4.1l-2,3.4h-0.4l-2-3.4v4.1h-0.8v-5.6h0.7l2.3,3.9l2.3-3.9h0.7l0,5.6H290.6z"/>
		<path class="st0" d="M296.9,322.2v0.7h-4.1v-5.6h4v0.7h-3.2v1.7h2.8v0.7h-2.8v1.8H296.9z"/>
		<path class="st0" d="M302.8,317.2v5.6h-0.7l-3.4-4.2v4.2H298v-5.6h0.7l3.4,4.2v-4.2H302.8z"/>
		<path class="st0" d="M305.4,317.9h-1.9v-0.7h4.6v0.7h-1.9v4.9h-0.8V317.9z"/>
		<path class="st0" d="M309.7,322.5c-0.5-0.2-0.8-0.6-1.1-1c-0.3-0.4-0.4-0.9-0.4-1.5c0-0.5,0.1-1,0.4-1.5c0.3-0.4,0.6-0.8,1.1-1
			s1-0.4,1.5-0.4c0.6,0,1.1,0.1,1.5,0.4c0.5,0.2,0.8,0.6,1.1,1c0.3,0.4,0.4,0.9,0.4,1.5c0,0.5-0.1,1-0.4,1.5c-0.3,0.4-0.6,0.8-1.1,1
			c-0.5,0.2-1,0.4-1.5,0.4C310.7,322.9,310.2,322.8,309.7,322.5z M312.4,321.9c0.3-0.2,0.6-0.4,0.8-0.8c0.2-0.3,0.3-0.7,0.3-1.1
			c0-0.4-0.1-0.8-0.3-1.1c-0.2-0.3-0.4-0.6-0.8-0.8c-0.3-0.2-0.7-0.3-1.1-0.3c-0.4,0-0.8,0.1-1.1,0.3c-0.3,0.2-0.6,0.4-0.8,0.8
			c-0.2,0.3-0.3,0.7-0.3,1.1c0,0.4,0.1,0.8,0.3,1.1c0.2,0.3,0.5,0.6,0.8,0.8c0.3,0.2,0.7,0.3,1.1,0.3
			C311.7,322.2,312.1,322.1,312.4,321.9z"/>
	</g>
	<g>
		<path class="st0" d="M349.1,317.9h-1.9v-0.7h4.6v0.7h-1.9v4.9h-0.8V317.9z"/>
		<path class="st0" d="M356.6,322.2v0.7h-4.1v-5.6h4v0.7h-3.2v1.7h2.8v0.7h-2.8v1.8H356.6z"/>
		<path class="st0" d="M361.4,322.8l-1.2-1.7c-0.2,0-0.3,0-0.4,0h-1.4v1.7h-0.8v-5.6h2.2c0.7,0,1.3,0.2,1.7,0.5
			c0.4,0.3,0.6,0.8,0.6,1.4c0,0.4-0.1,0.8-0.3,1.1s-0.5,0.5-0.9,0.7l1.3,1.9H361.4z M361,320.1c0.3-0.2,0.4-0.5,0.4-0.9
			s-0.1-0.7-0.4-0.9c-0.3-0.2-0.7-0.3-1.2-0.3h-1.4v2.5h1.4C360.3,320.5,360.7,320.3,361,320.1z"/>
		<path class="st0" d="M367,322.8l-1.2-1.7c-0.2,0-0.3,0-0.4,0h-1.4v1.7h-0.8v-5.6h2.2c0.7,0,1.3,0.2,1.7,0.5
			c0.4,0.3,0.6,0.8,0.6,1.4c0,0.4-0.1,0.8-0.3,1.1s-0.5,0.5-0.9,0.7l1.3,1.9H367z M366.6,320.1c0.3-0.2,0.4-0.5,0.4-0.9
			s-0.1-0.7-0.4-0.9c-0.3-0.2-0.7-0.3-1.2-0.3h-1.4v2.5h1.4C366,320.5,366.3,320.3,366.6,320.1z"/>
		<path class="st0" d="M372.5,321.4h-3l-0.6,1.4h-0.8l2.5-5.6h0.8l2.5,5.6h-0.8L372.5,321.4z M372.2,320.8l-1.2-2.8l-1.2,2.8H372.2z
			"/>
		<path class="st0" d="M375,322.7c-0.4-0.1-0.7-0.3-0.9-0.5l0.3-0.6c0.2,0.2,0.5,0.3,0.8,0.5s0.7,0.2,1,0.2c0.5,0,0.8-0.1,1-0.2
			c0.2-0.2,0.3-0.4,0.3-0.6c0-0.2-0.1-0.3-0.2-0.5c-0.1-0.1-0.3-0.2-0.5-0.3c-0.2-0.1-0.4-0.1-0.8-0.2c-0.4-0.1-0.8-0.2-1-0.3
			c-0.3-0.1-0.5-0.3-0.7-0.5c-0.2-0.2-0.3-0.5-0.3-0.9c0-0.3,0.1-0.6,0.2-0.8c0.2-0.2,0.4-0.4,0.7-0.6c0.3-0.1,0.7-0.2,1.2-0.2
			c0.3,0,0.7,0,1,0.1c0.3,0.1,0.6,0.2,0.8,0.4l-0.3,0.6c-0.2-0.1-0.5-0.3-0.8-0.3c-0.3-0.1-0.5-0.1-0.8-0.1c-0.5,0-0.8,0.1-1,0.2
			c-0.2,0.2-0.3,0.4-0.3,0.6c0,0.2,0.1,0.3,0.2,0.5c0.1,0.1,0.3,0.2,0.5,0.3c0.2,0.1,0.4,0.1,0.8,0.2c0.4,0.1,0.8,0.2,1,0.3
			c0.3,0.1,0.5,0.3,0.7,0.5c0.2,0.2,0.3,0.5,0.3,0.8c0,0.3-0.1,0.6-0.2,0.8c-0.2,0.2-0.4,0.4-0.7,0.6c-0.3,0.1-0.7,0.2-1.2,0.2
			C375.8,322.9,375.4,322.8,375,322.7z"/>
		<path class="st0" d="M381.3,317.2h0.8v5.6h-0.8V317.2z"/>
		<path class="st0" d="M388.4,317.2v5.6h-0.7l-3.4-4.2v4.2h-0.8v-5.6h0.7l3.4,4.2v-4.2H388.4z"/>
		<path class="st0" d="M389.9,317.2h2.4c0.6,0,1.1,0.1,1.6,0.4c0.5,0.2,0.8,0.6,1.1,1c0.3,0.4,0.4,0.9,0.4,1.5c0,0.6-0.1,1-0.4,1.5
			c-0.3,0.4-0.6,0.8-1.1,1c-0.5,0.2-1,0.4-1.6,0.4h-2.4V317.2z M392.2,322.2c0.5,0,0.9-0.1,1.2-0.3c0.3-0.2,0.6-0.4,0.8-0.7
			c0.2-0.3,0.3-0.7,0.3-1.1c0-0.4-0.1-0.8-0.3-1.1c-0.2-0.3-0.5-0.6-0.8-0.7s-0.7-0.3-1.2-0.3h-1.5v4.2H392.2z"/>
		<path class="st0" d="M397.2,315.7h1l-1.3,1h-0.7L397.2,315.7z M396.3,317.2h0.8v5.6h-0.8V317.2z"/>
		<path class="st0" d="M402.5,320h0.8v2.2c-0.3,0.2-0.6,0.4-1,0.5c-0.4,0.1-0.8,0.2-1.2,0.2c-0.6,0-1.1-0.1-1.5-0.4
			c-0.5-0.2-0.8-0.6-1.1-1c-0.3-0.4-0.4-0.9-0.4-1.5c0-0.5,0.1-1,0.4-1.5c0.3-0.4,0.6-0.8,1.1-1s1-0.4,1.5-0.4
			c0.4,0,0.9,0.1,1.2,0.2c0.4,0.1,0.7,0.4,0.9,0.6l-0.5,0.5c-0.4-0.4-1-0.6-1.6-0.6c-0.4,0-0.8,0.1-1.2,0.3
			c-0.3,0.2-0.6,0.4-0.8,0.8c-0.2,0.3-0.3,0.7-0.3,1.1c0,0.4,0.1,0.8,0.3,1.1c0.2,0.3,0.5,0.6,0.8,0.8c0.3,0.2,0.7,0.3,1.1,0.3
			c0.5,0,0.9-0.1,1.3-0.4V320z"/>
		<path class="st0" d="M408.7,322.2v0.7h-4.1v-5.6h4v0.7h-3.2v1.7h2.8v0.7h-2.8v1.8H408.7z"/>
		<path class="st0" d="M414.6,317.2v5.6H414l-3.4-4.2v4.2h-0.8v-5.6h0.7l3.4,4.2v-4.2H414.6z"/>
		<path class="st0" d="M419.7,321.4h-3l-0.6,1.4h-0.8l2.5-5.6h0.8l2.5,5.6h-0.8L419.7,321.4z M419.4,320.8l-1.2-2.8l-1.2,2.8H419.4z
			"/>
		<path class="st0" d="M422.2,322.7c-0.4-0.1-0.7-0.3-0.9-0.5l0.3-0.6c0.2,0.2,0.5,0.3,0.8,0.5s0.7,0.2,1,0.2c0.5,0,0.8-0.1,1-0.2
			c0.2-0.2,0.3-0.4,0.3-0.6c0-0.2-0.1-0.3-0.2-0.5c-0.1-0.1-0.3-0.2-0.5-0.3c-0.2-0.1-0.4-0.1-0.8-0.2c-0.4-0.1-0.8-0.2-1-0.3
			c-0.3-0.1-0.5-0.3-0.7-0.5c-0.2-0.2-0.3-0.5-0.3-0.9c0-0.3,0.1-0.6,0.2-0.8c0.2-0.2,0.4-0.4,0.7-0.6c0.3-0.1,0.7-0.2,1.2-0.2
			c0.3,0,0.7,0,1,0.1c0.3,0.1,0.6,0.2,0.8,0.4l-0.3,0.6c-0.2-0.1-0.5-0.3-0.8-0.3c-0.3-0.1-0.5-0.1-0.8-0.1c-0.5,0-0.8,0.1-1,0.2
			c-0.2,0.2-0.3,0.4-0.3,0.6c0,0.2,0.1,0.3,0.2,0.5c0.1,0.1,0.3,0.2,0.5,0.3c0.2,0.1,0.4,0.1,0.8,0.2c0.4,0.1,0.8,0.2,1,0.3
			c0.3,0.1,0.5,0.3,0.7,0.5c0.2,0.2,0.3,0.5,0.3,0.8c0,0.3-0.1,0.6-0.2,0.8c-0.2,0.2-0.4,0.4-0.7,0.6c-0.3,0.1-0.7,0.2-1.2,0.2
			C423,322.9,422.6,322.8,422.2,322.7z"/>
		<path class="st0" d="M428.5,317.2h2.4c0.6,0,1.1,0.1,1.6,0.4c0.5,0.2,0.8,0.6,1.1,1c0.3,0.4,0.4,0.9,0.4,1.5c0,0.6-0.1,1-0.4,1.5
			c-0.3,0.4-0.6,0.8-1.1,1c-0.5,0.2-1,0.4-1.6,0.4h-2.4V317.2z M430.8,322.2c0.5,0,0.9-0.1,1.2-0.3c0.3-0.2,0.6-0.4,0.8-0.7
			c0.2-0.3,0.3-0.7,0.3-1.1c0-0.4-0.1-0.8-0.3-1.1c-0.2-0.3-0.5-0.6-0.8-0.7s-0.7-0.3-1.2-0.3h-1.5v4.2H430.8z"/>
		<path class="st0" d="M439,322.2v0.7h-4.1v-5.6h4v0.7h-3.2v1.7h2.8v0.7h-2.8v1.8H439z"/>
		<path class="st0" d="M441.1,322.5c-0.5-0.2-0.8-0.6-1.1-1s-0.4-0.9-0.4-1.5c0-0.5,0.1-1,0.4-1.5s0.6-0.8,1.1-1s1-0.4,1.5-0.4
			c0.4,0,0.8,0.1,1.2,0.2c0.4,0.1,0.7,0.4,0.9,0.7l-0.5,0.5c-0.4-0.4-0.9-0.7-1.6-0.7c-0.4,0-0.8,0.1-1.1,0.3
			c-0.3,0.2-0.6,0.4-0.8,0.8c-0.2,0.3-0.3,0.7-0.3,1.1c0,0.4,0.1,0.8,0.3,1.1c0.2,0.3,0.5,0.6,0.8,0.8c0.3,0.2,0.7,0.3,1.1,0.3
			c0.6,0,1.2-0.2,1.6-0.7l0.5,0.5c-0.3,0.3-0.6,0.5-0.9,0.7s-0.8,0.2-1.2,0.2C442,322.9,441.5,322.8,441.1,322.5z"/>
		<path class="st0" d="M445.7,317.2h0.8v4.9h3v0.7h-3.8V317.2z"/>
		<path class="st0" d="M453.8,321.4h-3l-0.6,1.4h-0.8l2.5-5.6h0.8l2.5,5.6h-0.8L453.8,321.4z M453.5,320.8l-1.2-2.8l-1.2,2.8H453.5z
			"/>
		<path class="st0" d="M459.7,322.8l-1.2-1.7c-0.2,0-0.3,0-0.4,0h-1.4v1.7h-0.8v-5.6h2.2c0.7,0,1.3,0.2,1.7,0.5
			c0.4,0.3,0.6,0.8,0.6,1.4c0,0.4-0.1,0.8-0.3,1.1s-0.5,0.5-0.9,0.7l1.3,1.9H459.7z M459.2,320.1c0.3-0.2,0.4-0.5,0.4-0.9
			s-0.1-0.7-0.4-0.9c-0.3-0.2-0.7-0.3-1.2-0.3h-1.4v2.5h1.4C458.6,320.5,459,320.3,459.2,320.1z"/>
		<path class="st0" d="M465.1,321.4h-3l-0.6,1.4h-0.8l2.5-5.6h0.8l2.5,5.6h-0.8L465.1,321.4z M464.8,320.8l-1.2-2.8l-1.2,2.8H464.8z
			"/>
		<path class="st0" d="M467.2,317.2h2.4c0.6,0,1.1,0.1,1.6,0.4c0.5,0.2,0.8,0.6,1.1,1c0.3,0.4,0.4,0.9,0.4,1.5c0,0.6-0.1,1-0.4,1.5
			c-0.3,0.4-0.6,0.8-1.1,1c-0.5,0.2-1,0.4-1.6,0.4h-2.4V317.2z M469.5,322.2c0.5,0,0.9-0.1,1.2-0.3c0.3-0.2,0.6-0.4,0.8-0.7
			c0.2-0.3,0.3-0.7,0.3-1.1c0-0.4-0.1-0.8-0.3-1.1c-0.2-0.3-0.5-0.6-0.8-0.7s-0.7-0.3-1.2-0.3H468v4.2H469.5z"/>
		<path class="st0" d="M477.1,321.4h-3l-0.6,1.4h-0.8l2.5-5.6h0.8l2.5,5.6h-0.8L477.1,321.4z M476.9,320.8l-1.2-2.8l-1.2,2.8H476.9z
			"/>
		<path class="st0" d="M479.6,322.7c-0.4-0.1-0.7-0.3-0.9-0.5l0.3-0.6c0.2,0.2,0.5,0.3,0.8,0.5s0.7,0.2,1,0.2c0.5,0,0.8-0.1,1-0.2
			c0.2-0.2,0.3-0.4,0.3-0.6c0-0.2-0.1-0.3-0.2-0.5c-0.1-0.1-0.3-0.2-0.5-0.3c-0.2-0.1-0.4-0.1-0.8-0.2c-0.4-0.1-0.8-0.2-1-0.3
			c-0.3-0.1-0.5-0.3-0.7-0.5c-0.2-0.2-0.3-0.5-0.3-0.9c0-0.3,0.1-0.6,0.2-0.8c0.2-0.2,0.4-0.4,0.7-0.6c0.3-0.1,0.7-0.2,1.2-0.2
			c0.3,0,0.7,0,1,0.1c0.3,0.1,0.6,0.2,0.8,0.4l-0.3,0.6c-0.2-0.1-0.5-0.3-0.8-0.3c-0.3-0.1-0.5-0.1-0.8-0.1c-0.5,0-0.8,0.1-1,0.2
			c-0.2,0.2-0.3,0.4-0.3,0.6c0,0.2,0.1,0.3,0.2,0.5c0.1,0.1,0.3,0.2,0.5,0.3c0.2,0.1,0.4,0.1,0.8,0.2c0.4,0.1,0.8,0.2,1,0.3
			c0.3,0.1,0.5,0.3,0.7,0.5c0.2,0.2,0.3,0.5,0.3,0.8c0,0.3-0.1,0.6-0.2,0.8c-0.2,0.2-0.4,0.4-0.7,0.6c-0.3,0.1-0.7,0.2-1.2,0.2
			C480.4,322.9,480,322.8,479.6,322.7z"/>
		<path class="st0" d="M490.8,317.2v5.6h-0.7l-3.4-4.2v4.2H486v-5.6h0.7l3.4,4.2v-4.2H490.8z"/>
		<path class="st0" d="M493.3,322.5c-0.5-0.2-0.8-0.6-1.1-1c-0.3-0.4-0.4-0.9-0.4-1.5c0-0.5,0.1-1,0.4-1.5c0.3-0.4,0.6-0.8,1.1-1
			s1-0.4,1.5-0.4c0.6,0,1.1,0.1,1.5,0.4c0.5,0.2,0.8,0.6,1.1,1c0.3,0.4,0.4,0.9,0.4,1.5c0,0.5-0.1,1-0.4,1.5c-0.3,0.4-0.6,0.8-1.1,1
			c-0.5,0.2-1,0.4-1.5,0.4C494.2,322.9,493.7,322.8,493.3,322.5z M495.9,321.9c0.3-0.2,0.6-0.4,0.8-0.8c0.2-0.3,0.3-0.7,0.3-1.1
			c0-0.4-0.1-0.8-0.3-1.1c-0.2-0.3-0.4-0.6-0.8-0.8c-0.3-0.2-0.7-0.3-1.1-0.3c-0.4,0-0.8,0.1-1.1,0.3c-0.3,0.2-0.6,0.4-0.8,0.8
			c-0.2,0.3-0.3,0.7-0.3,1.1c0,0.4,0.1,0.8,0.3,1.1c0.2,0.3,0.5,0.6,0.8,0.8c0.3,0.2,0.7,0.3,1.1,0.3
			C495.2,322.2,495.6,322.1,495.9,321.9z"/>
		<path class="st0" d="M504.6,320h0.8v2.2c-0.3,0.2-0.6,0.4-1,0.5c-0.4,0.1-0.8,0.2-1.2,0.2c-0.6,0-1.1-0.1-1.5-0.4
			c-0.5-0.2-0.8-0.6-1.1-1c-0.3-0.4-0.4-0.9-0.4-1.5c0-0.5,0.1-1,0.4-1.5c0.3-0.4,0.6-0.8,1.1-1s1-0.4,1.5-0.4
			c0.4,0,0.9,0.1,1.2,0.2c0.4,0.1,0.7,0.4,0.9,0.6l-0.5,0.5c-0.4-0.4-1-0.6-1.6-0.6c-0.4,0-0.8,0.1-1.2,0.3
			c-0.3,0.2-0.6,0.4-0.8,0.8c-0.2,0.3-0.3,0.7-0.3,1.1c0,0.4,0.1,0.8,0.3,1.1c0.2,0.3,0.5,0.6,0.8,0.8c0.3,0.2,0.7,0.3,1.1,0.3
			c0.5,0,0.9-0.1,1.3-0.4V320z"/>
		<path class="st0" d="M510.8,322.2v0.7h-4.1v-5.6h4v0.7h-3.2v1.7h2.8v0.7h-2.8v1.8H510.8z"/>
		<path class="st0" d="M515.7,322.8l-1.2-1.7c-0.2,0-0.3,0-0.4,0h-1.4v1.7h-0.8v-5.6h2.2c0.7,0,1.3,0.2,1.7,0.5
			c0.4,0.3,0.6,0.8,0.6,1.4c0,0.4-0.1,0.8-0.3,1.1s-0.5,0.5-0.9,0.7l1.3,1.9H515.7z M515.2,320.1c0.3-0.2,0.4-0.5,0.4-0.9
			s-0.1-0.7-0.4-0.9c-0.3-0.2-0.7-0.3-1.2-0.3h-1.4v2.5h1.4C514.6,320.5,515,320.3,515.2,320.1z"/>
		<path class="st0" d="M521.6,322.2v0.7h-4.1v-5.6h4v0.7h-3.2v1.7h2.8v0.7h-2.8v1.8H521.6z"/>
		<path class="st0" d="M527.5,317.2v5.6h-0.7l-3.4-4.2v4.2h-0.8v-5.6h0.7l3.4,4.2v-4.2H527.5z"/>
		<path class="st0" d="M530,322.5c-0.5-0.2-0.8-0.6-1.1-1s-0.4-0.9-0.4-1.5c0-0.5,0.1-1,0.4-1.5s0.6-0.8,1.1-1s1-0.4,1.5-0.4
			c0.4,0,0.8,0.1,1.2,0.2c0.4,0.1,0.7,0.4,0.9,0.7l-0.5,0.5c-0.4-0.4-0.9-0.7-1.6-0.7c-0.4,0-0.8,0.1-1.1,0.3
			c-0.3,0.2-0.6,0.4-0.8,0.8c-0.2,0.3-0.3,0.7-0.3,1.1c0,0.4,0.1,0.8,0.3,1.1c0.2,0.3,0.5,0.6,0.8,0.8c0.3,0.2,0.7,0.3,1.1,0.3
			c0.6,0,1.2-0.2,1.6-0.7l0.5,0.5c-0.3,0.3-0.6,0.5-0.9,0.7s-0.8,0.2-1.2,0.2C531,322.9,530.5,322.8,530,322.5z"/>
		<path class="st0" d="M534.6,317.2h0.8v5.6h-0.8V317.2z"/>
		<path class="st0" d="M540.5,321.4h-3l-0.6,1.4h-0.8l2.5-5.6h0.8l2.5,5.6h-0.8L540.5,321.4z M540.2,320.8l-1.2-2.8l-1.2,2.8H540.2z
			"/>
		<path class="st0" d="M547.8,322.8l0-4.1l-2,3.4h-0.4l-2-3.4v4.1h-0.8v-5.6h0.7l2.3,3.9l2.3-3.9h0.7l0,5.6H547.8z"/>
		<path class="st0" d="M554.1,322.2v0.7H550v-5.6h4v0.7h-3.2v1.7h2.8v0.7h-2.8v1.8H554.1z"/>
		<path class="st0" d="M560,317.2v5.6h-0.7l-3.4-4.2v4.2h-0.8v-5.6h0.7l3.4,4.2v-4.2H560z"/>
		<path class="st0" d="M562.6,317.9h-1.9v-0.7h4.6v0.7h-1.9v4.9h-0.8V317.9z"/>
		<path class="st0" d="M566.9,322.5c-0.5-0.2-0.8-0.6-1.1-1c-0.3-0.4-0.4-0.9-0.4-1.5c0-0.5,0.1-1,0.4-1.5c0.3-0.4,0.6-0.8,1.1-1
			s1-0.4,1.5-0.4c0.6,0,1.1,0.1,1.5,0.4c0.5,0.2,0.8,0.6,1.1,1c0.3,0.4,0.4,0.9,0.4,1.5c0,0.5-0.1,1-0.4,1.5c-0.3,0.4-0.6,0.8-1.1,1
			c-0.5,0.2-1,0.4-1.5,0.4C567.9,322.9,567.4,322.8,566.9,322.5z M569.6,321.9c0.3-0.2,0.6-0.4,0.8-0.8c0.2-0.3,0.3-0.7,0.3-1.1
			c0-0.4-0.1-0.8-0.3-1.1c-0.2-0.3-0.4-0.6-0.8-0.8c-0.3-0.2-0.7-0.3-1.1-0.3c-0.4,0-0.8,0.1-1.1,0.3c-0.3,0.2-0.6,0.4-0.8,0.8
			c-0.2,0.3-0.3,0.7-0.3,1.1c0,0.4,0.1,0.8,0.3,1.1c0.2,0.3,0.5,0.6,0.8,0.8c0.3,0.2,0.7,0.3,1.1,0.3
			C568.9,322.2,569.3,322.1,569.6,321.9z"/>
	</g>
	<g>
		<path class="st0" d="M54.1,276.2v1.3h2.3v0.9h-2.3v1.8H53v-4.9h3.7v0.9H54.1z"/>
		<path class="st0" d="M61.8,275.3v4.9h-1.1v-2h-2.2v2h-1.1v-4.9h1.1v1.9h2.2v-1.9H61.8z"/>
		<path class="st0" d="M63.8,280c-0.4-0.2-0.7-0.5-1-0.9s-0.3-0.8-0.3-1.3s0.1-0.9,0.3-1.3c0.2-0.4,0.5-0.7,1-0.9
			c0.4-0.2,0.9-0.3,1.4-0.3c0.4,0,0.8,0.1,1.2,0.2c0.3,0.1,0.6,0.4,0.9,0.6l-0.7,0.7c-0.3-0.4-0.7-0.6-1.2-0.6
			c-0.3,0-0.6,0.1-0.8,0.2c-0.2,0.1-0.4,0.3-0.6,0.6c-0.1,0.2-0.2,0.5-0.2,0.8c0,0.3,0.1,0.6,0.2,0.8c0.1,0.2,0.3,0.4,0.6,0.6
			c0.2,0.1,0.5,0.2,0.8,0.2c0.5,0,0.9-0.2,1.2-0.6l0.7,0.7c-0.2,0.3-0.5,0.5-0.9,0.7c-0.3,0.1-0.7,0.2-1.2,0.2
			C64.6,280.3,64.2,280.2,63.8,280z"/>
		<path class="st0" d="M69.2,274.3h1l-2.3,6.6h-1L69.2,274.3z"/>
		<path class="st0" d="M73.6,275.5c0.3,0.1,0.6,0.3,0.7,0.6c0.2,0.3,0.3,0.6,0.3,0.9c0,0.4-0.1,0.7-0.3,0.9
			c-0.2,0.3-0.4,0.5-0.7,0.6c-0.3,0.1-0.7,0.2-1.1,0.2h-1v1.4h-1.1v-4.9h2.1C72.9,275.3,73.2,275.4,73.6,275.5z M73.1,277.7
			c0.2-0.1,0.3-0.4,0.3-0.6c0-0.3-0.1-0.5-0.3-0.6c-0.2-0.1-0.4-0.2-0.8-0.2h-0.9v1.7h0.9C72.7,278,73,277.9,73.1,277.7z"/>
		<path class="st0" d="M75.7,280.2c-0.4-0.1-0.7-0.2-0.9-0.4l0.4-0.9c0.2,0.2,0.5,0.3,0.7,0.4c0.3,0.1,0.6,0.1,0.9,0.1
			c0.3,0,0.6,0,0.7-0.1c0.2-0.1,0.2-0.2,0.2-0.4c0-0.1,0-0.2-0.1-0.3c-0.1-0.1-0.2-0.1-0.3-0.2c-0.1,0-0.3-0.1-0.6-0.2
			c-0.4-0.1-0.7-0.2-0.9-0.3c-0.2-0.1-0.4-0.2-0.6-0.4s-0.3-0.5-0.3-0.8c0-0.3,0.1-0.5,0.2-0.8c0.2-0.2,0.4-0.4,0.7-0.5
			c0.3-0.1,0.7-0.2,1.1-0.2c0.3,0,0.6,0,0.9,0.1c0.3,0.1,0.6,0.2,0.8,0.3l-0.4,0.9c-0.5-0.3-0.9-0.4-1.4-0.4c-0.3,0-0.6,0.1-0.7,0.2
			s-0.2,0.2-0.2,0.4s0.1,0.3,0.3,0.4c0.2,0.1,0.4,0.2,0.8,0.2c0.4,0.1,0.7,0.2,0.9,0.3c0.2,0.1,0.4,0.2,0.6,0.4
			c0.2,0.2,0.3,0.5,0.3,0.8c0,0.3-0.1,0.5-0.2,0.8c-0.2,0.2-0.4,0.4-0.7,0.5c-0.3,0.1-0.7,0.2-1.1,0.2
			C76.5,280.3,76.1,280.3,75.7,280.2z"/>
		<path class="st0" d="M79.5,275.3h2.2c0.5,0,1,0.1,1.4,0.3c0.4,0.2,0.7,0.5,1,0.9c0.2,0.4,0.3,0.8,0.3,1.3s-0.1,0.9-0.3,1.3
			c-0.2,0.4-0.5,0.7-1,0.9c-0.4,0.2-0.9,0.3-1.4,0.3h-2.2V275.3z M81.7,279.3c0.5,0,0.9-0.1,1.2-0.4c0.3-0.3,0.4-0.6,0.4-1.1
			s-0.1-0.8-0.4-1.1c-0.3-0.3-0.7-0.4-1.2-0.4h-1v3H81.7z"/>
		<path class="st0" d="M89.4,278.1c0.2,0.2,0.2,0.5,0.2,0.8c0,0.4-0.2,0.8-0.5,1c-0.3,0.2-0.8,0.3-1.5,0.3h-2.5v-4.9h2.4
			c0.6,0,1.1,0.1,1.4,0.3c0.3,0.2,0.5,0.5,0.5,0.9c0,0.2-0.1,0.5-0.2,0.6c-0.1,0.2-0.3,0.3-0.5,0.4C89,277.8,89.2,277.9,89.4,278.1z
			 M86.3,276.2v1.2h1.1c0.3,0,0.5,0,0.6-0.1c0.1-0.1,0.2-0.2,0.2-0.4s-0.1-0.3-0.2-0.4c-0.1-0.1-0.4-0.1-0.6-0.1H86.3z M88.3,279.2
			c0.2-0.1,0.2-0.3,0.2-0.5c0-0.4-0.3-0.6-0.9-0.6h-1.3v1.2h1.3C87.9,279.4,88.1,279.3,88.3,279.2z"/>
		<path class="st0" d="M52.9,288.5c-0.2-0.6-0.2-1.2-0.2-1.8s0.1-1.2,0.2-1.8c0.2-0.6,0.4-1.1,0.6-1.5h1c-0.3,0.5-0.5,1-0.6,1.6
			c-0.1,0.5-0.2,1.1-0.2,1.7s0.1,1.2,0.2,1.7c0.1,0.5,0.3,1.1,0.6,1.6h-1C53.3,289.6,53.1,289.1,52.9,288.5z"/>
		<path class="st0" d="M56.7,283.7v4.9h-1.1v-4h-1v-0.9H56.7z"/>
		<path class="st0" d="M60.7,284.3c0.4,0.4,0.6,1,0.6,1.8c0,0.6-0.1,1-0.3,1.4s-0.5,0.7-0.9,0.9c-0.4,0.2-0.8,0.3-1.3,0.3
			c-0.3,0-0.5,0-0.7-0.1c-0.2-0.1-0.4-0.1-0.6-0.2l0.4-0.8c0.2,0.2,0.5,0.2,0.9,0.2c0.4,0,0.7-0.1,1-0.4c0.2-0.2,0.4-0.6,0.4-1.1
			c-0.3,0.3-0.7,0.4-1.2,0.4c-0.3,0-0.6-0.1-0.9-0.2c-0.3-0.1-0.5-0.3-0.6-0.5c-0.1-0.2-0.2-0.5-0.2-0.8c0-0.3,0.1-0.6,0.2-0.9
			c0.2-0.2,0.4-0.4,0.7-0.6c0.3-0.1,0.6-0.2,0.9-0.2C59.8,283.6,60.4,283.9,60.7,284.3z M59.8,285.8c0.2-0.1,0.2-0.3,0.2-0.5
			s-0.1-0.4-0.2-0.5c-0.2-0.1-0.4-0.2-0.6-0.2c-0.2,0-0.4,0.1-0.6,0.2c-0.2,0.1-0.2,0.3-0.2,0.5c0,0.2,0.1,0.4,0.2,0.5
			c0.2,0.1,0.4,0.2,0.6,0.2C59.5,286,59.7,285.9,59.8,285.8z"/>
		<path class="st0" d="M65,284.3c0.4,0.4,0.6,1,0.6,1.8c0,0.6-0.1,1-0.3,1.4s-0.5,0.7-0.9,0.9c-0.4,0.2-0.8,0.3-1.3,0.3
			c-0.3,0-0.5,0-0.7-0.1c-0.2-0.1-0.4-0.1-0.6-0.2l0.4-0.8c0.2,0.2,0.5,0.2,0.9,0.2c0.4,0,0.7-0.1,1-0.4c0.2-0.2,0.4-0.6,0.4-1.1
			c-0.3,0.3-0.7,0.4-1.2,0.4c-0.3,0-0.6-0.1-0.9-0.2c-0.3-0.1-0.5-0.3-0.6-0.5c-0.1-0.2-0.2-0.5-0.2-0.8c0-0.3,0.1-0.6,0.2-0.9
			c0.2-0.2,0.4-0.4,0.7-0.6c0.3-0.1,0.6-0.2,0.9-0.2C64.1,283.6,64.6,283.9,65,284.3z M64.1,285.8c0.2-0.1,0.2-0.3,0.2-0.5
			s-0.1-0.4-0.2-0.5c-0.2-0.1-0.4-0.2-0.6-0.2c-0.2,0-0.4,0.1-0.6,0.2c-0.2,0.1-0.2,0.3-0.2,0.5c0,0.2,0.1,0.4,0.2,0.5
			c0.2,0.1,0.4,0.2,0.6,0.2C63.7,286,63.9,285.9,64.1,285.8z"/>
		<path class="st0" d="M69.2,286c0.3,0.3,0.5,0.6,0.5,1.1c0,0.3-0.1,0.6-0.2,0.8s-0.4,0.4-0.7,0.6c-0.3,0.1-0.7,0.2-1.1,0.2
			c-0.3,0-0.7,0-1-0.1s-0.6-0.2-0.9-0.4l0.4-0.9c0.2,0.1,0.4,0.2,0.6,0.3s0.5,0.1,0.7,0.1c0.3,0,0.5-0.1,0.7-0.2
			c0.2-0.1,0.2-0.3,0.2-0.5c0-0.2-0.1-0.4-0.3-0.5c-0.2-0.1-0.5-0.2-0.9-0.2h-1.3l0.3-2.8h3v0.9h-2l-0.1,0.9h0.4
			C68.3,285.6,68.9,285.7,69.2,286z"/>
		<path class="st0" d="M70.1,286.2h2v0.9h-2V286.2z"/>
		<path class="st0" d="M74.2,283.7v4.9h-1.1v-4h-1v-0.9H74.2z"/>
		<path class="st0" d="M78.2,284.3c0.4,0.4,0.6,1,0.6,1.8c0,0.6-0.1,1-0.3,1.4s-0.5,0.7-0.9,0.9c-0.4,0.2-0.8,0.3-1.3,0.3
			c-0.3,0-0.5,0-0.7-0.1c-0.2-0.1-0.4-0.1-0.6-0.2l0.4-0.8c0.2,0.2,0.5,0.2,0.9,0.2c0.4,0,0.7-0.1,1-0.4c0.2-0.2,0.4-0.6,0.4-1.1
			c-0.3,0.3-0.7,0.4-1.2,0.4c-0.3,0-0.6-0.1-0.9-0.2c-0.3-0.1-0.5-0.3-0.6-0.5c-0.1-0.2-0.2-0.5-0.2-0.8c0-0.3,0.1-0.6,0.2-0.9
			c0.2-0.2,0.4-0.4,0.7-0.6c0.3-0.1,0.6-0.2,0.9-0.2C77.3,283.6,77.9,283.9,78.2,284.3z M77.3,285.8c0.2-0.1,0.2-0.3,0.2-0.5
			s-0.1-0.4-0.2-0.5c-0.2-0.1-0.4-0.2-0.6-0.2c-0.2,0-0.4,0.1-0.6,0.2c-0.2,0.1-0.2,0.3-0.2,0.5c0,0.2,0.1,0.4,0.2,0.5
			c0.2,0.1,0.4,0.2,0.6,0.2C77,286,77.2,285.9,77.3,285.8z"/>
		<path class="st0" d="M82.5,284.3c0.4,0.4,0.6,1,0.6,1.8c0,0.6-0.1,1-0.3,1.4s-0.5,0.7-0.9,0.9c-0.4,0.2-0.8,0.3-1.3,0.3
			c-0.3,0-0.5,0-0.7-0.1c-0.2-0.1-0.4-0.1-0.6-0.2l0.4-0.8c0.2,0.2,0.5,0.2,0.9,0.2c0.4,0,0.7-0.1,1-0.4c0.2-0.2,0.4-0.6,0.4-1.1
			c-0.3,0.3-0.7,0.4-1.2,0.4c-0.3,0-0.6-0.1-0.9-0.2c-0.3-0.1-0.5-0.3-0.6-0.5c-0.1-0.2-0.2-0.5-0.2-0.8c0-0.3,0.1-0.6,0.2-0.9
			c0.2-0.2,0.4-0.4,0.7-0.6c0.3-0.1,0.6-0.2,0.9-0.2C81.6,283.6,82.1,283.9,82.5,284.3z M81.6,285.8c0.2-0.1,0.2-0.3,0.2-0.5
			s-0.1-0.4-0.2-0.5c-0.2-0.1-0.4-0.2-0.6-0.2c-0.2,0-0.4,0.1-0.6,0.2c-0.2,0.1-0.2,0.3-0.2,0.5c0,0.2,0.1,0.4,0.2,0.5
			c0.2,0.1,0.4,0.2,0.6,0.2C81.3,286,81.5,285.9,81.6,285.8z"/>
		<path class="st0" d="M87.4,286.5c0.1,0.2,0.2,0.4,0.2,0.7c0,0.3-0.1,0.6-0.3,0.8c-0.2,0.2-0.4,0.4-0.7,0.5
			c-0.3,0.1-0.7,0.2-1.1,0.2c-0.4,0-0.8-0.1-1.1-0.2c-0.3-0.1-0.6-0.3-0.7-0.5c-0.2-0.2-0.3-0.5-0.3-0.8c0-0.3,0.1-0.5,0.2-0.7
			c0.1-0.2,0.3-0.4,0.5-0.5c-0.2-0.1-0.3-0.3-0.4-0.4c-0.1-0.2-0.1-0.4-0.1-0.6c0-0.3,0.1-0.5,0.2-0.7c0.2-0.2,0.4-0.4,0.7-0.5
			c0.3-0.1,0.6-0.2,1-0.2c0.4,0,0.7,0.1,1,0.2s0.5,0.3,0.7,0.5s0.2,0.5,0.2,0.7c0,0.2,0,0.4-0.1,0.6c-0.1,0.2-0.2,0.3-0.4,0.4
			C87.1,286.2,87.3,286.3,87.4,286.5z M86.2,287.7c0.2-0.1,0.2-0.3,0.2-0.5s-0.1-0.4-0.2-0.5s-0.4-0.2-0.7-0.2
			c-0.3,0-0.5,0.1-0.7,0.2c-0.2,0.1-0.2,0.3-0.2,0.5c0,0.2,0.1,0.4,0.2,0.5c0.2,0.1,0.4,0.2,0.7,0.2C85.8,287.9,86,287.8,86.2,287.7
			z M85,284.6c-0.1,0.1-0.2,0.3-0.2,0.5c0,0.2,0.1,0.3,0.2,0.4s0.3,0.2,0.6,0.2c0.2,0,0.4-0.1,0.6-0.2c0.1-0.1,0.2-0.3,0.2-0.4
			c0-0.2-0.1-0.3-0.2-0.5c-0.1-0.1-0.3-0.2-0.6-0.2C85.3,284.5,85.1,284.5,85,284.6z"/>
		<path class="st0" d="M87.7,290c0.3-0.5,0.5-1,0.6-1.6s0.2-1.1,0.2-1.7s-0.1-1.2-0.2-1.7s-0.4-1.1-0.6-1.6h1
			c0.3,0.4,0.5,0.9,0.7,1.5c0.2,0.6,0.2,1.2,0.2,1.8s-0.1,1.2-0.2,1.8s-0.4,1-0.7,1.5H87.7z"/>
	</g>
	<g>
		<path class="st0" d="M134.3,276.2v1.3h2.3v0.9h-2.3v1.8h-1.1v-4.9h3.7v0.9H134.3z"/>
		<path class="st0" d="M142,275.3v4.9h-1.1v-2h-2.2v2h-1.1v-4.9h1.1v1.9h2.2v-1.9H142z"/>
		<path class="st0" d="M143.9,280c-0.4-0.2-0.7-0.5-1-0.9s-0.3-0.8-0.3-1.3s0.1-0.9,0.3-1.3c0.2-0.4,0.5-0.7,1-0.9
			c0.4-0.2,0.9-0.3,1.4-0.3c0.4,0,0.8,0.1,1.2,0.2c0.3,0.1,0.6,0.4,0.9,0.6l-0.7,0.7c-0.3-0.4-0.7-0.6-1.2-0.6
			c-0.3,0-0.6,0.1-0.8,0.2c-0.2,0.1-0.4,0.3-0.6,0.6c-0.1,0.2-0.2,0.5-0.2,0.8c0,0.3,0.1,0.6,0.2,0.8c0.1,0.2,0.3,0.4,0.6,0.6
			c0.2,0.1,0.5,0.2,0.8,0.2c0.5,0,0.9-0.2,1.2-0.6l0.7,0.7c-0.2,0.3-0.5,0.5-0.9,0.7c-0.3,0.1-0.7,0.2-1.2,0.2
			C144.8,280.3,144.3,280.2,143.9,280z"/>
		<path class="st0" d="M149.4,274.3h1l-2.3,6.6h-1L149.4,274.3z"/>
		<path class="st0" d="M153.7,275.5c0.3,0.1,0.6,0.3,0.7,0.6c0.2,0.3,0.3,0.6,0.3,0.9c0,0.4-0.1,0.7-0.3,0.9
			c-0.2,0.3-0.4,0.5-0.7,0.6c-0.3,0.1-0.7,0.2-1.1,0.2h-1v1.4h-1.1v-4.9h2.1C153,275.3,153.4,275.4,153.7,275.5z M153.3,277.7
			c0.2-0.1,0.3-0.4,0.3-0.6c0-0.3-0.1-0.5-0.3-0.6c-0.2-0.1-0.4-0.2-0.8-0.2h-0.9v1.7h0.9C152.9,278,153.1,277.9,153.3,277.7z"/>
		<path class="st0" d="M155.9,280.2c-0.4-0.1-0.7-0.2-0.9-0.4l0.4-0.9c0.2,0.2,0.5,0.3,0.7,0.4c0.3,0.1,0.6,0.1,0.9,0.1
			c0.3,0,0.6,0,0.7-0.1c0.2-0.1,0.2-0.2,0.2-0.4c0-0.1,0-0.2-0.1-0.3c-0.1-0.1-0.2-0.1-0.3-0.2c-0.1,0-0.3-0.1-0.6-0.2
			c-0.4-0.1-0.7-0.2-0.9-0.3c-0.2-0.1-0.4-0.2-0.6-0.4s-0.3-0.5-0.3-0.8c0-0.3,0.1-0.5,0.2-0.8c0.2-0.2,0.4-0.4,0.7-0.5
			c0.3-0.1,0.7-0.2,1.1-0.2c0.3,0,0.6,0,0.9,0.1c0.3,0.1,0.6,0.2,0.8,0.3l-0.4,0.9c-0.5-0.3-0.9-0.4-1.4-0.4c-0.3,0-0.6,0.1-0.7,0.2
			s-0.2,0.2-0.2,0.4s0.1,0.3,0.3,0.4c0.2,0.1,0.4,0.2,0.8,0.2c0.4,0.1,0.7,0.2,0.9,0.3c0.2,0.1,0.4,0.2,0.6,0.4
			c0.2,0.2,0.3,0.5,0.3,0.8c0,0.3-0.1,0.5-0.2,0.8c-0.2,0.2-0.4,0.4-0.7,0.5c-0.3,0.1-0.7,0.2-1.1,0.2
			C156.6,280.3,156.3,280.3,155.9,280.2z"/>
		<path class="st0" d="M159.7,275.3h2.2c0.5,0,1,0.1,1.4,0.3c0.4,0.2,0.7,0.5,1,0.9c0.2,0.4,0.3,0.8,0.3,1.3s-0.1,0.9-0.3,1.3
			c-0.2,0.4-0.5,0.7-1,0.9c-0.4,0.2-0.9,0.3-1.4,0.3h-2.2V275.3z M161.9,279.3c0.5,0,0.9-0.1,1.2-0.4c0.3-0.3,0.4-0.6,0.4-1.1
			s-0.1-0.8-0.4-1.1c-0.3-0.3-0.7-0.4-1.2-0.4h-1v3H161.9z"/>
		<path class="st0" d="M169.6,278.1c0.2,0.2,0.2,0.5,0.2,0.8c0,0.4-0.2,0.8-0.5,1c-0.3,0.2-0.8,0.3-1.5,0.3h-2.5v-4.9h2.4
			c0.6,0,1.1,0.1,1.4,0.3c0.3,0.2,0.5,0.5,0.5,0.9c0,0.2-0.1,0.5-0.2,0.6c-0.1,0.2-0.3,0.3-0.5,0.4
			C169.2,277.8,169.4,277.9,169.6,278.1z M166.5,276.2v1.2h1.1c0.3,0,0.5,0,0.6-0.1c0.1-0.1,0.2-0.2,0.2-0.4s-0.1-0.3-0.2-0.4
			c-0.1-0.1-0.4-0.1-0.6-0.1H166.5z M168.4,279.2c0.2-0.1,0.2-0.3,0.2-0.5c0-0.4-0.3-0.6-0.9-0.6h-1.3v1.2h1.3
			C168.1,279.4,168.3,279.3,168.4,279.2z"/>
		<path class="st0" d="M132.2,288.5c-0.2-0.6-0.2-1.2-0.2-1.8s0.1-1.2,0.2-1.8c0.2-0.6,0.4-1.1,0.6-1.5h1c-0.3,0.5-0.5,1-0.6,1.6
			c-0.1,0.5-0.2,1.1-0.2,1.7s0.1,1.2,0.2,1.7c0.1,0.5,0.3,1.1,0.6,1.6h-1C132.6,289.6,132.3,289.1,132.2,288.5z"/>
		<path class="st0" d="M136,283.7v4.9h-1.1v-4h-1v-0.9H136z"/>
		<path class="st0" d="M140,284.3c0.4,0.4,0.6,1,0.6,1.8c0,0.6-0.1,1-0.3,1.4s-0.5,0.7-0.9,0.9c-0.4,0.2-0.8,0.3-1.3,0.3
			c-0.3,0-0.5,0-0.7-0.1c-0.2-0.1-0.4-0.1-0.6-0.2l0.4-0.8c0.2,0.2,0.5,0.2,0.9,0.2c0.4,0,0.7-0.1,1-0.4c0.2-0.2,0.4-0.6,0.4-1.1
			c-0.3,0.3-0.7,0.4-1.2,0.4c-0.3,0-0.6-0.1-0.9-0.2c-0.3-0.1-0.5-0.3-0.6-0.5c-0.1-0.2-0.2-0.5-0.2-0.8c0-0.3,0.1-0.6,0.2-0.9
			c0.2-0.2,0.4-0.4,0.7-0.6c0.3-0.1,0.6-0.2,0.9-0.2C139.1,283.6,139.6,283.9,140,284.3z M139.1,285.8c0.2-0.1,0.2-0.3,0.2-0.5
			s-0.1-0.4-0.2-0.5c-0.2-0.1-0.4-0.2-0.6-0.2c-0.2,0-0.4,0.1-0.6,0.2c-0.2,0.1-0.2,0.3-0.2,0.5c0,0.2,0.1,0.4,0.2,0.5
			c0.2,0.1,0.4,0.2,0.6,0.2C138.7,286,138.9,285.9,139.1,285.8z"/>
		<path class="st0" d="M144.3,284.3c0.4,0.4,0.6,1,0.6,1.8c0,0.6-0.1,1-0.3,1.4s-0.5,0.7-0.9,0.9c-0.4,0.2-0.8,0.3-1.3,0.3
			c-0.3,0-0.5,0-0.7-0.1c-0.2-0.1-0.4-0.1-0.6-0.2l0.4-0.8c0.2,0.2,0.5,0.2,0.9,0.2c0.4,0,0.7-0.1,1-0.4c0.2-0.2,0.4-0.6,0.4-1.1
			c-0.3,0.3-0.7,0.4-1.2,0.4c-0.3,0-0.6-0.1-0.9-0.2c-0.3-0.1-0.5-0.3-0.6-0.5c-0.1-0.2-0.2-0.5-0.2-0.8c0-0.3,0.1-0.6,0.2-0.9
			c0.2-0.2,0.4-0.4,0.7-0.6c0.3-0.1,0.6-0.2,0.9-0.2C143.4,283.6,143.9,283.9,144.3,284.3z M143.4,285.8c0.2-0.1,0.2-0.3,0.2-0.5
			s-0.1-0.4-0.2-0.5c-0.2-0.1-0.4-0.2-0.6-0.2c-0.2,0-0.4,0.1-0.6,0.2c-0.2,0.1-0.2,0.3-0.2,0.5c0,0.2,0.1,0.4,0.2,0.5
			c0.2,0.1,0.4,0.2,0.6,0.2C143,286,143.2,285.9,143.4,285.8z"/>
		<path class="st0" d="M148.6,284.3c0.4,0.4,0.6,1,0.6,1.8c0,0.6-0.1,1-0.3,1.4s-0.5,0.7-0.9,0.9c-0.4,0.2-0.8,0.3-1.3,0.3
			c-0.3,0-0.5,0-0.7-0.1c-0.2-0.1-0.4-0.1-0.6-0.2l0.4-0.8c0.2,0.2,0.5,0.2,0.9,0.2c0.4,0,0.7-0.1,1-0.4c0.2-0.2,0.4-0.6,0.4-1.1
			c-0.3,0.3-0.7,0.4-1.2,0.4c-0.3,0-0.6-0.1-0.9-0.2c-0.3-0.1-0.5-0.3-0.6-0.5c-0.1-0.2-0.2-0.5-0.2-0.8c0-0.3,0.1-0.6,0.2-0.9
			c0.2-0.2,0.4-0.4,0.7-0.6c0.3-0.1,0.6-0.2,0.9-0.2C147.7,283.6,148.2,283.9,148.6,284.3z M147.7,285.8c0.2-0.1,0.2-0.3,0.2-0.5
			s-0.1-0.4-0.2-0.5c-0.2-0.1-0.4-0.2-0.6-0.2c-0.2,0-0.4,0.1-0.6,0.2c-0.2,0.1-0.2,0.3-0.2,0.5c0,0.2,0.1,0.4,0.2,0.5
			c0.2,0.1,0.4,0.2,0.6,0.2C147.3,286,147.5,285.9,147.7,285.8z"/>
		<path class="st0" d="M149.7,286.2h2v0.9h-2V286.2z"/>
		<path class="st0" d="M155.7,287.7v0.9h-3.7v-0.7l1.9-1.8c0.2-0.2,0.3-0.4,0.4-0.5c0.1-0.1,0.1-0.3,0.1-0.4c0-0.2-0.1-0.3-0.2-0.5
			c-0.1-0.1-0.3-0.2-0.6-0.2c-0.2,0-0.4,0-0.6,0.1c-0.2,0.1-0.3,0.2-0.4,0.4l-0.8-0.5c0.2-0.3,0.5-0.5,0.8-0.7s0.7-0.2,1.2-0.2
			c0.4,0,0.7,0.1,1,0.2s0.5,0.3,0.6,0.5s0.2,0.5,0.2,0.8c0,0.3-0.1,0.5-0.2,0.7s-0.3,0.5-0.7,0.8l-1.1,1.1H155.7z"/>
		<path class="st0" d="M156.9,288.4c-0.3-0.2-0.6-0.5-0.7-0.9c-0.2-0.4-0.3-0.8-0.3-1.4s0.1-1,0.3-1.4c0.2-0.4,0.4-0.7,0.7-0.9
			c0.3-0.2,0.7-0.3,1.1-0.3c0.4,0,0.8,0.1,1.1,0.3c0.3,0.2,0.6,0.5,0.7,0.9c0.2,0.4,0.3,0.8,0.3,1.4s-0.1,1-0.3,1.4
			c-0.2,0.4-0.4,0.7-0.7,0.9c-0.3,0.2-0.7,0.3-1.1,0.3C157.6,288.7,157.3,288.6,156.9,288.4z M158.7,287.4c0.2-0.3,0.3-0.7,0.3-1.2
			c0-0.5-0.1-0.9-0.3-1.2c-0.2-0.3-0.4-0.4-0.7-0.4c-0.3,0-0.5,0.1-0.7,0.4s-0.3,0.7-0.3,1.2c0,0.5,0.1,0.9,0.3,1.2s0.4,0.4,0.7,0.4
			C158.3,287.8,158.6,287.6,158.7,287.4z"/>
		<path class="st0" d="M161.5,288.4c-0.3-0.2-0.6-0.5-0.7-0.9c-0.2-0.4-0.3-0.8-0.3-1.4s0.1-1,0.3-1.4c0.2-0.4,0.4-0.7,0.7-0.9
			c0.3-0.2,0.7-0.3,1.1-0.3c0.4,0,0.8,0.1,1.1,0.3c0.3,0.2,0.6,0.5,0.7,0.9c0.2,0.4,0.3,0.8,0.3,1.4s-0.1,1-0.3,1.4
			c-0.2,0.4-0.4,0.7-0.7,0.9c-0.3,0.2-0.7,0.3-1.1,0.3C162.2,288.7,161.8,288.6,161.5,288.4z M163.3,287.4c0.2-0.3,0.3-0.7,0.3-1.2
			c0-0.5-0.1-0.9-0.3-1.2c-0.2-0.3-0.4-0.4-0.7-0.4c-0.3,0-0.5,0.1-0.7,0.4s-0.3,0.7-0.3,1.2c0,0.5,0.1,0.9,0.3,1.2s0.4,0.4,0.7,0.4
			C162.9,287.8,163.1,287.6,163.3,287.4z"/>
		<path class="st0" d="M168.7,287.7v0.9H165v-0.7l1.9-1.8c0.2-0.2,0.3-0.4,0.4-0.5c0.1-0.1,0.1-0.3,0.1-0.4c0-0.2-0.1-0.3-0.2-0.5
			c-0.1-0.1-0.3-0.2-0.6-0.2c-0.2,0-0.4,0-0.6,0.1c-0.2,0.1-0.3,0.2-0.4,0.4l-0.8-0.5c0.2-0.3,0.5-0.5,0.8-0.7s0.7-0.2,1.2-0.2
			c0.4,0,0.7,0.1,1,0.2s0.5,0.3,0.6,0.5s0.2,0.5,0.2,0.8c0,0.3-0.1,0.5-0.2,0.7s-0.3,0.5-0.7,0.8l-1.1,1.1H168.7z"/>
		<path class="st0" d="M168.8,290c0.3-0.5,0.5-1,0.6-1.6s0.2-1.1,0.2-1.7s-0.1-1.2-0.2-1.7s-0.4-1.1-0.6-1.6h1
			c0.3,0.4,0.5,0.9,0.7,1.5c0.2,0.6,0.2,1.2,0.2,1.8s-0.1,1.2-0.2,1.8s-0.4,1-0.7,1.5H168.8z"/>
	</g>
	<g>
		<path class="st0" d="M216.9,275.3h1.1v4h2.5v0.9h-3.6V275.3z"/>
		<path class="st0" d="M221.4,279.7c-0.4-0.4-0.6-0.9-0.6-1.7v-2.7h1.1v2.7c0,0.9,0.4,1.3,1.1,1.3c0.4,0,0.6-0.1,0.8-0.3
			c0.2-0.2,0.3-0.5,0.3-1v-2.7h1.1v2.7c0,0.7-0.2,1.3-0.6,1.7s-0.9,0.6-1.6,0.6S221.8,280.1,221.4,279.7z"/>
		<path class="st0" d="M226.2,275.3h1.1v4h2.5v0.9h-3.6V275.3z"/>
		<path class="st0" d="M233.5,279.2h-2.3l-0.4,1h-1.2l2.2-4.9h1.1l2.2,4.9H234L233.5,279.2z M233.2,278.3l-0.8-1.9l-0.8,1.9H233.2z"
			/>
		<path class="st0" d="M237.2,274.3h1l-2.3,6.6h-1L237.2,274.3z"/>
		<path class="st0" d="M241.5,275.5c0.3,0.1,0.6,0.3,0.7,0.6c0.2,0.3,0.3,0.6,0.3,0.9c0,0.4-0.1,0.7-0.3,0.9
			c-0.2,0.3-0.4,0.5-0.7,0.6c-0.3,0.1-0.7,0.2-1.1,0.2h-1v1.4h-1.1v-4.9h2.1C240.8,275.3,241.2,275.4,241.5,275.5z M241.1,277.7
			c0.2-0.1,0.3-0.4,0.3-0.6c0-0.3-0.1-0.5-0.3-0.6c-0.2-0.1-0.4-0.2-0.8-0.2h-0.9v1.7h0.9C240.7,278,240.9,277.9,241.1,277.7z"/>
		<path class="st0" d="M244,276.3h-1.6v-0.9h4.3v0.9h-1.6v4H244V276.3z"/>
		<path class="st0" d="M211.4,288.5c-0.2-0.6-0.2-1.2-0.2-1.8s0.1-1.2,0.2-1.8s0.4-1.1,0.6-1.5h1c-0.3,0.5-0.5,1-0.6,1.6
			c-0.1,0.5-0.2,1.1-0.2,1.7s0.1,1.2,0.2,1.7c0.1,0.5,0.3,1.1,0.6,1.6h-1C211.7,289.6,211.5,289.1,211.4,288.5z"/>
		<path class="st0" d="M216.9,287.7v0.9h-3.7v-0.7l1.9-1.8c0.2-0.2,0.3-0.4,0.4-0.5c0.1-0.1,0.1-0.3,0.1-0.4c0-0.2-0.1-0.3-0.2-0.5
			c-0.1-0.1-0.3-0.2-0.6-0.2c-0.2,0-0.4,0-0.6,0.1c-0.2,0.1-0.3,0.2-0.4,0.4l-0.8-0.5c0.2-0.3,0.5-0.5,0.8-0.7s0.7-0.2,1.2-0.2
			c0.4,0,0.7,0.1,1,0.2c0.3,0.1,0.5,0.3,0.6,0.5c0.2,0.2,0.2,0.5,0.2,0.8c0,0.3-0.1,0.5-0.2,0.7c-0.1,0.2-0.3,0.5-0.7,0.8l-1.1,1.1
			H216.9z"/>
		<path class="st0" d="M218.2,288.4c-0.3-0.2-0.6-0.5-0.7-0.9c-0.2-0.4-0.3-0.8-0.3-1.4s0.1-1,0.3-1.4c0.2-0.4,0.4-0.7,0.7-0.9
			c0.3-0.2,0.7-0.3,1.1-0.3s0.8,0.1,1.1,0.3c0.3,0.2,0.6,0.5,0.7,0.9c0.2,0.4,0.3,0.8,0.3,1.4s-0.1,1-0.3,1.4
			c-0.2,0.4-0.4,0.7-0.7,0.9c-0.3,0.2-0.7,0.3-1.1,0.3S218.5,288.6,218.2,288.4z M220,287.4c0.2-0.3,0.3-0.7,0.3-1.2
			c0-0.5-0.1-0.9-0.3-1.2c-0.2-0.3-0.4-0.4-0.7-0.4c-0.3,0-0.5,0.1-0.7,0.4c-0.2,0.3-0.3,0.7-0.3,1.2c0,0.5,0.1,0.9,0.3,1.2
			c0.2,0.3,0.4,0.4,0.7,0.4C219.6,287.8,219.8,287.6,220,287.4z"/>
		<path class="st0" d="M222.8,288.4c-0.3-0.2-0.6-0.5-0.7-0.9c-0.2-0.4-0.3-0.8-0.3-1.4s0.1-1,0.3-1.4c0.2-0.4,0.4-0.7,0.7-0.9
			c0.3-0.2,0.7-0.3,1.1-0.3s0.8,0.1,1.1,0.3c0.3,0.2,0.6,0.5,0.7,0.9c0.2,0.4,0.3,0.8,0.3,1.4s-0.1,1-0.3,1.4
			c-0.2,0.4-0.4,0.7-0.7,0.9c-0.3,0.2-0.7,0.3-1.1,0.3S223.1,288.6,222.8,288.4z M224.6,287.4c0.2-0.3,0.3-0.7,0.3-1.2
			c0-0.5-0.1-0.9-0.3-1.2c-0.2-0.3-0.4-0.4-0.7-0.4c-0.3,0-0.5,0.1-0.7,0.4c-0.2,0.3-0.3,0.7-0.3,1.2c0,0.5,0.1,0.9,0.3,1.2
			c0.2,0.3,0.4,0.4,0.7,0.4C224.1,287.8,224.4,287.6,224.6,287.4z"/>
		<path class="st0" d="M229.5,286.2c0.2,0.3,0.3,0.6,0.3,0.9c0,0.3-0.1,0.5-0.2,0.8c-0.1,0.2-0.4,0.4-0.7,0.6s-0.7,0.2-1.1,0.2
			c-0.3,0-0.7,0-1-0.1c-0.3-0.1-0.6-0.2-0.9-0.4l0.4-0.9c0.2,0.1,0.4,0.2,0.6,0.3c0.2,0.1,0.5,0.1,0.8,0.1c0.3,0,0.5-0.1,0.7-0.2
			c0.2-0.1,0.2-0.3,0.2-0.5c0-0.4-0.3-0.6-0.9-0.6h-0.5v-0.7l1-1.1h-2.1v-0.9h3.4v0.7l-1.1,1.3C229,285.8,229.3,286,229.5,286.2z"/>
		<path class="st0" d="M232,282.7h1l-2.3,6.6h-1L232,282.7z"/>
		<path class="st0" d="M236.5,287.7v0.9h-3.7v-0.7l1.9-1.8c0.2-0.2,0.3-0.4,0.4-0.5c0.1-0.1,0.1-0.3,0.1-0.4c0-0.2-0.1-0.3-0.2-0.5
			c-0.1-0.1-0.3-0.2-0.6-0.2c-0.2,0-0.4,0-0.6,0.1c-0.2,0.1-0.3,0.2-0.4,0.4l-0.8-0.5c0.2-0.3,0.5-0.5,0.8-0.7s0.7-0.2,1.2-0.2
			c0.4,0,0.7,0.1,1,0.2c0.3,0.1,0.5,0.3,0.6,0.5c0.2,0.2,0.2,0.5,0.2,0.8c0,0.3-0.1,0.5-0.2,0.7c-0.1,0.2-0.3,0.5-0.7,0.8l-1.1,1.1
			H236.5z"/>
		<path class="st0" d="M237.8,288.4c-0.3-0.2-0.6-0.5-0.7-0.9c-0.2-0.4-0.3-0.8-0.3-1.4s0.1-1,0.3-1.4c0.2-0.4,0.4-0.7,0.7-0.9
			c0.3-0.2,0.7-0.3,1.1-0.3s0.8,0.1,1.1,0.3c0.3,0.2,0.6,0.5,0.7,0.9c0.2,0.4,0.3,0.8,0.3,1.4s-0.1,1-0.3,1.4
			c-0.2,0.4-0.4,0.7-0.7,0.9c-0.3,0.2-0.7,0.3-1.1,0.3S238.1,288.6,237.8,288.4z M239.5,287.4c0.2-0.3,0.3-0.7,0.3-1.2
			c0-0.5-0.1-0.9-0.3-1.2c-0.2-0.3-0.4-0.4-0.7-0.4c-0.3,0-0.5,0.1-0.7,0.4c-0.2,0.3-0.3,0.7-0.3,1.2c0,0.5,0.1,0.9,0.3,1.2
			c0.2,0.3,0.4,0.4,0.7,0.4C239.1,287.8,239.4,287.6,239.5,287.4z"/>
		<path class="st0" d="M242.3,288.4c-0.3-0.2-0.6-0.5-0.7-0.9c-0.2-0.4-0.3-0.8-0.3-1.4s0.1-1,0.3-1.4c0.2-0.4,0.4-0.7,0.7-0.9
			c0.3-0.2,0.7-0.3,1.1-0.3s0.8,0.1,1.1,0.3c0.3,0.2,0.6,0.5,0.7,0.9c0.2,0.4,0.3,0.8,0.3,1.4s-0.1,1-0.3,1.4
			c-0.2,0.4-0.4,0.7-0.7,0.9c-0.3,0.2-0.7,0.3-1.1,0.3S242.6,288.6,242.3,288.4z M244.1,287.4c0.2-0.3,0.3-0.7,0.3-1.2
			c0-0.5-0.1-0.9-0.3-1.2c-0.2-0.3-0.4-0.4-0.7-0.4c-0.3,0-0.5,0.1-0.7,0.4c-0.2,0.3-0.3,0.7-0.3,1.2c0,0.5,0.1,0.9,0.3,1.2
			c0.2,0.3,0.4,0.4,0.7,0.4C243.7,287.8,243.9,287.6,244.1,287.4z"/>
		<path class="st0" d="M249.1,285.7c0.3,0.1,0.5,0.3,0.6,0.5c0.1,0.2,0.2,0.5,0.2,0.8c0,0.3-0.1,0.6-0.2,0.9
			c-0.2,0.2-0.4,0.4-0.7,0.6s-0.6,0.2-0.9,0.2c-0.7,0-1.2-0.2-1.6-0.6c-0.4-0.4-0.6-1-0.6-1.8c0-0.6,0.1-1,0.3-1.4
			c0.2-0.4,0.5-0.7,0.9-0.9c0.4-0.2,0.8-0.3,1.3-0.3c0.3,0,0.5,0,0.8,0.1s0.4,0.1,0.6,0.2l-0.4,0.8c-0.2-0.2-0.5-0.2-0.9-0.2
			c-0.4,0-0.7,0.1-1,0.4c-0.2,0.2-0.4,0.6-0.4,1.1c0.3-0.3,0.7-0.4,1.2-0.4C248.6,285.6,248.8,285.6,249.1,285.7z M248.6,287.7
			c0.2-0.1,0.2-0.3,0.2-0.5c0-0.2-0.1-0.4-0.2-0.5c-0.2-0.1-0.4-0.2-0.6-0.2c-0.2,0-0.5,0.1-0.6,0.2c-0.2,0.1-0.2,0.3-0.2,0.5
			s0.1,0.4,0.2,0.5c0.2,0.1,0.4,0.2,0.6,0.2C248.3,287.9,248.5,287.8,248.6,287.7z"/>
		<path class="st0" d="M250,290c0.3-0.5,0.5-1,0.6-1.6s0.2-1.1,0.2-1.7s-0.1-1.2-0.2-1.7s-0.4-1.1-0.6-1.6h1
			c0.3,0.4,0.5,0.9,0.7,1.5s0.2,1.2,0.2,1.8s-0.1,1.2-0.2,1.8c-0.1,0.6-0.4,1-0.7,1.5H250z"/>
	</g>
	<g>
		<rect x="40" y="67.8" class="st4" width="29.8" height="201.3"/>
		<rect x="122.3" y="214.1" class="st4" width="29.8" height="55"/>
		<rect x="203.6" y="151.3" class="st4" width="29.8" height="117.8"/>
		<rect x="69.8" y="166.5" class="st5" width="29.8" height="102.6"/>
		<rect x="152.2" y="163.6" class="st5" width="29.8" height="105.5"/>
		<rect x="233.6" y="216.4" class="st5" width="29.8" height="52.8"/>
		<g>
			<g>
				<path class="st0" d="M50.5,57.8v5.6h-1.3v-4.6h-1.1v-1H50.5z"/>
				<path class="st0" d="M53.4,57.8v5.6h-1.3v-4.6H51v-1H53.4z"/>
				<path class="st0" d="M59.4,62.2h-0.9v1.2h-1.3v-1.2h-3v-0.9l2.6-3.6h1.4l-2.5,3.4h1.5v-1.1h1.2v1.1h0.9V62.2z"/>
			</g>
		</g>
		<g>
			<g>
				<path class="st0" d="M136.4,207.5c0.3,0.3,0.4,0.6,0.4,1.1c0,0.3-0.1,0.6-0.3,0.9c-0.2,0.3-0.4,0.5-0.8,0.7s-0.8,0.2-1.3,0.2
					c-0.4,0-0.8-0.1-1.2-0.2c-0.4-0.1-0.7-0.3-1-0.4l0.5-1c0.2,0.2,0.5,0.3,0.7,0.4s0.6,0.1,0.9,0.1c0.3,0,0.6-0.1,0.8-0.2
					c0.2-0.1,0.3-0.3,0.3-0.5c0-0.5-0.4-0.7-1.1-0.7h-0.6V207l1.2-1.3h-2.4v-1h3.9v0.8l-1.3,1.4C135.8,207,136.2,207.2,136.4,207.5z
					"/>
				<path class="st0" d="M139.4,204.7v5.6h-1.3v-4.6H137v-1H139.4z"/>
			</g>
		</g>
		<g>
			<g>
				<path class="st0" d="M216.3,137.2c0.3,0.1,0.5,0.3,0.7,0.6s0.3,0.6,0.3,0.9c0,0.4-0.1,0.7-0.3,1c-0.2,0.3-0.4,0.5-0.8,0.7
					s-0.7,0.2-1.1,0.2c-0.8,0-1.4-0.2-1.8-0.7c-0.4-0.5-0.7-1.2-0.7-2.1c0-0.6,0.1-1.2,0.4-1.6c0.2-0.5,0.6-0.8,1-1
					c0.4-0.2,0.9-0.4,1.5-0.4c0.3,0,0.6,0,0.9,0.1s0.5,0.2,0.7,0.3l-0.5,1c-0.3-0.2-0.6-0.3-1.1-0.3c-0.5,0-0.9,0.1-1.1,0.4
					c-0.3,0.3-0.4,0.7-0.4,1.2c0.3-0.3,0.8-0.5,1.4-0.5C215.7,137,216,137,216.3,137.2z M215.7,139.4c0.2-0.1,0.3-0.4,0.3-0.6
					c0-0.3-0.1-0.5-0.3-0.6s-0.4-0.2-0.7-0.2c-0.3,0-0.5,0.1-0.7,0.2s-0.3,0.4-0.3,0.6c0,0.2,0.1,0.4,0.3,0.6
					c0.2,0.2,0.4,0.2,0.7,0.2C215.3,139.6,215.6,139.5,215.7,139.4z"/>
				<path class="st0" d="M222.7,139.3h-0.9v1.2h-1.3v-1.2h-3v-0.9l2.6-3.6h1.4l-2.5,3.4h1.5v-1.1h1.2v1.1h0.9V139.3z"/>
			</g>
		</g>
		<g>
			<path class="st0" d="M83.5,158c0.4,0.3,0.6,0.7,0.6,1.3c0,0.3-0.1,0.7-0.3,0.9c-0.2,0.3-0.4,0.5-0.8,0.7s-0.8,0.3-1.3,0.3
				c-0.4,0-0.8-0.1-1.2-0.2c-0.4-0.1-0.7-0.3-1-0.4l0.5-1c0.2,0.2,0.5,0.3,0.7,0.4c0.3,0.1,0.6,0.1,0.9,0.1c0.3,0,0.6-0.1,0.8-0.2
				s0.3-0.3,0.3-0.5c0-0.2-0.1-0.4-0.3-0.5c-0.2-0.1-0.5-0.2-1-0.2H80l0.3-3.2h3.4v1h-2.3l-0.1,1.1h0.5
				C82.5,157.6,83.1,157.7,83.5,158z"/>
			<path class="st0" d="M88.9,158.7c0.1,0.2,0.2,0.5,0.2,0.8c0,0.3-0.1,0.7-0.3,0.9c-0.2,0.3-0.5,0.5-0.8,0.6
				c-0.4,0.1-0.8,0.2-1.2,0.2s-0.9-0.1-1.2-0.2s-0.6-0.3-0.8-0.6c-0.2-0.3-0.3-0.6-0.3-0.9c0-0.3,0.1-0.6,0.2-0.8s0.4-0.4,0.6-0.5
				c-0.2-0.1-0.4-0.3-0.5-0.5s-0.2-0.4-0.2-0.7c0-0.3,0.1-0.6,0.3-0.9c0.2-0.2,0.4-0.4,0.8-0.6c0.3-0.1,0.7-0.2,1.1-0.2
				c0.4,0,0.8,0.1,1.1,0.2s0.6,0.3,0.8,0.6c0.2,0.2,0.3,0.5,0.3,0.9c0,0.3-0.1,0.5-0.2,0.7s-0.3,0.4-0.5,0.5
				C88.5,158.3,88.7,158.4,88.9,158.7z M87.5,160c0.2-0.1,0.3-0.3,0.3-0.6c0-0.2-0.1-0.4-0.3-0.6c-0.2-0.1-0.4-0.2-0.8-0.2
				c-0.3,0-0.6,0.1-0.8,0.2c-0.2,0.1-0.3,0.3-0.3,0.6c0,0.3,0.1,0.4,0.3,0.6c0.2,0.1,0.4,0.2,0.8,0.2C87,160.2,87.3,160.1,87.5,160z
				 M86.1,156.5c-0.2,0.1-0.2,0.3-0.2,0.5c0,0.2,0.1,0.4,0.2,0.5c0.2,0.1,0.4,0.2,0.6,0.2c0.3,0,0.5-0.1,0.6-0.2
				c0.2-0.1,0.2-0.3,0.2-0.5c0-0.2-0.1-0.4-0.2-0.5c-0.2-0.1-0.4-0.2-0.6-0.2C86.5,156.3,86.2,156.4,86.1,156.5z"/>
		</g>
		<g>
			<path class="st0" d="M165.9,156.4c0.3,0.1,0.5,0.3,0.7,0.6c0.2,0.3,0.3,0.6,0.3,0.9c0,0.4-0.1,0.7-0.3,1
				c-0.2,0.3-0.4,0.5-0.8,0.7c-0.3,0.2-0.7,0.2-1.1,0.2c-0.8,0-1.4-0.2-1.8-0.7c-0.4-0.5-0.7-1.2-0.7-2.1c0-0.6,0.1-1.2,0.4-1.6
				c0.2-0.5,0.6-0.8,1-1c0.4-0.2,0.9-0.4,1.5-0.4c0.3,0,0.6,0,0.9,0.1c0.3,0.1,0.5,0.2,0.7,0.3l-0.5,1c-0.3-0.2-0.6-0.3-1.1-0.3
				c-0.5,0-0.9,0.1-1.1,0.4s-0.4,0.7-0.4,1.2c0.3-0.3,0.8-0.5,1.4-0.5C165.3,156.2,165.6,156.3,165.9,156.4z M165.4,158.6
				c0.2-0.1,0.3-0.4,0.3-0.6c0-0.3-0.1-0.5-0.3-0.6c-0.2-0.2-0.4-0.2-0.7-0.2c-0.3,0-0.5,0.1-0.7,0.2c-0.2,0.2-0.3,0.4-0.3,0.6
				c0,0.2,0.1,0.4,0.3,0.6c0.2,0.2,0.4,0.2,0.7,0.2C165,158.9,165.2,158.8,165.4,158.6z"/>
			<path class="st0" d="M168.3,159.5c-0.4-0.2-0.6-0.6-0.9-1c-0.2-0.4-0.3-1-0.3-1.6s0.1-1.1,0.3-1.6c0.2-0.4,0.5-0.8,0.9-1
				c0.4-0.2,0.8-0.3,1.2-0.3s0.9,0.1,1.2,0.3c0.4,0.2,0.6,0.6,0.9,1s0.3,1,0.3,1.6s-0.1,1.1-0.3,1.6s-0.5,0.8-0.9,1
				c-0.4,0.2-0.8,0.3-1.2,0.3S168.7,159.7,168.3,159.5z M170.4,158.3c0.2-0.3,0.3-0.7,0.3-1.4s-0.1-1.1-0.3-1.4
				c-0.2-0.3-0.5-0.4-0.8-0.4c-0.3,0-0.6,0.1-0.8,0.4c-0.2,0.3-0.3,0.7-0.3,1.4s0.1,1.1,0.3,1.4c0.2,0.3,0.5,0.4,0.8,0.4
				C169.9,158.7,170.2,158.6,170.4,158.3z"/>
		</g>
		<g>
			<path class="st0" d="M247.5,208.8c0.3,0.3,0.4,0.6,0.4,1.1c0,0.3-0.1,0.6-0.3,0.9c-0.2,0.3-0.4,0.5-0.8,0.7
				c-0.4,0.2-0.8,0.2-1.3,0.2c-0.4,0-0.8-0.1-1.2-0.2c-0.4-0.1-0.7-0.3-1-0.4l0.5-1c0.2,0.2,0.5,0.3,0.7,0.4
				c0.3,0.1,0.6,0.1,0.9,0.1c0.3,0,0.6-0.1,0.8-0.2c0.2-0.1,0.3-0.3,0.3-0.5c0-0.5-0.4-0.7-1.1-0.7H245v-0.9l1.2-1.3h-2.4v-1h3.9
				v0.8l-1.3,1.4C246.9,208.4,247.2,208.5,247.5,208.8z"/>
			<path class="st0" d="M249.5,211.4c-0.4-0.2-0.6-0.6-0.9-1c-0.2-0.4-0.3-1-0.3-1.6s0.1-1.1,0.3-1.6c0.2-0.4,0.5-0.8,0.9-1
				c0.4-0.2,0.8-0.3,1.2-0.3s0.9,0.1,1.2,0.3s0.6,0.6,0.9,1s0.3,1,0.3,1.6s-0.1,1.1-0.3,1.6s-0.5,0.8-0.9,1s-0.8,0.3-1.2,0.3
				S249.8,211.6,249.5,211.4z M251.5,210.2c0.2-0.3,0.3-0.7,0.3-1.4s-0.1-1.1-0.3-1.4c-0.2-0.3-0.5-0.4-0.8-0.4
				c-0.3,0-0.6,0.1-0.8,0.4c-0.2,0.3-0.3,0.7-0.3,1.4s0.1,1.1,0.3,1.4c0.2,0.3,0.5,0.4,0.8,0.4C251.1,210.6,251.3,210.5,251.5,210.2
				z"/>
		</g>
	</g>
	<g>
		<rect x="284.6" y="232" class="st4" width="29.8" height="37.1"/>
		<rect x="366.9" y="248.6" class="st4" width="29.8" height="20.6"/>
		<rect x="448.2" y="252.7" class="st4" width="29.8" height="16.4"/>
		<rect x="314.4" y="179.4" class="st5" width="29.8" height="89.7"/>
		<rect x="396.8" y="248.6" class="st5" width="29.8" height="20.6"/>
		<rect x="478.2" y="242.7" class="st5" width="29.8" height="26.4"/>
		<g>
			<g>
				<path class="st0" d="M299,226.3v1.1h-4.2v-0.8l2.2-2c0.2-0.2,0.4-0.4,0.5-0.6s0.1-0.3,0.1-0.5c0-0.2-0.1-0.4-0.2-0.5
					c-0.2-0.1-0.4-0.2-0.7-0.2c-0.2,0-0.5,0-0.7,0.1c-0.2,0.1-0.4,0.2-0.5,0.4l-0.9-0.6c0.2-0.3,0.5-0.6,0.9-0.8
					c0.4-0.2,0.8-0.3,1.3-0.3c0.4,0,0.8,0.1,1.1,0.2c0.3,0.1,0.6,0.3,0.7,0.6s0.3,0.5,0.3,0.9c0,0.3-0.1,0.6-0.2,0.9
					c-0.1,0.3-0.4,0.6-0.7,0.9l-1.3,1.2H299z"/>
				<path class="st0" d="M301.5,221.8v5.6h-1.3v-4.6h-1.1v-1H301.5z"/>
			</g>
		</g>
		<g>
			<g>
				<path class="st0" d="M380.2,237.7v5.6h-1.3v-4.6h-1.1v-1H380.2z"/>
				<path class="st0" d="M383.2,237.7v5.6h-1.3v-4.6h-1.1v-1H383.2z"/>
			</g>
		</g>
		<g>
			<g>
				<path class="st0" d="M460.4,244.9v5.6h-1.3v-4.6H458v-1H460.4z"/>
				<path class="st0" d="M462.3,250.2c-0.4-0.2-0.6-0.6-0.9-1c-0.2-0.4-0.3-1-0.3-1.6s0.1-1.1,0.3-1.6c0.2-0.4,0.5-0.8,0.9-1
					c0.4-0.2,0.8-0.3,1.2-0.3s0.9,0.1,1.2,0.3s0.6,0.6,0.9,1s0.3,1,0.3,1.6s-0.1,1.1-0.3,1.6s-0.5,0.8-0.9,1s-0.8,0.3-1.2,0.3
					S462.7,250.5,462.3,250.2z M464.4,249.1c0.2-0.3,0.3-0.7,0.3-1.4s-0.1-1.1-0.3-1.4c-0.2-0.3-0.5-0.4-0.8-0.4
					c-0.3,0-0.6,0.1-0.8,0.4c-0.2,0.3-0.3,0.7-0.3,1.4s0.1,1.1,0.3,1.4c0.2,0.3,0.5,0.4,0.8,0.4
					C463.9,249.5,464.2,249.3,464.4,249.1z"/>
			</g>
		</g>
		<g>
			<path class="st0" d="M329.2,173c0.4,0.3,0.6,0.7,0.6,1.3c0,0.3-0.1,0.7-0.3,0.9c-0.2,0.3-0.4,0.5-0.8,0.7
				c-0.4,0.2-0.8,0.3-1.3,0.3c-0.4,0-0.8-0.1-1.2-0.2c-0.4-0.1-0.7-0.3-1-0.4l0.5-1c0.2,0.2,0.5,0.3,0.7,0.4
				c0.3,0.1,0.6,0.1,0.9,0.1c0.3,0,0.6-0.1,0.8-0.2c0.2-0.1,0.3-0.3,0.3-0.5c0-0.2-0.1-0.4-0.3-0.5s-0.5-0.2-1-0.2h-1.4l0.3-3.2h3.4
				v1H327l-0.1,1.1h0.5C328.2,172.6,328.8,172.7,329.2,173z"/>
			<path class="st0" d="M332.2,170.5v5.6h-1.3v-4.6h-1.1v-1H332.2z"/>
		</g>
		<g>
			<path class="st0" d="M411.2,238.1v5.6h-1.3v-4.6h-1.1v-1H411.2z"/>
			<path class="st0" d="M414.1,238.1v5.6h-1.3v-4.6h-1.1v-1H414.1z"/>
		</g>
		<g>
			<path class="st0" d="M491.7,236v5.6h-1.3V237h-1.1v-1H491.7z"/>
			<path class="st0" d="M496.1,238.6c0.4,0.3,0.6,0.7,0.6,1.3c0,0.3-0.1,0.7-0.3,0.9c-0.2,0.3-0.4,0.5-0.8,0.7
				c-0.3,0.2-0.8,0.3-1.3,0.3c-0.4,0-0.8-0.1-1.2-0.2c-0.4-0.1-0.7-0.3-1-0.4l0.5-1c0.2,0.2,0.5,0.3,0.7,0.4
				c0.3,0.1,0.6,0.1,0.9,0.1c0.3,0,0.6-0.1,0.8-0.2c0.2-0.1,0.3-0.3,0.3-0.5c0-0.2-0.1-0.4-0.3-0.5s-0.5-0.2-1-0.2h-1.4l0.3-3.2h3.4
				v1H494l-0.1,1.1h0.5C495.2,238.1,495.7,238.3,496.1,238.6z"/>
		</g>
		<g>
			<g>
				<path class="st0" d="M542.9,263.2c-0.4-0.2-0.6-0.6-0.9-1c-0.2-0.4-0.3-1-0.3-1.6c0-0.6,0.1-1.1,0.3-1.6c0.2-0.4,0.5-0.8,0.9-1
					c0.4-0.2,0.8-0.3,1.2-0.3s0.9,0.1,1.2,0.3s0.6,0.6,0.9,1s0.3,1,0.3,1.6c0,0.6-0.1,1.1-0.3,1.6s-0.5,0.8-0.9,1
					c-0.4,0.2-0.8,0.3-1.2,0.3S543.2,263.5,542.9,263.2z M544.9,262.1c0.2-0.3,0.3-0.7,0.3-1.4c0-0.6-0.1-1.1-0.3-1.4
					c-0.2-0.3-0.5-0.4-0.8-0.4c-0.3,0-0.6,0.1-0.8,0.4c-0.2,0.3-0.3,0.7-0.3,1.4c0,0.6,0.1,1.1,0.3,1.4c0.2,0.3,0.5,0.4,0.8,0.4
					C544.5,262.5,544.7,262.3,544.9,262.1z"/>
			</g>
		</g>
		<g>
			<path class="st0" d="M573.8,263.4c-0.4-0.2-0.6-0.6-0.9-1c-0.2-0.4-0.3-1-0.3-1.6c0-0.6,0.1-1.1,0.3-1.6c0.2-0.4,0.5-0.8,0.9-1
				c0.4-0.2,0.8-0.3,1.2-0.3s0.9,0.1,1.2,0.3s0.6,0.6,0.9,1s0.3,1,0.3,1.6c0,0.6-0.1,1.1-0.3,1.6s-0.5,0.8-0.9,1
				c-0.4,0.2-0.8,0.3-1.2,0.3S574.2,263.6,573.8,263.4z M575.8,262.2c0.2-0.3,0.3-0.7,0.3-1.4c0-0.6-0.1-1.1-0.3-1.4
				c-0.2-0.3-0.5-0.4-0.8-0.4c-0.3,0-0.6,0.1-0.8,0.4c-0.2,0.3-0.3,0.7-0.3,1.4c0,0.6,0.1,1.1,0.3,1.4s0.5,0.4,0.8,0.4
				C575.4,262.6,575.6,262.5,575.8,262.2z"/>
		</g>
	</g>
	<g>
		<path class="st0" d="M301.5,275.3h1.1v4h2.5v0.9h-3.6V275.3z"/>
		<path class="st0" d="M305.5,275.3h1.1v4h2.5v0.9h-3.6V275.3z"/>
		<path class="st0" d="M310.1,279.7c-0.4-0.4-0.6-0.9-0.6-1.7v-2.7h1.1v2.7c0,0.9,0.4,1.3,1.1,1.3c0.4,0,0.6-0.1,0.8-0.3
			c0.2-0.2,0.3-0.5,0.3-1v-2.7h1.1v2.7c0,0.7-0.2,1.3-0.6,1.7s-0.9,0.6-1.6,0.6C311,280.3,310.5,280.1,310.1,279.7z"/>
		<path class="st0" d="M314.9,275.3h1.1v4h2.5v0.9h-3.6V275.3z"/>
		<path class="st0" d="M322.2,279.2h-2.3l-0.4,1h-1.2l2.2-4.9h1.1l2.2,4.9h-1.2L322.2,279.2z M321.8,278.3l-0.8-1.9l-0.8,1.9H321.8z
			"/>
		<path class="st0" d="M325.9,274.3h1l-2.3,6.6h-1L325.9,274.3z"/>
		<path class="st0" d="M330.2,275.5c0.3,0.1,0.6,0.3,0.7,0.6c0.2,0.3,0.3,0.6,0.3,0.9c0,0.4-0.1,0.7-0.3,0.9
			c-0.2,0.3-0.4,0.5-0.7,0.6s-0.7,0.2-1.1,0.2h-1v1.4h-1.1v-4.9h2.1C329.5,275.3,329.9,275.4,330.2,275.5z M329.8,277.7
			c0.2-0.1,0.3-0.4,0.3-0.6c0-0.3-0.1-0.5-0.3-0.6c-0.2-0.1-0.4-0.2-0.8-0.2h-0.9v1.7h0.9C329.3,278,329.6,277.9,329.8,277.7z"/>
		<path class="st0" d="M332.7,276.3h-1.6v-0.9h4.3v0.9h-1.6v4h-1.1V276.3z"/>
		<path class="st0" d="M298.9,288.5c-0.2-0.6-0.2-1.2-0.2-1.8s0.1-1.2,0.2-1.8c0.2-0.6,0.4-1.1,0.6-1.5h1c-0.3,0.5-0.5,1-0.6,1.6
			s-0.2,1.1-0.2,1.7s0.1,1.2,0.2,1.7s0.3,1.1,0.6,1.6h-1C299.2,289.6,299,289.1,298.9,288.5z"/>
		<path class="st0" d="M304.4,287.7v0.9h-3.7v-0.7l1.9-1.8c0.2-0.2,0.3-0.4,0.4-0.5c0.1-0.1,0.1-0.3,0.1-0.4c0-0.2-0.1-0.3-0.2-0.5
			c-0.1-0.1-0.3-0.2-0.6-0.2c-0.2,0-0.4,0-0.6,0.1c-0.2,0.1-0.3,0.2-0.4,0.4l-0.8-0.5c0.2-0.3,0.5-0.5,0.8-0.7s0.7-0.2,1.2-0.2
			c0.4,0,0.7,0.1,1,0.2c0.3,0.1,0.5,0.3,0.6,0.5c0.2,0.2,0.2,0.5,0.2,0.8c0,0.3-0.1,0.5-0.2,0.7c-0.1,0.2-0.3,0.5-0.7,0.8l-1.1,1.1
			H304.4z"/>
		<path class="st0" d="M305.7,288.4c-0.3-0.2-0.6-0.5-0.7-0.9c-0.2-0.4-0.3-0.8-0.3-1.4s0.1-1,0.3-1.4c0.2-0.4,0.4-0.7,0.7-0.9
			c0.3-0.2,0.7-0.3,1.1-0.3c0.4,0,0.8,0.1,1.1,0.3c0.3,0.2,0.6,0.5,0.7,0.9c0.2,0.4,0.3,0.8,0.3,1.4s-0.1,1-0.3,1.4
			c-0.2,0.4-0.4,0.7-0.7,0.9c-0.3,0.2-0.7,0.3-1.1,0.3C306.3,288.7,306,288.6,305.7,288.4z M307.5,287.4c0.2-0.3,0.3-0.7,0.3-1.2
			c0-0.5-0.1-0.9-0.3-1.2s-0.4-0.4-0.7-0.4c-0.3,0-0.5,0.1-0.7,0.4c-0.2,0.3-0.3,0.7-0.3,1.2c0,0.5,0.1,0.9,0.3,1.2
			c0.2,0.3,0.4,0.4,0.7,0.4C307.1,287.8,307.3,287.6,307.5,287.4z"/>
		<path class="st0" d="M310.2,288.4c-0.3-0.2-0.6-0.5-0.7-0.9c-0.2-0.4-0.3-0.8-0.3-1.4s0.1-1,0.3-1.4c0.2-0.4,0.4-0.7,0.7-0.9
			c0.3-0.2,0.7-0.3,1.1-0.3s0.8,0.1,1.1,0.3c0.3,0.2,0.6,0.5,0.7,0.9c0.2,0.4,0.3,0.8,0.3,1.4s-0.1,1-0.3,1.4
			c-0.2,0.4-0.4,0.7-0.7,0.9c-0.3,0.2-0.7,0.3-1.1,0.3S310.6,288.6,310.2,288.4z M312,287.4c0.2-0.3,0.3-0.7,0.3-1.2
			c0-0.5-0.1-0.9-0.3-1.2c-0.2-0.3-0.4-0.4-0.7-0.4c-0.3,0-0.5,0.1-0.7,0.4c-0.2,0.3-0.3,0.7-0.3,1.2c0,0.5,0.1,0.9,0.3,1.2
			c0.2,0.3,0.4,0.4,0.7,0.4C311.6,287.8,311.9,287.6,312,287.4z"/>
		<path class="st0" d="M317.6,283.7v0.7l-1.8,4.2h-1.2l1.8-4h-1.6v0.8h-1v-1.7H317.6z"/>
		<path class="st0" d="M317.7,286.2h2v0.9h-2V286.2z"/>
		<path class="st0" d="M321.9,283.7v4.9h-1.1v-4h-1v-0.9H321.9z"/>
		<path class="st0" d="M323.6,288.4c-0.3-0.2-0.6-0.5-0.7-0.9c-0.2-0.4-0.3-0.8-0.3-1.4s0.1-1,0.3-1.4c0.2-0.4,0.4-0.7,0.7-0.9
			c0.3-0.2,0.7-0.3,1.1-0.3c0.4,0,0.8,0.1,1.1,0.3c0.3,0.2,0.6,0.5,0.7,0.9c0.2,0.4,0.3,0.8,0.3,1.4s-0.1,1-0.3,1.4
			c-0.2,0.4-0.4,0.7-0.7,0.9c-0.3,0.2-0.7,0.3-1.1,0.3C324.2,288.7,323.9,288.6,323.6,288.4z M325.3,287.4c0.2-0.3,0.3-0.7,0.3-1.2
			c0-0.5-0.1-0.9-0.3-1.2s-0.4-0.4-0.7-0.4c-0.3,0-0.5,0.1-0.7,0.4c-0.2,0.3-0.3,0.7-0.3,1.2c0,0.5,0.1,0.9,0.3,1.2
			c0.2,0.3,0.4,0.4,0.7,0.4C324.9,287.8,325.2,287.6,325.3,287.4z"/>
		<path class="st0" d="M328.1,288.4c-0.3-0.2-0.6-0.5-0.7-0.9c-0.2-0.4-0.3-0.8-0.3-1.4s0.1-1,0.3-1.4c0.2-0.4,0.4-0.7,0.7-0.9
			c0.3-0.2,0.7-0.3,1.1-0.3c0.4,0,0.8,0.1,1.1,0.3c0.3,0.2,0.6,0.5,0.7,0.9c0.2,0.4,0.3,0.8,0.3,1.4s-0.1,1-0.3,1.4
			c-0.2,0.4-0.4,0.7-0.7,0.9c-0.3,0.2-0.7,0.3-1.1,0.3C328.8,288.7,328.5,288.6,328.1,288.4z M329.9,287.4c0.2-0.3,0.3-0.7,0.3-1.2
			c0-0.5-0.1-0.9-0.3-1.2s-0.4-0.4-0.7-0.4c-0.3,0-0.5,0.1-0.7,0.4c-0.2,0.3-0.3,0.7-0.3,1.2c0,0.5,0.1,0.9,0.3,1.2
			c0.2,0.3,0.4,0.4,0.7,0.4C329.5,287.8,329.8,287.6,329.9,287.4z"/>
		<path class="st0" d="M335,284.3c0.4,0.4,0.6,1,0.6,1.8c0,0.6-0.1,1-0.3,1.4c-0.2,0.4-0.5,0.7-0.9,0.9c-0.4,0.2-0.8,0.3-1.3,0.3
			c-0.3,0-0.5,0-0.7-0.1c-0.2-0.1-0.4-0.1-0.6-0.2l0.4-0.8c0.2,0.2,0.5,0.2,0.9,0.2c0.4,0,0.7-0.1,1-0.4c0.2-0.2,0.4-0.6,0.4-1.1
			c-0.3,0.3-0.7,0.4-1.2,0.4c-0.3,0-0.6-0.1-0.9-0.2c-0.3-0.1-0.5-0.3-0.6-0.5c-0.1-0.2-0.2-0.5-0.2-0.8c0-0.3,0.1-0.6,0.2-0.9
			c0.2-0.2,0.4-0.4,0.7-0.6c0.3-0.1,0.6-0.2,0.9-0.2C334.1,283.6,334.6,283.9,335,284.3z M334.1,285.8c0.2-0.1,0.2-0.3,0.2-0.5
			s-0.1-0.4-0.2-0.5c-0.2-0.1-0.4-0.2-0.6-0.2c-0.2,0-0.4,0.1-0.6,0.2c-0.2,0.1-0.2,0.3-0.2,0.5c0,0.2,0.1,0.4,0.2,0.5
			c0.2,0.1,0.4,0.2,0.6,0.2C333.8,286,334,285.9,334.1,285.8z"/>
		<path class="st0" d="M335.8,290c0.3-0.5,0.5-1,0.6-1.6s0.2-1.1,0.2-1.7s-0.1-1.2-0.2-1.7s-0.4-1.1-0.6-1.6h1
			c0.3,0.4,0.5,0.9,0.7,1.5s0.2,1.2,0.2,1.8s-0.1,1.2-0.2,1.8s-0.4,1-0.7,1.5H335.8z"/>
	</g>
	<g>
		<path class="st0" d="M381.3,275.3h2.2c0.5,0,1,0.1,1.4,0.3s0.7,0.5,1,0.9c0.2,0.4,0.3,0.8,0.3,1.3s-0.1,0.9-0.3,1.3
			c-0.2,0.4-0.5,0.7-1,0.9s-0.9,0.3-1.4,0.3h-2.2V275.3z M383.4,279.3c0.5,0,0.9-0.1,1.2-0.4c0.3-0.3,0.4-0.6,0.4-1.1
			s-0.1-0.8-0.4-1.1c-0.3-0.3-0.7-0.4-1.2-0.4h-1v3H383.4z"/>
		<path class="st0" d="M386.9,275.3h1.1v4.9h-1.1V275.3z"/>
		<path class="st0" d="M389,275.3h1.1v4h2.5v0.9H389V275.3z"/>
		<path class="st0" d="M397.5,280.2l0-2.9l-1.4,2.4h-0.5l-1.4-2.4v2.9H393v-4.9h0.9l1.8,3l1.8-3h0.9l0,4.9H397.5z"/>
		<path class="st0" d="M402.8,279.2h-2.3l-0.4,1h-1.2l2.2-4.9h1.1l2.2,4.9h-1.2L402.8,279.2z M402.4,278.3l-0.8-1.9l-0.8,1.9H402.4z
			"/>
		<path class="st0" d="M406.4,274.3h1l-2.3,6.6h-1L406.4,274.3z"/>
		<path class="st0" d="M410.8,275.5c0.3,0.1,0.6,0.3,0.7,0.6c0.2,0.3,0.3,0.6,0.3,0.9c0,0.4-0.1,0.7-0.3,0.9
			c-0.2,0.3-0.4,0.5-0.7,0.6s-0.7,0.2-1.1,0.2h-1v1.4h-1.1v-4.9h2.1C410.1,275.3,410.5,275.4,410.8,275.5z M410.4,277.7
			c0.2-0.1,0.3-0.4,0.3-0.6c0-0.3-0.1-0.5-0.3-0.6c-0.2-0.1-0.4-0.2-0.8-0.2h-0.9v1.7h0.9C409.9,278,410.2,277.9,410.4,277.7z"/>
		<path class="st0" d="M413.3,276.3h-1.6v-0.9h4.3v0.9h-1.6v4h-1.1V276.3z"/>
		<path class="st0" d="M380.8,288.5c-0.2-0.6-0.2-1.2-0.2-1.8s0.1-1.2,0.2-1.8s0.4-1.1,0.6-1.5h1c-0.3,0.5-0.5,1-0.6,1.6
			c-0.1,0.5-0.2,1.1-0.2,1.7s0.1,1.2,0.2,1.7c0.1,0.5,0.3,1.1,0.6,1.6h-1C381.2,289.6,381,289.1,380.8,288.5z"/>
		<path class="st0" d="M386.3,287.7v0.9h-3.7v-0.7l1.9-1.8c0.2-0.2,0.3-0.4,0.4-0.5s0.1-0.3,0.1-0.4c0-0.2-0.1-0.3-0.2-0.5
			c-0.1-0.1-0.3-0.2-0.6-0.2c-0.2,0-0.4,0-0.6,0.1c-0.2,0.1-0.3,0.2-0.4,0.4l-0.8-0.5c0.2-0.3,0.5-0.5,0.8-0.7s0.7-0.2,1.2-0.2
			c0.4,0,0.7,0.1,1,0.2c0.3,0.1,0.5,0.3,0.6,0.5c0.2,0.2,0.2,0.5,0.2,0.8c0,0.3-0.1,0.5-0.2,0.7c-0.1,0.2-0.3,0.5-0.7,0.8l-1.1,1.1
			H386.3z"/>
		<path class="st0" d="M387.6,288.4c-0.3-0.2-0.6-0.5-0.7-0.9c-0.2-0.4-0.3-0.8-0.3-1.4s0.1-1,0.3-1.4c0.2-0.4,0.4-0.7,0.7-0.9
			c0.3-0.2,0.7-0.3,1.1-0.3s0.8,0.1,1.1,0.3c0.3,0.2,0.6,0.5,0.7,0.9c0.2,0.4,0.3,0.8,0.3,1.4s-0.1,1-0.3,1.4
			c-0.2,0.4-0.4,0.7-0.7,0.9c-0.3,0.2-0.7,0.3-1.1,0.3S387.9,288.6,387.6,288.4z M389.4,287.4c0.2-0.3,0.3-0.7,0.3-1.2
			c0-0.5-0.1-0.9-0.3-1.2c-0.2-0.3-0.4-0.4-0.7-0.4c-0.3,0-0.5,0.1-0.7,0.4c-0.2,0.3-0.3,0.7-0.3,1.2c0,0.5,0.1,0.9,0.3,1.2
			c0.2,0.3,0.4,0.4,0.7,0.4C389,287.8,389.2,287.6,389.4,287.4z"/>
		<path class="st0" d="M393,283.7v4.9h-1.1v-4h-1v-0.9H393z"/>
		<path class="st0" d="M395.6,283.7v4.9h-1.1v-4h-1v-0.9H395.6z"/>
		<path class="st0" d="M396.4,286.2h2v0.9h-2V286.2z"/>
		<path class="st0" d="M402.4,287.7v0.9h-3.7v-0.7l1.9-1.8c0.2-0.2,0.3-0.4,0.4-0.5s0.1-0.3,0.1-0.4c0-0.2-0.1-0.3-0.2-0.5
			c-0.1-0.1-0.3-0.2-0.6-0.2c-0.2,0-0.4,0-0.6,0.1c-0.2,0.1-0.3,0.2-0.4,0.4l-0.8-0.5c0.2-0.3,0.5-0.5,0.8-0.7s0.7-0.2,1.2-0.2
			c0.4,0,0.7,0.1,1,0.2c0.3,0.1,0.5,0.3,0.6,0.5c0.2,0.2,0.2,0.5,0.2,0.8c0,0.3-0.1,0.5-0.2,0.7c-0.1,0.2-0.3,0.5-0.7,0.8l-1.1,1.1
			H402.4z"/>
		<path class="st0" d="M403.7,288.4c-0.3-0.2-0.6-0.5-0.7-0.9c-0.2-0.4-0.3-0.8-0.3-1.4s0.1-1,0.3-1.4c0.2-0.4,0.4-0.7,0.7-0.9
			c0.3-0.2,0.7-0.3,1.1-0.3c0.4,0,0.8,0.1,1.1,0.3c0.3,0.2,0.6,0.5,0.7,0.9c0.2,0.4,0.3,0.8,0.3,1.4s-0.1,1-0.3,1.4
			c-0.2,0.4-0.4,0.7-0.7,0.9c-0.3,0.2-0.7,0.3-1.1,0.3C404.3,288.7,404,288.6,403.7,288.4z M405.4,287.4c0.2-0.3,0.3-0.7,0.3-1.2
			c0-0.5-0.1-0.9-0.3-1.2s-0.4-0.4-0.7-0.4c-0.3,0-0.5,0.1-0.7,0.4c-0.2,0.3-0.3,0.7-0.3,1.2c0,0.5,0.1,0.9,0.3,1.2
			c0.2,0.3,0.4,0.4,0.7,0.4C405,287.8,405.3,287.6,405.4,287.4z"/>
		<path class="st0" d="M409.1,283.7v4.9h-1.1v-4h-1v-0.9H409.1z"/>
		<path class="st0" d="M414.2,287.6h-0.8v1h-1.1v-1h-2.6v-0.8l2.3-3.1h1.2l-2.1,2.9h1.3v-0.9h1.1v0.9h0.8V287.6z"/>
		<path class="st0" d="M414.2,290c0.3-0.5,0.5-1,0.6-1.6s0.2-1.1,0.2-1.7s-0.1-1.2-0.2-1.7s-0.4-1.1-0.6-1.6h1
			c0.3,0.4,0.5,0.9,0.7,1.5c0.2,0.6,0.2,1.2,0.2,1.8s-0.1,1.2-0.2,1.8s-0.4,1-0.7,1.5H414.2z"/>
	</g>
	<g>
		<path class="st0" d="M461.4,275.3h2.2c0.5,0,1,0.1,1.4,0.3s0.7,0.5,1,0.9c0.2,0.4,0.3,0.8,0.3,1.3s-0.1,0.9-0.3,1.3
			c-0.2,0.4-0.5,0.7-1,0.9s-0.9,0.3-1.4,0.3h-2.2V275.3z M463.6,279.3c0.5,0,0.9-0.1,1.2-0.4c0.3-0.3,0.4-0.6,0.4-1.1
			s-0.1-0.8-0.4-1.1c-0.3-0.3-0.7-0.4-1.2-0.4h-1v3H463.6z"/>
		<path class="st0" d="M467,275.3h1.1v4.9H467V275.3z"/>
		<path class="st0" d="M469.2,275.3h1.1v4h2.5v0.9h-3.6V275.3z"/>
		<path class="st0" d="M477.7,280.2l0-2.9l-1.4,2.4h-0.5l-1.4-2.4v2.9h-1.1v-4.9h0.9l1.8,3l1.8-3h0.9l0,4.9H477.7z"/>
		<path class="st0" d="M483,279.2h-2.3l-0.4,1h-1.2l2.2-4.9h1.1l2.2,4.9h-1.2L483,279.2z M482.6,278.3l-0.8-1.9l-0.8,1.9H482.6z"/>
		<path class="st0" d="M486.6,274.3h1l-2.3,6.6h-1L486.6,274.3z"/>
		<path class="st0" d="M490.9,275.5c0.3,0.1,0.6,0.3,0.7,0.6c0.2,0.3,0.3,0.6,0.3,0.9c0,0.4-0.1,0.7-0.3,0.9
			c-0.2,0.3-0.4,0.5-0.7,0.6c-0.3,0.1-0.7,0.2-1.1,0.2h-1v1.4h-1.1v-4.9h2.1C490.3,275.3,490.6,275.4,490.9,275.5z M490.5,277.7
			c0.2-0.1,0.3-0.4,0.3-0.6c0-0.3-0.1-0.5-0.3-0.6c-0.2-0.1-0.4-0.2-0.8-0.2h-0.9v1.7h0.9C490.1,278,490.4,277.9,490.5,277.7z"/>
		<path class="st0" d="M493.5,276.3h-1.6v-0.9h4.3v0.9h-1.6v4h-1.1V276.3z"/>
		<path class="st0" d="M460.5,288.5c-0.2-0.6-0.2-1.2-0.2-1.8s0.1-1.2,0.2-1.8s0.4-1.1,0.6-1.5h1c-0.3,0.5-0.5,1-0.6,1.6
			c-0.1,0.5-0.2,1.1-0.2,1.7s0.1,1.2,0.2,1.7c0.1,0.5,0.3,1.1,0.6,1.6h-1C460.8,289.6,460.6,289.1,460.5,288.5z"/>
		<path class="st0" d="M466,287.7v0.9h-3.7v-0.7l1.9-1.8c0.2-0.2,0.3-0.4,0.4-0.5c0.1-0.1,0.1-0.3,0.1-0.4c0-0.2-0.1-0.3-0.2-0.5
			c-0.1-0.1-0.3-0.2-0.6-0.2c-0.2,0-0.4,0-0.6,0.1c-0.2,0.1-0.3,0.2-0.4,0.4l-0.8-0.5c0.2-0.3,0.5-0.5,0.8-0.7s0.7-0.2,1.2-0.2
			c0.4,0,0.7,0.1,1,0.2c0.3,0.1,0.5,0.3,0.6,0.5c0.2,0.2,0.2,0.5,0.2,0.8c0,0.3-0.1,0.5-0.2,0.7c-0.1,0.2-0.3,0.5-0.7,0.8l-1.1,1.1
			H466z"/>
		<path class="st0" d="M467.3,288.4c-0.3-0.2-0.6-0.5-0.7-0.9c-0.2-0.4-0.3-0.8-0.3-1.4s0.1-1,0.3-1.4c0.2-0.4,0.4-0.7,0.7-0.9
			c0.3-0.2,0.7-0.3,1.1-0.3s0.8,0.1,1.1,0.3c0.3,0.2,0.6,0.5,0.7,0.9c0.2,0.4,0.3,0.8,0.3,1.4s-0.1,1-0.3,1.4
			c-0.2,0.4-0.4,0.7-0.7,0.9c-0.3,0.2-0.7,0.3-1.1,0.3S467.6,288.6,467.3,288.4z M469.1,287.4c0.2-0.3,0.3-0.7,0.3-1.2
			c0-0.5-0.1-0.9-0.3-1.2c-0.2-0.3-0.4-0.4-0.7-0.4c-0.3,0-0.5,0.1-0.7,0.4c-0.2,0.3-0.3,0.7-0.3,1.2c0,0.5,0.1,0.9,0.3,1.2
			c0.2,0.3,0.4,0.4,0.7,0.4C468.7,287.8,468.9,287.6,469.1,287.4z"/>
		<path class="st0" d="M472.7,283.7v4.9h-1.1v-4h-1v-0.9H472.7z"/>
		<path class="st0" d="M476.6,286c0.3,0.3,0.5,0.6,0.5,1.1c0,0.3-0.1,0.6-0.2,0.8s-0.4,0.4-0.7,0.6c-0.3,0.1-0.7,0.2-1.1,0.2
			c-0.3,0-0.7,0-1-0.1c-0.3-0.1-0.6-0.2-0.9-0.4l0.4-0.9c0.2,0.1,0.4,0.2,0.6,0.3c0.2,0.1,0.5,0.1,0.7,0.1c0.3,0,0.5-0.1,0.7-0.2
			s0.2-0.3,0.2-0.5c0-0.2-0.1-0.4-0.3-0.5c-0.2-0.1-0.5-0.2-0.9-0.2h-1.3l0.3-2.8h3v0.9h-2l-0.1,0.9h0.4
			C475.7,285.6,476.2,285.7,476.6,286z"/>
		<path class="st0" d="M477.4,286.2h2v0.9h-2V286.2z"/>
		<path class="st0" d="M483.4,287.7v0.9h-3.7v-0.7l1.9-1.8c0.2-0.2,0.3-0.4,0.4-0.5c0.1-0.1,0.1-0.3,0.1-0.4c0-0.2-0.1-0.3-0.2-0.5
			c-0.1-0.1-0.3-0.2-0.6-0.2c-0.2,0-0.4,0-0.6,0.1c-0.2,0.1-0.3,0.2-0.4,0.4l-0.8-0.5c0.2-0.3,0.5-0.5,0.8-0.7s0.7-0.2,1.2-0.2
			c0.4,0,0.7,0.1,1,0.2c0.3,0.1,0.5,0.3,0.6,0.5c0.2,0.2,0.2,0.5,0.2,0.8c0,0.3-0.1,0.5-0.2,0.7c-0.1,0.2-0.3,0.5-0.7,0.8l-1.1,1.1
			H483.4z"/>
		<path class="st0" d="M484.7,288.4c-0.3-0.2-0.6-0.5-0.7-0.9c-0.2-0.4-0.3-0.8-0.3-1.4s0.1-1,0.3-1.4c0.2-0.4,0.4-0.7,0.7-0.9
			c0.3-0.2,0.7-0.3,1.1-0.3s0.8,0.1,1.1,0.3c0.3,0.2,0.6,0.5,0.7,0.9c0.2,0.4,0.3,0.8,0.3,1.4s-0.1,1-0.3,1.4
			c-0.2,0.4-0.4,0.7-0.7,0.9c-0.3,0.2-0.7,0.3-1.1,0.3S485,288.6,484.7,288.4z M486.5,287.4c0.2-0.3,0.3-0.7,0.3-1.2
			c0-0.5-0.1-0.9-0.3-1.2c-0.2-0.3-0.4-0.4-0.7-0.4c-0.3,0-0.5,0.1-0.7,0.4c-0.2,0.3-0.3,0.7-0.3,1.2c0,0.5,0.1,0.9,0.3,1.2
			c0.2,0.3,0.4,0.4,0.7,0.4C486.1,287.8,486.3,287.6,486.5,287.4z"/>
		<path class="st0" d="M490.1,283.7v4.9H489v-4h-1v-0.9H490.1z"/>
		<path class="st0" d="M494,285.7c0.3,0.1,0.5,0.3,0.6,0.5c0.1,0.2,0.2,0.5,0.2,0.8c0,0.3-0.1,0.6-0.2,0.9c-0.2,0.2-0.4,0.4-0.7,0.6
			s-0.6,0.2-0.9,0.2c-0.7,0-1.2-0.2-1.6-0.6c-0.4-0.4-0.6-1-0.6-1.8c0-0.6,0.1-1,0.3-1.4c0.2-0.4,0.5-0.7,0.9-0.9
			c0.4-0.2,0.8-0.3,1.3-0.3c0.3,0,0.5,0,0.8,0.1s0.4,0.1,0.6,0.2l-0.4,0.8c-0.2-0.2-0.5-0.2-0.9-0.2c-0.4,0-0.7,0.1-1,0.4
			c-0.2,0.2-0.4,0.6-0.4,1.1c0.3-0.3,0.7-0.4,1.2-0.4C493.5,285.6,493.8,285.6,494,285.7z M493.5,287.7c0.2-0.1,0.2-0.3,0.2-0.5
			c0-0.2-0.1-0.4-0.2-0.5c-0.2-0.1-0.4-0.2-0.6-0.2c-0.2,0-0.5,0.1-0.6,0.2c-0.2,0.1-0.2,0.3-0.2,0.5s0.1,0.4,0.2,0.5
			c0.2,0.1,0.4,0.2,0.6,0.2C493.2,287.9,493.4,287.8,493.5,287.7z"/>
		<path class="st0" d="M494.9,290c0.3-0.5,0.5-1,0.6-1.6s0.2-1.1,0.2-1.7s-0.1-1.2-0.2-1.7s-0.4-1.1-0.6-1.6h1
			c0.3,0.4,0.5,0.9,0.7,1.5s0.2,1.2,0.2,1.8s-0.1,1.2-0.2,1.8c-0.1,0.6-0.4,1-0.7,1.5H494.9z"/>
	</g>
	<g>
		<path class="st0" d="M535.3,276.3h-1.6v-0.9h4.3v0.9h-1.6v4h-1.1V276.3z"/>
		<path class="st0" d="M542.3,279.3v0.9h-3.8v-4.9h3.7v0.9h-2.6v1.1h2.3v0.9h-2.3v1.1H542.3z"/>
		<path class="st0" d="M547.4,280.2l0-2.9l-1.4,2.4h-0.5l-1.4-2.4v2.9H543v-4.9h0.9l1.8,3l1.8-3h0.9l0,4.9H547.4z"/>
		<path class="st0" d="M553.3,279.3v0.9h-3.8v-4.9h3.7v0.9h-2.6v1.1h2.3v0.9h-2.3v1.1H553.3z"/>
		<path class="st0" d="M557.1,280.2l-0.9-1.4h-0.1h-1v1.4H554v-4.9h2.1c0.4,0,0.8,0.1,1.1,0.2c0.3,0.1,0.6,0.3,0.7,0.6
			c0.2,0.3,0.3,0.6,0.3,0.9s-0.1,0.7-0.3,0.9s-0.4,0.5-0.7,0.6l1.1,1.6H557.1z M556.8,276.5c-0.2-0.1-0.4-0.2-0.8-0.2h-0.9v1.7h0.9
			c0.3,0,0.6-0.1,0.8-0.2s0.3-0.4,0.3-0.6C557.1,276.8,557,276.6,556.8,276.5z"/>
		<path class="st0" d="M560.5,274.3h1l-2.3,6.6h-1L560.5,274.3z"/>
		<path class="st0" d="M564.8,275.5c0.3,0.1,0.6,0.3,0.7,0.6c0.2,0.3,0.3,0.6,0.3,0.9c0,0.4-0.1,0.7-0.3,0.9
			c-0.2,0.3-0.4,0.5-0.7,0.6c-0.3,0.1-0.7,0.2-1.1,0.2h-1v1.4h-1.1v-4.9h2.1C564.1,275.3,564.5,275.4,564.8,275.5z M564.4,277.7
			c0.2-0.1,0.3-0.4,0.3-0.6c0-0.3-0.1-0.5-0.3-0.6c-0.2-0.1-0.4-0.2-0.8-0.2h-0.9v1.7h0.9C563.9,278,564.2,277.9,564.4,277.7z"/>
		<path class="st0" d="M570.9,280.2l0-2.9l-1.4,2.4h-0.5l-1.4-2.4v2.9h-1.1v-4.9h0.9l1.8,3l1.8-3h0.9l0,4.9H570.9z"/>
		<path class="st0" d="M572.9,275.3h2.2c0.5,0,1,0.1,1.4,0.3s0.7,0.5,1,0.9c0.2,0.4,0.3,0.8,0.3,1.3s-0.1,0.9-0.3,1.3
			c-0.2,0.4-0.5,0.7-1,0.9s-0.9,0.3-1.4,0.3h-2.2V275.3z M575.1,279.3c0.5,0,0.9-0.1,1.2-0.4c0.3-0.3,0.4-0.6,0.4-1.1
			s-0.1-0.8-0.4-1.1c-0.3-0.3-0.7-0.4-1.2-0.4h-1v3H575.1z"/>
		<path class="st0" d="M582.8,278.1c0.2,0.2,0.2,0.5,0.2,0.8c0,0.4-0.2,0.8-0.5,1c-0.3,0.2-0.8,0.3-1.5,0.3h-2.5v-4.9h2.4
			c0.6,0,1.1,0.1,1.4,0.3s0.5,0.5,0.5,0.9c0,0.2-0.1,0.5-0.2,0.6s-0.3,0.3-0.5,0.4C582.4,277.8,582.6,277.9,582.8,278.1z
			 M579.7,276.2v1.2h1.1c0.3,0,0.5,0,0.6-0.1s0.2-0.2,0.2-0.4s-0.1-0.3-0.2-0.4s-0.4-0.1-0.6-0.1H579.7z M581.7,279.2
			c0.2-0.1,0.2-0.3,0.2-0.5c0-0.4-0.3-0.6-0.9-0.6h-1.3v1.2h1.3C581.3,279.4,581.5,279.3,581.7,279.2z"/>
		<path class="st0" d="M547.9,288.5c-0.2-0.6-0.2-1.2-0.2-1.8s0.1-1.2,0.2-1.8s0.4-1.1,0.6-1.5h1c-0.3,0.5-0.5,1-0.6,1.6
			c-0.1,0.5-0.2,1.1-0.2,1.7s0.1,1.2,0.2,1.7c0.1,0.5,0.3,1.1,0.6,1.6h-1C548.3,289.6,548.1,289.1,547.9,288.5z"/>
		<path class="st0" d="M553.4,287.7v0.9h-3.7v-0.7l1.9-1.8c0.2-0.2,0.3-0.4,0.4-0.5c0.1-0.1,0.1-0.3,0.1-0.4c0-0.2-0.1-0.3-0.2-0.5
			c-0.1-0.1-0.3-0.2-0.6-0.2c-0.2,0-0.4,0-0.6,0.1c-0.2,0.1-0.3,0.2-0.4,0.4l-0.8-0.5c0.2-0.3,0.5-0.5,0.8-0.7s0.7-0.2,1.2-0.2
			c0.4,0,0.7,0.1,1,0.2c0.3,0.1,0.5,0.3,0.6,0.5c0.2,0.2,0.2,0.5,0.2,0.8c0,0.3-0.1,0.5-0.2,0.7c-0.1,0.2-0.3,0.5-0.7,0.8l-1.1,1.1
			H553.4z"/>
		<path class="st0" d="M554.7,288.4c-0.3-0.2-0.6-0.5-0.7-0.9c-0.2-0.4-0.3-0.8-0.3-1.4s0.1-1,0.3-1.4c0.2-0.4,0.4-0.7,0.7-0.9
			c0.3-0.2,0.7-0.3,1.1-0.3s0.8,0.1,1.1,0.3c0.3,0.2,0.6,0.5,0.7,0.9c0.2,0.4,0.3,0.8,0.3,1.4s-0.1,1-0.3,1.4
			c-0.2,0.4-0.4,0.7-0.7,0.9c-0.3,0.2-0.7,0.3-1.1,0.3S555,288.6,554.7,288.4z M556.5,287.4c0.2-0.3,0.3-0.7,0.3-1.2
			c0-0.5-0.1-0.9-0.3-1.2c-0.2-0.3-0.4-0.4-0.7-0.4c-0.3,0-0.5,0.1-0.7,0.4c-0.2,0.3-0.3,0.7-0.3,1.2c0,0.5,0.1,0.9,0.3,1.2
			c0.2,0.3,0.4,0.4,0.7,0.4C556.1,287.8,556.3,287.6,556.5,287.4z"/>
		<path class="st0" d="M560.1,283.7v4.9H559v-4h-1v-0.9H560.1z"/>
		<path class="st0" d="M564,285.7c0.3,0.1,0.5,0.3,0.6,0.5c0.1,0.2,0.2,0.5,0.2,0.8c0,0.3-0.1,0.6-0.2,0.9c-0.2,0.2-0.4,0.4-0.7,0.6
			s-0.6,0.2-0.9,0.2c-0.7,0-1.2-0.2-1.6-0.6c-0.4-0.4-0.6-1-0.6-1.8c0-0.6,0.1-1,0.3-1.4c0.2-0.4,0.5-0.7,0.9-0.9
			c0.4-0.2,0.8-0.3,1.3-0.3c0.3,0,0.5,0,0.8,0.1s0.4,0.1,0.6,0.2l-0.4,0.8c-0.2-0.2-0.5-0.2-0.9-0.2c-0.4,0-0.7,0.1-1,0.4
			c-0.2,0.2-0.4,0.6-0.4,1.1c0.3-0.3,0.7-0.4,1.2-0.4C563.5,285.6,563.8,285.6,564,285.7z M563.5,287.7c0.2-0.1,0.2-0.3,0.2-0.5
			c0-0.2-0.1-0.4-0.2-0.5c-0.2-0.1-0.4-0.2-0.6-0.2c-0.2,0-0.5,0.1-0.6,0.2c-0.2,0.1-0.2,0.3-0.2,0.5s0.1,0.4,0.2,0.5
			c0.2,0.1,0.4,0.2,0.6,0.2C563.2,287.9,563.4,287.8,563.5,287.7z"/>
		<path class="st0" d="M565.2,286.2h2v0.9h-2V286.2z"/>
		<path class="st0" d="M567.4,290c0.3-0.5,0.5-1,0.6-1.6s0.2-1.1,0.2-1.7s-0.1-1.2-0.2-1.7s-0.4-1.1-0.6-1.6h1
			c0.3,0.4,0.5,0.9,0.7,1.5s0.2,1.2,0.2,1.8s-0.1,1.2-0.2,1.8c-0.1,0.6-0.4,1-0.7,1.5H567.4z"/>
	</g>
</g>
</svg>
