<?xml version="1.0" encoding="utf-8"?>
<!-- Generator: Adobe Illustrator 23.1.1, SVG Export Plug-In . SVG Version: 6.00 Build 0)  -->
<svg version="1.1" id="Camada_1" xmlns="http://www.w3.org/2000/svg" xmlns:xlink="http://www.w3.org/1999/xlink" x="0px" y="0px"
	 viewBox="0 0 182.9 127.6" style="enable-background:new 0 0 182.9 127.6;" xml:space="preserve">
<style type="text/css">
	.st0{fill:#999999;}
	.st1{enable-background:new    ;}
	.st2{fill:#666666;}
	.st3{fill:#FFFFFF;}
	.st4{fill:none;stroke:#FFFFFF;stroke-miterlimit:10;}
	.st5{fill:#FF941C;}
	.st6{fill:#01AA2C;}
</style>
<image style="overflow:visible;" width="594" height="353" xlink:href="E4004A50FB7A099.jpg"  transform="matrix(0.24 0 0 0.24 21.84 24.4)">
</image>
<g id="Layer_1">
</g>
<path class="st0" d="M176.2,106.8H6.6V13.2h169.6L176.2,106.8L176.2,106.8z M7.6,105.8h167.6V14.2H7.6V105.8z"/>
<g class="st1">
	<path class="st2" d="M33.5,30v4.9h-0.7v-2.2H30v2.2h-0.7V30H30v2.1h2.8V30H33.5z"/>
	<path class="st2" d="M35.9,34.6c-0.4-0.2-0.7-0.5-0.9-0.9c-0.2-0.4-0.3-0.8-0.3-1.3c0-0.5,0.1-0.9,0.3-1.3c0.2-0.4,0.5-0.7,0.9-0.9
		c0.4-0.2,0.8-0.3,1.3-0.3c0.5,0,0.9,0.1,1.3,0.3c0.4,0.2,0.7,0.5,0.9,0.9c0.2,0.4,0.3,0.8,0.3,1.3c0,0.5-0.1,0.9-0.3,1.3
		c-0.2,0.4-0.5,0.7-0.9,0.9c-0.4,0.2-0.8,0.3-1.3,0.3C36.7,35,36.3,34.8,35.9,34.6z M38.2,34.1c0.3-0.2,0.5-0.4,0.7-0.7
		c0.2-0.3,0.2-0.6,0.2-1s-0.1-0.7-0.2-1c-0.2-0.3-0.4-0.5-0.7-0.7s-0.6-0.2-1-0.2s-0.7,0.1-1,0.2c-0.3,0.2-0.5,0.4-0.7,0.7
		c-0.2,0.3-0.2,0.6-0.2,1s0.1,0.7,0.2,1c0.2,0.3,0.4,0.5,0.7,0.7c0.3,0.2,0.6,0.2,1,0.2S37.9,34.2,38.2,34.1z"/>
	<path class="st2" d="M45.4,34.9l0-3.6l-1.8,3h-0.3l-1.8-3v3.5h-0.7V30h0.6l2,3.4l2-3.4h0.6l0,4.9H45.4z"/>
	<path class="st2" d="M51.1,34.3v0.6h-3.6V30H51v0.6h-2.8v1.5h2.5v0.6h-2.5v1.6H51.1z"/>
	<path class="st2" d="M56.5,30v4.9h-0.6L53,31.2v3.7h-0.7V30h0.6l2.9,3.7V30H56.5z"/>
	<path class="st2" d="M58.3,34.8c-0.3-0.1-0.6-0.3-0.8-0.4l0.3-0.5c0.2,0.2,0.4,0.3,0.7,0.4c0.3,0.1,0.6,0.2,0.9,0.2
		c0.4,0,0.7-0.1,0.9-0.2c0.2-0.1,0.3-0.3,0.3-0.5c0-0.2-0.1-0.3-0.2-0.4c-0.1-0.1-0.2-0.2-0.4-0.2c-0.2-0.1-0.4-0.1-0.7-0.2
		c-0.4-0.1-0.7-0.2-0.9-0.3c-0.2-0.1-0.4-0.2-0.6-0.4s-0.2-0.4-0.2-0.7c0-0.3,0.1-0.5,0.2-0.7s0.3-0.4,0.6-0.5
		c0.3-0.1,0.6-0.2,1-0.2c0.3,0,0.6,0,0.9,0.1c0.3,0.1,0.5,0.2,0.7,0.3l-0.2,0.6c-0.2-0.1-0.4-0.2-0.7-0.3c-0.2-0.1-0.5-0.1-0.7-0.1
		c-0.4,0-0.7,0.1-0.9,0.2c-0.2,0.1-0.3,0.3-0.3,0.6c0,0.2,0.1,0.3,0.2,0.4c0.1,0.1,0.3,0.2,0.4,0.2c0.2,0.1,0.4,0.1,0.7,0.2
		c0.4,0.1,0.7,0.2,0.9,0.3c0.2,0.1,0.4,0.2,0.6,0.4c0.2,0.2,0.2,0.4,0.2,0.7c0,0.3-0.1,0.5-0.2,0.7c-0.1,0.2-0.4,0.4-0.6,0.5
		c-0.3,0.1-0.6,0.2-1,0.2C59,35,58.6,34.9,58.3,34.8z"/>
</g>
<g class="st1">
	<path class="st2" d="M118.3,34.9l0-3.6l-1.8,3h-0.3l-1.8-3v3.5h-0.7V30h0.6l2,3.4l2-3.4h0.6l0,4.9H118.3z"/>
	<path class="st2" d="M120.9,34.4c-0.4-0.4-0.5-0.9-0.5-1.6V30h0.7v2.8c0,1,0.5,1.6,1.4,1.6c0.4,0,0.8-0.1,1-0.4
		c0.2-0.3,0.4-0.7,0.4-1.2V30h0.7v2.8c0,0.7-0.2,1.2-0.5,1.6c-0.4,0.4-0.9,0.6-1.5,0.6S121.3,34.8,120.9,34.4z"/>
	<path class="st2" d="M126,30h0.7v4.3h2.7v0.6H126V30z"/>
	<path class="st2" d="M134.4,30v4.9h-0.7v-2.2h-2.8v2.2h-0.7V30h0.7v2.1h2.8V30H134.4z"/>
	<path class="st2" d="M139.4,34.3v0.6h-3.6V30h3.5v0.6h-2.8v1.5h2.5v0.6h-2.5v1.6H139.4z"/>
	<path class="st2" d="M143.8,34.9l-1.1-1.5c-0.1,0-0.2,0-0.3,0h-1.2v1.5h-0.7V30h1.9c0.6,0,1.1,0.2,1.5,0.5c0.4,0.3,0.5,0.7,0.5,1.3
		c0,0.4-0.1,0.7-0.3,1c-0.2,0.3-0.5,0.5-0.8,0.6l1.2,1.6H143.8z M143.4,32.5c0.2-0.2,0.4-0.5,0.4-0.8c0-0.4-0.1-0.6-0.4-0.8
		c-0.2-0.2-0.6-0.3-1-0.3h-1.2v2.2h1.2C142.8,32.8,143.2,32.7,143.4,32.5z"/>
	<path class="st2" d="M149.2,34.3v0.6h-3.6V30h3.5v0.6h-2.8v1.5h2.5v0.6h-2.5v1.6H149.2z"/>
	<path class="st2" d="M150.7,34.8c-0.3-0.1-0.6-0.3-0.8-0.4l0.3-0.5c0.2,0.2,0.4,0.3,0.7,0.4c0.3,0.1,0.6,0.2,0.9,0.2
		c0.4,0,0.7-0.1,0.9-0.2c0.2-0.1,0.3-0.3,0.3-0.5c0-0.2-0.1-0.3-0.2-0.4c-0.1-0.1-0.2-0.2-0.4-0.2c-0.2-0.1-0.4-0.1-0.7-0.2
		c-0.4-0.1-0.7-0.2-0.9-0.3c-0.2-0.1-0.4-0.2-0.6-0.4c-0.2-0.2-0.2-0.4-0.2-0.7c0-0.3,0.1-0.5,0.2-0.7c0.1-0.2,0.3-0.4,0.6-0.5
		s0.6-0.2,1-0.2c0.3,0,0.6,0,0.9,0.1c0.3,0.1,0.5,0.2,0.7,0.3l-0.2,0.6c-0.2-0.1-0.4-0.2-0.7-0.3c-0.2-0.1-0.5-0.1-0.7-0.1
		c-0.4,0-0.7,0.1-0.9,0.2c-0.2,0.1-0.3,0.3-0.3,0.6c0,0.2,0.1,0.3,0.2,0.4c0.1,0.1,0.3,0.2,0.4,0.2c0.2,0.1,0.4,0.1,0.7,0.2
		c0.4,0.1,0.7,0.2,0.9,0.3c0.2,0.1,0.4,0.2,0.6,0.4c0.2,0.2,0.2,0.4,0.2,0.7c0,0.3-0.1,0.5-0.2,0.7c-0.1,0.2-0.4,0.4-0.6,0.5
		c-0.3,0.1-0.6,0.2-1,0.2C151.4,35,151,34.9,150.7,34.8z"/>
</g>
<g class="st1">
	<path class="st2" d="M4.1,112.5h1.3v0.6H4.1V112.5z"/>
	<path class="st2" d="M8,113.5v0.6H5.7v-0.5l1.2-1.1c0.1-0.1,0.2-0.2,0.3-0.3c0-0.1,0.1-0.2,0.1-0.3c0-0.1,0-0.2-0.1-0.3
		s-0.2-0.1-0.4-0.1c-0.1,0-0.3,0-0.4,0.1c-0.1,0.1-0.2,0.1-0.3,0.2l-0.5-0.3c0.1-0.2,0.3-0.3,0.5-0.4c0.2-0.1,0.5-0.2,0.7-0.2
		c0.2,0,0.4,0,0.6,0.1c0.2,0.1,0.3,0.2,0.4,0.3c0.1,0.1,0.1,0.3,0.1,0.5c0,0.2,0,0.3-0.1,0.5c-0.1,0.1-0.2,0.3-0.4,0.5l-0.7,0.7H8z"
		/>
	<path class="st2" d="M9.1,113.4c0.1,0.1,0.1,0.2,0.1,0.3c0,0.1,0,0.1,0,0.2c0,0.1,0,0.1-0.1,0.3l-0.3,0.6H8.4l0.2-0.7
		c-0.1,0-0.1-0.1-0.2-0.1s-0.1-0.1-0.1-0.2c0-0.1,0-0.2,0.1-0.3s0.2-0.1,0.3-0.1S9,113.3,9.1,113.4z"/>
	<path class="st2" d="M11.6,112.4c0.2,0.2,0.3,0.4,0.3,0.7c0,0.2,0,0.4-0.1,0.5c-0.1,0.2-0.2,0.3-0.4,0.4c-0.2,0.1-0.4,0.1-0.7,0.1
		c-0.2,0-0.4,0-0.7-0.1c-0.2-0.1-0.4-0.1-0.5-0.2l0.3-0.6c0.1,0.1,0.3,0.2,0.4,0.2c0.2,0,0.3,0.1,0.5,0.1c0.2,0,0.3,0,0.4-0.1
		s0.2-0.2,0.2-0.3c0-0.1-0.1-0.2-0.2-0.3c-0.1-0.1-0.3-0.1-0.6-0.1H9.7l0.2-1.8h1.9v0.6h-1.3l0,0.6h0.3
		C11.1,112.1,11.4,112.2,11.6,112.4z"/>
</g>
<g class="st1">
	<path class="st2" d="M38.2,112.5h1.3v0.6h-1.3V112.5z"/>
	<path class="st2" d="M41,110.9v3.2h-0.7v-2.6h-0.6v-0.6H41z"/>
	<path class="st2" d="M42.3,113.4c0.1,0.1,0.1,0.2,0.1,0.3c0,0.1,0,0.1,0,0.2c0,0.1,0,0.1-0.1,0.3l-0.3,0.6h-0.4l0.2-0.7
		c-0.1,0-0.1-0.1-0.2-0.1c0-0.1-0.1-0.1-0.1-0.2c0-0.1,0-0.2,0.1-0.3c0.1-0.1,0.2-0.1,0.3-0.1S42.2,113.3,42.3,113.4z"/>
	<path class="st2" d="M44.8,112.4c0.2,0.2,0.3,0.4,0.3,0.7c0,0.2,0,0.4-0.1,0.5c-0.1,0.2-0.2,0.3-0.4,0.4s-0.4,0.1-0.7,0.1
		c-0.2,0-0.4,0-0.7-0.1c-0.2-0.1-0.4-0.1-0.5-0.2l0.3-0.6c0.1,0.1,0.3,0.2,0.4,0.2c0.2,0,0.3,0.1,0.5,0.1c0.2,0,0.3,0,0.4-0.1
		c0.1-0.1,0.2-0.2,0.2-0.3c0-0.1-0.1-0.2-0.2-0.3c-0.1-0.1-0.3-0.1-0.6-0.1h-0.8l0.2-1.8h1.9v0.6h-1.3l0,0.6h0.3
		C44.3,112.1,44.6,112.2,44.8,112.4z"/>
</g>
<g class="st1">
	<path class="st2" d="M71.2,112.5h1.3v0.6h-1.3V112.5z"/>
	<path class="st2" d="M73.6,113.9c-0.2-0.1-0.4-0.3-0.5-0.6c-0.1-0.2-0.2-0.5-0.2-0.9s0.1-0.6,0.2-0.9c0.1-0.2,0.3-0.4,0.5-0.6
		s0.4-0.2,0.7-0.2s0.5,0.1,0.7,0.2s0.4,0.3,0.5,0.6c0.1,0.2,0.2,0.5,0.2,0.9s-0.1,0.6-0.2,0.9c-0.1,0.2-0.3,0.4-0.5,0.6
		s-0.4,0.2-0.7,0.2S73.8,114.1,73.6,113.9z M74.7,113.3c0.1-0.2,0.2-0.4,0.2-0.8s-0.1-0.6-0.2-0.8c-0.1-0.2-0.3-0.2-0.5-0.2
		c-0.2,0-0.3,0.1-0.4,0.2c-0.1,0.2-0.2,0.4-0.2,0.8s0.1,0.6,0.2,0.8c0.1,0.2,0.3,0.2,0.4,0.2C74.5,113.5,74.6,113.4,74.7,113.3z"/>
	<path class="st2" d="M76.6,113.4c0.1,0.1,0.1,0.2,0.1,0.3c0,0.1,0,0.1,0,0.2c0,0.1,0,0.1-0.1,0.3l-0.3,0.6h-0.4l0.2-0.7
		c-0.1,0-0.1-0.1-0.2-0.1c0-0.1-0.1-0.1-0.1-0.2c0-0.1,0-0.2,0.1-0.3c0.1-0.1,0.2-0.1,0.3-0.1S76.6,113.3,76.6,113.4z"/>
	<path class="st2" d="M79.2,112.4c0.2,0.2,0.3,0.4,0.3,0.7c0,0.2,0,0.4-0.1,0.5c-0.1,0.2-0.2,0.3-0.4,0.4s-0.4,0.1-0.7,0.1
		c-0.2,0-0.4,0-0.7-0.1c-0.2-0.1-0.4-0.1-0.5-0.2l0.3-0.6c0.1,0.1,0.3,0.2,0.4,0.2c0.2,0,0.3,0.1,0.5,0.1c0.2,0,0.3,0,0.4-0.1
		c0.1-0.1,0.2-0.2,0.2-0.3c0-0.1-0.1-0.2-0.2-0.3c-0.1-0.1-0.3-0.1-0.6-0.1h-0.8l0.2-1.8h1.9v0.6H78l0,0.6h0.3
		C78.6,112.1,78.9,112.2,79.2,112.4z"/>
</g>
<g class="st1">
	<path class="st2" d="M106.8,113.9c-0.2-0.1-0.4-0.3-0.5-0.6c-0.1-0.2-0.2-0.5-0.2-0.9s0.1-0.6,0.2-0.9c0.1-0.2,0.3-0.4,0.5-0.6
		s0.4-0.2,0.7-0.2c0.3,0,0.5,0.1,0.7,0.2s0.4,0.3,0.5,0.6c0.1,0.2,0.2,0.5,0.2,0.9s-0.1,0.6-0.2,0.9c-0.1,0.2-0.3,0.4-0.5,0.6
		s-0.4,0.2-0.7,0.2C107.3,114.1,107,114.1,106.8,113.9z M108,113.3c0.1-0.2,0.2-0.4,0.2-0.8s-0.1-0.6-0.2-0.8
		c-0.1-0.2-0.3-0.2-0.5-0.2c-0.2,0-0.3,0.1-0.4,0.2c-0.1,0.2-0.2,0.4-0.2,0.8s0.1,0.6,0.2,0.8s0.3,0.2,0.4,0.2
		C107.7,113.5,107.9,113.4,108,113.3z"/>
	<path class="st2" d="M109.9,113.4c0.1,0.1,0.1,0.2,0.1,0.3c0,0.1,0,0.1,0,0.2c0,0.1,0,0.1-0.1,0.3l-0.3,0.6h-0.4l0.2-0.7
		c-0.1,0-0.1-0.1-0.2-0.1c0-0.1-0.1-0.1-0.1-0.2c0-0.1,0-0.2,0.1-0.3c0.1-0.1,0.2-0.1,0.3-0.1S109.8,113.3,109.9,113.4z"/>
	<path class="st2" d="M112.4,112.4c0.2,0.2,0.3,0.4,0.3,0.7c0,0.2,0,0.4-0.1,0.5c-0.1,0.2-0.2,0.3-0.4,0.4s-0.4,0.1-0.7,0.1
		c-0.2,0-0.4,0-0.7-0.1c-0.2-0.1-0.4-0.1-0.5-0.2l0.3-0.6c0.1,0.1,0.3,0.2,0.4,0.2c0.2,0,0.3,0.1,0.5,0.1c0.2,0,0.3,0,0.4-0.1
		c0.1-0.1,0.2-0.2,0.2-0.3c0-0.1-0.1-0.2-0.2-0.3c-0.1-0.1-0.3-0.1-0.6-0.1h-0.8l0.2-1.8h1.9v0.6h-1.3l0,0.6h0.3
		C111.9,112.1,112.2,112.2,112.4,112.4z"/>
</g>
<g class="st1">
	<path class="st2" d="M141.4,110.9v3.2h-0.7v-2.6H140v-0.6H141.4z"/>
	<path class="st2" d="M142.7,113.4c0.1,0.1,0.1,0.2,0.1,0.3c0,0.1,0,0.1,0,0.2c0,0.1,0,0.1-0.1,0.3l-0.3,0.6H142l0.2-0.7
		c-0.1,0-0.1-0.1-0.2-0.1c0-0.1-0.1-0.1-0.1-0.2c0-0.1,0-0.2,0.1-0.3c0.1-0.1,0.2-0.1,0.3-0.1S142.6,113.3,142.7,113.4z"/>
	<path class="st2" d="M145.2,112.4c0.2,0.2,0.3,0.4,0.3,0.7c0,0.2,0,0.4-0.1,0.5c-0.1,0.2-0.2,0.3-0.4,0.4s-0.4,0.1-0.7,0.1
		c-0.2,0-0.4,0-0.7-0.1c-0.2-0.1-0.4-0.1-0.5-0.2l0.3-0.6c0.1,0.1,0.3,0.2,0.4,0.2c0.2,0,0.3,0.1,0.5,0.1c0.2,0,0.3,0,0.4-0.1
		c0.1-0.1,0.2-0.2,0.2-0.3c0-0.1-0.1-0.2-0.2-0.3c-0.1-0.1-0.3-0.1-0.6-0.1h-0.8l0.2-1.8h1.9v0.6H144l0,0.6h0.3
		C144.6,112.1,145,112.2,145.2,112.4z"/>
</g>
<g class="st1">
	<path class="st2" d="M175.5,113.5v0.6h-2.4v-0.5l1.2-1.1c0.1-0.1,0.2-0.2,0.3-0.3s0.1-0.2,0.1-0.3c0-0.1,0-0.2-0.1-0.3
		c-0.1-0.1-0.2-0.1-0.4-0.1c-0.1,0-0.3,0-0.4,0.1c-0.1,0.1-0.2,0.1-0.3,0.2l-0.5-0.3c0.1-0.2,0.3-0.3,0.5-0.4
		c0.2-0.1,0.5-0.2,0.7-0.2c0.2,0,0.4,0,0.6,0.1s0.3,0.2,0.4,0.3c0.1,0.1,0.1,0.3,0.1,0.5c0,0.2,0,0.3-0.1,0.5
		c-0.1,0.1-0.2,0.3-0.4,0.5l-0.7,0.7H175.5z"/>
	<path class="st2" d="M176.6,113.4c0.1,0.1,0.1,0.2,0.1,0.3c0,0.1,0,0.1,0,0.2c0,0.1,0,0.1-0.1,0.3l-0.3,0.6h-0.4l0.2-0.7
		c-0.1,0-0.1-0.1-0.2-0.1c0-0.1-0.1-0.1-0.1-0.2c0-0.1,0-0.2,0.1-0.3c0.1-0.1,0.2-0.1,0.3-0.1S176.5,113.3,176.6,113.4z"/>
	<path class="st2" d="M179.1,112.4c0.2,0.2,0.3,0.4,0.3,0.7c0,0.2,0,0.4-0.1,0.5s-0.2,0.3-0.4,0.4c-0.2,0.1-0.4,0.1-0.7,0.1
		c-0.2,0-0.4,0-0.7-0.1c-0.2-0.1-0.4-0.1-0.5-0.2l0.3-0.6c0.1,0.1,0.3,0.2,0.4,0.2c0.2,0,0.3,0.1,0.5,0.1c0.2,0,0.3,0,0.4-0.1
		c0.1-0.1,0.2-0.2,0.2-0.3c0-0.1-0.1-0.2-0.2-0.3c-0.1-0.1-0.3-0.1-0.6-0.1h-0.8l0.2-1.8h1.9v0.6h-1.3l0,0.6h0.3
		C178.6,112.1,178.9,112.2,179.1,112.4z"/>
</g>
<g class="st1">
	<path class="st3" d="M85.5,14.5c0.2,0.3,0.4,0.7,0.4,1.2c0,0.4-0.1,0.7-0.2,0.9c-0.1,0.3-0.3,0.4-0.5,0.6c-0.2,0.1-0.5,0.2-0.8,0.2
		c-0.2,0-0.3,0-0.5-0.1c-0.1,0-0.3-0.1-0.4-0.2l0.2-0.4c0.2,0.1,0.4,0.2,0.6,0.2c0.3,0,0.5-0.1,0.7-0.3c0.2-0.2,0.3-0.5,0.3-0.8v0
		c-0.1,0.1-0.2,0.2-0.4,0.2c-0.1,0.1-0.3,0.1-0.5,0.1c-0.2,0-0.4,0-0.6-0.1c-0.2-0.1-0.3-0.2-0.4-0.3c-0.1-0.1-0.1-0.3-0.1-0.5
		c0-0.2,0.1-0.4,0.2-0.5c0.1-0.2,0.2-0.3,0.4-0.4c0.2-0.1,0.4-0.1,0.6-0.1C84.9,14.1,85.2,14.2,85.5,14.5z M85,15.5
		c0.1-0.1,0.2-0.2,0.2-0.4c0-0.2-0.1-0.3-0.2-0.4c-0.1-0.1-0.3-0.2-0.5-0.2c-0.2,0-0.3,0-0.4,0.1c-0.1,0.1-0.2,0.2-0.2,0.4
		c0,0.2,0.1,0.3,0.2,0.4c0.1,0.1,0.3,0.1,0.5,0.1C84.7,15.6,84.8,15.6,85,15.5z"/>
	<path class="st3" d="M86.9,17.1c-0.2-0.1-0.4-0.3-0.5-0.6c-0.1-0.2-0.2-0.5-0.2-0.9s0.1-0.6,0.2-0.9c0.1-0.2,0.3-0.4,0.5-0.6
		c0.2-0.1,0.4-0.2,0.7-0.2s0.5,0.1,0.7,0.2c0.2,0.1,0.4,0.3,0.5,0.6c0.1,0.2,0.2,0.5,0.2,0.9s-0.1,0.6-0.2,0.9
		c-0.1,0.2-0.3,0.4-0.5,0.6c-0.2,0.1-0.4,0.2-0.7,0.2S87.1,17.3,86.9,17.1z M88.1,16.5c0.1-0.2,0.2-0.5,0.2-0.8s-0.1-0.6-0.2-0.8
		c-0.1-0.2-0.3-0.3-0.5-0.3c-0.2,0-0.4,0.1-0.5,0.3c-0.1,0.2-0.2,0.5-0.2,0.8s0.1,0.6,0.2,0.8c0.1,0.2,0.3,0.3,0.5,0.3
		C87.8,16.8,87.9,16.7,88.1,16.5z"/>
</g>
<g class="st1">
	<path class="st4" d="M85.5,14.5c0.2,0.3,0.4,0.7,0.4,1.2c0,0.4-0.1,0.7-0.2,0.9c-0.1,0.3-0.3,0.4-0.5,0.6c-0.2,0.1-0.5,0.2-0.8,0.2
		c-0.2,0-0.3,0-0.5-0.1c-0.1,0-0.3-0.1-0.4-0.2l0.2-0.4c0.2,0.1,0.4,0.2,0.6,0.2c0.3,0,0.5-0.1,0.7-0.3c0.2-0.2,0.3-0.5,0.3-0.8v0
		c-0.1,0.1-0.2,0.2-0.4,0.2c-0.1,0.1-0.3,0.1-0.5,0.1c-0.2,0-0.4,0-0.6-0.1c-0.2-0.1-0.3-0.2-0.4-0.3c-0.1-0.1-0.1-0.3-0.1-0.5
		c0-0.2,0.1-0.4,0.2-0.5c0.1-0.2,0.2-0.3,0.4-0.4c0.2-0.1,0.4-0.1,0.6-0.1C84.9,14.1,85.2,14.2,85.5,14.5z M85,15.5
		c0.1-0.1,0.2-0.2,0.2-0.4c0-0.2-0.1-0.3-0.2-0.4c-0.1-0.1-0.3-0.2-0.5-0.2c-0.2,0-0.3,0-0.4,0.1c-0.1,0.1-0.2,0.2-0.2,0.4
		c0,0.2,0.1,0.3,0.2,0.4c0.1,0.1,0.3,0.1,0.5,0.1C84.7,15.6,84.8,15.6,85,15.5z"/>
	<path class="st4" d="M86.9,17.1c-0.2-0.1-0.4-0.3-0.5-0.6c-0.1-0.2-0.2-0.5-0.2-0.9s0.1-0.6,0.2-0.9c0.1-0.2,0.3-0.4,0.5-0.6
		c0.2-0.1,0.4-0.2,0.7-0.2s0.5,0.1,0.7,0.2c0.2,0.1,0.4,0.3,0.5,0.6c0.1,0.2,0.2,0.5,0.2,0.9s-0.1,0.6-0.2,0.9
		c-0.1,0.2-0.3,0.4-0.5,0.6c-0.2,0.1-0.4,0.2-0.7,0.2S87.1,17.3,86.9,17.1z M88.1,16.5c0.1-0.2,0.2-0.5,0.2-0.8s-0.1-0.6-0.2-0.8
		c-0.1-0.2-0.3-0.3-0.5-0.3c-0.2,0-0.4,0.1-0.5,0.3c-0.1,0.2-0.2,0.5-0.2,0.8s0.1,0.6,0.2,0.8c0.1,0.2,0.3,0.3,0.5,0.3
		C87.8,16.8,87.9,16.7,88.1,16.5z"/>
</g>
<g class="st1">
	<path class="st3" d="M85.8,25.9c0.1,0.1,0.1,0.3,0.1,0.4c0,0.2-0.1,0.4-0.2,0.5c-0.1,0.1-0.3,0.3-0.5,0.3c-0.2,0.1-0.4,0.1-0.7,0.1
		s-0.5,0-0.7-0.1c-0.2-0.1-0.3-0.2-0.4-0.3c-0.1-0.1-0.2-0.3-0.2-0.5c0-0.2,0-0.3,0.1-0.4c0.1-0.1,0.2-0.2,0.4-0.3
		c-0.1-0.1-0.2-0.2-0.3-0.3c-0.1-0.1-0.1-0.2-0.1-0.4c0-0.2,0-0.3,0.1-0.5c0.1-0.1,0.2-0.2,0.4-0.3c0.2-0.1,0.4-0.1,0.6-0.1
		c0.2,0,0.4,0,0.6,0.1c0.2,0.1,0.3,0.2,0.4,0.3c0.1,0.1,0.1,0.3,0.1,0.5c0,0.1,0,0.3-0.1,0.4c-0.1,0.1-0.2,0.2-0.3,0.3
		C85.6,25.7,85.7,25.8,85.8,25.9z M85.2,26.7c0.1-0.1,0.2-0.2,0.2-0.4c0-0.2-0.1-0.3-0.2-0.4c-0.1-0.1-0.3-0.1-0.5-0.1
		s-0.4,0-0.5,0.1S84,26.2,84,26.4c0,0.2,0.1,0.3,0.2,0.4s0.3,0.1,0.5,0.1S85,26.8,85.2,26.7z M84.2,24.7c-0.1,0.1-0.2,0.2-0.2,0.3
		c0,0.1,0.1,0.2,0.2,0.3c0.1,0.1,0.3,0.1,0.4,0.1c0.2,0,0.3,0,0.4-0.1c0.1-0.1,0.2-0.2,0.2-0.3c0-0.1-0.1-0.2-0.2-0.3
		c-0.1-0.1-0.3-0.1-0.4-0.1S84.3,24.6,84.2,24.7z"/>
	<path class="st3" d="M87,27.1c-0.2-0.1-0.4-0.3-0.5-0.6c-0.1-0.2-0.2-0.5-0.2-0.9s0.1-0.6,0.2-0.9c0.1-0.2,0.3-0.4,0.5-0.6
		c0.2-0.1,0.4-0.2,0.7-0.2s0.5,0.1,0.7,0.2c0.2,0.1,0.4,0.3,0.5,0.6c0.1,0.2,0.2,0.5,0.2,0.9s-0.1,0.6-0.2,0.9
		c-0.1,0.2-0.3,0.4-0.5,0.6c-0.2,0.1-0.4,0.2-0.7,0.2S87.2,27.3,87,27.1z M88.2,26.5c0.1-0.2,0.2-0.5,0.2-0.8s-0.1-0.6-0.2-0.8
		c-0.1-0.2-0.3-0.3-0.5-0.3c-0.2,0-0.4,0.1-0.5,0.3c-0.1,0.2-0.2,0.5-0.2,0.8s0.1,0.6,0.2,0.8c0.1,0.2,0.3,0.3,0.5,0.3
		C87.9,26.8,88,26.7,88.2,26.5z"/>
</g>
<g class="st1">
	<path class="st4" d="M85.8,25.9c0.1,0.1,0.1,0.3,0.1,0.4c0,0.2-0.1,0.4-0.2,0.5c-0.1,0.1-0.3,0.3-0.5,0.3c-0.2,0.1-0.4,0.1-0.7,0.1
		s-0.5,0-0.7-0.1c-0.2-0.1-0.3-0.2-0.4-0.3c-0.1-0.1-0.2-0.3-0.2-0.5c0-0.2,0-0.3,0.1-0.4c0.1-0.1,0.2-0.2,0.4-0.3
		c-0.1-0.1-0.2-0.2-0.3-0.3c-0.1-0.1-0.1-0.2-0.1-0.4c0-0.2,0-0.3,0.1-0.5c0.1-0.1,0.2-0.2,0.4-0.3c0.2-0.1,0.4-0.1,0.6-0.1
		c0.2,0,0.4,0,0.6,0.1c0.2,0.1,0.3,0.2,0.4,0.3c0.1,0.1,0.1,0.3,0.1,0.5c0,0.1,0,0.3-0.1,0.4c-0.1,0.1-0.2,0.2-0.3,0.3
		C85.6,25.7,85.7,25.8,85.8,25.9z M85.2,26.7c0.1-0.1,0.2-0.2,0.2-0.4c0-0.2-0.1-0.3-0.2-0.4c-0.1-0.1-0.3-0.1-0.5-0.1
		s-0.4,0-0.5,0.1S84,26.2,84,26.4c0,0.2,0.1,0.3,0.2,0.4s0.3,0.1,0.5,0.1S85,26.8,85.2,26.7z M84.2,24.7c-0.1,0.1-0.2,0.2-0.2,0.3
		c0,0.1,0.1,0.2,0.2,0.3c0.1,0.1,0.3,0.1,0.4,0.1c0.2,0,0.3,0,0.4-0.1c0.1-0.1,0.2-0.2,0.2-0.3c0-0.1-0.1-0.2-0.2-0.3
		c-0.1-0.1-0.3-0.1-0.4-0.1S84.3,24.6,84.2,24.7z"/>
	<path class="st4" d="M87,27.1c-0.2-0.1-0.4-0.3-0.5-0.6c-0.1-0.2-0.2-0.5-0.2-0.9s0.1-0.6,0.2-0.9c0.1-0.2,0.3-0.4,0.5-0.6
		c0.2-0.1,0.4-0.2,0.7-0.2s0.5,0.1,0.7,0.2c0.2,0.1,0.4,0.3,0.5,0.6c0.1,0.2,0.2,0.5,0.2,0.9s-0.1,0.6-0.2,0.9
		c-0.1,0.2-0.3,0.4-0.5,0.6c-0.2,0.1-0.4,0.2-0.7,0.2S87.2,27.3,87,27.1z M88.2,26.5c0.1-0.2,0.2-0.5,0.2-0.8s-0.1-0.6-0.2-0.8
		c-0.1-0.2-0.3-0.3-0.5-0.3c-0.2,0-0.4,0.1-0.5,0.3c-0.1,0.2-0.2,0.5-0.2,0.8s0.1,0.6,0.2,0.8c0.1,0.2,0.3,0.3,0.5,0.3
		C87.9,26.8,88,26.7,88.2,26.5z"/>
</g>
<g class="st1">
	<path class="st3" d="M85.8,34.1v0.4l-1.2,2.8h-0.6l1.2-2.7h-1.2v0.5h-0.5v-1H85.8z"/>
	<path class="st3" d="M86.7,37.1c-0.2-0.1-0.4-0.3-0.5-0.6C86.1,36.3,86,36,86,35.7s0.1-0.6,0.2-0.9c0.1-0.2,0.3-0.4,0.5-0.6
		c0.2-0.1,0.4-0.2,0.7-0.2s0.5,0.1,0.7,0.2c0.2,0.1,0.4,0.3,0.5,0.6c0.1,0.2,0.2,0.5,0.2,0.9s-0.1,0.6-0.2,0.9
		c-0.1,0.2-0.3,0.4-0.5,0.6c-0.2,0.1-0.4,0.2-0.7,0.2S86.9,37.3,86.7,37.1z M87.9,36.5c0.1-0.2,0.2-0.5,0.2-0.8s-0.1-0.6-0.2-0.8
		c-0.1-0.2-0.3-0.3-0.5-0.3c-0.2,0-0.4,0.1-0.5,0.3c-0.1,0.2-0.2,0.5-0.2,0.8s0.1,0.6,0.2,0.8c0.1,0.2,0.3,0.3,0.5,0.3
		C87.6,36.8,87.8,36.7,87.9,36.5z"/>
</g>
<g class="st1">
	<path class="st4" d="M85.8,34.1v0.4l-1.2,2.8h-0.6l1.2-2.7h-1.2v0.5h-0.5v-1H85.8z"/>
	<path class="st4" d="M86.7,37.1c-0.2-0.1-0.4-0.3-0.5-0.6C86.1,36.3,86,36,86,35.7s0.1-0.6,0.2-0.9c0.1-0.2,0.3-0.4,0.5-0.6
		c0.2-0.1,0.4-0.2,0.7-0.2s0.5,0.1,0.7,0.2c0.2,0.1,0.4,0.3,0.5,0.6c0.1,0.2,0.2,0.5,0.2,0.9s-0.1,0.6-0.2,0.9
		c-0.1,0.2-0.3,0.4-0.5,0.6c-0.2,0.1-0.4,0.2-0.7,0.2S86.9,37.3,86.7,37.1z M87.9,36.5c0.1-0.2,0.2-0.5,0.2-0.8s-0.1-0.6-0.2-0.8
		c-0.1-0.2-0.3-0.3-0.5-0.3c-0.2,0-0.4,0.1-0.5,0.3c-0.1,0.2-0.2,0.5-0.2,0.8s0.1,0.6,0.2,0.8c0.1,0.2,0.3,0.3,0.5,0.3
		C87.6,36.8,87.8,36.7,87.9,36.5z"/>
</g>
<g class="st1">
	<path class="st3" d="M85.4,45.5c0.2,0.1,0.3,0.2,0.4,0.3c0.1,0.1,0.1,0.3,0.1,0.5c0,0.2-0.1,0.4-0.2,0.5c-0.1,0.2-0.2,0.3-0.4,0.4
		c-0.2,0.1-0.4,0.1-0.6,0.1c-0.4,0-0.8-0.1-1-0.4c-0.2-0.3-0.4-0.7-0.4-1.2c0-0.4,0.1-0.7,0.2-0.9c0.1-0.3,0.3-0.4,0.5-0.6
		c0.2-0.1,0.5-0.2,0.8-0.2c0.2,0,0.3,0,0.5,0.1s0.3,0.1,0.4,0.2l-0.2,0.4c-0.2-0.1-0.4-0.2-0.6-0.2c-0.3,0-0.5,0.1-0.7,0.3
		C84.1,45,84,45.3,84,45.7v0c0.1-0.1,0.2-0.2,0.4-0.2c0.1-0.1,0.3-0.1,0.5-0.1C85,45.3,85.2,45.4,85.4,45.5z M85.2,46.7
		c0.1-0.1,0.2-0.2,0.2-0.4c0-0.2-0.1-0.3-0.2-0.4c-0.1-0.1-0.3-0.1-0.5-0.1c-0.2,0-0.3,0.1-0.5,0.2c-0.1,0.1-0.2,0.2-0.2,0.4
		c0,0.2,0.1,0.3,0.2,0.4c0.1,0.1,0.3,0.2,0.5,0.2C84.9,46.9,85.1,46.8,85.2,46.7z"/>
	<path class="st3" d="M86.9,47.1c-0.2-0.1-0.4-0.3-0.5-0.6c-0.1-0.2-0.2-0.5-0.2-0.9s0.1-0.6,0.2-0.9c0.1-0.2,0.3-0.4,0.5-0.6
		c0.2-0.1,0.4-0.2,0.7-0.2s0.5,0.1,0.7,0.2c0.2,0.1,0.4,0.3,0.5,0.6c0.1,0.2,0.2,0.5,0.2,0.9s-0.1,0.6-0.2,0.9
		c-0.1,0.2-0.3,0.4-0.5,0.6c-0.2,0.1-0.4,0.2-0.7,0.2S87.1,47.3,86.9,47.1z M88.1,46.5c0.1-0.2,0.2-0.5,0.2-0.8s-0.1-0.6-0.2-0.8
		c-0.1-0.2-0.3-0.3-0.5-0.3c-0.2,0-0.4,0.1-0.5,0.3c-0.1,0.2-0.2,0.5-0.2,0.8s0.1,0.6,0.2,0.8c0.1,0.2,0.3,0.3,0.5,0.3
		C87.8,46.8,87.9,46.7,88.1,46.5z"/>
</g>
<g class="st1">
	<path class="st4" d="M85.4,45.5c0.2,0.1,0.3,0.2,0.4,0.3c0.1,0.1,0.1,0.3,0.1,0.5c0,0.2-0.1,0.4-0.2,0.5c-0.1,0.2-0.2,0.3-0.4,0.4
		c-0.2,0.1-0.4,0.1-0.6,0.1c-0.4,0-0.8-0.1-1-0.4c-0.2-0.3-0.4-0.7-0.4-1.2c0-0.4,0.1-0.7,0.2-0.9c0.1-0.3,0.3-0.4,0.5-0.6
		c0.2-0.1,0.5-0.2,0.8-0.2c0.2,0,0.3,0,0.5,0.1s0.3,0.1,0.4,0.2l-0.2,0.4c-0.2-0.1-0.4-0.2-0.6-0.2c-0.3,0-0.5,0.1-0.7,0.3
		C84.1,45,84,45.3,84,45.7v0c0.1-0.1,0.2-0.2,0.4-0.2c0.1-0.1,0.3-0.1,0.5-0.1C85,45.3,85.2,45.4,85.4,45.5z M85.2,46.7
		c0.1-0.1,0.2-0.2,0.2-0.4c0-0.2-0.1-0.3-0.2-0.4c-0.1-0.1-0.3-0.1-0.5-0.1c-0.2,0-0.3,0.1-0.5,0.2c-0.1,0.1-0.2,0.2-0.2,0.4
		c0,0.2,0.1,0.3,0.2,0.4c0.1,0.1,0.3,0.2,0.5,0.2C84.9,46.9,85.1,46.8,85.2,46.7z"/>
	<path class="st4" d="M86.9,47.1c-0.2-0.1-0.4-0.3-0.5-0.6c-0.1-0.2-0.2-0.5-0.2-0.9s0.1-0.6,0.2-0.9c0.1-0.2,0.3-0.4,0.5-0.6
		c0.2-0.1,0.4-0.2,0.7-0.2s0.5,0.1,0.7,0.2c0.2,0.1,0.4,0.3,0.5,0.6c0.1,0.2,0.2,0.5,0.2,0.9s-0.1,0.6-0.2,0.9
		c-0.1,0.2-0.3,0.4-0.5,0.6c-0.2,0.1-0.4,0.2-0.7,0.2S87.1,47.3,86.9,47.1z M88.1,46.5c0.1-0.2,0.2-0.5,0.2-0.8s-0.1-0.6-0.2-0.8
		c-0.1-0.2-0.3-0.3-0.5-0.3c-0.2,0-0.4,0.1-0.5,0.3c-0.1,0.2-0.2,0.5-0.2,0.8s0.1,0.6,0.2,0.8c0.1,0.2,0.3,0.3,0.5,0.3
		C87.8,46.8,87.9,46.7,88.1,46.5z"/>
</g>
<g class="st1">
	<path class="st3" d="M85.4,55.6c0.2,0.2,0.3,0.4,0.3,0.7c0,0.2,0,0.4-0.1,0.5c-0.1,0.2-0.2,0.3-0.4,0.4c-0.2,0.1-0.4,0.1-0.7,0.1
		c-0.2,0-0.4,0-0.7-0.1s-0.4-0.2-0.5-0.3l0.2-0.5c0.1,0.1,0.3,0.2,0.4,0.2c0.2,0.1,0.3,0.1,0.5,0.1c0.2,0,0.4,0,0.5-0.1
		s0.2-0.2,0.2-0.4c0-0.2-0.1-0.3-0.2-0.4c-0.1-0.1-0.3-0.1-0.7-0.1h-0.8l0.2-1.7h1.8v0.5h-1.4l-0.1,0.7h0.3
		C84.8,55.4,85.1,55.4,85.4,55.6z"/>
	<path class="st3" d="M86.7,57.1c-0.2-0.1-0.4-0.3-0.5-0.6C86.1,56.3,86,56,86,55.7s0.1-0.6,0.2-0.9c0.1-0.2,0.3-0.4,0.5-0.6
		c0.2-0.1,0.4-0.2,0.7-0.2s0.5,0.1,0.7,0.2c0.2,0.1,0.4,0.3,0.5,0.6c0.1,0.2,0.2,0.5,0.2,0.9s-0.1,0.6-0.2,0.9
		c-0.1,0.2-0.3,0.4-0.5,0.6c-0.2,0.1-0.4,0.2-0.7,0.2S86.9,57.3,86.7,57.1z M87.9,56.5c0.1-0.2,0.2-0.5,0.2-0.8s-0.1-0.6-0.2-0.8
		c-0.1-0.2-0.3-0.3-0.5-0.3c-0.2,0-0.4,0.1-0.5,0.3c-0.1,0.2-0.2,0.5-0.2,0.8s0.1,0.6,0.2,0.8c0.1,0.2,0.3,0.3,0.5,0.3
		C87.6,56.8,87.7,56.7,87.9,56.5z"/>
</g>
<g class="st1">
	<path class="st4" d="M85.4,55.6c0.2,0.2,0.3,0.4,0.3,0.7c0,0.2,0,0.4-0.1,0.5c-0.1,0.2-0.2,0.3-0.4,0.4c-0.2,0.1-0.4,0.1-0.7,0.1
		c-0.2,0-0.4,0-0.7-0.1s-0.4-0.2-0.5-0.3l0.2-0.5c0.1,0.1,0.3,0.2,0.4,0.2c0.2,0.1,0.3,0.1,0.5,0.1c0.2,0,0.4,0,0.5-0.1
		s0.2-0.2,0.2-0.4c0-0.2-0.1-0.3-0.2-0.4c-0.1-0.1-0.3-0.1-0.7-0.1h-0.8l0.2-1.7h1.8v0.5h-1.4l-0.1,0.7h0.3
		C84.8,55.4,85.1,55.4,85.4,55.6z"/>
	<path class="st4" d="M86.7,57.1c-0.2-0.1-0.4-0.3-0.5-0.6C86.1,56.3,86,56,86,55.7s0.1-0.6,0.2-0.9c0.1-0.2,0.3-0.4,0.5-0.6
		c0.2-0.1,0.4-0.2,0.7-0.2s0.5,0.1,0.7,0.2c0.2,0.1,0.4,0.3,0.5,0.6c0.1,0.2,0.2,0.5,0.2,0.9s-0.1,0.6-0.2,0.9
		c-0.1,0.2-0.3,0.4-0.5,0.6c-0.2,0.1-0.4,0.2-0.7,0.2S86.9,57.3,86.7,57.1z M87.9,56.5c0.1-0.2,0.2-0.5,0.2-0.8s-0.1-0.6-0.2-0.8
		c-0.1-0.2-0.3-0.3-0.5-0.3c-0.2,0-0.4,0.1-0.5,0.3c-0.1,0.2-0.2,0.5-0.2,0.8s0.1,0.6,0.2,0.8c0.1,0.2,0.3,0.3,0.5,0.3
		C87.6,56.8,87.7,56.7,87.9,56.5z"/>
</g>
<g class="st1">
	<path class="st3" d="M86.2,66.6h-0.6v0.7h-0.6v-0.7h-1.7v-0.4l1.6-2h0.6l-1.5,1.9h1v-0.6h0.5v0.6h0.6V66.6z"/>
	<path class="st3" d="M87.1,67.1c-0.2-0.1-0.4-0.3-0.5-0.6c-0.1-0.2-0.2-0.5-0.2-0.9s0.1-0.6,0.2-0.9c0.1-0.2,0.3-0.4,0.5-0.6
		c0.2-0.1,0.4-0.2,0.7-0.2s0.5,0.1,0.7,0.2c0.2,0.1,0.4,0.3,0.5,0.6c0.1,0.2,0.2,0.5,0.2,0.9s-0.1,0.6-0.2,0.9
		c-0.1,0.2-0.3,0.4-0.5,0.6c-0.2,0.1-0.4,0.2-0.7,0.2S87.3,67.3,87.1,67.1z M88.3,66.5c0.1-0.2,0.2-0.5,0.2-0.8s-0.1-0.6-0.2-0.8
		c-0.1-0.2-0.3-0.3-0.5-0.3c-0.2,0-0.4,0.1-0.5,0.3c-0.1,0.2-0.2,0.5-0.2,0.8s0.1,0.6,0.2,0.8c0.1,0.2,0.3,0.3,0.5,0.3
		C88,66.8,88.2,66.7,88.3,66.5z"/>
</g>
<g class="st1">
	<path class="st4" d="M86.2,66.6h-0.6v0.7h-0.6v-0.7h-1.7v-0.4l1.6-2h0.6l-1.5,1.9h1v-0.6h0.5v0.6h0.6V66.6z"/>
	<path class="st4" d="M87.1,67.1c-0.2-0.1-0.4-0.3-0.5-0.6c-0.1-0.2-0.2-0.5-0.2-0.9s0.1-0.6,0.2-0.9c0.1-0.2,0.3-0.4,0.5-0.6
		c0.2-0.1,0.4-0.2,0.7-0.2s0.5,0.1,0.7,0.2c0.2,0.1,0.4,0.3,0.5,0.6c0.1,0.2,0.2,0.5,0.2,0.9s-0.1,0.6-0.2,0.9
		c-0.1,0.2-0.3,0.4-0.5,0.6c-0.2,0.1-0.4,0.2-0.7,0.2S87.3,67.3,87.1,67.1z M88.3,66.5c0.1-0.2,0.2-0.5,0.2-0.8s-0.1-0.6-0.2-0.8
		c-0.1-0.2-0.3-0.3-0.5-0.3c-0.2,0-0.4,0.1-0.5,0.3c-0.1,0.2-0.2,0.5-0.2,0.8s0.1,0.6,0.2,0.8c0.1,0.2,0.3,0.3,0.5,0.3
		C88,66.8,88.2,66.7,88.3,66.5z"/>
</g>
<g class="st1">
	<path class="st3" d="M85.4,75.7c0.2,0.2,0.2,0.4,0.2,0.6c0,0.2,0,0.3-0.1,0.5c-0.1,0.2-0.2,0.3-0.4,0.4c-0.2,0.1-0.4,0.1-0.7,0.1
		c-0.2,0-0.4,0-0.7-0.1s-0.4-0.2-0.5-0.3l0.3-0.5c0.1,0.1,0.3,0.2,0.4,0.2c0.2,0.1,0.3,0.1,0.5,0.1c0.2,0,0.4,0,0.5-0.1
		c0.1-0.1,0.2-0.2,0.2-0.3c0-0.1-0.1-0.3-0.2-0.3c-0.1-0.1-0.3-0.1-0.5-0.1h-0.3v-0.4l0.7-0.9h-1.4v-0.5h2.1v0.4l-0.8,0.9
		C85,75.5,85.2,75.6,85.4,75.7z"/>
	<path class="st3" d="M86.6,77.1c-0.2-0.1-0.4-0.3-0.5-0.6c-0.1-0.2-0.2-0.5-0.2-0.9s0.1-0.6,0.2-0.9s0.3-0.4,0.5-0.6
		c0.2-0.1,0.4-0.2,0.7-0.2s0.5,0.1,0.7,0.2c0.2,0.1,0.4,0.3,0.5,0.6s0.2,0.5,0.2,0.9s-0.1,0.6-0.2,0.9c-0.1,0.2-0.3,0.4-0.5,0.6
		c-0.2,0.1-0.4,0.2-0.7,0.2S86.8,77.3,86.6,77.1z M87.9,76.5c0.1-0.2,0.2-0.5,0.2-0.8s-0.1-0.6-0.2-0.8c-0.1-0.2-0.3-0.3-0.5-0.3
		c-0.2,0-0.4,0.1-0.5,0.3c-0.1,0.2-0.2,0.5-0.2,0.8s0.1,0.6,0.2,0.8c0.1,0.2,0.3,0.3,0.5,0.3C87.5,76.8,87.7,76.7,87.9,76.5z"/>
</g>
<g class="st1">
	<path class="st4" d="M85.4,75.7c0.2,0.2,0.2,0.4,0.2,0.6c0,0.2,0,0.3-0.1,0.5c-0.1,0.2-0.2,0.3-0.4,0.4c-0.2,0.1-0.4,0.1-0.7,0.1
		c-0.2,0-0.4,0-0.7-0.1s-0.4-0.2-0.5-0.3l0.3-0.5c0.1,0.1,0.3,0.2,0.4,0.2c0.2,0.1,0.3,0.1,0.5,0.1c0.2,0,0.4,0,0.5-0.1
		c0.1-0.1,0.2-0.2,0.2-0.3c0-0.1-0.1-0.3-0.2-0.3c-0.1-0.1-0.3-0.1-0.5-0.1h-0.3v-0.4l0.7-0.9h-1.4v-0.5h2.1v0.4l-0.8,0.9
		C85,75.5,85.2,75.6,85.4,75.7z"/>
	<path class="st4" d="M86.6,77.1c-0.2-0.1-0.4-0.3-0.5-0.6c-0.1-0.2-0.2-0.5-0.2-0.9s0.1-0.6,0.2-0.9s0.3-0.4,0.5-0.6
		c0.2-0.1,0.4-0.2,0.7-0.2s0.5,0.1,0.7,0.2c0.2,0.1,0.4,0.3,0.5,0.6s0.2,0.5,0.2,0.9s-0.1,0.6-0.2,0.9c-0.1,0.2-0.3,0.4-0.5,0.6
		c-0.2,0.1-0.4,0.2-0.7,0.2S86.8,77.3,86.6,77.1z M87.9,76.5c0.1-0.2,0.2-0.5,0.2-0.8s-0.1-0.6-0.2-0.8c-0.1-0.2-0.3-0.3-0.5-0.3
		c-0.2,0-0.4,0.1-0.5,0.3c-0.1,0.2-0.2,0.5-0.2,0.8s0.1,0.6,0.2,0.8c0.1,0.2,0.3,0.3,0.5,0.3C87.5,76.8,87.7,76.7,87.9,76.5z"/>
</g>
<g class="st1">
	<path class="st3" d="M85.7,86.8v0.5h-2.3v-0.4l1.3-1.2c0.1-0.1,0.2-0.3,0.3-0.4c0-0.1,0.1-0.2,0.1-0.3c0-0.1,0-0.3-0.1-0.3
		c-0.1-0.1-0.2-0.1-0.4-0.1c-0.3,0-0.6,0.1-0.7,0.3l-0.4-0.3c0.1-0.2,0.3-0.3,0.5-0.4c0.2-0.1,0.4-0.1,0.7-0.1
		c0.3,0,0.6,0.1,0.8,0.2s0.3,0.4,0.3,0.7c0,0.2,0,0.3-0.1,0.5c-0.1,0.2-0.2,0.3-0.4,0.5l-0.8,0.8H85.7z"/>
	<path class="st3" d="M86.6,87.1c-0.2-0.1-0.4-0.3-0.5-0.6c-0.1-0.2-0.2-0.5-0.2-0.9s0.1-0.6,0.2-0.9c0.1-0.2,0.3-0.4,0.5-0.6
		s0.4-0.2,0.7-0.2s0.5,0.1,0.7,0.2s0.4,0.3,0.5,0.6c0.1,0.2,0.2,0.5,0.2,0.9s-0.1,0.6-0.2,0.9c-0.1,0.2-0.3,0.4-0.5,0.6
		c-0.2,0.1-0.4,0.2-0.7,0.2S86.8,87.3,86.6,87.1z M87.8,86.5c0.1-0.2,0.2-0.5,0.2-0.8s-0.1-0.6-0.2-0.8c-0.1-0.2-0.3-0.3-0.5-0.3
		c-0.2,0-0.4,0.1-0.5,0.3c-0.1,0.2-0.2,0.5-0.2,0.8s0.1,0.6,0.2,0.8c0.1,0.2,0.3,0.3,0.5,0.3C87.5,86.8,87.7,86.7,87.8,86.5z"/>
</g>
<g class="st1">
	<path class="st4" d="M85.7,86.8v0.5h-2.3v-0.4l1.3-1.2c0.1-0.1,0.2-0.3,0.3-0.4c0-0.1,0.1-0.2,0.1-0.3c0-0.1,0-0.3-0.1-0.3
		c-0.1-0.1-0.2-0.1-0.4-0.1c-0.3,0-0.6,0.1-0.7,0.3l-0.4-0.3c0.1-0.2,0.3-0.3,0.5-0.4c0.2-0.1,0.4-0.1,0.7-0.1
		c0.3,0,0.6,0.1,0.8,0.2s0.3,0.4,0.3,0.7c0,0.2,0,0.3-0.1,0.5c-0.1,0.2-0.2,0.3-0.4,0.5l-0.8,0.8H85.7z"/>
	<path class="st4" d="M86.6,87.1c-0.2-0.1-0.4-0.3-0.5-0.6c-0.1-0.2-0.2-0.5-0.2-0.9s0.1-0.6,0.2-0.9c0.1-0.2,0.3-0.4,0.5-0.6
		s0.4-0.2,0.7-0.2s0.5,0.1,0.7,0.2s0.4,0.3,0.5,0.6c0.1,0.2,0.2,0.5,0.2,0.9s-0.1,0.6-0.2,0.9c-0.1,0.2-0.3,0.4-0.5,0.6
		c-0.2,0.1-0.4,0.2-0.7,0.2S86.8,87.3,86.6,87.1z M87.8,86.5c0.1-0.2,0.2-0.5,0.2-0.8s-0.1-0.6-0.2-0.8c-0.1-0.2-0.3-0.3-0.5-0.3
		c-0.2,0-0.4,0.1-0.5,0.3c-0.1,0.2-0.2,0.5-0.2,0.8s0.1,0.6,0.2,0.8c0.1,0.2,0.3,0.3,0.5,0.3C87.5,86.8,87.7,86.7,87.8,86.5z"/>
</g>
<g class="st1">
	<path class="st3" d="M84.5,94.1v3.2h-0.6v-2.7h-0.7v-0.5H84.5z"/>
	<path class="st3" d="M85.7,97.1c-0.2-0.1-0.4-0.3-0.5-0.6c-0.1-0.2-0.2-0.5-0.2-0.9s0.1-0.6,0.2-0.9s0.3-0.4,0.5-0.6
		c0.2-0.1,0.4-0.2,0.7-0.2s0.5,0.1,0.7,0.2c0.2,0.1,0.4,0.3,0.5,0.6s0.2,0.5,0.2,0.9s-0.1,0.6-0.2,0.9c-0.1,0.2-0.3,0.4-0.5,0.6
		c-0.2,0.1-0.4,0.2-0.7,0.2S85.9,97.3,85.7,97.1z M87,96.5c0.1-0.2,0.2-0.5,0.2-0.8s-0.1-0.6-0.2-0.8c-0.1-0.2-0.3-0.3-0.5-0.3
		c-0.2,0-0.4,0.1-0.5,0.3c-0.1,0.2-0.2,0.5-0.2,0.8s0.1,0.6,0.2,0.8c0.1,0.2,0.3,0.3,0.5,0.3C86.6,96.8,86.8,96.7,87,96.5z"/>
</g>
<g class="st1">
	<path class="st4" d="M84.5,94.1v3.2h-0.6v-2.7h-0.7v-0.5H84.5z"/>
	<path class="st4" d="M85.7,97.1c-0.2-0.1-0.4-0.3-0.5-0.6c-0.1-0.2-0.2-0.5-0.2-0.9s0.1-0.6,0.2-0.9s0.3-0.4,0.5-0.6
		c0.2-0.1,0.4-0.2,0.7-0.2s0.5,0.1,0.7,0.2c0.2,0.1,0.4,0.3,0.5,0.6s0.2,0.5,0.2,0.9s-0.1,0.6-0.2,0.9c-0.1,0.2-0.3,0.4-0.5,0.6
		c-0.2,0.1-0.4,0.2-0.7,0.2S85.9,97.3,85.7,97.1z M87,96.5c0.1-0.2,0.2-0.5,0.2-0.8s-0.1-0.6-0.2-0.8c-0.1-0.2-0.3-0.3-0.5-0.3
		c-0.2,0-0.4,0.1-0.5,0.3c-0.1,0.2-0.2,0.5-0.2,0.8s0.1,0.6,0.2,0.8c0.1,0.2,0.3,0.3,0.5,0.3C86.6,96.8,86.8,96.7,87,96.5z"/>
</g>
<g class="st1">
	<path class="st3" d="M84,107.1c-0.2-0.1-0.4-0.3-0.5-0.6c-0.1-0.2-0.2-0.5-0.2-0.9s0.1-0.6,0.2-0.9s0.3-0.4,0.5-0.6
		c0.2-0.1,0.4-0.2,0.7-0.2s0.5,0.1,0.7,0.2c0.2,0.1,0.4,0.3,0.5,0.6s0.2,0.5,0.2,0.9s-0.1,0.6-0.2,0.9c-0.1,0.2-0.3,0.4-0.5,0.6
		c-0.2,0.1-0.4,0.2-0.7,0.2S84.2,107.3,84,107.1z M85.2,106.5c0.1-0.2,0.2-0.5,0.2-0.8s-0.1-0.6-0.2-0.8c-0.1-0.2-0.3-0.3-0.5-0.3
		c-0.2,0-0.4,0.1-0.5,0.3c-0.1,0.2-0.2,0.5-0.2,0.8s0.1,0.6,0.2,0.8c0.1,0.2,0.3,0.3,0.5,0.3C84.9,106.8,85.1,106.7,85.2,106.5z"/>
</g>
<g class="st1">
	<path class="st4" d="M84,107.1c-0.2-0.1-0.4-0.3-0.5-0.6c-0.1-0.2-0.2-0.5-0.2-0.9s0.1-0.6,0.2-0.9s0.3-0.4,0.5-0.6
		c0.2-0.1,0.4-0.2,0.7-0.2s0.5,0.1,0.7,0.2c0.2,0.1,0.4,0.3,0.5,0.6s0.2,0.5,0.2,0.9s-0.1,0.6-0.2,0.9c-0.1,0.2-0.3,0.4-0.5,0.6
		c-0.2,0.1-0.4,0.2-0.7,0.2S84.2,107.3,84,107.1z M85.2,106.5c0.1-0.2,0.2-0.5,0.2-0.8s-0.1-0.6-0.2-0.8c-0.1-0.2-0.3-0.3-0.5-0.3
		c-0.2,0-0.4,0.1-0.5,0.3c-0.1,0.2-0.2,0.5-0.2,0.8s0.1,0.6,0.2,0.8c0.1,0.2,0.3,0.3,0.5,0.3C84.9,106.8,85.1,106.7,85.2,106.5z"/>
</g>
<g>
	<rect x="91.7" y="13.7" class="st0" width="1" height="92.7"/>
	<rect x="90.9" y="23.8" class="st0" width="1.3" height="1"/>
	<rect x="90.9" y="34.6" class="st0" width="1.3" height="1"/>
	<rect x="90.9" y="44.6" class="st0" width="1.3" height="1"/>
	<rect x="90.9" y="54.6" class="st0" width="1.3" height="1"/>
	<rect x="90.9" y="64.6" class="st0" width="1.3" height="1"/>
	<rect x="90.9" y="74.6" class="st0" width="1.3" height="1"/>
	<rect x="90.9" y="85.6" class="st0" width="1.3" height="1"/>
	<rect x="90.9" y="95.6" class="st0" width="1.3" height="1"/>
</g>
<g class="st1">
	<path class="st2" d="M42.6,120.4v3h-0.4l-1.8-2.2v2.2H40v-3h0.4l1.8,2.2v-2.2H42.6z"/>
	<path class="st2" d="M45,121.4c0.2,0.2,0.3,0.4,0.3,0.7v1.4h-0.4v-0.3c-0.1,0.1-0.2,0.2-0.3,0.2s-0.3,0.1-0.5,0.1
		c-0.3,0-0.5-0.1-0.6-0.2c-0.2-0.1-0.2-0.3-0.2-0.5c0-0.2,0.1-0.4,0.2-0.5s0.4-0.2,0.7-0.2h0.6V122c0-0.2-0.1-0.3-0.2-0.4
		c-0.1-0.1-0.3-0.1-0.5-0.1c-0.1,0-0.3,0-0.4,0.1c-0.1,0-0.2,0.1-0.3,0.2l-0.2-0.3c0.1-0.1,0.3-0.2,0.4-0.2s0.3-0.1,0.5-0.1
		C44.6,121.1,44.8,121.2,45,121.4z M44.6,123c0.1-0.1,0.2-0.2,0.2-0.3v-0.3h-0.6c-0.3,0-0.5,0.1-0.5,0.4c0,0.1,0,0.2,0.1,0.3
		c0.1,0.1,0.2,0.1,0.4,0.1C44.3,123.1,44.5,123.1,44.6,123z"/>
	<path class="st2" d="M46.1,123.4c-0.2,0-0.3-0.1-0.4-0.2l0.2-0.3c0.1,0.1,0.2,0.1,0.4,0.2c0.1,0,0.3,0.1,0.4,0.1
		c0.4,0,0.5-0.1,0.5-0.3c0-0.1,0-0.1-0.1-0.2c0,0-0.1-0.1-0.2-0.1s-0.2,0-0.3-0.1c-0.2,0-0.3-0.1-0.4-0.1c-0.1,0-0.2-0.1-0.3-0.2
		c-0.1-0.1-0.1-0.2-0.1-0.4c0-0.2,0.1-0.4,0.3-0.5s0.4-0.2,0.7-0.2c0.2,0,0.3,0,0.5,0.1c0.2,0,0.3,0.1,0.4,0.1l-0.2,0.3
		c-0.2-0.1-0.4-0.2-0.7-0.2c-0.2,0-0.3,0-0.4,0.1s-0.1,0.1-0.1,0.2c0,0.1,0,0.1,0.1,0.2c0.1,0,0.1,0.1,0.2,0.1c0.1,0,0.2,0,0.3,0.1
		c0.2,0,0.3,0.1,0.4,0.1c0.1,0,0.2,0.1,0.3,0.2c0.1,0.1,0.1,0.2,0.1,0.4c0,0.2-0.1,0.4-0.3,0.5s-0.4,0.2-0.7,0.2
		C46.5,123.5,46.3,123.4,46.1,123.4z"/>
	<path class="st2" d="M50,120.8h-1v-0.4h2.5v0.4h-1v2.6H50V120.8z"/>
	<path class="st2" d="M53.6,122.4h-1.8c0,0.2,0.1,0.4,0.3,0.5s0.3,0.2,0.6,0.2c0.3,0,0.5-0.1,0.7-0.3l0.2,0.3
		c-0.1,0.1-0.2,0.2-0.4,0.3c-0.2,0.1-0.3,0.1-0.5,0.1c-0.2,0-0.5,0-0.6-0.1c-0.2-0.1-0.3-0.2-0.4-0.4s-0.2-0.4-0.2-0.6
		c0-0.2,0-0.4,0.1-0.6c0.1-0.2,0.2-0.3,0.4-0.4c0.2-0.1,0.4-0.1,0.6-0.1s0.4,0,0.6,0.1s0.3,0.2,0.4,0.4s0.1,0.4,0.1,0.6
		C53.6,122.3,53.6,122.4,53.6,122.4z M52,121.7c-0.1,0.1-0.2,0.3-0.2,0.5h1.5c0-0.2-0.1-0.3-0.2-0.5c-0.1-0.1-0.3-0.2-0.5-0.2
		S52.1,121.6,52,121.7z"/>
	<path class="st2" d="M54.9,121.2c0.1-0.1,0.3-0.1,0.5-0.1v0.4c0,0-0.1,0-0.1,0c-0.2,0-0.4,0.1-0.5,0.2s-0.2,0.3-0.2,0.6v1.1h-0.4
		v-2.3h0.4v0.4C54.7,121.4,54.8,121.3,54.9,121.2z"/>
	<path class="st2" d="M56.6,121.2c0.1-0.1,0.3-0.1,0.5-0.1v0.4c0,0-0.1,0-0.1,0c-0.2,0-0.4,0.1-0.5,0.2s-0.2,0.3-0.2,0.6v1.1h-0.4
		v-2.3h0.4v0.4C56.4,121.4,56.5,121.3,56.6,121.2z"/>
	<path class="st2" d="M59.2,121.4c0.2,0.2,0.3,0.4,0.3,0.7v1.4H59v-0.3c-0.1,0.1-0.2,0.2-0.3,0.2s-0.3,0.1-0.5,0.1
		c-0.3,0-0.5-0.1-0.6-0.2c-0.2-0.1-0.2-0.3-0.2-0.5c0-0.2,0.1-0.4,0.2-0.5s0.4-0.2,0.7-0.2H59V122c0-0.2-0.1-0.3-0.2-0.4
		c-0.1-0.1-0.3-0.1-0.5-0.1c-0.1,0-0.3,0-0.4,0.1c-0.1,0-0.2,0.1-0.3,0.2l-0.2-0.3c0.1-0.1,0.3-0.2,0.4-0.2s0.3-0.1,0.5-0.1
		C58.8,121.1,59,121.2,59.2,121.4z M58.8,123c0.1-0.1,0.2-0.2,0.2-0.3v-0.3h-0.6c-0.3,0-0.5,0.1-0.5,0.4c0,0.1,0,0.2,0.1,0.3
		c0.1,0.1,0.2,0.1,0.4,0.1C58.5,123.1,58.7,123.1,58.8,123z"/>
	<path class="st2" d="M60.3,123.4c-0.2,0-0.3-0.1-0.4-0.2l0.2-0.3c0.1,0.1,0.2,0.1,0.4,0.2c0.1,0,0.3,0.1,0.4,0.1
		c0.4,0,0.5-0.1,0.5-0.3c0-0.1,0-0.1-0.1-0.2c0,0-0.1-0.1-0.2-0.1s-0.2,0-0.3-0.1c-0.2,0-0.3-0.1-0.4-0.1c-0.1,0-0.2-0.1-0.3-0.2
		c-0.1-0.1-0.1-0.2-0.1-0.4c0-0.2,0.1-0.4,0.3-0.5s0.4-0.2,0.7-0.2c0.2,0,0.3,0,0.5,0.1c0.2,0,0.3,0.1,0.4,0.1l-0.2,0.3
		c-0.2-0.1-0.4-0.2-0.7-0.2c-0.2,0-0.3,0-0.4,0.1s-0.1,0.1-0.1,0.2c0,0.1,0,0.1,0.1,0.2c0.1,0,0.1,0.1,0.2,0.1c0.1,0,0.2,0,0.3,0.1
		c0.2,0,0.3,0.1,0.4,0.1c0.1,0,0.2,0.1,0.3,0.2c0.1,0.1,0.1,0.2,0.1,0.4c0,0.2-0.1,0.4-0.3,0.5s-0.4,0.2-0.7,0.2
		C60.7,123.5,60.5,123.4,60.3,123.4z"/>
	<path class="st2" d="M63.5,120.4H64v3h-0.4V120.4z"/>
	<path class="st2" d="M66.7,121.4c0.2,0.2,0.3,0.4,0.3,0.7v1.3h-0.4v-1.3c0-0.2-0.1-0.4-0.2-0.5s-0.3-0.2-0.5-0.2
		c-0.2,0-0.4,0.1-0.5,0.2s-0.2,0.3-0.2,0.6v1.2h-0.4v-2.3h0.4v0.3c0.1-0.1,0.2-0.2,0.3-0.3c0.1-0.1,0.3-0.1,0.5-0.1
		C66.3,121.1,66.5,121.2,66.7,121.4z"/>
	<path class="st2" d="M69.9,120.3v3.2h-0.4v-0.4c-0.1,0.1-0.2,0.2-0.3,0.3c-0.1,0.1-0.3,0.1-0.5,0.1c-0.2,0-0.4,0-0.6-0.1
		c-0.2-0.1-0.3-0.2-0.4-0.4c-0.1-0.2-0.1-0.4-0.1-0.6s0-0.4,0.1-0.6c0.1-0.2,0.2-0.3,0.4-0.4s0.4-0.1,0.6-0.1c0.2,0,0.3,0,0.4,0.1
		c0.1,0.1,0.3,0.2,0.3,0.3v-1.2H69.9z M69.1,123c0.1-0.1,0.2-0.2,0.3-0.3c0.1-0.1,0.1-0.3,0.1-0.4s0-0.3-0.1-0.4
		c-0.1-0.1-0.2-0.2-0.3-0.3c-0.1-0.1-0.2-0.1-0.4-0.1c-0.1,0-0.3,0-0.4,0.1c-0.1,0.1-0.2,0.2-0.3,0.3s-0.1,0.3-0.1,0.4
		s0,0.3,0.1,0.4s0.2,0.2,0.3,0.3c0.1,0.1,0.2,0.1,0.4,0.1C68.9,123.1,69,123.1,69.1,123z"/>
	<path class="st2" d="M71.1,120.3h0.5l-0.7,0.6h-0.4L71.1,120.3z M70.7,121.2h0.4v2.3h-0.4V121.2z"/>
	<path class="st2" d="M74,121.2v2c0,0.4-0.1,0.7-0.3,0.9s-0.5,0.3-0.9,0.3c-0.2,0-0.4,0-0.6-0.1c-0.2-0.1-0.4-0.1-0.5-0.2l0.2-0.3
		c0.1,0.1,0.2,0.2,0.4,0.2c0.2,0.1,0.3,0.1,0.5,0.1c0.3,0,0.5-0.1,0.6-0.2c0.1-0.1,0.2-0.3,0.2-0.6V123c-0.1,0.1-0.2,0.2-0.4,0.3
		s-0.3,0.1-0.5,0.1c-0.2,0-0.4,0-0.6-0.1c-0.2-0.1-0.3-0.2-0.4-0.4c-0.1-0.2-0.1-0.4-0.1-0.6s0-0.4,0.1-0.6c0.1-0.2,0.2-0.3,0.4-0.4
		c0.2-0.1,0.4-0.1,0.6-0.1c0.2,0,0.3,0,0.5,0.1c0.1,0.1,0.3,0.2,0.4,0.3v-0.4H74z M73.2,122.9c0.1-0.1,0.2-0.2,0.3-0.3
		c0.1-0.1,0.1-0.2,0.1-0.4c0-0.2-0.1-0.4-0.2-0.5c-0.1-0.1-0.3-0.2-0.6-0.2c-0.2,0-0.4,0.1-0.6,0.2c-0.1,0.1-0.2,0.3-0.2,0.5
		c0,0.1,0,0.3,0.1,0.4c0.1,0.1,0.2,0.2,0.3,0.3c0.1,0.1,0.3,0.1,0.4,0.1C73,123,73.1,122.9,73.2,122.9z"/>
	<path class="st2" d="M76.8,122.4H75c0,0.2,0.1,0.4,0.3,0.5s0.3,0.2,0.6,0.2c0.3,0,0.5-0.1,0.7-0.3l0.2,0.3
		c-0.1,0.1-0.2,0.2-0.4,0.3c-0.2,0.1-0.3,0.1-0.5,0.1c-0.2,0-0.5,0-0.6-0.1c-0.2-0.1-0.3-0.2-0.4-0.4s-0.2-0.4-0.2-0.6
		c0-0.2,0-0.4,0.1-0.6c0.1-0.2,0.2-0.3,0.4-0.4c0.2-0.1,0.4-0.1,0.6-0.1s0.4,0,0.6,0.1s0.3,0.2,0.4,0.4s0.1,0.4,0.1,0.6
		C76.9,122.3,76.9,122.4,76.8,122.4z M75.2,121.7c-0.1,0.1-0.2,0.3-0.2,0.5h1.5c0-0.2-0.1-0.3-0.2-0.5c-0.1-0.1-0.3-0.2-0.5-0.2
		S75.4,121.6,75.2,121.7z"/>
	<path class="st2" d="M79.3,121.4c0.2,0.2,0.3,0.4,0.3,0.7v1.3h-0.4v-1.3c0-0.2-0.1-0.4-0.2-0.5s-0.3-0.2-0.5-0.2
		c-0.2,0-0.4,0.1-0.5,0.2s-0.2,0.3-0.2,0.6v1.2h-0.4v-2.3h0.4v0.3c0.1-0.1,0.2-0.2,0.3-0.3c0.1-0.1,0.3-0.1,0.5-0.1
		C78.9,121.1,79.2,121.2,79.3,121.4z"/>
	<path class="st2" d="M81.9,121.4c0.2,0.2,0.3,0.4,0.3,0.7v1.4h-0.4v-0.3c-0.1,0.1-0.2,0.2-0.3,0.2s-0.3,0.1-0.5,0.1
		c-0.3,0-0.5-0.1-0.6-0.2c-0.2-0.1-0.2-0.3-0.2-0.5c0-0.2,0.1-0.4,0.2-0.5s0.4-0.2,0.7-0.2h0.6V122c0-0.2-0.1-0.3-0.2-0.4
		c-0.1-0.1-0.3-0.1-0.5-0.1c-0.1,0-0.3,0-0.4,0.1c-0.1,0-0.2,0.1-0.3,0.2l-0.2-0.3c0.1-0.1,0.3-0.2,0.4-0.2s0.3-0.1,0.5-0.1
		C81.5,121.1,81.7,121.2,81.9,121.4z M81.5,123c0.1-0.1,0.2-0.2,0.2-0.3v-0.3h-0.6c-0.3,0-0.5,0.1-0.5,0.4c0,0.1,0,0.2,0.1,0.3
		c0.1,0.1,0.2,0.1,0.4,0.1C81.2,123.1,81.4,123.1,81.5,123z"/>
	<path class="st2" d="M83,123.4c-0.2,0-0.3-0.1-0.4-0.2l0.2-0.3c0.1,0.1,0.2,0.1,0.4,0.2c0.1,0,0.3,0.1,0.4,0.1
		c0.4,0,0.5-0.1,0.5-0.3c0-0.1,0-0.1-0.1-0.2c0,0-0.1-0.1-0.2-0.1s-0.2,0-0.3-0.1c-0.2,0-0.3-0.1-0.4-0.1c-0.1,0-0.2-0.1-0.3-0.2
		c-0.1-0.1-0.1-0.2-0.1-0.4c0-0.2,0.1-0.4,0.3-0.5s0.4-0.2,0.7-0.2c0.2,0,0.3,0,0.5,0.1c0.2,0,0.3,0.1,0.4,0.1l-0.2,0.3
		c-0.2-0.1-0.4-0.2-0.7-0.2c-0.2,0-0.3,0-0.4,0.1s-0.1,0.1-0.1,0.2c0,0.1,0,0.1,0.1,0.2c0.1,0,0.1,0.1,0.2,0.1c0.1,0,0.2,0,0.3,0.1
		c0.2,0,0.3,0.1,0.4,0.1c0.1,0,0.2,0.1,0.3,0.2c0.1,0.1,0.1,0.2,0.1,0.4c0,0.2-0.1,0.4-0.3,0.5s-0.4,0.2-0.7,0.2
		C83.4,123.5,83.2,123.4,83,123.4z"/>
</g>
<g class="st1">
	<path class="st2" d="M119.9,120.8v1h1.5v0.4h-1.5v1.2h-0.4v-3h2.1v0.4H119.9z"/>
	<path class="st2" d="M122.4,123.3c-0.2-0.1-0.3-0.2-0.4-0.4c-0.1-0.2-0.2-0.4-0.2-0.6s0.1-0.4,0.2-0.6c0.1-0.2,0.2-0.3,0.4-0.4
		s0.4-0.1,0.6-0.1c0.2,0,0.4,0,0.6,0.1c0.2,0.1,0.3,0.2,0.4,0.4c0.1,0.2,0.2,0.4,0.2,0.6s-0.1,0.4-0.2,0.6c-0.1,0.2-0.2,0.3-0.4,0.4
		c-0.2,0.1-0.4,0.1-0.6,0.1C122.8,123.5,122.6,123.4,122.4,123.3z M123.4,123c0.1-0.1,0.2-0.2,0.3-0.3c0.1-0.1,0.1-0.3,0.1-0.4
		s0-0.3-0.1-0.4c-0.1-0.1-0.2-0.2-0.3-0.3c-0.1-0.1-0.2-0.1-0.4-0.1c-0.1,0-0.3,0-0.4,0.1c-0.1,0.1-0.2,0.2-0.3,0.3
		c-0.1,0.1-0.1,0.3-0.1,0.4s0,0.3,0.1,0.4c0.1,0.1,0.2,0.2,0.3,0.3c0.1,0.1,0.2,0.1,0.4,0.1C123.2,123.1,123.3,123.1,123.4,123z"/>
	<path class="st2" d="M125.5,121.2c0.1-0.1,0.3-0.1,0.5-0.1v0.4c0,0-0.1,0-0.1,0c-0.2,0-0.4,0.1-0.5,0.2s-0.2,0.3-0.2,0.6v1.1h-0.4
		v-2.3h0.4v0.4C125.2,121.4,125.3,121.3,125.5,121.2z"/>
	<path class="st2" d="M128,121.4c0.2,0.2,0.3,0.4,0.3,0.7v1.4h-0.4v-0.3c-0.1,0.1-0.2,0.2-0.3,0.2s-0.3,0.1-0.5,0.1
		c-0.3,0-0.5-0.1-0.6-0.2s-0.2-0.3-0.2-0.5c0-0.2,0.1-0.4,0.2-0.5s0.4-0.2,0.7-0.2h0.7V122c0-0.2-0.1-0.3-0.2-0.4
		c-0.1-0.1-0.3-0.1-0.5-0.1c-0.1,0-0.3,0-0.4,0.1c-0.1,0-0.2,0.1-0.3,0.2l-0.2-0.3c0.1-0.1,0.3-0.2,0.4-0.2c0.2,0,0.3-0.1,0.5-0.1
		C127.6,121.1,127.9,121.2,128,121.4z M127.6,123c0.1-0.1,0.2-0.2,0.2-0.3v-0.3h-0.6c-0.3,0-0.5,0.1-0.5,0.4c0,0.1,0,0.2,0.1,0.3
		c0.1,0.1,0.2,0.1,0.4,0.1C127.4,123.1,127.5,123.1,127.6,123z"/>
	<path class="st2" d="M132.3,120.3v3.2h-0.4v-0.4c-0.1,0.1-0.2,0.2-0.3,0.3c-0.1,0.1-0.3,0.1-0.5,0.1c-0.2,0-0.4,0-0.6-0.1
		c-0.2-0.1-0.3-0.2-0.4-0.4s-0.1-0.4-0.1-0.6s0-0.4,0.1-0.6s0.2-0.3,0.4-0.4s0.4-0.1,0.6-0.1c0.2,0,0.3,0,0.4,0.1s0.3,0.2,0.3,0.3
		v-1.2H132.3z M131.5,123c0.1-0.1,0.2-0.2,0.3-0.3s0.1-0.3,0.1-0.4s0-0.3-0.1-0.4s-0.2-0.2-0.3-0.3c-0.1-0.1-0.2-0.1-0.4-0.1
		c-0.1,0-0.3,0-0.4,0.1s-0.2,0.2-0.3,0.3c-0.1,0.1-0.1,0.3-0.1,0.4s0,0.3,0.1,0.4c0.1,0.1,0.2,0.2,0.3,0.3c0.1,0.1,0.2,0.1,0.4,0.1
		C131.3,123.1,131.4,123.1,131.5,123z"/>
	<path class="st2" d="M134.7,121.4c0.2,0.2,0.3,0.4,0.3,0.7v1.4h-0.4v-0.3c-0.1,0.1-0.2,0.2-0.3,0.2s-0.3,0.1-0.5,0.1
		c-0.3,0-0.5-0.1-0.6-0.2s-0.2-0.3-0.2-0.5c0-0.2,0.1-0.4,0.2-0.5s0.4-0.2,0.7-0.2h0.7V122c0-0.2-0.1-0.3-0.2-0.4
		c-0.1-0.1-0.3-0.1-0.5-0.1c-0.1,0-0.3,0-0.4,0.1c-0.1,0-0.2,0.1-0.3,0.2l-0.2-0.3c0.1-0.1,0.3-0.2,0.4-0.2c0.2,0,0.3-0.1,0.5-0.1
		C134.2,121.1,134.5,121.2,134.7,121.4z M134.2,123c0.1-0.1,0.2-0.2,0.2-0.3v-0.3h-0.6c-0.3,0-0.5,0.1-0.5,0.4c0,0.1,0,0.2,0.1,0.3
		c0.1,0.1,0.2,0.1,0.4,0.1C134,123.1,134.1,123.1,134.2,123z"/>
	<path class="st2" d="M135.8,123.4c-0.2,0-0.3-0.1-0.4-0.2l0.2-0.3c0.1,0.1,0.2,0.1,0.4,0.2c0.1,0,0.3,0.1,0.4,0.1
		c0.4,0,0.5-0.1,0.5-0.3c0-0.1,0-0.1-0.1-0.2c0,0-0.1-0.1-0.2-0.1c-0.1,0-0.2,0-0.3-0.1c-0.2,0-0.3-0.1-0.4-0.1s-0.2-0.1-0.3-0.2
		c-0.1-0.1-0.1-0.2-0.1-0.4c0-0.2,0.1-0.4,0.3-0.5s0.4-0.2,0.7-0.2c0.2,0,0.3,0,0.5,0.1s0.3,0.1,0.4,0.1l-0.2,0.3
		c-0.2-0.1-0.4-0.2-0.7-0.2c-0.2,0-0.3,0-0.4,0.1c-0.1,0.1-0.1,0.1-0.1,0.2c0,0.1,0,0.1,0.1,0.2c0.1,0,0.1,0.1,0.2,0.1
		c0.1,0,0.2,0,0.3,0.1c0.2,0,0.3,0.1,0.4,0.1c0.1,0,0.2,0.1,0.3,0.2c0.1,0.1,0.1,0.2,0.1,0.4c0,0.2-0.1,0.4-0.3,0.5
		c-0.2,0.1-0.4,0.2-0.7,0.2C136.1,123.5,135.9,123.4,135.8,123.4z"/>
	<path class="st2" d="M139.6,120.8h-1v-0.4h2.5v0.4h-1v2.6h-0.4V120.8z"/>
	<path class="st2" d="M143.3,122.4h-1.8c0,0.2,0.1,0.4,0.3,0.5c0.2,0.1,0.3,0.2,0.6,0.2c0.3,0,0.5-0.1,0.7-0.3l0.2,0.3
		c-0.1,0.1-0.2,0.2-0.4,0.3c-0.2,0.1-0.3,0.1-0.5,0.1c-0.2,0-0.5,0-0.6-0.1s-0.3-0.2-0.4-0.4c-0.1-0.2-0.2-0.4-0.2-0.6
		c0-0.2,0-0.4,0.1-0.6c0.1-0.2,0.2-0.3,0.4-0.4c0.2-0.1,0.4-0.1,0.6-0.1s0.4,0,0.6,0.1s0.3,0.2,0.4,0.4s0.1,0.4,0.1,0.6
		C143.3,122.3,143.3,122.4,143.3,122.4z M141.7,121.7c-0.1,0.1-0.2,0.3-0.2,0.5h1.5c0-0.2-0.1-0.3-0.2-0.5c-0.1-0.1-0.3-0.2-0.5-0.2
		C142,121.5,141.8,121.6,141.7,121.7z"/>
	<path class="st2" d="M144.6,121.2c0.1-0.1,0.3-0.1,0.5-0.1v0.4c0,0-0.1,0-0.1,0c-0.2,0-0.4,0.1-0.5,0.2s-0.2,0.3-0.2,0.6v1.1h-0.4
		v-2.3h0.4v0.4C144.3,121.4,144.4,121.3,144.6,121.2z"/>
	<path class="st2" d="M146.3,121.2c0.1-0.1,0.3-0.1,0.5-0.1v0.4c0,0-0.1,0-0.1,0c-0.2,0-0.4,0.1-0.5,0.2s-0.2,0.3-0.2,0.6v1.1h-0.4
		v-2.3h0.4v0.4C146,121.4,146.1,121.3,146.3,121.2z"/>
	<path class="st2" d="M148.8,121.4c0.2,0.2,0.2,0.4,0.2,0.7v1.4h-0.4v-0.3c-0.1,0.1-0.2,0.2-0.3,0.2s-0.3,0.1-0.5,0.1
		c-0.3,0-0.5-0.1-0.6-0.2c-0.2-0.1-0.2-0.3-0.2-0.5c0-0.2,0.1-0.4,0.2-0.5s0.4-0.2,0.7-0.2h0.6V122c0-0.2-0.1-0.3-0.2-0.4
		c-0.1-0.1-0.3-0.1-0.5-0.1c-0.1,0-0.3,0-0.4,0.1c-0.1,0-0.2,0.1-0.3,0.2l-0.2-0.3c0.1-0.1,0.3-0.2,0.4-0.2c0.2,0,0.3-0.1,0.5-0.1
		C148.4,121.1,148.7,121.2,148.8,121.4z M148.4,123c0.1-0.1,0.2-0.2,0.2-0.3v-0.3H148c-0.3,0-0.5,0.1-0.5,0.4c0,0.1,0,0.2,0.1,0.3
		c0.1,0.1,0.2,0.1,0.4,0.1S148.3,123.1,148.4,123z"/>
	<path class="st2" d="M150,123.4c-0.2,0-0.3-0.1-0.4-0.2l0.2-0.3c0.1,0.1,0.2,0.1,0.4,0.2s0.3,0.1,0.4,0.1c0.4,0,0.5-0.1,0.5-0.3
		c0-0.1,0-0.1-0.1-0.2s-0.1-0.1-0.2-0.1c-0.1,0-0.2,0-0.3-0.1c-0.2,0-0.3-0.1-0.4-0.1c-0.1,0-0.2-0.1-0.3-0.2
		c-0.1-0.1-0.1-0.2-0.1-0.4c0-0.2,0.1-0.4,0.3-0.5s0.4-0.2,0.7-0.2c0.2,0,0.3,0,0.5,0.1c0.2,0,0.3,0.1,0.4,0.1l-0.2,0.3
		c-0.2-0.1-0.4-0.2-0.7-0.2c-0.2,0-0.3,0-0.4,0.1c-0.1,0.1-0.1,0.1-0.1,0.2c0,0.1,0,0.1,0.1,0.2s0.1,0.1,0.2,0.1
		c0.1,0,0.2,0,0.3,0.1c0.2,0,0.3,0.1,0.4,0.1c0.1,0,0.2,0.1,0.3,0.2c0.1,0.1,0.1,0.2,0.1,0.4c0,0.2-0.1,0.4-0.3,0.5
		c-0.2,0.1-0.4,0.2-0.7,0.2C150.3,123.5,150.1,123.4,150,123.4z"/>
	<path class="st2" d="M153.2,120.4h0.4v3h-0.4V120.4z"/>
	<path class="st2" d="M156.4,121.4c0.2,0.2,0.3,0.4,0.3,0.7v1.3h-0.4v-1.3c0-0.2-0.1-0.4-0.2-0.5s-0.3-0.2-0.5-0.2
		c-0.2,0-0.4,0.1-0.5,0.2c-0.1,0.1-0.2,0.3-0.2,0.6v1.2h-0.4v-2.3h0.4v0.3c0.1-0.1,0.2-0.2,0.3-0.3c0.1-0.1,0.3-0.1,0.5-0.1
		C156,121.1,156.2,121.2,156.4,121.4z"/>
	<path class="st2" d="M159.5,120.3v3.2h-0.4v-0.4c-0.1,0.1-0.2,0.2-0.3,0.3c-0.1,0.1-0.3,0.1-0.5,0.1c-0.2,0-0.4,0-0.6-0.1
		c-0.2-0.1-0.3-0.2-0.4-0.4c-0.1-0.2-0.1-0.4-0.1-0.6s0-0.4,0.1-0.6c0.1-0.2,0.2-0.3,0.4-0.4s0.4-0.1,0.6-0.1c0.2,0,0.3,0,0.4,0.1
		c0.1,0.1,0.3,0.2,0.3,0.3v-1.2H159.5z M158.8,123c0.1-0.1,0.2-0.2,0.3-0.3c0.1-0.1,0.1-0.3,0.1-0.4s0-0.3-0.1-0.4
		c-0.1-0.1-0.2-0.2-0.3-0.3s-0.2-0.1-0.4-0.1c-0.1,0-0.3,0-0.4,0.1c-0.1,0.1-0.2,0.2-0.3,0.3c-0.1,0.1-0.1,0.3-0.1,0.4
		s0,0.3,0.1,0.4c0.1,0.1,0.2,0.2,0.3,0.3c0.1,0.1,0.2,0.1,0.4,0.1C158.5,123.1,158.6,123.1,158.8,123z"/>
	<path class="st2" d="M160.8,120.3h0.5l-0.7,0.6h-0.4L160.8,120.3z M160.3,121.2h0.4v2.3h-0.4V121.2z"/>
	<path class="st2" d="M163.7,121.2v2c0,0.4-0.1,0.7-0.3,0.9c-0.2,0.2-0.5,0.3-0.9,0.3c-0.2,0-0.4,0-0.6-0.1
		c-0.2-0.1-0.4-0.1-0.5-0.2l0.2-0.3c0.1,0.1,0.2,0.2,0.4,0.2s0.3,0.1,0.5,0.1c0.3,0,0.5-0.1,0.6-0.2c0.1-0.1,0.2-0.3,0.2-0.6V123
		c-0.1,0.1-0.2,0.2-0.4,0.3c-0.1,0.1-0.3,0.1-0.5,0.1c-0.2,0-0.4,0-0.6-0.1s-0.3-0.2-0.4-0.4c-0.1-0.2-0.1-0.4-0.1-0.6
		s0-0.4,0.1-0.6s0.2-0.3,0.4-0.4c0.2-0.1,0.4-0.1,0.6-0.1c0.2,0,0.3,0,0.5,0.1c0.1,0.1,0.3,0.2,0.4,0.3v-0.4H163.7z M162.9,122.9
		c0.1-0.1,0.2-0.2,0.3-0.3c0.1-0.1,0.1-0.2,0.1-0.4c0-0.2-0.1-0.4-0.2-0.5c-0.1-0.1-0.3-0.2-0.6-0.2c-0.2,0-0.4,0.1-0.6,0.2
		c-0.1,0.1-0.2,0.3-0.2,0.5c0,0.1,0,0.3,0.1,0.4c0.1,0.1,0.2,0.2,0.3,0.3c0.1,0.1,0.3,0.1,0.4,0.1
		C162.6,123,162.8,122.9,162.9,122.9z"/>
	<path class="st2" d="M166.5,122.4h-1.8c0,0.2,0.1,0.4,0.3,0.5c0.1,0.1,0.3,0.2,0.6,0.2c0.3,0,0.5-0.1,0.7-0.3l0.2,0.3
		c-0.1,0.1-0.2,0.2-0.4,0.3s-0.3,0.1-0.5,0.1c-0.2,0-0.5,0-0.6-0.1c-0.2-0.1-0.3-0.2-0.4-0.4c-0.1-0.2-0.2-0.4-0.2-0.6
		c0-0.2,0-0.4,0.1-0.6s0.2-0.3,0.4-0.4s0.4-0.1,0.6-0.1s0.4,0,0.6,0.1s0.3,0.2,0.4,0.4s0.1,0.4,0.1,0.6
		C166.5,122.3,166.5,122.4,166.5,122.4z M164.9,121.7c-0.1,0.1-0.2,0.3-0.2,0.5h1.5c0-0.2-0.1-0.3-0.2-0.5s-0.3-0.2-0.5-0.2
		C165.2,121.5,165,121.6,164.9,121.7z"/>
	<path class="st2" d="M169,121.4c0.2,0.2,0.3,0.4,0.3,0.7v1.3h-0.4v-1.3c0-0.2-0.1-0.4-0.2-0.5s-0.3-0.2-0.5-0.2
		c-0.2,0-0.4,0.1-0.5,0.2c-0.1,0.1-0.2,0.3-0.2,0.6v1.2h-0.4v-2.3h0.4v0.3c0.1-0.1,0.2-0.2,0.3-0.3c0.1-0.1,0.3-0.1,0.5-0.1
		C168.6,121.1,168.8,121.2,169,121.4z"/>
	<path class="st2" d="M171.5,121.4c0.2,0.2,0.2,0.4,0.2,0.7v1.4h-0.4v-0.3c-0.1,0.1-0.2,0.2-0.3,0.2s-0.3,0.1-0.5,0.1
		c-0.3,0-0.5-0.1-0.6-0.2c-0.2-0.1-0.2-0.3-0.2-0.5c0-0.2,0.1-0.4,0.2-0.5s0.4-0.2,0.7-0.2h0.6V122c0-0.2-0.1-0.3-0.2-0.4
		c-0.1-0.1-0.3-0.1-0.5-0.1c-0.1,0-0.3,0-0.4,0.1c-0.1,0-0.2,0.1-0.3,0.2l-0.2-0.3c0.1-0.1,0.3-0.2,0.4-0.2c0.2,0,0.3-0.1,0.5-0.1
		C171.1,121.1,171.4,121.2,171.5,121.4z M171.1,123c0.1-0.1,0.2-0.2,0.2-0.3v-0.3h-0.6c-0.3,0-0.5,0.1-0.5,0.4c0,0.1,0,0.2,0.1,0.3
		c0.1,0.1,0.2,0.1,0.4,0.1S171,123.1,171.1,123z"/>
	<path class="st2" d="M172.7,123.4c-0.2,0-0.3-0.1-0.4-0.2l0.2-0.3c0.1,0.1,0.2,0.1,0.4,0.2s0.3,0.1,0.4,0.1c0.4,0,0.5-0.1,0.5-0.3
		c0-0.1,0-0.1-0.1-0.2s-0.1-0.1-0.2-0.1c-0.1,0-0.2,0-0.3-0.1c-0.2,0-0.3-0.1-0.4-0.1c-0.1,0-0.2-0.1-0.3-0.2
		c-0.1-0.1-0.1-0.2-0.1-0.4c0-0.2,0.1-0.4,0.3-0.5s0.4-0.2,0.7-0.2c0.2,0,0.3,0,0.5,0.1c0.2,0,0.3,0.1,0.4,0.1l-0.2,0.3
		c-0.2-0.1-0.4-0.2-0.7-0.2c-0.2,0-0.3,0-0.4,0.1c-0.1,0.1-0.1,0.1-0.1,0.2c0,0.1,0,0.1,0.1,0.2s0.1,0.1,0.2,0.1
		c0.1,0,0.2,0,0.3,0.1c0.2,0,0.3,0.1,0.4,0.1c0.1,0,0.2,0.1,0.3,0.2c0.1,0.1,0.1,0.2,0.1,0.4c0,0.2-0.1,0.4-0.3,0.5
		c-0.2,0.1-0.4,0.2-0.7,0.2C173,123.5,172.8,123.4,172.7,123.4z"/>
</g>
<g>
	<rect x="108.5" y="106.3" class="st0" width="1" height="2.4"/>
	<rect x="141.8" y="106.3" class="st0" width="1" height="2.4"/>
	<rect x="175.2" y="106.3" class="st0" width="1" height="2.4"/>
	<rect x="74.6" y="106.3" class="st0" width="1" height="2.4"/>
	<rect x="41.2" y="106.3" class="st0" width="1" height="2.4"/>
	<rect x="6.6" y="106.3" class="st0" width="1" height="2.4"/>
</g>
<rect x="95.8" y="122.5" class="st5" width="21.2" height="0.9"/>
<rect x="16.9" y="122.5" class="st6" width="21.2" height="0.9"/>
<g class="st1">
	<path class="st2" d="M85.5,14.5c0.2,0.3,0.4,0.7,0.4,1.2c0,0.4-0.1,0.7-0.2,0.9c-0.1,0.3-0.3,0.4-0.5,0.6c-0.2,0.1-0.5,0.2-0.8,0.2
		c-0.2,0-0.3,0-0.5-0.1c-0.1,0-0.3-0.1-0.4-0.2l0.2-0.4c0.2,0.1,0.4,0.2,0.6,0.2c0.3,0,0.5-0.1,0.7-0.3c0.2-0.2,0.3-0.5,0.3-0.8v0
		c-0.1,0.1-0.2,0.2-0.4,0.2c-0.1,0.1-0.3,0.1-0.5,0.1c-0.2,0-0.4,0-0.6-0.1c-0.2-0.1-0.3-0.2-0.4-0.3c-0.1-0.1-0.1-0.3-0.1-0.5
		c0-0.2,0.1-0.4,0.2-0.5c0.1-0.2,0.2-0.3,0.4-0.4c0.2-0.1,0.4-0.1,0.6-0.1C84.9,14.1,85.2,14.2,85.5,14.5z M85,15.5
		c0.1-0.1,0.2-0.2,0.2-0.4c0-0.2-0.1-0.3-0.2-0.4c-0.1-0.1-0.3-0.2-0.5-0.2c-0.2,0-0.3,0-0.4,0.1c-0.1,0.1-0.2,0.2-0.2,0.4
		c0,0.2,0.1,0.3,0.2,0.4c0.1,0.1,0.3,0.1,0.5,0.1C84.7,15.6,84.8,15.6,85,15.5z"/>
	<path class="st2" d="M86.9,17.1c-0.2-0.1-0.4-0.3-0.5-0.6c-0.1-0.2-0.2-0.5-0.2-0.9s0.1-0.6,0.2-0.9c0.1-0.2,0.3-0.4,0.5-0.6
		c0.2-0.1,0.4-0.2,0.7-0.2s0.5,0.1,0.7,0.2c0.2,0.1,0.4,0.3,0.5,0.6c0.1,0.2,0.2,0.5,0.2,0.9s-0.1,0.6-0.2,0.9
		c-0.1,0.2-0.3,0.4-0.5,0.6c-0.2,0.1-0.4,0.2-0.7,0.2S87.1,17.3,86.9,17.1z M88.1,16.5c0.1-0.2,0.2-0.5,0.2-0.8s-0.1-0.6-0.2-0.8
		c-0.1-0.2-0.3-0.3-0.5-0.3c-0.2,0-0.4,0.1-0.5,0.3c-0.1,0.2-0.2,0.5-0.2,0.8s0.1,0.6,0.2,0.8c0.1,0.2,0.3,0.3,0.5,0.3
		C87.8,16.8,87.9,16.7,88.1,16.5z"/>
</g>
<g class="st1">
	<path class="st2" d="M85.8,25.9c0.1,0.1,0.1,0.3,0.1,0.4c0,0.2-0.1,0.4-0.2,0.5c-0.1,0.1-0.3,0.3-0.5,0.3c-0.2,0.1-0.4,0.1-0.7,0.1
		s-0.5,0-0.7-0.1c-0.2-0.1-0.3-0.2-0.4-0.3c-0.1-0.1-0.2-0.3-0.2-0.5c0-0.2,0-0.3,0.1-0.4c0.1-0.1,0.2-0.2,0.4-0.3
		c-0.1-0.1-0.2-0.2-0.3-0.3c-0.1-0.1-0.1-0.2-0.1-0.4c0-0.2,0-0.3,0.1-0.5c0.1-0.1,0.2-0.2,0.4-0.3c0.2-0.1,0.4-0.1,0.6-0.1
		c0.2,0,0.4,0,0.6,0.1c0.2,0.1,0.3,0.2,0.4,0.3c0.1,0.1,0.1,0.3,0.1,0.5c0,0.1,0,0.3-0.1,0.4c-0.1,0.1-0.2,0.2-0.3,0.3
		C85.6,25.7,85.7,25.8,85.8,25.9z M85.2,26.7c0.1-0.1,0.2-0.2,0.2-0.4c0-0.2-0.1-0.3-0.2-0.4c-0.1-0.1-0.3-0.1-0.5-0.1
		s-0.4,0-0.5,0.1S84,26.2,84,26.4c0,0.2,0.1,0.3,0.2,0.4s0.3,0.1,0.5,0.1S85,26.8,85.2,26.7z M84.2,24.7c-0.1,0.1-0.2,0.2-0.2,0.3
		c0,0.1,0.1,0.2,0.2,0.3c0.1,0.1,0.3,0.1,0.4,0.1c0.2,0,0.3,0,0.4-0.1c0.1-0.1,0.2-0.2,0.2-0.3c0-0.1-0.1-0.2-0.2-0.3
		c-0.1-0.1-0.3-0.1-0.4-0.1S84.3,24.6,84.2,24.7z"/>
	<path class="st2" d="M87,27.1c-0.2-0.1-0.4-0.3-0.5-0.6c-0.1-0.2-0.2-0.5-0.2-0.9s0.1-0.6,0.2-0.9c0.1-0.2,0.3-0.4,0.5-0.6
		c0.2-0.1,0.4-0.2,0.7-0.2s0.5,0.1,0.7,0.2c0.2,0.1,0.4,0.3,0.5,0.6c0.1,0.2,0.2,0.5,0.2,0.9s-0.1,0.6-0.2,0.9
		c-0.1,0.2-0.3,0.4-0.5,0.6c-0.2,0.1-0.4,0.2-0.7,0.2S87.2,27.3,87,27.1z M88.2,26.5c0.1-0.2,0.2-0.5,0.2-0.8s-0.1-0.6-0.2-0.8
		c-0.1-0.2-0.3-0.3-0.5-0.3c-0.2,0-0.4,0.1-0.5,0.3c-0.1,0.2-0.2,0.5-0.2,0.8s0.1,0.6,0.2,0.8c0.1,0.2,0.3,0.3,0.5,0.3
		C87.9,26.8,88,26.7,88.2,26.5z"/>
</g>
<g class="st1">
	<path class="st2" d="M85.8,34.1v0.4l-1.2,2.8h-0.6l1.2-2.7h-1.2v0.5h-0.5v-1H85.8z"/>
	<path class="st2" d="M86.7,37.1c-0.2-0.1-0.4-0.3-0.5-0.6C86.1,36.3,86,36,86,35.7s0.1-0.6,0.2-0.9c0.1-0.2,0.3-0.4,0.5-0.6
		c0.2-0.1,0.4-0.2,0.7-0.2s0.5,0.1,0.7,0.2c0.2,0.1,0.4,0.3,0.5,0.6c0.1,0.2,0.2,0.5,0.2,0.9s-0.1,0.6-0.2,0.9
		c-0.1,0.2-0.3,0.4-0.5,0.6c-0.2,0.1-0.4,0.2-0.7,0.2S86.9,37.3,86.7,37.1z M87.9,36.5c0.1-0.2,0.2-0.5,0.2-0.8s-0.1-0.6-0.2-0.8
		c-0.1-0.2-0.3-0.3-0.5-0.3c-0.2,0-0.4,0.1-0.5,0.3c-0.1,0.2-0.2,0.5-0.2,0.8s0.1,0.6,0.2,0.8c0.1,0.2,0.3,0.3,0.5,0.3
		C87.6,36.8,87.8,36.7,87.9,36.5z"/>
</g>
<g class="st1">
	<path class="st2" d="M85.4,45.5c0.2,0.1,0.3,0.2,0.4,0.3c0.1,0.1,0.1,0.3,0.1,0.5c0,0.2-0.1,0.4-0.2,0.5c-0.1,0.2-0.2,0.3-0.4,0.4
		c-0.2,0.1-0.4,0.1-0.6,0.1c-0.4,0-0.8-0.1-1-0.4c-0.2-0.3-0.4-0.7-0.4-1.2c0-0.4,0.1-0.7,0.2-0.9c0.1-0.3,0.3-0.4,0.5-0.6
		c0.2-0.1,0.5-0.2,0.8-0.2c0.2,0,0.3,0,0.5,0.1s0.3,0.1,0.4,0.2l-0.2,0.4c-0.2-0.1-0.4-0.2-0.6-0.2c-0.3,0-0.5,0.1-0.7,0.3
		C84.1,45,84,45.3,84,45.7v0c0.1-0.1,0.2-0.2,0.4-0.2c0.1-0.1,0.3-0.1,0.5-0.1C85,45.3,85.2,45.4,85.4,45.5z M85.2,46.7
		c0.1-0.1,0.2-0.2,0.2-0.4c0-0.2-0.1-0.3-0.2-0.4c-0.1-0.1-0.3-0.1-0.5-0.1c-0.2,0-0.3,0.1-0.5,0.2c-0.1,0.1-0.2,0.2-0.2,0.4
		c0,0.2,0.1,0.3,0.2,0.4c0.1,0.1,0.3,0.2,0.5,0.2C84.9,46.9,85.1,46.8,85.2,46.7z"/>
	<path class="st2" d="M86.9,47.1c-0.2-0.1-0.4-0.3-0.5-0.6c-0.1-0.2-0.2-0.5-0.2-0.9s0.1-0.6,0.2-0.9c0.1-0.2,0.3-0.4,0.5-0.6
		c0.2-0.1,0.4-0.2,0.7-0.2s0.5,0.1,0.7,0.2c0.2,0.1,0.4,0.3,0.5,0.6c0.1,0.2,0.2,0.5,0.2,0.9s-0.1,0.6-0.2,0.9
		c-0.1,0.2-0.3,0.4-0.5,0.6c-0.2,0.1-0.4,0.2-0.7,0.2S87.1,47.3,86.9,47.1z M88.1,46.5c0.1-0.2,0.2-0.5,0.2-0.8s-0.1-0.6-0.2-0.8
		c-0.1-0.2-0.3-0.3-0.5-0.3c-0.2,0-0.4,0.1-0.5,0.3c-0.1,0.2-0.2,0.5-0.2,0.8s0.1,0.6,0.2,0.8c0.1,0.2,0.3,0.3,0.5,0.3
		C87.8,46.8,87.9,46.7,88.1,46.5z"/>
</g>
<g class="st1">
	<path class="st2" d="M85.4,55.6c0.2,0.2,0.3,0.4,0.3,0.7c0,0.2,0,0.4-0.1,0.5c-0.1,0.2-0.2,0.3-0.4,0.4c-0.2,0.1-0.4,0.1-0.7,0.1
		c-0.2,0-0.4,0-0.7-0.1s-0.4-0.2-0.5-0.3l0.2-0.5c0.1,0.1,0.3,0.2,0.4,0.2c0.2,0.1,0.3,0.1,0.5,0.1c0.2,0,0.4,0,0.5-0.1
		s0.2-0.2,0.2-0.4c0-0.2-0.1-0.3-0.2-0.4c-0.1-0.1-0.3-0.1-0.7-0.1h-0.8l0.2-1.7h1.8v0.5h-1.4l-0.1,0.7h0.3
		C84.8,55.4,85.1,55.4,85.4,55.6z"/>
	<path class="st2" d="M86.7,57.1c-0.2-0.1-0.4-0.3-0.5-0.6C86.1,56.3,86,56,86,55.7s0.1-0.6,0.2-0.9c0.1-0.2,0.3-0.4,0.5-0.6
		c0.2-0.1,0.4-0.2,0.7-0.2s0.5,0.1,0.7,0.2c0.2,0.1,0.4,0.3,0.5,0.6c0.1,0.2,0.2,0.5,0.2,0.9s-0.1,0.6-0.2,0.9
		c-0.1,0.2-0.3,0.4-0.5,0.6c-0.2,0.1-0.4,0.2-0.7,0.2S86.9,57.3,86.7,57.1z M87.9,56.5c0.1-0.2,0.2-0.5,0.2-0.8s-0.1-0.6-0.2-0.8
		c-0.1-0.2-0.3-0.3-0.5-0.3c-0.2,0-0.4,0.1-0.5,0.3c-0.1,0.2-0.2,0.5-0.2,0.8s0.1,0.6,0.2,0.8c0.1,0.2,0.3,0.3,0.5,0.3
		C87.6,56.8,87.7,56.7,87.9,56.5z"/>
</g>
<g class="st1">
	<path class="st2" d="M86.2,66.6h-0.6v0.7h-0.6v-0.7h-1.7v-0.4l1.6-2h0.6l-1.5,1.9h1v-0.6h0.5v0.6h0.6V66.6z"/>
	<path class="st2" d="M87.1,67.1c-0.2-0.1-0.4-0.3-0.5-0.6c-0.1-0.2-0.2-0.5-0.2-0.9s0.1-0.6,0.2-0.9c0.1-0.2,0.3-0.4,0.5-0.6
		c0.2-0.1,0.4-0.2,0.7-0.2s0.5,0.1,0.7,0.2c0.2,0.1,0.4,0.3,0.5,0.6c0.1,0.2,0.2,0.5,0.2,0.9s-0.1,0.6-0.2,0.9
		c-0.1,0.2-0.3,0.4-0.5,0.6c-0.2,0.1-0.4,0.2-0.7,0.2S87.3,67.3,87.1,67.1z M88.3,66.5c0.1-0.2,0.2-0.5,0.2-0.8s-0.1-0.6-0.2-0.8
		c-0.1-0.2-0.3-0.3-0.5-0.3c-0.2,0-0.4,0.1-0.5,0.3c-0.1,0.2-0.2,0.5-0.2,0.8s0.1,0.6,0.2,0.8c0.1,0.2,0.3,0.3,0.5,0.3
		C88,66.8,88.2,66.7,88.3,66.5z"/>
</g>
<g class="st1">
	<path class="st2" d="M85.4,75.7c0.2,0.2,0.2,0.4,0.2,0.6c0,0.2,0,0.3-0.1,0.5c-0.1,0.2-0.2,0.3-0.4,0.4c-0.2,0.1-0.4,0.1-0.7,0.1
		c-0.2,0-0.4,0-0.7-0.1s-0.4-0.2-0.5-0.3l0.3-0.5c0.1,0.1,0.3,0.2,0.4,0.2c0.2,0.1,0.3,0.1,0.5,0.1c0.2,0,0.4,0,0.5-0.1
		c0.1-0.1,0.2-0.2,0.2-0.3c0-0.1-0.1-0.3-0.2-0.3c-0.1-0.1-0.3-0.1-0.5-0.1h-0.3v-0.4l0.7-0.9h-1.4v-0.5h2.1v0.4l-0.8,0.9
		C85,75.5,85.2,75.6,85.4,75.7z"/>
	<path class="st2" d="M86.6,77.1c-0.2-0.1-0.4-0.3-0.5-0.6c-0.1-0.2-0.2-0.5-0.2-0.9s0.1-0.6,0.2-0.9s0.3-0.4,0.5-0.6
		c0.2-0.1,0.4-0.2,0.7-0.2s0.5,0.1,0.7,0.2c0.2,0.1,0.4,0.3,0.5,0.6s0.2,0.5,0.2,0.9s-0.1,0.6-0.2,0.9c-0.1,0.2-0.3,0.4-0.5,0.6
		c-0.2,0.1-0.4,0.2-0.7,0.2S86.8,77.3,86.6,77.1z M87.9,76.5c0.1-0.2,0.2-0.5,0.2-0.8s-0.1-0.6-0.2-0.8c-0.1-0.2-0.3-0.3-0.5-0.3
		c-0.2,0-0.4,0.1-0.5,0.3c-0.1,0.2-0.2,0.5-0.2,0.8s0.1,0.6,0.2,0.8c0.1,0.2,0.3,0.3,0.5,0.3C87.5,76.8,87.7,76.7,87.9,76.5z"/>
</g>
<g class="st1">
	<path class="st2" d="M85.7,86.8v0.5h-2.3v-0.4l1.3-1.2c0.1-0.1,0.2-0.3,0.3-0.4c0-0.1,0.1-0.2,0.1-0.3c0-0.1,0-0.3-0.1-0.3
		c-0.1-0.1-0.2-0.1-0.4-0.1c-0.3,0-0.6,0.1-0.7,0.3l-0.4-0.3c0.1-0.2,0.3-0.3,0.5-0.4c0.2-0.1,0.4-0.1,0.7-0.1
		c0.3,0,0.6,0.1,0.8,0.2s0.3,0.4,0.3,0.7c0,0.2,0,0.3-0.1,0.5c-0.1,0.2-0.2,0.3-0.4,0.5l-0.8,0.8H85.7z"/>
	<path class="st2" d="M86.6,87.1c-0.2-0.1-0.4-0.3-0.5-0.6c-0.1-0.2-0.2-0.5-0.2-0.9s0.1-0.6,0.2-0.9c0.1-0.2,0.3-0.4,0.5-0.6
		s0.4-0.2,0.7-0.2s0.5,0.1,0.7,0.2s0.4,0.3,0.5,0.6c0.1,0.2,0.2,0.5,0.2,0.9s-0.1,0.6-0.2,0.9c-0.1,0.2-0.3,0.4-0.5,0.6
		c-0.2,0.1-0.4,0.2-0.7,0.2S86.8,87.3,86.6,87.1z M87.8,86.5c0.1-0.2,0.2-0.5,0.2-0.8s-0.1-0.6-0.2-0.8c-0.1-0.2-0.3-0.3-0.5-0.3
		c-0.2,0-0.4,0.1-0.5,0.3c-0.1,0.2-0.2,0.5-0.2,0.8s0.1,0.6,0.2,0.8c0.1,0.2,0.3,0.3,0.5,0.3C87.5,86.8,87.7,86.7,87.8,86.5z"/>
</g>
<g class="st1">
	<path class="st2" d="M84.5,94.1v3.2h-0.6v-2.7h-0.7v-0.5H84.5z"/>
	<path class="st2" d="M85.7,97.1c-0.2-0.1-0.4-0.3-0.5-0.6c-0.1-0.2-0.2-0.5-0.2-0.9s0.1-0.6,0.2-0.9s0.3-0.4,0.5-0.6
		c0.2-0.1,0.4-0.2,0.7-0.2s0.5,0.1,0.7,0.2c0.2,0.1,0.4,0.3,0.5,0.6s0.2,0.5,0.2,0.9s-0.1,0.6-0.2,0.9c-0.1,0.2-0.3,0.4-0.5,0.6
		c-0.2,0.1-0.4,0.2-0.7,0.2S85.9,97.3,85.7,97.1z M87,96.5c0.1-0.2,0.2-0.5,0.2-0.8s-0.1-0.6-0.2-0.8c-0.1-0.2-0.3-0.3-0.5-0.3
		c-0.2,0-0.4,0.1-0.5,0.3c-0.1,0.2-0.2,0.5-0.2,0.8s0.1,0.6,0.2,0.8c0.1,0.2,0.3,0.3,0.5,0.3C86.6,96.8,86.8,96.7,87,96.5z"/>
</g>
<g class="st1">
	<path class="st2" d="M84,107.1c-0.2-0.1-0.4-0.3-0.5-0.6c-0.1-0.2-0.2-0.5-0.2-0.9s0.1-0.6,0.2-0.9s0.3-0.4,0.5-0.6
		c0.2-0.1,0.4-0.2,0.7-0.2s0.5,0.1,0.7,0.2c0.2,0.1,0.4,0.3,0.5,0.6s0.2,0.5,0.2,0.9s-0.1,0.6-0.2,0.9c-0.1,0.2-0.3,0.4-0.5,0.6
		c-0.2,0.1-0.4,0.2-0.7,0.2S84.2,107.3,84,107.1z M85.2,106.5c0.1-0.2,0.2-0.5,0.2-0.8s-0.1-0.6-0.2-0.8c-0.1-0.2-0.3-0.3-0.5-0.3
		c-0.2,0-0.4,0.1-0.5,0.3c-0.1,0.2-0.2,0.5-0.2,0.8s0.1,0.6,0.2,0.8c0.1,0.2,0.3,0.3,0.5,0.3C84.9,106.8,85.1,106.7,85.2,106.5z"/>
</g>
</svg>
