<svg id="Layer_1" data-name="Layer 1" xmlns="http://www.w3.org/2000/svg" viewBox="0 0 60 60"><defs><style>.cls-1{fill:#ff8831;}</style></defs><path class="cls-1" d="M47.6,28.65a1,1,0,0,0-2.07,0,6.22,6.22,0,0,1-6.21,6.22,1,1,0,1,0,0,2.07A8.29,8.29,0,0,0,47.6,28.65Z"/><path class="cls-1" d="M26,38.75c-.55.82-5.35,8.15-5.35,11.23a6.47,6.47,0,0,0,6.21,6.53A6.47,6.47,0,0,0,33.11,50c0-3.08-4.81-10.41-5.35-11.23a1.06,1.06,0,0,0-.87-.47A1,1,0,0,0,26,38.75ZM31,50a4.42,4.42,0,0,1-4.15,4.46A4.42,4.42,0,0,1,22.75,50c0-1.59,2.28-5.76,4.14-8.75C28.76,44.22,31,48.39,31,50Z"/><path class="cls-1" d="M15.5,20.68a1,1,0,0,0-.85.45c-.65.95-6.39,9.36-6.39,13a7.25,7.25,0,1,0,14.49,0c0-3.65-5.74-12.06-6.39-13A1.06,1.06,0,0,0,15.5,20.68Zm0,18.64a5.18,5.18,0,0,1-5.17-5.18c0-2,2.89-7.08,5.17-10.57,2.29,3.49,5.18,8.57,5.18,10.57A5.18,5.18,0,0,1,15.5,39.32Z"/><path class="cls-1" d="M29,27.62a1,1,0,0,1-2.07,0,1,1,0,1,1,2.07,0Z"/><path class="cls-1" d="M40.19,4a1,1,0,0,0-1.74,0c-.3.47-7.34,11.53-10.28,19.32a1,1,0,0,0,.61,1.34A1,1,0,0,0,30.11,24c2.26-6,7.21-14.28,9.21-17.54,3.54,5.73,10.35,17.67,10.35,22.17a10.35,10.35,0,0,1-20.32,2.81,1,1,0,0,0-2,.56,12.43,12.43,0,0,0,24.39-3.37C51.74,23,43.14,8.59,40.19,4Z"/></svg>