<svg id="Layer_1" data-name="Layer 1" xmlns="http://www.w3.org/2000/svg" viewBox="0 0 60 60"><defs><style>.cls-1{fill:#ff8831;}</style></defs><path class="cls-1" d="M41.86,30.74H39.64V29.65c1.79-.65,3-1.5,3-2.61v-.23l-3-4.51c-.4-2.45-5.9-3.45-8.57-3.78l-2.24-2,3.59-4.78A3,3,0,0,0,33,10a3,3,0,0,0-3-3,2.36,2.36,0,0,0-1.86,1c-.32.37-.45.49-.74.49S27,8.39,26.66,8A2.22,2.22,0,0,0,23,8c-.32.37-.45.49-.73.49s-.42-.12-.74-.49a2.36,2.36,0,0,0-1.86-1,3,3,0,0,0-3,3,3,3,0,0,0,.59,1.78l3.59,4.78-2.24,2c-2.66.34-8.16,1.34-8.57,3.79L7,26.81V27c0,1.11,1.18,2,3,2.61V48.53C10,51.45,17.45,53,24.81,53a43.6,43.6,0,0,0,9.57-1,11,11,0,0,0,4.51,1h3a11.12,11.12,0,0,0,0-22.24Zm-3.71,0a11.21,11.21,0,0,0-3,.61v-.67c1.05-.17,2.05-.37,3-.61ZM28.08,40.24a15.29,15.29,0,0,0,.85,6.51,28.3,28.3,0,0,1-4.12.3c-5.52,0-8.89-1.44-8.89-2.23V30.93a73.59,73.59,0,0,0,8.89.55,73.75,73.75,0,0,0,8.9-.55V32a9.89,9.89,0,0,0-5.66,9.83m10.1-19.27c0,.53-1.31,1.32-3.79,1.95a9.41,9.41,0,0,0-1.71-4.27c3.74.68,5.5,1.73,5.5,2.32ZM18.14,10a1.48,1.48,0,0,1,1.48-1.48c.29,0,.42.12.74.48a2.22,2.22,0,0,0,3.71,0c.32-.36.45-.48.74-.48s.41.12.74.48a2.22,2.22,0,0,0,3.71,0c.32-.36.45-.48.74-.48A1.48,1.48,0,0,1,31.48,10a1.5,1.5,0,0,1-.29.89l-3.78,5H22.22l-3.78-5a1.45,1.45,0,0,1-.3-.89Zm4,7.41H27.5l2.76,2.42a7.88,7.88,0,0,1,2.64,5,42.81,42.81,0,0,1-8.09.69,42.81,42.81,0,0,1-8.09-.69,8,8,0,0,1,2.65-5.05ZM17,20.27a9.52,9.52,0,0,0-1.71,4.27c-2.48-.63-3.79-1.42-3.79-1.95S13.24,21,17,20.27ZM8.56,27.18,10.67,24c2,2,8.09,3,14.14,3S37,26,39,24l2.1,3.16c-.53.76-5,2.82-16.25,2.82S9.1,27.94,8.56,27.18ZM24.81,51.49c-8.63,0-13.34-2-13.34-3V30.11c.91.24,1.91.44,3,.61v14.1c0,2.44,5.22,3.71,10.37,3.71a29.11,29.11,0,0,0,4.91-.41,11,11,0,0,0,2.72,2.77,45.61,45.61,0,0,1-7.63.6Zm4.45-9.63a9.63,9.63,0,0,1,6-8.91,11.07,11.07,0,0,0,0,17.82A9.63,9.63,0,0,1,29.26,41.86Zm12.6,9.63a9.64,9.64,0,1,1,9.63-9.63A9.65,9.65,0,0,1,41.86,51.49Z"/><path class="cls-1" d="M35.19,41.86H33.71A8.16,8.16,0,0,0,41.86,50V48.53A6.67,6.67,0,0,1,35.19,41.86Z"/><path class="cls-1" d="M36.36,39.64l7.72,7.71,3.27-3.27-7.71-7.72Zm7.72,5.62-5.62-5.62,1.18-1.18,5.62,5.62Z"/></svg>