<?xml version="1.0" encoding="utf-8"?>
<!-- Generator: Adobe Illustrator 23.1.1, SVG Export Plug-In . SVG Version: 6.00 Build 0)  -->
<svg version="1.1" id="Camada_1" xmlns="http://www.w3.org/2000/svg" xmlns:xlink="http://www.w3.org/1999/xlink" x="0px" y="0px"
	 viewBox="0 0 182.9 127.6" style="enable-background:new 0 0 182.9 127.6;" xml:space="preserve">
<style type="text/css">
	.st0{fill:#F6C042;}
	.st1{fill:#EA8D4F;}
</style>
<g id="Layer_1">
</g>
<g>
	<g id="Isolation_Mode">
		<g>
			<path class="st0" d="M104.8,34.1H78.2c-9.8,0-17.9,8.1-17.9,17.9v26.6c0,9.8,8.1,17.9,17.9,17.9h26.6c9.8,0,17.9-8.1,17.9-17.9
				V51.9C122.7,42.1,114.6,34.1,104.8,34.1z"/>
			
				<image style="overflow:visible;opacity:0.6;enable-background:new    ;" width="330" height="51" xlink:href="91BFD8BE6B3CBE1F.png"  transform="matrix(0.3436 0 0 0.3436 34.7938 103.9262)">
			</image>
			<path class="st1" d="M133.5,38.6c2.1-2.1,2.1-5.7,0-7.8l-9.3-9.3c-2.1-2.1-5.7-2.1-7.8,0L82.9,55.1c-2.1,2.1-5.7,2.1-7.8,0
				l-8.6-8.6c-2.1-2.1-5.7-2.1-7.8,0l-9.3,9.3c-2.1,2.1-2.1,5.7,0,7.8l25.7,25.7c2.1,2.1,5.7,2.1,7.8,0L133.5,38.6z"/>
		</g>
	</g>
	<g id="Layer_5">
	</g>
</g>
</svg>
