<?xml version="1.0" encoding="utf-8"?>
<!-- Generator: Adobe Illustrator 23.1.1, SVG Export Plug-In . SVG Version: 6.00 Build 0)  -->
<svg version="1.1" id="Camada_1" xmlns="http://www.w3.org/2000/svg" xmlns:xlink="http://www.w3.org/1999/xlink" x="0px" y="0px"
	 viewBox="0 0 1256.4 572.3" style="enable-background:new 0 0 1256.4 572.3;" xml:space="preserve">
<style type="text/css">
	.st0{fill:#FFF9DE;}
	.st1{fill:none;stroke:#F28D47;stroke-width:2;stroke-miterlimit:10;}
	.st2{fill:#904B27;}
	.st3{fill:#FFFFFF;}
	.st4{font-family:'Montserrat-ExtraBold';}
	.st5{font-size:30px;}
	.st6{font-family:'Montserrat-Bold';}
	.st7{font-size:20px;}
	.st8{font-family:'Montserrat-Regular';}
	.st9{font-size:23px;}
	.st10{fill:none;stroke:#F28D47;stroke-width:3;stroke-miterlimit:10;}
	.st11{fill:none;}
	.st12{font-family:'Montserrat-Medium';}
	.st13{font-size:24px;}
</style>
<g>
	<rect x="19.7" y="161.6" class="st0" width="1210.6" height="73"/>
	<line class="st1" x1="23.1" y1="232.7" x2="1230.3" y2="232.7"/>
</g>
<g>
	<rect x="19.7" y="435.6" class="st0" width="1210.6" height="73"/>
	<line class="st1" x1="23.1" y1="506.7" x2="1230.3" y2="506.7"/>
</g>
<g>
	<rect x="19.7" y="299.6" class="st0" width="1210.6" height="73"/>
	<line class="st1" x1="23.1" y1="370.7" x2="1230.3" y2="370.7"/>
</g>
<g id="Y4zh0g.tif">
	
		<image style="overflow:visible;enable-background:new    ;" width="1176" height="933" id="Layer_0" xlink:href="../3BD279FD3BE56C67.png"  transform="matrix(1.4688 0 0 1.4688 -3313.9556 257.7646)">
	</image>
</g>
<path class="st2" d="M1236.4,89.6c0.4-0.8,0.6-36.2,0.6-37.1V15.9H19v36.6c0,0.9,0.2,36.2,0.6,37.1H1236.4z"/>
<text transform="matrix(1 0 0 1 172.4604 61.609)" class="st3 st4 st5">FREQUÊNCIA RESPIRATÓRIA (POR MINUTO) EM CRIANÇAS</text>
<text transform="matrix(1 0 0 1 424.3672 549.0502)" class="st2 st6 st7">Fonte: </text>
<text transform="matrix(1 0 0 1 496.2672 549.0502)" class="st2 st8 st7">American Heart Association, 2015.</text>
<line class="st1" x1="608.6" y1="89.6" x2="608.6" y2="506.3"/>
<line class="st1" x1="19" y1="160.4" x2="1228.5" y2="160.4"/>
<text transform="matrix(1 0 0 1 267.8191 139.6246)" class="st2 st4 st9">IDADE                                                                        FREQUÊNCIA</text>
<line class="st10" x1="19" y1="505.4" x2="1230.3" y2="505.4"/>
<rect x="167.6" y="187" class="st11" width="280.2" height="300.2"/>
<text transform="matrix(1 0 0 1 235.6817 204.8386)" class="st12 st13">1 a 12 meses</text>
<text transform="matrix(1 0 0 1 240.0817 272.8386)" class="st12 st13">1 a 2 meses</text>
<text transform="matrix(1 0 0 1 248.0817 340.8386)" class="st12 st13">3 a 5 anos</text>
<text transform="matrix(1 0 0 1 258.7817 408.8386)" class="st12 st13">Escolarr</text>
<text transform="matrix(1 0 0 1 231.7817 476.8386)" class="st12 st13">Adolescente</text>
<rect x="584.4" y="292.5" width="9.5" height="1.5"/>
<line class="st1" x1="23.1" y1="298.7" x2="1230.3" y2="298.7"/>
<line class="st1" x1="23.1" y1="433.7" x2="1230.3" y2="433.7"/>
<rect x="739.6" y="187" class="st11" width="325" height="300.2"/>
<text transform="matrix(1 0 0 1 859.8643 204.8386)" class="st12 st13">30 a 53</text>
<text transform="matrix(1 0 0 1 860.6643 272.8386)" class="st12 st13">22 a 37</text>
<text transform="matrix(1 0 0 1 858.9643 340.8386)" class="st12 st13">20 a 28</text>
<text transform="matrix(1 0 0 1 862.5643 408.8386)" class="st12 st13">18 a 25</text>
<text transform="matrix(1 0 0 1 862.2643 476.8386)" class="st12 st13">12 a 20</text>
<g id="sn57nT_1_">
	
		<image style="overflow:visible;enable-background:new    ;" width="1141" height="600" id="sn57nT" xlink:href="../3BD279FD3BE56C65.png"  transform="matrix(0.7571 0 0 0.7571 168.433 618.9358)">
	</image>
</g>
</svg>
