<?xml version="1.0" encoding="utf-8"?>
<!-- Generator: Adobe Illustrator 23.1.1, SVG Export Plug-In . SVG Version: 6.00 Build 0)  -->
<svg version="1.1" id="Camada_1" xmlns="http://www.w3.org/2000/svg" xmlns:xlink="http://www.w3.org/1999/xlink" x="0px" y="0px"
	 viewBox="0 0 135.4 134.3" style="enable-background:new 0 0 135.4 134.3;" xml:space="preserve">
<style type="text/css">
	.st0{fill:#FFFFFF;}
	.st1{fill:#999999;}
</style>
<g>
	<path class="st0" d="M68.3,125c-15.2,0-29.6-5.9-40.4-16.7S11.2,83.2,11.2,67.9c0-15.2,5.9-29.6,16.7-40.4
		c10.8-10.8,25.1-16.7,40.4-16.7s29.6,5.9,40.4,16.7c10.8,10.8,16.7,25.1,16.7,40.4c0,15.2-5.9,29.6-16.7,40.4
		C97.9,119.1,83.5,125,68.3,125z"/>
	
		<ellipse transform="matrix(0.7071 -0.7071 0.7071 0.7071 -28.0349 68.1965)" class="st1" cx="68.3" cy="67.9" rx="53.1" ry="53.1"/>
	<g>
		<path class="st0" d="M68.3,43.7c-14.1,0-26.6,6.7-34.6,17.1l4.7,4.7c6.7-9.2,17.6-15.2,29.9-15.2c12.3,0,23.1,6,29.9,15.2l4.7-4.7
			C94.9,50.4,82.4,43.7,68.3,43.7z"/>
		<path class="st0" d="M68.3,55.2C57,55.2,47,60.8,40.9,69.4l4.8,4.8c4.8-7.4,13.1-12.3,22.6-12.3c9.5,0,17.8,4.9,22.6,12.3l4.8-4.8
			C89.6,60.8,79.6,55.2,68.3,55.2z"/>
		<path class="st0" d="M68.3,67.2c-8,0-15,4.4-18.7,10.9l4.9,4.9c2.2-5.4,7.6-9.2,13.7-9.2c6.2,0,11.5,3.8,13.7,9.2l4.9-4.9
			C83.3,71.6,76.3,67.2,68.3,67.2z"/>
		<path class="st0" d="M68.3,93.8l8.5-8.5c-2.2-2.2-5.2-3.5-8.5-3.5c-3.3,0-6.3,1.3-8.5,3.5L68.3,93.8z"/>
	</g>
</g>
<rect x="10.6" y="64" transform="matrix(0.6629 -0.7487 0.7487 0.6629 -26.9028 73.1528)" class="st0" width="114.4" height="5"/>
</svg>
