<?xml version="1.0" encoding="utf-8"?>
<!-- Generator: Adobe Illustrator 23.1.1, SVG Export Plug-In . SVG Version: 6.00 Build 0)  -->
<svg version="1.1" id="Layer_1" xmlns="http://www.w3.org/2000/svg" xmlns:xlink="http://www.w3.org/1999/xlink" x="0px" y="0px"
	 viewBox="0 0 200 200" style="enable-background:new 0 0 200 200;" xml:space="preserve">
<style type="text/css">
	.st0{fill-rule:evenodd;clip-rule:evenodd;fill:#9A604A;}
	.st1{fill-rule:evenodd;clip-rule:evenodd;fill:#FEDAB6;}
	.st2{fill-rule:evenodd;clip-rule:evenodd;fill:#CCF8FF;}
	.st3{fill-rule:evenodd;clip-rule:evenodd;fill:#FFFFFF;}
</style>
<g>
	<path class="st0" d="M91.1,68.4c-0.4,0.6-0.1,1.4-0.4,2.3c0.6,1,1.6,1.5,3.2,1.3C97.2,70.3,92.8,65.7,91.1,68.4z"/>
	<path class="st0" d="M116.6,70.8c0.4-0.8,0.8-1.5,0.5-2.3c-0.6-1.8-3.2-0.4-3.1,1.2C114.1,70.7,115.2,71.2,116.6,70.8z"/>
	<path class="st0" d="M185.4,130.5L185.4,130.5C185.4,130.5,185.4,130.4,185.4,130.5c-0.3-0.1-0.6-0.3-0.6-0.7c0-0.1,0-0.1,0-0.2
		c0,0,0,0,0,0c0-0.1,0.1-0.2,0.1-0.3c0-0.1,0-0.1,0-0.2c0,0,0-0.1,0-0.1c0.4-1,1-1.9,1.5-2.9c-0.2,0-0.5,0-0.7,0
		c-1.1,0-2.3,0-3.4-0.1c-3.3-0.3-3.4-5.3,0-5.3c1.1,0,2.2,0.1,3.4,0.1c0.6,0,1.2,0,1.7-0.1c0.7-3.6,0.5-7.3,0.2-11
		c-0.1-1.6-0.4-3.5-0.1-5.2c-0.1-0.8-0.2-1.7-0.4-2.5c-0.7-3.6-1.3-7.3-2.7-10.7c-0.2-0.4,0-0.6,0.3-0.8c0,0,0,0,0-0.1
		c1.2-0.3,2.4-0.7,3.4-1.2c-2.2,0.1-3.9-0.4-6.4-0.3c-5.7,0.3-11.9,1.4-17.3,0.9c-0.1-2.7-1.2-4.4-4.3-4.2c-0.2-2.7-3.1-4.9-6.8-3.9
		c-1.4,0.4-1.7,2.3-2.7,3.1c-0.9-0.9-2.6-1.5-4.4-1.1c-0.1-0.4-0.1-1-0.3-1.5c-0.8-1.8-4.7-4.7-6.6-5.1c-2.1-0.5-4.4,0.2-5.8,0.9
		c-2.3,1.2-2.6,4.4-3.8,6.6c-2.2-1.7-4.5-3.2-7.1-4.5c0.1-1.8-0.3-3.3-1.5-3.9c0.2-3.9-1.9-6-5.4-5.2c-1.3,0.3-2.3,1.5-3.3,1.9
		c-0.1-1.8,0-3.6-0.8-4.7c-2.3-2.9-7.4-0.7-8.7,2.1c-2.4-3.5-7.8,1.2-7,4.8c-2.8-0.6-6.6-1.8-9.6-1.6c-1.4,0.1-2.8,0.8-4.3,0.8
		c-0.5-0.9-1.4-1.4-1.7-2.4c-1.6-2.1-4.4-2.8-7.2-3.6c0.5-0.7-0.3-1-0.5-1.5c0.9-1.5,0.2-3.6,0.5-5.5c0.1-0.7,0.9-1.5,1.3-2.3
		c1.5-3.1,1.2-8.1-1.1-10.7c-0.4-0.1-0.6,0.1-0.9,0.1c-0.2-2.1-3.5-0.9-4.3-0.1c-0.7,0.7-1.1,2.3-1.6,3.6c-1.1,2.7-2.2,4.5-3.3,7.1
		c-0.6,1.3-1.4,2.5-1.7,3.5c-1.4,3.9-0.4,11.5,1.1,13.3c-0.8-0.5-2.3,0-3.1-0.3c0.2-4-1.1-6.6-2.1-9.4c0.6-1.8,2.2-4.1,2-6.7
		c-0.1-1.7-1.3-4-1.7-5.6c-0.3-1.3-1.2-3.2-3.2-3.6c-0.5-0.1-1.6,0.1-2.4,0.1c-1.6,0-1.9,0.7-2.7,2.3c-0.4,3-1.5,6-2.3,9.2
		c-0.8,3.3-1.2,6.7-1.7,10.2c-0.1,0.8-0.7,1.5-0.9,2.3c-0.5,1.8,0.1,3.9,0,5.6c0.6,0.8,1.2,2.3,1.6,2.8c-0.8-0.3-2-0.3-2.5-0.9
		c-0.4-6-1.8-12.3-3.9-17.1c0.3-1.4,1.8-2.3,2.3-4c0.8-3-0.1-8-0.4-10.2c-0.8-1.2-1.9-2.1-3.1-2.9c-0.6-0.4-1-0.8-1.5-0.8
		c-0.9,0-2.2,1.8-3.1,2.8c-3.4,4-6.8,8.1-8.4,12.9c1.1,3.9-0.3,8-0.5,12c-0.2,4.6,1,7.1,1.3,11.1c0.6,0.5,1.3,1.1,1.3,2.1
		c-0.9-0.5-1.8-1.1-2.7-1.6c-0.8-3.1-2.6-5.1-3.3-8.2c-1.5-1.9-2.3-4.8-4.4-6.4c-0.4-0.3-1.1-0.5-1.6-0.8c-0.5-0.4-0.9-1-1.3-1.2
		c-2.5-1-6.1,0.5-6.6,2.3c-0.2,0.7,0.1,1,0.1,1.7c0.1,1.5-0.1,3.1,0,4.7c0.3,3.1,1.2,6.7,1.9,9.9c0.7,3.4,1.7,6.7,2.9,8.8
		c0.4,0.8,1.6,1.6,2.4,2.4c0.8,0.8,1.7,1.5,2.5,2.3c5.2,4.8,10.2,9.9,14.6,14.6c1.1-0.1,1.9,1.1,2.9,1.3c0.6,0.1,1.3-0.1,1.9,0
		c1.3,0.3,2.8,1.3,4.3,1.7c4.9,1.6,9.3,3,13,5.4c-1.4,1.3-3.4,1.6-4.8,2.7c-1.2,0.9-2.2,2.7-3.1,4.3c-1.5,2.9-2.8,5.9-2.7,9.9
		c0.9,1.1,1.6,3.1,3.1,3.7c2.9,1.4,6-0.8,8.7-1.6c2-0.6,3.9-1.6,5.9-2.1c4.5-1.2,9.7-0.3,14.5-1.1c1.9-0.3,4.4-1.4,6-1.2
		c1.2,0.2,3.4,2.4,4.6,3.3c2.3,1.8,4.8,3.1,9,2.8c0.4,0-0.3,0.4,0.1,0.4c3.8-0.7,7.8-2.2,11.4-3.5c2-2,6.2-2.5,9.8-1.6
		c0.7,0.2,0.4-0.3,0.5-0.4c1.6,1,1.8,3.3,2.5,5.1c1.6,1.3,3.3,2,6.3,2.1c1.2,0.1,2.6,0.4,3.2,0.3c1.5-0.2,2.7-1.4,3.9-1.9
		c1.7,2,4.2,4.3,7.8,3.9c2.7-0.3,4.1-2.5,5.5-4.3c0.4,1.6,1.8,2.3,2.9,3.2c3.9-0.3,8-1,10.7-2.8c0.8-0.6,1.2-1.6,2.3-1.6
		c0.8-0.8,1.1-1.9,1.9-2.8c0.3-0.4,0.9-0.6,1.2-1.1c0.3-0.5,0.4-1.5,0.7-2.1c0.7-1.6,2.1-5.2,3.2-5.6c1-0.3,2.6,0,3.9,0
		c5.2,0,9.2-0.6,13.3-1.2c0-0.6-0.4-0.7-0.5-1.2C185.8,130.5,185.6,130.5,185.4,130.5z"/>
	<path class="st1" d="M57.6,88.3c-1.2-2.5-0.8-6.4-3.3-7.5c0.1,1.7,1.6,4.2,0.8,5.4c-0.8-0.6-1-2-1.2-3.3c-0.2-1.2,0-3-1.3-3.2
		c0.2,0.8,1.1,3.3,0,3.3c0-1.2,0.1-2.4-0.4-3.6c0.6-0.2,0.8-0.9,1.6-0.9c0.5-0.1,0.6,0.8,0.9,0.4c-0.3-1.5,1.8-1.9,2.1-3.2
		c-0.5-2.8,0.5-6.2-0.8-8c-0.4-0.1-0.8,0.6-1.1,0.3c-0.1-2.4,2.2-4.4,2.4-7.5c0.2-3.4-1.8-8.7-5.1-7.6c-0.6,3.6-1.5,7.1-2.3,10.6
		c-1,4.5-2.3,8.2-2.8,12.9c0.6-0.3,1.5-0.6,1.6,0.3c-0.2,1.2-1.8,1.4-1.5,2.7c0.1,0.5,1,0,1.1,0.5c-0.1,0.4-0.5,0.4-0.4,0.9
		C51.1,83.2,54.2,86,57.6,88.3z"/>
	<path class="st2" d="M93.7,69.5c0.1,0.6,0,1-0.3,1.3c-0.6,0.1-1.1-0.1-1.5-0.3C92,69.7,92.7,69,93.7,69.5z"/>
	<path class="st2" d="M111.3,75.9c0.5,0.1,0.6,0.6,1.2,0.7c0.5-1.7,3.9-5.1,6.3-3.5c0.8,0.5,0.9,1.8,0.9,3.3
		c-0.5,0.7-1.4,0.5-1.5,1.3c-0.2,1.5,2.3,1.4,2.9,0.3c-0.1,0.8,0.2,1.2,0.1,2c-6.4-0.4-12.3-1.2-18.5-1.9c-1.2-1.1-3.1-1.5-4.6-2.3
		c-0.2-2.4,0.3-4.3,2.7-4.1c0.9,1.1,1.7,4.2,3.7,2.9c0.5,0.8,1,1.5,1.5,2.3c1.6-0.9,2-3.5-1.2-2.5c-0.4-3.8,2.3-4.4,5.1-5
		C111.6,70.6,110.8,73.9,111.3,75.9z"/>
	<path class="st1" d="M72.2,77.4c0.6,0,0.8,0.3,1.3,0.4c-0.5,1.1-1.4,1.7-2,2.7c-0.6-0.1-0.7-0.7-1.3-0.8
		C71.1,79.1,71.8,78.4,72.2,77.4z"/>
	<path class="st3" d="M89.2,83.5c-1.2,1.1-4.7,1.5-5.5-0.3c-0.1-1.1,0.1-1.8,0.5-2.3C86.1,80.3,89.8,80.3,89.2,83.5z"/>
	<path class="st1" d="M142.8,84.6c-0.9,0.2-3.1,0.1-2.9-0.8c-2.5,0.3-3.9-1.4-5.5-2.4c3.3-1.1,6.3,0.5,8.3,1.9
		C142.6,83.8,142.9,84,142.8,84.6z"/>
	<path class="st1" d="M134.1,82.1c0.5,0.4,1.2,0.7,1.5,1.3c-0.4,0.2-0.7,0.4-0.9,0.8C134,83.7,133.4,82.8,134.1,82.1z"/>
	<path class="st1" d="M58.4,83.5c0.5,0.3,1,0.5,1.5,0.8c0.4,2.4,1.4,4.3,2,6.4C59.2,89.9,59.6,85.9,58.4,83.5z"/>
	<path class="st2" d="M159,88.1c3.9-0.5,4.3,4.2,2.4,6.2c1.2,1.5,3.4,0.4,4.7,1.2c0.3,0.2,0.5,0.7,0.9,0.9c0.5,0.3,1,0.4,1.2,0.5
		c1.7,1.4,2.3,3.9,2.4,7.1c1.5,0.5,1.8-1.3,3.3-0.9c1,0.3,1.8,2.2,1.6,3.3c-0.3,1.9-2.8,2.1-4.8,1.3c-1.4,1.8,2.1,5.1,0.9,8.8
		c-1.4,2.4-5.7,1-7.5,0c-0.5-5.8,1.1-12.2-2.3-15.3c-4.1-1.2-6.4,1.7-8.7,3.5c0,0.3,0.5,0,0.5-0.1c-0.5,2-1.4,4.7-1.6,7.4
		c-0.2-2.6,0.4-5.7,0.3-8.7c2-1.4,4.6-2.1,6.2-3.9c-2.6,0.4-4.3,1.7-6.3,2.7c0.1-2.3,2.9-1.9,3.7-3.5c-1.6,0.1-2.4,0.9-3.5,1.5
		c-0.3-0.3-0.1-1.1-0.3-1.5c1.1-0.4,1.9-1.1,2.9-1.6c0,0.5,0.3,0.8,0.7,1.1c1.7,0.6,2-1.5,1.1-2c-2.2,0-3.1,1.2-4.8,1.7
		c-0.3-1.7,2.5-1.5,2.8-2.9c-1.7-0.2-3,2.2-4,0.7c0.7-0.6,1.7-1,2.4-1.6c1.8,0.5,2.4-1,1.9-2.4c-1.3-1.6-2.1,0.8-1.9,1.9
		c-0.3,0.4-0.2-0.2-0.4-0.4c-1.3,0.5-2.7,0.9-3.5,1.9c-0.5-0.2-0.7-0.6-1.2-0.8c-3.7,0.3-5.9,2.1-8,3.9c-0.7-2.1-3.7-1.9-3.5-5
		c2.4-2,4.3,1.8,6.4,0.9c-0.3-1.4-2.4-2.3-1.5-4.6c0.5-1.3,2.7-3.2,3.5-3.5c2.4-0.8,5.3,0.1,6.6,1.5c1.5-1.1,1.8-3.9,4.6-3.2
		c0.5,0.8,1.1,1.6,1.3,2.7C158.5,86.9,158.7,87.5,159,88.1z M144.1,91.3c0.8,0.8,1.9,1.7,3.5,1.2c0.8-0.9,1-2.3,0.9-4
		C147,86.1,142.7,87.9,144.1,91.3z M152.8,89.4c1.2,1.8,3.7-0.5,2.1-1.9C153.4,87.3,152.7,88,152.8,89.4z M159.4,94.4
		c0.9-0.7,1.5-2.9,0.7-4.2C155,87.6,154.4,96,159.4,94.4z M164.6,104c0.5,2.8,6.2,2.5,5.1-1.7C168.1,100,164.1,101.1,164.6,104z
		 M167.7,111.6c0.3,0,0.6,0,0.9,0c0.5-0.4,0.5-1.5,0-1.9C167.2,109.4,167,111,167.7,111.6z"/>
	<path class="st1" d="M138,84.5c-0.1,0.8-0.7,1-1.1,1.5c-0.5,0-0.7-0.1-1.1-0.3C136.2,84.8,136.9,83.8,138,84.5z"/>
	<path class="st1" d="M132.5,85c0.5,0.1,0.5,0.7,0.8,0.9c-0.3,0.4-0.2,1.1-0.4,1.6c-0.5-0.1-0.8-0.6-1.1-0.9
		C131.8,85.9,132.3,85.6,132.5,85z"/>
	<path class="st1" d="M140.1,85.3c-0.4,0.6-0.8,1.1-2,0.9C138.4,85.4,139.1,84.6,140.1,85.3z"/>
	<path class="st1" d="M141.5,85.4c-0.1,0.5-0.4,0.6-0.9,0.7C140.8,85.8,140.9,85.4,141.5,85.4z"/>
	<path class="st3" d="M80.5,86.5c1.1-1.8,4.3-0.6,3.8,1.3C83.9,89.4,80,89,80.5,86.5z"/>
	<path class="st3" d="M86.3,86.3c0.4,0,0.3,0.3,0.4,0.5C86.2,87,86.3,86.7,86.3,86.3z"/>
	<path class="st1" d="M135.2,87.7c-0.2,0.4-0.6,0.5-0.8,0.9c1.1,0.4,1.6-0.9,2.9-0.4c-0.1,0.4-0.6,0.3-0.5,0.8
		c-1.3,0-2.9,0.2-3.5-0.5C133.9,88.1,134.3,87,135.2,87.7z"/>
	<path class="st1" d="M139.2,88.3c-0.1,0.3-0.5,0.3-0.4,0.8c-0.4,0-0.7,0-1.1,0C138,88.7,138.3,88.2,139.2,88.3z"/>
	<path class="st1" d="M140.1,88.3c0.5-0.1,0.2,0.5,0.3,0.8c-0.4,0-0.7,0-1.1,0C139.5,88.8,140,88.8,140.1,88.3z"/>
	<path class="st3" d="M147.1,89.1c0.1,0.9-0.1,1.6-0.4,2.1c-0.6,0.1-0.8-0.2-1.2-0.3C145.4,89.7,145.7,88.9,147.1,89.1z"/>
	<path class="st3" d="M158.9,91.6c0.3,1.4-0.9,1.8-1.6,1.1C157.5,92,157.9,91.5,158.9,91.6z"/>
	<path class="st1" d="M148.1,96.9c0-0.3,0.6-0.1,0.8-0.1c0.3,0.4,0.5,0.8,0.7,1.3C149.1,97.8,148.8,97.1,148.1,96.9z"/>
	<path class="st3" d="M177.2,97c0.4,0.4,0.6,0.9,0.7,1.6C175.3,99.9,174,96.1,177.2,97z"/>
	<path class="st3" d="M119,97.6c1.5,2.2-1.5,3.9-2.8,2.1c0-0.5,0-1.1,0-1.6C117,97.9,117.9,97.1,119,97.6z"/>
	<path class="st3" d="M149.9,100.1c-0.1,1.1-0.5,1.9-0.4,3.2c-2.3-0.2-3.7,0.5-6,0.4c-0.8-3.2,1.8-6.4,3.7-6.2
		C148.5,97.8,148.9,99.3,149.9,100.1z"/>
	<path class="st3" d="M139.3,104.9c-0.6-0.7-1.3-1.5-2.1-2c-2.5-0.5-2.5,1.5-4.4,1.5c0-2.8,1.9-6.7,4-6c0.4,0.1,2,1.5,2.3,2.3
		C139.5,101.9,139,103.3,139.3,104.9z"/>
	<path class="st3" d="M124.6,100.5c2.7,2.6-2.7,5.3-3.6,2.1C122.1,101.9,122.6,100.5,124.6,100.5z"/>
	<path class="st3" d="M168.2,102.9c0,0.6-0.2,0.9-0.4,1.3C164.8,104.7,166.2,101.3,168.2,102.9z"/>
	<path class="st1" d="M161.4,103.9c-0.6-0.3-1.5-0.3-2.4-0.3C159.5,103.3,161.5,102.5,161.4,103.9z"/>
	<path class="st3" d="M137.4,104.4c-0.5,0.3-1.4-0.2-2.3,0C135.4,103.8,137.2,103.9,137.4,104.4z"/>
	<path class="st1" d="M144.3,114.8c0,0,0.1,0,0.1,0c0.8-0.1,1.5-0.3,2.3-0.6c0.3-0.1,0.6-0.1,0.9-0.1c0.9,0.2,1.7,0.4,2.3,0.7
		c-0.1-3.5,0.4-7.1,0.1-10.3c-0.8,2.1-5.5,0.3-7,1.7c-0.4-0.1-1.2-1-1.3-0.5c-0.4,5.8-2.8,11.7-3.7,17.3c-0.3,2-1,4-1.2,5.9
		c-0.4,3.4-0.4,6.7-0.7,10c-0.1,1.4-1,4.8-0.8,5.9c0.2,1.1,2.8,3.2,4.4,3.1c1.3-0.1,2.1-1.2,3.1-1.7c-1.6-0.3-4.4,0.7-4.8-0.8
		c1.4-0.5,4.6-0.5,5.8,0.1c0.9-0.7,1.4-1.8,2.1-2.7c1.4-9,3.8-17.2,4-27.4c-0.4-0.4-0.5,0.5-0.9,0.5c-1.2-0.8-3.8-0.2-5.5-0.5
		c0-0.1,0.1-0.2,0.1-0.3C143.8,114.9,144,114.8,144.3,114.8z M143.6,144.8c-1.7-0.6-5.2-0.5-7.2-1.2v-0.4
		C138.9,143.1,142.9,142.6,143.6,144.8z"/>
	<path class="st3" d="M161.3,105.7c0.2,0.8,0.3,1.6,0.4,2.5c-1.3-0.7-3.4-0.3-4.7,0.1c0-0.9,0-1.9,0-2.8
		C157.7,104.3,160.4,105.2,161.3,105.7z"/>
	<path class="st3" d="M118.6,108c-1.9,0.9-3.8-0.5-2.7-2.4C117.6,104.7,120,106.2,118.6,108z"/>
	<path class="st1" d="M162.2,115.8c0-1.5,0-3.1-0.1-4.4c-2.1,0-6.1,0.8-7-0.8c-0.1-0.9,0.2-2.1-0.1-2.8c-1,4.9-1.3,9.7-2.1,14.2
		c-0.3,1.5-0.9,2.7-1.3,4.2c-0.4,1.3-0.5,2.9-0.8,4.4c-0.8,4.5-1.6,9.2-1.9,14.2c0.9,1.7,4.5,1,6.4,0.7c-0.9-0.1-2.2,0.3-2.5-0.4
		c2.4-0.9,4.9-0.4,6.4-2.1c1-1.1,0.9-2.9,1.1-5.4c0.2-1.8,0.6-3.5,0.3-5c0.1-0.8,0.2-1.5,0.2-2.3c0.8-4.3,1.1-9,1.4-13.8
		c-1.6-1.2-5.5-0.1-7.4-1.1C156,113.8,161.5,114.5,162.2,115.8z M149.9,144.7c0-0.8,1.8-0.6,2-0.1
		C151.8,145.3,150.2,145.3,149.9,144.7z M158.3,142.7c-1.3,1.4-6,1.5-7.9,0.5C152.2,142.3,156.1,142.7,158.3,142.7z"/>
	<path class="st2" d="M83.8,109.2c0.5,0,0.8,0.2,0.9,0.5c0.1,0.5-0.3,0.5-0.3,0.9c-0.4,0-0.8,0-1.2,0
		C83,110.3,83.7,109.9,83.8,109.2z"/>
	<path class="st3" d="M161.9,110c-1.7,0-3.3,0-4.8,0.1C158,109.5,161.2,108.9,161.9,110z"/>
	<path class="st3" d="M74.6,112.2c0,0.4,0,0.9,0,1.3c-0.7,0.1-1.2-0.1-1.6-0.4C73,112.2,73.9,111.5,74.6,112.2z"/>
	<path class="st1" d="M52.4,114.5c1.1-0.1,1.2,1.1,1.5,1.7c0.9,2.1,2.2,4.2,3.2,6.3c-0.5-0.2-1.1-0.4-1.6-0.7
		C54.6,119.2,53.4,117,52.4,114.5z"/>
	<path class="st1" d="M54,115c0.3-0.3,0.8,0.2,1.2,0.1c1,1.7,1.6,3.8,2.9,5.2c-0.2-1.7-1.6-3.3-2.1-5.1c0.4,0.2,1.2,0.2,1.6,0.4
		c0.9,2.2,2,4.1,2.8,6.3c-0.9,0.2-1.5,0.6-2.4,0.8C56.8,120.1,55.5,117.4,54,115z"/>
	<path class="st1" d="M58.6,115.8c0.6,0.1,1.1,0.2,1.6,0.3c0.4,2.1,1.6,3.4,2.3,5.2c-0.6,0-0.7,0.3-1.3,0.3
		C60.3,119.6,59.5,117.6,58.6,115.8z"/>
	<path class="st3" d="M114.8,115.9c0.5,0.5-0.4,1.2-0.8,0.8C114.2,116.4,114.7,116.3,114.8,115.9z"/>
	<path class="st1" d="M60.9,116.3c0.4-0.4,0.9,0.2,1.5,0c0.8,1.5,1.5,3,2.4,4.3c-0.2,0.3-1,0.1-1.2,0.4
		C62.5,119.6,62,117.7,60.9,116.3z"/>
	<path class="st1" d="M63.5,116.6c1.4,0,2.6,0.3,4,0.4c0.3,1.2,1,2,1.5,2.9c-0.4,0.2-1,0.2-1.3,0.4c-1.1-0.9-1.1-2.9-2.5-3.5
		c-0.1,1.3,1.3,2.2,1.5,3.6c-0.3,0-0.6,0-0.9,0C65,119.2,64.2,117.9,63.5,116.6z"/>
	<path class="st1" d="M68.1,117.3c1.8-0.7,2.4,1,3.2,1.7c-0.3,0.3-0.9,0.4-1.3,0.5C69.3,118.8,69.1,117.7,68.1,117.3z"/>
	<path class="st1" d="M129,119.3c2,0.1,3.8,0.6,5.6,0.9c-1.8,0.4-3.9-0.3-5.8,0.1C128.8,119.9,129.1,119.8,129,119.3z"/>
	<path class="st1" d="M135,120.5c0.5-0.1,0.5,0.3,0.9,0.3c1.2-4.5,3-9.1,3.2-14.2c-2-0.2-4.9-0.3-7.5-0.1c-1-0.6,0-1.7-0.4-2.7
		c-2.6,4.4-3.7,10.3-5.5,15.5c0.2,0.1,0.2,0.3,0.3,0.5c-0.8-0.1-0.5,2-1.2,2.4c-0.1,0.5,0.5,0.6,0.1,0.9c-0.4,0.3-0.1-0.2-0.5-0.1
		c-1.2,3.9-1.1,9.1-3.1,12.2c0.2,2.5,0.1,5.4,0.1,8c1.8,1.2,4.6,3.4,7.6,2.1c-2.8-0.1-5.4-0.4-6.3-2.4c0.3,0,0.1-0.4,0.4-0.4
		c1.8,1.2,4.3,1.6,7.1,1.7c0.2-0.4,0.5-0.6,0.5-1.2c-1.8-0.4-3.5-0.8-5.6-0.9c0.1,0.3,0.3,1.1-0.1,1.2c-0.2-0.3-0.1-0.9-0.1-1.3
		c-0.6-0.3-1.8,0.1-1.9-0.7c0.4-0.2,0.9-0.3,1.6-0.3c0-0.1,0-0.2,0-0.3c0.2,0,0.5,0,0.7-0.1c0,0.2,0,0.3,0,0.5
		c2.2,0.1,4.2,0.5,5.8,1.2c0.8-3.1,1.7-6.2,2-9.8c1.4-3,1.8-7.1,2.5-10.7c-1.9-0.6-5,0-7.1-0.4c-0.2,1-0.4,1.9-0.7,2.9
		c0-0.1,0-0.3,0-0.4c0.1-0.8,0.1-1.6,0-2.4c0-0.2,0-0.3,0.1-0.5c0.6-1.6,1.1-3.2,1.6-4.8c0,0,0,0,0,0c0,0.1,0.1,0.1,0.2,0.1
		c1.9-0.2,4.8-0.2,5.9,0.8c-1.1,1.7-5-0.5-6.4,0.8c2.7,0,4.8,0.6,6.2,1.9C135.5,120.3,134.9,120,135,120.5z M132.1,113.2
		c-0.5-0.9-0.7-3.6,0.1-4.3C133.4,109.7,132.6,112.4,132.1,113.2z"/>
	<path class="st1" d="M167.6,125c-1.4,0.8-2.6,1.8-4,2.5c0.4-1.4,2.1-1.5,2.9-2.5C166.8,125,167.2,125,167.6,125z"/>
	<path class="st1" d="M163.8,125.2c0.2,0,0.4,0,0.7,0c0,0.2-0.6,0.6-0.7,0.3C163.8,125.3,163.8,125.3,163.8,125.2z"/>
	<path class="st1" d="M115.7,133.3c0.1,0.4,0.4,0.7,0.5,1.1c-1.3,1-1.3,3.2-3.2,3.5C113.9,136.3,115,135,115.7,133.3z"/>
	<path class="st1" d="M118.2,133.3c-0.4,1.4-1.5,3.4-2.8,4.4C116.1,136.1,117.3,134.8,118.2,133.3z"/>
	<path class="st1" d="M114.3,133.5c0.2,0,0.3,0.1,0.1,0.1c-1,1.6-1.9,3.5-3.2,4.8C112.2,136.7,113.1,135,114.3,133.5z"/>
	<path class="st1" d="M112.1,134.3c0.2,0,0.3,0.1,0.1,0.1c-1,1.7-1.8,3.4-3.2,4.7C109.7,137.6,110.7,135.4,112.1,134.3z"/>
	<path class="st1" d="M119,134.3c0.1,0.9,0.3,2.5-0.4,3.2c0.1,0.3,0.6,0.2,0.4,0.8c-0.7-0.2-1.4-0.3-2.1-0.4
		C117.5,136.7,118.2,135.5,119,134.3z"/>
	<path class="st1" d="M109.9,135.1c0.2,0,0.3,0.1,0.1,0.1c-1.3,1.7-1.7,4.2-3.9,5C107.3,138.4,108,136.2,109.9,135.1z"/>
	<path class="st1" d="M107.7,135.9c0.3,0,0.2,0.1,0.1,0.3c-1.9,1.6-2.3,4.7-5.1,5.4C104.6,139.8,105.4,137.1,107.7,135.9z"/>
	<path class="st1" d="M53.2,136.3c1,1.7,1.6,3.7,3.7,4.3c-0.4,0.4-1.2,0.4-1.7,0.8C54.1,140.3,52.3,138,53.2,136.3z"/>
	<path class="st3" d="M51.8,137.5c0.5,0.3,0,0.5,0,0.9c0.3,1.5,1.4,2.4,2.1,3.5c-1.4,0.3-2.4,1-3.7,1.3
		C48.4,141.3,50.6,138.7,51.8,137.5z"/>
	<path class="st1" d="M99.8,137.9c0.2,0,0.3,0.1,0.1,0.1c-1.2,1.9-2.1,4.1-3.6,5.6c-0.1-0.4,0.3-0.9,0.7-1.3
		C97.9,141,99,139.3,99.8,137.9z"/>
	<path class="st1" d="M97,138.3c-1.2,1.7-1.9,3.8-3.6,5c0.8-1.8,2-3.1,2.8-4.8C96.6,138.5,96.6,138.2,97,138.3z"/>
	<path class="st1" d="M94.6,138.7c0.2,0,0.3,0.1,0.1,0.1c-0.4,0.7-0.9,1.4-1.3,2.1c-0.4,0.6-0.7,1.6-1.6,1.7
		C92.6,141.3,93.2,139.5,94.6,138.7z"/>
	<path class="st1" d="M90.8,139.4c0.1,0.8-1.1,1.5-1.1,2.7c0.1,0.4,0.3-0.1,0.5,0c0,0.1-0.1,0.1-0.1,0.3c0,0.1,0,0.2,0,0.3
		C87.7,142,90.1,140.4,90.8,139.4z"/>
	<path class="st1" d="M89.1,139.6c-0.3,0.6-0.7,1.1-1.3,1.3c-0.1-0.4-0.7-0.3-0.7-0.8C87.4,139.6,88.4,139.8,89.1,139.6z"/>
	<path class="st1" d="M186.4,128c2.7-3.4,2.9-8.6,2.4-12.6c0-0.2,0-0.6-0.1-0.9c-0.2-7.7-0.7-16.4-3.7-23.5
		c-0.1-0.2-0.1-0.3-0.1-0.5c-5.9,1.5-13.8,1.1-20.3,2.1c2.2,0.1,3.5,1.5,4.7,3.1c1.3,1.8,3,2.8,2.4,5.9c0.5,0,1.8-0.4,2.9-0.3
		c3.9,1.3,4.1,9.7-1.9,8.8c0.8,1.8,1.6,4.8,0.9,7c-0.7,2.2-3.6,3.2-5.9,2.8c-1.8-0.3-2.6-1.7-3.5-2.9c-0.3,2.1-0.1,4.6-0.3,6.8
		c2.1,0.3,4.1-0.2,5,1.3c-0.1,0-0.1-0.1-0.1-0.1c-0.1-0.1-0.4-0.1-0.4-0.3c-0.4,2.3-3.7,2.8-5.1,4.6c1.3-0.3,2.3-1.4,3.5-2.3
		c1.1-0.8,2.2-2,3.6-2c-1,2.2-3.6,3-5.2,4.6c1.7,0.7,3.1-1.1,4.4-2.1c1.1-0.9,2.1-1.9,3.3-2.3c-0.1,1.2-1.5,1.8-2.4,2.5
		c-1,0.7-2,1.6-2.8,2.3c0.7,0.1,1.4,0.3,2.3,0.3c2.1-2.1,4.4-4,7-5.6c-0.4,1.5-2,2.2-3.1,3.1c-1.1,0.9-2.3,1.7-3.3,2.7
		c1.4-0.2,2.5,0.3,3.5,0c1.9-0.5,3.4-4.1,5.4-4.7c-0.4,2-2.9,3-4.2,4.7c3.3,0.4,6.8-0.2,10.1,0.1c0.3-0.8,0.6-1.5,0.9-2.3
		C186.3,128.1,186.3,128.1,186.4,128z M178.9,100.3c-1.9-0.1-4,0-4.8-1.2c-0.4-1.5,0.1-3.1,1.2-3.5c0.9,0.5,1.7-0.1,2.7,0.3
		C179.5,96.4,180,98.9,178.9,100.3z"/>
	<path class="st1" d="M135.3,92.1c-1.5,0.2-2.4-0.3-3.3-0.7c-1.7-1.8-2.8-4-4.6-5.4c-4.7-3.6-13.3-3-19.8-4.8
		c-1.7-0.9-5.6-1.1-6.4,0.5c-1.4,2.2-2.3,5-3.9,7c-0.7,0.8-1.5,1.7-2.3,2.5c-1.9,1.9-3.8,4-5.8,5.9c-2.4,2.3-5.9,3.7-7.9,6.2
		c-0.2-0.8,0.3-1.6,0.7-2.1c1.7-2.4,5.1-3.5,7-5.6c1.3-1.5,2.6-3.4,4.1-5.2c3-3.4,5-6.9,6.8-11c-0.8-0.1-1.8-0.8-2.7-0.5
		c0.2,4.2-2.4,8.3-4.8,10.6c-3.3,3.2-8.3,5.6-12.5,9c-2.8,2.3-5.9,4.7-8.8,7.2c-1.4,1.2-2.6,3.2-3.7,2.3c2-2.8,4.6-5,7.1-7.4
		c2.5-2.3,5-4.6,7.9-6.6c5.5-3.8,12.5-7.1,13.1-15.8c-4.8-1.5-10.9-1.8-15.9-0.8c0-0.3-0.4-0.3-0.4-0.5c0-0.6,0.2-1,0.3-1.6
		c-2.3-2.1-5.4-3.5-7.8-5.5c-0.8,0.5-2.3,2-3.1,1.2c0.8-1.2,1.1-3,2.5-3.5c-0.7-1.6,0.7-3.3,0.4-5.4c-0.8,0-1.3,0.3-1.7-0.3
		c-0.5-1.2,0.9-1.6,1.9-1.9c1.1-2,2.6-4.9,1.6-8c-1.1-0.6-1.5-1.9-3.3-1.7c-1.6,4.1-3.9,7.5-5.1,11.9c0.1,0.3,0.5,1,0.3,1.2
		c-0.4,0-0.1-0.5-0.5-0.4c-0.5,2.9-1.7,6.9-1.2,10c0.2,1,1.3,1.9,2.1,2.8c1.4,1.6,2.6,2.7,4.4,3.6c0.2-1.2,1.3-1.5,1.6-2.5
		c-0.5-0.1-0.8-0.4-1.2-0.5c-0.6,0.8-0.7,1.9-2.1,1.9c0.3-0.9,1-1.5,1.3-2.4c-0.8-0.7-1.1,0-2,0.1c0.3-0.3,0.4-1.7-0.1-1.3
		c0.7,0.5-0.5,1.8-0.9,1.6c1.5-1.2,0.2-2.1-0.3-3.4c0.3-0.3,0.4-0.6,0.5-1.1c0.3,0.9,0.8,1.6,1.7,2c0.3-0.4,0.2-1,0.9-0.9
		c0.3,0.4,0.1,1.2,0,1.6c1.8,1.1,3.7,2.1,5.9,2.8c0.4,1,2.5,1,2,2.4c-0.6-0.6-1.7-0.8-2.5-1.2c-0.7,1.1-1.6,2-2.4,2.9
		c2.3,0.3,2.7-1.1,4-1.7c0.4,0.5-1.1,1.4-0.5,1.6c0.5-0.4,1.8-0.6,2.1,0.1c-1,0.5-1.5,1.5-1.9,2.1c-0.5,0.8-1.5,1.5-2.3,2.3
		c-0.7,0.7-1.3,1.7-2.3,1.7c-1-1.2,0.2-2.6,0.7-3.5c-1.8-0.9-3.7-1.4-5.6-2.3c-1.8-0.8-3.5-2.2-5.4-2.7c-1.1-0.3-2.2-0.3-3.2-1.1
		c-0.8,0.5-1.4,1.3-2.3,1.7c0.8,0.8,1.7,1.4,2.7,1.9c0.6,0.5,1.3,1,1.8,1.4c1.5,1.2,3,2.2,4.6,3.3c0.2,0.3,0.5,0.6,0.7,0.9
		c0.2,0.9,0.9,2,0.3,2.7c-0.8-0.8-0.9-2.2-1.2-3.5c-1.4-0.6-2.9-1.6-4.3-1.7c1.1,1.8,1.6,4.3,2.4,6.4c0.4,0.2,0.8,0.4,1.3,0.5
		c-0.3-2-1.3-3.4-1.3-5.8c1.4,1.4,1.2,4.4,2.4,6c0.7-0.2,1.4-1.9,2.5-1.5c1.6,0.6-0.8,2.7-1.5,3.2c0,2.2-2.4,3.1-3.6,4.6
		c-0.7-0.5-0.4-1-0.8-1.7c0.3-0.4,0.9-0.5,0.9-1.1c-0.3-0.5-1-0.8-1.2-1.5c-2.5-0.6-4.5-2.9-7-4.2c-2.3-1.1-4.7-1.6-7.1-2.7
		c-0.8-0.4-2.2-1-3.2-1.6c-0.8-0.5-2.4-1.9-3.1-1.9c-1.2,0.1-1.7,2.4-2.7,2.5c-0.2-0.3-0.8-0.2-0.9-0.7c0.2-1.4,0.6-2.3,1.5-3.2
		c0.5-0.5,1.7-0.8,1.9-1.5c0.2-0.8-0.5-2.9-0.7-3.9c-0.6-4.3-1.8-7.9-2.9-11c-0.9,0.4-1.8,0.9-2.9,1.1c0.4-0.8-0.2-0.7-0.1-1.7
		c1.2-1.3,3.7-2.1,4.7-4.1c0.8-1.7,1.1-5.1,0.8-7.4c-0.2-1.8-0.8-3.8-2.1-4.4c-1.5,1.3-3.3,3.2-4.8,5.2c-1.2,1.7-3.3,4.4-4,6.2
		c-1,2.5,0,6,0,8.3c0,1.5-0.6,2.9-0.8,4.7c-0.4,4.1,0.4,8.3,1.5,12c0.9-1.7,1.9-3.2,3.4-4.3c0.1,0.2,0.2,0.4,0.4,0.6
		c-1.1,1.5-2.3,2.9-3.3,4.5c0.3,0.6,0.7,1.2,1.2,1.7c0.8-1.6,1.8-3.5,3.3-4.2c0,0.1,0.1,0.1,0.1,0.2c0,0,0,0.1,0.1,0.1
		c-0.9,1.6-2.2,2.8-3,4.6c0.4,1,1.1,1.7,1.7,2.5c0.7-1.3,1.5-2.5,2.6-3.3c0.1,0.2,0.2,0.4,0.4,0.6c-0.7,1.3-1.7,2.2-2.4,3.6
		c0.4,0.4,1.3,1.7,1.6,1.3c-0.3-1.9,0.2-3.5,1.6-3.5c-0.8,1.1-1.4,2.4-0.9,4.4c0.7,0.4,1.7,1.8,2.1,1.5c0-2-0.1-4.5,0-6
		c0.9,1.7,0.9,4.4,0.9,7c0.6,0.7,1.3,1.4,2.1,1.9c-0.2-2.2,0-5.1,0-7.4c0.2,0.1,0.4,0.2,0.7,0.3c0.4,2.5,0.2,5.7,0.4,8.3
		c0.3,0.2,0.8,0.1,1.1,0.3c-0.1-2.8-0.3-5.5-0.5-8.3c0.3,0.1,0.6,0.2,1,0.2c0.3,1.9,0.4,4.3,0.4,6.4c0,0.7-0.4,2,0.7,2
		c-0.2-2-0.4-5.4-0.1-8c0.3,0.1,0.5,0.3,0.8,0.4c0.1,2.5,0.3,5.6-0.2,7.7c0.5,0.1,1.1,0.3,1.6,0.4c0.1-2.5-0.3-5.2-0.2-7.5
		c0.3,0.1,0.5,0.3,0.8,0.4c0.2,1.7,0.3,4,0.3,5.7c0,1-0.4,2,0.8,2c-0.1-2.5-0.1-4.7,0-7.1c0.3,0.2,0.6,0.4,1,0.6
		c0,1.3,0.2,2.3,0.1,3.6c-0.1,1.2-0.6,2.6,0.3,3.3c-0.2-2.2,0.3-4.8,0.1-6.6c0.3,0.2,0.5,0.4,0.7,0.5c0.2,2,0,4.4,0.1,6.6
		c0.5,0,0.6,0.4,1.1,0.4c-0.3-1.7-0.4-4.3-0.1-6.2c0.2,0.2,0.4,0.3,0.7,0.5c0.2,1.9,0.1,4.7-0.2,6c1.3,0.4,2.4,1,3.5,1.5
		c0-1.2,0.1-2.4,0.2-3.5c0.2,0.2,0.3,0.3,0.5,0.4c0,0,0.1,0.1,0.1,0.1c0.1,1.5-0.4,3.5,0.6,4.1c0.3-1.9,1.2-3.9,2-4.8
		c1.1,0.8,0.1,2.2,0,3.3c-0.1,1.8,0.2,3.8-0.1,5.8c-0.3,0.5-0.8,0.9-1.6,0.9c-0.3-0.5-0.8-0.8-1.1-1.3c-3.8-1.3-6.1-3.7-9.6-5.2
		c-3.1-1.3-6.1-2.4-9.5-3.6c-1.3,0.9-1.1,4-3.1,3.9c0-1.1,0-3.2,0.5-4.4c-2.7-5.6-8-8.6-11.9-13c-1.4,0.3-2.5,1.5-3.7,1.5
		c0.5-1.6,1.7-2.5,3.1-3.2c-2.2-4.1-3.6-9.9-7-12.9c-0.6-0.5-2.6-2.1-3.6-1.7c-1.2,0.4-1.3,5.7-1.3,7c0,1.9,0.8,4.2,1.3,6.3
		c1.1,3.9,1.8,7.3,3.5,10.4c3.1,3.3,6.5,6.4,9.8,9.8c3.7,3.9,7.5,8.7,13.1,10.2c-0.8-1.4-1.5-2.7-1.9-4.6c1.2,1.4,2,3,2.7,5
		c0.5,0,1,0.6,1.3,0.3c-0.8-1.7-2.1-4.4-1.7-6.2c1.1,2,2,4.3,2.8,6.7c0.8,0.2,1.6,0.5,2.3,0.8c-0.7-2.1-2.1-4.2-2.3-6.3
		c2,2,2,6,4.7,7.2c-0.6-2.4-2.1-4.6-2-7.2c1.5,2.2,2.3,5.1,3.3,7.8c0.7,0.4,1.6,0.7,2.4,1.1c-1-2.5-2.6-5.2-2.9-8
		c2,2.2,2.8,5.5,4.2,8.4c0.4,0.3,1.2,0.8,1.6,0.7c-1.2-2.4-2.9-4.9-3.2-7.8c0.9,0.3,1,1.3,1.3,2c0.4,0.7,0.8,1.5,1.2,2.3
		c0.7,1.6,1.1,3.5,2.5,4.4c-1.1-2.7-2.5-5-3.3-7.9c1.5-0.1,3,0.9,4,0.4c3.6,1.2,9.6,1.7,13.8,2.4c1.4,0.2,2.9,0.3,4,0.9
		c-0.4-0.2-1.1-0.1-1.7-0.1c0.1,0.3,0.6,1.3,1.2,1.6c2.6-0.4,4.6-1.4,6.8-2.1c0.1-0.5-0.5-0.8-0.7-1.5c-0.2-1.3,0.4-2.3,1.1-2.9
		c-0.8-0.5-1.5-1-1.7-1.9c-1-4.2,3.7-6.2,8-5.2c-0.9-3.1,3-3.5,5.1-2.3c1,0.6,0.9,1.5,1.5,2.1c2-1.3,5.9-1.8,6.8,0.8
		c0.4,1.1,0.9,3.7-0.8,3.6c-0.8-1.1-1.1-2.7-2.3-3.3h-2.1c-0.7,0.4-0.7,1.5-1.2,2c-2.4-0.5-2.2-4.4-5.2-3.9c0,1.3,1.6,1.1,1.3,2.4
		c-0.4,1.9-5-0.4-7.4,0.3c-1,0.8-2.3,1.5-1.9,3.1c0.4,1.4,3.3,1.5,3.5,3.1c-0.8,0-1.6,0.4-2.5,0.5c-0.6,0.4-0.5,1.7-0.1,2.3
		c3.2-0.9,7.3-3.8,11.2-3.6c1,0,2.4,0.2,2.7,1.2c-0.3,0.8-0.8,0.3-1.6,0.3c-4,0.8-6.9,3-10.2,4.7c-3.3,1.7-6.8,3-11,4
		c-1.9-0.2-3.4,0.6-5.5,1.2c-1.5,0.4-3.1,0.8-4.6,1.2c-1.3,0.4-2.5,1.2-3.9,1.9c-2.7,1.3-4.6,2.2-6.3,3.9c-1.9,1.9-3.5,3.7-4.6,6.3
		c-0.5,1.1-1.3,3-0.3,4.2c-0.1-2.3,0.6-3.9,2.7-4c1.4-1.3,2.5-3,5.2-2.9c0.5,2.4,2.3,4.1,3.6,6c3.7-1.2,8.4-1.3,12.6-2
		c-0.9-0.8-1.4-2.9-1.5-4.9c0.6-0.1,1.2-0.3,1.8-0.4c0.5,2.2,1.4,4,3.3,4.8c-0.5-1.8-0.8-3.7-1.5-5.2c0.5-0.1,1-0.3,1.5-0.4
		c0.4,1.8,1,3.3,1.3,5.2c4.6-1,9.2-0.4,13.9-0.7c3.6-0.2,8-0.3,11-1.1c2.2-0.5,5.1-2.3,7.2-1.6c4.4-1.3,8.2-3.2,12.6-4.6
		c-0.6-1.9,1.4-4.4,0.9-5.4c0-0.1-0.2-0.2-0.1-0.4c-0.4-0.1-0.9,0.8-1.9,0.5c-0.2,0.4,1.4,0.9,0.5,1.7c-0.8-0.4-1.2-1.4-2.4-0.9
		c-0.3,0.6,1.3,1,0.9,1.6c-1.2,0.8-1.6-1.1-2.7-1.5c-0.8-0.3-1.6,0.1-2.4-0.4c0.5,1.1,2.2,2,2.9,3.3c-0.8,0.7-1.2-0.2-1.7-0.7
		c-2.3-2.3-4.9-4.3-6.2-7.4c-0.6,0.4-1.2,0.8-2,1.1c2,3.2,5.1,6,7.2,8.7c-1.1,0.3-1.7-0.9-2.3-1.5c-2-2.1-4.1-4.3-5.2-7
		c-0.9,0.3-1.7,0.7-2.5,1.1c2.2,3,5.4,5.7,7.5,8.3c-1.2,0.4-1.8-0.7-2.4-1.3c-2.1-2.1-4.1-4.3-5.6-6.8c-2,0.7-4,1.4-6.1,2
		c0.8-0.4,1.5-0.8,2.3-1.3c2.2-1,4.4-1.9,6.5-3.1c1.1-0.5,2.2-1.1,3.3-1.8c0.1-1.5,0.4-2.8,0.8-4c-3.2,0.9-5.8-0.7-7.4-2.3
		c-0.9,0.6-2.1-0.1-2.4-0.8c0.3-0.6,1.3-0.4,1.9-0.7c-1.5-3.6,0.7-6.6,2.8-7.9c-0.7-0.3-1.4-0.4-1.6-1.2c-0.4-1.3,0.5-2.2,1.2-2.8
		c-1.7-3,0.5-5.9,3.6-5.9c-1.1-4.6,5.5-5.8,7.4-2.7c0.6-2.3,5.2-4,6.4-1.1c1.9-0.4,4.5-1,5.8,0.5c1.2,1.5,1,5.1-0.7,6.2
		c-0.2-1.6,0.3-4.5-0.9-5.5c-1-0.2-2.8-0.3-3.5,0.3c0.1,1.7,0.3,4.1-1.3,4.4c-0.1-0.8-0.2-2.6-0.7-3.9c-1.2-3.4-3.6-0.2-4.6,1.5
		c0.4,0.7-0.1,1.7-0.5,2c-2-0.9-1.3-4.4-4.8-3.8c-0.4,0.4-0.5,1.1-0.5,1.9c0.9,0.8,3,2.8,0.9,3.9c-1.3-0.8-3.5-2.5-5.2-0.7
		c-0.9,2.7,2.4,2.5,2.4,3.7c0,1.8-2.7,0-3.3,1.3c1.7-0.1,5.6,1.6,2.1,2.3c-1.8,1.6-2.8,3.8-2.5,7.5c1,1.1,2.9,1.4,5.1,1.3
		c0.9-0.5,3.4-1,4.2-0.1c-1.6,1.9-2.9,4-2.5,7.8c1.1,1,1.7,2.5,3.1,2.9c3.6,1.1,7.2-2.5,9.2-3.9c2.2-8.9,5.4-16.7,10.3-22.9
		c0.5-0.4,1.3-0.3,2-0.5C135.1,94.6,135,93.1,135.3,92.1z M82.7,84.3c-2.8-5.9,9.9-6.9,8-0.5c-0.4,1.3-1.8,1.4-2.8,2
		c0,0.6,0.6,0.6,0.5,1.3c-0.3,0.9-1.2,1.2-2.5,1.1c-0.2,0.2-0.2,0.7-0.4,0.9c-1.6,1.6-5.2,0.6-6-0.9C79,85.9,80.3,84.2,82.7,84.3z
		 M32.7,85c-0.6,1-1,2.1-2,2.7c0.5-2.1,1.6-3.6,2.8-5c0.1,0.2,0.2,0.4,0.4,0.7C33.5,83.9,33.1,84.4,32.7,85z M32.7,89.5
		c0-1.6,1.5-2.4,2.2-3.6c0,0.1,0.1,0.2,0.1,0.2c0,0.2,0.1,0.3,0.1,0.5C34.4,87.6,33.8,89.4,32.7,89.5z M53.8,103.2
		c-0.3-1-0.1-2.6-0.1-3.9H54C54.2,100.3,54.8,102.7,53.8,103.2z M75.6,114.9c-1.8,0.5-3.3-0.3-3.9-1.3C71.1,108,79,110.7,75.6,114.9
		z M84.8,112c-1.4,0.1-2.2-0.3-2.7-1.1c0.2-1.5-0.2-3,1.1-3.3C86.2,106.7,87.1,110.8,84.8,112z M87.4,110.8c0-0.3,0.2-0.5,0.1-0.9
		c0.5,0.4,0.6-0.5,1.3-0.3C90.1,110.8,88.1,112.3,87.4,110.8z M55.5,134.9c-0.2-1.1-0.2-2.9,0.9-3.2c-0.2,3.1,1.1,4.7,2.5,6.2
		C57.8,137.8,55.8,136.6,55.5,134.9z M77.6,136.7c-0.8-1.4-0.8-3.5-1.4-5.1c0.4-0.1,0.9-0.2,1.3-0.3C78.1,133,79.1,135.4,77.6,136.7
		z M100.1,124h0.4c2,3.1,5.2,5.6,7.5,8c-0.9,0.5-1.8-0.5-2.4-1.1c-2-1.8-4-4.2-5.5-6.6C99.9,124.2,100,124.1,100.1,124z M98.7,126.1
		c0.1,0,0.1,0.1,0.1,0.1h0.3c0.9,1.2,2,2.4,3.2,3.5c1.2,1.1,2.7,1.8,3.3,2.9c-3.2-1.2-4.8-3.9-7-6C98.6,126.4,98.6,126.3,98.7,126.1
		z M103.2,133.1c-2.4-1.5-5.4-3.1-6.3-5.6C98.7,129.6,101.3,131,103.2,133.1z M103.7,115.5c0.6,0.8,0.2,2.4-0.5,2.8
		C99.8,118.9,101.4,114,103.7,115.5z M111.1,104.3c-0.6-0.4-0.9-1-1.3-1.6c0.3-0.9,2.2-1.3,2.8-0.4
		C112.7,103.6,111.9,104,111.1,104.3z M124.2,95.6c0,1-0.2,1.9-1.5,1.7C121.5,96.4,123.2,94.2,124.2,95.6z M113.1,117.8
		c-1.5-2.3,1.8-4.6,3.1-2.8C117.3,116.5,115.2,119,113.1,117.8z M119.6,109.6c-0.9,0.6-2.9,0.9-4.3,0.3c-2.1-1-2.1-5.9,0.8-6.2
		C120.8,102.2,122.2,107.8,119.6,109.6z M121.6,111.4c-0.9-0.8-0.2-2.9,1.3-2.1C123.5,110.2,123.2,111.7,121.6,111.4z M122.3,105.7
		c-1.2-0.3-1.9-1.2-2.8-2.3c0.1-0.6-0.1-1.5,0.1-1.9c-3.8,1.3-6-2.2-4.2-5c1.3,0.1,2.1-1,4-0.7c1.1,0.7,1.7,1.8,1.5,3.7
		c0.8,0,1.3-0.9,2.1-1.1C128.8,97.5,128.1,106.9,122.3,105.7z M127.1,99.2c-0.4-0.7-0.3-1.8-0.7-2.4c0.6-0.9,2.3-2,3.3-1.6
		C129.8,97.1,128.1,97.9,127.1,99.2z M133.2,94.9c-1.1,0.1-1.1-2.2,0.1-2C133.7,93.3,133.7,94.7,133.2,94.9z"/>
	<path class="st3" d="M136.6,79.1c0.6-0.7,1.7,0.1,2.7-0.1c0.4,0.3,1.1,0.7,1.7,1.1c0.5,0.3,1.5,0.7,1.2,0.9
		C140.6,80.2,139,79.3,136.6,79.1z"/>
	<path class="st1" d="M56.8,82.7c0.1-0.3,0.6,0.2,0.8,0.3c0.2,2.3,1,4,1.5,6c-0.5-0.2-0.9-0.5-0.8-1.3
		C57.7,86.2,57.4,84.3,56.8,82.7z"/>
	<path class="st1" d="M35.3,96.1c1,0.6,2.5,1.8,3.2,3.1C36.5,99.1,36.2,97.3,35.3,96.1z"/>
	<path class="st1" d="M105.2,136.8c-0.5,0.8-1.1,1.4-1.6,2.1C103.8,138.4,104.2,137,105.2,136.8z"/>
	<path class="st1" d="M103.3,137.2c-0.6,1.5-2.2,3.2-3.2,4.8c0.4-1.4,1.8-2.9,2.4-4.5C102.7,137.4,103.2,137.4,103.3,137.2z"/>
	<path class="st1" d="M164.9,137.5c0.4,0.1-0.1,0.4,0,0.7c-0.6,0.3-1.2,0.6-1.6,1.1C163.3,138.7,164.6,138.2,164.9,137.5z"/>
	<path class="st1" d="M98.5,138.1c-0.3,0.6-0.8,1.1-1.1,1.7C97.4,139.5,97.8,138.3,98.5,138.1z"/>
	<path class="st1" d="M162.9,142.2c0,0.3-0.2,1.5-1.1,1.3C161.7,142.6,162.6,142.7,162.9,142.2z"/>
</g>
</svg>
