<?xml version="1.0" encoding="utf-8"?>
<!-- Generator: Adobe Illustrator 23.1.1, SVG Export Plug-In . SVG Version: 6.00 Build 0)  -->
<svg version="1.1" id="Layer_1" xmlns="http://www.w3.org/2000/svg" xmlns:xlink="http://www.w3.org/1999/xlink" x="0px" y="0px"
	 viewBox="0 0 200 200" style="enable-background:new 0 0 200 200;" xml:space="preserve">
<style type="text/css">
	.st0{fill-rule:evenodd;clip-rule:evenodd;fill:#9A604A;}
	.st1{fill-rule:evenodd;clip-rule:evenodd;fill:#FEDAB6;}
	.st2{fill-rule:evenodd;clip-rule:evenodd;fill:#FFFFFF;}
</style>
<g>
	<path class="st0" d="M188.9,60c-0.3,0-0.6,0-0.9,0c0,0,0,0,0,0l0-0.1c-0.3,0-0.6-0.1-0.7-0.5c-0.2-0.7-0.4-1.3-0.7-2
		c-0.1,0-0.1-0.1-0.2-0.2c-0.3,0-0.6,0-0.7-0.3c-1.1-2.1-2.3-4.2-2.8-6.6c-0.5-0.6-1.1-1.2-1.7-1.8c-0.5-0.4-0.1-1,0.4-1.1
		c0.1,0,0.1-0.1,0.2-0.1c0.4-0.4,1.1,0.1,1.2-0.7c-1.9-0.9-3.8,0.9-5.1,1.5c-1.7,0.8-3.5,1.3-5.2,2.2c-4.6,2.4-9.5,5.9-14.8,7.4
		c-2.4,0.7-5.4,1.6-8.3,1.8c-2.7,0.2-4.6-1.6-6.8-2.1c-0.5-0.1-1,0-1.4-0.1c-1.6-0.4-3.3-1.3-4.9-1.9c-4.9-1.8-10.1-4.1-15.4-4.6
		c-0.6,0-0.4,0.5-0.9,0.5c-4-0.5-8.1,0.1-12.6-0.6c-4.1-0.6-7.9-2.1-12-1.5c-2.5,0.4-4.9,1.4-7.1,0.8c-1.7-0.5-5.2-3.6-7.1-3.4
		c-0.6,0.1-1.4,0.5-1.8,0.7c-0.7,0.3-1.2,0.6-1.6,1.2c0.6,2.8,1.1,6.2,2.4,8.3c0.8,1.3,2.2,1.8,2.6,2.9c-6.5,0.4-12.8,0.7-18-0.9
		c-1.4-0.4-2.8-1.6-4.5-2.4c-1.5-0.7-3.4-1.9-4.6-1.5c-0.4,0.1-0.8,1-1.2,0.9c0,1.6-0.7,2.6-0.6,4.2c0.3,2.8,1.8,4.6,3.2,5.9
		c0.6,0.6,1.2,1.4,1.8,2c2.4,2.4,5.8,3.4,8.1,4.8c-5.5,1.1-11.9,2.4-17,4.4c-2.9,1.1-5.7,1.9-7.2,3.3c-0.5,0.5-1.6,2-1.5,2.7
		c0.1,2.1,2.4,2.8,3.1,4.5c0.9-0.2,1.5,0.1,2,0.5c-6,1.5-12.3,2.7-18.7,4.7c-1.6,0.5-4.1,1.4-5.6,2.4c-1.7,1.1-4.2,3.5-4.4,5.1
		c-0.1,1.1,0.5,3.8,1.2,4.4c0.8,0.8,3.6,1,5,0.9c2.3-0.1,5-0.7,7.5-1.1c4.7-0.7,9.4-2.1,13.9-2.5c-1.4,0.7-2.9,1.3-4.4,2.2
		c-2.4,1.4-6.4,3-6.6,5.5c-0.2,2.1,1,3.7,2.2,4.9c2.6,2.5,7,0.5,11-0.3l-0.2,0.1c-3,1.3-6.9,2.7-10.2,4.4c-4.1,2.1-8.6,3.6-12.6,5.5
		c-4.1,2-8.4,4-9.2,7.7c0.4,2.2,0.9,4.1,2,5.2c3.1,0.4,6.2,0.3,9.5-0.4c3.4-0.6,6.2-2.3,9.3-3.4c4.4-1.6,8.7-2.6,12.8-3.9
		c-3.2,1.2-3.2,7.4-0.4,8.9c2,1.1,5.9-0.5,8.4-0.7c-7.8,4.8-18.8,7.4-23.8,14c-0.2,1.6,0,4.2,1.1,5.4c1.3,1.3,4.1,0.7,6.5,0.3
		c5.4-0.9,9.8-2.9,13.8-4.7c6.3-2.7,12.8-4.3,17.9-6.2c-0.1,1.1-0.7,1.2-0.6,2.3c0.2,2,2.1,3.4,3.3,3.6c4.1,0.5,12.4-2.9,15.6-2.8
		c-4.3,4.5-11.2,9.6-16,14.3c-1.5,1.5-3.8,3.8-4.2,5.6c-0.2,0.8-0.2,2.3,0,3c0.7,3.1,2.6,2.6,5.1,1.5c1-0.4,2.2-0.9,3-1.3
		c11.3-5.9,19.7-13,28.1-20.3c1.4-1.3,2.8-2.8,4.3-3.8c6.9-4.5,14.5-8.2,21.8-12.1c2.6-1.3,4.9-2.8,7.3-4c1.4-0.7,2.5-2.5,3.7-3.6
		c1.1-1.1,2.3-2.7,3.4-3.4c2.1-1.4,4.3-1.6,5.4-3.6l0.9-0.2c-0.1-0.6,0.3-0.7,0.6-0.9c1.8-1.6,4.4-3.2,6.7-5.1
		c2.2-1.8,4.6-4,6.9-5.1c2-1,4.2-1.6,6.4-2.4c2.1-0.8,4.3-1.7,6.4-2.5c4.1-1.6,8.4-2.8,11.8-5.4c-0.7,0-1.5,0.1-2.2,0.2
		c0-0.1,0-0.1,0-0.2c-0.4,0.1-0.9-0.1-0.9-0.7c0-0.3,0-0.6,0-0.8c0-0.3,0.2-0.5,0.3-0.6c0.5-3-1-7.5-1.5-10.1
		c-0.5-2.7-1-5.5-1.2-8.2c-0.4-6.1-0.8-12.4,0.3-18.5c0-0.3,0.2-0.6,0.5-0.6c0,0,0,0,0,0c0,0,0,0,0,0
		C188.2,60.7,188.6,60.4,188.9,60z"/>
	<path class="st1" d="M71,64.8c0.4-0.4,1.2,0,1.8-0.1c1.9,2.1,3.8,4.1,5.9,5.9c-0.2,0.3-0.9,0.3-1.3,0.4
		C75.3,68.9,73.3,66.6,71,64.8z"/>
	<path class="st1" d="M83.6,62.4c0.6,0,1.1,0.2,1.7,0.2c1.8,2.1,4.2,3.3,5.9,5.4c-0.5,0.1-1.1,0.2-1.6,0.4
		C87.7,66.2,85.6,64.4,83.6,62.4z"/>
	<path class="st1" d="M74.2,64.6c0.4,0,0.8,0,1.3,0c1.9,1.9,4.2,3.9,5.8,5.7c-0.5,0.1-0.9,0.2-1.4,0.3
		C78.1,68.6,76.1,66.7,74.2,64.6z"/>
	<path class="st1" d="M77,64.7c0.1-0.3,0.8-0.2,1.1-0.4c1.9,1.8,3.8,3.7,5.9,5.3c-0.2,0.4-1,0.3-1.5,0.5
		C80.7,68.2,78.9,66.3,77,64.7z"/>
	<path class="st1" d="M86.9,63c3.1-0.4,5.1,2.4,7.3,3.9c-2,1.5-3.2-0.3-4.6-1.5C88.5,64.4,87.7,63.5,86.9,63z"/>
	<path class="st1" d="M97.1,65.4c0.7-0.4,1.7,0.2,2.7-0.1C99.1,66.1,97.6,66.1,97.1,65.4z"/>
	<path class="st2" d="M44,82c1.5-0.7,3.5-0.7,4.9-0.8c0.3,1.5,0.6,2.9,1.1,4.1C47.6,84.8,44.2,85.8,44,82z"/>
	<path class="st1" d="M41.8,91.5c2.7-1.3,3.4,0.5,5,1.4c1.1,0.7,2,1.1,2.9,1.6c-0.2,0.4-1,0.5-1.4,0.7C46.2,93.9,43.8,93,41.8,91.5z
		"/>
	<path class="st1" d="M39.1,92.4c1.9-1.2,3.3,0.7,4.7,1.5c1.3,0.7,2.5,1.2,3.3,2c-1.3,0.6-2-0.1-3-0.7
		C42.5,94.2,40.7,93.2,39.1,92.4z"/>
	<path class="st1" d="M57.8,88.1c1.5-0.3,2.6,1.2,3.8,2.1c1,0.8,1.9,1.5,3,1.9c-0.6-1.9-3.2-2.9-4.1-4.3c1.9-0.9,3.2,0.9,4.4,1.8
		c1.2,0.9,2.3,1.4,2.8,2.2c-1.8,0.4-3.4,0.7-5,0.8C61.1,91.1,59.4,89.7,57.8,88.1z"/>
	<path class="st1" d="M33.6,93.6c0.5-0.1,0.9-0.2,1.4-0.3c0.1,0.2,0,0.7,0.3,0.6C34.9,93.8,33.9,94.4,33.6,93.6z"/>
	<path class="st1" d="M37.1,92.9c1.3-0.7,3.3,1,4.4,1.6c1.3,0.7,2.3,1.6,3.5,1.8c-1.9,1.1-3.3-0.5-4.7-1.4
		C39.1,94.2,38.1,93.5,37.1,92.9z"/>
	<path class="st1" d="M63.5,87.2c0.5-0.1,1-0.2,1.5-0.3c1.9,1.4,3.9,2.7,5.7,4.4c-0.6,0.1-1.4,0.5-1.9,0.3
		C66.9,90.2,65.2,88.7,63.5,87.2z"/>
	<path class="st1" d="M36.6,93.6c1.7,1.2,3.5,2.3,5.1,3.6c-0.6,0.1-1.2,0.1-1.9,0.3C38.6,96.4,37.1,95.8,36.6,93.6z"/>
	<path class="st1" d="M69.8,86.4c2.4-1.1,4.2,0.3,5.7,1.3c-0.2,0.8-0.7,1.5-0.8,2.3C73,88.8,71.4,87.5,69.8,86.4z"/>
	<path class="st1" d="M75.4,85.5c0.4-0.1,0.8,0,1.3-0.1c1.1,2.1,3.7,2.9,5,4.1c-0.9,0.3-2-0.7-2.7-1.3c-0.8-0.6-1.6-1.4-2.4-2
		C76.2,86.1,75.6,86.1,75.4,85.5z"/>
	<path class="st1" d="M78.3,85.4c1.8,0.8,3,2.6,4.9,3.2c-0.9,0.1-1.8-0.8-2.6-1.3C79.8,86.8,78.9,86.2,78.3,85.4z"/>
	<path class="st1" d="M80.6,85.5c1.5,0,3.3,1.8,4.3,2.5C83.4,88.1,82,86.2,80.6,85.5z"/>
	<path class="st1" d="M76.8,89.2c0.6,0.6,1.5,1.3,1.7,1.9c-0.8,0.2-1.6,0.3-2.4,0.5C76.3,90.8,76.8,90.2,76.8,89.2z"/>
	<path class="st2" d="M40.6,108.4c0.4,1.2,0.9,2.2,1.5,3c-1.1,0.7-1.9,1.5-3.5,1.9c-0.8-0.8-1.3-1.9-1.5-3.6
		C38.1,109.1,39.2,108.7,40.6,108.4z"/>
	<path class="st1" d="M89.5,104.6c1.2-0.5,3-0.4,3.6,0.7C92.1,105.4,90.7,104.7,89.5,104.6z"/>
	<path class="st1" d="M84.7,105.9c2.4,0.3,5,1.7,7.4,2.5C89.7,108.1,87.2,106.6,84.7,105.9z"/>
	<path class="st1" d="M69.6,109.4c1-0.5,2.5,0.3,3.8,0.8c1.1,0.4,2.3,0.6,3.1,1.2c-0.4,0.5-1-0.2-1.5-0.3
		C73.4,110.4,71.3,109.9,69.6,109.4z"/>
	<path class="st1" d="M79.9,107c0.1,0,0.2,0,0.2-0.1c0.8,0,1.5,0.6,2.2,1c1.9,1.1,4,2.1,6.2,2.9c-1.3,1.3-3.1-0.2-4.8-1.1
		C82.1,108.8,80.7,108.2,79.9,107z"/>
	<path class="st1" d="M82.5,106.5c0.8-0.7,1.6,0.1,2.3,0.4c2.1,0.9,4.4,1.7,6.7,2.4c-1.1,1.2-3.7-0.5-5-1
		C85,107.6,83.6,107,82.5,106.5z"/>
	<path class="st1" d="M72.7,108.8c1.3-0.7,2.9-0.3,3.3,1C74.9,109.6,73.9,109.1,72.7,108.8z"/>
	<path class="st1" d="M75.2,113.8c-2.2,1.2-4.7-0.1-6.5-0.8c-1.6-0.6-3-1.5-4.4-1.8c0-0.1,0-0.1,0.1-0.2c1.9-0.7,4.2,0.8,5.9,1.4
		C72,112.9,73.5,113.4,75.2,113.8z"/>
	<path class="st1" d="M71.7,115.1c-2.1,0.4-4.2-0.7-6-1.4c-1.7-0.6-3.2-1.1-4.3-1.9c1.5-1,2.5-0.1,3.7,0.5
		C67.2,113.4,69.7,114.1,71.7,115.1z"/>
	<path class="st1" d="M81,109.1c1.5,1.1,3.1,2,4.5,3.2c-1.1,0.7-1.9,0.1-2.9,0.2C82.4,110.8,81.4,110.4,81,109.1z"/>
	<path class="st2" d="M53.5,130.5c0.4,0.2-0.2,0.7-0.3,1.3c0,1.3,0.7,2.8,1.2,3.5c-0.9,0.5-2,1-2.9,1.6c-1.4-0.6-3.1-3.2-2.5-5
		C50.5,131.4,52,131,53.5,130.5z"/>
	<path class="st1" d="M90.2,128.1c0.4-0.4,1.4-0.4,2.1-0.6c1.4,2.3,4,2.6,5.8,4.3c-2.6-0.7-4.2-2.9-6.5-3.9
		C91.2,128.4,90.7,128.3,90.2,128.1z"/>
	<path class="st1" d="M93.5,127.6c0-0.1,0.1-0.1,0.2-0.2c1.1,0.3,2.1,1,3.1,1.6c1,0.5,1.9,1.2,3,1.5c-0.9,1-2.3-0.4-3.2-0.9
		C95.5,128.9,94.4,128,93.5,127.6z"/>
	<path class="st1" d="M96,127.1c0-0.2,0.3-0.2,0.5-0.2c1.5,0.9,3,1.9,4.8,2.4c-0.8,0.6-1.8-0.3-2.6-0.8
		C97.7,128.1,96.8,127.5,96,127.1z"/>
	<path class="st1" d="M98.5,126.7c1.5-0.5,2.6,1.2,4.2,1.4C101.5,129.1,99.9,126.9,98.5,126.7z"/>
	<path class="st1" d="M100.7,126.2c1.6-0.8,3.2-0.1,4.2,0.7C103.3,128.2,102,126.5,100.7,126.2z"/>
	<path class="st1" d="M87.3,129.2c0.6,0.8,0.7,2.5,1,3.8c-1.7-0.7-3.2-1.7-5-2.1c1.1,1.2,3.4,1.9,5.1,2.8c0.1,0.4,0.3,1,0.1,1.3
		c-2.6-1.1-4.9-2.5-7.5-3.6C83,130.5,85.2,129.9,87.3,129.2z"/>
	<path class="st1" d="M72.9,133.6c0-0.1,0.1-0.1,0.2-0.2c1.9,0.2,3.5,1.5,5,2.4c1.6,0.9,3.3,1.6,5,2.4c-0.9,0.9-2-0.1-2.7-0.5
		C78.1,136.3,75.4,134.9,72.9,133.6z"/>
	<path class="st1" d="M70.5,134.3c1-0.8,2.3,0.4,3.3,1c2.3,1.4,5.1,2.7,7.4,3.7c-1.4,1.2-3.4-0.4-4.8-1.2
		C74.2,136.6,72.5,135.4,70.5,134.3z"/>
	<path class="st1" d="M90.5,129.7c1.1,1.2,1.1,3.9,2.4,4.7c0.6-0.5,0.2-1.7,0.1-2.7c1,0.4,1.9,1,2.7,1.7c-1.8,0.8-3.3,1.8-4.9,2.7
		C91.1,134.1,91.3,131.8,90.5,129.7z"/>
	<path class="st1" d="M73.3,139.4c-1.1,0.3-1.9,0.2-3,0.5c-1.7-2-5-1.6-6.8-3.5c0.8-0.2,1.4-1,2.3-1c0.9,0,2.9,1.7,3.8,2.1
		C71.1,138.3,72.6,138.3,73.3,139.4z"/>
	<path class="st1" d="M69.8,139.9c-2.8,1.8-6.3-1.3-8.9-1.8c0.3-0.6,1.3-0.7,1.7-1.2C64.8,138.2,67.3,139.1,69.8,139.9z"/>
	<path class="st1" d="M66.7,141.1c-1.2,0.7-2.6-0.2-3.9-0.6c-1.3-0.4-2.7-0.9-3.9-1.3c0.2-0.4,0.8-0.4,1-0.8
		C62,139.6,64.4,140.3,66.7,141.1z"/>
	<path class="st1" d="M64.9,142.1c-2,1.8-5.8-0.8-8.2-1.1c0.3-0.5,1.1-0.7,1.4-1.3C60.4,140.6,62.8,141.2,64.9,142.1z"/>
	<path class="st1" d="M95.8,132c0.4,0.1,0.7,0.5,1.2,0.5c-0.1,0.2-0.4,0.3-0.6,0.4C96.2,132.6,96,132.3,95.8,132z"/>
	<path class="st1" d="M56.4,141c1.5,1.6,4,1.7,6.1,2.4c-2.7,1.6-5.4-0.9-8-1c0.6,1.9,4,1.3,5.5,2.6c-2.7,0.7-5-0.7-7.4-1.2
		c0,1,1.4,1.2,2.2,1.4c0.9,0.3,2,0.5,2.8,0.6c-2.1,1.3-4.7-1.1-6.5-0.2c0.9,0.9,2.4,1,3.7,1.2c-1.3,1-2.5-0.1-3.9-0.1
		c-0.3-0.9-0.8-1.4-1.2-2C52.2,143.6,54.5,142.4,56.4,141z"/>
	<path class="st1" d="M75.8,138.7c0.9,0.5,1.9,0.8,2.6,1.4C77.2,140.2,76.2,139.9,75.8,138.7z"/>
	<path class="st1" d="M75.6,140.4c0.3-0.2,0.3,0.2,0.5,0.1c0.1,0.3-0.4,0.2-0.6,0.3C75.6,140.7,75.7,140.5,75.6,140.4z"/>
	<path class="st1" d="M90.6,139.5c-1.4,1.2-3.5,1.9-5.1,3c2.8-0.5,4.9-2.4,7.6-3.3c1.4,1.8,2.6,4.1,4,6c-0.6,0.4-1.4,0.6-2.3,0.8
		c-1-0.5-1.5-1.8-1.8-3.5c0.8,0.9,0.9,2.9,2.1,3.2c0.7-1.3-1.1-3.3-1.7-4.3c-0.3,0.1-0.5,0.3-0.4,0.8c-0.3-0.4-0.4-1.1-1-1
		c-1.2,1.1,0.6,4.7,1,5.4c-4.9,0.6-9.1,2.9-14.5,3.8c0.2-0.3,0.6-0.4,1.1-0.5c0.3-0.9-0.5-1.9-0.8-2.8c0.1-0.6,0.4-1.3-0.2-1.6
		C82.6,143.4,86.6,141.4,90.6,139.5z"/>
	<path class="st1" d="M140.1,128.5c-1.1,1.5-3.1,2.4-5,3.5c-1.7,1-3.5,2.8-5.2,3.3c-1.8,0.5-3.5-0.6-5.4-0.3c1,0.8,2.6,0.8,4,1
		c-2.7,1.1-5.8,0-8.2-0.3C127.1,133.4,134.6,131.6,140.1,128.5z M130.5,133.5c0.6,0.1,1.7,0.2,2.3-0.2
		C132.6,132.6,130.7,132.9,130.5,133.5z"/>
	<path class="st1" d="M126.2,137.2c-2.5,1-5.4-0.3-8-0.2C120.6,135.6,123.4,137.7,126.2,137.2z"/>
	<path class="st1" d="M124,138.4c-2.6,2.2-6.2,0.1-9.2,0.2C117.5,136.6,120.8,138.9,124,138.4z"/>
	<path class="st1" d="M121.1,140c-2.9,1.9-6.7,0-9.7,0C114.5,137.9,117.6,140.4,121.1,140z"/>
	<path class="st2" d="M76.3,147.3c0,1.4,1.2,1.9,1.4,2.4c-0.9,0.2-1.8,0.4-2.7,0.6c-0.5-0.6-1.1-1.1-1.4-2
		C74.4,148,75.3,147.6,76.3,147.3z"/>
	<path class="st1" d="M118.1,141.7c-2.3,1.5-6.4-0.5-9.2-0.4c0-0.4,0.5-0.4,0.8-0.6C112.4,141.1,115.2,141.6,118.1,141.7z"/>
	<path class="st1" d="M115.9,143c-0.3,0.6-1.2,0.9-2,1.2c-2.8-0.6-6-0.4-8.6-1.3c0.7-0.2,1.4-0.6,1.9-1
		C110.1,142.3,112.8,142.9,115.9,143z"/>
	<path class="st1" d="M112.9,144.9c-0.5,0.5-1.2,0.9-1.8,1.3c-1.9-0.8-4.5-0.2-6-1.6c-0.8,0.8-1.8,0.1-2.7,0.1
		c1.5-1.4,3.7-0.5,5.9-0.2C109.9,144.6,111.4,145,112.9,144.9z"/>
	<path class="st1" d="M104.7,146c0.3,0.8,0.8,1.3,1,2.2c-2.5-0.4-5-0.9-7.3-1.5C100.2,144.8,102.6,145.4,104.7,146z"/>
	<path class="st1" d="M105.9,148.8c0.1,0.5,0.2,1,0.3,1.5c-3.7,3.1-7.3,6.4-11.5,9.4c-1.3,0.9-2.4,2.2-3.8,3.1
		c-1.3,0.9-2.9,1.6-4.3,2.3c-4.2,2.2-8.4,4.5-12.7,6.8c-0.3-0.4-0.6-0.6-1-0.9c3.7-7.3,11.2-12.1,18.1-17.3c1.1,0.3,0.9,2.1,1.8,1.9
		c0.2,0.4-0.4,0.2-0.1,0.6c0.9,0.7,1.9,2.3,3.1,2c0.5-0.8-0.7-1.8-1.2-2.1c-0.1-1.5-1.6-2-2-3.4c0.9-1.6,1.7-3.2,2.5-4.7
		c0.9,0,1.4-0.6,2.3-0.9C100,148.1,102.9,148.5,105.9,148.8z M105.3,150.7c-1.2-0.8-2.8-1-4.2-1.4c-1.5-0.3-3-0.6-4.6-0.7
		c0-0.1-0.1-0.1-0.1,0C99,149.9,102.3,150.7,105.3,150.7z M102.7,152.2c-2-0.7-4.1-1.3-6.3-1.7C98.2,151.5,100.7,152.2,102.7,152.2z
		 M97,152.9c-0.4-0.2-1.8-0.6-1.8-0.4C95.8,152.7,96.8,153.5,97,152.9z M82.6,166.3c-0.2-0.7-0.8-1.8-1.2-2.3
		C80.7,164.8,81.5,166.7,82.6,166.3z"/>
	<path class="st1" d="M188,60c-1.8-4.3-3.9-8.7-6.6-12.4c-5.4,5-14.1,7.8-21.2,11.6c-1.8,0.9-3.2,2.2-5.6,2.6
		c2.8,1.6,6.6,1.2,11.1,0.8C172.7,62,181.1,60.1,188,60C188,60,188,60,188,60z"/>
	<path class="st1" d="M188,82.5c-1.1-7.3-0.9-14.3-0.3-21.7c-0.7,0.2-1.5,0.3-2.3,0.5c-8.8,2.4-17.4,4.3-25.1,4.2
		c-5,0-9-1.6-13.2-3.4c-4-1.7-8-3.3-12.3-4.7c-2.1-0.7-4.3-1.1-6.5-1.8c-1.7-0.5-3.3-1.3-5.1-1.7c-1.8-0.4-3.7-0.9-5.5-0.9
		c-1.9,0-3.6,0.2-5.4,0.1c-5.1-0.3-9.7-1.2-14.8-1.7c-0.3,0.9-0.1,2.1-0.4,3c-0.8,0-0.8-1.2-1.1-2c-0.3,0.9-0.9,1.9-0.7,2.7
		c-1.5-0.3-1.1-2.7-0.6-3.6c-3.8,1-7.7,1-10.7-0.3c-1.5-0.7-2.3-2.2-3.7-2.3c-0.5,0.5,0.1,1.3,0.3,2c0.6,1.7,1.8,4.7,2.8,5.8
		c0.9,1,4,2.2,5.4,2.8c2,0.9,3.6,2,5.6,2.5c3.9,1,8.9,1.9,13.1,1.8c3.8-0.1,7.4-0.8,10.9-0.7c1.7,0,3.4,0.2,5,0.4
		c1.5,0.2,3.3,0.1,4.6,1c-3.8,0.2-7.7,0.5-11.4,0.5c-0.4-0.3-0.2,0.3-0.7,0.3c-8.1,0.9-18.1,3.9-26.8,5.8c-4.1,0.9-8.2,1.6-12.2,2.3
		c-3.9,0.7-7.9,0.9-11.7,1.5c-5.5,0.8-10.2,3-15.2,4.4c0.2,1.5,1,4.2,1.1,5.9c0.1,0.4-0.4,0.5-0.8,0.6c12.3-0.5,26.5-4.3,37.5-2.7
		c1.7-0.8,7.7,2,4.4,2.3c-0.2,1-1,1.7-1.3,2.7c-1.1,0-1.7,1.1-2.5,1.6c-1.4,0.8-3.3,1.4-5.1,2.1c-1.7,0.7-3.7,1.3-5.4,1.9
		c-3.7,1.2-7.4,2.8-10.7,3.9c-1.8,0.6-3.8,0.9-5.6,1.4c-1.7,0.5-3.4,1.3-5.1,1.8c-5.3,1.7-10.3,3.2-14.7,5.5
		c0.3,2.1,2.1,3.8,2.8,5.3c-1.2,0.2-1.8,1.2-3,1.7c9.7-2.2,19.3-4.6,29.3-6.4c0.8-0.1,1.8-0.6,2.2-0.6c0.2,0,0.5,0,0.6,0
		c2.3-0.7,4.9-1.4,7.4-2c2.5-0.7,5.2-1.1,7.4-1.8c2.9-0.9,7.9-1.4,9.7,0.7c-0.6,0.8-1.6-0.1-2.4,0.1c0.5,0.9,1.2,1.5,2.1,1.8
		c0.4,3.3-1.6,5.7-4.2,7.1c-5.4,3-14.3,5.6-19.9,8c0.2,0.9,0.4,2,0.8,2.8c1,2.1,3.2,3.7,3.3,5.8c-2.3-1.3-4.8-4.2-5.2-8.1
		c-6.7,2.5-12.6,5.5-18.9,8.3c0.8,0.1,1.7-0.1,2,0.8c-0.4,0.2-0.6-0.1-1,0.1c-0.4,1.3-0.2,3.3,0.7,4.5c-0.1-1.4-0.6-3.7,0.5-4
		c0.6,0.2,0.6,1.2,0.8,2c0.3,0.9,0.5,1.8,0.9,2.5c4.6,0,8.2-2.5,12.7-3.8c6-1.7,12.7-1.2,17.1-4.5c5.6-1.2,12.9-5.1,19.4-5.4
		c1.2-0.1,2.4,0.5,3.3,1.1c0,0.8,0.4,1.2,0.1,2c-0.8,0.5-2-1.3-3.3-1.3c0.6,0.8,0,2.2,0.6,3.7c-2.9,4.9-8.1,8.4-13.6,11.6
		c1.2,1.3,3.7,2.8,3.8,5.9c7-3.4,14.2-7.8,22.4-10.7c3.9-1.4,7.9-3.5,12-4.9c4.3-1.5,8.7-2.6,12.6-4.5c2.9-1.5,6.1-3.9,8.9-6
		c3-2.2,6.2-4.1,8.4-6.3c0.4-0.4,0.8-0.8,1-1.3c4.3-2.4,8.6-5.3,14.4-6.7c4.2-1,8.5-3,12.8-3.6C190,94.5,188.9,88.5,188,82.5z
		 M86.6,55.4c-1.6-0.1-0.5-2.9,0.8-2.5C87.2,53.9,86.9,54.6,86.6,55.4z M51.9,84.8c-1.8-0.4-1.2-4.5,0.5-4.3
		C51.5,81.5,52.5,83.7,51.9,84.8z M67.1,82c-1.1-1.2-3-7-0.1-6.8C65.9,76.9,68.2,80.6,67.1,82z M70.8,81.9c-1.8-0.6-1.8-6,0.3-5
		C70,77.9,71.5,80.6,70.8,81.9z M44.7,110c-0.8-0.4-2.4-2.8-0.8-3.4C43.7,107.7,45.6,108.9,44.7,110z M61.2,100.2
		c0.5,2.6,1.6,4,2,5.9C61.2,106.4,59.7,101.4,61.2,100.2z M65,105.3c-1.2-0.4-1.8-3.4-1.5-4.8C64.2,101.6,65.7,104.1,65,105.3z
		 M58.4,133.6c-0.9-0.3-1.7-3.3-1-4.1C57.9,130.5,58.7,132.3,58.4,133.6z M75.9,122.1l0.4-0.1c0.5,1.6,2.1,3.7,2.3,5.7
		C77,127.5,75,123.7,75.9,122.1z M80.1,127.4c-0.9-1.6-2.1-3.6-2.3-5.7l0.4-0.1C78.8,123.2,81.3,125.7,80.1,127.4z M118.4,125.1
		c1.5-0.7,2.6-2.3,3.9-1.8c-0.3,2-3.7,5.2-5.6,3C116.7,125.4,117.6,125.5,118.4,125.1z M111.4,109.6c-0.4,0.6-1.5,1-2.5,1.2
		c-0.9,0.2-2.2,0.4-2.9,0.2C106.4,109.4,110.1,109,111.4,109.6z M105.9,88c-0.2,1.1-2.5,1-3.3,1C102.8,88.2,105.2,87.8,105.9,88z
		 M99.9,92.1c1.4-1.8,6.3-2,8.5-2.6c-0.5,0.7-2.7,2-4.4,2.6C102.6,92.6,100.5,93.5,99.9,92.1z M105.4,115c-0.3-0.1-0.1-0.8-0.4-0.8
		c2.3-1.1,5.7-3,8-3.8c0.3-0.1,0.5-0.3,0.9,0.1C112.1,112.6,108.6,114.1,105.4,115z M117.9,133.4c-2.2,0.9-4.3,2.3-6.6,2.4
		c1.2-1.6,3.7-2.5,6-3.5c2.4-1,4.7-2.2,7-2.7c0.4-0.1,1.3-0.8,1.6,0.1C123.2,130.9,120.7,132.2,117.9,133.4z"/>
	<path class="st2" d="M56.1,56c1.6,0.2,3.3,1.7,5,2.4C59.5,58.2,57.6,57,56.1,56z"/>
	<path class="st1" d="M63.3,63.5c3.1,2.1,5.4,5.3,8.3,7.7c-1.7-0.4-3.7-0.3-5.4-0.8c0,0-0.2-0.1-0.3-0.1c-3.7-2-7.5-5.2-9.8-9.2
		c0-0.7,0.5-1.1,0.1-2.2c0.6-0.2,1.7,1,2.6,1.2c0.9,0.2,1.9,0.1,2.9,0.3c2.6,0.4,5.4,1.2,8.2,1.5c3.9,0.5,8,0.2,12.1,0.3
		c2.1,2.3,4.3,4.4,6.6,6.3c-0.2,0.4-1,0.3-1.5,0.5c-0.9-1.2-2.3-2.2-3.4-3.3c-1.1-1-2.1-2.6-3.5-2.6c0.3,1.4,1.7,2.2,2.7,3.2
		c1,1,1.9,2.1,3,2.8c-0.1,0.3-0.9,0.2-1.2,0.4c-1.8-1.8-3.5-3.6-5.5-5.1c-0.2-0.3,0.1-0.4,0-0.7c-0.9-0.2-1.6-0.8-2.6-1
		c-0.5,0.2,0.1,0.6-0.1,0.8c-1.2,0.4-1.5-0.5-2.4-0.5c-0.6,0,0.2,0.6-0.1,0.6c-1.1,0.3-1.7-0.3-2.4-0.5c-0.5,0.1-0.1,0.4-0.3,0.5
		c-1.5,0.1-2.7-0.3-3.8-0.8c-0.5,0.5-1.5-0.3-1.7,0.5c-0.8-0.1-1.3-0.5-2.3-0.3c1.4,1.2,3.6,1.4,5.6,1.6c2.4,2.2,4.8,4.5,7.1,6.9
		c-1.2,0-2.8,0.4-3.9,0.2c-2.1-2.4-4.2-4.6-6.7-6.4C67.2,64.8,64.1,63.8,63.3,63.5z"/>
	<path class="st1" d="M91.9,64.3c1.5-0.1,3.2,1,4.4,2C94.3,67.7,93.4,64.9,91.9,64.3z"/>
	<path class="st1" d="M95.7,65.2c0.4-0.2,0.9,0.8,1.5,0.9C96.7,66.5,96.3,65.3,95.7,65.2z"/>
	<path class="st1" d="M74.4,90.2c0,0.5,0.3,1.4,0.9,1.4c-0.9,1-2.7,1.3-4.4,1.8c-4.4,1.4-9.7,2.3-14.4,3.6c-2.3,0.6-4.3,1.5-6.5,1.8
		c-1.8,0.2-3.8,0.5-6,0.9c-5.4,0.9-11.2,2.9-16.4,3.5c-2,0.2-6.8,0.4-7.4-1.2c-0.5-1.5,1.9-3.9,2.9-4.7c1.1,0.3,1.9,1.3,3.1,1.6
		c-1.4,0.8-3.4,1.2-3.7,2.7c1.2-0.3,2.6-1.6,4.1-2.1c0.5-0.2,1.1,0.2,1.3-0.4c-0.9-1.1-3-1.3-3.6-2.3c0.7-0.2,1,0.5,1.5,0.8
		c1.3,0.8,3,1.4,4.7,1.6c-0.9-1.5-3.5-1.8-5.1-2.8c1-0.4,1.9-1.3,2.8-1.3c0.4,0,1.3,0.8,1.8,1.1c1.7,1,3.8,2.2,5.8,2.3
		c-1.2-2-4.4-2.4-6.5-3.7c3-1.9,4.9,0,6.6,1.2c0.2,1.3,0.6,2.4,1.5,2.6c0.5-0.3,0.2-1.2,0.3-1.8c0.8,0.7,1.5,1,2.6,1.4
		c0.3-0.7,2.2-0.7,3-0.7c2.4-0.8,5.4-1.8,7.5-2.5c0.4-0.8,1.7-1.1,2.5-1.6c-1.7-1.3-3.4-2.4-5.5-2.9c1,1.9,3.1,2,4.5,3.2
		c-1.7,1-3-0.4-4.3-1.2C47,92,46,91.5,45.3,90.9c2.1-0.7,5.4-1.4,7.6-2c0.6-0.2,2-1.2,2.1,0.2c0,0.7-0.4-0.4-0.9-0.1
		c0,0.5,0.9,1,1.2,1.5c0.4,1.6,0.4,2.9,0.7,4.4c0.3,0.4,0.7,0.7,1.2,0.9c0.9-0.3,0.7-1.3,0.7-2.2c0.7,0.1,1.4,0.2,2,0.5
		c2.2-0.7,6.2-0.8,9.1-1.6c0.8-0.2,1.3-0.8,2-0.9c0.6,0,1,0.6,1.5,0.5c0.4-0.5-1-0.7-0.3-1c-2.2-1-3.7-3.2-5.8-4.3
		c0.3-0.3,1.3-0.2,2-0.4C70.4,87.7,72.2,90,74.4,90.2z"/>
	<path class="st1" d="M56.8,88.7c1.4,0.9,3.2,2.7,4.7,4.1C58.6,93.5,57.5,91.4,56.8,88.7z"/>
	<path class="st1" d="M78.1,89c0.4,0.1,1.9,0.8,2,1.4c-0.2,0-0.4,0.1-0.6,0.1C79,89.9,78.6,89.5,78.1,89z"/>
	<path class="st1" d="M60.1,112.4c0.1-0.2,0.3-0.3,0.6-0.4c0.2,0.6,0.8,0.7,1.1,1.1C61.8,113.3,60.7,112.5,60.1,112.4z"/>
	<path class="st1" d="M82.5,113.5c-1.6-1-3.2-3.6-4.4-6c-0.2,0-0.4,0.1-0.6,0.1c0,2.4,3,6.2,1.6,7c-1,0.6-1.6-1.3-2.1-2.1
		c-3.6-0.4-6.3-2.3-10-2.6c3,1.7,6.7,2.3,9.9,3.7c-0.9,0.3-1.8,0.6-2.5,1c-0.1,0.1-0.1,0.1,0,0.2c-1.8,0.2-3.5,0.8-5.2,1.4
		c-0.4,0.1-0.8,0.2-1.2,0.3c0,0-0.1-0.1-0.2-0.1c0.4-0.1,0.8-0.2,1.1-0.3c-0.3-0.4-1.3-0.6-1.5-0.5c0.1,0,0.2,0.1,0.3,0.1
		c-0.6,0.7-1.5-0.1-2.1-0.3c-2.3-0.9-4.6-1.8-6.6-2.8c-8.8,3.5-18.2,7.1-26.4,10.8c-2.9,1.3-5.9,2.5-8.4,4c-1.2,0.7-2.2,1.6-3.4,2.2
		c-1.2,0.6-2.6,1.2-3.4,2.4c0.8,0.6,0.7,2.4,1.5,3.3c3.7-0.4,7.2-1.6,10.7-2.4c5.1-1.1,9.9-3.2,14.8-4.5c1.4-0.4,2.8-0.4,4.2-0.8
		c3.7-1,6.9-3.3,10.6-4.1c0-0.7-0.1-1.7-0.2-2.5c0-0.1,0-0.2,0-0.2c0,0,0,0,0,0c0-0.9,0-1.7,0-2.6c0-0.1,0-0.2,0-0.2
		c-0.1-1-0.7-2.3,0-3c1,0.5,1.3,2,1.8,3.2c0,0,0,0,0.1,0c0.1,0.5,0.3,0.9,0.5,1.4c0,0.2,0.1,0.3,0.1,0.5c0,0.1,0.1,0.2,0.2,0.3
		c0.4,1.1,0.6,2.3,0.5,2.9c5.9-3.6,12.9-6.4,19.6-9.4c-0.7,0-1.7-0.5-1.6-1.4C81,111.7,81.7,113.8,82.5,113.5z M39,128.2
		c-1.2-0.5-1.9-3.3-1.9-4.7C38.1,124.3,39.6,126.6,39,128.2z M58,114c2.1,0.8,3.9,2.1,5.7,3.3C61.5,116.6,59.5,115.6,58,114z"/>
	<path class="st1" d="M88.4,135.8c-2.9-1.3-5.7-2.7-8.4-4.2c-0.7,0.2-1.6,0.3-1.9,0.7c2.3,1,4.7,2.3,6.8,3.3
		c0.7,0.4,1.8,0.5,2.1,1.4c-2.8-0.5-5.5-1.9-8.2-3.2c-1.1-0.5-2.3-1.9-3.6-1c3.4,1.5,6.3,3.6,9.8,4.9c-0.2,0.7-1.6,0.6-2.1,1.1
		c0.1,0.6,1.1,0.5,0.9,1c-1.3-0.5-2.5-0.1-4.4,0.7c-0.3,0.2,0,0.8-0.5,0.9c-1.7-0.8-5.3,1.3-5.4-1.9c-1.6,0.5-3.4,0.9-4.4,1.8
		c-0.9,0-2.3,0.3-2.5,1.1c-0.7-0.4-1.2,0.4-2,0.6c0.1,0.3,0.4,0.6,0,0.8c-0.4,0-0.7-0.2-1.1-0.2c-3.1,1.7-6.8,3.9-10.9,4.2
		c0.2-0.7-0.7-0.6-1.5-0.6c0.4,1.3,0.9,1.6,1.5,2.5c-1.6,1.8-2.8-1.2-3.3-2.9c-0.3-0.3-0.9-0.1-0.9-0.7c0.2-0.4,0.7,0,0.8-0.3
		c-0.3-0.5,0.2-1-0.1-1.1c-3.5,1.9-7.4,3.5-11.3,5c-0.6,0.2-1.3,0.5-1.6,1.2c0,0,0,0,0,0c0,0,0,0-0.1,0.1c-0.2,0.2-0.3,0.4-0.4,0.7
		c0,0,0,0,0,0c-0.5,0.8-0.2,2.3,0.1,3.7c1.2,0.1,2.6-0.2,3.4-0.4c2.8-0.4,5.7-2.2,8.2-2.4c2-0.1,3.9-1.3,6.1-1.9
		c4.5-1.3,9.5-3.7,13.8-4.7c4.4-0.9,9.4-4.4,13.2-4.7c3.2-1.2,5.8-2.8,8.3-4.5C88.8,136.7,88.5,136.3,88.4,135.8z"/>
	<path class="st1" d="M66.6,135.2c0.6-0.4,1.9-0.5,2.7-0.7c0.6,1.1,1.4,2,2.2,2.7C70,137.1,68.2,135.9,66.6,135.2z"/>
	<path class="st1" d="M92.2,129.7c0.1,0,1.5,0.9,2.1,1.4C94.2,131.1,92.8,130.2,92.2,129.7z"/>
	<path class="st1" d="M77.3,147.1c0.1-0.2,0.4-0.3,0.6-0.4c0.2,0.4,0.1,1.1,0.4,1.3C77.9,148.4,77.6,147.3,77.3,147.1z"/>
	<path class="st1" d="M107.4,146.5c0.7-0.2,2,0.2,3,0.1c-0.3,0.6-0.9,0.9-1.4,1.3C108.5,147.3,107.9,146.9,107.4,146.5z"/>
</g>
</svg>
