<?xml version="1.0" encoding="utf-8"?>
<!-- Generator: Adobe Illustrator 23.1.1, SVG Export Plug-In . SVG Version: 6.00 Build 0)  -->
<svg version="1.1" id="Camada_1" xmlns="http://www.w3.org/2000/svg" xmlns:xlink="http://www.w3.org/1999/xlink" x="0px" y="0px"
	 viewBox="0 0 911.3 439.9" style="enable-background:new 0 0 911.3 439.9;" xml:space="preserve">
<style type="text/css">
	.st0{fill:#CCCCCC;}
	.st1{fill:none;stroke:#666666;stroke-miterlimit:10;}
	.st2{fill:#666666;}
	.st3{fill:#F2904D;}
	.st4{fill:#F1B143;}
	.st5{fill:#6BA151;}
	.st6{fill:#9E4421;}
	.st7{fill:#999999;}
	.st8{opacity:0.5;fill:none;stroke:#CCCCCC;stroke-width:0.75;stroke-miterlimit:10;}
	.st9{fill:#606060;}
	.st10{fill:#FFFFFF;}
</style>
<path class="st0" d="M910.7,437.8H-0.5V-0.5h911.2V437.8z M0.6,436.9h909V0.4H0.6V436.9z"/>
<g id="Layer_1">
</g>
<line class="st1" x1="36.9" y1="514.8" x2="372.2" y2="514.8"/>
<g>
	<path class="st2" d="M162.6,38.5c-1.4-0.7-2.5-1.8-3.3-3.1c-0.8-1.3-1.2-2.8-1.2-4.5c0-1.7,0.4-3.2,1.2-4.5
		c0.8-1.3,1.9-2.4,3.3-3.1c1.4-0.7,3-1.1,4.7-1.1c1.5,0,2.9,0.3,4.2,0.8c1.2,0.5,2.3,1.3,3.1,2.4l-3,2.7c-1.1-1.3-2.4-2-4-2
		c-0.9,0-1.7,0.2-2.4,0.6c-0.7,0.4-1.3,1-1.7,1.7c-0.4,0.7-0.6,1.6-0.6,2.5c0,0.9,0.2,1.8,0.6,2.5c0.4,0.7,0.9,1.3,1.7,1.7
		c0.7,0.4,1.5,0.6,2.4,0.6c1.6,0,2.9-0.7,4-2l3,2.7c-0.8,1-1.8,1.8-3.1,2.4c-1.2,0.5-2.6,0.8-4.2,0.8
		C165.6,39.6,164,39.3,162.6,38.5z"/>
	<path class="st2" d="M179.4,38.5c-1.4-0.8-2.5-1.8-3.3-3.1c-0.8-1.3-1.2-2.8-1.2-4.5c0-1.7,0.4-3.2,1.2-4.5
		c0.8-1.3,1.9-2.4,3.3-3.1c1.4-0.8,3-1.1,4.8-1.1c1.8,0,3.4,0.4,4.8,1.1s2.5,1.8,3.3,3.1c0.8,1.3,1.2,2.8,1.2,4.5
		c0,1.7-0.4,3.2-1.2,4.5c-0.8,1.3-1.9,2.4-3.3,3.1c-1.4,0.8-3,1.1-4.8,1.1C182.4,39.6,180.8,39.3,179.4,38.5z M186.5,35.1
		c0.7-0.4,1.2-1,1.6-1.7c0.4-0.7,0.6-1.6,0.6-2.5c0-0.9-0.2-1.8-0.6-2.5c-0.4-0.7-0.9-1.3-1.6-1.7c-0.7-0.4-1.5-0.6-2.3-0.6
		s-1.6,0.2-2.3,0.6c-0.7,0.4-1.2,1-1.6,1.7c-0.4,0.7-0.6,1.6-0.6,2.5c0,0.9,0.2,1.8,0.6,2.5c0.4,0.7,0.9,1.3,1.6,1.7
		c0.7,0.4,1.5,0.6,2.3,0.6S185.8,35.5,186.5,35.1z"/>
	<path class="st2" d="M210.6,39.3l0-8.9l-4.3,7.2h-2.1l-4.3-7v8.7h-4.4V22.5h3.9l5.9,9.7l5.8-9.7h3.9l0,16.8H210.6z"/>
	<path class="st2" d="M229.3,23.3c1.1,0.5,2,1.2,2.6,2.2c0.6,0.9,0.9,2,0.9,3.3c0,1.3-0.3,2.4-0.9,3.3c-0.6,0.9-1.5,1.6-2.6,2.1
		s-2.4,0.8-4,0.8h-2.9v4.4h-4.8V22.5h7.7C226.9,22.5,228.2,22.7,229.3,23.3z M227.3,30.5c0.5-0.4,0.7-1,0.7-1.8
		c0-0.8-0.2-1.4-0.7-1.8c-0.5-0.4-1.2-0.6-2.2-0.6h-2.6v4.9h2.6C226.1,31.2,226.8,30.9,227.3,30.5z"/>
	<path class="st2" d="M238.5,38.5c-1.4-0.8-2.5-1.8-3.3-3.1c-0.8-1.3-1.2-2.8-1.2-4.5c0-1.7,0.4-3.2,1.2-4.5
		c0.8-1.3,1.9-2.4,3.3-3.1s3-1.1,4.8-1.1c1.8,0,3.4,0.4,4.8,1.1s2.5,1.8,3.3,3.1c0.8,1.3,1.2,2.8,1.2,4.5c0,1.7-0.4,3.2-1.2,4.5
		c-0.8,1.3-1.9,2.4-3.3,3.1c-1.4,0.8-3,1.1-4.8,1.1C241.5,39.6,239.9,39.3,238.5,38.5z M245.6,35.1c0.7-0.4,1.2-1,1.6-1.7
		c0.4-0.7,0.6-1.6,0.6-2.5c0-0.9-0.2-1.8-0.6-2.5c-0.4-0.7-0.9-1.3-1.6-1.7c-0.7-0.4-1.5-0.6-2.3-0.6c-0.8,0-1.6,0.2-2.3,0.6
		c-0.7,0.4-1.2,1-1.6,1.7c-0.4,0.7-0.6,1.6-0.6,2.5c0,0.9,0.2,1.8,0.6,2.5c0.4,0.7,0.9,1.3,1.6,1.7c0.7,0.4,1.5,0.6,2.3,0.6
		C244.1,35.7,244.9,35.5,245.6,35.1z"/>
	<path class="st2" d="M256.4,39.1c-1.3-0.3-2.3-0.8-3.1-1.3l1.6-3.5c0.8,0.5,1.6,0.9,2.6,1.2c1,0.3,2,0.5,2.9,0.5
		c1.8,0,2.7-0.5,2.7-1.4c0-0.5-0.3-0.8-0.8-1.1c-0.5-0.2-1.4-0.5-2.5-0.7c-1.3-0.3-2.3-0.6-3.2-0.9c-0.8-0.3-1.6-0.8-2.2-1.5
		c-0.6-0.7-0.9-1.6-0.9-2.8c0-1,0.3-1.9,0.8-2.8c0.6-0.8,1.4-1.5,2.5-2s2.5-0.7,4.1-0.7c1.1,0,2.2,0.1,3.3,0.4
		c1.1,0.2,2,0.6,2.8,1.1l-1.5,3.5c-1.6-0.9-3.2-1.3-4.7-1.3c-0.9,0-1.6,0.1-2.1,0.4c-0.4,0.3-0.6,0.6-0.6,1.1c0,0.4,0.3,0.8,0.8,1
		s1.3,0.5,2.5,0.7c1.3,0.3,2.3,0.6,3.2,0.9s1.6,0.8,2.2,1.5c0.6,0.7,0.9,1.6,0.9,2.8c0,1-0.3,1.9-0.8,2.7c-0.6,0.8-1.4,1.5-2.5,2
		s-2.5,0.7-4.1,0.7C259,39.6,257.7,39.5,256.4,39.1z"/>
	<path class="st2" d="M269.4,22.5h4.8v16.8h-4.8V22.5z"/>
	<path class="st2" d="M280.6,38.5c-1.4-0.7-2.5-1.8-3.3-3.1c-0.8-1.3-1.2-2.8-1.2-4.5c0-1.7,0.4-3.2,1.2-4.5
		c0.8-1.3,1.9-2.4,3.3-3.1c1.4-0.7,3-1.1,4.7-1.1c1.5,0,2.9,0.3,4.2,0.8c1.2,0.5,2.3,1.3,3.1,2.4l-3,2.7c-1.1-1.3-2.4-2-4-2
		c-0.9,0-1.7,0.2-2.4,0.6c-0.7,0.4-1.3,1-1.7,1.7c-0.4,0.7-0.6,1.6-0.6,2.5c0,0.9,0.2,1.8,0.6,2.5c0.4,0.7,0.9,1.3,1.7,1.7
		c0.7,0.4,1.5,0.6,2.4,0.6c1.6,0,2.9-0.7,4-2l3,2.7c-0.8,1-1.8,1.8-3.1,2.4c-1.2,0.5-2.6,0.8-4.2,0.8
		C283.6,39.6,282,39.3,280.6,38.5z M282.6,44.8c-0.4-0.1-0.8-0.2-1-0.4l0.6-1.8c0.5,0.2,1,0.3,1.5,0.3c0.8,0,1.2-0.2,1.2-0.7
		c0-0.4-0.4-0.6-1.1-0.6h-0.9l0.6-2.6h2.4l-0.3,1.4c0.7,0.1,1.2,0.3,1.6,0.7c0.3,0.4,0.5,0.8,0.5,1.3c0,0.8-0.3,1.4-1,1.8
		c-0.7,0.4-1.6,0.7-2.8,0.7C283.5,45,283.1,44.9,282.6,44.8z"/>
	<path class="st2" d="M305,36h-7.1l-1.3,3.3h-4.8l7.4-16.8h4.7l7.4,16.8h-4.9L305,36z M302.2,21c-0.3-0.2-0.7-0.4-1.1-0.7
		c-0.3-0.2-0.5-0.4-0.7-0.4c-0.2-0.1-0.3-0.1-0.5-0.1c-0.3,0-0.6,0.1-0.8,0.3s-0.3,0.5-0.3,0.9h-2.2c0-1.2,0.3-2.1,0.9-2.8
		s1.3-1,2.2-1c0.4,0,0.8,0.1,1.2,0.2c0.3,0.2,0.7,0.4,1.2,0.7c0.3,0.2,0.5,0.4,0.7,0.4s0.3,0.1,0.5,0.1c0.3,0,0.6-0.1,0.8-0.3
		c0.2-0.2,0.3-0.5,0.3-0.9h2.2c0,1.1-0.3,2-0.9,2.7c-0.5,0.7-1.3,1-2.2,1C303,21.3,302.6,21.2,302.2,21z M303.6,32.5l-2.2-5.4
		l-2.2,5.4H303.6z"/>
	<path class="st2" d="M315.5,38.5c-1.4-0.8-2.5-1.8-3.3-3.1c-0.8-1.3-1.2-2.8-1.2-4.5c0-1.7,0.4-3.2,1.2-4.5
		c0.8-1.3,1.9-2.4,3.3-3.1s3-1.1,4.8-1.1c1.8,0,3.4,0.4,4.8,1.1s2.5,1.8,3.3,3.1c0.8,1.3,1.2,2.8,1.2,4.5c0,1.7-0.4,3.2-1.2,4.5
		c-0.8,1.3-1.9,2.4-3.3,3.1c-1.4,0.8-3,1.1-4.8,1.1C318.5,39.6,316.9,39.3,315.5,38.5z M322.6,35.1c0.7-0.4,1.2-1,1.6-1.7
		c0.4-0.7,0.6-1.6,0.6-2.5c0-0.9-0.2-1.8-0.6-2.5c-0.4-0.7-0.9-1.3-1.6-1.7c-0.7-0.4-1.5-0.6-2.3-0.6c-0.8,0-1.6,0.2-2.3,0.6
		c-0.7,0.4-1.2,1-1.6,1.7c-0.4,0.7-0.6,1.6-0.6,2.5c0,0.9,0.2,1.8,0.6,2.5c0.4,0.7,0.9,1.3,1.6,1.7c0.7,0.4,1.5,0.6,2.3,0.6
		C321.1,35.7,321.9,35.5,322.6,35.1z"/>
	<path class="st2" d="M337.9,22.5h7.9c1.8,0,3.5,0.3,4.9,1c1.4,0.7,2.5,1.7,3.3,2.9c0.8,1.3,1.2,2.7,1.2,4.4c0,1.7-0.4,3.2-1.2,4.4
		c-0.8,1.3-1.9,2.2-3.3,2.9c-1.4,0.7-3.1,1-4.9,1h-7.9V22.5z M345.6,35.5c1.4,0,2.6-0.4,3.5-1.2c0.9-0.8,1.3-1.9,1.3-3.4
		c0-1.4-0.4-2.6-1.3-3.4c-0.9-0.8-2-1.2-3.5-1.2h-3v9.2H345.6z"/>
	<path class="st2" d="M360.8,38.5c-1.4-0.8-2.5-1.8-3.3-3.1c-0.8-1.3-1.2-2.8-1.2-4.5c0-1.7,0.4-3.2,1.2-4.5
		c0.8-1.3,1.9-2.4,3.3-3.1s3-1.1,4.8-1.1c1.8,0,3.4,0.4,4.8,1.1s2.5,1.8,3.3,3.1c0.8,1.3,1.2,2.8,1.2,4.5c0,1.7-0.4,3.2-1.2,4.5
		c-0.8,1.3-1.9,2.4-3.3,3.1c-1.4,0.8-3,1.1-4.8,1.1C363.8,39.6,362.2,39.3,360.8,38.5z M367.9,35.1c0.7-0.4,1.2-1,1.6-1.7
		c0.4-0.7,0.6-1.6,0.6-2.5c0-0.9-0.2-1.8-0.6-2.5c-0.4-0.7-0.9-1.3-1.6-1.7c-0.7-0.4-1.5-0.6-2.3-0.6c-0.8,0-1.6,0.2-2.3,0.6
		c-0.7,0.4-1.2,1-1.6,1.7c-0.4,0.7-0.6,1.6-0.6,2.5c0,0.9,0.2,1.8,0.6,2.5c0.4,0.7,0.9,1.3,1.6,1.7c0.7,0.4,1.5,0.6,2.3,0.6
		C366.4,35.7,367.2,35.5,367.9,35.1z"/>
	<path class="st2" d="M383.2,22.5h4.8v16.8h-4.8V22.5z M386.4,17.5h4.6l-4.5,3.6h-3.3L386.4,17.5z"/>
	<path class="st2" d="M406.7,22.5v16.8h-3.9l-7.4-9v9h-4.7V22.5h3.9l7.4,9v-9H406.7z"/>
	<path class="st2" d="M409.5,22.5h7.9c1.8,0,3.5,0.3,4.9,1c1.4,0.7,2.5,1.7,3.3,2.9c0.8,1.3,1.2,2.7,1.2,4.4c0,1.7-0.4,3.2-1.2,4.4
		c-0.8,1.3-1.9,2.2-3.3,2.9c-1.4,0.7-3.1,1-4.9,1h-7.9V22.5z M417.2,35.5c1.4,0,2.6-0.4,3.5-1.2c0.9-0.8,1.3-1.9,1.3-3.4
		c0-1.4-0.4-2.6-1.3-3.4c-0.9-0.8-2-1.2-3.5-1.2h-3v9.2H417.2z"/>
	<path class="st2" d="M428.7,22.5h4.8v16.8h-4.8V22.5z"/>
	<path class="st2" d="M439.9,38.5c-1.4-0.7-2.5-1.8-3.3-3.1c-0.8-1.3-1.2-2.8-1.2-4.5c0-1.7,0.4-3.2,1.2-4.5
		c0.8-1.3,1.9-2.4,3.3-3.1c1.4-0.7,3-1.1,4.7-1.1c1.5,0,2.9,0.3,4.2,0.8c1.2,0.5,2.3,1.3,3.1,2.4l-3,2.7c-1.1-1.3-2.4-2-4-2
		c-0.9,0-1.7,0.2-2.4,0.6c-0.7,0.4-1.3,1-1.7,1.7c-0.4,0.7-0.6,1.6-0.6,2.5c0,0.9,0.2,1.8,0.6,2.5c0.4,0.7,0.9,1.3,1.7,1.7
		c0.7,0.4,1.5,0.6,2.4,0.6c1.6,0,2.9-0.7,4-2l3,2.7c-0.8,1-1.8,1.8-3.1,2.4c-1.2,0.5-2.6,0.8-4.2,0.8
		C442.9,39.6,441.3,39.3,439.9,38.5z"/>
	<path class="st2" d="M466.8,35.6v3.7h-13.5V22.5h13.2v3.7h-8.5V29h7.5v3.6h-7.5v3.1H466.8z"/>
	<path class="st2" d="M475.3,22.5h7.9c1.8,0,3.5,0.3,4.9,1c1.4,0.7,2.5,1.7,3.3,2.9c0.8,1.3,1.2,2.7,1.2,4.4c0,1.7-0.4,3.2-1.2,4.4
		c-0.8,1.3-1.9,2.2-3.3,2.9c-1.4,0.7-3.1,1-4.9,1h-7.9V22.5z M483,35.5c1.4,0,2.6-0.4,3.5-1.2c0.9-0.8,1.3-1.9,1.3-3.4
		c0-1.4-0.4-2.6-1.3-3.4c-0.9-0.8-2-1.2-3.5-1.2h-3v9.2H483z"/>
	<path class="st2" d="M508,35.6v3.7h-13.5V22.5h13.2v3.7h-8.5V29h7.5v3.6h-7.5v3.1H508z"/>
	<path class="st2" d="M533.4,22.5l-7.2,16.8h-4.7l-7.2-16.8h5.1l4.6,10.9l4.7-10.9H533.4z"/>
	<path class="st2" d="M536.1,37.6c-1.4-1.4-2.1-3.3-2.1-5.8v-9.3h4.8v9.2c0,2.7,1.1,4,3.2,4c2.1,0,3.2-1.3,3.2-4v-9.2h4.7v9.3
		c0,2.5-0.7,4.4-2.1,5.8c-1.4,1.4-3.3,2-5.8,2S537.5,39,536.1,37.6z"/>
	<path class="st2" d="M552.5,22.5h4.8v13h8v3.8h-12.8V22.5z"/>
	<path class="st2" d="M582.5,22.5v16.8h-3.9l-7.4-9v9h-4.7V22.5h3.9l7.4,9v-9H582.5z"/>
	<path class="st2" d="M598.7,35.6v3.7h-13.5V22.5h13.2v3.7h-8.5V29h7.5v3.6h-7.5v3.1H598.7z"/>
	<path class="st2" d="M608.1,34.8h-2.6v4.5h-4.8V22.5h7.7c1.5,0,2.8,0.3,4,0.8c1.1,0.5,2,1.2,2.6,2.2c0.6,0.9,0.9,2,0.9,3.3
		c0,1.2-0.3,2.3-0.9,3.2c-0.6,0.9-1.4,1.6-2.4,2.1l3.6,5.3h-5.1L608.1,34.8z M610.4,26.9c-0.5-0.4-1.2-0.6-2.2-0.6h-2.6v4.9h2.6
		c1,0,1.7-0.2,2.2-0.6c0.5-0.4,0.7-1,0.7-1.8C611.1,27.9,610.9,27.3,610.4,26.9z"/>
	<path class="st2" d="M629.2,36h-7.1l-1.3,3.3h-4.8l7.4-16.8h4.7l7.4,16.8h-4.9L629.2,36z M627.8,32.5l-2.2-5.4l-2.2,5.4H627.8z"/>
	<path class="st2" d="M651.4,32.1c0.5,0.7,0.8,1.6,0.8,2.6c0,1.5-0.6,2.6-1.8,3.4c-1.2,0.8-2.9,1.2-5.1,1.2h-9.1V22.5h8.6
		c2.1,0,3.8,0.4,4.9,1.2s1.7,1.9,1.7,3.2c0,0.8-0.2,1.5-0.6,2.1c-0.4,0.6-0.9,1.1-1.7,1.5C650.1,30.9,650.8,31.4,651.4,32.1z
		 M640.9,25.9v3.2h3.3c1.6,0,2.4-0.5,2.4-1.6c0-1.1-0.8-1.6-2.4-1.6H640.9z M647.4,34.2c0-1.1-0.8-1.7-2.5-1.7h-4v3.4h4
		C646.5,35.9,647.4,35.3,647.4,34.2z"/>
	<path class="st2" d="M654,22.5h4.8v16.8H654V22.5z"/>
	<path class="st2" d="M661.6,22.5h4.8v13h8v3.8h-12.8V22.5z"/>
	<path class="st2" d="M675.6,22.5h4.8v16.8h-4.8V22.5z"/>
	<path class="st2" d="M683.2,22.5h7.9c1.8,0,3.5,0.3,4.9,1c1.4,0.7,2.5,1.7,3.3,2.9c0.8,1.3,1.2,2.7,1.2,4.4c0,1.7-0.4,3.2-1.2,4.4
		c-0.8,1.3-1.9,2.2-3.3,2.9c-1.4,0.7-3.1,1-4.9,1h-7.9V22.5z M690.9,35.5c1.4,0,2.6-0.4,3.5-1.2c0.9-0.8,1.3-1.9,1.3-3.4
		c0-1.4-0.4-2.6-1.3-3.4c-0.9-0.8-2-1.2-3.5-1.2h-3v9.2H690.9z"/>
	<path class="st2" d="M713.4,36h-7.1l-1.3,3.3h-4.8l7.4-16.8h4.7l7.4,16.8h-4.9L713.4,36z M712,32.5l-2.2-5.4l-2.2,5.4H712z"/>
	<path class="st2" d="M720.4,22.5h7.9c1.8,0,3.5,0.3,4.9,1c1.4,0.7,2.5,1.7,3.3,2.9c0.8,1.3,1.2,2.7,1.2,4.4c0,1.7-0.4,3.2-1.2,4.4
		c-0.8,1.3-1.9,2.2-3.3,2.9c-1.4,0.7-3.1,1-4.9,1h-7.9V22.5z M728.2,35.5c1.4,0,2.6-0.4,3.5-1.2c0.9-0.8,1.3-1.9,1.3-3.4
		c0-1.4-0.4-2.6-1.3-3.4c-0.9-0.8-2-1.2-3.5-1.2h-3v9.2H728.2z"/>
	<path class="st2" d="M753.1,35.6v3.7h-13.5V22.5h13.2v3.7h-8.5V29h7.5v3.6h-7.5v3.1H753.1z"/>
	<path class="st2" d="M148.5,47.4h7.9c1.8,0,3.5,0.3,4.9,1c1.4,0.7,2.5,1.7,3.3,2.9c0.8,1.3,1.2,2.7,1.2,4.4s-0.4,3.2-1.2,4.4
		c-0.8,1.3-1.9,2.2-3.3,2.9c-1.4,0.7-3.1,1-4.9,1h-7.9V47.4z M156.3,60.4c1.4,0,2.6-0.4,3.5-1.2s1.3-1.9,1.3-3.4s-0.4-2.6-1.3-3.4
		c-0.9-0.8-2-1.2-3.5-1.2h-3v9.2H156.3z"/>
	<path class="st2" d="M181.2,60.5v3.7h-13.5V47.4h13.2v3.7h-8.5v2.8h7.5v3.6h-7.5v3.1H181.2z"/>
	<path class="st2" d="M198.5,64.2l0-8.9l-4.3,7.2H192l-4.3-7v8.7h-4.4V47.4h3.9l5.9,9.7l5.8-9.7h3.9l0,16.8H198.5z"/>
	<path class="st2" d="M209.3,63.4c-1.4-0.8-2.5-1.8-3.3-3.1c-0.8-1.3-1.2-2.8-1.2-4.5s0.4-3.2,1.2-4.5c0.8-1.3,1.9-2.4,3.3-3.1
		c1.4-0.8,3-1.1,4.8-1.1c1.8,0,3.4,0.4,4.8,1.1s2.5,1.8,3.3,3.1c0.8,1.3,1.2,2.8,1.2,4.5s-0.4,3.2-1.2,4.5c-0.8,1.3-1.9,2.4-3.3,3.1
		c-1.4,0.8-3,1.1-4.8,1.1C212.3,64.5,210.7,64.1,209.3,63.4z M216.4,60c0.7-0.4,1.2-1,1.6-1.7c0.4-0.7,0.6-1.6,0.6-2.5
		c0-0.9-0.2-1.8-0.6-2.5c-0.4-0.7-0.9-1.3-1.6-1.7c-0.7-0.4-1.5-0.6-2.3-0.6c-0.8,0-1.6,0.2-2.3,0.6c-0.7,0.4-1.2,1-1.6,1.7
		c-0.4,0.7-0.6,1.6-0.6,2.5c0,0.9,0.2,1.8,0.6,2.5c0.4,0.7,0.9,1.3,1.6,1.7c0.7,0.4,1.5,0.6,2.3,0.6C214.9,60.6,215.7,60.4,216.4,60
		z"/>
	<path class="st2" d="M236.5,55.4h4.2v7c-1,0.7-2.1,1.2-3.3,1.6c-1.2,0.4-2.5,0.6-3.7,0.6c-1.8,0-3.3-0.4-4.8-1.1
		c-1.4-0.7-2.5-1.8-3.3-3.1c-0.8-1.3-1.2-2.8-1.2-4.5c0-1.7,0.4-3.2,1.2-4.5c0.8-1.3,1.9-2.4,3.3-3.1s3-1.1,4.8-1.1
		c1.6,0,3,0.3,4.2,0.8c1.2,0.5,2.3,1.3,3.1,2.3l-3,2.7c-1.1-1.2-2.5-1.9-4.1-1.9c-1.4,0-2.6,0.4-3.5,1.3c-0.9,0.9-1.3,2-1.3,3.5
		c0,0.9,0.2,1.8,0.6,2.5s1,1.3,1.7,1.7c0.7,0.4,1.5,0.6,2.5,0.6c0.9,0,1.8-0.2,2.6-0.6V55.4z"/>
	<path class="st2" d="M250.5,59.7h-2.6v4.5h-4.8V47.4h7.7c1.5,0,2.8,0.3,4,0.8c1.1,0.5,2,1.2,2.6,2.2c0.6,0.9,0.9,2,0.9,3.3
		c0,1.2-0.3,2.3-0.9,3.2c-0.6,0.9-1.4,1.6-2.4,2.1l3.6,5.3h-5.1L250.5,59.7z M252.8,51.8c-0.5-0.4-1.2-0.6-2.2-0.6h-2.6V56h2.6
		c1,0,1.7-0.2,2.2-0.6c0.5-0.4,0.7-1,0.7-1.8C253.5,52.8,253.3,52.2,252.8,51.8z"/>
	<path class="st2" d="M271.6,60.9h-7.1l-1.3,3.3h-4.8l7.4-16.8h4.7l7.4,16.8h-4.9L271.6,60.9z M268.9,42.4h4.6L269,46h-3.3
		L268.9,42.4z M270.2,57.4L268,52l-2.2,5.4H270.2z"/>
	<path class="st2" d="M283.3,51.1v3.7h7.4v3.7h-7.4v5.8h-4.8V47.4h13.2v3.7H283.3z"/>
	<path class="st2" d="M293.4,47.4h4.8v16.8h-4.8V47.4z"/>
	<path class="st2" d="M304.6,63.4c-1.4-0.7-2.5-1.8-3.3-3.1c-0.8-1.3-1.2-2.8-1.2-4.5c0-1.7,0.4-3.2,1.2-4.5
		c0.8-1.3,1.9-2.4,3.3-3.1c1.4-0.7,3-1.1,4.7-1.1c1.5,0,2.9,0.3,4.2,0.8c1.2,0.5,2.3,1.3,3.1,2.4l-3,2.7c-1.1-1.3-2.4-2-4-2
		c-0.9,0-1.7,0.2-2.4,0.6c-0.7,0.4-1.3,1-1.7,1.7c-0.4,0.7-0.6,1.6-0.6,2.5c0,0.9,0.2,1.8,0.6,2.5c0.4,0.7,0.9,1.3,1.7,1.7
		c0.7,0.4,1.5,0.6,2.4,0.6c1.6,0,2.9-0.7,4-2l3,2.7c-0.8,1-1.8,1.8-3.1,2.4c-1.2,0.5-2.6,0.8-4.2,0.8
		C307.6,64.5,306,64.1,304.6,63.4z"/>
	<path class="st2" d="M329,60.9h-7.1l-1.3,3.3h-4.8l7.4-16.8h4.7l7.4,16.8h-4.9L329,60.9z M327.6,57.4l-2.2-5.4l-2.2,5.4H327.6z"/>
	<path class="st2" d="M355.9,60.5v3.7h-13.5V47.4h13.2v3.7h-8.5v2.8h7.5v3.6h-7.5v3.1H355.9z"/>
	<path class="st2" d="M364.3,47.4h4.8v16.8h-4.8V47.4z"/>
	<path class="st2" d="M387.8,47.4v16.8h-3.9l-7.4-9v9h-4.7V47.4h3.9l7.4,9v-9H387.8z"/>
	<path class="st2" d="M395.4,51.1v3.7h7.4v3.7h-7.4v5.8h-4.8V47.4h13.2v3.7H395.4z"/>
	<path class="st2" d="M412.8,59.7h-2.6v4.5h-4.8V47.4h7.7c1.5,0,2.8,0.3,4,0.8c1.1,0.5,2,1.2,2.6,2.2c0.6,0.9,0.9,2,0.9,3.3
		c0,1.2-0.3,2.3-0.9,3.2c-0.6,0.9-1.4,1.6-2.4,2.1l3.6,5.3h-5.1L412.8,59.7z M415,51.8c-0.5-0.4-1.2-0.6-2.2-0.6h-2.6V56h2.6
		c1,0,1.7-0.2,2.2-0.6c0.5-0.4,0.7-1,0.7-1.8C415.8,52.8,415.5,52.2,415,51.8z"/>
	<path class="st2" d="M433.8,60.9h-7.1l-1.3,3.3h-4.8l7.4-16.8h4.7l7.4,16.8h-4.9L433.8,60.9z M432.4,57.4l-2.2-5.4l-2.2,5.4H432.4z
		"/>
	<path class="st2" d="M454.3,60.5v3.7h-13.5V47.4H454v3.7h-8.5v2.8h7.5v3.6h-7.5v3.1H454.3z"/>
	<path class="st2" d="M458.3,64c-1.3-0.3-2.3-0.8-3.1-1.3l1.6-3.5c0.8,0.5,1.6,0.9,2.6,1.2c1,0.3,2,0.5,2.9,0.5
		c1.8,0,2.7-0.5,2.7-1.4c0-0.5-0.3-0.8-0.8-1.1c-0.5-0.2-1.4-0.5-2.5-0.7c-1.3-0.3-2.3-0.6-3.2-0.9c-0.8-0.3-1.6-0.8-2.2-1.5
		c-0.6-0.7-0.9-1.6-0.9-2.8c0-1,0.3-1.9,0.8-2.8c0.6-0.8,1.4-1.5,2.5-2s2.5-0.7,4.1-0.7c1.1,0,2.2,0.1,3.3,0.4
		c1.1,0.2,2,0.6,2.8,1.1l-1.5,3.5c-1.6-0.9-3.2-1.3-4.7-1.3c-0.9,0-1.6,0.1-2.1,0.4c-0.4,0.3-0.6,0.6-0.6,1.1c0,0.4,0.3,0.8,0.8,1
		s1.3,0.5,2.5,0.7c1.3,0.3,2.3,0.6,3.2,0.9s1.6,0.8,2.2,1.5s0.9,1.6,0.9,2.8c0,1-0.3,1.9-0.8,2.7c-0.6,0.8-1.4,1.5-2.5,2
		s-2.5,0.7-4.1,0.7C460.9,64.5,459.6,64.4,458.3,64z"/>
	<path class="st2" d="M474.6,51.2h-5.2v-3.8h15v3.8h-5.1v13h-4.8V51.2z"/>
	<path class="st2" d="M493,59.7h-2.6v4.5h-4.8V47.4h7.7c1.5,0,2.8,0.3,4,0.8c1.1,0.5,2,1.2,2.6,2.2c0.6,0.9,0.9,2,0.9,3.3
		c0,1.2-0.3,2.3-0.9,3.2c-0.6,0.9-1.4,1.6-2.4,2.1l3.6,5.3h-5.1L493,59.7z M495.3,51.8c-0.5-0.4-1.2-0.6-2.2-0.6h-2.6V56h2.6
		c1,0,1.7-0.2,2.2-0.6c0.5-0.4,0.7-1,0.7-1.8C496,52.8,495.8,52.2,495.3,51.8z"/>
	<path class="st2" d="M504.8,62.5c-1.4-1.4-2.1-3.3-2.1-5.8v-9.3h4.8v9.2c0,2.7,1.1,4,3.2,4c2.1,0,3.2-1.3,3.2-4v-9.2h4.7v9.3
		c0,2.5-0.7,4.4-2.1,5.8c-1.4,1.4-3.3,2-5.8,2C508.1,64.5,506.2,63.8,504.8,62.5z"/>
	<path class="st2" d="M524.4,51.2h-5.2v-3.8h15v3.8h-5.1v13h-4.8V51.2z"/>
	<path class="st2" d="M537.2,62.5c-1.4-1.4-2.1-3.3-2.1-5.8v-9.3h4.8v9.2c0,2.7,1.1,4,3.2,4c2.1,0,3.2-1.3,3.2-4v-9.2h4.7v9.3
		c0,2.5-0.7,4.4-2.1,5.8c-1.4,1.4-3.3,2-5.8,2S538.5,63.8,537.2,62.5z"/>
	<path class="st2" d="M560.8,59.7h-2.6v4.5h-4.8V47.4h7.7c1.5,0,2.8,0.3,4,0.8c1.1,0.5,2,1.2,2.6,2.2c0.6,0.9,0.9,2,0.9,3.3
		c0,1.2-0.3,2.3-0.9,3.2c-0.6,0.9-1.4,1.6-2.4,2.1l3.6,5.3h-5.1L560.8,59.7z M563.1,51.8c-0.5-0.4-1.2-0.6-2.2-0.6h-2.6V56h2.6
		c1,0,1.7-0.2,2.2-0.6c0.5-0.4,0.7-1,0.7-1.8C563.8,52.8,563.6,52.2,563.1,51.8z"/>
	<path class="st2" d="M581.9,60.9h-7.1l-1.3,3.3h-4.8l7.4-16.8h4.7l7.4,16.8h-4.9L581.9,60.9z M580.5,57.4l-2.2-5.4l-2.2,5.4H580.5z
		"/>
	<path class="st2" d="M588.9,47.4h4.8v13h8v3.8h-12.8V47.4z"/>
	<path class="st2" d="M609.3,47.4h7.9c1.8,0,3.5,0.3,4.9,1c1.4,0.7,2.5,1.7,3.3,2.9c0.8,1.3,1.2,2.7,1.2,4.4s-0.4,3.2-1.2,4.4
		c-0.8,1.3-1.9,2.2-3.3,2.9c-1.4,0.7-3.1,1-4.9,1h-7.9V47.4z M617.1,60.4c1.4,0,2.6-0.4,3.5-1.2c0.9-0.8,1.3-1.9,1.3-3.4
		s-0.4-2.6-1.3-3.4c-0.9-0.8-2-1.2-3.5-1.2h-3v9.2H617.1z"/>
	<path class="st2" d="M639.6,60.9h-7.1l-1.3,3.3h-4.8l7.4-16.8h4.7l7.4,16.8h-4.9L639.6,60.9z M638.2,57.4L636,52l-2.2,5.4H638.2z"
		/>
	<path class="st2" d="M648.5,64c-1.3-0.3-2.3-0.8-3.1-1.3l1.6-3.5c0.8,0.5,1.6,0.9,2.6,1.2c1,0.3,2,0.5,2.9,0.5
		c1.8,0,2.7-0.5,2.7-1.4c0-0.5-0.3-0.8-0.8-1.1c-0.5-0.2-1.4-0.5-2.5-0.7c-1.3-0.3-2.3-0.6-3.2-0.9c-0.8-0.3-1.6-0.8-2.2-1.5
		c-0.6-0.7-0.9-1.6-0.9-2.8c0-1,0.3-1.9,0.8-2.8c0.6-0.8,1.4-1.5,2.5-2s2.5-0.7,4.1-0.7c1.1,0,2.2,0.1,3.3,0.4
		c1.1,0.2,2,0.6,2.8,1.1l-1.5,3.5c-1.6-0.9-3.2-1.3-4.7-1.3c-0.9,0-1.6,0.1-2.1,0.4c-0.4,0.3-0.6,0.6-0.6,1.1c0,0.4,0.3,0.8,0.8,1
		s1.3,0.5,2.5,0.7c1.3,0.3,2.3,0.6,3.2,0.9s1.6,0.8,2.2,1.5s0.9,1.6,0.9,2.8c0,1-0.3,1.9-0.8,2.7c-0.6,0.8-1.4,1.5-2.5,2
		s-2.5,0.7-4.1,0.7C651.1,64.5,649.8,64.4,648.5,64z"/>
	<path class="st2" d="M671.5,51.2h-5.2v-3.8h15v3.8h-5.1v13h-4.8V51.2z"/>
	<path class="st2" d="M696,60.5v3.7h-13.5V47.4h13.2v3.7h-8.5v2.8h7.5v3.6h-7.5v3.1H696z"/>
	<path class="st2" d="M705.4,59.7h-2.6v4.5h-4.8V47.4h7.7c1.5,0,2.8,0.3,4,0.8c1.1,0.5,2,1.2,2.6,2.2c0.6,0.9,0.9,2,0.9,3.3
		c0,1.2-0.3,2.3-0.9,3.2c-0.6,0.9-1.4,1.6-2.4,2.1l3.6,5.3h-5.1L705.4,59.7z M707.7,51.8c-0.5-0.4-1.2-0.6-2.2-0.6h-2.6V56h2.6
		c1,0,1.7-0.2,2.2-0.6c0.5-0.4,0.7-1,0.7-1.8C708.4,52.8,708.2,52.2,707.7,51.8z"/>
	<path class="st2" d="M722.6,59.7H720v4.5h-4.8V47.4h7.7c1.5,0,2.8,0.3,4,0.8c1.1,0.5,2,1.2,2.6,2.2c0.6,0.9,0.9,2,0.9,3.3
		c0,1.2-0.3,2.3-0.9,3.2c-0.6,0.9-1.4,1.6-2.4,2.1l3.6,5.3h-5.1L722.6,59.7z M724.8,51.8c-0.5-0.4-1.2-0.6-2.2-0.6H720V56h2.6
		c1,0,1.7-0.2,2.2-0.6c0.5-0.4,0.7-1,0.7-1.8C725.6,52.8,725.3,52.2,724.8,51.8z"/>
	<path class="st2" d="M743.6,60.9h-7.1l-1.3,3.3h-4.8l7.4-16.8h4.7l7.4,16.8H745L743.6,60.9z M742.2,57.4l-2.2-5.4l-2.2,5.4H742.2z"
		/>
	<path class="st2" d="M752.6,64c-1.3-0.3-2.3-0.8-3.1-1.3l1.6-3.5c0.8,0.5,1.6,0.9,2.6,1.2c1,0.3,2,0.5,2.9,0.5
		c1.8,0,2.7-0.5,2.7-1.4c0-0.5-0.3-0.8-0.8-1.1c-0.5-0.2-1.4-0.5-2.5-0.7c-1.3-0.3-2.3-0.6-3.2-0.9c-0.8-0.3-1.6-0.8-2.2-1.5
		c-0.6-0.7-0.9-1.6-0.9-2.8c0-1,0.3-1.9,0.8-2.8c0.6-0.8,1.4-1.5,2.5-2s2.5-0.7,4.1-0.7c1.1,0,2.2,0.1,3.3,0.4
		c1.1,0.2,2,0.6,2.8,1.1l-1.5,3.5c-1.6-0.9-3.2-1.3-4.7-1.3c-0.9,0-1.6,0.1-2.1,0.4c-0.4,0.3-0.6,0.6-0.6,1.1c0,0.4,0.3,0.8,0.8,1
		s1.3,0.5,2.5,0.7c1.3,0.3,2.3,0.6,3.2,0.9s1.6,0.8,2.2,1.5s0.9,1.6,0.9,2.8c0,1-0.3,1.9-0.8,2.7c-0.6,0.8-1.4,1.5-2.5,2
		s-2.5,0.7-4.1,0.7C755.2,64.5,753.9,64.4,752.6,64z"/>
	<path class="st2" d="M316.2,72.3h4.8v16.8h-4.8V72.3z"/>
	<path class="st2" d="M339.7,72.3v16.8h-3.9l-7.4-9v9h-4.7V72.3h3.9l7.4,9v-9H339.7z"/>
	<path class="st2" d="M342.4,72.3h7.9c1.8,0,3.5,0.3,4.9,1c1.4,0.7,2.5,1.7,3.3,2.9c0.8,1.3,1.2,2.7,1.2,4.4s-0.4,3.2-1.2,4.4
		c-0.8,1.3-1.9,2.2-3.3,2.9c-1.4,0.7-3.1,1-4.9,1h-7.9V72.3z M350.2,85.3c1.4,0,2.6-0.4,3.5-1.2c0.9-0.8,1.3-1.9,1.3-3.4
		s-0.4-2.6-1.3-3.4c-0.9-0.8-2-1.2-3.5-1.2h-3v9.2H350.2z"/>
	<path class="st2" d="M361.7,72.3h4.8v16.8h-4.8V72.3z M364.9,67.3h4.6l-4.5,3.6h-3.3L364.9,67.3z"/>
	<path class="st2" d="M380.5,80.3h4.2v7c-1,0.7-2.1,1.2-3.3,1.6c-1.2,0.4-2.5,0.6-3.7,0.6c-1.8,0-3.3-0.4-4.8-1.1
		c-1.4-0.7-2.5-1.8-3.3-3.1c-0.8-1.3-1.2-2.8-1.2-4.5c0-1.7,0.4-3.2,1.2-4.5c0.8-1.3,1.9-2.4,3.3-3.1s3-1.1,4.8-1.1
		c1.6,0,3,0.3,4.2,0.8c1.2,0.5,2.3,1.3,3.1,2.3l-3,2.7c-1.1-1.2-2.5-1.9-4.1-1.9c-1.4,0-2.6,0.4-3.5,1.3c-0.9,0.9-1.3,2-1.3,3.5
		c0,0.9,0.2,1.8,0.6,2.5s1,1.3,1.7,1.7c0.7,0.4,1.5,0.6,2.5,0.6c0.9,0,1.8-0.2,2.6-0.6V80.3z"/>
	<path class="st2" d="M400.6,85.4v3.7h-13.5V72.3h13.2v3.7h-8.5v2.8h7.5v3.6h-7.5v3.1H400.6z"/>
	<path class="st2" d="M418.6,72.3v16.8h-3.9l-7.4-9v9h-4.7V72.3h3.9l7.4,9v-9H418.6z"/>
	<path class="st2" d="M432.6,85.8h-7.1l-1.3,3.3h-4.8l7.4-16.8h4.7l7.4,16.8h-4.9L432.6,85.8z M431.2,82.3l-2.2-5.4l-2.2,5.4H431.2z
		"/>
	<path class="st2" d="M441.6,88.9c-1.3-0.3-2.3-0.8-3.1-1.3l1.6-3.5c0.8,0.5,1.6,0.9,2.6,1.2c1,0.3,2,0.5,2.9,0.5
		c1.8,0,2.7-0.5,2.7-1.4c0-0.5-0.3-0.8-0.8-1.1c-0.5-0.2-1.4-0.5-2.5-0.7c-1.3-0.3-2.3-0.6-3.2-0.9c-0.8-0.3-1.6-0.8-2.2-1.5
		c-0.6-0.7-0.9-1.6-0.9-2.8c0-1,0.3-1.9,0.8-2.8c0.6-0.8,1.4-1.5,2.5-2s2.5-0.7,4.1-0.7c1.1,0,2.2,0.1,3.3,0.4
		c1.1,0.2,2,0.6,2.8,1.1l-1.5,3.5c-1.6-0.9-3.2-1.3-4.7-1.3c-0.9,0-1.6,0.1-2.1,0.4c-0.4,0.3-0.6,0.6-0.6,1.1c0,0.4,0.3,0.8,0.8,1
		s1.3,0.5,2.5,0.7c1.3,0.3,2.3,0.6,3.2,0.9s1.6,0.8,2.2,1.5s0.9,1.6,0.9,2.8c0,1-0.3,1.9-0.8,2.7c-0.6,0.8-1.4,1.5-2.5,2
		s-2.5,0.7-4.1,0.7C444.2,89.4,442.8,89.2,441.6,88.9z"/>
	<path class="st2" d="M472.2,85.8h-7.1l-1.3,3.3h-4.8l7.4-16.8h4.7l7.4,16.8h-4.9L472.2,85.8z M463.3,67.3h4.6l3.2,3.6h-3.3
		L463.3,67.3z M470.8,82.3l-2.2-5.4l-2.2,5.4H470.8z"/>
	<path class="st2" d="M489.2,88.3c-1.4-0.7-2.5-1.8-3.3-3.1c-0.8-1.3-1.2-2.8-1.2-4.5c0-1.7,0.4-3.2,1.2-4.5
		c0.8-1.3,1.9-2.4,3.3-3.1c1.4-0.7,3-1.1,4.7-1.1c1.5,0,2.9,0.3,4.2,0.8c1.2,0.5,2.3,1.3,3.1,2.4l-3,2.7c-1.1-1.3-2.4-2-4-2
		c-0.9,0-1.7,0.2-2.4,0.6c-0.7,0.4-1.3,1-1.7,1.7c-0.4,0.7-0.6,1.6-0.6,2.5c0,0.9,0.2,1.8,0.6,2.5c0.4,0.7,0.9,1.3,1.7,1.7
		c0.7,0.4,1.5,0.6,2.4,0.6c1.6,0,2.9-0.7,4-2l3,2.7c-0.8,1-1.8,1.8-3.1,2.4c-1.2,0.5-2.6,0.8-4.2,0.8
		C492.2,89.4,490.6,89,489.2,88.3z"/>
	<path class="st2" d="M506,88.3c-1.4-0.8-2.5-1.8-3.3-3.1c-0.8-1.3-1.2-2.8-1.2-4.5s0.4-3.2,1.2-4.5c0.8-1.3,1.9-2.4,3.3-3.1
		s3-1.1,4.8-1.1c1.8,0,3.4,0.4,4.8,1.1s2.5,1.8,3.3,3.1c0.8,1.3,1.2,2.8,1.2,4.5s-0.4,3.2-1.2,4.5c-0.8,1.3-1.9,2.4-3.3,3.1
		c-1.4,0.8-3,1.1-4.8,1.1C509,89.4,507.4,89,506,88.3z M513.1,84.9c0.7-0.4,1.2-1,1.6-1.7c0.4-0.7,0.6-1.6,0.6-2.5
		c0-0.9-0.2-1.8-0.6-2.5c-0.4-0.7-0.9-1.3-1.6-1.7c-0.7-0.4-1.5-0.6-2.3-0.6c-0.8,0-1.6,0.2-2.3,0.6c-0.7,0.4-1.2,1-1.6,1.7
		c-0.4,0.7-0.6,1.6-0.6,2.5c0,0.9,0.2,1.8,0.6,2.5c0.4,0.7,0.9,1.3,1.6,1.7c0.7,0.4,1.5,0.6,2.3,0.6
		C511.6,85.5,512.4,85.3,513.1,84.9z"/>
	<path class="st2" d="M538.5,72.3l-7.2,16.8h-4.7l-7.2-16.8h5.1l4.6,10.9l4.7-10.9H538.5z"/>
	<path class="st2" d="M538.9,72.3h4.8v16.8h-4.8V72.3z"/>
	<path class="st2" d="M546.4,72.3h7.9c1.8,0,3.5,0.3,4.9,1c1.4,0.7,2.5,1.7,3.3,2.9c0.8,1.3,1.2,2.7,1.2,4.4s-0.4,3.2-1.2,4.4
		c-0.8,1.3-1.9,2.2-3.3,2.9c-1.4,0.7-3.1,1-4.9,1h-7.9V72.3z M554.2,85.3c1.4,0,2.6-0.4,3.5-1.2c0.9-0.8,1.3-1.9,1.3-3.4
		s-0.4-2.6-1.3-3.4c-0.9-0.8-2-1.2-3.5-1.2h-3v9.2H554.2z"/>
	<path class="st2" d="M565.2,80.5h7V84h-7V80.5z"/>
	<path class="st2" d="M580.2,72.3v16.8h-4.8V75.9h-3.1v-3.7H580.2z"/>
	<path class="st2" d="M594,74.1c1.4,1.4,2.1,3.5,2.1,6.1c0,1.9-0.4,3.6-1.1,5c-0.7,1.4-1.8,2.4-3.1,3.2c-1.4,0.7-2.9,1.1-4.7,1.1
		c-0.9,0-1.8-0.1-2.7-0.3c-0.9-0.2-1.6-0.5-2.2-0.9l1.7-3.4c0.8,0.6,1.8,0.9,3.1,0.9c1.2,0,2.2-0.3,2.9-1c0.7-0.7,1.2-1.6,1.3-2.9
		c-1,0.8-2.2,1.2-3.8,1.2c-1.1,0-2-0.2-2.9-0.7s-1.6-1.1-2.1-1.9c-0.5-0.8-0.8-1.7-0.8-2.8c0-1.1,0.3-2.1,0.9-3
		c0.6-0.9,1.4-1.5,2.4-2c1-0.5,2.1-0.7,3.3-0.7C590.7,71.9,592.6,72.6,594,74.1z M590.3,79c0.4-0.4,0.6-0.9,0.6-1.5
		c0-0.6-0.2-1.1-0.6-1.5c-0.4-0.4-1-0.6-1.7-0.6c-0.7,0-1.2,0.2-1.6,0.6c-0.4,0.4-0.6,0.9-0.6,1.6c0,0.6,0.2,1.2,0.6,1.5
		c0.4,0.4,1,0.6,1.7,0.6C589.3,79.6,589.8,79.4,590.3,79z"/>
</g>
<g>
	<rect x="714" y="180.7" class="st3" width="15.1" height="15.1"/>
	<rect x="714" y="224.4" class="st4" width="15.1" height="15.1"/>
	<rect x="714" y="268.2" class="st5" width="15.1" height="15.1"/>
	<g>
		<g>
			<rect x="714" y="136.9" class="st6" width="15.1" height="15.1"/>
		</g>
	</g>
	<g>
		<path class="st2" d="M745.3,140.7c0.6,0.5,1,1.3,1,2.2s-0.3,1.7-1,2.2c-0.6,0.5-1.5,0.8-2.6,0.8h-2.1v2.6h-1.2v-8.6h3.3
			C743.8,139.9,744.7,140.2,745.3,140.7z M744.4,144.3c0.4-0.3,0.6-0.8,0.6-1.4c0-0.6-0.2-1.1-0.6-1.4c-0.4-0.3-1-0.5-1.8-0.5h-2.1
			v3.8h2.1C743.4,144.8,744,144.7,744.4,144.3z"/>
		<path class="st2" d="M754,147.4v1.1h-6.2v-8.6h6v1.1H749v2.6h4.3v1H749v2.8H754z"/>
		<path class="st2" d="M756.3,148.3c-0.6-0.2-1.1-0.5-1.4-0.8l0.5-1c0.3,0.3,0.7,0.5,1.3,0.7s1,0.3,1.6,0.3c0.7,0,1.2-0.1,1.6-0.4
			c0.4-0.2,0.5-0.6,0.5-1c0-0.3-0.1-0.5-0.3-0.7c-0.2-0.2-0.4-0.3-0.7-0.4c-0.3-0.1-0.7-0.2-1.2-0.3c-0.6-0.2-1.2-0.3-1.6-0.5
			c-0.4-0.2-0.7-0.4-1-0.7s-0.4-0.8-0.4-1.3c0-0.5,0.1-0.9,0.4-1.2c0.2-0.4,0.6-0.7,1.1-0.9s1.1-0.3,1.8-0.3c0.5,0,1,0.1,1.5,0.2
			s0.9,0.3,1.3,0.6l-0.4,1c-0.4-0.2-0.7-0.4-1.1-0.5s-0.8-0.2-1.2-0.2c-0.7,0-1.2,0.1-1.6,0.4c-0.3,0.3-0.5,0.6-0.5,1
			c0,0.3,0.1,0.5,0.3,0.7c0.2,0.2,0.4,0.3,0.7,0.4c0.3,0.1,0.7,0.2,1.2,0.3c0.6,0.2,1.2,0.3,1.6,0.5c0.4,0.2,0.7,0.4,1,0.7
			c0.3,0.3,0.4,0.7,0.4,1.3c0,0.4-0.1,0.9-0.4,1.2s-0.6,0.7-1.1,0.9c-0.5,0.2-1.1,0.3-1.8,0.3C757.5,148.6,756.9,148.5,756.3,148.3z
			"/>
		<path class="st2" d="M763.5,148.3c-0.6-0.2-1.1-0.5-1.4-0.8l0.5-1c0.3,0.3,0.7,0.5,1.3,0.7s1,0.3,1.6,0.3c0.7,0,1.2-0.1,1.6-0.4
			c0.4-0.2,0.5-0.6,0.5-1c0-0.3-0.1-0.5-0.3-0.7c-0.2-0.2-0.4-0.3-0.7-0.4c-0.3-0.1-0.7-0.2-1.2-0.3c-0.6-0.2-1.2-0.3-1.6-0.5
			c-0.4-0.2-0.7-0.4-1-0.7s-0.4-0.8-0.4-1.3c0-0.5,0.1-0.9,0.4-1.2c0.2-0.4,0.6-0.7,1.1-0.9s1.1-0.3,1.8-0.3c0.5,0,1,0.1,1.5,0.2
			s0.9,0.3,1.3,0.6l-0.4,1c-0.4-0.2-0.7-0.4-1.1-0.5s-0.8-0.2-1.2-0.2c-0.7,0-1.2,0.1-1.6,0.4c-0.3,0.3-0.5,0.6-0.5,1
			c0,0.3,0.1,0.5,0.3,0.7c0.2,0.2,0.4,0.3,0.7,0.4c0.3,0.1,0.7,0.2,1.2,0.3c0.6,0.2,1.2,0.3,1.6,0.5c0.4,0.2,0.7,0.4,1,0.7
			c0.3,0.3,0.4,0.7,0.4,1.3c0,0.4-0.1,0.9-0.4,1.2s-0.6,0.7-1.1,0.9c-0.5,0.2-1.1,0.3-1.8,0.3C764.8,148.6,764.1,148.5,763.5,148.3z
			"/>
		<path class="st2" d="M771.7,148c-0.7-0.4-1.2-0.9-1.6-1.6c-0.4-0.7-0.6-1.4-0.6-2.2c0-0.8,0.2-1.6,0.6-2.2
			c0.4-0.7,0.9-1.2,1.6-1.6s1.5-0.6,2.3-0.6c0.9,0,1.6,0.2,2.3,0.6s1.2,0.9,1.6,1.6c0.4,0.7,0.6,1.4,0.6,2.2s-0.2,1.6-0.6,2.2
			c-0.4,0.7-0.9,1.2-1.6,1.6c-0.7,0.4-1.5,0.6-2.3,0.6C773.2,148.6,772.4,148.4,771.7,148z M775.7,147.1c0.5-0.3,0.9-0.7,1.2-1.2
			s0.4-1.1,0.4-1.7c0-0.6-0.1-1.2-0.4-1.7s-0.7-0.9-1.2-1.2c-0.5-0.3-1.1-0.4-1.7-0.4s-1.2,0.1-1.7,0.4s-0.9,0.7-1.2,1.2
			s-0.4,1.1-0.4,1.7c0,0.6,0.1,1.2,0.4,1.7s0.7,0.9,1.2,1.2s1.1,0.4,1.7,0.4S775.2,147.4,775.7,147.1z"/>
		<path class="st2" d="M785.5,146.4h-4.5l-0.9,2.1h-1.3l3.9-8.6h1.2l3.9,8.6h-1.3L785.5,146.4z M785,145.4l-1.8-4.2l-1.8,4.2H785z"
			/>
		<path class="st2" d="M789.3,148.3c-0.6-0.2-1.1-0.5-1.4-0.8l0.5-1c0.3,0.3,0.7,0.5,1.3,0.7s1,0.3,1.6,0.3c0.7,0,1.2-0.1,1.6-0.4
			c0.4-0.2,0.5-0.6,0.5-1c0-0.3-0.1-0.5-0.3-0.7c-0.2-0.2-0.4-0.3-0.7-0.4c-0.3-0.1-0.7-0.2-1.2-0.3c-0.6-0.2-1.2-0.3-1.6-0.5
			c-0.4-0.2-0.7-0.4-1-0.7s-0.4-0.8-0.4-1.3c0-0.5,0.1-0.9,0.4-1.2c0.2-0.4,0.6-0.7,1.1-0.9s1.1-0.3,1.8-0.3c0.5,0,1,0.1,1.5,0.2
			s0.9,0.3,1.3,0.6l-0.4,1c-0.4-0.2-0.7-0.4-1.1-0.5s-0.8-0.2-1.2-0.2c-0.7,0-1.2,0.1-1.6,0.4c-0.3,0.3-0.5,0.6-0.5,1
			c0,0.3,0.1,0.5,0.3,0.7c0.2,0.2,0.4,0.3,0.7,0.4c0.3,0.1,0.7,0.2,1.2,0.3c0.6,0.2,1.2,0.3,1.6,0.5c0.4,0.2,0.7,0.4,1,0.7
			c0.3,0.3,0.4,0.7,0.4,1.3c0,0.4-0.1,0.9-0.4,1.2s-0.6,0.7-1.1,0.9c-0.5,0.2-1.1,0.3-1.8,0.3C790.5,148.6,789.9,148.5,789.3,148.3z
			"/>
		<path class="st2" d="M798.9,139.9h1.2v8.6h-1.2V139.9z"/>
		<path class="st2" d="M802.4,139.9h3.6c0.9,0,1.7,0.2,2.4,0.5c0.7,0.4,1.2,0.9,1.6,1.5c0.4,0.6,0.6,1.4,0.6,2.2s-0.2,1.6-0.6,2.2
			c-0.4,0.6-0.9,1.2-1.6,1.5c-0.7,0.4-1.5,0.5-2.4,0.5h-3.6V139.9z M805.9,147.4c0.7,0,1.3-0.1,1.8-0.4c0.5-0.3,0.9-0.6,1.2-1.1
			s0.4-1,0.4-1.7s-0.1-1.2-0.4-1.7s-0.7-0.9-1.2-1.1c-0.5-0.3-1.1-0.4-1.8-0.4h-2.3v6.4H805.9z"/>
		<path class="st2" d="M813.7,148c-0.7-0.4-1.2-0.9-1.6-1.6c-0.4-0.7-0.6-1.4-0.6-2.2c0-0.8,0.2-1.6,0.6-2.2
			c0.4-0.7,0.9-1.2,1.6-1.6s1.5-0.6,2.3-0.6c0.9,0,1.6,0.2,2.3,0.6s1.2,0.9,1.6,1.6c0.4,0.7,0.6,1.4,0.6,2.2s-0.2,1.6-0.6,2.2
			c-0.4,0.7-0.9,1.2-1.6,1.6c-0.7,0.4-1.5,0.6-2.3,0.6C815.2,148.6,814.4,148.4,813.7,148z M817.7,147.1c0.5-0.3,0.9-0.7,1.2-1.2
			s0.4-1.1,0.4-1.7c0-0.6-0.1-1.2-0.4-1.7s-0.7-0.9-1.2-1.2c-0.5-0.3-1.1-0.4-1.7-0.4s-1.2,0.1-1.7,0.4s-0.9,0.7-1.2,1.2
			s-0.4,1.1-0.4,1.7c0,0.6,0.1,1.2,0.4,1.7s0.7,0.9,1.2,1.2s1.1,0.4,1.7,0.4S817.2,147.4,817.7,147.1z"/>
		<path class="st2" d="M822.8,148.3c-0.6-0.2-1.1-0.5-1.4-0.8l0.5-1c0.3,0.3,0.7,0.5,1.3,0.7s1,0.3,1.6,0.3c0.7,0,1.2-0.1,1.6-0.4
			c0.4-0.2,0.5-0.6,0.5-1c0-0.3-0.1-0.5-0.3-0.7c-0.2-0.2-0.4-0.3-0.7-0.4c-0.3-0.1-0.7-0.2-1.2-0.3c-0.6-0.2-1.2-0.3-1.6-0.5
			c-0.4-0.2-0.7-0.4-1-0.7s-0.4-0.8-0.4-1.3c0-0.5,0.1-0.9,0.4-1.2c0.2-0.4,0.6-0.7,1.1-0.9s1.1-0.3,1.8-0.3c0.5,0,1,0.1,1.5,0.2
			s0.9,0.3,1.3,0.6l-0.4,1c-0.4-0.2-0.7-0.4-1.1-0.5s-0.8-0.2-1.2-0.2c-0.7,0-1.2,0.1-1.6,0.4c-0.3,0.3-0.5,0.6-0.5,1
			c0,0.3,0.1,0.5,0.3,0.7c0.2,0.2,0.4,0.3,0.7,0.4c0.3,0.1,0.7,0.2,1.2,0.3c0.6,0.2,1.2,0.3,1.6,0.5c0.4,0.2,0.7,0.4,1,0.7
			c0.3,0.3,0.4,0.7,0.4,1.3c0,0.4-0.1,0.9-0.4,1.2s-0.6,0.7-1.1,0.9c-0.5,0.2-1.1,0.3-1.8,0.3C824,148.6,823.4,148.5,822.8,148.3z"
			/>
		<path class="st2" d="M834.9,146.4h-4.5l-0.9,2.1h-1.3l3.9-8.6h1.2l3.9,8.6h-1.3L834.9,146.4z M834.4,145.4l-1.8-4.2l-1.8,4.2
			H834.4z"/>
		<path class="st2" d="M838.7,148.3c-0.6-0.2-1.1-0.5-1.4-0.8l0.5-1c0.3,0.3,0.7,0.5,1.3,0.7s1,0.3,1.6,0.3c0.7,0,1.2-0.1,1.6-0.4
			c0.4-0.2,0.5-0.6,0.5-1c0-0.3-0.1-0.5-0.3-0.7c-0.2-0.2-0.4-0.3-0.7-0.4c-0.3-0.1-0.7-0.2-1.2-0.3c-0.6-0.2-1.2-0.3-1.6-0.5
			c-0.4-0.2-0.7-0.4-1-0.7s-0.4-0.8-0.4-1.3c0-0.5,0.1-0.9,0.4-1.2c0.2-0.4,0.6-0.7,1.1-0.9s1.1-0.3,1.8-0.3c0.5,0,1,0.1,1.5,0.2
			s0.9,0.3,1.3,0.6l-0.4,1c-0.4-0.2-0.7-0.4-1.1-0.5s-0.8-0.2-1.2-0.2c-0.7,0-1.2,0.1-1.6,0.4c-0.3,0.3-0.5,0.6-0.5,1
			c0,0.3,0.1,0.5,0.3,0.7c0.2,0.2,0.4,0.3,0.7,0.4c0.3,0.1,0.7,0.2,1.2,0.3c0.6,0.2,1.2,0.3,1.6,0.5c0.4,0.2,0.7,0.4,1,0.7
			c0.3,0.3,0.4,0.7,0.4,1.3c0,0.4-0.1,0.9-0.4,1.2s-0.6,0.7-1.1,0.9c-0.5,0.2-1.1,0.3-1.8,0.3C839.9,148.6,839.3,148.5,838.7,148.3z
			"/>
		<path class="st2" d="M747.3,192.5l0-6.2l-3.1,5.2h-0.6l-3.1-5.2v6.2h-1.2v-8.6h1l3.6,6l3.5-6h1l0,8.6H747.3z"/>
		<path class="st2" d="M756.9,191.4v1.1h-6.2v-8.6h6v1.1h-4.8v2.6h4.3v1h-4.3v2.8H756.9z M754.5,181.6h1.5l-2.1,1.6h-1.1
			L754.5,181.6z"/>
		<path class="st2" d="M758.6,183.9h3.6c0.9,0,1.7,0.2,2.4,0.5c0.7,0.4,1.2,0.9,1.6,1.5c0.4,0.6,0.6,1.4,0.6,2.2s-0.2,1.6-0.6,2.2
			c-0.4,0.6-0.9,1.2-1.6,1.5c-0.7,0.4-1.5,0.5-2.4,0.5h-3.6V183.9z M762.1,191.4c0.7,0,1.3-0.1,1.8-0.4c0.5-0.3,0.9-0.6,1.2-1.1
			s0.4-1,0.4-1.7s-0.1-1.2-0.4-1.7s-0.7-0.9-1.2-1.1c-0.5-0.3-1.1-0.4-1.8-0.4h-2.3v6.4H762.1z"/>
		<path class="st2" d="M768.4,183.9h1.2v8.6h-1.2V183.9z"/>
		<path class="st2" d="M777.3,190.3h-4.5l-0.9,2.1h-1.3l3.9-8.6h1.2l3.9,8.6h-1.3L777.3,190.3z M776.9,189.3l-1.8-4.2l-1.8,4.2
			H776.9z"/>
		<path class="st2" d="M783.5,183.9h3.6c0.9,0,1.7,0.2,2.4,0.5c0.7,0.4,1.2,0.9,1.6,1.5c0.4,0.6,0.6,1.4,0.6,2.2s-0.2,1.6-0.6,2.2
			c-0.4,0.6-0.9,1.2-1.6,1.5c-0.7,0.4-1.5,0.5-2.4,0.5h-3.6V183.9z M787,191.4c0.7,0,1.3-0.1,1.8-0.4c0.5-0.3,0.9-0.6,1.2-1.1
			s0.4-1,0.4-1.7s-0.1-1.2-0.4-1.7s-0.7-0.9-1.2-1.1c-0.5-0.3-1.1-0.4-1.8-0.4h-2.3v6.4H787z"/>
		<path class="st2" d="M799.5,191.4v1.1h-6.2v-8.6h6v1.1h-4.8v2.6h4.3v1h-4.3v2.8H799.5z"/>
		<path class="st2" d="M812.1,192.5l0-6.2l-3.1,5.2h-0.6l-3.1-5.2v6.2h-1.2v-8.6h1l3.6,6l3.5-6h1l0,8.6H812.1z"/>
		<path class="st2" d="M817,192c-0.7-0.4-1.2-0.9-1.6-1.6c-0.4-0.7-0.6-1.4-0.6-2.2c0-0.8,0.2-1.6,0.6-2.2c0.4-0.7,0.9-1.2,1.6-1.6
			s1.5-0.6,2.3-0.6c0.9,0,1.6,0.2,2.3,0.6s1.2,0.9,1.6,1.6c0.4,0.7,0.6,1.4,0.6,2.2s-0.2,1.6-0.6,2.2c-0.4,0.7-0.9,1.2-1.6,1.6
			c-0.7,0.4-1.5,0.6-2.3,0.6C818.5,192.6,817.7,192.4,817,192z M821,191c0.5-0.3,0.9-0.7,1.2-1.2s0.4-1.1,0.4-1.7
			c0-0.6-0.1-1.2-0.4-1.7s-0.7-0.9-1.2-1.2c-0.5-0.3-1.1-0.4-1.7-0.4s-1.2,0.1-1.7,0.4s-0.9,0.7-1.2,1.2s-0.4,1.1-0.4,1.7
			c0,0.6,0.1,1.2,0.4,1.7s0.7,0.9,1.2,1.2s1.1,0.4,1.7,0.4S820.5,191.3,821,191z"/>
		<path class="st2" d="M831.2,192.5l-1.8-2.6c-0.2,0-0.4,0-0.5,0h-2.1v2.6h-1.2v-8.6h3.3c1.1,0,2,0.3,2.6,0.8c0.6,0.5,1,1.3,1,2.2
			c0,0.7-0.2,1.2-0.5,1.7c-0.3,0.5-0.8,0.8-1.4,1l2,2.9H831.2z M830.5,188.3c0.4-0.3,0.6-0.8,0.6-1.4c0-0.6-0.2-1.1-0.6-1.4
			c-0.4-0.3-1-0.5-1.8-0.5h-2.1v3.8h2.1C829.5,188.8,830.1,188.7,830.5,188.3z"/>
		<path class="st2" d="M839.5,190.3h-4.5l-0.9,2.1h-1.3l3.9-8.6h1.2l3.9,8.6h-1.3L839.5,190.3z M839,189.3l-1.8-4.2l-1.8,4.2H839z"
			/>
		<path class="st2" d="M842.6,183.9h3.6c0.9,0,1.7,0.2,2.4,0.5c0.7,0.4,1.2,0.9,1.6,1.5c0.4,0.6,0.6,1.4,0.6,2.2s-0.2,1.6-0.6,2.2
			c-0.4,0.6-0.9,1.2-1.6,1.5c-0.7,0.4-1.5,0.5-2.4,0.5h-3.6V183.9z M846.2,191.4c0.7,0,1.3-0.1,1.8-0.4c0.5-0.3,0.9-0.6,1.2-1.1
			s0.4-1,0.4-1.7s-0.1-1.2-0.4-1.7s-0.7-0.9-1.2-1.1c-0.5-0.3-1.1-0.4-1.8-0.4h-2.3v6.4H846.2z"/>
		<path class="st2" d="M854,192c-0.7-0.4-1.2-0.9-1.6-1.6c-0.4-0.7-0.6-1.4-0.6-2.2c0-0.8,0.2-1.6,0.6-2.2c0.4-0.7,0.9-1.2,1.6-1.6
			s1.5-0.6,2.3-0.6c0.9,0,1.6,0.2,2.3,0.6s1.2,0.9,1.6,1.6c0.4,0.7,0.6,1.4,0.6,2.2s-0.2,1.6-0.6,2.2c-0.4,0.7-0.9,1.2-1.6,1.6
			c-0.7,0.4-1.5,0.6-2.3,0.6C855.4,192.6,854.7,192.4,854,192z M858,191c0.5-0.3,0.9-0.7,1.2-1.2s0.4-1.1,0.4-1.7
			c0-0.6-0.1-1.2-0.4-1.7s-0.7-0.9-1.2-1.2c-0.5-0.3-1.1-0.4-1.7-0.4s-1.2,0.1-1.7,0.4s-0.9,0.7-1.2,1.2s-0.4,1.1-0.4,1.7
			c0,0.6,0.1,1.2,0.4,1.7s0.7,0.9,1.2,1.2s1.1,0.4,1.7,0.4S857.5,191.3,858,191z"/>
		<path class="st2" d="M868.1,192.5l-1.8-2.6c-0.2,0-0.4,0-0.5,0h-2.1v2.6h-1.2v-8.6h3.3c1.1,0,2,0.3,2.6,0.8c0.6,0.5,1,1.3,1,2.2
			c0,0.7-0.2,1.2-0.5,1.7c-0.3,0.5-0.8,0.8-1.4,1l2,2.9H868.1z M867.5,188.3c0.4-0.3,0.6-0.8,0.6-1.4c0-0.6-0.2-1.1-0.6-1.4
			c-0.4-0.3-1-0.5-1.8-0.5h-2.1v3.8h2.1C866.5,188.8,867.1,188.7,867.5,188.3z"/>
		<path class="st2" d="M877.2,191.4v1.1H871v-8.6h6v1.1h-4.8v2.6h4.3v1h-4.3v2.8H877.2z"/>
		<path class="st2" d="M879.5,192.3c-0.6-0.2-1.1-0.5-1.4-0.8l0.5-1c0.3,0.3,0.7,0.5,1.3,0.7s1,0.3,1.6,0.3c0.7,0,1.2-0.1,1.6-0.4
			c0.4-0.2,0.5-0.6,0.5-1c0-0.3-0.1-0.5-0.3-0.7c-0.2-0.2-0.4-0.3-0.7-0.4c-0.3-0.1-0.7-0.2-1.2-0.3c-0.6-0.2-1.2-0.3-1.6-0.5
			c-0.4-0.2-0.7-0.4-1-0.7s-0.4-0.8-0.4-1.3c0-0.5,0.1-0.9,0.4-1.2c0.2-0.4,0.6-0.7,1.1-0.9s1.1-0.3,1.8-0.3c0.5,0,1,0.1,1.5,0.2
			s0.9,0.3,1.3,0.6l-0.4,1c-0.4-0.2-0.7-0.4-1.1-0.5s-0.8-0.2-1.2-0.2c-0.7,0-1.2,0.1-1.6,0.4c-0.3,0.3-0.5,0.6-0.5,1
			c0,0.3,0.1,0.5,0.3,0.7c0.2,0.2,0.4,0.3,0.7,0.4c0.3,0.1,0.7,0.2,1.2,0.3c0.6,0.2,1.2,0.3,1.6,0.5c0.4,0.2,0.7,0.4,1,0.7
			c0.3,0.3,0.4,0.7,0.4,1.3c0,0.4-0.1,0.9-0.4,1.2s-0.6,0.7-1.1,0.9c-0.5,0.2-1.1,0.3-1.8,0.3C880.7,192.6,880.1,192.5,879.5,192.3z
			"/>
		<path class="st2" d="M740,236.2c-0.6-0.2-1.1-0.5-1.4-0.8l0.5-1c0.3,0.3,0.7,0.5,1.3,0.7c0.5,0.2,1,0.3,1.6,0.3
			c0.7,0,1.2-0.1,1.6-0.4c0.4-0.2,0.5-0.6,0.5-1c0-0.3-0.1-0.5-0.3-0.7s-0.4-0.3-0.7-0.4c-0.3-0.1-0.7-0.2-1.2-0.3
			c-0.6-0.2-1.2-0.3-1.6-0.5c-0.4-0.2-0.7-0.4-1-0.7c-0.3-0.3-0.4-0.8-0.4-1.3c0-0.5,0.1-0.9,0.4-1.2c0.2-0.4,0.6-0.7,1.1-0.9
			c0.5-0.2,1.1-0.3,1.8-0.3c0.5,0,1,0.1,1.5,0.2s0.9,0.3,1.3,0.6l-0.4,1c-0.4-0.2-0.7-0.4-1.1-0.5c-0.4-0.1-0.8-0.2-1.2-0.2
			c-0.7,0-1.2,0.1-1.6,0.4c-0.3,0.3-0.5,0.6-0.5,1c0,0.3,0.1,0.5,0.3,0.7c0.2,0.2,0.4,0.3,0.7,0.4s0.7,0.2,1.2,0.3
			c0.6,0.2,1.2,0.3,1.6,0.5c0.4,0.2,0.7,0.4,1,0.7c0.3,0.3,0.4,0.7,0.4,1.3c0,0.4-0.1,0.9-0.4,1.2c-0.2,0.4-0.6,0.7-1.1,0.9
			c-0.5,0.2-1.1,0.3-1.8,0.3C741.2,236.5,740.6,236.4,740,236.2z"/>
		<path class="st2" d="M752.1,234.3h-4.5l-0.9,2.1h-1.3l3.9-8.6h1.2l3.9,8.6H753L752.1,234.3z M751.7,233.3l-1.8-4.2l-1.8,4.2H751.7
			z"/>
		<path class="st2" d="M762.6,227.9v8.6h-1l-5.1-6.4v6.4h-1.2v-8.6h1l5.1,6.4v-6.4H762.6z"/>
		<path class="st2" d="M771.1,235.4v1.1h-6.2v-8.6h6v1.1h-4.8v2.6h4.3v1h-4.3v2.8H771.1z"/>
		<path class="st2" d="M778.2,234.3h-4.5l-0.9,2.1h-1.3l3.9-8.6h1.2l3.9,8.6h-1.3L778.2,234.3z M777.8,233.3l-1.8-4.2l-1.8,4.2
			H777.8z"/>
		<path class="st2" d="M789.3,236.4l0-6.2l-3.1,5.2h-0.6l-3.1-5.2v6.2h-1.2v-8.6h1l3.6,6l3.5-6h1l0,8.6H789.3z"/>
		<path class="st2" d="M799,235.4v1.1h-6.2v-8.6h6v1.1H794v2.6h4.3v1H794v2.8H799z"/>
		<path class="st2" d="M808,227.9v8.6h-1l-5.1-6.4v6.4h-1.2v-8.6h1l5.1,6.4v-6.4H808z"/>
		<path class="st2" d="M812,229H809v-1.1h7.1v1.1h-2.9v7.5H812V229z"/>
		<path class="st2" d="M818.5,236c-0.7-0.4-1.2-0.9-1.6-1.6s-0.6-1.4-0.6-2.2s0.2-1.6,0.6-2.2s0.9-1.2,1.6-1.6
			c0.7-0.4,1.5-0.6,2.3-0.6c0.9,0,1.6,0.2,2.3,0.6c0.7,0.4,1.2,0.9,1.6,1.6c0.4,0.7,0.6,1.4,0.6,2.2s-0.2,1.6-0.6,2.2
			c-0.4,0.7-0.9,1.2-1.6,1.6c-0.7,0.4-1.5,0.6-2.3,0.6C820,236.5,819.2,236.3,818.5,236z M822.6,235c0.5-0.3,0.9-0.7,1.2-1.2
			s0.4-1.1,0.4-1.7s-0.1-1.2-0.4-1.7s-0.7-0.9-1.2-1.2c-0.5-0.3-1.1-0.4-1.7-0.4s-1.2,0.1-1.7,0.4s-0.9,0.7-1.2,1.2
			s-0.4,1.1-0.4,1.7s0.1,1.2,0.4,1.7s0.7,0.9,1.2,1.2s1.1,0.4,1.7,0.4S822,235.3,822.6,235z"/>
		<path class="st2" d="M745.3,272.7c0.6,0.5,1,1.3,1,2.2s-0.3,1.7-1,2.2c-0.6,0.5-1.5,0.8-2.6,0.8h-2.1v2.6h-1.2v-8.6h3.3
			C743.8,271.9,744.7,272.1,745.3,272.7z M744.4,276.3c0.4-0.3,0.6-0.8,0.6-1.4s-0.2-1.1-0.6-1.4c-0.4-0.3-1-0.5-1.8-0.5h-2.1v3.8
			h2.1C743.4,276.8,744,276.6,744.4,276.3z"/>
		<path class="st2" d="M753.5,280.4l-1.8-2.6c-0.2,0-0.4,0-0.5,0H749v2.6h-1.2v-8.6h3.3c1.1,0,2,0.3,2.6,0.8c0.6,0.5,1,1.3,1,2.2
			c0,0.7-0.2,1.2-0.5,1.7c-0.3,0.5-0.8,0.8-1.4,1l2,2.9H753.5z M752.8,276.3c0.4-0.3,0.6-0.8,0.6-1.4s-0.2-1.1-0.6-1.4
			c-0.4-0.3-1-0.5-1.8-0.5H749v3.8h2.1C751.8,276.8,752.4,276.6,752.8,276.3z"/>
		<path class="st2" d="M757.9,279.9c-0.7-0.4-1.2-0.9-1.6-1.6s-0.6-1.4-0.6-2.2s0.2-1.6,0.6-2.2s0.9-1.2,1.6-1.6
			c0.7-0.4,1.5-0.6,2.3-0.6c0.9,0,1.6,0.2,2.3,0.6c0.7,0.4,1.2,0.9,1.6,1.6c0.4,0.7,0.6,1.4,0.6,2.2s-0.2,1.6-0.6,2.2
			c-0.4,0.7-0.9,1.2-1.6,1.6c-0.7,0.4-1.5,0.6-2.3,0.6C759.3,280.5,758.5,280.3,757.9,279.9z M761.9,279c0.5-0.3,0.9-0.7,1.2-1.2
			s0.4-1.1,0.4-1.7s-0.1-1.2-0.4-1.7s-0.7-0.9-1.2-1.2c-0.5-0.3-1.1-0.4-1.7-0.4s-1.2,0.1-1.7,0.4s-0.9,0.7-1.2,1.2
			s-0.4,1.1-0.4,1.7s0.1,1.2,0.4,1.7s0.7,0.9,1.2,1.2s1.1,0.4,1.7,0.4S761.4,279.3,761.9,279z"/>
		<path class="st2" d="M771.3,280.4l-2.6-3.5l-2.5,3.5h-1.4l3.2-4.4l-3-4.2h1.4l2.4,3.3l2.4-3.3h1.3l-3,4.1l3.2,4.4H771.3z"/>
		<path class="st2" d="M773.6,271.9h1.2v8.6h-1.2V271.9z"/>
		<path class="st2" d="M785,280.4l0-6.2l-3.1,5.2h-0.6l-3.1-5.2v6.2h-1.2v-8.6h1l3.6,6l3.5-6h1l0,8.6H785z"/>
		<path class="st2" d="M788.4,271.9h1.2v8.6h-1.2V271.9z"/>
		<path class="st2" d="M791.9,271.9h3.6c0.9,0,1.7,0.2,2.4,0.5c0.7,0.4,1.2,0.9,1.6,1.5c0.4,0.6,0.6,1.4,0.6,2.2s-0.2,1.6-0.6,2.2
			c-0.4,0.6-0.9,1.2-1.6,1.5c-0.7,0.4-1.5,0.5-2.4,0.5h-3.6V271.9z M795.5,279.4c0.7,0,1.3-0.1,1.8-0.4c0.5-0.3,0.9-0.6,1.2-1.1
			s0.4-1,0.4-1.7c0-0.6-0.1-1.2-0.4-1.7s-0.7-0.9-1.2-1.1c-0.5-0.3-1.1-0.4-1.8-0.4h-2.3v6.4H795.5z"/>
		<path class="st2" d="M807,278.3h-4.5l-0.9,2.1h-1.3l3.9-8.6h1.2l3.9,8.6H808L807,278.3z M806.6,277.3l-1.8-4.2l-1.8,4.2H806.6z"/>
		<path class="st2" d="M810.2,271.9h3.6c0.9,0,1.7,0.2,2.4,0.5c0.7,0.4,1.2,0.9,1.6,1.5c0.4,0.6,0.6,1.4,0.6,2.2s-0.2,1.6-0.6,2.2
			c-0.4,0.6-0.9,1.2-1.6,1.5c-0.7,0.4-1.5,0.5-2.4,0.5h-3.6V271.9z M813.8,279.4c0.7,0,1.3-0.1,1.8-0.4c0.5-0.3,0.9-0.6,1.2-1.1
			s0.4-1,0.4-1.7c0-0.6-0.1-1.2-0.4-1.7s-0.7-0.9-1.2-1.1c-0.5-0.3-1.1-0.4-1.8-0.4h-2.3v6.4H813.8z"/>
		<path class="st2" d="M826.2,279.4v1.1H820v-8.6h6v1.1h-4.8v2.6h4.3v1h-4.3v2.8H826.2z"/>
		<path class="st2" d="M830.9,271.9h3.6c0.9,0,1.7,0.2,2.4,0.5c0.7,0.4,1.2,0.9,1.6,1.5c0.4,0.6,0.6,1.4,0.6,2.2s-0.2,1.6-0.6,2.2
			c-0.4,0.6-0.9,1.2-1.6,1.5c-0.7,0.4-1.5,0.5-2.4,0.5h-3.6V271.9z M834.4,279.4c0.7,0,1.3-0.1,1.8-0.4c0.5-0.3,0.9-0.6,1.2-1.1
			s0.4-1,0.4-1.7c0-0.6-0.1-1.2-0.4-1.7s-0.7-0.9-1.2-1.1c-0.5-0.3-1.1-0.4-1.8-0.4h-2.3v6.4H834.4z"/>
		<path class="st2" d="M846.9,279.4v1.1h-6.2v-8.6h6v1.1h-4.8v2.6h4.3v1h-4.3v2.8H846.9z"/>
		<path class="st2" d="M852.4,279.5c-0.6-0.7-1-1.6-1-2.8v-4.9h1.2v4.8c0,1.8,0.8,2.7,2.4,2.7c0.8,0,1.4-0.2,1.8-0.7
			c0.4-0.5,0.6-1.1,0.6-2.1v-4.8h1.2v4.9c0,1.2-0.3,2.2-1,2.8c-0.6,0.6-1.5,1-2.7,1C853.9,280.5,853,280.2,852.4,279.5z"/>
		<path class="st2" d="M862.4,272.9h-2.9v-1.1h7.1v1.1h-2.9v7.5h-1.2V272.9z"/>
		<path class="st2" d="M867.6,271.9h1.2v8.6h-1.2V271.9z"/>
		<path class="st2" d="M740,324.2c-0.6-0.2-1.1-0.5-1.4-0.8l0.5-1c0.3,0.3,0.7,0.5,1.3,0.7c0.5,0.2,1,0.3,1.6,0.3
			c0.7,0,1.2-0.1,1.6-0.4c0.4-0.2,0.5-0.6,0.5-1c0-0.3-0.1-0.5-0.3-0.7s-0.4-0.3-0.7-0.4c-0.3-0.1-0.7-0.2-1.2-0.3
			c-0.6-0.2-1.2-0.3-1.6-0.5c-0.4-0.2-0.7-0.4-1-0.7c-0.3-0.3-0.4-0.8-0.4-1.3c0-0.5,0.1-0.9,0.4-1.2c0.2-0.4,0.6-0.7,1.1-0.9
			c0.5-0.2,1.1-0.3,1.8-0.3c0.5,0,1,0.1,1.5,0.2s0.9,0.3,1.3,0.6l-0.4,1c-0.4-0.2-0.7-0.4-1.1-0.5c-0.4-0.1-0.8-0.2-1.2-0.2
			c-0.7,0-1.2,0.1-1.6,0.4c-0.3,0.3-0.5,0.6-0.5,1c0,0.3,0.1,0.5,0.3,0.7c0.2,0.2,0.4,0.3,0.7,0.4s0.7,0.2,1.2,0.3
			c0.6,0.2,1.2,0.3,1.6,0.5c0.4,0.2,0.7,0.4,1,0.7c0.3,0.3,0.4,0.7,0.4,1.3c0,0.4-0.1,0.9-0.4,1.2c-0.2,0.4-0.6,0.7-1.1,0.9
			c-0.5,0.2-1.1,0.3-1.8,0.3C741.2,324.5,740.6,324.4,740,324.2z"/>
		<path class="st2" d="M746.6,315.8h1.2v8.6h-1.2V315.8z"/>
		<path class="st2" d="M751.8,316.9h-2.9v-1.1h7.1v1.1H753v7.5h-1.2V316.9z"/>
		<path class="st2" d="M757.7,323.5c-0.6-0.7-1-1.6-1-2.8v-4.9h1.2v4.8c0,1.8,0.8,2.7,2.4,2.7c0.8,0,1.4-0.2,1.8-0.7
			c0.4-0.5,0.6-1.1,0.6-2.1v-4.8h1.2v4.9c0,1.2-0.3,2.2-1,2.8c-0.6,0.6-1.5,1-2.7,1C759.2,324.5,758.3,324.2,757.7,323.5z"/>
		<path class="st2" d="M771.4,322.3h-4.5l-0.9,2.1h-1.3l3.9-8.6h1.2l3.9,8.6h-1.3L771.4,322.3z M771,321.3l-1.8-4.2l-1.8,4.2H771z"
			/>
		<path class="st2" d="M776,323.9c-0.7-0.4-1.2-0.9-1.6-1.6c-0.4-0.7-0.6-1.4-0.6-2.2s0.2-1.6,0.6-2.2c0.4-0.7,0.9-1.2,1.6-1.6
			c0.7-0.4,1.5-0.6,2.3-0.6c0.7,0,1.3,0.1,1.8,0.3s1,0.6,1.4,1l-0.8,0.8c-0.6-0.7-1.4-1-2.4-1c-0.6,0-1.2,0.1-1.7,0.4
			c-0.5,0.3-0.9,0.7-1.2,1.2s-0.4,1.1-0.4,1.7s0.1,1.2,0.4,1.7s0.7,0.9,1.2,1.2c0.5,0.3,1.1,0.4,1.7,0.4c1,0,1.8-0.3,2.4-1l0.8,0.8
			c-0.4,0.4-0.9,0.8-1.4,1c-0.6,0.2-1.2,0.3-1.8,0.3C777.5,324.5,776.7,324.3,776,323.9z M776.7,326.9l0.3-0.6
			c0.2,0.1,0.5,0.2,0.8,0.2c0.5,0,0.7-0.2,0.7-0.5c0-0.1-0.1-0.3-0.2-0.3c-0.1-0.1-0.3-0.1-0.5-0.1h-0.3l0.3-1.2h0.7l-0.2,0.7
			c0.3,0,0.6,0.1,0.8,0.3c0.2,0.2,0.3,0.4,0.3,0.7c0,0.3-0.1,0.6-0.4,0.8c-0.3,0.2-0.6,0.3-1.1,0.3C777.4,327.1,777,327,776.7,326.9
			z"/>
		<path class="st2" d="M788.3,322.3h-4.5l-0.9,2.1h-1.3l3.9-8.6h1.2l3.9,8.6h-1.3L788.3,322.3z M786.4,315c-0.1-0.1-0.3-0.2-0.5-0.4
			c-0.1-0.1-0.2-0.2-0.3-0.2c-0.1-0.1-0.2-0.1-0.3-0.1c-0.2,0-0.3,0.1-0.4,0.2c-0.1,0.1-0.2,0.3-0.2,0.6H784c0-0.5,0.1-0.8,0.3-1.1
			c0.2-0.3,0.5-0.4,0.8-0.4c0.2,0,0.4,0,0.5,0.1c0.2,0.1,0.3,0.2,0.5,0.4c0.1,0.1,0.2,0.2,0.3,0.2c0.1,0.1,0.2,0.1,0.3,0.1
			c0.2,0,0.3-0.1,0.4-0.2c0.1-0.1,0.2-0.3,0.2-0.5h0.7c0,0.4-0.1,0.8-0.3,1.1s-0.5,0.4-0.8,0.4C786.7,315.1,786.5,315.1,786.4,315z
			 M787.9,321.3l-1.8-4.2l-1.8,4.2H787.9z"/>
		<path class="st2" d="M792.9,323.9c-0.7-0.4-1.2-0.9-1.6-1.6s-0.6-1.4-0.6-2.2s0.2-1.6,0.6-2.2s0.9-1.2,1.6-1.6
			c0.7-0.4,1.5-0.6,2.3-0.6c0.9,0,1.6,0.2,2.3,0.6c0.7,0.4,1.2,0.9,1.6,1.6c0.4,0.7,0.6,1.4,0.6,2.2s-0.2,1.6-0.6,2.2
			c-0.4,0.7-0.9,1.2-1.6,1.6c-0.7,0.4-1.5,0.6-2.3,0.6C794.3,324.5,793.6,324.3,792.9,323.9z M796.9,323c0.5-0.3,0.9-0.7,1.2-1.2
			s0.4-1.1,0.4-1.7s-0.1-1.2-0.4-1.7s-0.7-0.9-1.2-1.2c-0.5-0.3-1.1-0.4-1.7-0.4s-1.2,0.1-1.7,0.4s-0.9,0.7-1.2,1.2
			s-0.4,1.1-0.4,1.7s0.1,1.2,0.4,1.7s0.7,0.9,1.2,1.2s1.1,0.4,1.7,0.4S796.4,323.3,796.9,323z"/>
		<path class="st2" d="M804.3,315.8h3.6c0.9,0,1.7,0.2,2.4,0.5c0.7,0.4,1.2,0.9,1.6,1.5c0.4,0.6,0.6,1.4,0.6,2.2s-0.2,1.6-0.6,2.2
			c-0.4,0.6-0.9,1.2-1.6,1.5c-0.7,0.4-1.5,0.5-2.4,0.5h-3.6V315.8z M807.8,323.3c0.7,0,1.3-0.1,1.8-0.4c0.5-0.3,0.9-0.6,1.2-1.1
			s0.4-1,0.4-1.7c0-0.6-0.1-1.2-0.4-1.7s-0.7-0.9-1.2-1.1c-0.5-0.3-1.1-0.4-1.8-0.4h-2.3v6.4H807.8z"/>
		<path class="st2" d="M819.4,322.3h-4.5l-0.9,2.1h-1.3l3.9-8.6h1.2l3.9,8.6h-1.3L819.4,322.3z M819,321.3l-1.8-4.2l-1.8,4.2H819z"
			/>
		<path class="st2" d="M827.3,316.9h-2.9v-1.1h7.1v1.1h-2.9v7.5h-1.2V316.9z"/>
		<path class="st2" d="M832.4,315.8h1.2v8.6h-1.2V315.8z"/>
	</g>
	<rect x="714" y="312" class="st7" width="15.1" height="15.1"/>
</g>
<g>
	<g>
		
			<rect x="226.5" y="-63.7" transform="matrix(6.123234e-17 -1 1 6.123234e-17 90.0843 606.5295)" class="st8" width="243.7" height="643.8"/>
		<line class="st8" x1="155.5" y1="380.1" x2="155.5" y2="136.4"/>
		<line class="st8" x1="220.1" y1="380.1" x2="220.1" y2="136.4"/>
		<line class="st8" x1="284.8" y1="380.1" x2="284.8" y2="136.4"/>
		<line class="st8" x1="349.4" y1="380.1" x2="349.4" y2="136.4"/>
		<line class="st8" x1="414.1" y1="380.1" x2="414.1" y2="136.4"/>
		<line class="st8" x1="478.7" y1="380.1" x2="478.7" y2="136.4"/>
		<line class="st8" x1="543.4" y1="380.1" x2="543.4" y2="136.4"/>
		<line class="st8" x1="608.1" y1="380.1" x2="608.1" y2="136.4"/>
		<line class="st8" x1="90.8" y1="380.1" x2="90.8" y2="136.4"/>
	</g>
	
		<rect x="59.8" y="174" transform="matrix(-1.836970e-16 1 -1 -1.836970e-16 363.4722 145.9264)" class="st6" width="97.9" height="161.4"/>
	<g>
		<path class="st9" d="M26.8,402c-0.7-0.5-1.3-1.1-1.7-2c-0.4-0.9-0.6-1.9-0.6-3.1c0-1.2,0.2-2.2,0.6-3.1c0.4-0.9,1-1.5,1.7-2
			s1.6-0.7,2.5-0.7c0.9,0,1.8,0.2,2.5,0.7c0.7,0.5,1.3,1.1,1.7,2s0.6,1.9,0.6,3.1c0,1.2-0.2,2.2-0.6,3.1s-1,1.5-1.7,2
			c-0.7,0.5-1.6,0.7-2.5,0.7C28.4,402.7,27.6,402.5,26.8,402z M30.9,399.6c0.4-0.6,0.6-1.5,0.6-2.7c0-1.2-0.2-2.1-0.6-2.7
			c-0.4-0.6-0.9-0.9-1.6-0.9c-0.7,0-1.2,0.3-1.6,0.9c-0.4,0.6-0.6,1.5-0.6,2.7c0,1.2,0.2,2.1,0.6,2.7c0.4,0.6,0.9,0.9,1.6,0.9
			C30,400.5,30.5,400.2,30.9,399.6z"/>
		<path class="st9" d="M35.6,396.5c-0.5-0.6-0.8-1.3-0.8-2.2s0.3-1.7,0.8-2.2c0.5-0.6,1.2-0.8,2-0.8s1.5,0.3,2,0.8
			c0.5,0.6,0.8,1.3,0.8,2.2s-0.3,1.7-0.8,2.2c-0.5,0.6-1.2,0.8-2,0.8S36.1,397.1,35.6,396.5z M38.4,395.6c0.2-0.3,0.3-0.7,0.3-1.3
			s-0.1-1-0.3-1.3s-0.5-0.4-0.9-0.4c-0.4,0-0.6,0.2-0.8,0.5c-0.2,0.3-0.3,0.7-0.3,1.3s0.1,1,0.3,1.3c0.2,0.3,0.5,0.5,0.8,0.5
			C37.9,396,38.2,395.9,38.4,395.6z M44.2,391.3h1.9l-7.6,11.2h-1.9L44.2,391.3z M43.7,402.2c-0.4-0.3-0.7-0.6-1-1.1
			c-0.2-0.5-0.4-1-0.4-1.6c0-0.6,0.1-1.2,0.4-1.6c0.2-0.5,0.6-0.8,1-1.1c0.4-0.3,0.9-0.4,1.4-0.4c0.8,0,1.5,0.3,2,0.8
			c0.5,0.6,0.8,1.3,0.8,2.2s-0.3,1.7-0.8,2.2c-0.5,0.6-1.2,0.8-2,0.8C44.6,402.6,44.2,402.5,43.7,402.2z M46,400.9
			c0.2-0.3,0.3-0.7,0.3-1.3s-0.1-1-0.3-1.3s-0.5-0.5-0.9-0.5c-0.4,0-0.6,0.1-0.8,0.4s-0.3,0.7-0.3,1.3s0.1,1,0.3,1.3
			s0.5,0.4,0.8,0.4C45.5,401.3,45.8,401.2,46,400.9z"/>
		<path class="st9" d="M81.8,391.3v11.2h-2.6v-9.1H77v-2.1H81.8z"/>
		<path class="st9" d="M85.7,402c-0.7-0.5-1.3-1.1-1.7-2c-0.4-0.9-0.6-1.9-0.6-3.1c0-1.2,0.2-2.2,0.6-3.1c0.4-0.9,1-1.5,1.7-2
			c0.7-0.5,1.6-0.7,2.5-0.7s1.8,0.2,2.5,0.7c0.7,0.5,1.3,1.1,1.7,2c0.4,0.9,0.6,1.9,0.6,3.1c0,1.2-0.2,2.2-0.6,3.1
			c-0.4,0.9-1,1.5-1.7,2c-0.7,0.5-1.6,0.7-2.5,0.7S86.4,402.5,85.7,402z M89.8,399.6c0.4-0.6,0.6-1.5,0.6-2.7c0-1.2-0.2-2.1-0.6-2.7
			c-0.4-0.6-0.9-0.9-1.6-0.9c-0.7,0-1.2,0.3-1.6,0.9s-0.6,1.5-0.6,2.7c0,1.2,0.2,2.1,0.6,2.7c0.4,0.6,0.9,0.9,1.6,0.9
			C88.9,400.5,89.4,400.2,89.8,399.6z"/>
		<path class="st9" d="M94.4,396.5c-0.5-0.6-0.8-1.3-0.8-2.2s0.3-1.7,0.8-2.2s1.2-0.8,2-0.8s1.5,0.3,2,0.8s0.8,1.3,0.8,2.2
			s-0.3,1.7-0.8,2.2s-1.2,0.8-2,0.8S94.9,397.1,94.4,396.5z M97.3,395.6c0.2-0.3,0.3-0.7,0.3-1.3s-0.1-1-0.3-1.3s-0.5-0.4-0.9-0.4
			c-0.4,0-0.6,0.2-0.8,0.5c-0.2,0.3-0.3,0.7-0.3,1.3s0.1,1,0.3,1.3c0.2,0.3,0.5,0.5,0.8,0.5C96.8,396,97.1,395.9,97.3,395.6z
			 M103.1,391.3h1.9l-7.6,11.2h-1.9L103.1,391.3z M102.6,402.2c-0.4-0.3-0.7-0.6-1-1.1c-0.2-0.5-0.4-1-0.4-1.6
			c0-0.6,0.1-1.2,0.4-1.6c0.2-0.5,0.6-0.8,1-1.1c0.4-0.3,0.9-0.4,1.4-0.4c0.8,0,1.5,0.3,2,0.8c0.5,0.6,0.8,1.3,0.8,2.2
			s-0.3,1.7-0.8,2.2c-0.5,0.6-1.2,0.8-2,0.8C103.5,402.6,103,402.5,102.6,402.2z M104.9,400.9c0.2-0.3,0.3-0.7,0.3-1.3
			s-0.1-1-0.3-1.3s-0.5-0.5-0.9-0.5c-0.4,0-0.6,0.1-0.8,0.4c-0.2,0.3-0.3,0.7-0.3,1.3s0.1,1,0.3,1.3c0.2,0.3,0.5,0.4,0.8,0.4
			C104.4,401.3,104.7,401.2,104.9,400.9z"/>
		<path class="st9" d="M148.9,400.4v2.1h-8.5v-1.7l4.3-4.1c0.5-0.4,0.8-0.8,0.9-1.1c0.2-0.3,0.2-0.6,0.2-0.9c0-0.4-0.2-0.8-0.5-1
			c-0.3-0.2-0.7-0.4-1.3-0.4c-0.5,0-0.9,0.1-1.3,0.3c-0.4,0.2-0.7,0.5-1,0.8l-1.9-1.2c0.4-0.7,1-1.2,1.8-1.5
			c0.8-0.4,1.6-0.6,2.6-0.6c0.8,0,1.6,0.1,2.2,0.4c0.6,0.3,1.1,0.7,1.5,1.2s0.5,1.1,0.5,1.8c0,0.6-0.1,1.2-0.4,1.7s-0.8,1.1-1.5,1.8
			l-2.6,2.4H148.9z"/>
		<path class="st9" d="M151.8,402c-0.7-0.5-1.3-1.1-1.7-2c-0.4-0.9-0.6-1.9-0.6-3.1c0-1.2,0.2-2.2,0.6-3.1c0.4-0.9,1-1.5,1.7-2
			c0.7-0.5,1.6-0.7,2.5-0.7s1.8,0.2,2.5,0.7c0.7,0.5,1.3,1.1,1.7,2c0.4,0.9,0.6,1.9,0.6,3.1c0,1.2-0.2,2.2-0.6,3.1
			c-0.4,0.9-1,1.5-1.7,2c-0.7,0.5-1.6,0.7-2.5,0.7S152.6,402.5,151.8,402z M155.9,399.6c0.4-0.6,0.6-1.5,0.6-2.7
			c0-1.2-0.2-2.1-0.6-2.7c-0.4-0.6-0.9-0.9-1.6-0.9c-0.7,0-1.2,0.3-1.6,0.9s-0.6,1.5-0.6,2.7c0,1.2,0.2,2.1,0.6,2.7
			c0.4,0.6,0.9,0.9,1.6,0.9C155,400.5,155.5,400.2,155.9,399.6z"/>
		<path class="st9" d="M160.6,396.5c-0.5-0.6-0.8-1.3-0.8-2.2s0.3-1.7,0.8-2.2s1.2-0.8,2-0.8s1.5,0.3,2,0.8s0.8,1.3,0.8,2.2
			s-0.3,1.7-0.8,2.2s-1.2,0.8-2,0.8S161.1,397.1,160.6,396.5z M163.4,395.6c0.2-0.3,0.3-0.7,0.3-1.3s-0.1-1-0.3-1.3
			s-0.5-0.4-0.9-0.4c-0.4,0-0.6,0.2-0.8,0.5c-0.2,0.3-0.3,0.7-0.3,1.3s0.1,1,0.3,1.3c0.2,0.3,0.5,0.5,0.8,0.5
			C162.9,396,163.2,395.9,163.4,395.6z M169.2,391.3h1.9l-7.6,11.2h-1.9L169.2,391.3z M168.7,402.2c-0.4-0.3-0.7-0.6-1-1.1
			c-0.2-0.5-0.4-1-0.4-1.6c0-0.6,0.1-1.2,0.4-1.6c0.2-0.5,0.6-0.8,1-1.1c0.4-0.3,0.9-0.4,1.4-0.4c0.8,0,1.5,0.3,2,0.8
			c0.5,0.6,0.8,1.3,0.8,2.2s-0.3,1.7-0.8,2.2c-0.5,0.6-1.2,0.8-2,0.8C169.6,402.6,169.2,402.5,168.7,402.2z M171,400.9
			c0.2-0.3,0.3-0.7,0.3-1.3s-0.1-1-0.3-1.3s-0.5-0.5-0.9-0.5c-0.4,0-0.6,0.1-0.8,0.4c-0.2,0.3-0.3,0.7-0.3,1.3s0.1,1,0.3,1.3
			c0.2,0.3,0.5,0.4,0.8,0.4C170.5,401.3,170.8,401.2,171,400.9z"/>
		<path class="st9" d="M214.1,397c0.5,0.6,0.8,1.3,0.8,2.1c0,0.7-0.2,1.2-0.5,1.8c-0.3,0.5-0.9,1-1.6,1.3c-0.7,0.3-1.6,0.5-2.6,0.5
			c-0.8,0-1.6-0.1-2.3-0.3s-1.4-0.5-1.9-0.9l1-2c0.4,0.3,0.9,0.6,1.5,0.7c0.6,0.2,1.1,0.3,1.7,0.3c0.7,0,1.2-0.1,1.5-0.4
			c0.4-0.2,0.6-0.6,0.6-1.1c0-0.9-0.7-1.4-2.1-1.4H209V396l2.3-2.6h-4.8v-2.1h7.8v1.7l-2.5,2.9C212.8,396,213.6,396.4,214.1,397z"/>
		<path class="st9" d="M218,402c-0.7-0.5-1.3-1.1-1.7-2c-0.4-0.9-0.6-1.9-0.6-3.1c0-1.2,0.2-2.2,0.6-3.1c0.4-0.9,1-1.5,1.7-2
			c0.7-0.5,1.6-0.7,2.5-0.7s1.8,0.2,2.5,0.7c0.7,0.5,1.3,1.1,1.7,2c0.4,0.9,0.6,1.9,0.6,3.1c0,1.2-0.2,2.2-0.6,3.1
			c-0.4,0.9-1,1.5-1.7,2c-0.7,0.5-1.6,0.7-2.5,0.7S218.7,402.5,218,402z M222.1,399.6c0.4-0.6,0.6-1.5,0.6-2.7
			c0-1.2-0.2-2.1-0.6-2.7c-0.4-0.6-0.9-0.9-1.6-0.9c-0.7,0-1.2,0.3-1.6,0.9s-0.6,1.5-0.6,2.7c0,1.2,0.2,2.1,0.6,2.7
			c0.4,0.6,0.9,0.9,1.6,0.9C221.2,400.5,221.7,400.2,222.1,399.6z"/>
		<path class="st9" d="M226.7,396.5c-0.5-0.6-0.8-1.3-0.8-2.2s0.3-1.7,0.8-2.2s1.2-0.8,2-0.8s1.5,0.3,2,0.8s0.8,1.3,0.8,2.2
			s-0.3,1.7-0.8,2.2s-1.2,0.8-2,0.8S227.3,397.1,226.7,396.5z M229.6,395.6c0.2-0.3,0.3-0.7,0.3-1.3s-0.1-1-0.3-1.3
			s-0.5-0.4-0.9-0.4c-0.4,0-0.6,0.2-0.8,0.5c-0.2,0.3-0.3,0.7-0.3,1.3s0.1,1,0.3,1.3c0.2,0.3,0.5,0.5,0.8,0.5
			C229.1,396,229.4,395.9,229.6,395.6z M235.4,391.3h1.9l-7.6,11.2h-1.9L235.4,391.3z M234.9,402.2c-0.4-0.3-0.7-0.6-1-1.1
			c-0.2-0.5-0.4-1-0.4-1.6c0-0.6,0.1-1.2,0.4-1.6c0.2-0.5,0.6-0.8,1-1.1c0.4-0.3,0.9-0.4,1.4-0.4c0.8,0,1.5,0.3,2,0.8
			c0.5,0.6,0.8,1.3,0.8,2.2s-0.3,1.7-0.8,2.2c-0.5,0.6-1.2,0.8-2,0.8C235.8,402.6,235.3,402.5,234.9,402.2z M237.2,400.9
			c0.2-0.3,0.3-0.7,0.3-1.3s-0.1-1-0.3-1.3s-0.5-0.5-0.9-0.5c-0.4,0-0.6,0.1-0.8,0.4c-0.2,0.3-0.3,0.7-0.3,1.3s0.1,1,0.3,1.3
			c0.2,0.3,0.5,0.4,0.8,0.4C236.7,401.3,237,401.2,237.2,400.9z"/>
		<path class="st9" d="M283.1,400.1h-1.8v2.4h-2.5v-2.4h-6v-1.7l5.3-7.1h2.7l-4.9,6.7h3v-2.1h2.4v2.1h1.8V400.1z"/>
		<path class="st9" d="M285.8,402c-0.7-0.5-1.3-1.1-1.7-2c-0.4-0.9-0.6-1.9-0.6-3.1c0-1.2,0.2-2.2,0.6-3.1c0.4-0.9,1-1.5,1.7-2
			c0.7-0.5,1.6-0.7,2.5-0.7s1.8,0.2,2.5,0.7c0.7,0.5,1.3,1.1,1.7,2c0.4,0.9,0.6,1.9,0.6,3.1c0,1.2-0.2,2.2-0.6,3.1
			c-0.4,0.9-1,1.5-1.7,2c-0.7,0.5-1.6,0.7-2.5,0.7S286.5,402.5,285.8,402z M289.8,399.6c0.4-0.6,0.6-1.5,0.6-2.7
			c0-1.2-0.2-2.1-0.6-2.7c-0.4-0.6-0.9-0.9-1.6-0.9c-0.7,0-1.2,0.3-1.6,0.9s-0.6,1.5-0.6,2.7c0,1.2,0.2,2.1,0.6,2.7
			c0.4,0.6,0.9,0.9,1.6,0.9C288.9,400.5,289.5,400.2,289.8,399.6z"/>
		<path class="st9" d="M294.5,396.5c-0.5-0.6-0.8-1.3-0.8-2.2s0.3-1.7,0.8-2.2s1.2-0.8,2-0.8s1.5,0.3,2,0.8s0.8,1.3,0.8,2.2
			s-0.3,1.7-0.8,2.2s-1.2,0.8-2,0.8S295,397.1,294.5,396.5z M297.3,395.6c0.2-0.3,0.3-0.7,0.3-1.3s-0.1-1-0.3-1.3s-0.5-0.4-0.9-0.4
			c-0.4,0-0.6,0.2-0.8,0.5c-0.2,0.3-0.3,0.7-0.3,1.3s0.1,1,0.3,1.3c0.2,0.3,0.5,0.5,0.8,0.5C296.9,396,297.1,395.9,297.3,395.6z
			 M303.2,391.3h1.9l-7.6,11.2h-1.9L303.2,391.3z M302.7,402.2c-0.4-0.3-0.7-0.6-1-1.1c-0.2-0.5-0.4-1-0.4-1.6
			c0-0.6,0.1-1.2,0.4-1.6c0.2-0.5,0.6-0.8,1-1.1c0.4-0.3,0.9-0.4,1.4-0.4c0.8,0,1.5,0.3,2,0.8c0.5,0.6,0.8,1.3,0.8,2.2
			s-0.3,1.7-0.8,2.2c-0.5,0.6-1.2,0.8-2,0.8C303.6,402.6,303.1,402.5,302.7,402.2z M304.9,400.9c0.2-0.3,0.3-0.7,0.3-1.3
			s-0.1-1-0.3-1.3s-0.5-0.5-0.9-0.5c-0.4,0-0.6,0.1-0.8,0.4c-0.2,0.3-0.3,0.7-0.3,1.3s0.1,1,0.3,1.3c0.2,0.3,0.5,0.4,0.8,0.4
			C304.5,401.3,304.7,401.2,304.9,400.9z"/>
		<path class="st9" d="M343.8,396.4c0.8,0.6,1.1,1.5,1.1,2.5c0,0.7-0.2,1.3-0.5,1.9c-0.3,0.6-0.9,1-1.6,1.3
			c-0.7,0.3-1.6,0.5-2.6,0.5c-0.8,0-1.6-0.1-2.3-0.3s-1.4-0.5-1.9-0.9l1-2c0.4,0.3,0.9,0.6,1.5,0.7s1.1,0.3,1.7,0.3
			c0.7,0,1.2-0.1,1.5-0.4c0.4-0.3,0.6-0.6,0.6-1.1c0-0.5-0.2-0.8-0.6-1.1s-1.1-0.4-2-0.4h-2.9l0.6-6.3h6.8v2.1h-4.7l-0.2,2.1h0.9
			C341.8,395.5,343,395.8,343.8,396.4z"/>
		<path class="st9" d="M347.9,402c-0.7-0.5-1.3-1.1-1.7-2c-0.4-0.9-0.6-1.9-0.6-3.1c0-1.2,0.2-2.2,0.6-3.1c0.4-0.9,1-1.5,1.7-2
			c0.7-0.5,1.6-0.7,2.5-0.7s1.8,0.2,2.5,0.7c0.7,0.5,1.3,1.1,1.7,2c0.4,0.9,0.6,1.9,0.6,3.1c0,1.2-0.2,2.2-0.6,3.1
			c-0.4,0.9-1,1.5-1.7,2c-0.7,0.5-1.6,0.7-2.5,0.7S348.6,402.5,347.9,402z M352,399.6c0.4-0.6,0.6-1.5,0.6-2.7
			c0-1.2-0.2-2.1-0.6-2.7c-0.4-0.6-0.9-0.9-1.6-0.9c-0.7,0-1.2,0.3-1.6,0.9s-0.6,1.5-0.6,2.7c0,1.2,0.2,2.1,0.6,2.7
			c0.4,0.6,0.9,0.9,1.6,0.9C351,400.5,351.6,400.2,352,399.6z"/>
		<path class="st9" d="M356.6,396.5c-0.5-0.6-0.8-1.3-0.8-2.2s0.3-1.7,0.8-2.2s1.2-0.8,2-0.8s1.5,0.3,2,0.8s0.8,1.3,0.8,2.2
			s-0.3,1.7-0.8,2.2s-1.2,0.8-2,0.8S357.1,397.1,356.6,396.5z M359.5,395.6c0.2-0.3,0.3-0.7,0.3-1.3s-0.1-1-0.3-1.3
			s-0.5-0.4-0.9-0.4c-0.4,0-0.6,0.2-0.8,0.5c-0.2,0.3-0.3,0.7-0.3,1.3s0.1,1,0.3,1.3c0.2,0.3,0.5,0.5,0.8,0.5
			C359,396,359.3,395.9,359.5,395.6z M365.3,391.3h1.9l-7.6,11.2h-1.9L365.3,391.3z M364.8,402.2c-0.4-0.3-0.7-0.6-1-1.1
			c-0.2-0.5-0.4-1-0.4-1.6c0-0.6,0.1-1.2,0.4-1.6c0.2-0.5,0.6-0.8,1-1.1c0.4-0.3,0.9-0.4,1.4-0.4c0.8,0,1.5,0.3,2,0.8
			c0.5,0.6,0.8,1.3,0.8,2.2s-0.3,1.7-0.8,2.2c-0.5,0.6-1.2,0.8-2,0.8C365.7,402.6,365.2,402.5,364.8,402.2z M367.1,400.9
			c0.2-0.3,0.3-0.7,0.3-1.3s-0.1-1-0.3-1.3s-0.5-0.5-0.9-0.5c-0.4,0-0.6,0.1-0.8,0.4c-0.2,0.3-0.3,0.7-0.3,1.3s0.1,1,0.3,1.3
			c0.2,0.3,0.5,0.4,0.8,0.4C366.6,401.3,366.9,401.2,367.1,400.9z"/>
		<path class="st9" d="M414.1,395.9c0.6,0.3,1.1,0.7,1.4,1.2c0.3,0.5,0.5,1.1,0.5,1.8c0,0.7-0.2,1.4-0.6,2c-0.4,0.6-0.9,1-1.5,1.3
			c-0.6,0.3-1.4,0.5-2.2,0.5c-1.6,0-2.8-0.5-3.7-1.4c-0.9-1-1.3-2.3-1.3-4.1c0-1.3,0.2-2.4,0.7-3.3c0.5-0.9,1.1-1.6,2-2.1
			c0.9-0.5,1.9-0.7,3-0.7c0.6,0,1.2,0.1,1.7,0.2c0.5,0.1,1,0.3,1.4,0.6l-1,1.9c-0.6-0.4-1.3-0.6-2.1-0.6c-1,0-1.7,0.3-2.3,0.8
			s-0.9,1.4-0.9,2.4c0.7-0.7,1.6-1,2.8-1C412.9,395.5,413.6,395.6,414.1,395.9z M413,400.3c0.3-0.3,0.5-0.7,0.5-1.2
			s-0.2-0.9-0.5-1.2c-0.3-0.3-0.8-0.5-1.4-0.5c-0.6,0-1,0.2-1.4,0.5c-0.4,0.3-0.5,0.7-0.5,1.2s0.2,0.9,0.5,1.2
			c0.4,0.3,0.8,0.5,1.4,0.5C412.2,400.8,412.7,400.6,413,400.3z"/>
		<path class="st9" d="M418.9,402c-0.7-0.5-1.3-1.1-1.7-2c-0.4-0.9-0.6-1.9-0.6-3.1c0-1.2,0.2-2.2,0.6-3.1c0.4-0.9,1-1.5,1.7-2
			c0.7-0.5,1.6-0.7,2.5-0.7s1.8,0.2,2.5,0.7c0.7,0.5,1.3,1.1,1.7,2c0.4,0.9,0.6,1.9,0.6,3.1c0,1.2-0.2,2.2-0.6,3.1
			c-0.4,0.9-1,1.5-1.7,2c-0.7,0.5-1.6,0.7-2.5,0.7S419.6,402.5,418.9,402z M423,399.6c0.4-0.6,0.6-1.5,0.6-2.7
			c0-1.2-0.2-2.1-0.6-2.7c-0.4-0.6-0.9-0.9-1.6-0.9c-0.7,0-1.2,0.3-1.6,0.9s-0.6,1.5-0.6,2.7c0,1.2,0.2,2.1,0.6,2.7
			c0.4,0.6,0.9,0.9,1.6,0.9C422.1,400.5,422.6,400.2,423,399.6z"/>
		<path class="st9" d="M427.6,396.5c-0.5-0.6-0.8-1.3-0.8-2.2s0.3-1.7,0.8-2.2s1.2-0.8,2-0.8s1.5,0.3,2,0.8s0.8,1.3,0.8,2.2
			s-0.3,1.7-0.8,2.2s-1.2,0.8-2,0.8S428.2,397.1,427.6,396.5z M430.5,395.6c0.2-0.3,0.3-0.7,0.3-1.3s-0.1-1-0.3-1.3
			s-0.5-0.4-0.9-0.4c-0.4,0-0.6,0.2-0.8,0.5c-0.2,0.3-0.3,0.7-0.3,1.3s0.1,1,0.3,1.3c0.2,0.3,0.5,0.5,0.8,0.5
			C430,396,430.3,395.9,430.5,395.6z M436.3,391.3h1.9l-7.6,11.2h-1.9L436.3,391.3z M435.8,402.2c-0.4-0.3-0.7-0.6-1-1.1
			c-0.2-0.5-0.4-1-0.4-1.6c0-0.6,0.1-1.2,0.4-1.6c0.2-0.5,0.6-0.8,1-1.1c0.4-0.3,0.9-0.4,1.4-0.4c0.8,0,1.5,0.3,2,0.8
			c0.5,0.6,0.8,1.3,0.8,2.2s-0.3,1.7-0.8,2.2c-0.5,0.6-1.2,0.8-2,0.8C436.7,402.6,436.2,402.5,435.8,402.2z M438.1,400.9
			c0.2-0.3,0.3-0.7,0.3-1.3s-0.1-1-0.3-1.3s-0.5-0.5-0.9-0.5c-0.4,0-0.6,0.1-0.8,0.4c-0.2,0.3-0.3,0.7-0.3,1.3s0.1,1,0.3,1.3
			c0.2,0.3,0.5,0.4,0.8,0.4C437.6,401.3,437.9,401.2,438.1,400.9z"/>
		<path class="st9" d="M474.2,391.3v1.7l-4.2,9.5h-2.8l4-9.1h-3.7v1.8h-2.3v-3.9H474.2z"/>
		<path class="st9" d="M477,402c-0.7-0.5-1.3-1.1-1.7-2c-0.4-0.9-0.6-1.9-0.6-3.1c0-1.2,0.2-2.2,0.6-3.1c0.4-0.9,1-1.5,1.7-2
			c0.7-0.5,1.6-0.7,2.5-0.7s1.8,0.2,2.5,0.7c0.7,0.5,1.3,1.1,1.7,2c0.4,0.9,0.6,1.9,0.6,3.1c0,1.2-0.2,2.2-0.6,3.1
			c-0.4,0.9-1,1.5-1.7,2c-0.7,0.5-1.6,0.7-2.5,0.7S477.7,402.5,477,402z M481.1,399.6c0.4-0.6,0.6-1.5,0.6-2.7
			c0-1.2-0.2-2.1-0.6-2.7c-0.4-0.6-0.9-0.9-1.6-0.9c-0.7,0-1.2,0.3-1.6,0.9s-0.6,1.5-0.6,2.7c0,1.2,0.2,2.1,0.6,2.7
			c0.4,0.6,0.9,0.9,1.6,0.9C480.1,400.5,480.7,400.2,481.1,399.6z"/>
		<path class="st9" d="M485.7,396.5c-0.5-0.6-0.8-1.3-0.8-2.2s0.3-1.7,0.8-2.2s1.2-0.8,2-0.8s1.5,0.3,2,0.8s0.8,1.3,0.8,2.2
			s-0.3,1.7-0.8,2.2s-1.2,0.8-2,0.8S486.2,397.1,485.7,396.5z M488.6,395.6c0.2-0.3,0.3-0.7,0.3-1.3s-0.1-1-0.3-1.3
			s-0.5-0.4-0.9-0.4c-0.4,0-0.6,0.2-0.8,0.5c-0.2,0.3-0.3,0.7-0.3,1.3s0.1,1,0.3,1.3c0.2,0.3,0.5,0.5,0.8,0.5
			C488.1,396,488.4,395.9,488.6,395.6z M494.4,391.3h1.9l-7.6,11.2h-1.9L494.4,391.3z M493.9,402.2c-0.4-0.3-0.7-0.6-1-1.1
			c-0.2-0.5-0.4-1-0.4-1.6c0-0.6,0.1-1.2,0.4-1.6c0.2-0.5,0.6-0.8,1-1.1c0.4-0.3,0.9-0.4,1.4-0.4c0.8,0,1.5,0.3,2,0.8
			c0.5,0.6,0.8,1.3,0.8,2.2s-0.3,1.7-0.8,2.2c-0.5,0.6-1.2,0.8-2,0.8C494.8,402.6,494.3,402.5,493.9,402.2z M496.2,400.9
			c0.2-0.3,0.3-0.7,0.3-1.3s-0.1-1-0.3-1.3s-0.5-0.5-0.9-0.5c-0.4,0-0.6,0.1-0.8,0.4c-0.2,0.3-0.3,0.7-0.3,1.3s0.1,1,0.3,1.3
			c0.2,0.3,0.5,0.4,0.8,0.4C495.7,401.3,496,401.2,496.2,400.9z"/>
		<path class="st9" d="M540.7,397.7c0.3,0.4,0.4,1,0.4,1.6c0,0.7-0.2,1.3-0.6,1.8c-0.4,0.5-0.9,0.9-1.7,1.2s-1.5,0.4-2.5,0.4
			s-1.8-0.1-2.5-0.4c-0.7-0.3-1.3-0.7-1.6-1.2c-0.4-0.5-0.6-1.1-0.6-1.8c0-0.6,0.1-1.1,0.4-1.6c0.3-0.4,0.7-0.8,1.3-1.1
			c-0.4-0.3-0.7-0.6-1-1c-0.2-0.4-0.3-0.8-0.3-1.3c0-0.7,0.2-1.2,0.5-1.7c0.4-0.5,0.9-0.8,1.5-1.1c0.7-0.3,1.4-0.4,2.2-0.4
			c0.9,0,1.6,0.1,2.3,0.4c0.7,0.3,1.2,0.6,1.5,1.1c0.4,0.5,0.5,1,0.5,1.7c0,0.5-0.1,0.9-0.3,1.3c-0.2,0.4-0.5,0.7-1,1
			C540,396.9,540.4,397.2,540.7,397.7z M537.9,400.3c0.4-0.3,0.6-0.7,0.6-1.2s-0.2-0.9-0.6-1.2c-0.4-0.3-0.9-0.4-1.5-0.4
			c-0.6,0-1.1,0.1-1.5,0.4c-0.4,0.3-0.6,0.7-0.6,1.2c0,0.5,0.2,0.9,0.6,1.2c0.4,0.3,0.9,0.4,1.5,0.4
			C537.1,400.8,537.6,400.6,537.9,400.3z M535.2,393.4c-0.3,0.3-0.5,0.6-0.5,1c0,0.4,0.2,0.8,0.5,1s0.7,0.4,1.3,0.4s1-0.1,1.3-0.4
			s0.5-0.6,0.5-1c0-0.4-0.2-0.8-0.5-1c-0.3-0.2-0.7-0.4-1.3-0.4C535.9,393,535.5,393.1,535.2,393.4z"/>
		<path class="st9" d="M544.2,402c-0.7-0.5-1.3-1.1-1.7-2c-0.4-0.9-0.6-1.9-0.6-3.1c0-1.2,0.2-2.2,0.6-3.1c0.4-0.9,1-1.5,1.7-2
			c0.7-0.5,1.6-0.7,2.5-0.7s1.8,0.2,2.5,0.7c0.7,0.5,1.3,1.1,1.7,2c0.4,0.9,0.6,1.9,0.6,3.1c0,1.2-0.2,2.2-0.6,3.1
			c-0.4,0.9-1,1.5-1.7,2c-0.7,0.5-1.6,0.7-2.5,0.7S545,402.5,544.2,402z M548.3,399.6c0.4-0.6,0.6-1.5,0.6-2.7
			c0-1.2-0.2-2.1-0.6-2.7c-0.4-0.6-0.9-0.9-1.6-0.9c-0.7,0-1.2,0.3-1.6,0.9s-0.6,1.5-0.6,2.7c0,1.2,0.2,2.1,0.6,2.7
			c0.4,0.6,0.9,0.9,1.6,0.9C547.4,400.5,547.9,400.2,548.3,399.6z"/>
		<path class="st9" d="M553,396.5c-0.5-0.6-0.8-1.3-0.8-2.2s0.3-1.7,0.8-2.2s1.2-0.8,2-0.8s1.5,0.3,2,0.8s0.8,1.3,0.8,2.2
			s-0.3,1.7-0.8,2.2s-1.2,0.8-2,0.8S553.5,397.1,553,396.5z M555.8,395.6c0.2-0.3,0.3-0.7,0.3-1.3s-0.1-1-0.3-1.3s-0.5-0.4-0.9-0.4
			c-0.4,0-0.6,0.2-0.8,0.5c-0.2,0.3-0.3,0.7-0.3,1.3s0.1,1,0.3,1.3c0.2,0.3,0.5,0.5,0.8,0.5C555.3,396,555.6,395.9,555.8,395.6z
			 M561.7,391.3h1.9l-7.6,11.2H554L561.7,391.3z M561.2,402.2c-0.4-0.3-0.7-0.6-1-1.1c-0.2-0.5-0.4-1-0.4-1.6c0-0.6,0.1-1.2,0.4-1.6
			c0.2-0.5,0.6-0.8,1-1.1c0.4-0.3,0.9-0.4,1.4-0.4c0.8,0,1.5,0.3,2,0.8c0.5,0.6,0.8,1.3,0.8,2.2s-0.3,1.7-0.8,2.2
			c-0.5,0.6-1.2,0.8-2,0.8C562,402.6,561.6,402.5,561.2,402.2z M563.4,400.9c0.2-0.3,0.3-0.7,0.3-1.3s-0.1-1-0.3-1.3
			s-0.5-0.5-0.9-0.5c-0.4,0-0.6,0.1-0.8,0.4c-0.2,0.3-0.3,0.7-0.3,1.3s0.1,1,0.3,1.3c0.2,0.3,0.5,0.4,0.8,0.4
			C562.9,401.3,563.2,401.2,563.4,400.9z"/>
		<path class="st9" d="M602.5,392.5c0.9,1,1.3,2.3,1.3,4.1c0,1.3-0.2,2.4-0.7,3.3c-0.5,0.9-1.1,1.6-2,2.1c-0.9,0.5-1.9,0.7-3,0.7
			c-0.6,0-1.2-0.1-1.7-0.2c-0.5-0.1-1-0.3-1.4-0.6l1-1.9c0.5,0.4,1.2,0.6,2.1,0.6c0.9,0,1.7-0.3,2.3-0.8c0.6-0.6,0.9-1.4,0.9-2.4
			c-0.7,0.7-1.6,1-2.8,1c-0.7,0-1.4-0.1-2-0.4c-0.6-0.3-1.1-0.7-1.4-1.2c-0.3-0.5-0.5-1.1-0.5-1.8c0-0.7,0.2-1.4,0.6-2
			s0.9-1,1.5-1.3c0.6-0.3,1.4-0.5,2.2-0.5C600.4,391.1,601.6,391.6,602.5,392.5z M600.4,395.9c0.4-0.3,0.5-0.7,0.5-1.2
			c0-0.5-0.2-0.9-0.5-1.2c-0.3-0.3-0.8-0.5-1.4-0.5c-0.6,0-1,0.1-1.4,0.4c-0.3,0.3-0.5,0.7-0.5,1.2c0,0.5,0.2,0.9,0.5,1.2
			s0.8,0.5,1.4,0.5C599.6,396.4,600.1,396.2,600.4,395.9z"/>
		<path class="st9" d="M607,402c-0.7-0.5-1.3-1.1-1.7-2c-0.4-0.9-0.6-1.9-0.6-3.1c0-1.2,0.2-2.2,0.6-3.1c0.4-0.9,1-1.5,1.7-2
			c0.7-0.5,1.6-0.7,2.5-0.7s1.8,0.2,2.5,0.7c0.7,0.5,1.3,1.1,1.7,2c0.4,0.9,0.6,1.9,0.6,3.1c0,1.2-0.2,2.2-0.6,3.1
			c-0.4,0.9-1,1.5-1.7,2c-0.7,0.5-1.6,0.7-2.5,0.7S607.8,402.5,607,402z M611.1,399.6c0.4-0.6,0.6-1.5,0.6-2.7
			c0-1.2-0.2-2.1-0.6-2.7c-0.4-0.6-0.9-0.9-1.6-0.9c-0.7,0-1.2,0.3-1.6,0.9s-0.6,1.5-0.6,2.7c0,1.2,0.2,2.1,0.6,2.7
			c0.4,0.6,0.9,0.9,1.6,0.9C610.2,400.5,610.7,400.2,611.1,399.6z"/>
		<path class="st9" d="M615.8,396.5c-0.5-0.6-0.8-1.3-0.8-2.2s0.3-1.7,0.8-2.2s1.2-0.8,2-0.8s1.5,0.3,2,0.8s0.8,1.3,0.8,2.2
			s-0.3,1.7-0.8,2.2s-1.2,0.8-2,0.8S616.3,397.1,615.8,396.5z M618.6,395.6c0.2-0.3,0.3-0.7,0.3-1.3s-0.1-1-0.3-1.3
			s-0.5-0.4-0.9-0.4c-0.4,0-0.6,0.2-0.8,0.5c-0.2,0.3-0.3,0.7-0.3,1.3s0.1,1,0.3,1.3c0.2,0.3,0.5,0.5,0.8,0.5
			C618.1,396,618.4,395.9,618.6,395.6z M624.4,391.3h1.9l-7.6,11.2h-1.9L624.4,391.3z M623.9,402.2c-0.4-0.3-0.7-0.6-1-1.1
			c-0.2-0.5-0.4-1-0.4-1.6c0-0.6,0.1-1.2,0.4-1.6c0.2-0.5,0.6-0.8,1-1.1c0.4-0.3,0.9-0.4,1.4-0.4c0.8,0,1.5,0.3,2,0.8
			c0.5,0.6,0.8,1.3,0.8,2.2s-0.3,1.7-0.8,2.2c-0.5,0.6-1.2,0.8-2,0.8C624.8,402.6,624.4,402.5,623.9,402.2z M626.2,400.9
			c0.2-0.3,0.3-0.7,0.3-1.3s-0.1-1-0.3-1.3s-0.5-0.5-0.9-0.5c-0.4,0-0.6,0.1-0.8,0.4c-0.2,0.3-0.3,0.7-0.3,1.3s0.1,1,0.3,1.3
			c0.2,0.3,0.5,0.4,0.8,0.4C625.7,401.3,626,401.2,626.2,400.9z"/>
		<path class="st9" d="M657.9,391.3v11.2h-2.6v-9.1h-2.2v-2.1H657.9z"/>
		<path class="st9" d="M661.8,402c-0.7-0.5-1.3-1.1-1.7-2c-0.4-0.9-0.6-1.9-0.6-3.1c0-1.2,0.2-2.2,0.6-3.1c0.4-0.9,1-1.5,1.7-2
			c0.7-0.5,1.6-0.7,2.5-0.7s1.8,0.2,2.5,0.7c0.7,0.5,1.3,1.1,1.7,2c0.4,0.9,0.6,1.9,0.6,3.1c0,1.2-0.2,2.2-0.6,3.1
			c-0.4,0.9-1,1.5-1.7,2c-0.7,0.5-1.6,0.7-2.5,0.7S662.5,402.5,661.8,402z M665.9,399.6c0.4-0.6,0.6-1.5,0.6-2.7
			c0-1.2-0.2-2.1-0.6-2.7c-0.4-0.6-0.9-0.9-1.6-0.9c-0.7,0-1.2,0.3-1.6,0.9s-0.6,1.5-0.6,2.7c0,1.2,0.2,2.1,0.6,2.7
			c0.4,0.6,0.9,0.9,1.6,0.9C664.9,400.5,665.5,400.2,665.9,399.6z"/>
		<path class="st9" d="M672.2,402c-0.7-0.5-1.3-1.1-1.7-2c-0.4-0.9-0.6-1.9-0.6-3.1c0-1.2,0.2-2.2,0.6-3.1c0.4-0.9,1-1.5,1.7-2
			c0.7-0.5,1.6-0.7,2.5-0.7s1.8,0.2,2.5,0.7c0.7,0.5,1.3,1.1,1.7,2c0.4,0.9,0.6,1.9,0.6,3.1c0,1.2-0.2,2.2-0.6,3.1
			c-0.4,0.9-1,1.5-1.7,2c-0.7,0.5-1.6,0.7-2.5,0.7S673,402.5,672.2,402z M676.3,399.6c0.4-0.6,0.6-1.5,0.6-2.7
			c0-1.2-0.2-2.1-0.6-2.7c-0.4-0.6-0.9-0.9-1.6-0.9c-0.7,0-1.2,0.3-1.6,0.9s-0.6,1.5-0.6,2.7c0,1.2,0.2,2.1,0.6,2.7
			c0.4,0.6,0.9,0.9,1.6,0.9C675.4,400.5,675.9,400.2,676.3,399.6z"/>
		<path class="st9" d="M681,396.5c-0.5-0.6-0.8-1.3-0.8-2.2s0.3-1.7,0.8-2.2s1.2-0.8,2-0.8s1.5,0.3,2,0.8s0.8,1.3,0.8,2.2
			s-0.3,1.7-0.8,2.2s-1.2,0.8-2,0.8S681.5,397.1,681,396.5z M683.8,395.6c0.2-0.3,0.3-0.7,0.3-1.3s-0.1-1-0.3-1.3s-0.5-0.4-0.9-0.4
			c-0.4,0-0.6,0.2-0.8,0.5c-0.2,0.3-0.3,0.7-0.3,1.3s0.1,1,0.3,1.3c0.2,0.3,0.5,0.5,0.8,0.5C683.3,396,683.6,395.9,683.8,395.6z
			 M689.6,391.3h1.9l-7.6,11.2H682L689.6,391.3z M689.1,402.2c-0.4-0.3-0.7-0.6-1-1.1c-0.2-0.5-0.4-1-0.4-1.6c0-0.6,0.1-1.2,0.4-1.6
			c0.2-0.5,0.6-0.8,1-1.1c0.4-0.3,0.9-0.4,1.4-0.4c0.8,0,1.5,0.3,2,0.8c0.5,0.6,0.8,1.3,0.8,2.2s-0.3,1.7-0.8,2.2
			c-0.5,0.6-1.2,0.8-2,0.8C690,402.6,689.6,402.5,689.1,402.2z M691.4,400.9c0.2-0.3,0.3-0.7,0.3-1.3s-0.1-1-0.3-1.3
			s-0.5-0.5-0.9-0.5c-0.4,0-0.6,0.1-0.8,0.4c-0.2,0.3-0.3,0.7-0.3,1.3s0.1,1,0.3,1.3c0.2,0.3,0.5,0.4,0.8,0.4
			C690.9,401.3,691.2,401.2,691.4,400.9z"/>
	</g>
	<g>
		<path class="st10" d="M91.4,258.6v2.8H80.3v-2.2l5.7-5.4c0.6-0.6,1-1.1,1.2-1.5c0.2-0.4,0.3-0.8,0.3-1.2c0-0.6-0.2-1-0.6-1.4
			c-0.4-0.3-1-0.5-1.8-0.5c-0.6,0-1.2,0.1-1.7,0.4s-1,0.6-1.3,1.1l-2.5-1.6c0.6-0.9,1.4-1.5,2.4-2c1-0.5,2.2-0.7,3.5-0.7
			c1.1,0,2,0.2,2.9,0.5c0.8,0.4,1.5,0.9,1.9,1.5c0.5,0.7,0.7,1.4,0.7,2.3c0,0.8-0.2,1.5-0.5,2.2s-1,1.5-2,2.4l-3.4,3.2H91.4z"/>
		<path class="st10" d="M101.9,253.4c1,0.8,1.5,1.9,1.5,3.3c0,0.9-0.2,1.7-0.7,2.4s-1.1,1.3-2,1.8c-0.9,0.4-2,0.7-3.4,0.7
			c-1,0-2.1-0.1-3.1-0.4c-1-0.3-1.9-0.7-2.6-1.2l1.3-2.6c0.6,0.4,1.2,0.7,1.9,1c0.7,0.2,1.5,0.3,2.2,0.3c0.9,0,1.5-0.2,2-0.5
			c0.5-0.3,0.7-0.8,0.7-1.4c0-0.6-0.3-1.1-0.8-1.4c-0.5-0.3-1.4-0.5-2.7-0.5h-3.8l0.8-8.3h9v2.7h-6.1l-0.2,2.8h1.2
			C99.4,252.2,100.9,252.6,101.9,253.4z"/>
		<path class="st10" d="M104.8,253.5c-0.7-0.7-1-1.7-1-3c0-1.2,0.3-2.2,1-3c0.7-0.7,1.6-1.1,2.6-1.1c1.1,0,2,0.4,2.6,1.1
			c0.7,0.7,1,1.7,1,3c0,1.2-0.3,2.2-1,3c-0.7,0.7-1.5,1.1-2.6,1.1C106.4,254.6,105.5,254.2,104.8,253.5z M108.6,252.3
			c0.3-0.4,0.4-1,0.4-1.7c0-0.8-0.1-1.4-0.4-1.7c-0.3-0.4-0.6-0.6-1.1-0.6c-0.5,0-0.8,0.2-1.1,0.6c-0.3,0.4-0.4,1-0.4,1.7
			s0.1,1.3,0.4,1.7c0.3,0.4,0.7,0.6,1.1,0.6C107.9,252.9,108.3,252.7,108.6,252.3z M116.2,246.6h2.5l-10,14.7h-2.5L116.2,246.6z
			 M115.6,261c-0.6-0.3-1-0.8-1.3-1.4s-0.5-1.3-0.5-2.1c0-0.8,0.2-1.5,0.5-2.1s0.7-1.1,1.3-1.4s1.2-0.5,1.9-0.5c1.1,0,2,0.4,2.6,1.1
			c0.7,0.7,1,1.7,1,3c0,1.2-0.3,2.2-1,3c-0.7,0.7-1.6,1.1-2.6,1.1C116.7,261.5,116.1,261.4,115.6,261z M118.6,259.2
			c0.3-0.4,0.4-1,0.4-1.7c0-0.8-0.1-1.3-0.4-1.7c-0.3-0.4-0.6-0.6-1.1-0.6c-0.5,0-0.8,0.2-1.1,0.6c-0.3,0.4-0.4,1-0.4,1.7
			c0,0.8,0.1,1.4,0.4,1.7c0.3,0.4,0.7,0.6,1.1,0.6C117.9,259.8,118.3,259.6,118.6,259.2z"/>
	</g>
	
		<rect x="222.8" y="174" transform="matrix(-1.836970e-16 1 -1 -1.836970e-16 526.4722 -17.0736)" class="st3" width="97.9" height="161.4"/>
	
		<rect x="367.2" y="192.6" transform="matrix(-1.836970e-16 1 -1 -1.836970e-16 670.8531 -161.4545)" class="st4" width="97.9" height="124.1"/>
	
		<rect x="477.8" y="208.2" transform="matrix(-1.836970e-16 1 -1 -1.836970e-16 781.4048 -272.0062)" class="st5" width="97.9" height="93"/>
	
		<rect x="573" y="207.4" transform="matrix(-1.836970e-16 1 -1 -1.836970e-16 876.6002 -367.2016)" class="st7" width="97.9" height="94.6"/>
	<g>
		<path class="st10" d="M263.4,258.6v2.8h-11.1v-2.2l5.7-5.4c0.6-0.6,1-1.1,1.2-1.5c0.2-0.4,0.3-0.8,0.3-1.2c0-0.6-0.2-1-0.6-1.4
			c-0.4-0.3-1-0.5-1.8-0.5c-0.6,0-1.2,0.1-1.7,0.4c-0.5,0.2-1,0.6-1.3,1.1l-2.5-1.6c0.6-0.9,1.4-1.5,2.4-2c1-0.5,2.2-0.7,3.5-0.7
			c1.1,0,2,0.2,2.9,0.5c0.8,0.4,1.5,0.9,1.9,1.5c0.5,0.7,0.7,1.4,0.7,2.3c0,0.8-0.2,1.5-0.5,2.2s-1,1.5-2,2.4l-3.4,3.2H263.4z"/>
		<path class="st10" d="M273.9,253.4c1,0.8,1.5,1.9,1.5,3.3c0,0.9-0.2,1.7-0.7,2.4s-1.1,1.3-2,1.8c-0.9,0.4-2,0.7-3.4,0.7
			c-1,0-2.1-0.1-3.1-0.4c-1-0.3-1.9-0.7-2.6-1.2l1.3-2.6c0.6,0.4,1.2,0.7,1.9,1c0.7,0.2,1.5,0.3,2.2,0.3c0.9,0,1.5-0.2,2-0.5
			s0.7-0.8,0.7-1.4c0-0.6-0.3-1.1-0.8-1.4c-0.5-0.3-1.4-0.5-2.7-0.5h-3.8l0.8-8.3h9v2.7h-6.1l-0.2,2.8h1.2
			C271.4,252.2,272.9,252.6,273.9,253.4z"/>
		<path class="st10" d="M276.8,253.5c-0.7-0.7-1-1.7-1-3c0-1.2,0.3-2.2,1-3c0.7-0.7,1.6-1.1,2.6-1.1c1.1,0,2,0.4,2.6,1.1
			c0.7,0.7,1,1.7,1,3c0,1.2-0.3,2.2-1,3c-0.7,0.7-1.5,1.1-2.6,1.1C278.4,254.6,277.5,254.2,276.8,253.5z M280.6,252.3
			c0.3-0.4,0.4-1,0.4-1.7c0-0.8-0.1-1.4-0.4-1.7c-0.3-0.4-0.6-0.6-1.1-0.6c-0.5,0-0.8,0.2-1.1,0.6c-0.3,0.4-0.4,1-0.4,1.7
			s0.1,1.3,0.4,1.7c0.3,0.4,0.7,0.6,1.1,0.6C279.9,252.9,280.3,252.7,280.6,252.3z M288.2,246.6h2.5l-10,14.7h-2.5L288.2,246.6z
			 M287.6,261c-0.6-0.3-1-0.8-1.3-1.4c-0.3-0.6-0.5-1.3-0.5-2.1c0-0.8,0.2-1.5,0.5-2.1c0.3-0.6,0.7-1.1,1.3-1.4
			c0.6-0.3,1.2-0.5,1.9-0.5c1.1,0,2,0.4,2.6,1.1c0.7,0.7,1,1.7,1,3c0,1.2-0.3,2.2-1,3c-0.7,0.7-1.6,1.1-2.6,1.1
			C288.7,261.5,288.1,261.4,287.6,261z M290.6,259.2c0.3-0.4,0.4-1,0.4-1.7c0-0.8-0.1-1.3-0.4-1.7c-0.3-0.4-0.6-0.6-1.1-0.6
			c-0.5,0-0.8,0.2-1.1,0.6c-0.3,0.4-0.4,1-0.4,1.7c0,0.8,0.1,1.4,0.4,1.7c0.3,0.4,0.7,0.6,1.1,0.6
			C289.9,259.8,290.3,259.6,290.6,259.2z"/>
	</g>
	<g>
		<path class="st10" d="M406.4,258.6v2.8h-11.1v-2.2l5.7-5.4c0.6-0.6,1-1.1,1.2-1.5c0.2-0.4,0.3-0.8,0.3-1.2c0-0.6-0.2-1-0.6-1.4
			c-0.4-0.3-1-0.5-1.8-0.5c-0.6,0-1.2,0.1-1.7,0.4c-0.5,0.2-1,0.6-1.3,1.1l-2.5-1.6c0.6-0.9,1.4-1.5,2.4-2c1-0.5,2.2-0.7,3.5-0.7
			c1.1,0,2,0.2,2.9,0.5c0.8,0.4,1.5,0.9,1.9,1.5c0.5,0.7,0.7,1.4,0.7,2.3c0,0.8-0.2,1.5-0.5,2.2s-1,1.5-2,2.4l-3.4,3.2H406.4z"/>
		<path class="st10" d="M410.3,260.7c-1-0.6-1.7-1.5-2.2-2.6s-0.8-2.5-0.8-4.1c0-1.6,0.3-2.9,0.8-4.1s1.3-2,2.2-2.6
			c1-0.6,2-0.9,3.3-0.9s2.3,0.3,3.3,0.9c1,0.6,1.7,1.5,2.2,2.6s0.8,2.5,0.8,4.1c0,1.6-0.3,2.9-0.8,4.1s-1.3,2-2.2,2.6
			c-1,0.6-2,0.9-3.3,0.9S411.3,261.3,410.3,260.7z M415.7,257.6c0.5-0.8,0.8-2,0.8-3.6c0-1.6-0.3-2.8-0.8-3.6
			c-0.5-0.8-1.2-1.2-2.1-1.2c-0.9,0-1.6,0.4-2.1,1.2c-0.5,0.8-0.8,2-0.8,3.6c0,1.6,0.3,2.8,0.8,3.6c0.5,0.8,1.2,1.2,2.1,1.2
			C414.5,258.7,415.2,258.3,415.7,257.6z"/>
		<path class="st10" d="M421.8,253.5c-0.7-0.7-1-1.7-1-3c0-1.2,0.3-2.2,1-3s1.6-1.1,2.6-1.1s2,0.4,2.6,1.1s1,1.7,1,3
			c0,1.2-0.3,2.2-1,3c-0.7,0.7-1.5,1.1-2.6,1.1S422.5,254.2,421.8,253.5z M425.5,252.3c0.3-0.4,0.4-1,0.4-1.7c0-0.8-0.1-1.4-0.4-1.7
			c-0.3-0.4-0.6-0.6-1.1-0.6c-0.5,0-0.8,0.2-1.1,0.6c-0.3,0.4-0.4,1-0.4,1.7s0.1,1.3,0.4,1.7c0.3,0.4,0.7,0.6,1.1,0.6
			C424.9,252.9,425.3,252.7,425.5,252.3z M433.2,246.6h2.5l-10,14.7h-2.5L433.2,246.6z M432.5,261c-0.6-0.3-1-0.8-1.3-1.4
			c-0.3-0.6-0.5-1.3-0.5-2.1c0-0.8,0.2-1.5,0.5-2.1c0.3-0.6,0.7-1.1,1.3-1.4c0.6-0.3,1.2-0.5,1.9-0.5c1.1,0,2,0.4,2.6,1.1
			c0.7,0.7,1,1.7,1,3c0,1.2-0.3,2.2-1,3c-0.7,0.7-1.6,1.1-2.6,1.1C433.7,261.5,433.1,261.4,432.5,261z M435.5,259.2
			c0.3-0.4,0.4-1,0.4-1.7c0-0.8-0.1-1.3-0.4-1.7c-0.3-0.4-0.6-0.6-1.1-0.6c-0.5,0-0.8,0.2-1.1,0.6c-0.3,0.4-0.4,1-0.4,1.7
			c0,0.8,0.1,1.4,0.4,1.7c0.3,0.4,0.7,0.6,1.1,0.6C434.9,259.8,435.3,259.6,435.5,259.2z"/>
	</g>
	<g>
		<path class="st10" d="M514.2,246.6v14.7h-3.4v-12h-2.9v-2.7H514.2z"/>
		<path class="st10" d="M525.8,253.4c1,0.8,1.5,1.9,1.5,3.3c0,0.9-0.2,1.7-0.7,2.4s-1.1,1.3-2,1.8c-0.9,0.4-2,0.7-3.4,0.7
			c-1,0-2.1-0.1-3.1-0.4c-1-0.3-1.9-0.7-2.6-1.2l1.3-2.6c0.6,0.4,1.2,0.7,1.9,1c0.7,0.2,1.5,0.3,2.2,0.3c0.9,0,1.5-0.2,2-0.5
			c0.5-0.3,0.7-0.8,0.7-1.4c0-0.6-0.3-1.1-0.8-1.4c-0.5-0.3-1.4-0.5-2.7-0.5h-3.8l0.8-8.3h9v2.7h-6.1l-0.2,2.8h1.2
			C523.3,252.2,524.9,252.6,525.8,253.4z"/>
		<path class="st10" d="M528.7,253.5c-0.7-0.7-1-1.7-1-3c0-1.2,0.3-2.2,1-3s1.6-1.1,2.6-1.1s2,0.4,2.6,1.1s1,1.7,1,3
			c0,1.2-0.3,2.2-1,3c-0.7,0.7-1.5,1.1-2.6,1.1S529.4,254.2,528.7,253.5z M532.5,252.3c0.3-0.4,0.4-1,0.4-1.7c0-0.8-0.1-1.4-0.4-1.7
			c-0.3-0.4-0.6-0.6-1.1-0.6c-0.5,0-0.8,0.2-1.1,0.6c-0.3,0.4-0.4,1-0.4,1.7s0.1,1.3,0.4,1.7c0.3,0.4,0.7,0.6,1.1,0.6
			C531.9,252.9,532.2,252.7,532.5,252.3z M540.1,246.6h2.5l-10,14.7h-2.5L540.1,246.6z M539.5,261c-0.6-0.3-1-0.8-1.3-1.4
			c-0.3-0.6-0.5-1.3-0.5-2.1c0-0.8,0.2-1.5,0.5-2.1c0.3-0.6,0.7-1.1,1.3-1.4c0.6-0.3,1.2-0.5,1.9-0.5c1.1,0,2,0.4,2.6,1.1
			c0.7,0.7,1,1.7,1,3c0,1.2-0.3,2.2-1,3c-0.7,0.7-1.6,1.1-2.6,1.1C540.7,261.5,540,261.4,539.5,261z M542.5,259.2
			c0.3-0.4,0.4-1,0.4-1.7c0-0.8-0.1-1.3-0.4-1.7c-0.3-0.4-0.6-0.6-1.1-0.6c-0.5,0-0.8,0.2-1.1,0.6c-0.3,0.4-0.4,1-0.4,1.7
			c0,0.8,0.1,1.4,0.4,1.7c0.3,0.4,0.7,0.6,1.1,0.6C541.8,259.8,542.2,259.6,542.5,259.2z"/>
	</g>
	<g>
		<path class="st10" d="M607.2,246.6v14.7h-3.4v-12h-2.9v-2.7H607.2z"/>
		<path class="st10" d="M618.8,253.4c1,0.8,1.5,1.9,1.5,3.3c0,0.9-0.2,1.7-0.7,2.4s-1.1,1.3-2,1.8c-0.9,0.4-2,0.7-3.4,0.7
			c-1,0-2.1-0.1-3.1-0.4c-1-0.3-1.9-0.7-2.6-1.2l1.3-2.6c0.6,0.4,1.2,0.7,1.9,1c0.7,0.2,1.5,0.3,2.2,0.3c0.9,0,1.5-0.2,2-0.5
			c0.5-0.3,0.7-0.8,0.7-1.4c0-0.6-0.3-1.1-0.8-1.4c-0.5-0.3-1.4-0.5-2.7-0.5h-3.8l0.8-8.3h9v2.7h-6.1l-0.2,2.8h1.2
			C616.3,252.2,617.9,252.6,618.8,253.4z"/>
		<path class="st10" d="M621.7,253.5c-0.7-0.7-1-1.7-1-3c0-1.2,0.3-2.2,1-3s1.6-1.1,2.6-1.1s2,0.4,2.6,1.1s1,1.7,1,3
			c0,1.2-0.3,2.2-1,3c-0.7,0.7-1.5,1.1-2.6,1.1S622.4,254.2,621.7,253.5z M625.5,252.3c0.3-0.4,0.4-1,0.4-1.7c0-0.8-0.1-1.4-0.4-1.7
			c-0.3-0.4-0.6-0.6-1.1-0.6c-0.5,0-0.8,0.2-1.1,0.6c-0.3,0.4-0.4,1-0.4,1.7s0.1,1.3,0.4,1.7c0.3,0.4,0.7,0.6,1.1,0.6
			C624.9,252.9,625.2,252.7,625.5,252.3z M633.1,246.6h2.5l-10,14.7h-2.5L633.1,246.6z M632.5,261c-0.6-0.3-1-0.8-1.3-1.4
			c-0.3-0.6-0.5-1.3-0.5-2.1c0-0.8,0.2-1.5,0.5-2.1c0.3-0.6,0.7-1.1,1.3-1.4c0.6-0.3,1.2-0.5,1.9-0.5c1.1,0,2,0.4,2.6,1.1
			c0.7,0.7,1,1.7,1,3c0,1.2-0.3,2.2-1,3c-0.7,0.7-1.6,1.1-2.6,1.1C633.7,261.5,633,261.4,632.5,261z M635.5,259.2
			c0.3-0.4,0.4-1,0.4-1.7c0-0.8-0.1-1.3-0.4-1.7c-0.3-0.4-0.6-0.6-1.1-0.6c-0.5,0-0.8,0.2-1.1,0.6c-0.3,0.4-0.4,1-0.4,1.7
			c0,0.8,0.1,1.4,0.4,1.7c0.3,0.4,0.7,0.6,1.1,0.6C634.8,259.8,635.2,259.6,635.5,259.2z"/>
	</g>
</g>
</svg>
