<?xml version="1.0" encoding="utf-8"?>
<!-- Generator: Adobe Illustrator 23.1.1, SVG Export Plug-In . SVG Version: 6.00 Build 0)  -->
<svg version="1.1" id="Layer_1" xmlns="http://www.w3.org/2000/svg" xmlns:xlink="http://www.w3.org/1999/xlink" x="0px" y="0px"
	 viewBox="0 0 200 200" style="enable-background:new 0 0 200 200;" xml:space="preserve">
<style type="text/css">
	.st0{fill:none;stroke:#F05E23;stroke-width:1.6305;stroke-linecap:round;stroke-miterlimit:10;stroke-dasharray:3.261,6.5221;}
	.st1{fill:#FF8831;}
	.st2{fill:#F05E23;}
	.st3{fill:#FFAF5E;}
	.st4{fill:#FEBF00;}
	.st5{fill:#B2550F;}
	.st6{fill:#87C6C0;}
	.st7{fill-rule:evenodd;clip-rule:evenodd;fill:#9A604A;}
	.st8{fill-rule:evenodd;clip-rule:evenodd;fill:#FFFFFF;}
	.st9{fill-rule:evenodd;clip-rule:evenodd;fill:#CCF8FF;}
	.st10{fill-rule:evenodd;clip-rule:evenodd;fill:#FEDAB6;}
</style>
<g>
	<path class="st0" d="M-332.1-1280.6c-8.3,4.7-17.9,7.4-28.1,7.4c-31.4,0-56.9-25.5-56.9-56.9s25.5-56.9,56.9-56.9
		c14.3,0,27.4,5.3,37.4,14"/>
	<path class="st0" d="M-345.7-1363.4c3.1-28.4,27.2-50.6,56.5-50.6c31.4,0,56.9,25.5,56.9,56.9c0,26.2-17.8,48.3-42,54.9"/>
	<path class="st0" d="M-254.5-1346.6c14.6,10.3,24.2,27.3,24.2,46.5c0,31.4-25.5,56.9-56.9,56.9c-25.9,0-47.7-17.3-54.6-40.9"/>
</g>
<g>
	<path class="st1" d="M-273.9-1329.1c-0.7,0.3,0.3,28.4-1,30c-4.1,4.9-13.8,13-19.7,15.4c-11.4,4.6-24.2,5.7-36.1,3
		c-5.8-1.3-11.5-3.5-16.7-6.5c-2.6-1.5-5.1-3.2-7.5-5c-2.1-1.6-4.8-3.5-6.3-5.7c-1.3-1.9-0.7-4.9-0.7-7.1c0-2.9,0-5.9,0-8.8
		c0-4.1,0-8.1,0-12.2l11,3.5l32,13.5C-318.9-1309.1-273.9-1329.1-273.9-1329.1z"/>
	<polygon class="st2" points="-317.5,-1308.3 -272.9,-1327.1 -274.9,-1299.1 -279.9,-1293.9 -288.7,-1283.7 -301.9,-1279.1 
		-313.8,-1279.1 -317.9,-1279.1 	"/>
	<polygon class="st3" points="-318.9,-1318.1 -253.9,-1344.1 -253.9,-1336.1 -318.9,-1310.3 	"/>
	<polygon class="st4" points="-380.9,-1347.1 -317.9,-1372.1 -252.9,-1346.1 -317.9,-1317.1 	"/>
	<polygon class="st4" points="-382.9,-1347.1 -382.9,-1336.1 -318.9,-1309.1 -318.9,-1322.5 	"/>
	<g>
		<g>
			<g>
				<path class="st5" d="M-318.3-1308.1c0.3,0,0.6-0.1,0.9-0.2l36.1-15.4c1.2-0.5,1.7-1.8,1.2-3s-1.8-1.7-3-1.2l-35.2,15l-63.9-26.5
					v-6.8c0-1.3-1-2.3-2.3-2.3s-2.3,1-2.3,2.3v8.3c0,0.9,0.6,1.8,1.4,2.1l66.2,27.4C-318.9-1308.2-318.6-1308.1-318.3-1308.1z"/>
				<path class="st5" d="M-284.2-1288.7c-0.6-1.1-1.9-1.6-3.1-1c-4.3,2.1-14.6,9.7-28.8,9v-26.5c0-1.3-1-2.3-2.3-2.3s-2.3,1-2.3,2.3
					v26.5c-28.4-0.9-37.5-18.1-38.8-20.9v-24.5c0-1.3-1-2.3-2.3-2.3s-2.3,1-2.3,2.3v25c0,0.3,0.1,0.6,0.2,0.8
					c0.4,1,10.2,22.2,45.5,24.3c18.5,1.1,28-7,33.1-9.5C-284.1-1286.2-283.6-1287.6-284.2-1288.7z"/>
				<path class="st5" d="M-252.1-1348.4c-1.3,0-2.3,1-2.3,2.3v6.8l-27.4,11.3v-4.1l30.6-12.6c0.9-0.4,1.4-1.2,1.4-2.1
					s-0.6-1.8-1.4-2.1l-66.2-27.4c-0.6-0.2-1.2-0.2-1.7,0l-66.2,27.4c-0.9,0.4-1.4,1.2-1.4,2.1s0.6,1.8,1.4,2.1l66.2,27.4
					c0.3,0.1,0.6,0.2,0.9,0.2s0.6-0.1,0.9-0.2l30.9-12.9c1.2-0.5,1.7-1.8,1.2-3s-1.8-1.7-3-1.2l-30.1,12.5l-60.3-24.9l60.3-24.9
					l60.3,24.9l-26.2,10.9l-25.1-9.4c0.1-0.5,0.2-1,0.2-1.5c0-3.8-4-6.9-9.1-6.9s-9.1,3-9.1,6.9c0,3.8,4,6.9,9.1,6.9
					c2.3,0,4.3-0.6,5.9-1.6l26.1,9.7v7.3l0,0v48.9c-2.7,0.9-4.6,3.5-4.6,6.4c0,3.8,3.1,6.9,6.9,6.9s6.9-3.1,6.9-6.9
					c0-3-1.9-5.5-4.6-6.4v-13c6.6-4.9,8.9-11.5,9-11.8c0.1-0.2,0.1-0.5,0.1-0.7v-26c0-1.3-1-2.3-2.3-2.3s-2.3,1-2.3,2.3v25.6
					c-0.4,1-1.8,4-4.6,6.9v-28.3l30.6-12.6c0.9-0.4,1.4-1.2,1.4-2.1v-8.3C-249.8-1347.4-250.8-1348.4-252.1-1348.4z M-318.3-1344.7
					c-2.8,0-4.6-1.4-4.6-2.3s1.8-2.3,4.6-2.3c2.8,0,4.6,1.4,4.6,2.3C-313.8-1346-315.6-1344.7-318.3-1344.7z M-284.1-1267
					c-1.3,0-2.3-1-2.3-2.3s1-2.3,2.3-2.3s2.3,1,2.3,2.3C-281.8-1268.1-282.8-1267-284.1-1267z"/>
			</g>
		</g>
	</g>
	<path class="st5" d="M-281.3-1275.4l0.1-57.7l-2.3-3.1l-25.9-8.9c0.4-0.8,0.7-1.7,0.7-2.6c0-4.1-4.4-7.3-9.9-7.3s-9.9,3.3-9.9,7.3
		s4.4,7.3,9.9,7.3c2,0,3.8-0.4,5.4-1.2l26.5,9.6v56.6c-3.5,1.1-6,4.2-6,8c0,4.6,3.9,8.4,8.8,8.4s8.8-3.8,8.8-8.4
		C-275.3-1271.2-277.8-1274.3-281.3-1275.4z"/>
	<path class="st5" d="M-289.4-1265.4c-1.2-0.3-2.5,0.4-2.8,1.7l-2.3,9.1c-0.3,1.2,0.4,2.5,1.7,2.8c0.2,0,0.4,0.1,0.6,0.1
		c1,0,2-0.7,2.2-1.7l2.3-9.1C-287.4-1263.8-288.2-1265.1-289.4-1265.4z"/>
	<path class="st5" d="M-284.1-1261.2c-1.3,0-2.3,1-2.3,2.3v6.9c0,1.3,1,2.3,2.3,2.3s2.3-1,2.3-2.3v-6.9
		C-281.8-1260.2-282.8-1261.2-284.1-1261.2z"/>
	<path class="st5" d="M-276-1263.7c-0.3-1.2-1.5-2-2.8-1.7c-1.2,0.3-2,1.5-1.7,2.8l2.3,9.1c0.3,1,1.2,1.7,2.2,1.7
		c0.2,0,0.4,0,0.6-0.1c1.2-0.3,2-1.5,1.7-2.8L-276-1263.7z"/>
	<ellipse class="st6" cx="-318.9" cy="-1348.1" rx="6" ry="4"/>
	<circle class="st6" cx="-283.9" cy="-1268.1" r="4"/>
</g>
<g>
	<polygon class="st6" points="-377.2,-1401.5 -368.5,-1402.9 -377.2,-1404.3 -378.6,-1412.9 -379.9,-1404.3 -388.6,-1402.9 
		-379.9,-1401.5 -378.6,-1392.9 	"/>
</g>
<g>
	<polygon class="st6" points="-254.6,-1281.4 -250,-1282.2 -254.6,-1282.9 -255.3,-1287.4 -256,-1282.9 -260.6,-1282.2 
		-256,-1281.4 -255.3,-1276.9 	"/>
</g>
<g>
	<polygon class="st6" points="-409.2,-1279.5 -400.5,-1280.9 -409.2,-1282.3 -410.6,-1290.9 -411.9,-1282.3 -420.6,-1280.9 
		-411.9,-1279.5 -410.6,-1270.9 	"/>
</g>
<g>
	<polygon class="st6" points="-392,-1313.9 -387,-1314.7 -392,-1315.5 -392.8,-1320.4 -393.6,-1315.5 -398.6,-1314.7 
		-393.6,-1313.9 -392.8,-1308.9 	"/>
</g>
<g>
	<polygon class="st6" points="-279,-1385.9 -274,-1386.7 -279,-1387.5 -279.8,-1392.4 -280.6,-1387.5 -285.6,-1386.7 
		-280.6,-1385.9 -279.8,-1380.9 	"/>
</g>
<g>
	<path class="st7" d="M132.4,72.3c0,1.6,3.6,3.1,4.7,1.3c0.4-0.6,0.4-1.3,0.5-2.2C136.2,69.5,132.4,69.7,132.4,72.3z"/>
	<path class="st7" d="M98.4,65.4c-1.6-0.8-1.7,1.3-0.8,1.5C98.2,67,98.8,66.1,98.4,65.4z"/>
	<path class="st7" d="M100.8,70.4c0.7-0.1,1.5,0.9,2.2,0.5c0.1-0.3,0.1-0.5,0.2-0.8C102.8,69.1,101,69.1,100.8,70.4z"/>
	<path class="st7" d="M105.7,72.2c0.6,0.1,1.1-0.4,1-1C105.9,70.3,105.3,71.6,105.7,72.2z"/>
	<path class="st7" d="M94.2,71c-1.3,0-2.2,0.8-2,2.1c0.1,1.2,2.6,2.4,3.8,1.9C98.3,73.8,95.8,71,94.2,71z"/>
	<path class="st7" d="M97.3,74.8c0.7,1,2.3,0.1,1.6-0.9C97.9,73.5,97.3,74.1,97.3,74.8z"/>
	<path class="st7" d="M82.4,72.7c0.6-0.1,1.3-0.1,1.5-0.7C84.4,70.2,80.3,71.1,82.4,72.7z"/>
	<path class="st7" d="M89.5,74.6c-0.5,1.1,0.4,1.6,1.2,1.4c0.2-0.3,0.4-0.8,0.3-1.2C90.6,74.4,89.8,74.4,89.5,74.6z"/>
	<path class="st7" d="M84.2,74.6c-0.2,0.7-0.1,1.1,0.2,1.5c0.9,0.1,2.5,0.8,2.8-0.4c0.1-0.2-0.1-0.9-0.5-1.2
		C85.7,73.8,84.9,74.7,84.2,74.6z"/>
	<path class="st7" d="M69,76.4c0.8,1.8,4.3,1.7,3.9-1.1C71.7,73.9,69.1,73.9,69,76.4z"/>
	<path class="st7" d="M189,134.3C189,134.3,189,134.3,189,134.3c-0.3-0.1-0.7-0.4-0.5-0.8c0.1-0.2,0.1-0.3,0.2-0.5
		c-0.4,0-0.8-0.3-0.6-0.8c1.8-6,2.9-12.2,4.6-18.3c0.1-0.3,0.3-0.4,0.5-0.4c0-0.4-0.1-0.8-0.2-1.3c-0.1-0.4,0.1-0.6,0.4-0.7
		c0,0,0,0,0,0c0.2,0,0.5,0,0.7-0.1c0.5-0.1,1.3,0.4,1.4-0.3c-0.7-0.8-2.1-0.6-3-0.6c-7.9-0.4-15.3,0.5-23.4-0.7
		c2.6-1.5,5.2-3.2,6.7-6.6c2.4-2.5,5-4.1,7.9-5.4c1.2-0.5,2.5-0.9,3.4-1.9c-0.5-0.2-1,0-1.4,0.2c0,0,0,0,0-0.1
		c-0.4,0-0.8-0.3-0.6-0.8c0.3-0.7,0.4-1.4,0.4-2.1c-0.2,0-0.4-0.2-0.5-0.4c0-0.2-0.1-0.4-0.1-0.7c-0.3,0-0.5-0.2-0.5-0.6
		c0-2.1-0.4-4.3-0.6-6.4c0-0.1,0-0.2,0.1-0.3c-0.1-0.7-0.2-1.4-0.3-2.1c-0.8-4.4-1.9-8.8-1.8-13.3c0,0,0,0,0-0.1
		c-0.3-0.6-0.5-1.2-0.8-1.7c-0.2-0.3,0-0.6,0.2-0.8c-0.1-0.2-0.1-0.5-0.2-0.7c-0.1-0.3,0.1-0.6,0.3-0.7c0.6-0.5,1.2-1,1.8-1.5
		c0.4-0.3,1.8-0.8,1.1-1.7c-0.8,0.3-1.5,0.8-2.3,1.3c-2.5,1.4-4.8,2.5-7.4,3.6c-1.7,0.7-3.2,1.8-4.9,2.6c-1.7,0.8-3.5,1.3-5.2,2.1
		c-3.4,1.6-7.1,2.3-10.8,3.4c-3.7,1.1-7.5,2-11.4,2.4c-1.2,0.7-2.8,0.6-4.3,0.8c-0.2-0.1,0.3-0.3-0.3-0.3c-1.7,0.7-3.6,1.1-5.5,1.4
		c1.2-3.4-4.2-4-5.9-3.2c0.6-4.5-7.7-4.9-7.9-0.6c-3.4-1.2-5.8-0.7-7.5,1.2c-1.3-1.2-4.8-2.9-6.7-2.2c-1.4,0.5-1.7,2.3-1.8,4
		c-0.9-0.1-1.5,0.2-2.3,0.4c-0.8-2.9-7.1-3.8-7.9-0.3c-1.9-2.2-5.9-2-7.1,0c-0.8-1.9-2.6-5-5.6-4.9c-0.5,0-1.4,0.4-2,0.6
		c-1.6,0.7-2.5,1.9-2.5,4.4c-1.7-0.4-2.6,0.6-3.2,2.1c-2.1-1.7-4.1-0.4-4.8,1.9c-1.9-0.8-3.5-1.6-4.9-0.5c-1.1,0.9-2.1,3.8-1.4,4.9
		c-1.7,0.2-3.1,1-4.1,2.7c-2.5-2.3-5.8-5.1-10.6-5.2c-1.3-1.1-2.6,0.3-3.7,0.5c-0.9-0.8-2-1.9-3.3-2.8c-1.2-0.9-2.4-2.1-3.7-2.6
		c-1-0.4-2.4-0.5-3.5-0.7c-1.2-0.2-2.4,0-3.5,0.1c-0.7,0.4-1.3,1-2,1.3c-6.2-2.3-15.4-5.9-16.6,1.3c1.1,2.1,4,3.7,5,5.6
		c-0.9-0.8-1.6-0.1-2.7-0.6c-0.7,0.4-1.8,0.5-2.4,1.5c-0.4,0.7-1.3,2.8-1.3,3.3c0,0.6,1.4,2.1,1.9,2.6c1.6,1.7,4.2,3.5,5.5,4.6
		c0.9,1.7,2.6,2.5,3.9,3.8c3.8,3.9,7.2,8.2,12.3,11.4c0.2,0.1,0,0.3,0,0.5c1.2,0.5,2,1.5,2.8,2.2c0.9,0.8,1.9,1.4,2.8,2.3
		c0.7,0.7,1,1.4,1.6,2c0.7,0.7,1.4,0.9,2.5,1.5c2.3,1.3,4.1,3.2,6,4.8c1,0.8,2,1.6,2.7,2.6c1.4,1.9,2.7,4.3,5.6,5.4
		c1.9,0.7,2.8,0.3,4.4,0.1c2.3-0.2,5,0.4,7.6,0.6c7.9,0.7,15.9,3.1,23.9,3.5c10.4,0.5,21.3,0.9,31.9,2.9c0.3,0.1,0.1-0.5,0.4-0.2
		c7.6,1.2,14.6-0.6,21-1.6c2.3-0.4,4.6-0.4,6.9-0.7c1.4-0.2,2.9-0.9,4.5-1c2.5-0.2,5-0.1,7.5-0.1c5.1-0.1,9.9-0.7,14.8-1.1
		c2.5-0.2,5.2,0.1,7.5-0.4c1.8-0.4,4-1.3,4.9-2.7C190.4,134.3,189.7,134.3,189,134.3z"/>
	<path class="st8" d="M136.3,71.9c0.5,2.3-2.9,1.5-2.9,0.1C133.9,71.2,135.1,71.4,136.3,71.9z"/>
	<path class="st9" d="M124.8,74.8c0.1,0.6,0.4,1,0.1,1.8c0.1,0.4,0.5,1.2,0.4,1.4c0.5-0.1,0.6-0.6,1.2-1c1.8-0.9,5.3,0.3,4.4,2.7
		c-4.3,1.4-9.2,1.6-14.3,1.8c-2.1,0.1-3.8,0.3-6,0.2c-5.4-0.3-9.3,2.6-13.2,5.1c-2.7,0.7-4.8,2.3-7.7,2.7c0.6-3.8-5.8-3.4-7-1.5
		c-2.1-1.3-5.4-1.5-5.2,1.6c-0.7-0.2-1.3-0.4-2-0.6c0.3-1.4-0.4-2.8,0.3-4c0.7-1.3,2.7-0.8,4.5-0.4c0.4,0.3,0.4,0.8,0.7,1.2
		c4.2,3,5.2-4.5,1.1-3.2c-0.6,0.2-0.9,0.5-1.3,1.3c-2.3-1.1-4.6-0.8-5.9,0.4c-0.4,1.1-0.5,2-0.6,2.9c-1.3-1.1-3.7-1.2-4.9-0.8
		c-0.2-1.4-1.9-3.2-0.2-4.8c1.4,0,1.1,1.7,2.2,1.8c0.8,0.1,1.2-0.7,1.5-2.1c1.4-1,3.1,0,3.7,1.4c0.6-0.1,0.6-0.2,1.1-0.3
		c0.6-2.2-2.9-2.8-1.2-5.9c1.2-0.5,2-1.6,3.8-0.8c1.8,0.8,3.6,4.7,3.9,6.5c1.2,0.1,0.7-1.4,0.9-2c0.7-2.1,3.1-2.4,4.9-1.4
		c1,0.6,1,1.7,1.9,2c0.8,0.1,0.8-1.5,1.1-2.3c1.1-0.5,3.1,0,4.6,0.7c0.7,0.9-0.4,2.8,0.3,3.8c1.7,0.4,1.4-1.8,2.6-2.2
		c1.6-0.5,2.7,1.1,4.2,1.1c0.9-1.6-3.2-3.2-0.8-5.7c2.1-0.4,3.9,1.4,5.3,2.3c-0.2,0.6-0.3,1.3-0.1,1.7c0.3,0.1,0.5,0.1,0.8,0.2
		c0.8-0.2,0.5-1.2,0.7-1.7c0.5-1.1,2.4-2.7,3.9-2.7c1.1,0,2.1,0.7,3.3,0.9c0.6,0.7,0.7,2.7,2.1,2c0.5-1.6-0.7-2.6-0.1-4
		C120.6,73.5,123.2,73.7,124.8,74.8z M116.5,79.7c0.1-0.7-0.7-1.3-1.5-0.9C114.1,80.6,116.3,81,116.5,79.7z M97.3,81.3
		c-0.7-0.8-2-1.9-3.2-1.5c-0.9,0.3-1.2,1.5-1.7,2.4c0.3,0.7,0.6,1.4,1.7,1.7c-0.3,0.2-0.6,0.4-0.5,0.9c0.2,0.4,0.9,0.6,1.4,0.5
		c0-0.1,0.1-0.2,0.2-0.2c0.4-0.8-0.3-1-0.7-1.4C96.3,84.6,97.2,82.9,97.3,81.3z M80.1,79.9c0,0.1-0.1,0.1-0.2,0.2
		c0.1,0.4,0.4,0.7,0.9,0.9c0.2-0.2,0.5-0.2,0.6-0.8c-0.1,0-0.1-0.1,0-0.3C81.1,79.7,80.3,79.4,80.1,79.9z M87,84.2
		c1.1,1.4,4.3,1.6,3.9-1.1C89.8,81.6,87.2,81.8,87,84.2z"/>
	<path class="st8" d="M95.5,73.9c-0.9,0.1-1.9-0.4-2.3-1C93.4,71.4,96.4,72.5,95.5,73.9z"/>
	<path class="st8" d="M96,81.8c-0.1,1-0.8,1-1.6,0.7C94.1,81.2,95.4,80.9,96,81.8z"/>
	<path class="st8" d="M71.8,75.8c0,1.1-1.2,0.9-1.8,0.5C70.2,75.5,70.9,75.4,71.8,75.8z"/>
	<path class="st10" d="M129.2,92.2c-1.3,1.5-2.6,4.5-4.6,5.1C125.7,95.6,126.7,92.3,129.2,92.2z"/>
	<path class="st10" d="M126.3,92.7c0.2,0,0.2,0.2,0.1,0.1c-1.2,1.6-2.3,3.4-3.5,5c-0.5,0.1-0.9,0.3-1.5,0.3c1.1-1.7,2.3-3.3,3.3-5.1
		C125.2,92.9,125.8,92.9,126.3,92.7z"/>
	<path class="st8" d="M89.8,83.7c0,0.3-0.2,0.2-0.3,0.5c-0.5-0.1-1-0.3-1.4-0.4C88.2,83.1,89.3,83.3,89.8,83.7z"/>
	<path class="st10" d="M123.7,93.1c0.2,0,0.2,0.1,0.2,0.3c-1.6,1.3-2.6,3.5-4,5.2c-0.5,0.1-0.9,0.2-1.4,0.2c1.2-1.7,2.4-3.5,3.4-5.5
		C122.6,93.3,123.2,93.3,123.7,93.1z"/>
	<path class="st10" d="M116.3,99c1.4-1.5,2.6-3.3,3.8-5.4c0.3-0.1,0.8,0,1-0.2c0.1,0,0.2,0.1,0.2,0.2c-1.3,1.8-2.6,3.6-4,5.3
		C117,98.9,116.7,99,116.3,99z"/>
	<path class="st10" d="M119.4,93.8c-2,1.9-2.9,5.7-6,5.4c1.5-1.6,2.9-3.4,4.3-5.2C118.3,94,118.8,93.7,119.4,93.8z"/>
	<path class="st8" d="M83.1,84.1c0.2,0.1,0.3,0.3,0.5,0.5c-0.1,0.4-0.3,0.6-0.6,0.8c-0.4-0.1-0.8-0.2-1.2-0.3
		C82.2,84.7,82.7,84.4,83.1,84.1z"/>
	<path class="st10" d="M116.2,94.2c0.2,0,0.2,0.1,0.2,0.3c-0.8,0.8-1.6,1.8-2.4,2.8c-0.7,0.9-1.5,2.3-2.8,2.1c1-1.5,2-2.9,2.8-4.6
		C114.7,94.6,115.5,94.4,116.2,94.2z"/>
	<path class="st8" d="M88.9,89.8c-0.6,0.5-1.5,0.4-2.2,0.7c0.1-0.7,1.2-1.2,1.6-1.9c-1.7,0-2.5,2.8-4.6,2.5c0.4-0.4,1-0.9,1.6-1.6
		c0.9-0.9,1.3-2.1,3.2-1.1C88.8,88.7,89.1,89.3,88.9,89.8z"/>
	<path class="st8" d="M81.1,88.8c-0.8,0.6-1.4,1.4-2.1,2.3c-0.2-0.9,0.7-1.4,1-2c0-0.2-0.1-0.2-0.1-0.4c-0.4,0.1-0.7,0.3-0.9,0.7
		c-0.2-0.1,0.1-0.5,0.1-0.7C79.6,88.5,80.3,88.5,81.1,88.8z"/>
	<path class="st8" d="M81.6,89c0.6,1.4-1.1,2.7-2.3,3.1C80.1,91.1,80.9,90.1,81.6,89z"/>
	<path class="st8" d="M67,90.2c-1.8-0.7-3.2,0-3.4,1.7c-0.1,0.6,0.4,1,0.2,1.5c-2-0.3-3.6,0.2-5.7-0.3c0.3-0.7-0.1-0.8-0.3-1.4
		c0.9-1.8,2.7-2,4.2-2.7c2.2,0.8,3.5-0.9,1-1.8c-0.3-0.7-0.7-1.5-0.6-2.4c1.9-0.1,5.4,0.8,5.6,2.5C67.3,87.7,66.9,89.4,67,90.2z"/>
	<path class="st10" d="M47.2,93.2c-1.9,0.2-4,0.1-5.8,0.4c-0.4-0.2-0.3-0.6-0.7-0.8C39,92.1,37.9,91,36.6,90c-1-0.8-2.1-1.4-2.9-2.1
		c-1.9-1.8-3-4.5-5.5-5.8c2-0.7,5-1.4,7.4,0c2.2,1.3,3.8,3.7,5.5,5.6c0.6,0.6,1,1.5,1.6,2C44.2,91.1,45.8,91.7,47.2,93.2z"/>
	<path class="st10" d="M94.5,104.1c-0.3,0-0.6,0.1-1.1-0.1c0.7-0.9,1.3-1.8,1.7-3.2c-0.8,0-0.9,1.1-1.3,1.7
		c-0.4,0.6-0.8,1.2-1.2,1.7c-0.3-0.1-0.6-0.1-0.8,0c-0.8-1.4,1.2-2,1.5-3.4c1.2-0.1,2.3-0.2,3.3-0.6
		C96.7,101.4,95.2,102.9,94.5,104.1z"/>
	<path class="st10" d="M55.9,91c-0.4,1-0.3,1.7-0.2,2.4c-1.4-0.1-2.7,0-4,0.1c-2.7-2.3-5.7-4.6-8.3-7c1.8-0.4,3.5-0.3,5.6,0.5
		C51.7,88,53.8,90,55.9,91z"/>
	<path class="st8" d="M137.4,111.9c-0.9,0.8-1.6,2-2.8,2.3c-0.7,1.3-2.1,2.1-3.9,1.1c0.4-0.4,0.9-0.3,1.4-0.7c1.2-0.9,1.8-2.7,3.3-3
		c-0.8,1.3-2.5,2.5-3.7,3.7c1.9,0.2,3.1-2.5,4.6-3.6C136.8,111.9,137,111.7,137.4,111.9z"/>
	<path class="st8" d="M134,111.6c-1.2,1-2.4,2.9-3.8,3.2c0-0.3,0.9-1,1.4-1.5c0.6-0.6,1.1-1.3,1.6-1.8
		C133.5,111.6,133.6,111.4,134,111.6z"/>
	<path class="st8" d="M132.1,111.5c-0.8,0.9-1.6,1.9-2.4,2.8c-0.4-0.1-0.4-0.5-0.6-0.7C130,112.8,130.4,111.1,132.1,111.5z"/>
	<path class="st10" d="M92.5,101c-0.3,0.6-0.6,1.1-0.9,1.6c-0.4-0.4-0.4-1-0.4-1.5C91.6,101,92,101,92.5,101z"/>
	<path class="st10" d="M90,102c0.3,0.8-0.4,2.4-1.2,2.4c-0.3,0.5,0.2,0.5,0.1,0.9c-0.9,0.4-2,0.6-2.9,1.1c0-0.9,1.3-1.6,1.2-2.6
		c-1.2,1.3-2,3.3-3.9,3.3C83.9,103.6,87.8,103.4,90,102z"/>
	<path class="st9" d="M93,106.3c-0.3,0.3-0.8,0.3-1.1,0.5C91.7,106.4,92.6,106.2,93,106.3z"/>
	<path class="st8" d="M104,110.2c-0.4,0.2-0.7,0.4-1.4,0.2C103,109.9,103.5,109.6,104,110.2z"/>
	<path class="st10" d="M84,104.4c-0.7,1.2-1.8,2.9-3.3,3C81.2,106.1,82.4,104.5,84,104.4z"/>
	<path class="st10" d="M81.2,105.2c-0.8,1-1.4,2.5-2.8,2.4c0.3-0.8,1.2-1.3,1.1-2.2C80,105.2,80.6,105.2,81.2,105.2z"/>
	<path class="st8" d="M116.8,116.7c0,0.4-0.2,0.5-0.3,0.7c-0.3-0.1-0.6-0.2-0.9-0.2C116,117,116.1,116.4,116.8,116.7z"/>
	<path class="st10" d="M21.7,92.6c-0.8,0.7-1.3,2-1.1,3.1c0.9-0.1,1.8-1.7,2.8-2.3c3.1,1.7,4.9,4.4,7.6,6.4c1.5,1.1,3.2,1.4,4.4,2.7
		c-0.2,0.2-0.6-0.1-0.8,0.1c0.2,3.6,2.6,6,6,7.9c-0.7,0.9-2.3,1.6-3.1,2.7c-5-4.5-9.8-8.7-15-13.2c0.5,1.5,2.1,2.4,3.3,3.5
		c3.6,3.3,7.3,7.1,10.9,10.4c-0.1,0.6-0.4,0.8-0.6,1.3c-4.7-3.5-8.2-8-12.2-12c-4.1-4-8.6-7.5-13-11.5c0-0.4,0.1-1.2,0.3-1.5
		c1-0.5,2-1.3,3.1-1.3C17,89.1,19.6,91.8,21.7,92.6z"/>
	<path class="st10" d="M39.1,94.1c-1.9-0.8-3.1-1.6-4.7-2.9c-1.7-1.3-2.4-3.1-3.9-4.3c-0.6-0.5-1.4-0.9-2.1-1.4
		c-0.7-0.5-1.4-1.1-2.1-1.5c-1.4-1-2.8-2.4-4.2-3c-0.9-0.4-2.2-0.7-3.4-1c-3.3-0.8-6-1.7-6.6,2.2c3,2.8,5.6,5.7,9.7,7.8
		c0.2-0.7,1.2-1.6,1.7-0.8c-0.3,0.6-0.8,0.7-1.1,1.2c0.7,0.3,1,0.9,1.8,1.1c0.2-0.3,0.4-0.7,0.6-1c0.1,0.1,0.2,0.2,0.4,0.4
		c-0.1,0.3-0.3,0.5-0.3,0.8c0.2,0.5,0.4,1.1,1.2,1.3c0.1-0.4,0.3-0.5,0.6-0.7c0.1,0,0.1,0.1,0.2,0.2c0.1,0.1,0.2,0.2,0.3,0.3
		c-0.2,0.3-0.4,0.5-0.6,0.8c0.5,0.3,0.8,0.7,1.2,1.1c0.1-0.4,0.3-0.6,0.4-0.9c0.2,0.1,0.4,0.3,0.5,0.4c-0.1,0.4-0.2,0.8-0.4,1
		c0.2,0.2,0.4,0.4,0.7,0.5c0.2-0.3,0.4-0.6,0.6-0.8c0.2,0.2,0.4,0.3,0.6,0.5c-0.2,0.3-0.3,0.7-0.6,1c0.4,0.2,0.5,0.5,1,0.6
		c0.2-0.3,0.3-0.6,0.4-0.9c0.3,0.2,0.5,0.4,0.8,0.6c-0.2,0.3-0.3,0.6-0.4,0.9c0.2,0.2,0.4,0.4,0.7,0.4c0-0.4,0.2-0.5,0.3-0.8
		c0.2,0.2,0.4,0.3,0.5,0.5c0,0,0.1,0.1,0.1,0.1c-0.1,0.3-0.3,0.5-0.4,0.8c0.2,0.2,0.3,0.4,0.7,0.4c0.3-0.2,0.3-0.8,0.5-1
		c0,0,0,0,0,0c0.1,0,0.2-0.1,0.3-0.1c0.3,0.1,0.6,0.1,0.9,0.2c0.6,0.1,0.9-0.3,1-0.7c0.1,0,0.2,0.1,0.3,0.1
		c-0.5-0.7-0.2-1.2,0.1-2.2C37.5,94.7,38.4,94.6,39.1,94.1z"/>
	<path class="st10" d="M35,98.6c0.6,0.3,1,0.7,1.6,0.9c-0.3,0.3-0.5,0.8-0.8,1.1c-0.5-0.3-0.9-0.5-1.3-0.8
		C34.7,99.4,34.7,98.8,35,98.6z"/>
	<path class="st8" d="M55.2,104.8c0.5,0-1.5,1-2,1.1c-0.5,0.1-1.2-0.1-1.7-0.4C52.7,105.3,54,105.2,55.2,104.8z"/>
	<path class="st10" d="M37.4,100.1c0.6,0.1,0.7,0.5,1,0.7c-0.5,0.2-1,0.4-1.7,0.4C37,100.8,37.3,100.6,37.4,100.1z"/>
	<path class="st8" d="M138.2,128.9c0.2,0.1-0.1,0.5,0.1,0.6c0.5,0.1,0.7-0.3,1.3,0c-0.1,0.9-0.9,0.5-1.5,0.3
		C137.9,129.6,138.1,129.2,138.2,128.9z"/>
	<path class="st10" d="M48.8,106.4c0.3,0.4,0.5,0.9,0.5,1.5c-0.8,0.7-1.4,1.8-2.5,1.8C47.1,108.6,48.3,107.6,48.8,106.4z"/>
	<path class="st10" d="M46.2,106.1c-0.4,1-1.5,2-2.3,2.9c-0.3-0.1-0.7-0.2-1-0.3C44.2,108.1,44.7,106.2,46.2,106.1z"/>
	<path class="st10" d="M44,106.3c-0.2,0.8-1.2,1.6-1.8,2.2c-0.4-0.2-0.3-0.1-0.7-0.3c0.4-0.7,0.9-1.1,1.1-1.9
		C43.1,106.3,43.6,106.5,44,106.3z"/>
	<path class="st10" d="M41,106.1c0.2-0.2,0.6,0.1,0.9,0.1c-0.4,0.6-0.8,1-1.2,1.7c-0.4,0-0.4-0.2-0.6-0.3
		C40.3,107.1,41.5,106.7,41,106.1z"/>
	<path class="st8" d="M122,130.5c-0.1,0.7-0.4,1.2-0.8,1.5c-0.5-0.2-1.2-0.2-1.4-0.5C120,129.9,121.3,129.4,122,130.5z"/>
	<path class="st8" d="M130.7,134c-0.1,0.6-0.4,1-0.6,1.4c-0.6-0.2-1.4-0.3-1.8-0.6C128.7,133.8,129.4,133.4,130.7,134z"/>
	<path class="st8" d="M45.1,114.3c0.2,1.4,0.5,2.8,0.9,4.2c-1.3,0.4-2.8,0.6-4.2,1c-1.3-1.2-1.4-3.1-1.4-5
		C41.9,114.2,43.5,114.2,45.1,114.3z"/>
	<path class="st10" d="M39.3,116.1c0.3,1.3,0.7,2.6,1.2,3.8C39.4,119,38.7,117.9,39.3,116.1z"/>
	<path class="st10" d="M49.1,123.6c-0.6,0.2-1.2,0.6-1.7,1.1c-0.8-0.6-1.4-1.3-2.2-1.8C46.3,123.2,47.7,123.4,49.1,123.6z"/>
	<path class="st10" d="M54.4,128.4c-0.8,0.3-1.5,0.7-2.3,0.9c-0.2-0.3-0.4-0.5-0.8-0.7C52.2,128,53.6,127.2,54.4,128.4z"/>
	<path class="st10" d="M55.3,129c0.4,0.4,0.8,0.7,1.4,1c-1,0.3-2,0.7-3,1.1c-0.2-0.4-0.5-0.7-0.9-1C53.5,129.6,54.5,129.4,55.3,129z
		"/>
	<path class="st10" d="M74.6,134.9c-0.3,0.1-0.7,0.1-1.2-0.1C73.7,134.7,74.1,134.8,74.6,134.9z"/>
	<path class="st10" d="M60,132c-1.4,0.2-2.4,1.3-4.2,0.9c0.7-0.5,1.5-0.8,2.3-1.1c-1.1-0.5-2.1,0.7-3.1,0.9
		c-0.4-0.3-0.8-0.5-0.8-1.1c1-0.3,1.9-0.8,2.8-1.1C58.2,131,59,131.6,60,132z"/>
	<path class="st10" d="M185.4,89.5c-0.4-2.6-0.3-5.3-0.5-7.9c-0.4-5.6-2.8-10.7-3.8-16.2c-1.2,0.9-2.4,1.7-3.7,2.3
		c-1.4,0.6-2.8,1.1-4.2,1.8c-1.4,0.7-2.6,1.6-3.9,2.1c-5.7,2.3-11.6,4.5-17.4,6c-7.1,1.2-14,3.7-21.4,4.7c-5.7,0.7-11.4,1-17.1,1.6
		c-2.2,0.3-4.1,0.8-6.4,1.2c-5.3,2.3-10.7,4.9-15.8,7.6c-1.7,0.9-3.5,1.5-5.5,2c-7.6,2.1-14.8,5.1-22.1,8c0.3,0.2,1.1-0.1,1.7,0.1
		c-1.2,0.7-2.4,1.3-3.5,2c-1.1,0.6-2.3,1.5-3.7,1.5c0.7-1.8,2.4-2.1,3.7-2.9c-3.3,0.7-5.6,3.3-9.1,3.9c0.8,1.7,2.1,3.4,5.3,3.7
		c1.7,0.2,4.2-0.5,6.2-0.8c2.3-0.4,4.4-0.7,5.9-1.2c-0.2-1.1-0.4-2.6,0.1-3.8c1,0.8,0.5,2.4,1.2,3.3c0.5-0.2,0.9-0.3,1.1-1
		c0.3,0.1,0.3,0.5,0.3,0.8c1.7-0.1,3.4-0.4,5-0.6c0.6-0.8,1.1-1.6,1.6-2.4c-2.3,0-4.6,0.8-7-0.1c2.8-0.7,6.4-0.2,9.1-1.1
		c0.3-0.1,0.6-0.1,0.7-0.5c0.3-0.1,0.3,0.4,0.7,0.1c2.6-0.8,4.9-2,7.5-2.9c0.2-0.3-0.1-0.4,0.1-0.8c2.8,0,5.3-0.6,8-0.6
		c0.2,0.4-0.8,0.2-1,0.4c-0.2,1.5-1.3,2.8-1.9,4c2.1,0,2.8-3.9,4.3-5.5c0.5,0.9-0.3,1.9-0.8,2.8c-0.5,0.9-1,1.8-1.4,2.5
		c2.2,0.2,2.4-3.3,3.7-4.8c0.3-0.5-0.2-0.5,0-0.9c8.9-3.6,18.8-6.5,29.6-6.2c-0.2,0.5-0.8,0.4-1.2,0.7c-1.2,1.1-1.7,3.1-3,4.2
		c2,0.1,3-3,4.8-3.6c-0.4,0.6-0.7,1.2-1.2,1.7c2.4-1.3,4.9-2.6,7.7-3.7c1.5-0.6,2.6-1.3,4.9-0.4c0.1,0.4-0.5,0.5-0.7,0.6
		c-2.1,1.4-4.7,2.4-7.1,3.7c-1.4,0.8-2.6,1.7-4,2.3c-1.4,0.7-3,0.9-4.5,1.5c-1.3,0.5-2.5,1.3-4.2,1.3c1,1.4,2.8,3,2.3,4.9
		c-1.4-1.4-1.9-3.9-3.9-4.7c0.3,1.1,2.9,2.3,2.1,4.1c-1.7-0.9-2-3.1-3.9-3.6c-0.4-0.1-1.3,0.1-2.1,0.1c-0.7,0-1.4,0.1-2.1,0.1
		c-2.3,0.1-4.4,0.2-6.6,0.6c0.3,1.3,1.2,4.2,2.8,4.9c0.7,0.3,1.8,0.3,2.3-0.5c-0.9-0.9-2.6-2.7-1.4-3.8c0.3,1.1,0.7,2.1,1.7,2.9
		c0.2-1.2-1.5-2.2-1.6-3.5c2.4,0.5,2.5,2.5,3.4,4.2c0.4,0.7,1.4,1.3,0.6,2.1c-0.8,0.1-1.2-0.7-1.5-1.1c-1.3,1-3.2,1.9-5,1
		c-1.8-0.9-2.9-3.7-2.4-5.8c-1,0-1.4,0.9-2,1.3c0.3,2.8,1.8,4.9,4.8,6.1c-3.4-0.1-4.8-2.7-5.1-5.1c-2.5,3.6,3.4,7.6,7.2,7.4
		c0.5,0,0.9-0.3,1.3-0.4c0.7,0,1.4,0.2,2.1,0.2c3.7,0.1,7-1.5,10.3-2.1c1.7-0.3,3.4-0.5,5.3-0.9c1.3-0.3,2.9-0.7,4.8-0.3
		c0.4,0.1,0.3,0.5,0.8,0.6c3.7,1.1,7.3,2.1,10.7,2.7c0.8,0.2,1.7,0.5,2.3,0.5c1.5,0.1,3.3-0.6,4.7-1c1.6-0.4,3.3-0.6,4.7-1
		c5.2-1.2,10.4-1.2,13.8-5.5c0.9-1.1,1.1-2.6,2-3.6c2.1-2.6,6.7-3.9,10-4.7c0.2-0.1,0.4-0.1,0.6-0.2
		C185.4,93.9,185.7,91.7,185.4,89.5z M137.5,90c0.1-0.5,1.1-0.5,0.9,0C138,89.9,137.9,90.2,137.5,90z M124.8,101.3
		c0.1-0.3,0.1-0.5,0.3-0.6c1.2,0.7,1.8,1.8,2,3.1C126.1,103.1,125.3,102.2,124.8,101.3z"/>
	<path class="st10" d="M193.2,111.5c-4,0.5-8.3,0.6-12.6,0.7c-4.5,0.1-9.3-0.7-13.7,0c-3.3,0.4-6.4-0.2-9.6,0.3
		c-2.9,0.5-5.5,2-9.2,0.9c1.2,1.6,2.2,3.2,2.6,5.2c0.9,0.5,2.9,1.4,3.7,0.8c0.6-1.3,0.3-2.6,0.7-3.5c1.5,0.1,2.1,2.2,4,2.7
		c1.7,0.4,3.3-0.5,3.6-2.7c0.2-1.1-0.4-1.7-0.8-2.7c5.3,2.4-1,10.3-5.7,5.4c-0.5,3.5-4.3,2.6-6.6,1c-0.9,3.7-5.6,4.5-8.8,1.7
		c-0.2,4.3-6.3,3-5.8-0.2c-0.4-0.3-0.9,0.4-1.7,0c-0.1,3.8-3.1,5.1-6.6,4c-1,3.6-6.2,4.2-7.2,0.7c-1.4,1.7-3.1,3.9-5.4,4.1
		c-4.4,0.4-7.7-3.5-7.6-6.9c0-0.6,0.3-1.2,0.4-1.8c-0.7,0.2-2.8,0.5-3.8-0.6c-0.4,1.1-1,2.4-2.1,3.1c-0.9,0.6-2.8,1.4-3.7,1.3
		c-2.9-0.2-4.8-1.9-5.5-3.8c-1.5,1.6-4.4,1.8-6.6-0.1c-1.5-1.2-2.4-2.2-1.8-4.4c-0.4,0.6-2.2,0.3-2.5-0.7c-1.3,2-5.4,2.7-7.5,0.3
		c-0.1-0.4,0.2-1,0.3-1.6c-0.2-0.2-1.1-0.2-1.7-0.5c-0.7-0.8-1.2-1.8-0.6-3.3c-2.1,0.7-4.3,2.1-7.1,2.5c-1.3,0.2-2.7-0.2-4-0.2
		c-1.1,0-2.2,0.4-3.3,0.3c-2.4-0.3-4.9-1.3-6.8-2.6c-1.9,0.5-4.1,0.5-5.8,1.2c1.3,0.3,1.7,0.8,2.5,0.5c-0.4,0.8,0.4,0.8,0.6,1.2
		c0,0.6-0.7,0-0.9,0.3c-0.3,2,0.7,3.3,1.4,4.8c-1.4,0.7-3.4,0.6-4.9,1.3c3.5,0.1,7.1,0.9,10.5,0.9c1,0,2.2-0.5,3.6,0.4
		c0.1-1.7-0.7-5.4,1.3-7c0.5,0.3,0,1.3,0.1,1.9c0,0.3,0.6-0.2,0.8,0.2c-0.2,2.1,0.9,4,0.5,6c2.4,1,5,0.7,7.2,1.3
		c0.5,0.1,1,0.5,1.5,0.7c1.7,0.5,3.1,0.3,4.6,0.8c3,1,6.5,3.2,9.5,4.4c6.2,2.5,13.2,3.3,18.8,3.5c1.2,0,2.6-0.5,3.7,0.2
		c-3.1,0.3-6.2,0.1-9.4,0.1c-3.8,0-7.7-0.2-11.5-1c-2.1-0.6-4.1-1.3-6-2c-0.5-0.2-1-0.5-1.5-0.8c-0.2-0.1-0.4-0.1-0.6-0.1
		c-0.3-0.1-0.5-0.2-0.8-0.3c-2.3-1-3.9-2.6-6.8-3.1c-2.2-0.4-4.6-0.4-6.9-0.9c-1.2-0.3-2.4-0.8-3.5-1c-2.4-0.4-5-0.1-7.4-0.8
		c-0.9,0.5-1.9,0.9-2.8,1.5c1.2,1.3,2.9-0.7,4.3,0c-0.4,0.7-2,0.8-2.9,1.1c0.2,0.5,0.9,0.9,1.3,1.3c0.7-0.1,1.3-0.6,2-0.7
		c-0.1-0.3-0.5-0.4-0.3-0.9c0.7,0.3,1.3,0.8,2,0.8c0,0.5,0.3,0.6,0.6,0.9c2.5,2.1,6.2,3.7,10.7,4.8c3.3,0.8,6.7,1.1,9.7,1.8
		c0.1,0.2,0.5,0.3,0.3,0.8c5.8,0.9,11.2,1.8,16.6,2c5.5,0.2,10.7,0.4,16.1,1.2c4.7,0.6,9.4,0.8,14.2,1.5c6.4,0.9,12.1,0.2,17.8-0.5
		c1.3-0.2,2.6-0.3,3.7-0.6c5.1-1.2,10.3-1.2,15.3-2.3c5.3-1.1,10.8-0.4,16.1-0.7c2.7-0.1,5.3-0.4,7.9-0.6c1.9-0.2,3.7-0.6,5.6-0.7
		C190.9,126.8,193.4,119.3,193.2,111.5z M61.3,121.7c-1-1.1-0.9-3.2-0.1-5l0.3,0.1C61.6,118.2,62.4,120.4,61.3,121.7z M63.5,117.3
		c0.2-0.7-0.4-2.4,1-2C64.8,116,64.1,117.1,63.5,117.3z M121.3,133c-1-0.3-2.1-0.5-2.4-1.2c-0.2-2.7,2.8-4.1,4.1-1.8
		C123.2,131.3,122.3,132.9,121.3,133z M125.1,129.1c0.7-0.1,1.2-0.8,2.2-0.3C128.6,131.1,124,132.1,125.1,129.1z M130.2,136.6
		c-1.4-0.3-2.7-0.7-3.1-1.6c-0.3-3.2,3.5-3.5,5.1-1.7C132,134.6,131.3,136.3,130.2,136.6z M139.2,131.2c-2.3,0-2.8-1.9-1.5-3.2
		c0.5,0.1,0.9,0.3,0.7,0.8C140.6,127.4,141.6,130.6,139.2,131.2z"/>
	<path class="st10" d="M113.2,94.9c-0.6,1.6-2.1,2.9-3,4.5c-0.6,0-1.2,0.2-1.8,0.2c0.7-1.3,2.1-2.4,2.5-3.8c-1.5,1-2.5,2.9-3.8,4.3
		c-2.2-0.3-2.7,2.3-4.6,2.4c0.7-1.1,1.6-2.9,1.5-4.4c-1.4,1.6-1.6,5.2-3.9,5.1c0.8-1.6,1.7-2.9,2.2-5C105.8,97,109.5,96,113.2,94.9z
		 M106,99.6c0.6-0.5,1.5-0.6,1.9-1.5C107.2,97.7,106.1,98.8,106,99.6z"/>
	<path class="st8" d="M86.1,87.8c-1.2,1-2.8,2.8-4.4,3.8C83.3,90.5,84,87.8,86.1,87.8z"/>
	<path class="st8" d="M76.1,90.8c0.3,0.1,0.7,0.2,1,0.3c-0.3,0.5-0.8,0.6-1.1,1c1.2,0.9,1.7-0.8,2.7-0.8c0.2,0.2-0.4,0.5-0.4,1
		c-4,0.8-8.5,0.7-12.8,0.9c-0.6-0.5-1-0.9-0.7-1.6c0.6-1.3,2.5,0.2,3.3,0.9c0.2,0,0.4-0.1,0.6-0.2c0.5-1.7-1.3-2.1-0.3-4.1
		c1.4-0.7,4.8-0.7,5.8,1.1c-1.2,0.5-2.2,2.2-1.3,3.4c1.4,0.3,0.6-2.6,2.1-2.3c0,0.7-1.2,1.2-1.1,2.2C75.1,92.9,75.5,91.6,76.1,90.8z
		"/>
	<path class="st10" d="M80.3,94c-6.9,2.4-14,7-22.1,8.3c-2.7,0.4-5.4,0.9-8.1,1.7c-0.4,0.1-0.5-0.2-0.9-0.1
		c-0.4,0.4-0.4,1.1-0.3,1.6c-0.5,0.7-1.2,1.4-1.8,2.2c-0.5,0.6-0.9,2.1-2.1,1.6c1.1-1.6,2.3-3.1,3.6-4.5c-1.3-0.5-1.3,1.5-2.6,0.9
		c-0.5-0.1,0.1-0.4,0.1-0.7c-0.7-0.2-0.8,0.5-1.4,0.6c-0.8-0.2-1.8-0.1-2.8-0.3c-1-0.2-2.2-1-2.9-0.3c-0.1,0.7,1.2,0.7,1.9,1
		c-0.5,0.1-0.7,0.8-0.9,1.5c-1.2-0.6-2.2-2.8-1.5-3.9c0.3-0.5,2.2-0.8,2.9-1c2.8-0.9,6.5-1.6,8.7-2.7c0.7,0.6,1.9,1.6,2.7,1.2
		c-0.1-0.8-1-1.1-1.6-1.6c6.2-2.2,13.5-2.5,19.8-4.4c0.4,0.8,0.5,2.1,1.6,2c0.4-1-0.4-1.3-0.2-2.2C75,94.4,77.9,94.1,80.3,94z"/>
	<path class="st9" d="M92.4,110.7c0.4,0,1,0.1,1.4,0c-0.8,1.2-1.6,2.3-2.4,3.5c-1.4-0.7-2.1,1.2-1.7,2.2c0.6,0.3,1.5,0.4,1.8-0.2
		c0.3-0.4,0-1.1,0.2-1.5c0.5-1.2,2.3-2.6,2.8-4c0.4,0.2,0.7,0,1.1,0.1c-1.2,1.9-2.7,3.4-3.7,5.6c1.9-1.1,3-3.5,4.3-5.6
		c0.4,0,0.8,0.1,1.2,0.1c-1.7,2.3-3.1,5-4.8,7.3c2.7-1,3.7-5,5.6-7.2c0.5,0.2,0.7,0,1.2,0.2c-1.9,2.3-3.7,4.7-5.5,7.2
		c1.5,0.2,2.3-1.7,3.2-3c0.9-1.3,2.1-2.7,2.6-4c0.6-0.1,1.5,0,1.4,0.5c1.5,0.2,2.4-0.6,3.5-1.2c3.7,2.5,11.9,4.3,15.7,2.6
		c0.4-0.2,0.8-0.4,1.1-0.8c0.2,0.1,0.4,0.1,0.6,0.2c2.2-1,5-0.8,7.6-1.1c-0.3,0.5-0.7,0.7-1,1.3c-0.5-0.4-0.9-0.7-1.6-0.9
		c0,1,0.1,1.9,0,2.9c0.5,0.2,0.6-0.3,0.7-0.8c0.8,0.8,2.5,2.9,4.6,3.1c0.9,0.1,1.7-0.5,2.4-1.2c0.5,1.1,1.8,3.1,3.4,2.2
		c-0.1-0.9-1.7-0.9-1.9-1.7c1.4-0.9,3.1-2.2,4.1-3.2c-2-0.7-2.8,2.1-4.4,2.7c-0.6-1.7,1.7-2.5,2.6-3.7c1.9,0.5,4.4,0.2,6.3,0.9
		c2.1,0.8,3.3,2.5,3.7,4.4c-0.7,2-1.4,4-3.1,4c-2.3-0.1-3.9-1.6-4.9-2.9c-0.6,0.2-1.3,0.1-1.7,0.6c0.3,1,1.3,2,0.4,3.3
		c-0.5,0.3-1.2,0.3-2.1,0.1c-1-0.9-0.5-2.7-1.2-3.9c-0.8,0.2-0.8,1.2-1.6,1.5c-0.7,0.2-1.4-0.2-2.5-0.5c-0.7-0.1-0.2,1.2-1,0.9
		c0.9,2.8-2.7,5.1-4.4,2.5c-0.4,0.1-0.8,0.1-1,0.3c0.3,1.6-0.9,3-2.1,3.3c-2.5-0.3-2.3-2.1-2.8-3.5c-0.3-0.1-0.5-0.1-0.8-0.2
		c-0.5,0.5-0.2,1.1-0.4,1.5c-0.6,1.2-4.1,3.9-5.5,3.8c-5-0.3-6.8-4.8-4.2-9.4c1-0.5,2.4-0.5,3.1-1.6c0-0.2-0.1-0.2-0.1-0.4
		c-1.5-0.2-2.3,1-4.1,0.3c-0.5-0.7,0.4-2.2-0.3-2.7c-1.6,0.3-3.2,2.1-5.1,1.3c-1.1-0.4-1-1.4-1.9-2.2c-1,0-0.4,1-0.7,1.5
		c-0.6,1.4-2.5,2.2-3.2,3.4c1,0,2.2-1.3,2.9-2.4c0,2.7-2.3,2.6-4,2.8c1.5-1.7,3.4-3.7,4.4-5.9c-2.1,1.5-3.4,4.2-5.4,6
		c2.5,1.1,6,1.5,6.4-2.5c1.6,1.2,3.9,1.1,5.1,0.2c0.2,0.7,0.3,1.4,0.9,1.9c-0.4,0.7-0.9,1.2-1.5,1.6c-1.9-0.3-1.9-1.5-3.1-2
		c-1.3,3-4.3,6.5-8,4.3c-0.9-0.6-1.3-1.7-1.3-3c-1.6-0.7-3.1,1.7-5,1.4c-1.9-0.2-2.8-1.8-3.5-3.5c0.3-1.1,0.6-2.2,0.6-3.2
		c-1.6-0.4-1.9,1.4-3.2,1.5c-0.4-0.5-0.3-1.3-0.7-1.9c-2.2,0.5-3.4,3.7-6.6,1.8c0-1.3,1.5-2,0.7-2.9c-1-0.2-1.6,0.5-2.7,0.2
		c-0.3-0.4-0.3-0.9-0.2-1.6c0.6-0.3,1.3-0.1,2-0.4c-0.1,0.2-0.3,0.1-0.3,0.4c1.8,0,2.8-1.5,4.4-1.8c-1,0.7-2.3,1.2-3.1,2.2
		c2,0.4,3.4-1.7,5.2-2.1c-0.7,0.6-1.7,0.7-2.2,1.6c0.2,0.8,1-0.1,1.3,0.4c-0.5,0.3-1.4-0.1-1.8,0.3c3.7,0.6,7.3-0.3,10.7-0.8
		c-0.8,1.6-2.3,3.6-3.7,4.7c2.4-0.1,3.4-2.8,4.7-4.9c0.5-0.1,1-0.2,1.4-0.4c-1.2,2.5-3.5,4.4-5.1,6.7
		C89.1,116.1,90.8,113.5,92.4,110.7z M139.3,115.9c0.1,0.1,0.2,0.2,0.2,0.4C142.2,116.9,140.2,113.3,139.3,115.9z M123.1,120.4
		c1.1-0.3,2.1-0.8,3.1-1.3c0.5-1,1.3-2.7,0.4-3.6c-0.1,0-0.1,0-0.2-0.1c-0.7,1.6-0.9,3.7-2.7,3.5c-2.1-0.2-2.2-2.2-3.9-2.9
		c-0.3,0.4-0.1,0.9,0,1.3c-0.5,0.8-0.4,1.6-0.8,2.1c-0.6,0.8-1.5,0.6-2.1,1.2c1.6,0.6,3.2-0.1,3.6-2.1
		C120.9,119.4,121.7,120.1,123.1,120.4z M118.2,116.6c-0.3-1.1-2.1-1-3.1-1.2c-1.2,0.9-0.4,2.3-1,3.5c0.1,0.6,1.3,1.7,2,1
		c0.1-0.7-1.4-1.1-1-1.7C116.6,119.4,118.5,118.1,118.2,116.6z M85.2,113.7c0.8,0.2,1.7-0.9,2.2-1.8c-0.1,0-0.2-0.1-0.3-0.1
		C86.5,112.6,85.7,112.9,85.2,113.7z M112.8,123.8c0.9,0.1,1.4-1.3,0.5-1.9c-0.6,0-0.8,0-1.3-0.4
		C111.1,122.3,111.9,123.8,112.8,123.8z M88.7,119.8c0.9,0.4,1.3-0.8,1.3-1.7C89,117.1,88,119.2,88.7,119.8z"/>
	<path class="st9" d="M97.4,105.7c-1.8,1.1-3.3,2.6-5.2,3.3C94,108,95.6,106.6,97.4,105.7z"/>
	<path class="st10" d="M59.2,95.2c-2.8,0.9-6.5,1.7-9.5,2.9c-0.3,0.1,0,0.5-0.4,0.5c-2.6,0.5-5,1.6-8,1.3c-0.8-1.2-2.5-1.8-2.9-3.2
		c0.5-0.6,1.2-0.7,1.6-1.2C46.1,95,52.5,94.9,59.2,95.2z"/>
	<path class="st9" d="M90.4,106.6c0.2-0.1-0.8,0.5-1,0.7C89.3,107,90.1,106.8,90.4,106.6z"/>
	<path class="st9" d="M90.7,107.6c-1.1,1-2.9,2-4.4,2.8C87.8,109.5,89.1,108.4,90.7,107.6z"/>
	<path class="st9" d="M84,109.2c-0.1,0.6-1.2,0.7-1.7,1.1C82.3,110.2,83.5,109.4,84,109.2z"/>
	<path class="st10" d="M33.9,96.1c0.4,0.3,0.7,0.7,1.2,0.9c-0.3,0.2-0.7-0.4-1.2-0.4C34,96.4,33.8,96.3,33.9,96.1z"/>
	<path class="st9" d="M83.3,110.9c0.3,0.9-1,0.6-1.4,0.8C82,111.4,83,111.3,83.3,110.9z"/>
	<path class="st10" d="M59.1,122.5c-0.8-0.7-0.7-1.8-0.8-2.8C58.7,120.6,58.9,121.5,59.1,122.5z"/>
	<path class="st10" d="M67.3,134.1c-2.8,0-6.1-0.8-9-0.7c0.4-0.5,1.9-0.6,2.6-1.1C62.8,133.1,65.3,133.5,67.3,134.1z"/>
	<path class="st8" d="M111.3,106.7c0.7,0.3,1.8,0.3,2.3-0.5c-0.9-0.9-2.6-2.7-1.4-3.8c0.3,1.1,0.7,2.1,1.7,2.9
		c0.2-1.2-1.4-2.1-1.6-3.4c-0.1,0-0.3,0-0.4,0c-0.3,0.1-0.5,0.1-0.9,0.1c-0.8,0-1.6,0.1-2.4,0.3C109,103.7,109.8,106.1,111.3,106.7z
		"/>
</g>
</svg>
