<svg id="Camada_1" data-name="Camada 1" xmlns="http://www.w3.org/2000/svg" viewBox="0 0 1100 680"><defs><style>.cls-1,.cls-7{fill:#fff9de;}.cls-2{font-size:32px;font-family:Montserrat-ExtraBold, Montserrat;font-weight:800;}.cls-2,.cls-3{fill:#904b27;}.cls-4,.cls-8{font-size:16.06px;font-family:Montserrat-Medium, Montserrat;font-weight:500;}.cls-4{fill:#fff;}.cls-5{fill:none;}.cls-5,.cls-7{stroke:#f28d47;stroke-miterlimit:10;stroke-width:3px;}.cls-6,.cls-8{fill:#f28d47;}</style></defs><rect class="cls-1" width="1100" height="680"/><text class="cls-2" transform="translate(31.33 46.38)">FLUXOGRAMA PARA ATENDIMENTO DE CASOS SUSPEITOS <tspan x="0" y="38.4">OU CONFIRMADOS DE COVID-19 NA SAÚDE INDÍGENA</tspan></text><rect class="cls-3" x="265.07" y="242.91" width="157.35" height="137.7" rx="5"/><rect class="cls-3" x="265.07" y="482.51" width="157.35" height="137.7" rx="5"/><text class="cls-4" transform="translate(272.72 280.33)">Dificuldade <tspan x="0" y="23.2">respiratória / </tspan><tspan x="0" y="46.39">Saturação menor </tspan><tspan x="0" y="69.59">que 95%</tspan></text><rect class="cls-3" x="496.98" y="132.99" width="157.35" height="137.7" rx="5"/><text class="cls-4" transform="translate(510.63 170.42)">Paciente de <tspan x="0" y="23.2">grupo de risco </tspan><tspan x="0" y="46.39">ou mal estado </tspan><tspan x="0" y="69.59">em geral</tspan></text><text class="cls-4" transform="translate(274.88 521.73)">Sem dificuldade <tspan x="0" y="23.2">respiratória / </tspan><tspan x="0" y="46.39">Saturação maior </tspan><tspan x="0" y="69.59">que 95%</tspan></text><rect class="cls-3" x="896.53" y="438.69" width="174.43" height="68.71" rx="5"/><text class="cls-4" transform="translate(905.17 476.58)">Piora dos sintomas</text><rect class="cls-3" x="905.82" y="167.48" width="174.43" height="68.71" rx="5"/><text class="cls-4" transform="translate(941.46 195.38)">Encaminhar<tspan x="-11.79" y="23.2">para referência</tspan></text><rect class="cls-3" x="896.53" y="585.86" width="174.43" height="68.71" rx="5"/><text class="cls-4" transform="translate(941.71 623.75)">Resolução</text><rect class="cls-3" x="496.98" y="482.51" width="303.03" height="137.7" rx="5"/><text class="cls-4" transform="translate(508.64 518.16)">- Manter isolamento 14 dias<tspan x="0" y="23.2">- Monitorar sintomas todos os dias</tspan><tspan x="0" y="46.39">- Testar de acordo com protocolo</tspan><tspan x="0" y="69.59">- Investigar contatos</tspan></text><rect class="cls-3" x="498.31" y="311.76" width="326.38" height="137.7" rx="5"/><text class="cls-4" transform="translate(506.98 339.4)">- Colocar no O₂ (inicialmente 3L/min)<tspan x="0" y="23.2">- Dexametasona 6mg/dia</tspan><tspan x="0" y="46.39">-Enoxiparina 40mg/dia</tspan><tspan x="0" y="69.59">- Avaliação de oximetria 4x/dia</tspan><tspan x="0" y="92.79">- Manter isolamento no posto / polo</tspan></text><polyline class="cls-5" points="169.02 416.66 212.89 416.66 212.89 295.17 248.63 295.17"/><polygon class="cls-6" points="252.36 295.17 242.32 287.35 242.32 302.99 252.36 295.17"/><line class="cls-5" x1="654.32" y1="209.66" x2="889.84" y2="209.66"/><polygon class="cls-6" points="896.53 209.66 886.5 201.84 886.5 217.48 896.53 209.66"/><line class="cls-5" x1="967.72" y1="388.03" x2="834.96" y2="388.03"/><polygon class="cls-6" points="828.27 388.03 838.3 395.85 838.3 380.22 828.27 388.03"/><line class="cls-5" x1="423.07" y1="551.86" x2="482.05" y2="551.86"/><polygon class="cls-6" points="488.74 551.86 478.71 544.04 478.71 559.67 488.74 551.86"/><polyline class="cls-5" points="245.67 556.14 212.85 556.14 212.85 416.66 169.02 416.66"/><rect class="cls-3" x="35.14" y="347.81" width="157.35" height="137.7" rx="5"/><text class="cls-4" transform="translate(44.58 401.3)">Caso suspeito /<tspan x="0" y="23.2">Contato /</tspan><tspan x="0" y="46.39">SG</tspan></text><polygon class="cls-6" points="252.36 556.14 242.32 548.32 242.32 563.96 252.36 556.14"/><polyline class="cls-5" points="800.01 546.24 836.07 546.24 836.07 473.04 880.81 473.04"/><polygon class="cls-6" points="885.82 473.04 875.79 465.23 875.79 480.86 885.82 473.04"/><polyline class="cls-5" points="877.84 620.21 836.07 620.21 836.07 546.25 800.01 546.25"/><polygon class="cls-6" points="884.53 620.21 874.5 612.39 874.5 628.03 884.53 620.21"/><polyline class="cls-5" points="422.42 312.07 438.48 312.07 438.48 209.66 483.21 209.66"/><polygon class="cls-6" points="486.94 209.66 476.91 201.84 476.91 217.48 486.94 209.66"/><polyline class="cls-5" points="480.25 410.07 438.48 410.07 438.48 312.07 422.42 312.07"/><polygon class="cls-6" points="486.94 410.07 476.91 402.25 476.91 417.88 486.94 410.07"/><polyline class="cls-5" points="825.69 355.91 967.72 355.91 967.72 251.46"/><polygon class="cls-6" points="967.72 243.73 959.9 253.77 975.54 253.77 967.72 243.73"/><line class="cls-5" x1="989.75" y1="437.3" x2="989.75" y2="252.24"/><polygon class="cls-6" points="989.75 245.55 981.93 255.58 997.57 255.58 989.75 245.55"/><circle class="cls-7" cx="990.97" cy="388.03" r="22.21"/><text class="cls-8" transform="translate(977.46 393.56)">OU</text></svg>