<svg id="Camada_1" data-name="Camada 1" xmlns="http://www.w3.org/2000/svg" viewBox="0 0 1404.74 1318.15"><defs><style>.cls-1{fill:#fff9de;}.cls-2{fill:none;stroke:#f28d47;stroke-miterlimit:10;stroke-width:3px;}.cls-3{font-size:20px;}.cls-17,.cls-19,.cls-3{fill:#fff;}.cls-17,.cls-3{font-family:Montserrat-Medium, Montserrat;font-weight:500;}.cls-4{letter-spacing:-0.03em;}.cls-5{letter-spacing:-0.02em;}.cls-6{letter-spacing:0em;}.cls-7{letter-spacing:-0.02em;}.cls-8{letter-spacing:-0.01em;}.cls-9{letter-spacing:-0.01em;}.cls-10{letter-spacing:-0.02em;}.cls-11{letter-spacing:0em;}.cls-12{letter-spacing:0em;}.cls-13{letter-spacing:0em;}.cls-14{letter-spacing:-0.01em;}.cls-15{letter-spacing:0em;}.cls-16{fill:#904b27;}.cls-17{font-size:23.71px;}.cls-18{fill:#f28d47;}</style></defs><rect class="cls-1" width="1404.74" height="1318.15"/><polyline class="cls-2" points="919.16 842.79 919.16 979.09 842.14 979.09 842.14 1172.32"/><polyline class="cls-2" points="1144.37 842.79 1144.37 978.73 1221.39 978.73 1221.39 1171.46"/><line class="cls-2" x1="552.07" y1="1216.23" x2="552.07" y2="999.5"/><line class="cls-2" x1="449.82" y1="1215.92" x2="685.12" y2="1215.92"/><text class="cls-3" transform="translate(560.16 131.55)"><tspan class="cls-4">A</tspan><tspan class="cls-5" x="14.12" y="0">v</tspan><tspan x="24.98" y="0">ali</tspan><tspan class="cls-6" x="48.1" y="0">a</tspan><tspan x="60.12" y="0">ç</tspan><tspan class="cls-6" x="71.54" y="0">ã</tspan><tspan x="83.56" y="0">o por </tspan></text><text class="cls-3" transform="translate(371.75 662.06)"><tspan class="cls-7">P</tspan><tspan class="cls-8" x="14.08" y="0">r</tspan><tspan x="22.06" y="0">ocu</tspan><tspan class="cls-9" x="59.72" y="0">r</tspan><tspan x="67.76" y="0">ar </tspan></text><text class="cls-3" transform="translate(349.35 686.06)">a<tspan class="cls-10" x="11.96" y="0">t</tspan><tspan class="cls-11" x="19.9" y="0">e</tspan><tspan class="cls-6" x="32.14" y="0">n</tspan><tspan class="cls-11" x="45.82" y="0">di</tspan><tspan class="cls-12" x="65.04" y="0">m</tspan><tspan class="cls-13" x="86.24" y="0">en</tspan><tspan class="cls-10" x="112.1" y="0">t</tspan><tspan class="cls-11" x="120.04" y="0">o </tspan></text><text class="cls-3" transform="translate(348.05 764.06)">da <tspan class="cls-14" x="30.98" y="0">P</tspan><tspan x="45.14" y="0">a</tspan><tspan class="cls-15" x="57.1" y="0">n</tspan><tspan x="70.78" y="0">demia</tspan></text><path class="cls-16" d="M86.69,65.11v6.11H99V77.3H86.69v9.53H78.83V59h21.8v6.08Z"/><path class="cls-16" d="M104.32,59h7.86V80.59h13.26v6.24H104.32Z"/><path class="cls-16" d="M131.74,84q-3.44-3.37-3.44-9.57V59h7.86V74.2c0,4.45,1.77,6.67,5.29,6.67s5.24-2.22,5.24-6.67V59h7.74V74.44q0,6.19-3.43,9.57t-9.63,3.37Q135.18,87.38,131.74,84Z"/><path class="cls-16" d="M177.3,86.83l-5.76-8.62-5.67,8.62h-9L167,72.77,157.33,59h8.85l5.56,8,5.48-8h8.5L176,72.45l10.33,14.38Z"/><path class="cls-16" d="M195.11,85.52a14.15,14.15,0,0,1-5.52-5.16,14.23,14.23,0,0,1,5.52-20,17.79,17.79,0,0,1,15.84,0,14.21,14.21,0,0,1,0,25.18,17.79,17.79,0,0,1-15.84,0Zm11.73-5.64a7.07,7.07,0,0,0,2.7-2.8,9.11,9.11,0,0,0,0-8.3,7.14,7.14,0,0,0-2.7-2.8,7.83,7.83,0,0,0-7.62,0,7.14,7.14,0,0,0-2.7,2.8,9.19,9.19,0,0,0,0,8.3,7.07,7.07,0,0,0,2.7,2.8,7.83,7.83,0,0,0,7.62,0Z"/><path class="cls-16" d="M241.23,72.34h7V83.85a18.07,18.07,0,0,1-5.48,2.62,21.73,21.73,0,0,1-6.19.91,16.58,16.58,0,0,1-7.87-1.84,13.85,13.85,0,0,1-5.48-5.14,15.06,15.06,0,0,1,0-14.93,13.78,13.78,0,0,1,5.52-5.15,17,17,0,0,1,8-1.84,17.64,17.64,0,0,1,7,1.31,13.46,13.46,0,0,1,5.17,3.77l-5,4.53a8.81,8.81,0,0,0-6.75-3.1,7.46,7.46,0,0,0-7.94,7.94,8.39,8.39,0,0,0,1,4.11,7.11,7.11,0,0,0,2.78,2.82,8.11,8.11,0,0,0,4.09,1,10,10,0,0,0,4.25-.91Z"/><path class="cls-16" d="M265.33,79.44H261v7.39h-7.86V59h12.71a15.91,15.91,0,0,1,6.55,1.25,9.43,9.43,0,0,1,5.8,9,9.69,9.69,0,0,1-1.41,5.26,9.5,9.5,0,0,1-4,3.51l6,8.74h-8.41Zm3.74-13.14a5.42,5.42,0,0,0-3.66-1.07H261v8.14h4.37a5.53,5.53,0,0,0,3.66-1.05,4.3,4.3,0,0,0,0-6Z"/><path class="cls-16" d="M301.19,81.43H289.44l-2.19,5.4h-8L291.5,59h7.74l12.31,27.8h-8.18Zm-2.3-5.8-3.58-8.89-3.57,8.89Z"/><path class="cls-16" d="M338.87,86.83l-.08-14.73-7.15,12h-3.49L321,72.49V86.83h-7.26V59h6.47l9.77,16,9.53-16H346l.08,27.8Z"/><path class="cls-16" d="M370.28,81.43H358.53l-2.19,5.4h-8L360.59,59h7.74l12.31,27.8h-8.18Zm-2.3-5.8-3.58-8.89-3.57,8.89Z"/><path class="cls-16" d="M413.68,60.28a9.8,9.8,0,0,1,0,18,15.91,15.91,0,0,1-6.55,1.25h-4.85v7.27h-7.86V59h12.71A15.91,15.91,0,0,1,413.68,60.28Zm-3.37,12a4.3,4.3,0,0,0,0-6,5.42,5.42,0,0,0-3.66-1.07h-4.37v8.14h4.37A5.53,5.53,0,0,0,410.31,72.32Z"/><path class="cls-16" d="M442.31,81.43H430.56l-2.19,5.4h-8L432.62,59h7.74l12.31,27.8h-8.18Zm-2.3-5.8-3.58-8.89-3.57,8.89Z"/><path class="cls-16" d="M467.05,79.44h-4.29v7.39H454.9V59h12.7a15.88,15.88,0,0,1,6.55,1.25,10.11,10.11,0,0,1,4.39,14.3,9.5,9.5,0,0,1-4,3.51l6,8.74h-8.42Zm3.73-13.14a5.39,5.39,0,0,0-3.65-1.07h-4.37v8.14h4.37a5.5,5.5,0,0,0,3.65-1.05,4.3,4.3,0,0,0,0-6Z"/><path class="cls-16" d="M502.9,81.43H491.15L489,86.83h-8L493.21,59H501l12.31,27.8h-8.18Zm-2.3-5.8L497,66.74l-3.58,8.89Z"/><path class="cls-16" d="M545.67,81.43H533.91l-2.18,5.4h-8L536,59h7.74L556,86.83h-8.18Zm-2.3-5.8-3.58-8.89-3.57,8.89Z"/><path class="cls-16" d="M564.17,65.27h-8.54V59h24.9v6.24H572V86.83h-7.86Z"/><path class="cls-16" d="M605.79,80.75v6.08H583.47V59h21.8v6.08h-14v4.68H603.6v5.88H591.25v5.08Z"/><path class="cls-16" d="M636.6,59v27.8h-6.48L617.86,72V86.83h-7.71V59h6.47l12.27,14.81V59Z"/><path class="cls-16" d="M642.16,59H655.3a18.4,18.4,0,0,1,8.1,1.71,12.87,12.87,0,0,1,5.48,4.84,14.83,14.83,0,0,1,0,14.7,12.87,12.87,0,0,1-5.48,4.84,18.4,18.4,0,0,1-8.1,1.71H642.16ZM655,80.55a8,8,0,0,0,5.74-2,7.31,7.31,0,0,0,2.16-5.6,7.31,7.31,0,0,0-2.16-5.6,8,8,0,0,0-5.74-2h-5V80.55Z"/><path class="cls-16" d="M675,59h7.87v27.8H675Z"/><path class="cls-16" d="M713.51,86.83l-.08-14.73-7.14,12h-3.5l-7.11-11.6V86.83h-7.26V59h6.47l9.77,16,9.53-16h6.47l.08,27.8Z"/><path class="cls-16" d="M748.61,80.75v6.08H726.3V59h21.8v6.08h-14v4.68h12.35v5.88H734.08v5.08Z"/><path class="cls-16" d="M779.43,59v27.8H773L760.68,72V86.83H753V59h6.47l12.27,14.81V59Z"/><path class="cls-16" d="M790.9,65.27h-8.54V59h24.9v6.24h-8.5V86.83H790.9Z"/><path class="cls-16" d="M816.29,85.52a14.23,14.23,0,0,1,0-25.18,17.81,17.81,0,0,1,15.85,0,14.21,14.21,0,0,1,0,25.18,17.81,17.81,0,0,1-15.85,0ZM828,79.88a7.07,7.07,0,0,0,2.7-2.8,9.19,9.19,0,0,0,0-8.3A7.14,7.14,0,0,0,828,66a7.85,7.85,0,0,0-7.63,0,7.28,7.28,0,0,0-2.7,2.8,9.19,9.19,0,0,0,0,8.3,7.21,7.21,0,0,0,2.7,2.8,7.85,7.85,0,0,0,7.63,0Z"/><path class="cls-16" d="M855.35,59h13.14a18.4,18.4,0,0,1,8.1,1.71,12.87,12.87,0,0,1,5.48,4.84,14.89,14.89,0,0,1,0,14.7,12.87,12.87,0,0,1-5.48,4.84,18.4,18.4,0,0,1-8.1,1.71H855.35Zm12.82,21.52a8.06,8.06,0,0,0,5.74-2,7.31,7.31,0,0,0,2.16-5.6,7.31,7.31,0,0,0-2.16-5.6,8.06,8.06,0,0,0-5.74-2h-5V80.55Z"/><path class="cls-16" d="M910.46,80.75v6.08H888.14V59h21.8v6.08h-14v4.68h12.35v5.88H895.93v5.08Z"/><path class="cls-16" d="M932.4,85.54a13.8,13.8,0,0,1-5.46-5.14,15,15,0,0,1,0-14.93,13.75,13.75,0,0,1,5.46-5.15,16.44,16.44,0,0,1,7.84-1.84,16.85,16.85,0,0,1,6.87,1.35,13.14,13.14,0,0,1,5.08,3.89l-5,4.53A8.24,8.24,0,0,0,940.64,65a8.08,8.08,0,0,0-4,1,6.9,6.9,0,0,0-2.74,2.8,9.28,9.28,0,0,0,0,8.3,6.84,6.84,0,0,0,2.74,2.8,8.08,8.08,0,0,0,4,1,8.23,8.23,0,0,0,6.55-3.25l5,4.52A13.14,13.14,0,0,1,947.11,86a16.85,16.85,0,0,1-6.87,1.35A16.44,16.44,0,0,1,932.4,85.54Z"/><path class="cls-16" d="M974.31,81.43H962.56l-2.19,5.4h-8L964.62,59h7.74l12.31,27.8h-8.18Zm-2.3-5.8-3.58-8.89-3.57,8.89Z"/><path class="cls-16" d="M990.11,86.55A16.28,16.28,0,0,1,985,84.33l2.58-5.8a17.09,17.09,0,0,0,4.33,2,16.57,16.57,0,0,0,4.84.75q4.53,0,4.53-2.26a1.87,1.87,0,0,0-1.29-1.77A23.67,23.67,0,0,0,995.79,76a40.46,40.46,0,0,1-5.24-1.45,8.81,8.81,0,0,1-3.61-2.48,6.7,6.7,0,0,1-1.51-4.61,8,8,0,0,1,1.39-4.59A9.25,9.25,0,0,1,991,59.67a17,17,0,0,1,6.77-1.19,24,24,0,0,1,5.4.61,16.66,16.66,0,0,1,4.68,1.81l-2.42,5.84a16.21,16.21,0,0,0-7.7-2.15,6.4,6.4,0,0,0-3.42.7,2.08,2.08,0,0,0-1.07,1.8,1.78,1.78,0,0,0,1.27,1.67,22.52,22.52,0,0,0,4.09,1.15,39.1,39.1,0,0,1,5.26,1.45,9.17,9.17,0,0,1,3.61,2.46,6.59,6.59,0,0,1,1.53,4.59,7.8,7.8,0,0,1-1.39,4.53,9.34,9.34,0,0,1-4.17,3.23,16.8,16.8,0,0,1-6.75,1.21A25.51,25.51,0,0,1,990.11,86.55Z"/><path class="cls-16" d="M1018.68,85.52a14.22,14.22,0,0,1,0-25.18,17.79,17.79,0,0,1,15.84,0,14.21,14.21,0,0,1,0,25.18,17.79,17.79,0,0,1-15.84,0Zm11.73-5.64a7.16,7.16,0,0,0,2.71-2.8,9.19,9.19,0,0,0,0-8.3,7.23,7.23,0,0,0-2.71-2.8,7.83,7.83,0,0,0-7.62,0,7.14,7.14,0,0,0-2.7,2.8,9.19,9.19,0,0,0,0,8.3,7.07,7.07,0,0,0,2.7,2.8,7.83,7.83,0,0,0,7.62,0Z"/><path class="cls-16" d="M1049.4,86.55a16.45,16.45,0,0,1-5.17-2.22l2.58-5.8a17.09,17.09,0,0,0,4.33,2,16.59,16.59,0,0,0,4.85.75q4.52,0,4.52-2.26a1.87,1.87,0,0,0-1.29-1.77,23.67,23.67,0,0,0-4.15-1.21,40.92,40.92,0,0,1-5.24-1.45,8.81,8.81,0,0,1-3.61-2.48,6.7,6.7,0,0,1-1.51-4.61,8,8,0,0,1,1.39-4.59,9.3,9.3,0,0,1,4.15-3.23,17,17,0,0,1,6.77-1.19,23.85,23.85,0,0,1,5.4.61,16.66,16.66,0,0,1,4.68,1.81l-2.42,5.84a16.15,16.15,0,0,0-7.7-2.15,6.42,6.42,0,0,0-3.42.7,2.08,2.08,0,0,0-1.07,1.8,1.79,1.79,0,0,0,1.27,1.67,22.52,22.52,0,0,0,4.09,1.15,39.1,39.1,0,0,1,5.26,1.45,9.2,9.2,0,0,1,3.62,2.46,6.59,6.59,0,0,1,1.53,4.59,7.87,7.87,0,0,1-1.39,4.53,9.45,9.45,0,0,1-4.17,3.23,16.87,16.87,0,0,1-6.75,1.21A25.46,25.46,0,0,1,1049.4,86.55Z"/><path class="cls-16" d="M1086.64,86.55a16.28,16.28,0,0,1-5.16-2.22l2.58-5.8a16.93,16.93,0,0,0,4.33,2,16.52,16.52,0,0,0,4.84.75q4.53,0,4.53-2.26a1.87,1.87,0,0,0-1.29-1.77,23.94,23.94,0,0,0-4.15-1.21,40.46,40.46,0,0,1-5.24-1.45,8.84,8.84,0,0,1-3.62-2.48,6.75,6.75,0,0,1-1.51-4.61,8.06,8.06,0,0,1,1.39-4.59,9.3,9.3,0,0,1,4.15-3.23,17,17,0,0,1,6.77-1.19,23.85,23.85,0,0,1,5.4.61,16.61,16.61,0,0,1,4.69,1.81l-2.42,5.84a16.21,16.21,0,0,0-7.71-2.15,6.36,6.36,0,0,0-3.41.7,2.06,2.06,0,0,0-1.07,1.8,1.78,1.78,0,0,0,1.27,1.67,22.52,22.52,0,0,0,4.09,1.15,39.1,39.1,0,0,1,5.26,1.45,9.17,9.17,0,0,1,3.61,2.46,6.59,6.59,0,0,1,1.53,4.59,7.8,7.8,0,0,1-1.39,4.53,9.45,9.45,0,0,1-4.17,3.23,16.8,16.8,0,0,1-6.75,1.21A25.51,25.51,0,0,1,1086.64,86.55Z"/><path class="cls-16" d="M1112.31,84q-3.43-3.37-3.44-9.57V59h7.87V74.2q0,6.67,5.28,6.67t5.24-6.67V59H1135V74.44q0,6.19-3.43,9.57t-9.63,3.37Q1115.74,87.38,1112.31,84Z"/><path class="cls-16" d="M1143.54,86.55a16.28,16.28,0,0,1-5.16-2.22l2.58-5.8a16.93,16.93,0,0,0,4.33,2,16.52,16.52,0,0,0,4.84.75q4.53,0,4.53-2.26a1.87,1.87,0,0,0-1.29-1.77,23.94,23.94,0,0,0-4.15-1.21,40.46,40.46,0,0,1-5.24-1.45,8.84,8.84,0,0,1-3.62-2.48,6.75,6.75,0,0,1-1.5-4.61,8.05,8.05,0,0,1,1.38-4.59,9.3,9.3,0,0,1,4.15-3.23,17,17,0,0,1,6.77-1.19,23.85,23.85,0,0,1,5.4.61,16.61,16.61,0,0,1,4.69,1.81l-2.42,5.84a16.21,16.21,0,0,0-7.71-2.15,6.36,6.36,0,0,0-3.41.7,2.06,2.06,0,0,0-1.07,1.8,1.78,1.78,0,0,0,1.27,1.67,22.52,22.52,0,0,0,4.09,1.15,39.1,39.1,0,0,1,5.26,1.45,9.17,9.17,0,0,1,3.61,2.46,6.59,6.59,0,0,1,1.53,4.59,7.8,7.8,0,0,1-1.39,4.53,9.39,9.39,0,0,1-4.17,3.23,16.8,16.8,0,0,1-6.75,1.21A25.51,25.51,0,0,1,1143.54,86.55Z"/><path class="cls-16" d="M1185.27,60.28a9.8,9.8,0,0,1,0,18,15.88,15.88,0,0,1-6.55,1.25h-4.84v7.27H1166V59h12.71A15.88,15.88,0,0,1,1185.27,60.28Zm-3.37,12a4.3,4.3,0,0,0,0-6,5.4,5.4,0,0,0-3.66-1.07h-4.36v8.14h4.36A5.51,5.51,0,0,0,1181.9,72.32Z"/><path class="cls-16" d="M1217.6,80.75v6.08h-22.32V59h21.8v6.08h-14v4.68h12.35v5.88h-12.35v5.08Z"/><path class="cls-16" d="M1222,59h7.87v27.8H1222Z"/><path class="cls-16" d="M1241.34,65.27h-8.54V59h24.9v6.24h-8.5V86.83h-7.86Z"/><path class="cls-16" d="M1266.73,85.52a14.22,14.22,0,0,1,0-25.18,17.81,17.81,0,0,1,15.85,0,14.22,14.22,0,0,1,0,25.18,17.81,17.81,0,0,1-15.85,0Zm11.74-5.64a7.21,7.21,0,0,0,2.7-2.8,9.19,9.19,0,0,0,0-8.3,7.28,7.28,0,0,0-2.7-2.8,7.85,7.85,0,0,0-7.63,0,7.14,7.14,0,0,0-2.7,2.8,9.19,9.19,0,0,0,0,8.3,7.07,7.07,0,0,0,2.7,2.8,7.85,7.85,0,0,0,7.63,0Z"/><path class="cls-16" d="M1297.45,86.55a16.45,16.45,0,0,1-5.17-2.22l2.59-5.8a16.86,16.86,0,0,0,4.32,2,16.59,16.59,0,0,0,4.85.75c3,0,4.52-.75,4.52-2.26a1.87,1.87,0,0,0-1.29-1.77,23.67,23.67,0,0,0-4.15-1.21,40.92,40.92,0,0,1-5.24-1.45,8.87,8.87,0,0,1-3.61-2.48,6.7,6.7,0,0,1-1.51-4.61,8,8,0,0,1,1.39-4.59,9.3,9.3,0,0,1,4.15-3.23,17,17,0,0,1,6.77-1.19,23.85,23.85,0,0,1,5.4.61,16.73,16.73,0,0,1,4.69,1.81l-2.43,5.84a16.15,16.15,0,0,0-7.7-2.15,6.36,6.36,0,0,0-3.41.7,2.07,2.07,0,0,0-1.08,1.8,1.79,1.79,0,0,0,1.27,1.67,22.52,22.52,0,0,0,4.09,1.15,38.68,38.68,0,0,1,5.26,1.45,9.2,9.2,0,0,1,3.62,2.46,6.59,6.59,0,0,1,1.53,4.59,7.87,7.87,0,0,1-1.39,4.53,9.45,9.45,0,0,1-4.17,3.23,16.87,16.87,0,0,1-6.75,1.21A25.46,25.46,0,0,1,1297.45,86.55Z"/><path class="cls-16" d="M142.32,133.17A14.15,14.15,0,0,1,136.8,128a14.8,14.8,0,0,1,0-14.86,14.15,14.15,0,0,1,5.52-5.16,17.79,17.79,0,0,1,15.84,0,14.21,14.21,0,0,1,0,25.18,17.79,17.79,0,0,1-15.84,0Zm11.73-5.64a7.14,7.14,0,0,0,2.7-2.8,9.11,9.11,0,0,0,0-8.3,7.14,7.14,0,0,0-2.7-2.8,7.83,7.83,0,0,0-7.62,0,7.14,7.14,0,0,0-2.7,2.8,9.19,9.19,0,0,0,0,8.3,7.14,7.14,0,0,0,2.7,2.8,7.83,7.83,0,0,0,7.62,0Z"/><path class="cls-16" d="M173,131.66q-3.44-3.37-3.43-9.57V106.68h7.86v15.17q0,6.68,5.28,6.67c3.5,0,5.24-2.22,5.24-6.67V106.68h7.75v15.41q0,6.19-3.44,9.57T182.64,135Q176.45,135,173,131.66Z"/><path class="cls-16" d="M218.6,133.19a13.8,13.8,0,0,1-5.46-5.14,15,15,0,0,1,0-14.93A13.75,13.75,0,0,1,218.6,108a16.44,16.44,0,0,1,7.84-1.84,16.85,16.85,0,0,1,6.87,1.35,13.14,13.14,0,0,1,5.08,3.89l-5,4.52a8.23,8.23,0,0,0-6.55-3.25,8.08,8.08,0,0,0-4,1,6.9,6.9,0,0,0-2.74,2.8,9.28,9.28,0,0,0,0,8.3,6.9,6.9,0,0,0,2.74,2.8,8.08,8.08,0,0,0,4,1,8.23,8.23,0,0,0,6.55-3.25l5,4.52a13.14,13.14,0,0,1-5.08,3.89,16.85,16.85,0,0,1-6.87,1.35A16.44,16.44,0,0,1,218.6,133.19Z"/><path class="cls-16" d="M248,133.17a14.15,14.15,0,0,1-5.52-5.16,14.8,14.8,0,0,1,0-14.86A14.15,14.15,0,0,1,248,108a17.81,17.81,0,0,1,15.85,0,14.22,14.22,0,0,1,0,25.18,17.81,17.81,0,0,1-15.85,0Zm11.74-5.64a7.28,7.28,0,0,0,2.7-2.8,9.19,9.19,0,0,0,0-8.3,7.28,7.28,0,0,0-2.7-2.8,7.85,7.85,0,0,0-7.63,0,7.14,7.14,0,0,0-2.7,2.8,9.19,9.19,0,0,0,0,8.3,7.14,7.14,0,0,0,2.7,2.8,7.85,7.85,0,0,0,7.63,0Z"/><path class="cls-16" d="M301.92,106.68v27.8h-6.47l-12.27-14.81v14.81h-7.7v-27.8H282l12.27,14.81V106.68Z"/><path class="cls-16" d="M315.35,112.76v6.11h12.27V125H315.35v9.53h-7.87v-27.8h21.8v6.08Z"/><path class="cls-16" d="M333,106.68h7.86v27.8H333Z"/><path class="cls-16" d="M358.59,127.09H354.3v7.39h-7.86v-27.8h12.7a15.88,15.88,0,0,1,6.55,1.25,10.11,10.11,0,0,1,4.39,14.3,9.5,9.5,0,0,1-4,3.51l6,8.74h-8.42ZM362.32,114a5.39,5.39,0,0,0-3.65-1.07H354.3V121h4.37a5.45,5.45,0,0,0,3.65-1.06,3.72,3.72,0,0,0,1.23-3A3.78,3.78,0,0,0,362.32,114Z"/><path class="cls-16" d="M400.91,134.48l-.07-14.73-7.15,12h-3.5l-7.1-11.6v14.34h-7.27v-27.8h6.47l9.77,16,9.53-16h6.47l.08,27.8Z"/><path class="cls-16" d="M432.32,129.08H420.57l-2.18,5.4h-8l12.27-27.8h7.75l12.31,27.8h-8.18Zm-2.3-5.8-3.57-8.89-3.58,8.89Z"/><path class="cls-16" d="M444.91,106.68h13.14a18.34,18.34,0,0,1,8.1,1.71,12.81,12.81,0,0,1,5.48,4.84,14.83,14.83,0,0,1,0,14.7,12.81,12.81,0,0,1-5.48,4.84,18.34,18.34,0,0,1-8.1,1.71H444.91Zm12.83,21.52a8,8,0,0,0,5.73-2,8.31,8.31,0,0,0,0-11.2,8,8,0,0,0-5.73-2h-5V128.2Z"/><path class="cls-16" d="M483.8,133.17a14.21,14.21,0,0,1,0-25.18,17.81,17.81,0,0,1,15.85,0,14.21,14.21,0,0,1,0,25.18,17.81,17.81,0,0,1-15.85,0Zm11.74-5.64a7.14,7.14,0,0,0,2.7-2.8,9.19,9.19,0,0,0,0-8.3,7.14,7.14,0,0,0-2.7-2.8,7.85,7.85,0,0,0-7.63,0,7.14,7.14,0,0,0-2.7,2.8,9.19,9.19,0,0,0,0,8.3,7.14,7.14,0,0,0,2.7,2.8,7.85,7.85,0,0,0,7.63,0Z"/><path class="cls-16" d="M514.52,134.2a16.28,16.28,0,0,1-5.16-2.22l2.58-5.8a16.52,16.52,0,0,0,4.32,2,16.33,16.33,0,0,0,4.85.76c3,0,4.53-.76,4.53-2.26a1.88,1.88,0,0,0-1.29-1.77,24.22,24.22,0,0,0-4.15-1.21,40.66,40.66,0,0,1-5.25-1.45,9,9,0,0,1-3.61-2.48,6.7,6.7,0,0,1-1.51-4.61,8,8,0,0,1,1.39-4.59,9.3,9.3,0,0,1,4.15-3.23,17,17,0,0,1,6.77-1.19,23.85,23.85,0,0,1,5.4.61,16.31,16.31,0,0,1,4.69,1.81l-2.43,5.84a16.15,16.15,0,0,0-7.7-2.15,6.36,6.36,0,0,0-3.41.7,2.06,2.06,0,0,0-1.07,1.8,1.79,1.79,0,0,0,1.27,1.67,22.27,22.27,0,0,0,4.09,1.15,39.52,39.52,0,0,1,5.26,1.45,9.17,9.17,0,0,1,3.61,2.46,6.59,6.59,0,0,1,1.53,4.59,7.87,7.87,0,0,1-1.39,4.53,9.45,9.45,0,0,1-4.17,3.23,16.8,16.8,0,0,1-6.75,1.21A25.46,25.46,0,0,1,514.52,134.2Z"/><path class="cls-16" d="M548.55,106.68h13.14a18.4,18.4,0,0,1,8.1,1.71,12.87,12.87,0,0,1,5.48,4.84,14.83,14.83,0,0,1,0,14.7,12.87,12.87,0,0,1-5.48,4.84,18.4,18.4,0,0,1-8.1,1.71H548.55Zm12.82,21.52a8.06,8.06,0,0,0,5.74-2,8.34,8.34,0,0,0,0-11.2,8.06,8.06,0,0,0-5.74-2h-5V128.2Z"/><path class="cls-16" d="M603.66,128.4v6.08H581.34v-27.8h21.8v6.08h-14v4.68h12.35v5.88H589.13v5.08Z"/><path class="cls-16" d="M625.6,133.19a13.8,13.8,0,0,1-5.46-5.14,15,15,0,0,1,0-14.93A13.75,13.75,0,0,1,625.6,108a16.44,16.44,0,0,1,7.84-1.84,16.85,16.85,0,0,1,6.87,1.35,13.14,13.14,0,0,1,5.08,3.89l-5,4.52a8.23,8.23,0,0,0-6.55-3.25,8.08,8.08,0,0,0-4,1,6.84,6.84,0,0,0-2.74,2.8,9.28,9.28,0,0,0,0,8.3,6.84,6.84,0,0,0,2.74,2.8,8.08,8.08,0,0,0,4,1,8.23,8.23,0,0,0,6.55-3.25l5,4.52a13.14,13.14,0,0,1-5.08,3.89,16.85,16.85,0,0,1-6.87,1.35A16.44,16.44,0,0,1,625.6,133.19Z"/><path class="cls-16" d="M655,133.17a14.15,14.15,0,0,1-5.52-5.16,14.8,14.8,0,0,1,0-14.86A14.15,14.15,0,0,1,655,108a17.79,17.79,0,0,1,15.84,0,14.21,14.21,0,0,1,0,25.18,17.79,17.79,0,0,1-15.84,0Zm11.73-5.64a7.23,7.23,0,0,0,2.71-2.8,9.19,9.19,0,0,0,0-8.3,7.23,7.23,0,0,0-2.71-2.8,7.83,7.83,0,0,0-7.62,0,7.14,7.14,0,0,0-2.7,2.8,9.19,9.19,0,0,0,0,8.3,7.14,7.14,0,0,0,2.7,2.8,7.83,7.83,0,0,0,7.62,0Z"/><path class="cls-16" d="M710.67,106.68l-11.91,27.8H691l-11.88-27.8h8.5l7.55,18.11,7.7-18.11Z"/><path class="cls-16" d="M712.89,106.68h7.87v27.8h-7.87Z"/><path class="cls-16" d="M726.36,106.68H739.5a18.4,18.4,0,0,1,8.1,1.71,12.92,12.92,0,0,1,5.48,4.84,14.89,14.89,0,0,1,0,14.7,12.92,12.92,0,0,1-5.48,4.84,18.4,18.4,0,0,1-8.1,1.71H726.36Zm12.82,21.52a8.06,8.06,0,0,0,5.74-2,8.34,8.34,0,0,0,0-11.2,8.06,8.06,0,0,0-5.74-2h-5V128.2Z"/><path class="cls-16" d="M758.28,120.26h11.59v5.8H758.28Z"/><path class="cls-16" d="M785,106.68v27.8h-7.86V112.76H772v-6.08Z"/><path class="cls-16" d="M808.83,109.66q3.45,3.54,3.45,10.17a17.12,17.12,0,0,1-1.84,8.2,12.49,12.49,0,0,1-5.21,5.22,16.25,16.25,0,0,1-7.76,1.78,18.35,18.35,0,0,1-4.49-.53,12.72,12.72,0,0,1-3.65-1.49l2.86-5.64a8.69,8.69,0,0,0,5.12,1.43,7,7,0,0,0,4.83-1.65,7.08,7.08,0,0,0,2.16-4.78,9.3,9.3,0,0,1-6.23,2,10.59,10.59,0,0,1-4.81-1.09,8.67,8.67,0,0,1-3.47-3.1,8.26,8.26,0,0,1-1.29-4.58,8.75,8.75,0,0,1,1.45-5,9.43,9.43,0,0,1,3.93-3.33,12.7,12.7,0,0,1,5.5-1.17Q805.37,106.13,808.83,109.66Zm-6.12,8.12a3.57,3.57,0,0,0,0-5.08,4,4,0,0,0-2.84-1,3.87,3.87,0,0,0-2.72,1,3.3,3.3,0,0,0-1,2.58,3.25,3.25,0,0,0,1,2.54,4.48,4.48,0,0,0,5.54,0Z"/><path class="cls-16" d="M854.41,106.68v27.8h-6.47l-12.27-14.81v14.81H828v-27.8h6.48l12.27,14.81V106.68Z"/><path class="cls-16" d="M878.59,129.08H866.84l-2.18,5.4h-8l12.27-27.8h7.75L889,134.48h-8.18Zm-2.3-5.8-3.57-8.89-3.58,8.89Z"/><path class="cls-16" d="M906,134.2a16.28,16.28,0,0,1-5.16-2.22l2.58-5.8a16.59,16.59,0,0,0,4.33,2,16.22,16.22,0,0,0,4.84.76c3,0,4.53-.76,4.53-2.26a1.87,1.87,0,0,0-1.29-1.77,23.94,23.94,0,0,0-4.15-1.21,40.46,40.46,0,0,1-5.24-1.45,8.94,8.94,0,0,1-3.62-2.48,6.75,6.75,0,0,1-1.51-4.61,8.06,8.06,0,0,1,1.39-4.59,9.3,9.3,0,0,1,4.15-3.23,17,17,0,0,1,6.77-1.19,23.85,23.85,0,0,1,5.4.61,16.31,16.31,0,0,1,4.69,1.81l-2.42,5.84a16.21,16.21,0,0,0-7.71-2.15,6.36,6.36,0,0,0-3.41.7,2.06,2.06,0,0,0-1.07,1.8,1.79,1.79,0,0,0,1.27,1.67,22.27,22.27,0,0,0,4.09,1.15,39.1,39.1,0,0,1,5.26,1.45,9.17,9.17,0,0,1,3.61,2.46,6.59,6.59,0,0,1,1.53,4.59,7.8,7.8,0,0,1-1.39,4.53,9.45,9.45,0,0,1-4.17,3.23A16.8,16.8,0,0,1,912.5,135,25.51,25.51,0,0,1,906,134.2Z"/><path class="cls-16" d="M947.05,129.08H935.29l-2.18,5.4h-8l12.27-27.8h7.74l12.31,27.8h-8.18Zm-2.31-5.8-3.57-8.89-3.57,8.89Z"/><path class="cls-16" d="M962.83,131.66q-3.44-3.37-3.43-9.57V106.68h7.86v15.17q0,6.68,5.28,6.67t5.24-6.67V106.68h7.74v15.41q0,6.19-3.43,9.57T972.46,135Q966.27,135,962.83,131.66ZM974,98.38h7.54l-7.46,6h-5.4Z"/><path class="cls-16" d="M990.84,106.68H1004a18.4,18.4,0,0,1,8.1,1.71,12.92,12.92,0,0,1,5.48,4.84,14.89,14.89,0,0,1,0,14.7,12.92,12.92,0,0,1-5.48,4.84,18.4,18.4,0,0,1-8.1,1.71H990.84Zm12.83,21.52a8.08,8.08,0,0,0,5.74-2,8.34,8.34,0,0,0,0-11.2,8.08,8.08,0,0,0-5.74-2h-5V128.2Z"/><path class="cls-16" d="M1046,128.4v6.08h-22.32v-27.8h21.8v6.08h-14v4.68h12.34v5.88h-12.34v5.08Z"/><path class="cls-16" d="M1061.88,106.68h7.86v27.8h-7.86Z"/><path class="cls-16" d="M1101.79,106.68v27.8h-6.48L1083,119.67v14.81h-7.7v-27.8h6.47l12.27,14.81V106.68Z"/><path class="cls-16" d="M1107.35,106.68h13.14a18.4,18.4,0,0,1,8.1,1.71,12.87,12.87,0,0,1,5.48,4.84,14.89,14.89,0,0,1,0,14.7,12.87,12.87,0,0,1-5.48,4.84,18.4,18.4,0,0,1-8.1,1.71h-13.14Zm12.82,21.52a8.06,8.06,0,0,0,5.74-2,8.34,8.34,0,0,0,0-11.2,8.06,8.06,0,0,0-5.74-2h-5V128.2Z"/><path class="cls-16" d="M1140.14,106.68H1148v27.8h-7.87Zm5.36-8.3h7.55l-7.47,6h-5.4Z"/><path class="cls-16" d="M1172.23,120h7V131.5a18.18,18.18,0,0,1-5.48,2.62,21.8,21.8,0,0,1-6.2.91,16.57,16.57,0,0,1-7.86-1.84,13.79,13.79,0,0,1-5.48-5.14,15,15,0,0,1,0-14.93,13.66,13.66,0,0,1,5.52-5.15,17,17,0,0,1,8-1.84,17.7,17.7,0,0,1,7,1.31,13.42,13.42,0,0,1,5.16,3.77l-5,4.53a8.81,8.81,0,0,0-6.75-3.1,7.85,7.85,0,0,0-5.76,2.16,7.77,7.77,0,0,0-2.18,5.78,8.39,8.39,0,0,0,1,4.11,7.18,7.18,0,0,0,2.78,2.82,8.19,8.19,0,0,0,4.09,1,10,10,0,0,0,4.25-.91Z"/><path class="cls-16" d="M1206.49,128.4v6.08h-22.31v-27.8H1206v6.08h-14v4.68h12.35v5.88H1192v5.08Z"/><path class="cls-16" d="M1237.31,106.68v27.8h-6.47l-12.27-14.81v14.81h-7.71v-27.8h6.47l12.27,14.81V106.68Z"/><path class="cls-16" d="M1261.49,129.08h-11.75l-2.19,5.4h-8l12.27-27.8h7.74l12.31,27.8h-8.18Zm-2.3-5.8-3.58-8.89-3.57,8.89Z"/><polyline class="cls-2" points="335.53 419.04 335.53 384 1024.67 384 1024.67 425.17"/><line class="cls-2" x1="680.27" y1="384.82" x2="680.27" y2="342.96"/><rect class="cls-16" x="424.94" y="250.25" width="510.67" height="91.6" rx="25.07"/><text class="cls-17" transform="translate(646.39 288.75)">CASO <tspan x="-109.02" y="26">SUSPEITO/CONTATO/SG</tspan></text><rect class="cls-16" x="174.02" y="419.69" width="319.19" height="172.09" rx="21.43"/><rect class="cls-16" x="859.64" y="427.37" width="326.43" height="172.09" rx="21.43"/><rect class="cls-16" x="26.53" y="673.38" width="291.25" height="172.09" rx="21.43"/><rect class="cls-16" x="784.02" y="676.43" width="577.55" height="201.15" rx="25.07"/><rect class="cls-16" x="359.45" y="678.3" width="383.97" height="329.9" rx="25.07"/><line class="cls-2" x1="1034.28" y1="676.27" x2="1034.8" y2="599.81"/><polyline class="cls-2" points="169.88 672.91 169.88 637.87 560.15 637.87 560.15 679.04"/><line class="cls-2" x1="333.96" y1="635.32" x2="333.96" y2="593.46"/><rect class="cls-16" x="35.45" y="1172.59" width="421.69" height="91.6" rx="25.07"/><line class="cls-2" x1="262.94" y1="1147.9" x2="180.64" y2="840.44"/><polygon class="cls-18" points="269.82 1139.91 269.81 1173.58 252.98 1144.42 269.82 1139.91"/><rect class="cls-16" x="641.2" y="1172.59" width="368.78" height="91.6" rx="25.07"/><rect class="cls-16" x="1020.31" y="1172.06" width="368.78" height="91.6" rx="25.07"/><text class="cls-17" transform="translate(244.2 476.8)">DIFICULDADE<tspan x="-9.65" y="26">RESPIRATÓRIA/</tspan><tspan x="8.99" y="52">SATURAÇÃO</tspan><tspan x="-19.37" y="78">MENOR QUE 95%</tspan></text><text class="cls-17" transform="translate(905.86 482.56)">SEM DIFICULDADE<tspan x="20.17" y="26">RESPIRATÓRIA/</tspan><tspan x="38.81" y="52">SATURAÇÃO</tspan><tspan x="15.66" y="78">MAIOR QUE 95%</tspan></text><text class="cls-17" transform="translate(44.6 738.7)">PACIENTE DE GRUPO <tspan x="20.72" y="26">DE RISCO OU MAU</tspan><tspan x="39.61" y="52">ESTADO GERAL</tspan></text><path class="cls-19" d="M390.19,723.26h6.38v2h-6.38Z"/><path class="cls-19" d="M409.72,729.84a8.15,8.15,0,0,1-3.15-3,8.94,8.94,0,0,1,0-8.7,8.11,8.11,0,0,1,3.16-3,9.25,9.25,0,0,1,4.5-1.1,9.48,9.48,0,0,1,3.56.65,7.25,7.25,0,0,1,2.75,1.94L419,718a6.2,6.2,0,0,0-4.67-2,6.85,6.85,0,0,0-3.35.83,6,6,0,0,0-2.33,2.29,6.75,6.75,0,0,0,0,6.52A6,6,0,0,0,411,728a6.85,6.85,0,0,0,3.35.83,6.23,6.23,0,0,0,4.67-2l1.54,1.49a7.4,7.4,0,0,1-2.76,1.94,9.77,9.77,0,0,1-8.06-.43Z"/><path class="cls-19" d="M426.9,729.84a8.16,8.16,0,0,1-3.17-3.05,8.76,8.76,0,0,1,0-8.68,8.16,8.16,0,0,1,3.17-3.05,9.82,9.82,0,0,1,9,0,8.08,8.08,0,0,1,3.15,3,8.87,8.87,0,0,1,0,8.7,8.08,8.08,0,0,1-3.15,3,9.82,9.82,0,0,1-9,0Zm7.81-1.84a6.09,6.09,0,0,0,2.3-2.29,6.75,6.75,0,0,0,0-6.52,6.09,6.09,0,0,0-2.3-2.29,6.56,6.56,0,0,0-3.29-.83,6.66,6.66,0,0,0-3.3.83,6,6,0,0,0-2.33,2.29,6.75,6.75,0,0,0,0,6.52,6,6,0,0,0,2.33,2.29,6.66,6.66,0,0,0,3.3.83A6.56,6.56,0,0,0,434.71,728Z"/><path class="cls-19" d="M443.85,714.15h2.37v14.54h9v2.06H443.85Z"/><path class="cls-19" d="M460.9,729.84a8.23,8.23,0,0,1-3.17-3.05,8.76,8.76,0,0,1,0-8.68,8.23,8.23,0,0,1,3.17-3.05,9.82,9.82,0,0,1,9,0,8.11,8.11,0,0,1,3.16,3,8.87,8.87,0,0,1,0,8.7,8.11,8.11,0,0,1-3.16,3,9.82,9.82,0,0,1-9,0Zm7.81-1.84a6.09,6.09,0,0,0,2.3-2.29,6.75,6.75,0,0,0,0-6.52,6.09,6.09,0,0,0-2.3-2.29,6.53,6.53,0,0,0-3.28-.83,6.69,6.69,0,0,0-3.31.83,6,6,0,0,0-2.32,2.29,6.68,6.68,0,0,0,0,6.52,6,6,0,0,0,2.32,2.29,6.69,6.69,0,0,0,3.31.83A6.53,6.53,0,0,0,468.71,728Z"/><path class="cls-19" d="M480.78,729.84a8.19,8.19,0,0,1-3.14-3,8.87,8.87,0,0,1,0-8.7,8.15,8.15,0,0,1,3.15-3,9.32,9.32,0,0,1,4.51-1.1,9.52,9.52,0,0,1,3.56.65,7.33,7.33,0,0,1,2.75,1.94L490.07,718a6.21,6.21,0,0,0-4.68-2,6.81,6.81,0,0,0-3.34.83,6,6,0,0,0-2.33,2.29,6.68,6.68,0,0,0,0,6.52,6,6,0,0,0,2.33,2.29,6.81,6.81,0,0,0,3.34.83,6.25,6.25,0,0,0,4.68-2l1.54,1.49a7.36,7.36,0,0,1-2.77,1.94,9.77,9.77,0,0,1-8.06-.43Z"/><path class="cls-19" d="M505.57,726.6h-8.82l-1.82,4.15h-2.45l7.52-16.6h2.35l7.54,16.6H507.4Zm-.83-1.9-3.58-8.13-3.58,8.13Z"/><path class="cls-19" d="M523.45,730.75l-3.58-5.1c-.44,0-.79.05-1,.05h-4.1v5h-2.37v-16.6h6.47a7.66,7.66,0,0,1,5.07,1.54,5.21,5.21,0,0,1,1.85,4.25,5.49,5.49,0,0,1-1,3.27,5.34,5.34,0,0,1-2.7,2l3.94,5.57Zm-1.25-8a3.84,3.84,0,0,0,0-5.54,5.36,5.36,0,0,0-3.44-1h-4v7.47h4A5.3,5.3,0,0,0,522.2,722.71Z"/><path class="cls-19" d="M550.25,714.15v16.6h-2l-10-12.38v12.38H536v-16.6h1.95l10,12.38V714.15Z"/><path class="cls-19" d="M558.19,729.84a8.13,8.13,0,0,1-3.16-3.05,8.76,8.76,0,0,1,0-8.68,8.13,8.13,0,0,1,3.16-3.05,9.84,9.84,0,0,1,9,0,8.15,8.15,0,0,1,3.15,3,8.87,8.87,0,0,1,0,8.7,8.15,8.15,0,0,1-3.15,3,9.84,9.84,0,0,1-9,0ZM566,728a6.12,6.12,0,0,0,2.31-2.29,6.75,6.75,0,0,0,0-6.52A6.12,6.12,0,0,0,566,716.9a6.53,6.53,0,0,0-3.28-.83,6.69,6.69,0,0,0-3.31.83,6,6,0,0,0-2.32,2.29,6.75,6.75,0,0,0,0,6.52,6,6,0,0,0,2.32,2.29,6.69,6.69,0,0,0,3.31.83A6.53,6.53,0,0,0,566,728Z"/><path class="cls-19" d="M584.49,729.84a8.23,8.23,0,0,1-3.17-3.05,8.76,8.76,0,0,1,0-8.68,8.23,8.23,0,0,1,3.17-3.05,9.82,9.82,0,0,1,9,0,8.11,8.11,0,0,1,3.16,3,8.87,8.87,0,0,1,0,8.7,8.11,8.11,0,0,1-3.16,3,9.82,9.82,0,0,1-9,0ZM592.3,728a6.09,6.09,0,0,0,2.3-2.29,6.75,6.75,0,0,0,0-6.52,6.09,6.09,0,0,0-2.3-2.29,6.53,6.53,0,0,0-3.28-.83,6.69,6.69,0,0,0-3.31.83,6,6,0,0,0-2.32,2.29,6.68,6.68,0,0,0,0,6.52,6,6,0,0,0,2.32,2.29,6.69,6.69,0,0,0,3.31.83A6.53,6.53,0,0,0,592.3,728Z"/><path class="cls-19" d="M611.76,728.69v2.06H599.83v-1.61l6.76-6.52a8.2,8.2,0,0,0,1.66-2.06,3.92,3.92,0,0,0,.43-1.74,2.46,2.46,0,0,0-.92-2,4.15,4.15,0,0,0-2.62-.72,5.19,5.19,0,0,0-4.24,1.8l-1.61-1.4a6.47,6.47,0,0,1,2.54-1.85,9.1,9.1,0,0,1,3.53-.66,6.44,6.44,0,0,1,4.15,1.25,4.12,4.12,0,0,1,1.54,3.37,5.74,5.74,0,0,1-.57,2.52,10,10,0,0,1-2.16,2.7l-5.07,4.89Z"/><path class="cls-19" d="M391.83,756.33a23.61,23.61,0,0,1-.74-6.08,23.94,23.94,0,0,1,.74-6.1,17.17,17.17,0,0,1,2.08-5h2.16a20.22,20.22,0,0,0-2.09,5.22,26.52,26.52,0,0,0,0,11.76,20.22,20.22,0,0,0,2.09,5.22h-2.16A17.9,17.9,0,0,1,391.83,756.33Z"/><path class="cls-19" d="M399.32,740.15h2.37v16.6h-2.37Z"/><path class="cls-19" d="M420.94,740.15v16.6H419l-10-12.38v12.38h-2.37v-16.6h1.94l10,12.38V740.15Z"/><path class="cls-19" d="M425.92,740.15h2.38v16.6h-2.38Z"/><path class="cls-19" d="M436.2,755.84a8.19,8.19,0,0,1-3.14-3,8.87,8.87,0,0,1,0-8.7,8.15,8.15,0,0,1,3.15-3,9.32,9.32,0,0,1,4.51-1.1,9.52,9.52,0,0,1,3.56.65,7.33,7.33,0,0,1,2.75,1.94L445.49,744a6.21,6.21,0,0,0-4.68-2,6.81,6.81,0,0,0-3.34.83,6,6,0,0,0-2.33,2.29,6.68,6.68,0,0,0,0,6.52,6,6,0,0,0,2.33,2.29,6.81,6.81,0,0,0,3.34.83,6.25,6.25,0,0,0,4.68-2l1.54,1.49a7.4,7.4,0,0,1-2.76,1.94,9.79,9.79,0,0,1-8.07-.43Z"/><path class="cls-19" d="M450.42,740.15h2.37v16.6h-2.37Z"/><path class="cls-19" d="M468.35,752.6h-8.83l-1.82,4.15h-2.44l7.51-16.6h2.35l7.54,16.6h-2.49Zm-.83-1.9-3.59-8.13-3.58,8.13Z"/><path class="cls-19" d="M475.13,740.15h2.37v14.54h9v2.06H475.13Z"/><path class="cls-19" d="M504.6,756.75l0-12.09-6,10.07h-1.09l-6-10v12h-2.28v-16.6h2l6.92,11.67,6.83-11.67h1.94l0,16.6Z"/><path class="cls-19" d="M523.9,754.69v2.06h-12v-16.6h11.71v2.06h-9.34v5.1h8.32v2h-8.32v5.36Z"/><path class="cls-19" d="M542,740.15v16.6h-1.94l-10-12.38v12.38h-2.38v-16.6h2l10,12.38V740.15Z"/><path class="cls-19" d="M550.3,742.21h-5.7v-2.06h13.73v2.06h-5.69v14.54H550.3Z"/><path class="cls-19" d="M573,754.69v2.06h-12v-16.6h11.71v2.06h-9.34v5.1h8.32v2h-8.32v5.36Z"/><path class="cls-19" d="M591.91,748.63a4.35,4.35,0,0,1,1.28,3.23,4.68,4.68,0,0,1-2.83,4.4,8,8,0,0,1-3.45.68,11.12,11.12,0,0,1-3.42-.53,7.28,7.28,0,0,1-2.68-1.49l1.09-1.87a6.17,6.17,0,0,0,2.19,1.29,8,8,0,0,0,2.82.49,4.69,4.69,0,0,0,2.88-.78,2.56,2.56,0,0,0,1-2.16,2.52,2.52,0,0,0-1-2.14,5.2,5.2,0,0,0-3.08-.75h-1.33v-1.66l4.17-5.13h-8v-2.06h11v1.61l-4.34,5.36A5.89,5.89,0,0,1,591.91,748.63Z"/><path class="cls-19" d="M596.75,740.15h2.37v14.54h9v2.06H596.75Z"/><path class="cls-19" d="M615.5,736.78h2.07l-7.83,22.34h-2.06Z"/><path class="cls-19" d="M634.57,756.75l0-12.09-6,10.07h-1.09l-6-10v12h-2.28v-16.6h1.94l6.93,11.67,6.83-11.67h1.94l0,16.6Z"/><path class="cls-19" d="M641.83,740.15h2.37v16.6h-2.37Z"/><path class="cls-19" d="M663.45,740.15v16.6h-1.94l-10-12.38v12.38h-2.37v-16.6h1.94l10,12.38V740.15Z"/><path class="cls-19" d="M666.7,761.35a20.25,20.25,0,0,0,2.1-5.22,26.14,26.14,0,0,0,0-11.76,20.25,20.25,0,0,0-2.1-5.22h2.16a17.31,17.31,0,0,1,2.11,5,25.93,25.93,0,0,1,0,12.22,17.56,17.56,0,0,1-2.11,5Z"/><path class="cls-19" d="M390.19,790.26h6.38v2h-6.38Z"/><path class="cls-19" d="M406.79,781.15h7a10.16,10.16,0,0,1,4.67,1,7.75,7.75,0,0,1,3.17,2.93,8.86,8.86,0,0,1,0,8.66,7.75,7.75,0,0,1-3.17,2.93,10.16,10.16,0,0,1-4.67,1h-7Zm6.85,14.54a7.61,7.61,0,0,0,3.55-.79,5.6,5.6,0,0,0,2.35-2.19,6.82,6.82,0,0,0,0-6.52,5.6,5.6,0,0,0-2.35-2.19,7.61,7.61,0,0,0-3.55-.79h-4.48v12.48Z"/><path class="cls-19" d="M438.42,795.69v2.06H426.37v-16.6h11.72v2.06h-9.34v5.1h8.32v2h-8.32v5.36Z"/><path class="cls-19" d="M452.7,797.75l-5-6.85-4.91,6.85h-2.73l6.24-8.51-5.86-8.09h2.7l4.65,6.38,4.6-6.38H455l-5.86,8,6.28,8.58Z"/><path class="cls-19" d="M468.8,793.6H460l-1.82,4.15h-2.44l7.51-16.6h2.35l7.54,16.6h-2.49Zm-.83-1.9-3.58-8.13-3.59,8.13Z"/><path class="cls-19" d="M491,797.75l0-12.09-6,10.07h-1.09l-6-10v12h-2.27v-16.6h1.94l6.93,11.67,6.83-11.67h1.94l0,16.6Z"/><path class="cls-19" d="M510.27,795.69v2.06h-12v-16.6h11.72v2.06h-9.35v5.1h8.33v2h-8.33v5.36Z"/><path class="cls-19" d="M517.41,783.21h-5.69v-2.06h13.73v2.06h-5.7v14.54h-2.34Z"/><path class="cls-19" d="M538.61,793.6h-8.83L528,797.75h-2.44l7.51-16.6h2.35l7.54,16.6h-2.49Zm-.83-1.9-3.59-8.13-3.58,8.13Z"/><path class="cls-19" d="M546.61,797.36a7.41,7.41,0,0,1-2.74-1.51l.88-1.85a7.28,7.28,0,0,0,2.43,1.39,8.77,8.77,0,0,0,3,.53,5.47,5.47,0,0,0,3.09-.7,2.14,2.14,0,0,0,1-1.86,1.85,1.85,0,0,0-.56-1.39,3.76,3.76,0,0,0-1.38-.81,22.28,22.28,0,0,0-2.31-.64,23.88,23.88,0,0,1-3-.9,5.06,5.06,0,0,1-2-1.39,3.7,3.7,0,0,1-.82-2.53,4.32,4.32,0,0,1,.7-2.39,4.9,4.9,0,0,1,2.12-1.71,8.59,8.59,0,0,1,3.54-.64,11.3,11.3,0,0,1,2.89.38,7.7,7.7,0,0,1,2.44,1.09l-.78,1.9a8.79,8.79,0,0,0-2.23-1,8.25,8.25,0,0,0-2.32-.34,5.15,5.15,0,0,0-3,.73,2.25,2.25,0,0,0-1,1.9,1.85,1.85,0,0,0,.56,1.39,4,4,0,0,0,1.42.83c.56.19,1.32.4,2.28.62a25.1,25.1,0,0,1,3,.9,5.15,5.15,0,0,1,2,1.38,3.61,3.61,0,0,1,.82,2.49,4.26,4.26,0,0,1-.71,2.38,4.83,4.83,0,0,1-2.16,1.71,8.9,8.9,0,0,1-3.56.63A11.28,11.28,0,0,1,546.61,797.36Z"/><path class="cls-19" d="M563.08,796.84a8.16,8.16,0,0,1-3.17-3.05,8.76,8.76,0,0,1,0-8.68,8.16,8.16,0,0,1,3.17-3.05,9.82,9.82,0,0,1,9,0,8.08,8.08,0,0,1,3.15,3,8.87,8.87,0,0,1,0,8.7,8.08,8.08,0,0,1-3.15,3,9.82,9.82,0,0,1-9,0Zm7.81-1.84a6.09,6.09,0,0,0,2.3-2.29,6.75,6.75,0,0,0,0-6.52,6.09,6.09,0,0,0-2.3-2.29,6.55,6.55,0,0,0-3.28-.83,6.69,6.69,0,0,0-3.31.83,6,6,0,0,0-2.33,2.29,6.75,6.75,0,0,0,0,6.52A6,6,0,0,0,564.3,795a6.69,6.69,0,0,0,3.31.83A6.55,6.55,0,0,0,570.89,795Z"/><path class="cls-19" d="M594.31,781.15v16.6h-1.95l-10-12.38v12.38H580v-16.6H582l10,12.38V781.15Z"/><path class="cls-19" d="M609.86,793.6H601l-1.83,4.15h-2.44l7.52-16.6h2.35l7.54,16.6h-2.49Zm-.83-1.9-3.58-8.13-3.58,8.13Z"/><path class="cls-19" d="M631.76,788.29a5,5,0,0,1,2,7.16,5.18,5.18,0,0,1-2.11,1.84,6.81,6.81,0,0,1-3,.65,6.36,6.36,0,0,1-5.16-2.16,9.25,9.25,0,0,1-1.81-6.12,10.53,10.53,0,0,1,1-4.73,6.89,6.89,0,0,1,2.76-3,8.13,8.13,0,0,1,4.11-1,9.84,9.84,0,0,1,2.28.25,6.73,6.73,0,0,1,1.85.72l-.91,1.85a5.7,5.7,0,0,0-3.17-.78,5.22,5.22,0,0,0-4.06,1.6,6.66,6.66,0,0,0-1.47,4.66,4.47,4.47,0,0,0,0,.59,4.45,4.45,0,0,1,1.95-1.62,6.84,6.84,0,0,1,2.81-.56A6.74,6.74,0,0,1,631.76,788.29Zm-.56,6.85a2.94,2.94,0,0,0,1-2.35,2.86,2.86,0,0,0-1-2.33,4.15,4.15,0,0,0-2.76-.87,4.37,4.37,0,0,0-2,.43,3.27,3.27,0,0,0-1.35,1.16,3,3,0,0,0,0,3.24,3.29,3.29,0,0,0,1.35,1.16,4.82,4.82,0,0,0,2.13.44A3.89,3.89,0,0,0,631.2,795.14Z"/><path class="cls-19" d="M653,797.75l0-12.09-6,10.07h-1.09l-6-10v12h-2.28v-16.6h2l6.92,11.67,6.83-11.67h1.94l0,16.6Z"/><path class="cls-19" d="M671.8,789.35h2.27v6.48a8.65,8.65,0,0,1-2.87,1.56,10.5,10.5,0,0,1-3.41.55,9.32,9.32,0,0,1-4.53-1.1,8.18,8.18,0,0,1-3.16-3,8.82,8.82,0,0,1,0-8.71,8,8,0,0,1,3.17-3,9.47,9.47,0,0,1,4.57-1.09,9.67,9.67,0,0,1,3.61.65,7.4,7.4,0,0,1,2.77,1.91L672.75,785a6.7,6.7,0,0,0-4.82-1.92,7,7,0,0,0-3.4.82,6,6,0,0,0-2.36,2.28,6.71,6.71,0,0,0,0,6.54,6.11,6.11,0,0,0,2.36,2.29,6.91,6.91,0,0,0,3.38.83,7.07,7.07,0,0,0,3.89-1.07Z"/><path class="cls-19" d="M683.27,777.78h2.07l-7.83,22.34h-2.06Z"/><path class="cls-19" d="M687,781.15h7a10.19,10.19,0,0,1,4.67,1,7.72,7.72,0,0,1,3.16,2.93,8.86,8.86,0,0,1,0,8.66,7.72,7.72,0,0,1-3.16,2.93,10.19,10.19,0,0,1-4.67,1h-7Zm6.85,14.54a7.58,7.58,0,0,0,3.55-.79,5.68,5.68,0,0,0,2.36-2.19,6.82,6.82,0,0,0,0-6.52,5.68,5.68,0,0,0-2.36-2.19,7.58,7.58,0,0,0-3.55-.79h-4.48v12.48Z"/><path class="cls-19" d="M706.54,781.15h2.37v16.6h-2.37Z"/><path class="cls-19" d="M724.46,793.6h-8.82l-1.82,4.15h-2.45l7.52-16.6h2.35l7.54,16.6h-2.49Zm-.83-1.9-3.58-8.13-3.58,8.13Z"/><path class="cls-19" d="M390.19,831.26h6.38v2h-6.38Z"/><path class="cls-19" d="M418.83,836.69v2.06h-12v-16.6H418.5v2.06h-9.34v5.1h8.32v2h-8.32v5.36Z"/><path class="cls-19" d="M437,822.15v16.6H435l-10-12.38v12.38h-2.37v-16.6h1.94l10,12.38V822.15Z"/><path class="cls-19" d="M444.89,837.84a8.13,8.13,0,0,1-3.16-3.05,8.76,8.76,0,0,1,0-8.68,8.13,8.13,0,0,1,3.16-3.05,9.84,9.84,0,0,1,9,0,8.15,8.15,0,0,1,3.15,3,8.87,8.87,0,0,1,0,8.7,8.15,8.15,0,0,1-3.15,3,9.84,9.84,0,0,1-9,0Zm7.82-1.84a6.09,6.09,0,0,0,2.3-2.29,6.75,6.75,0,0,0,0-6.52,6.09,6.09,0,0,0-2.3-2.29,7,7,0,0,0-6.59,0,6,6,0,0,0-2.33,2.29,6.75,6.75,0,0,0,0,6.52,6,6,0,0,0,2.33,2.29,7,7,0,0,0,6.59,0Z"/><path class="cls-19" d="M472.28,838.75l-5-6.85-4.91,6.85h-2.72l6.23-8.51-5.85-8.09h2.7l4.65,6.38,4.6-6.38h2.58l-5.86,8,6.29,8.58Z"/><path class="cls-19" d="M477.81,822.15h2.37v16.6h-2.37Z"/><path class="cls-19" d="M496.71,823.69a5.8,5.8,0,0,1,0,8.49,7.7,7.7,0,0,1-5.08,1.54h-4.1v5h-2.37v-16.6h6.47A7.7,7.7,0,0,1,496.71,823.69Zm-1.71,7a3.83,3.83,0,0,0,0-5.53,5.36,5.36,0,0,0-3.44-1h-4v7.45h4A5.36,5.36,0,0,0,495,830.7Z"/><path class="cls-19" d="M512.85,834.6H504l-1.82,4.15h-2.45l7.52-16.6h2.35l7.54,16.6h-2.49Zm-.83-1.9-3.58-8.13-3.58,8.13Z"/><path class="cls-19" d="M530.73,838.75l-3.58-5.1c-.44,0-.79.05-1,.05H522v5h-2.38v-16.6h6.48a7.66,7.66,0,0,1,5.07,1.54,5.21,5.21,0,0,1,1.85,4.25,5.49,5.49,0,0,1-.95,3.27,5.34,5.34,0,0,1-2.7,2l3.94,5.57Zm-1.25-8a3.84,3.84,0,0,0,0-5.54,5.36,5.36,0,0,0-3.44-1h-4v7.47h4A5.3,5.3,0,0,0,529.48,830.71Z"/><path class="cls-19" d="M536.87,822.15h2.38v16.6h-2.38Z"/><path class="cls-19" d="M558.5,822.15v16.6h-1.94l-10-12.38v12.38h-2.38v-16.6h1.95l10,12.38V822.15Z"/><path class="cls-19" d="M574.06,834.6h-8.83l-1.82,4.15H561l7.51-16.6h2.35l7.54,16.6h-2.49Zm-.83-1.9-3.58-8.13-3.59,8.13Z"/><path class="cls-19" d="M600.3,834.67h-3.15v4.08h-2.3v-4.08h-9.22V833l8.49-10.86h2.56l-8.14,10.48h6.38V829h2.23v3.6h3.15Z"/><path class="cls-19" d="M605,837.93a6.7,6.7,0,0,1-2.4-2.93,12.2,12.2,0,0,1,0-9.1A6.7,6.7,0,0,1,605,823a6.24,6.24,0,0,1,3.5-1,6.17,6.17,0,0,1,3.47,1,6.72,6.72,0,0,1,2.41,2.93,12.2,12.2,0,0,1,0,9.1,6.72,6.72,0,0,1-2.41,2.93,6.17,6.17,0,0,1-3.47,1A6.24,6.24,0,0,1,605,837.93Zm6.69-2.74a10,10,0,0,0,0-9.48,3.94,3.94,0,0,0-6.4,0,10,10,0,0,0,0,9.48,3.94,3.94,0,0,0,6.4,0Z"/><path class="cls-19" d="M634.29,838.75l0-12.09-6,10.07h-1.09l-6-10v12H618.9v-16.6h1.94l6.92,11.67,6.83-11.67h1.95l0,16.6Z"/><path class="cls-19" d="M653,830.35h2.28v6.48a8.75,8.75,0,0,1-2.87,1.56,10.56,10.56,0,0,1-3.42.55,9.37,9.37,0,0,1-4.53-1.1,8.23,8.23,0,0,1-4.31-7.39,8.36,8.36,0,0,1,1.15-4.36,8,8,0,0,1,3.18-3,9.43,9.43,0,0,1,4.56-1.09,9.76,9.76,0,0,1,3.62.65,7.44,7.44,0,0,1,2.76,1.91L654,826a6.68,6.68,0,0,0-4.81-1.92,7,7,0,0,0-3.41.82,6,6,0,0,0-2.36,2.28,6.71,6.71,0,0,0,0,6.54,6.11,6.11,0,0,0,2.36,2.29,6.94,6.94,0,0,0,3.38.83,7,7,0,0,0,3.89-1.07Z"/><path class="cls-19" d="M664.52,818.78h2.06l-7.82,22.34h-2.07Z"/><path class="cls-19" d="M668.19,822.15h7a10.19,10.19,0,0,1,4.67,1,7.75,7.75,0,0,1,3.17,2.93,8.93,8.93,0,0,1,0,8.66,7.75,7.75,0,0,1-3.17,2.93,10.19,10.19,0,0,1-4.67,1h-7Zm6.86,14.54a7.57,7.57,0,0,0,3.54-.79,5.62,5.62,0,0,0,2.36-2.19,6.82,6.82,0,0,0,0-6.52,5.62,5.62,0,0,0-2.36-2.19,7.57,7.57,0,0,0-3.54-.79h-4.48v12.48Z"/><path class="cls-19" d="M687.78,822.15h2.37v16.6h-2.37Z"/><path class="cls-19" d="M705.71,834.6h-8.82l-1.83,4.15h-2.44l7.51-16.6h2.35l7.54,16.6h-2.49Zm-.83-1.9-3.58-8.13-3.58,8.13Z"/><path class="cls-19" d="M390.19,872.26h6.38v2h-6.38Z"/><path class="cls-19" d="M417.36,875.6h-8.82l-1.82,4.15h-2.45l7.52-16.6h2.35l7.54,16.6h-2.49Zm-.83-1.9L413,865.57l-3.58,8.13Z"/><path class="cls-19" d="M438.56,863.15l-7.28,16.6h-2.35l-7.3-16.6h2.56l6,13.64,6-13.64Z"/><path class="cls-19" d="M451.6,875.6h-8.82L441,879.75h-2.45l7.52-16.6h2.35l7.54,16.6h-2.49Zm-.83-1.9-3.58-8.13-3.58,8.13Z"/><path class="cls-19" d="M458.39,863.15h2.37v14.54h9v2.06H458.39Z"/><path class="cls-19" d="M472.47,863.15h2.37v16.6h-2.37Z"/><path class="cls-19" d="M490.4,875.6h-8.82l-1.83,4.15h-2.44l7.52-16.6h2.34l7.54,16.6h-2.49Zm-.83-1.9L486,865.57l-3.58,8.13Z"/><path class="cls-19" d="M500.11,878.84a8.05,8.05,0,0,1-3.14-3,8.87,8.87,0,0,1,0-8.7,8.08,8.08,0,0,1,3.15-3,9.29,9.29,0,0,1,4.51-1.1,9.46,9.46,0,0,1,3.55.65,7.25,7.25,0,0,1,2.75,1.94L509.39,867a6.18,6.18,0,0,0-4.67-2,6.78,6.78,0,0,0-3.34.83,6,6,0,0,0-2.34,2.29,6.75,6.75,0,0,0,0,6.52,6,6,0,0,0,2.34,2.29,6.78,6.78,0,0,0,3.34.83,6.21,6.21,0,0,0,4.67-2l1.54,1.49a7.4,7.4,0,0,1-2.76,1.94,9.77,9.77,0,0,1-8.06-.43Zm1.41,5.7.5-1.16a3.18,3.18,0,0,0,1.61.4c.88,0,1.33-.32,1.33-.95a.79.79,0,0,0-.33-.67,1.71,1.71,0,0,0-1-.25H503l.59-2.33h1.3l-.35,1.35a2.5,2.5,0,0,1,1.53.63,2,2,0,0,1-.28,2.92,3.54,3.54,0,0,1-2.13.58A4,4,0,0,1,501.52,884.54Z"/><path class="cls-19" d="M524.9,875.6h-8.82l-1.83,4.15h-2.44l7.52-16.6h2.34l7.54,16.6h-2.48Zm-3.71-14.11a8.89,8.89,0,0,1-1-.71,4.79,4.79,0,0,0-.62-.49,1,1,0,0,0-.52-.15,1.09,1.09,0,0,0-.86.39,1.74,1.74,0,0,0-.35,1.08h-1.28a3.51,3.51,0,0,1,.67-2.11,2,2,0,0,1,1.65-.78,2,2,0,0,1,1,.25,6.52,6.52,0,0,1,1,.72,7,7,0,0,0,.64.48.85.85,0,0,0,.5.16,1.09,1.09,0,0,0,.85-.38,1.65,1.65,0,0,0,.36-1h1.28a3.42,3.42,0,0,1-.68,2.05,2,2,0,0,1-1.65.77A1.9,1.9,0,0,1,521.19,861.49Zm2.88,12.21-3.58-8.13-3.58,8.13Z"/><path class="cls-19" d="M534.65,878.84a8.16,8.16,0,0,1-3.17-3.05,8.76,8.76,0,0,1,0-8.68,8.16,8.16,0,0,1,3.17-3.05,9.82,9.82,0,0,1,9,0,8.15,8.15,0,0,1,3.15,3,8.87,8.87,0,0,1,0,8.7,8.15,8.15,0,0,1-3.15,3,9.82,9.82,0,0,1-9,0Zm7.81-1.84a6.09,6.09,0,0,0,2.3-2.29,6.75,6.75,0,0,0,0-6.52,6.09,6.09,0,0,0-2.3-2.29,6.56,6.56,0,0,0-3.29-.83,6.66,6.66,0,0,0-3.3.83,6,6,0,0,0-2.33,2.29,6.75,6.75,0,0,0,0,6.52,6,6,0,0,0,2.33,2.29,6.66,6.66,0,0,0,3.3.83A6.56,6.56,0,0,0,542.46,877Z"/><path class="cls-19" d="M558,863.15h7a10.13,10.13,0,0,1,4.67,1,7.75,7.75,0,0,1,3.17,2.93,8.86,8.86,0,0,1,0,8.66,7.75,7.75,0,0,1-3.17,2.93,10.13,10.13,0,0,1-4.67,1h-7Zm6.85,14.54a7.61,7.61,0,0,0,3.55-.79,5.68,5.68,0,0,0,2.36-2.19,6.82,6.82,0,0,0,0-6.52,5.68,5.68,0,0,0-2.36-2.19,7.61,7.61,0,0,0-3.55-.79h-4.48v12.48Z"/><path class="cls-19" d="M589.61,877.69v2.06H577.56v-16.6h11.72v2.06h-9.34v5.1h8.32v2h-8.32v5.36Z"/><path class="cls-19" d="M394.29,904.84a8.13,8.13,0,0,1-3.16-3.05,8.76,8.76,0,0,1,0-8.68,8.13,8.13,0,0,1,3.16-3.05,9.84,9.84,0,0,1,9,0,8.15,8.15,0,0,1,3.15,3,8.87,8.87,0,0,1,0,8.7,8.15,8.15,0,0,1-3.15,3,9.84,9.84,0,0,1-9,0ZM402.1,903a6,6,0,0,0,2.3-2.29,6.68,6.68,0,0,0,0-6.52,6,6,0,0,0-2.3-2.29,6.53,6.53,0,0,0-3.28-.83,6.69,6.69,0,0,0-3.31.83,6,6,0,0,0-2.32,2.29,6.75,6.75,0,0,0,0,6.52,6,6,0,0,0,2.32,2.29,6.69,6.69,0,0,0,3.31.83A6.53,6.53,0,0,0,402.1,903Z"/><path class="cls-19" d="M421.68,905.75l-5-6.85-4.91,6.85h-2.73l6.24-8.51-5.86-8.09h2.71l4.64,6.38,4.6-6.38H424l-5.86,8,6.29,8.58Z"/><path class="cls-19" d="M427.2,889.15h2.38v16.6H427.2Z"/><path class="cls-19" d="M449.94,905.75l0-12.09-6,10.07h-1.09l-6-10v12h-2.27v-16.6h1.94l6.92,11.67,6.83-11.67h1.95l0,16.6Z"/><path class="cls-19" d="M469.25,903.69v2.06H457.2v-16.6h11.71v2.06h-9.34v5.1h8.32v2h-8.32v5.36Z"/><path class="cls-19" d="M476.38,891.21h-5.69v-2.06h13.73v2.06h-5.69v14.54h-2.35Z"/><path class="cls-19" d="M498.1,905.75l-3.58-5.1c-.44,0-.79.05-1,.05h-4.1v5H487v-16.6h6.47a7.7,7.7,0,0,1,5.08,1.54,5.23,5.23,0,0,1,1.84,4.25,5.56,5.56,0,0,1-.94,3.27,5.41,5.41,0,0,1-2.71,2l3.94,5.57Zm-1.25-8a3.84,3.84,0,0,0,0-5.54,5.36,5.36,0,0,0-3.44-1h-4v7.47h4A5.3,5.3,0,0,0,496.85,897.71Z"/><path class="cls-19" d="M504.25,889.15h2.37v16.6h-2.37Z"/><path class="cls-19" d="M522.17,901.6h-8.82l-1.82,4.15h-2.45l7.52-16.6H519l7.54,16.6H524Zm-.83-1.9-3.58-8.13-3.58,8.13Z"/><path class="cls-19" d="M548.42,901.67h-3.15v4.08H543v-4.08h-9.23V900l8.49-10.86h2.56l-8.13,10.48H543V896h2.23v3.6h3.15Z"/><path class="cls-19" d="M561.63,905.75l-5-6.85-4.91,6.85H549l6.24-8.51-5.86-8.09h2.71l4.64,6.38,4.6-6.38h2.59l-5.86,8,6.29,8.58Z"/><path class="cls-19" d="M571.83,885.78h2.06l-7.83,22.34H564Z"/><path class="cls-19" d="M575.5,889.15h7a10.19,10.19,0,0,1,4.67,1,7.72,7.72,0,0,1,3.16,2.93,8.86,8.86,0,0,1,0,8.66,7.72,7.72,0,0,1-3.16,2.93,10.19,10.19,0,0,1-4.67,1h-7Zm6.85,14.54a7.58,7.58,0,0,0,3.55-.79,5.68,5.68,0,0,0,2.36-2.19,6.82,6.82,0,0,0,0-6.52A5.68,5.68,0,0,0,585.9,892a7.58,7.58,0,0,0-3.55-.79h-4.48v12.48Z"/><path class="cls-19" d="M595.09,889.15h2.37v16.6h-2.37Z"/><path class="cls-19" d="M613,901.6h-8.82l-1.82,4.15h-2.45l7.52-16.6h2.35l7.54,16.6h-2.49Zm-.83-1.9-3.58-8.13L605,899.7Z"/><path class="cls-19" d="M390.19,939.26h6.38v2h-6.38Z"/><path class="cls-19" d="M422.18,946.75l0-12.09-6,10.07h-1.09l-6-10v12h-2.27v-16.6h1.94l6.93,11.67,6.83-11.67h1.94l0,16.6Z"/><path class="cls-19" d="M440,942.6h-8.82l-1.83,4.15h-2.44l7.52-16.6h2.34l7.54,16.6h-2.49Zm-.83-1.9-3.58-8.13L432,940.7Z"/><path class="cls-19" d="M461.07,930.15v16.6h-1.95l-10-12.38v12.38h-2.37v-16.6h1.94l10,12.38V930.15Z"/><path class="cls-19" d="M469.34,932.21h-5.69v-2.06h13.73v2.06h-5.69v14.54h-2.35Z"/><path class="cls-19" d="M492,944.69v2.06H480v-16.6h11.72v2.06h-9.34v5.1h8.32v2h-8.32v5.36Z"/><path class="cls-19" d="M507,946.75l-3.58-5.1c-.44,0-.79.05-1,.05h-4.11v5h-2.37v-16.6h6.48a7.68,7.68,0,0,1,5.07,1.54,5.24,5.24,0,0,1,1.85,4.25,5.56,5.56,0,0,1-.95,3.27,5.34,5.34,0,0,1-2.7,2l3.93,5.57Zm-1.26-8a3.82,3.82,0,0,0,0-5.54,5.34,5.34,0,0,0-3.44-1h-4v7.47h4A5.28,5.28,0,0,0,505.69,938.71Z"/><path class="cls-19" d="M519.47,930.15h2.37v16.6h-2.37Z"/><path class="cls-19" d="M528,946.36a7.49,7.49,0,0,1-2.74-1.51l.88-1.85a7.28,7.28,0,0,0,2.43,1.39,8.82,8.82,0,0,0,3,.53,5.46,5.46,0,0,0,3.08-.7,2.14,2.14,0,0,0,1-1.86,1.85,1.85,0,0,0-.56-1.39,3.8,3.8,0,0,0-1.37-.81,23.83,23.83,0,0,0-2.31-.64,24.1,24.1,0,0,1-3-.9,5.06,5.06,0,0,1-2-1.39,3.75,3.75,0,0,1-.81-2.53,4.24,4.24,0,0,1,.7-2.39,4.79,4.79,0,0,1,2.12-1.71,8.54,8.54,0,0,1,3.53-.64,11.3,11.3,0,0,1,2.89.38,7.76,7.76,0,0,1,2.45,1.09l-.79,1.9a8.63,8.63,0,0,0-2.23-1,8.25,8.25,0,0,0-2.32-.34,5.12,5.12,0,0,0-3,.73,2.26,2.26,0,0,0-1,1.9,1.82,1.82,0,0,0,.57,1.39,4.08,4.08,0,0,0,1.41.83,23.62,23.62,0,0,0,2.29.62,24.86,24.86,0,0,1,3,.9,5.19,5.19,0,0,1,2,1.38,3.66,3.66,0,0,1,.81,2.49,4.18,4.18,0,0,1-.71,2.38,4.73,4.73,0,0,1-2.16,1.71,8.88,8.88,0,0,1-3.55.63A11.29,11.29,0,0,1,528,946.36Z"/><path class="cls-19" d="M544.51,945.84a8.16,8.16,0,0,1-3.17-3.05,8.76,8.76,0,0,1,0-8.68,8.16,8.16,0,0,1,3.17-3.05,9.82,9.82,0,0,1,9,0,8.11,8.11,0,0,1,3.16,3,8.87,8.87,0,0,1,0,8.7,8.11,8.11,0,0,1-3.16,3,9.82,9.82,0,0,1-9,0Zm7.81-1.84a6.09,6.09,0,0,0,2.3-2.29,6.75,6.75,0,0,0,0-6.52,6.09,6.09,0,0,0-2.3-2.29,6.53,6.53,0,0,0-3.28-.83,6.69,6.69,0,0,0-3.31.83,6,6,0,0,0-2.32,2.29,6.68,6.68,0,0,0,0,6.52,6,6,0,0,0,2.32,2.29,6.69,6.69,0,0,0,3.31.83A6.53,6.53,0,0,0,552.32,944Z"/><path class="cls-19" d="M561.46,930.15h2.37v14.54h9v2.06H561.46Z"/><path class="cls-19" d="M586.12,942.6H577.3l-1.82,4.15H573l7.51-16.6h2.35l7.54,16.6H588Zm-.83-1.9-3.58-8.13-3.58,8.13Z"/><path class="cls-19" d="M608.3,946.75l0-12.09-6,10.07h-1.09l-6-10v12h-2.27v-16.6h1.94l6.93,11.67,6.82-11.67h1.95l0,16.6Z"/><path class="cls-19" d="M627.6,944.69v2.06H615.55v-16.6h11.72v2.06h-9.35v5.1h8.33v2h-8.33v5.36Z"/><path class="cls-19" d="M645.71,930.15v16.6h-1.94l-10-12.38v12.38h-2.37v-16.6h1.94l10,12.38V930.15Z"/><path class="cls-19" d="M654,932.21H648.3v-2.06H662v2.06h-5.69v14.54H654Z"/><path class="cls-19" d="M667.58,945.84a8.16,8.16,0,0,1-3.17-3.05,8.76,8.76,0,0,1,0-8.68,8.16,8.16,0,0,1,3.17-3.05,9.82,9.82,0,0,1,9,0,8.18,8.18,0,0,1,3.16,3,8.94,8.94,0,0,1,0,8.7,8.18,8.18,0,0,1-3.16,3,9.82,9.82,0,0,1-9,0Zm7.81-1.84a6.09,6.09,0,0,0,2.3-2.29,6.75,6.75,0,0,0,0-6.52,6.09,6.09,0,0,0-2.3-2.29,6.55,6.55,0,0,0-3.28-.83,6.69,6.69,0,0,0-3.31.83,6.1,6.1,0,0,0-2.33,2.29,6.75,6.75,0,0,0,0,6.52A6.1,6.1,0,0,0,668.8,944a6.69,6.69,0,0,0,3.31.83A6.55,6.55,0,0,0,675.39,944Z"/><path class="cls-19" d="M405.6,956.15v16.6h-1.94l-10-12.38v12.38h-2.37v-16.6h1.94l10,12.38V956.15Z"/><path class="cls-19" d="M413.55,971.84a8.16,8.16,0,0,1-3.17-3.05,8.76,8.76,0,0,1,0-8.68,8.16,8.16,0,0,1,3.17-3.05,9.82,9.82,0,0,1,9,0,8.08,8.08,0,0,1,3.15,3,8.87,8.87,0,0,1,0,8.7,8.08,8.08,0,0,1-3.15,3,9.82,9.82,0,0,1-9,0Zm7.81-1.84a6.09,6.09,0,0,0,2.3-2.29,6.75,6.75,0,0,0,0-6.52,6.09,6.09,0,0,0-2.3-2.29,6.55,6.55,0,0,0-3.28-.83,6.69,6.69,0,0,0-3.31.83,6,6,0,0,0-2.33,2.29,6.75,6.75,0,0,0,0,6.52,6,6,0,0,0,2.33,2.29,6.69,6.69,0,0,0,3.31.83A6.55,6.55,0,0,0,421.36,970Z"/><path class="cls-19" d="M448.43,957.69a5.8,5.8,0,0,1,0,8.49,7.7,7.7,0,0,1-5.08,1.54h-4.1v5h-2.37v-16.6h6.47A7.7,7.7,0,0,1,448.43,957.69Zm-1.71,7a3.81,3.81,0,0,0,0-5.53,5.36,5.36,0,0,0-3.44-1h-4v7.45h4A5.36,5.36,0,0,0,446.72,964.7Z"/><path class="cls-19" d="M457,971.84a8.13,8.13,0,0,1-3.16-3.05,8.76,8.76,0,0,1,0-8.68,8.13,8.13,0,0,1,3.16-3.05,9.84,9.84,0,0,1,9,0,8.15,8.15,0,0,1,3.15,3,8.87,8.87,0,0,1,0,8.7,8.15,8.15,0,0,1-3.15,3,9.84,9.84,0,0,1-9,0Zm7.82-1.84a6.09,6.09,0,0,0,2.3-2.29,6.75,6.75,0,0,0,0-6.52,6.09,6.09,0,0,0-2.3-2.29,6.59,6.59,0,0,0-3.29-.83,6.69,6.69,0,0,0-3.31.83,6.08,6.08,0,0,0-2.32,2.29,6.75,6.75,0,0,0,0,6.52,6.08,6.08,0,0,0,2.32,2.29,6.69,6.69,0,0,0,3.31.83A6.59,6.59,0,0,0,464.78,970Z"/><path class="cls-19" d="M475.14,972.36a7.41,7.41,0,0,1-2.74-1.51l.88-1.85a7.28,7.28,0,0,0,2.43,1.39,8.82,8.82,0,0,0,3.05.53,5.46,5.46,0,0,0,3.08-.7,2.14,2.14,0,0,0,1-1.86,1.85,1.85,0,0,0-.56-1.39,3.8,3.8,0,0,0-1.37-.81,23.36,23.36,0,0,0-2.32-.64,23.88,23.88,0,0,1-3-.9,5.06,5.06,0,0,1-2-1.39,3.75,3.75,0,0,1-.82-2.53,4.32,4.32,0,0,1,.7-2.39,4.88,4.88,0,0,1,2.13-1.71,8.5,8.5,0,0,1,3.53-.64,11.3,11.3,0,0,1,2.89.38,7.7,7.7,0,0,1,2.44,1.09l-.78,1.9a8.63,8.63,0,0,0-2.23-1,8.25,8.25,0,0,0-2.32-.34,5.09,5.09,0,0,0-3,.73,2.23,2.23,0,0,0-1,1.9,1.82,1.82,0,0,0,.57,1.39,4.08,4.08,0,0,0,1.41.83,23.62,23.62,0,0,0,2.29.62,25.43,25.43,0,0,1,3,.9,5.08,5.08,0,0,1,1.95,1.38,3.61,3.61,0,0,1,.82,2.49,4.26,4.26,0,0,1-.71,2.38,4.73,4.73,0,0,1-2.16,1.71,8.88,8.88,0,0,1-3.55.63A11.29,11.29,0,0,1,475.14,972.36Z"/><path class="cls-19" d="M491.94,958.21h-5.69v-2.06H500v2.06h-5.69v14.54h-2.35Z"/><path class="cls-19" d="M505.53,971.84a8.16,8.16,0,0,1-3.17-3.05,8.76,8.76,0,0,1,0-8.68,8.16,8.16,0,0,1,3.17-3.05,9.82,9.82,0,0,1,9,0,8.08,8.08,0,0,1,3.15,3,8.87,8.87,0,0,1,0,8.7,8.08,8.08,0,0,1-3.15,3,9.82,9.82,0,0,1-9,0Zm7.81-1.84a6.09,6.09,0,0,0,2.3-2.29,6.75,6.75,0,0,0,0-6.52,6.09,6.09,0,0,0-2.3-2.29,6.55,6.55,0,0,0-3.28-.83,6.69,6.69,0,0,0-3.31.83,6,6,0,0,0-2.33,2.29,6.75,6.75,0,0,0,0,6.52,6,6,0,0,0,2.33,2.29,6.69,6.69,0,0,0,3.31.83A6.55,6.55,0,0,0,513.34,970Z"/><path class="cls-19" d="M527.15,952.78h2.06l-7.82,22.34h-2.06Z"/><path class="cls-19" d="M542.38,957.69a5.8,5.8,0,0,1,0,8.49,7.7,7.7,0,0,1-5.08,1.54h-4.1v5h-2.37v-16.6h6.47A7.7,7.7,0,0,1,542.38,957.69Zm-1.71,7a3.83,3.83,0,0,0,0-5.53,5.36,5.36,0,0,0-3.44-1h-4v7.45h4A5.36,5.36,0,0,0,540.67,964.7Z"/><path class="cls-19" d="M550.91,971.84a8.13,8.13,0,0,1-3.16-3.05,8.76,8.76,0,0,1,0-8.68,8.13,8.13,0,0,1,3.16-3.05,9.84,9.84,0,0,1,9,0,8.15,8.15,0,0,1,3.15,3,8.87,8.87,0,0,1,0,8.7,8.15,8.15,0,0,1-3.15,3,9.84,9.84,0,0,1-9,0Zm7.81-1.84a6.12,6.12,0,0,0,2.31-2.29,6.75,6.75,0,0,0,0-6.52,6.12,6.12,0,0,0-2.31-2.29,6.53,6.53,0,0,0-3.28-.83,6.69,6.69,0,0,0-3.31.83,6,6,0,0,0-2.32,2.29,6.75,6.75,0,0,0,0,6.52,6,6,0,0,0,2.32,2.29,6.69,6.69,0,0,0,3.31.83A6.53,6.53,0,0,0,558.72,970Z"/><path class="cls-19" d="M567.87,956.15h2.37v14.54h9v2.06H567.87Z"/><path class="cls-19" d="M584.92,971.84a8.16,8.16,0,0,1-3.17-3.05,8.76,8.76,0,0,1,0-8.68,8.16,8.16,0,0,1,3.17-3.05,9.82,9.82,0,0,1,9,0,8.15,8.15,0,0,1,3.15,3,8.87,8.87,0,0,1,0,8.7,8.15,8.15,0,0,1-3.15,3,9.82,9.82,0,0,1-9,0Zm7.81-1.84a6.09,6.09,0,0,0,2.3-2.29,6.75,6.75,0,0,0,0-6.52,6.09,6.09,0,0,0-2.3-2.29,6.56,6.56,0,0,0-3.29-.83,6.66,6.66,0,0,0-3.3.83,6,6,0,0,0-2.33,2.29,6.75,6.75,0,0,0,0,6.52,6,6,0,0,0,2.33,2.29,6.66,6.66,0,0,0,3.3.83A6.56,6.56,0,0,0,592.73,970Z"/><text class="cls-17" transform="translate(822.29 725.4)">- MANTER ISOLAMENTO 14 DIAS<tspan x="0" y="41">- MONITORAR SINTOMAS TODOS OS DIAS</tspan><tspan x="0" y="82">- TESTAR DE ACORDO COM PROTOCOLO</tspan><tspan x="0" y="123">- INVESTIGAR CONTATOS</tspan></text><text class="cls-17" transform="translate(117.5 1213.33)">ENCAMINHAR PARA<tspan x="44.95" y="26">REFERÊNCIA</tspan></text><text class="cls-17" transform="translate(694.83 1227.72)">PIORA DOS SINTOMAS</text><text class="cls-17" transform="translate(1127.39 1229)">RESOLUÇÃO</text></svg>