<?xml version="1.0" encoding="utf-8"?>
<!-- Generator: Adobe Illustrator 23.1.1, SVG Export Plug-In . SVG Version: 6.00 Build 0)  -->
<svg version="1.1" id="Camada_1" xmlns="http://www.w3.org/2000/svg" xmlns:xlink="http://www.w3.org/1999/xlink" x="0px" y="0px"
	 viewBox="0 0 600 900" style="enable-background:new 0 0 600 900;" xml:space="preserve">
<style type="text/css">
	.st0{fill:#FFF9DE;}
	.st1{fill:#EBAC66;}
	.st2{fill:#F3C581;}
	.st3{fill:#DA864C;}
	.st4{fill:#E0964D;}
	.st5{opacity:0.81;}
	.st6{fill:#F28D47;}
	.st7{fill:#AA572B;}
	.st8{fill:#663300;}
	.st9{fill:#FED872;}
	.st10{fill:#E06E46;}
	.st11{fill:#E4A760;}
	.st12{fill:#FEB900;}
	.st13{opacity:0.25;}
	.st14{fill:#D9DEDD;}
	.st15{fill:#5D6267;}
	.st16{fill:#FEC326;}
	.st17{opacity:0.32;}
	.st18{fill:#FFFFFF;}
	.st19{fill:#009599;}
	.st20{fill:#60B6BA;}
	.st21{fill:#E7B18B;}
	.st22{fill:url(#SVGID_1_);}
	.st23{fill:#212C50;}
	.st24{fill:#D2C0C0;}
	.st25{fill:none;stroke:#212C50;stroke-width:4.4619;stroke-linecap:round;stroke-linejoin:round;stroke-miterlimit:10;}
	.st26{fill:#E8D4D3;}
	.st27{opacity:0.5;fill:#D7EBFA;}
	.st28{fill:none;stroke:#D9D9D9;stroke-width:5.7239;stroke-linecap:round;stroke-miterlimit:10;}
	.st29{fill:#D29775;}
	.st30{opacity:0.2;fill:#FFFFFF;}
	.st31{fill:#E8C27E;}
	.st32{fill:#D8B16C;}
	.st33{fill:#CC9966;}
	.st34{fill:#CE9A56;stroke:#CE9A56;stroke-width:0.1403;stroke-miterlimit:10;}
	.st35{fill:#D9AD66;stroke:#D9AD66;stroke-width:0.1403;stroke-miterlimit:10;}
	.st36{fill:#BC775F;stroke:#BC775F;stroke-width:0.1403;stroke-miterlimit:10;}
</style>
<g>
	<path class="st0" d="M519,407.8c-24,38.4-65,69-115,99.4c-3,2.4-6,3.9-8,5.2c-7,5.1-15,8.6-22,12.1c-7,4.5-14,9.2-22,12.2
		c-3,0.8-6,2.6-9,3.4c-2,0.5-5,2.4-7,3.9c-2,0.6-4,1.1-6,1.7c-21,9-42,15.6-63,18.6c-2,0.6-4,1.1-6,1.7c-48,5.6-89-6.9-126-42.5
		c-7-6.7-13-13.6-19-21.7c-9-11.8-16-23.6-24-37.3c-6-12-11-22.9-16-35.1c-5-14.2-10-27.6-14-42.7c-1-5.5-2-12.1-4-18.2
		C46,306,52,256.2,76,217.4c6-8.4,12-17.1,19-25.9c10-10.9,20-21.5,33-30.8c1-0.9,1-1.9,2-2.7c5-2.4,8-6.2,13-8.8c1-0.9,1-1.9,2-2.9
		c28-19.7,56-38.3,90-55.4c1-0.2,3-0.7,4-1c31-16.7,62-27.9,94-32.9c2-0.6,5,0.6,7,0.1c3-0.8,7-0.9,10-0.7c8-1.1,16-1,23,0.5
		c5,0.9,11,0.7,16,1.8c24,5.7,47,17,68,35.6c1,1.1,1,2.1,2,3.2c54,49.8,83,136.8,86,205.7C546,344.7,537,378.5,519,407.8L519,407.8z
		"/>
</g>
<g>
	<g>
		<g>
			<g>
				<path class="st1" d="M510.6,105.6c-20.2-8.9-44.1,0.2-54.8,25.1c-10.7,24.9,0.1,52.7,1,67c0.9,14.3,3.6,27.1-1.8,41.2
					c-5.4,14-77,198.2-75.4,206.3c1.3,6.3,11.6,8.8,15.6,3.9c4-4.9,71.8-200.8,83.9-217.1c11.2-15,41.1-36.9,51.4-55.4
					C541.3,157.2,550.1,122.9,510.6,105.6z"/>
			</g>
		</g>
		<g>
			<g>
				<path class="st2" d="M508,104.6c-0.1,0-0.1,0-0.2-0.1C507.9,104.5,507.9,104.5,508,104.6C508,104.6,508,104.6,508,104.6z"/>
			</g>
		</g>
		<g>
			<g>
				<path class="st2" d="M475.5,216.4c-1.3-5.6,0.7-11.4-1.5-16.8c-1.8-4.5-5.4-8.1-7.8-12.3c-6.4-11.1-5-25.4-5.9-37.7
					c-0.7-9.8-1.3-20.4,1.5-29.7c-0.3,0.5-0.7,0.9-1,1.4c-1.1,3.9-1.7,8-1.8,12.1c-0.3,7.5,0.6,15,1,22.5c0.4,6.6,0.3,13.3,1.4,19.9
					c0.9,5.4,2.7,10.5,5.8,15c1.6,2.4,3.5,4.6,5,7.2c2.5,4.4,2.2,8.3,2.2,13.2c0,7,3.3,12.8,6.3,18.8c0.2-0.2,0.4-0.4,0.6-0.7
					C479,225.2,476.5,221.1,475.5,216.4z"/>
			</g>
		</g>
		<g>
			<g>
				<path class="st3" d="M470.1,111.2c0.2-0.2,0.4-0.3,0.6-0.5L470.1,111.2z"/>
			</g>
		</g>
		<g>
			<g>
				<path class="st2" d="M482.5,189.8c-1.1-4.4-3.4-7.7-6-11.4c-6.4-9-6-20.1-6.7-30.7c-0.8-11.2-4-26.1,0.9-36.9
					c-0.2,0.2-0.4,0.3-0.6,0.5c-2.5,6-2.6,12.7-2.2,19.4c0.7,11.9,0.8,24.3,2.8,36c0.8,4.8,2.5,8.8,5.3,12.8c4.3,6,6.4,11.3,7,18.7
					c0.8,8.9,1.4,17.8,2.2,26.7c0.3-0.3,0.6-0.7,0.9-1c-0.6-6.5-1.3-13-1.9-19.5C483.8,199.5,483.6,194.5,482.5,189.8z"/>
			</g>
		</g>
		<g>
			<g>
				<path class="st2" d="M508.5,182.9c3.1-8.3,6.6-14.6,1.6-23.1c-5.5-9.3-16-14.6-22.2-23.5c-6.2-8.8-9.7-19.3-10.1-30.1
					c-0.1,0.1-0.2,0.1-0.3,0.2c0.2,8.5,2.1,16.9,6,24.5c5.1,10.1,13.2,16,21.1,23.8c4.7,4.6,9.1,11.2,7.4,18.2
					c-1.4,5.6-4.6,10.4-5.7,16.1c-1.1,5.8-1.8,11.7-2.2,17.7c0.4-0.4,0.8-0.8,1.2-1.1c0-0.4,0.1-0.8,0.1-1.2
					C505.8,197.3,505.9,189.8,508.5,182.9z"/>
			</g>
		</g>
		<g>
			<g>
				<path class="st4" d="M520.9,137.3c-5.2-10.2-14.8-8.3-24.3-11.2c-9.5-2.9-13.3-12.3-15.5-21.3c-0.1,0.1-0.3,0.1-0.4,0.2
					c1.5,7.2,3.9,14.6,9.8,19.2c9.4,7.4,23.7,1.6,29.7,14.2c2.2,4.6,3.1,9.6,5.4,14.2c1.1,2.3,2.7,4.4,3.7,6.8
					c1.7,4.1,1,8.1,0.2,12.4c-0.6,2.7-0.9,5.4-1,8.2c0.4-0.6,0.8-1.2,1.1-1.8c0.4-4.8,2-9.4,2-14.1c0-5-2.9-8.5-5.1-12.8
					L520.9,137.3z"/>
			</g>
		</g>
		<g>
			<g>
				<path class="st2" d="M514.2,119.8c1.5,1.4,3.1,2.7,4.5,3.8c5,4,11.7,7.3,17.9,5.9c-0.2-0.4-0.3-0.9-0.5-1.3
					c-4.5,0.6-9.1-0.8-13.2-3.5c-1.6-1.1-3.6-2.4-5.5-4c-5.1-4.2-10.1-10-8.9-16c0,0,0,0,0,0c-0.2-0.1-0.3-0.1-0.5-0.2
					C506,110.6,509.8,115.7,514.2,119.8z"/>
			</g>
		</g>
		<g>
			<g>
				<path class="st2" d="M451.7,145.6c2.9,14.4,5.1,28.6,3.8,43.3c0.2,0.8,0.3,1.7,0.4,2.5c2.6-15.7-0.3-32-4-47.5
					C451.9,144.5,451.8,145.1,451.7,145.6z"/>
			</g>
		</g>
		<g>
			<g>
				<path class="st4" d="M468.3,217c0.1-4.9-0.4-10.9-4.6-14.2c-2-1.6-4.4-2.3-6.7-1.9c0,0.3,0.1,0.6,0.1,0.9c2.5-0.1,5.1,1,7,2.9
					c3.2,3.3,3.7,8.5,3.5,12.9c-0.2,6.1-1.5,12.1-5.2,17.2c-2.7,3.7-6.1,6.7-9.6,9.6c-0.2,0.5-0.4,1-0.6,1.6
					C461.7,238.4,467.9,229.8,468.3,217z"/>
			</g>
		</g>
		<g>
			<g>
				<path class="st2" d="M457.7,209.3c0,0.5,0.1,1,0.1,1.5c4.1,4.8,3.1,10.7,0,16.4c-0.1,0.7-0.2,1.3-0.3,2c0.8-1.3,1.4-2.7,2-4.1
					C461.6,219.9,462,213,457.7,209.3z"/>
			</g>
		</g>
		<g>
			<g>
				<path class="st2" d="M461.3,248.8c-4.6,4.2-7.4,9-8.2,15.1c-0.7,5.3,0,9.2-5.2,13.9c-1.6,1.4-3.6,2.4-5.4,3.6
					c-2,1.4-4,2.9-5.8,4.6c-0.3,0.7-0.5,1.3-0.8,2c1.2-1.2,2.4-2.3,3.7-3.3c4.1-3.2,9.5-5.3,12-10.1c3.6-6.9,1.1-14.3,6.3-20.9
					c3.1-4,9.8-10.5,15.9-11.7c0.2-0.5,0.4-1,0.7-1.4C469.6,241.1,464.5,245.8,461.3,248.8z"/>
			</g>
		</g>
		<g>
			<g>
				<path class="st2" d="M451.2,288.5c-5.3,5-10.7,10-11.6,17.6c-0.6,5.5,0.4,11.4,0.9,16.9c0.1,1.1,0.2,2.3,0.3,3.4
					c0.2-0.7,0.5-1.3,0.7-2c-0.4-4.3-0.8-8.6-1.1-12.9c-0.4-7.4,1.6-12.7,6.7-17.9c2.6-2.7,5.6-5.1,8.2-7.9c0.5-0.5,0.9-1,1.4-1.6
					c0.4-1,0.8-2.1,1.2-3.1C456.2,283.8,453.8,286.1,451.2,288.5z"/>
			</g>
		</g>
		<g>
			<g>
				<path class="st4" d="M461.9,259.4c-1.2,3.6-0.9,7.2-0.8,11c0,1.1,0,2.1-0.2,3c0.3-0.9,0.7-1.7,1-2.6c0.1-5.6-0.7-10.6,2.8-15.7
					c1.5-2.2,3.5-4,5.7-5.4c0.2-0.5,0.4-1,0.6-1.5C466.8,250.7,463.5,254.6,461.9,259.4z"/>
			</g>
		</g>
		<g>
			<g>
				<path class="st4" d="M428,318.5c-7.5,16.1-8.5,34.5-3,51.2c0.2-0.5,0.3-0.9,0.5-1.4c-4.6-14.4-4.5-30,0.8-44.3
					c0.3-0.7,0.6-1.5,0.9-2.2c1-1.4,1.3-1.1,1,0.9c0.7,2,0.3,5,0.5,7.1c0.3,4.2,0.5,8.5,1.3,12.7c0.5,2.6,1.2,5.2,2.2,7.7
					c0.2-0.6,0.4-1.2,0.7-1.8c-3.8-9.1-3.6-20.2-4.3-29.9C428.5,318,428.1,318.3,428,318.5z"/>
			</g>
		</g>
		<g>
			<g>
				<path class="st4" d="M386.6,433.8c2.7-5.2,9.2-9.5,8-16c-0.2-1-0.7-1.9-0.9-2.9c-0.5-2.4,0.9-8.5,2.1-10.6c1.1-2,2.7-3.8,4-5.7
					c2.2-3,5.2-6,6.4-9.5c0.8-2.1,0.3-3.9-0.2-6c-0.8-3.3-1.6-6.6-2.4-9.8c-0.2,0.4-0.3,0.8-0.5,1.2c0.2,0.7,0.3,1.4,0.5,2.2
					c0.6,2.6,2,5.7,2,8.3c0,6.8-5.6,12-9.3,17.3c-1.7,2.4-3.5,5.1-4,8.1c-1,6,3.5,8.8-0.9,15.3c-4,5.7-7.6,10.2-8.4,17.5
					c-0.2,2.3-0.2,4.6,0.1,6.9c0.4,0.2,0.8,0.4,1.2,0.6C383.3,445.1,383.8,439.3,386.6,433.8z"/>
			</g>
		</g>
		<g>
			<g>
				<path class="st2" d="M399.1,429.9c1.6-3.1,2.4-6.2,2.2-9.7c-0.2-2.6-1.2-5.3-1.2-7.9c0.1-5.9,3.4-10.7,6.8-15.1
					c3.9-5.1,8.6-11.7,6.1-18.4c-0.9-2.5-2.9-4.4-3.7-7c-1.2-3.8,0.1-8.1,0.8-11.9c0.4-2.1,0.8-4.3,1.1-6.4
					c-0.4,0.9-0.7,1.9-1.1,2.8c-0.4,1.9-0.7,3.8-1.1,5.6c-0.7,3.5-1.6,7.3-0.5,10.9c0.9,3,3.3,5.2,4,8.3c1.3,5.7-2.5,10.8-5.8,15
					c-2.6,3.4-5.5,6.7-6.8,10.9c-1.4,4.6,0.1,8.6,0.5,13.2c0.8,9.1-6.3,14.5-10.1,21.7c-1.6,3-2.7,6.2-3.3,9.5
					c0.2,0,0.4,0.1,0.6,0.1c0.3-1.9,0.8-3.7,1.5-5.5C391.4,440,396.1,435.6,399.1,429.9z"/>
			</g>
		</g>
		<g>
			<g>
				<path class="st2" d="M504,118.1c-19.8-5.9-44.5,3-44.1,40.6c0.6,47.6,28,59.1,60.6,18.7C549.2,141.9,521.7,123.3,504,118.1z"/>
			</g>
		</g>
		<g>
			<g>
				<path class="st4" d="M502.7,122.7c-17.6-5.2-39.7,2.7-39.3,36.2c0.5,42.4,24.9,52.6,54,16.6C543,143.9,518.5,127.4,502.7,122.7z
					"/>
			</g>
		</g>
		<g>
			<g>
				<path class="st3" d="M510.8,137.7c2.4-2.9,4.3-5.7,5.8-8.3c-4.5-3.2-9.5-5.4-13.9-6.7c-16.2-4.8-36.1,1.5-38.9,28.5
					C473.2,165.3,490.9,162.3,510.8,137.7z"/>
			</g>
		</g>
		<g class="st5">
			<g>
				<path class="st2" d="M386.6,442.9L386.6,442.9c-1.4-0.5-2.2-1.9-1.7-3l79-204.7c0.4-1.1,1.9-1.6,3.3-1.1l0,0
					c1.4,0.5,2.2,1.9,1.7,3l-79,204.7C389.5,443,388,443.5,386.6,442.9z"/>
			</g>
		</g>
	</g>
	<g>
		<g>
			<g>
				<path class="st1" d="M448.9,72.6c-4-18.9-16.7-38.8-37.4-38.1c-28.7,0.9-36.2,42.1-36.1,55.5c0.1,19.2,5.3,36.1,14,48.8
					c9.1,13.3,14.4,23.1,14.4,31.1l0,267.1c0,3.7,3,6.7,6.7,6.7l0,0c3.7,0,6.7-3,6.7-6.6c0.1-41.1,0.6-259.6,2.4-271.4
					c2-13,10-13.4,21.4-35.4C449.7,113,453.6,94.7,448.9,72.6z"/>
			</g>
		</g>
		<g>
			<g>
				<path class="st1" d="M448.9,72.6c-4-18.9-16.7-38.8-37.4-38.1c-28.7,0.9-36.2,42.1-36.1,55.5c0.1,19.2,5.3,36.1,14,48.8
					c9.1,13.3,14.4,23.1,14.4,31.1l0,267.1c0,3.7,3,6.7,6.7,6.7l0,0c3.7,0,6.7-3,6.7-6.6c0.1-41.1,0.6-259.6,2.4-271.4
					c2-13,10-13.4,21.4-35.4C449.7,113,453.6,94.7,448.9,72.6z"/>
			</g>
		</g>
		<g>
			<g>
				<g>
					<path class="st1" d="M401.3,40.4c1.9-0.4,4.2-1,6.6-1.8c2.8-1,5.7-2.2,8.1-3.9c-1.5-0.2-3-0.3-4.5-0.2
						c-6.7,0.2-12.2,2.6-16.8,6.4C396.8,41.1,399.1,40.9,401.3,40.4z"/>
				</g>
			</g>
			<g>
				<g>
					<path class="st1" d="M415.4,379.2c0.7,2.9,1.4,5.5,1.8,8.2c0-5.6,0-11.4,0.1-17.4C415.7,372.2,414.4,374.5,415.4,379.2z"/>
				</g>
			</g>
			<g>
				<g>
					<path class="st2" d="M417.4,348c0-4.8,0-9.7,0.1-14.6c-0.2,0.4-0.4,0.8-0.6,1.2C415.2,339,416.1,343.6,417.4,348z"/>
				</g>
			</g>
			<g>
				<g>
					<path class="st2" d="M415.4,141.8c1.8-4.7,2.9-8.6,6.8-11.9c2.3-1.9,4.8-3.4,7.2-5.1c4.5-3.2,8-7.4,10.8-12.3
						c3.4-5.9,5.7-12.4,8.5-18.7c0.7-1.6,1.4-3.2,2.2-4.8c0-0.5,0-1-0.1-1.5c0,0.1,0,0.1-0.1,0.2c-5.3,11.5-9.1,25.8-19.1,34.1
						c-3.8,3.1-8.4,5.2-11.7,8.9c-4,4.4-4.3,10.7-7.4,15.7c-3,4.7-7.6,8-11.6,11.8c0.1,0.3,0.2,0.6,0.4,0.9
						C406.6,153.8,412.7,149.3,415.4,141.8z"/>
				</g>
			</g>
			<g>
				<g>
					<path class="st2" d="M425.4,110.6c4.1-2.8,7.1-6,9.6-10.3c5.2-9.2,9.4-19.3,13.6-29.1c-0.1-0.2-0.1-0.5-0.2-0.7
						c-2,4.2-4.1,8.2-5.8,11.9c-4.5,10-8.1,20.8-17.3,27.1c-3.7,2.5-7.1,4.9-9.7,8.7c-2.8,4.1-4.7,8.9-6.9,13.4
						c-3.5,7.2-7,14.3-10.4,21.5c0.2,0.4,0.4,0.7,0.6,1.1c4.5-9.3,8.8-18.8,13.2-28.1C415.4,119.1,419.2,114.7,425.4,110.6z"/>
				</g>
			</g>
			<g>
				<g>
					<path class="st2" d="M394.3,91c0.8-7.4,7.4-12,13.4-14.8c10.1-4.6,19.8-7.3,28.2-15.1c2.3-2.1,4.3-4.4,6.2-6.8
						c-0.1-0.3-0.3-0.5-0.4-0.8c-3.4,4.2-7.4,8-11.9,11.1c-9,6.3-20.7,7.4-29.2,14.4c-7.7,6.3-6.7,13.6-6.8,22.8
						c-0.1,7.5-2.6,14.9-4.7,22c-0.9,3.3-1.9,6.7-2.8,10c0.2,0.4,0.4,0.7,0.6,1.1c2.7-8.6,5.3-17.5,6.8-26.3
						C394.8,102.7,393.6,97,394.3,91z"/>
				</g>
			</g>
			<g>
				<g>
					<path class="st2" d="M382.9,71.4c1.8-1.9,4-3.4,5.9-5.1c3.7-3.5,6.4-8.1,10.1-11.6c10.2-9.9,21.4,1,32.9-2.6
						c2.4-0.8,4.5-2,6.5-3.5c-0.2-0.3-0.4-0.5-0.6-0.8c-3.5,2.6-7.6,4.2-12.3,3.8c-9.9-0.7-18.2-6.1-26.7,1.8
						c-3.7,3.5-6.5,8-10.2,11.4c-3.6,3.3-7.5,5.6-9.3,10.4c-1.9,5.1-1.9,10.7-3.7,15.8c0,1,0,2,0.1,2.9c1.3-3.5,2.2-7.1,2.8-10.6
						C379,78.9,379.8,74.8,382.9,71.4z"/>
				</g>
			</g>
			<g>
				<g>
					<path class="st2" d="M405.6,40.9c1.8-0.6,3.7-1.2,5.6-2c2.4-1,4.8-2.2,6.7-3.8c-0.6-0.1-1.3-0.2-1.9-0.3
						c-2.4,1.7-5.3,2.9-8.1,3.9c-2.4,0.8-4.7,1.4-6.6,1.8c-2.3,0.5-4.5,0.7-6.7,0.5c-0.5,0.4-1.1,0.9-1.6,1.4
						C397.2,42.9,401.7,42.2,405.6,40.9z"/>
				</g>
			</g>
			<g>
				<g>
					<path class="st2" d="M439.1,133.6c0.3-0.5,0.5-1,0.8-1.5c2.1-9.4,5.5-18,9.6-26.3c0.2-1.1,0.4-2.2,0.6-3.3
						C444.8,112.3,440.6,122.6,439.1,133.6z"/>
				</g>
			</g>
			<g>
				<g>
					<path class="st2" d="M416.3,200.4c1.5-6.2,0.5-11.9-2.2-17.6c-2.1-4.3-5.4-11.4-10.3-13.3c0,0.1,0,0.3,0,0.4c0,0,0,1,0,1.1
						c5.8,2.9,10.1,12.4,11.6,17.7c2.4,8.3-2.5,14.6-1.7,22.5c0.4,3.7,2.4,6.7,4.5,9.6c0-0.6,0-1.2,0-1.9c-0.8-1-1.5-2.1-2.1-3.2
						C413,209.3,415.1,205.8,416.3,200.4z"/>
				</g>
			</g>
			<g>
				<g>
					<path class="st2" d="M413.6,246.1c1.9-7.6-1.3-14.5-4.4-21.2c-3.3-7-5.7-13.4-2.7-21.1c1.4-3.6,3-7,3.2-10.9
						c0.3-5.9-1.9-11.6-5.9-15.6c0,0.1,0,1.4,0,1.5c2.3,2.5,4,5.5,4.8,9c1.5,6.4-1.2,11-3.2,16.7c-1.9,5.6-1.2,10.9,0.9,16.3
						c1.4,3.6,3.3,7,4.8,10.6c2.9,6.9,2.8,12.8-0.3,19.7c-2.2,5-4.6,9.9-7,14.9c0,1,0,1.2,0,2.2c1-2,1.9-4.1,2.9-6.1
						C409.1,256.9,412.2,251.7,413.6,246.1z"/>
				</g>
			</g>
			<g>
				<g>
					<path class="st2" d="M403.8,312c0,0.7,0,0.7,0,1.5c6.5-7.9,11.2-17.3,13.9-27.2c0-0.8,0-1.7,0-2.5
						C415.2,294.1,410.4,303.8,403.8,312z"/>
				</g>
			</g>
			<g>
				<g>
					<path class="st2" d="M403.8,292.3c2.3-2.2,4.2-4.9,5.9-7.6c2.2-3.7,4-7.8,5.8-11.8c0.7-1.6,1.4-4,2.4-5.7c0-0.4,0-0.7,0-1.1
						c-3.7,8.6-7.6,17.9-14,24.2C403.8,291.3,403.8,291.3,403.8,292.3z"/>
				</g>
			</g>
			<g>
				<g>
					<path class="st3" d="M417.2,393.6c0,1.5,0,3,0,4.4c0.8-3.8,0.6-7.2,0-10.7c0,0.9,0,1.7,0,2.6
						C417.3,391.1,417.3,392.4,417.2,393.6z"/>
				</g>
			</g>
			<g>
				<g>
					<path class="st3" d="M403.2,421c-0.2,0.3-0.1,1.4,0.2,1.1c0.1-0.2,0.2-0.3,0.4-0.5c0-0.2,0-1.3,0-1.4
						C403.6,420.4,403.4,420.7,403.2,421z"/>
				</g>
			</g>
			<g>
				<g>
					<path class="st2" d="M412.4,326.1c-4.7,5.6-2.8,13.7-1,20c1.6,5.6,3,11.4,0.9,17.1c-0.9,2.5-2.8,4.7-4,7.1
						c-1.5,3.2-1.9,6.6-1.5,10.1c0.7,6.6,3.5,12.5,3.5,19.2c0,4.3-0.9,8.4-2.3,12.2c-1.2,1.2-2.5,2.3-3.9,3.3
						c-0.2,0.1-0.2,1.1,0.1,0.9c1-0.5,1.9-1.1,2.8-1.7c-0.9,2-2,3.9-3.2,5.7c0,0.2,0,1.3,0,1.4c1.8-2.5,3.4-5.3,4.5-8.2
						c4.2-3.6,7.2-8.8,8.6-14.2c0.1-0.4,0.2-0.8,0.3-1.2c0-1.4,0-2.9,0-4.4c-0.5,6.6-3.5,12.5-8,17.2c1.5-4.9,2.1-10.2,1.5-15.4
						c-0.9-8.4-5.6-16.3-1.6-24.7c2.1-4.3,4.9-7.6,5.2-12.6c0.3-4.5-1.2-8.8-2.4-13c-1.6-5.3-3.3-11.5,0-16.6
						c1.4-2.2,3.7-3.5,5.5-5.2c0-0.5,0-1,0-1.6C415.9,323.3,413.9,324.3,412.4,326.1z"/>
				</g>
			</g>
			<g>
				<g>
					<path class="st2" d="M414.8,338.5c-0.1,3.8,1.6,7.9,2.6,11.5c0-0.7,0-1.3,0-2c-1.3-4.5-2.2-9-0.5-13.3c0.2-0.4,0.4-0.8,0.6-1.2
						c0-0.4,0-0.8,0-1.2c-0.1,0.2-0.2,0.3-0.3,0.5C415.9,334.6,414.9,336.2,414.8,338.5z"/>
				</g>
			</g>
			<g>
				<g>
					<path class="st2" d="M417.3,368c-0.5,0.9-1.3,1.6-1.9,2.5c-3.4,5.9,1.1,12.4,1.8,18.4c0,0.3,0.1,0.7,0.1,1c0-0.8,0-1.7,0-2.6
						c-0.5-2.6-1.2-5.3-1.8-8.2c-1.1-4.6,0.3-6.9,1.9-9.3C417.3,369.2,417.3,368.6,417.3,368C417.3,367.9,417.3,368,417.3,368z"/>
				</g>
			</g>
		</g>
		<g>
			<g>
				<path class="st2" d="M413.3,43.2c-15.3,0.3-28.5,25.4-29,45.8c-0.5,20.4,11.3,61.7,27.5,59.9c16.9-1.9,29.3-33,30.5-57.9
					C443.6,66.1,431.2,42.9,413.3,43.2z"/>
			</g>
		</g>
		<g>
			<g>
				<path class="st3" d="M413.7,47.4c-12.9,0.2-24,23.4-24.4,42.1c-0.4,18.8,9.6,56.8,23.3,55.2c14.3-1.7,24.6-30.3,25.6-53.3
					C439.2,68.5,428.8,47.1,413.7,47.4z"/>
			</g>
		</g>
		<g>
			<g>
				<path class="st4" d="M412.6,144.7c14.3-1.7,24.6-30.3,25.6-53.3c0.8-17.7-5.3-34.5-15-41.1c1,7,1.9,21.2-4.5,35.2
					c-7.8,17-23.4,22.1-27.4,23.2C394.9,126.6,402.8,145.8,412.6,144.7z"/>
			</g>
		</g>
		<g class="st5">
			<g>
				<path class="st2" d="M411.2,435.7L411.2,435.7c-1.5,0-2.7-1.2-2.7-2.6V171.6c0-1.4,1.2-2.6,2.7-2.6l0,0c1.5,0,2.7,1.2,2.7,2.6
					v261.5C413.8,434.5,412.6,435.7,411.2,435.7z"/>
			</g>
		</g>
	</g>
	<g>
		<g>
			<g>
				<path class="st6" d="M124.4,324c0,0-31.4-5.8-32.9,11c-1.5,16.8,0,22.7,7.3,26.3c7.3,3.7,33.2,5.4,40.5,3.3
					C146.5,362.4,133.9,329.2,124.4,324z"/>
			</g>
		</g>
		<g>
			<g>
				<path class="st7" d="M98.8,361.3c7.3,3.7,23.2,7.2,36.8,4.1c4.8-1.1,4.6-5.4,1-18.8c-5.1,0.5-17.8,1-28.9-1
					C93.3,343.1,91.4,335,91.4,335C90,351.8,91.4,357.7,98.8,361.3z"/>
			</g>
		</g>
		<g>
			<g>
				<path class="st8" d="M126,329c0,0-21.4-2.7-22.1,4.6c-0.7,7.3,9.4,8.6,21.1,8.1c6.7-0.3,7.8-1.9,7.8-1.9L126,329z"/>
			</g>
		</g>
		<g>
			<g>
				<path class="st6" d="M383.6,324c0,0,31.4-5.8,32.9,11c1.5,16.8,0,22.7-7.3,26.3c-7.3,3.7-28.5,5.4-35.8,3.3
					C366.1,362.4,374.1,329.2,383.6,324z"/>
			</g>
		</g>
		<g>
			<g>
				<path class="st7" d="M409.2,361.3c-7.3,3.7-19.6,6.2-34.8,4.7c-4.9-0.5-4.7-8.8-1-22.2c4,2.5,11.9,3.2,24.8,1.5
					c19.3-2.6,18.3-10.2,18.3-10.2C418,351.8,416.5,357.7,409.2,361.3z"/>
			</g>
		</g>
		<g>
			<g>
				<path class="st8" d="M380.5,329.5c0,0,22.8-3.2,23.6,4.1c0.7,7.3-17.3,6.6-24.1,6.1c-3.9-0.3-4.8,0.1-4.8,0.1L380.5,329.5z"/>
			</g>
		</g>
		<g>
			<g>
				<path class="st6" d="M253.7,313.1l-129.7-5.4l-2.5,3.3c1.9,18.9,9.5,72.7,31.1,97.9c27,31.4,42.8,32.6,61,35.8
					c19,3.4,37.3,3.3,40.1,3.3c2.8,0,21.1,0.1,40.1-3.3c18.2-3.2,34.1-4.4,61-35.8c20.4-23.8,30.1-76.7,32.6-97.6l-1.3-3.7
					L253.7,313.1z"/>
			</g>
		</g>
		<g>
			<g>
				<ellipse class="st9" cx="254.4" cy="309.3" rx="133.1" ry="45.1"/>
			</g>
		</g>
		<g>
			<g>
				<path class="st9" d="M254.4,264.2c73.5,0,133.1,20.2,133.1,45.1L254.4,264.2z"/>
			</g>
		</g>
		<g>
			<g>
				<ellipse class="st6" cx="254.4" cy="307.7" rx="123.1" ry="40.2"/>
			</g>
		</g>
		<g>
			<g>
				<path class="st7" d="M272.5,305.6c-55.5,0-83.5,24.2-91.8,34c0.6,0.5,3.2,0.7,3.7,1.2c19.9,4.5,43.9,7.1,69.9,7.1
					c37.7,0,71.4-5.5,94-14.3C335.8,320.8,312.6,305.6,272.5,305.6z"/>
			</g>
		</g>
		<g>
			<g>
				<g>
					<path class="st6" d="M368,353.8c0.2,0,0.4,0,0.5,0c3.4-8.7,6.6-18,9-27.4c-19.9,16.4-67.5,28-123.2,28
						c-31.2,0-59.9-3.6-82.6-9.7c3.8,10.8,8.2,21,12.6,29.6c2.9,5.8,6,11,9.2,15.7c2.7-2.3,5.6-4,9.4-2.9c4.5,1.2,7.2,5.5,11.5,7.1
						c4.6,1.6,7.2-2.4,10.2-5.1c3.1-2.9,6.5-4.5,10.5-2.3c2.4,1.3,3.9,3.7,6.4,4.9c3.3,1.6,6.7,1.2,10-0.2c4.5-2,8.5-5.3,13.8-4.3
						c4.6,0.9,7.5,4.7,11.8,6.3c8.6,3.2,11.1-12.1,20.4-9.1c5,1.6,6.7,8.7,12.7,7c5.2-1.5,8.7-8.1,13.5-10.8
						c4.7-2.6,9.2-1.6,12.8,2.4c1.3,1.5,2.6,4.3,4.4,5.1c3,1.3,5.2-2.1,6.5-4.2c2.5-4.1,4.8-9,10.1-9.9c0.8-0.1,1.6-0.2,2.4-0.1
						c1.5-3,3-6.2,4.5-9.5C360.5,361.3,361.8,353.8,368,353.8z M211.1,382.9c-7.8,0-7.8-12.2,0-12.2
						C219,370.7,219,382.9,211.1,382.9z M247.7,384.2c-7.8,0-7.8-12.2,0-12.2C255.5,372.1,255.5,384.2,247.7,384.2z M281.5,382.2
						c-7.8,0-7.8-12.2,0-12.2C289.3,370,289.3,382.2,281.5,382.2z M313.2,380.9c-7.8,0-7.8-12.2,0-12.2
						C321.1,368.7,321.1,380.9,313.2,380.9z M345.7,374.1c-7.8,0-7.8-12.2,0-12.2C353.5,361.9,353.5,374.1,345.7,374.1z"/>
				</g>
			</g>
			<g>
				<g>
					<path class="st7" d="M354.3,388.1c-2.5,4-4.9,9.8-9.8,11.3c-3.9,5.3-7.8,9.6-11.8,13c0.6,0.4,1.2,0.8,1.9,1
						c4.4,1.5,8-3.1,10.9-5.7c2.6-2.3,5.4-4.7,8.9-5.3c1.3-0.2,3.2,0,5.2,0.3c3-4.4,5.7-9.4,8-14.6
						C362.7,385.8,358.1,382.3,354.3,388.1z"/>
				</g>
			</g>
			<g>
				<g>
					<path class="st7" d="M169.9,406.9c5.2,0.4,8.1,6.4,13.6,7c3.3,0.4,6.3-0.5,9-2.2c1.7-1.1,3.2-2.7,5.2-3.1
						c4.2-0.8,7.2,2.9,10.3,5.1c2.3,1.7,4.9,2.6,7.8,2.3c0.7-0.1,1.3-0.2,1.8-0.4c-6.7-4.9-13.5-11.4-20-19.8
						c-1.6,1-2.8,2.7-4.2,3.8c-2.9,2.5-6.2,3.5-10,2.3c-4-1.3-7.2-4.4-10.6-6.8c-1.4-0.9-3-2.1-4.7-2.4c-3.2-0.5-4.8,1.9-7.1,3.5
						c-4.4,3-9.3,1.3-12.9-2.1c-1.8-1.7-5.8-7.2-9.4-7.9c3.7,8.5,8.2,16.4,13.6,22.7c1.7,1.9,3.3,3.7,4.8,5.5
						c0.9-0.4,1.9-0.9,2.8-1.7C163.1,410.4,165.7,406.6,169.9,406.9z"/>
				</g>
			</g>
			<g>
				<g>
					<path class="st10" d="M217.7,415.5c2.3-0.8,3.9-2.5,6-3.9c6.8-4.4,11.9,3.4,17.9,5.4c8.2,2.7,11.8-10.8,20.5-5.2
						c4.7,3.1,7.2,7.2,13.6,6.6c5.7-0.6,7.1-4.7,11.3-7.6c7.6-5.3,14.5,7.5,22.4,2c4.9-3.4,9.5-11.5,16.4-7.5c2.8,1.6,4.3,5.1,6.9,7
						c4-3.4,7.9-7.7,11.8-13c-0.7,0.2-1.4,0.3-2.1,0.4c-6.5,0.3-7.2-6.5-11.7-9.2c-5.7-3.4-11.9,5.7-16.2,8.3
						c-4.1,2.6-8.6,3-12.6-0.2c-3.5-2.9-5.7-7.7-10.3-3.5c-2.9,2.6-5,6.1-8.8,7.5c-4.6,1.7-8.6-0.9-12.2-3.5
						c-2.4-1.7-4.7-3.5-7.8-3.5c-2.5,0.1-4.9,1.6-7.1,2.7c-5,2.5-10.2,3.9-15.6,1.3c-4.9-2.3-7.4-8.6-12.7-3.7
						c-3.1,2.9-5.9,6.8-10.5,6.9c-3.9,0-7.2-2.8-10.1-5.1c-1.8-1.4-4-3.2-6.4-3.1c-1,0.1-1.9,0.4-2.6,1
						C204.2,404.1,211.1,410.7,217.7,415.5z"/>
				</g>
			</g>
			<g>
				<g>
					<path class="st7" d="M347.5,412.6c-2.9,2.5-6.2,5.9-10.2,6.3c-3.4,0.3-5.8-1.6-7.9-3.8c-6.8,5.2-14,8.3-22,10.7
						c-23.3,7.1-45.6,7.1-69.9,0c-4.8-1.4-10.2-3.9-15.9-7.6c0,0,0,0,0,0c-1.7,1.1-3.6,1.9-5.6,2.1c-5.1,0.5-8.1-2.4-11.9-5.3
						c-3.4-2.6-5.6-3.1-9.1-0.6c-1.9,1.3-3.7,2.5-6,3.1c-3.9,1-8,0.4-11.5-1.6c-2.5-1.5-4.5-4.5-7.6-4.9c-3-0.3-4.9,1.8-7,3.7
						c-1,0.9-2,1.7-3.1,2.4c22.6,23.5,37.1,24.7,53.6,27.7c19,3.4,37.3,3.3,40.1,3.3c2.8,0,21.1,0.1,40.1-3.3
						c18.2-3.2,34.1-4.4,61-35.8c0.2-0.3,0.4-0.5,0.7-0.8c-0.5,0-1,0.1-1.5,0.3C351.4,409.1,349.4,411,347.5,412.6z"/>
				</g>
			</g>
			<g>
				<g>
					<path class="st10" d="M306.9,419.1c-4.1,0.9-7.6-1.5-11.1-3.3c-2.1-1.1-4.5-2.3-6.9-1.2c-2.1,1-3.3,3.6-5.1,5.1
						c-3.3,2.8-7.8,3.9-12.1,3c-4.3-0.8-6.6-3.7-9.9-6.3c-6.1-4.7-8.9,1.7-13.8,4.3c-3.1,1.6-6.1,1.1-9.1-0.5
						c-3.5-1.8-7-5.9-11.2-5.7c-2.6,0.1-4.1,2.4-6.1,3.7c5.7,3.7,11.1,6.2,15.9,7.6c24.3,7.1,46.6,7.1,69.9,0
						c8-2.4,15.1-5.6,22-10.7c-0.6-0.6-1.2-1.3-1.7-2C319.4,403.6,315,417.3,306.9,419.1z"/>
				</g>
			</g>
			<g>
				<g>
					<path class="st11" d="M344.5,399.4c4.9-1.5,7.2-7.3,9.8-11.3c3.8-5.9,8.4-2.3,13.3,0c1.4-3.2,2.8-6.4,4-9.7
						c-2.8-1-6.6-2.7-7-2.9c-1.6-0.7-3.3-1.3-5.1-1.4c-0.1,0.1-0.1,0.2-0.2,0.3C354.3,384.7,349.4,392.8,344.5,399.4z"/>
				</g>
			</g>
			<g>
				<g>
					<path class="st12" d="M148.3,394.2c3.6,3.4,8.5,5.2,12.9,2.1c2.3-1.6,4-4,7.1-3.5c1.7,0.3,3.4,1.4,4.7,2.4
						c3.4,2.3,6.6,5.5,10.6,6.8c3.8,1.2,7,0.1,10-2.3c1.4-1.1,2.6-2.8,4.2-3.8c-1.4-1.8-2.8-3.7-4.2-5.7c-0.3,0.3-0.6,0.6-1,0.9
						c-4,3.8-7,4.4-11.8,1.4c-3.6-2.3-7-5.9-11.4-6.9c-1.6-0.4-3.3-0.4-4.9,0.2c-2.6,0.9-4.1,3.8-6.6,4.6c-6.4,2-10.6-8.9-16.1-10.7
						c-2.1-0.7-4-0.7-5.7,0c0.9,2.3,1.8,4.6,2.8,6.8C142.5,387,146.5,392.4,148.3,394.2z"/>
				</g>
			</g>
			<g>
				<g>
					<path class="st9" d="M357.1,374.1c-5.3,0.9-7.6,5.8-10.1,9.9c-1.3,2.1-3.5,5.5-6.5,4.2c-1.9-0.8-3.1-3.6-4.4-5.1
						c-3.6-4-8-5-12.8-2.4c-4.8,2.7-8.3,9.3-13.5,10.8c-6,1.7-7.7-5.4-12.7-7c-9.2-3-11.8,12.3-20.4,9.1c-4.3-1.6-7.1-5.5-11.8-6.3
						c-5.2-1-9.2,2.3-13.8,4.3c-3.3,1.5-6.7,1.8-10,0.2c-2.4-1.2-4-3.6-6.4-4.9c-4-2.2-7.4-0.6-10.5,2.3c-2.9,2.7-5.6,6.8-10.2,5.1
						c-4.3-1.5-7-5.8-11.5-7.1c-3.8-1.1-6.7,0.6-9.4,2.9c1.4,2,2.8,3.9,4.2,5.7c0.8-0.5,1.7-0.9,2.6-1c2.5-0.1,4.6,1.7,6.4,3.1
						c2.9,2.2,6.2,5.1,10.1,5.1c4.6,0,7.5-4,10.5-6.9c5.3-4.9,7.8,1.3,12.7,3.7c5.3,2.6,10.5,1.2,15.6-1.3c2.2-1.1,4.5-2.6,7.1-2.7
						c3.1-0.1,5.4,1.8,7.8,3.5c3.6,2.5,7.6,5.2,12.2,3.5c3.8-1.4,6-4.9,8.8-7.5c4.6-4.1,6.8,0.7,10.3,3.5c3.9,3.2,8.4,2.8,12.6,0.2
						c4.2-2.6,10.5-11.8,16.2-8.3c4.5,2.7,5.2,9.4,11.7,9.2c0.8,0,1.5-0.2,2.1-0.4c4.9-6.6,9.8-14.7,14.9-25.1
						c0-0.1,0.1-0.2,0.2-0.3C358.8,373.9,358,373.9,357.1,374.1z"/>
				</g>
			</g>
			<g>
				<g>
					<path class="st12" d="M354.4,402.4c-3.5,0.7-6.4,3-8.9,5.3c-2.9,2.6-6.5,7.2-10.9,5.7c-0.7-0.2-1.3-0.6-1.9-1
						c-1.1,1-2.2,1.9-3.3,2.7c2.1,2.3,4.5,4.2,7.9,3.8c4-0.4,7.3-3.8,10.2-6.3c2-1.7,3.9-3.5,6.5-4.2c0.5-0.1,1-0.2,1.5-0.3
						c1.4-1.7,2.8-3.6,4.1-5.5C357.6,402.4,355.7,402.1,354.4,402.4z"/>
				</g>
			</g>
			<g>
				<g>
					<path class="st12" d="M169.9,411c3.1,0.3,5.1,3.4,7.6,4.9c3.4,2.1,7.6,2.6,11.5,1.6c2.3-0.6,4.1-1.8,6-3.1
						c3.5-2.5,5.8-2,9.1,0.6c3.7,2.9,6.8,5.8,11.9,5.3c2-0.2,3.9-1,5.6-2.1c0,0,0,0,0,0c-1.3-0.8-2.6-1.7-3.9-2.7
						c-0.6,0.2-1.2,0.4-1.8,0.4c-2.9,0.3-5.4-0.6-7.8-2.3c-3.1-2.2-6.1-5.9-10.3-5.1c-2.1,0.4-3.6,2-5.2,3.1c-2.7,1.8-5.8,2.6-9,2.2
						c-5.5-0.6-8.3-6.6-13.6-7c-4.2-0.4-6.8,3.4-9.8,5.8c-0.9,0.8-1.9,1.3-2.8,1.7c0.9,0.9,1.7,1.8,2.5,2.7c1-0.7,2-1.5,3.1-2.4
						C165.1,412.9,166.9,410.7,169.9,411z"/>
				</g>
			</g>
			<g>
				<g>
					<path class="st9" d="M325.8,405.4c-7-4.1-11.5,4-16.4,7.5c-7.9,5.5-14.8-7.3-22.4-2c-4.2,2.9-5.6,7-11.3,7.6
						c-6.3,0.6-8.9-3.5-13.6-6.6c-8.7-5.7-12.3,7.9-20.5,5.2c-6-2-11.1-9.8-17.9-5.4c-2.1,1.4-3.7,3.1-6,3.9c1.3,1,2.6,1.9,3.9,2.7
						c2-1.3,3.5-3.6,6.1-3.7c4.2-0.2,7.7,3.9,11.2,5.7c3,1.6,6,2.1,9.1,0.5c4.9-2.6,7.8-9,13.8-4.3c3.3,2.6,5.6,5.4,9.9,6.3
						c4.2,0.8,8.8-0.3,12.1-3c1.8-1.5,3-4.1,5.1-5.1c2.4-1.1,4.8,0.1,6.9,1.2c3.5,1.8,7,4.2,11.1,3.3c8.1-1.8,12.4-15.4,20.7-6
						c0.6,0.7,1.2,1.3,1.7,2c1.1-0.8,2.2-1.7,3.3-2.7C330.2,410.5,328.6,407,325.8,405.4z"/>
				</g>
			</g>
			<g>
				<g>
					<path class="st11" d="M145.6,372.1c7.8,0,7.8-12.2,0-12.2C137.7,359.9,137.7,372.1,145.6,372.1z"/>
				</g>
			</g>
			<g>
				<g>
					<path class="st11" d="M175.3,380.2c7.8,0,7.8-12.2,0-12.2C167.5,368,167.5,380.2,175.3,380.2z"/>
				</g>
			</g>
			<g>
				<g>
					<path class="st11" d="M211.1,370.7c-7.8,0-7.8,12.2,0,12.2C219,382.9,219,370.7,211.1,370.7z"/>
				</g>
			</g>
			<g>
				<g>
					<path class="st11" d="M247.7,372.1c-7.8,0-7.8,12.2,0,12.2C255.5,384.2,255.5,372.1,247.7,372.1z"/>
				</g>
			</g>
			<g>
				<g>
					<path class="st11" d="M281.5,370c-7.8,0-7.8,12.2,0,12.2C289.3,382.2,289.3,370,281.5,370z"/>
				</g>
			</g>
			<g>
				<g>
					<path class="st11" d="M313.2,368.7c-7.8,0-7.8,12.2,0,12.2C321.1,380.9,321.1,368.7,313.2,368.7z"/>
				</g>
			</g>
			<g>
				<g>
					<path class="st11" d="M345.7,361.9c-7.8,0-7.8,12.2,0,12.2C353.5,374.1,353.5,361.9,345.7,361.9z"/>
				</g>
			</g>
			<g>
				<g>
					<path class="st11" d="M368.5,353.8c-1.5,3.7-3,7.3-4.5,10.7c1,0.9,2.3,1.5,4,1.5C375.6,366,375.8,354.4,368.5,353.8z"/>
				</g>
			</g>
			<g>
				<g>
					<path class="st11" d="M368,353.8c-6.1,0-7.5,7.5-4,10.7c1.5-3.4,3-7,4.5-10.7C368.4,353.8,368.2,353.8,368,353.8z"/>
				</g>
			</g>
		</g>
		<g>
			<g>
				<path class="st10" d="M191.5,272.5c-15.4,0.9-36,9-47.4,17.4c-33.7,24.7,4.8,40.5,25.2,46.9c-2.5-0.8-1.8-18.9-1.5-21.5
					c0.5-6.2,2-12.2,4.8-17.8c5.4-10.9,14.7-18.1,24.5-24.8C195.3,272.5,193.5,272.4,191.5,272.5z"/>
			</g>
		</g>
		<g class="st13">
			<g>
				<path class="st14" d="M192.3,381.6c-21.5,4.5-55.5-20.6-31.6-24.3C184.5,353.8,218.5,376.1,192.3,381.6z"/>
			</g>
		</g>
		<g class="st13">
			<g>
				<path class="st14" d="M356.3,368.3c-9.4,28.5-51.4,55.6-39.8,24.8C328,362.2,367.7,333.5,356.3,368.3z"/>
			</g>
		</g>
	</g>
	<g>
		<g>
			<g>
				<path class="st6" d="M128.7,237.1c1.1,26.6,29.7,85.8,69.4,94.1c39.7,8.3,106.5,2.1,135.9-14.9c29.4-17,53.1-72.9,46.1-109.3
					C372.3,166.3,127.2,200.5,128.7,237.1z"/>
			</g>
		</g>
		<g>
			<g>
				<path class="st15" d="M356.1,295.1c-10.7,7.1-38.1,21.6-91,26.7c-46.4,4.5-78.2,0-91.6-2.7c7.5,5.9,15.8,10.3,24.6,12.1
					c39.7,8.3,106.5,2.1,135.9-14.9C341.9,311.7,349.5,304.2,356.1,295.1z"/>
			</g>
		</g>
		<g>
			<g>
				<path class="st6" d="M128.7,237.1c0.1,2.5,0.5,5.3,1,8.4c10.7,5.3,41.9,13.4,127.5,1.3c91.3-12.9,116.9-26.9,123.8-32.5
					c-0.2-2.5-0.5-5-1-7.4C372.3,166.3,127.2,200.5,128.7,237.1z"/>
			</g>
		</g>
		<g>
			<g>
				<path class="st16" d="M256.3,240.5c-17.9,2.5-125,10.2-123.5-2.9c1.5-13.1,73.4-30.7,117.2-36.9c30.5-4.3,121.6-5.4,123.3,6.1
					C374.9,218.4,283.5,236.6,256.3,240.5z"/>
			</g>
		</g>
		<g class="st17">
			<g>
				<path class="st18" d="M210.4,244.1c20.8-1,39.3-2.6,45.9-3.6c18.6-2.6,67.1-12,95.5-21.3c-8.2-12.7-22.3-23-46.7-20.9
					C252,202.8,216.2,238,210.4,244.1z"/>
			</g>
		</g>
		<g>
			<g>
				<g>
					<path class="st7" d="M282.1,277.5c-10.3,6.1-22.2,11.5-35.4,15.2c2-0.4,4.1,0,6.2,1.7c2.3,2,3.3,6.3,6.6,7
						c2,0.4,3.9-0.8,5.5-1.9c3.3-2.2,5.9-5.3,9-7.7c2.5-1.9,5.5-3.7,8.7-3.2c4.8,0.8,7.5,9.3,12.4,7.9c3.7-1.1,5.5-6.6,7.7-9.2
						c1.3-1.5,2.9-2.8,4.6-3.6c2.7-1.2,6.2-1.2,7.9,1.6c1.3,2.2-0.7,3.9,3.3,4.2c2.9,0.2,4.5-1.9,5.9-3.8c1.6-2.2,2.7-4.7,4.6-6.6
						c2.3-2.3,6.3-4.2,9.5-2.9c2.6,1,2.3,3.2,3.9,4.8c5.5,5.6,8-1,9.8-4.9c1.8-3.8,3.8-7.2,8.3-8c1.1-0.2,1.7,0.8,1.7,1.7
						c-0.1,3.7,2.3,5.7,4.9,5.8c3.7-7.5,6.7-15.5,9-23.6c-12.1,5.5-24.8,9.6-37.7,13C320.1,270.3,301.2,274.4,282.1,277.5z"/>
				</g>
			</g>
			<g>
				<g>
					<path class="st7" d="M223.3,297.1c1.7,2.5,2.6,6.1,6.3,6.2c2,0,4-1.6,5.5-2.8c3-2.3,6.6-6.2,10.5-7.5
						C238.5,294.9,231.1,296.4,223.3,297.1z"/>
				</g>
			</g>
			<g>
				<g>
					<path class="st7" d="M168.6,302.7c1.9,1.7,3.9,3.7,6.8,2.1c1.4-0.7,2-2.8,2.8-4c1-1.6,1.9-3.3,3.6-4.2c4-2.2,7.3,0.7,10.1,3.4
						c2.3,2.3,4.6,5,8.2,4.1c2.1-0.5,4-2.3,5.6-3.7c0.8-0.8,1.7-1.6,2.6-2.4c-24.2-0.3-41.2-7.2-53-15.9c-4.1-0.5-8.3-1-12.4-1.6
						c3.1,5.8,6.6,11.5,10.5,16.9c1-0.4,2.1-0.7,3.2-0.8C161.7,295.8,164.9,299.4,168.6,302.7z"/>
				</g>
			</g>
			<g>
				<g>
					<path class="st7" d="M359.7,271.9c-5,2.4-5.5,11.5-11,14.3c-1.5,0.7-3.1,1.2-4.7,0.7c-2.6-0.7-2.7-2.7-4.1-4.5
						c-7.1-9.2-11,4.9-15.8,8.6c-3.1,2.4-8.4,2.5-10.9-1c-1.5-2.1-0.6-5-4.6-3.3c-3.2,1.3-4.7,4.6-6.5,7.3c-2.1,3-5.1,6.5-9.2,6.1
						c-5.5-0.5-6.5-8.5-11.8-8.3c-3.7,0.2-7.2,4.2-9.8,6.6c-4.4,4-10.7,9.3-16.2,4c-2.4-2.2-3.4-6.7-7.2-6.8c-2,0-4,1.6-5.5,2.8
						c-2.9,2.2-5.4,5-8.6,6.7c-2.6,1.4-5.5,1.8-8.1,0.2c-2.7-1.6-4.1-5.7-6.3-7.8c-1.4,0.1-2.9,0.2-4.4,0.2c-0.8,0-1.5,0-2.2,0.1
						c-5.3,3.7-10.1,11.9-17.5,8.8c-4.1-1.7-8.8-10.9-13.4-6.2c-2.6,2.7-2.8,6.9-7,7.9c-4.1,1-7.3-2.4-10-5
						c-2.4-2.2-4.7-4.2-8.2-3.8c-0.6,0.1-1.1,0.2-1.6,0.4c11.6,15.3,26.3,27.8,43.1,31.3c39.7,8.3,106.5,2.1,135.9-14.9
						c12.3-7.1,23.6-21.1,32.1-37.5C363,278,360.3,275.6,359.7,271.9z"/>
				</g>
			</g>
			<g>
				<g>
					<path class="st16" d="M140.9,267.8c-1.5-0.2-2.9-0.4-4.4-0.7c1.8,4.4,3.9,8.8,6.3,13.3c4.1,0.6,8.3,1.1,12.4,1.6
						C149.1,277.5,144.5,272.6,140.9,267.8z"/>
				</g>
			</g>
			<g>
				<g>
					<path class="st7" d="M340.4,252.4c-11.5,3.2-23.1,6-34.8,8.4c-6.6,5.6-14.5,11.4-23.6,16.7c19.1-3.1,38-7.2,56.7-12.1
						c12.9-3.4,25.6-7.5,37.7-13c1.4-5.1,2.6-10.1,3.4-15.2C367.5,243.9,354,248.6,340.4,252.4z"/>
				</g>
			</g>
			<g>
				<g>
					<path class="st16" d="M164.9,303.3c2.7,2.5,5.9,6,10,5c4.2-1,4.4-5.2,7-7.9c4.5-4.7,9.3,4.6,13.4,6.2
						c7.4,3.1,12.2-5.1,17.5-8.8c-1.6,0-3.2,0.1-4.7,0c-0.9,0.8-1.7,1.7-2.6,2.4c-1.6,1.4-3.4,3.2-5.6,3.7c-3.6,0.9-5.9-1.8-8.2-4.1
						c-2.7-2.7-6.1-5.7-10.1-3.4c-1.7,1-2.6,2.6-3.6,4.2c-0.8,1.3-1.4,3.3-2.8,4c-2.9,1.6-4.9-0.4-6.8-2.1
						c-3.7-3.3-6.9-6.8-12.3-6.2c-1.1,0.1-2.2,0.4-3.2,0.8c0.6,0.9,1.2,1.7,1.9,2.6c0.5-0.2,1.1-0.3,1.6-0.4
						C160.2,299.1,162.5,301.1,164.9,303.3z"/>
				</g>
			</g>
			<g>
				<g>
					<path class="st16" d="M362.5,270.1c0-0.9-0.6-1.9-1.7-1.7c-4.4,0.8-6.5,4.1-8.3,8c-1.8,3.8-4.4,10.4-9.8,4.9
						c-1.6-1.6-1.4-3.8-3.9-4.8c-3.3-1.3-7.2,0.6-9.5,2.9c-1.9,1.9-3,4.4-4.6,6.6c-1.4,1.9-3,4.1-5.9,3.8c-4-0.3-2-2.1-3.3-4.2
						c-1.7-2.8-5.2-2.9-7.9-1.6c-1.8,0.8-3.4,2.1-4.6,3.6c-2.3,2.6-4.1,8.2-7.7,9.2c-5,1.5-7.7-7.1-12.4-7.9
						c-3.2-0.5-6.2,1.3-8.7,3.2c-3.2,2.4-5.8,5.4-9,7.7c-1.6,1.1-3.5,2.3-5.5,1.9c-3.3-0.7-4.3-5-6.6-7c-2.1-1.8-4.1-2.2-6.2-1.7
						c-0.4,0.1-0.7,0.2-1.1,0.3c-3.9,1.3-7.6,5.2-10.5,7.5c-1.5,1.2-3.5,2.8-5.5,2.8c-3.6-0.1-4.6-3.7-6.3-6.2
						c-1.3,0.1-2.6,0.2-3.9,0.3c2.2,2.1,3.6,6.2,6.3,7.8c2.6,1.6,5.5,1.2,8.1-0.2c3.2-1.7,5.7-4.5,8.6-6.7c1.5-1.2,3.5-2.8,5.5-2.8
						c3.8,0.1,4.8,4.5,7.2,6.8c5.6,5.2,11.8-0.1,16.2-4c2.6-2.3,6.1-6.4,9.8-6.6c5.4-0.3,6.4,7.8,11.8,8.3c4.1,0.4,7.1-3.1,9.2-6.1
						c1.9-2.6,3.3-6,6.5-7.3c4-1.6,3,1.2,4.6,3.3c2.5,3.5,7.8,3.4,10.9,1c4.9-3.7,8.8-17.8,15.8-8.6c1.4,1.8,1.5,3.8,4.1,4.5
						c1.6,0.5,3.2,0,4.7-0.7c5.5-2.7,5.9-11.9,11-14.3c0.7,3.8,3.3,6.1,6.3,6.9c0.5-0.9,0.9-1.9,1.4-2.8
						C364.8,275.8,362.4,273.9,362.5,270.1z"/>
				</g>
			</g>
			<g>
				<g>
					<path class="st10" d="M288.1,264.2c5.9-1,11.7-2.2,17.6-3.4c16.6-14,25.5-26.6,25.5-26.6l-95.7,16.7l-77.7,0.3l-28-5.7
						c0,0,2.3,10.6,11.1,22.3c13.6,2.1,27.3,3.4,41.1,4.1C217.5,273.5,253.1,270.4,288.1,264.2z"/>
				</g>
			</g>
			<g>
				<g>
					<path class="st19" d="M155.1,282c11.8,8.7,28.7,15.6,53,15.9c2-1.9,4-3.7,6.6-4.4c3.6-1.1,6.5,0.8,8.5,3.7c0,0,0,0.1,0.1,0.1
						c7.8-0.8,15.3-2.2,22.3-4.1c0.4-0.1,0.7-0.2,1.1-0.3c13.2-3.7,25.1-9.1,35.4-15.2C240.1,284.4,197.3,286.6,155.1,282z"/>
				</g>
			</g>
			<g>
				<g>
					<path class="st10" d="M155.1,282c11.8,8.7,28.7,15.6,53,15.9c2-1.9,4-3.7,6.6-4.4c3.6-1.1,6.5,0.8,8.5,3.7c0,0,0,0.1,0.1,0.1
						c7.8-0.8,15.3-2.2,22.3-4.1c0.4-0.1,0.7-0.2,1.1-0.3c13.2-3.7,25.1-9.1,35.4-15.2C240.1,284.4,197.3,286.6,155.1,282z"/>
				</g>
			</g>
			<g>
				<g>
					<path class="st19" d="M213.8,297.2c-0.3,0.2-0.7,0.4-1,0.6c0.7,0,1.5,0,2.2-0.1c1.5-0.1,2.9-0.1,4.4-0.2
						C218,296.2,216.3,295.7,213.8,297.2z"/>
				</g>
			</g>
			<g>
				<g>
					<path class="st10" d="M213.8,297.2c-0.3,0.2-0.7,0.4-1,0.6c0.7,0,1.5,0,2.2-0.1c1.5-0.1,2.9-0.1,4.4-0.2
						C218,296.2,216.3,295.7,213.8,297.2z"/>
				</g>
			</g>
			<g>
				<g>
					<path class="st16" d="M155.1,282c42.2,4.6,85,2.4,126.9-4.4c9-5.3,16.9-11.1,23.6-16.7c-5.8,1.2-11.7,2.3-17.6,3.4
						c-34.9,6.2-70.6,9.4-106.1,7.7c-13.8-0.6-27.5-2-41.1-4.1C144.5,272.6,149.1,277.5,155.1,282z"/>
				</g>
			</g>
			<g class="st17">
				<g>
					<path class="st18" d="M155.1,282c42.2,4.6,85,2.4,126.9-4.4c9-5.3,16.9-11.1,23.6-16.7c-5.8,1.2-11.7,2.3-17.6,3.4
						c-34.9,6.2-70.6,9.4-106.1,7.7c-13.8-0.6-27.5-2-41.1-4.1C144.5,272.6,149.1,277.5,155.1,282z"/>
				</g>
			</g>
			<g>
				<g>
					<path class="st16" d="M214.7,293.4c-2.5,0.8-4.6,2.6-6.6,4.4c1.5,0,3.1,0,4.7,0c0.3-0.2,0.7-0.4,1-0.6c2.5-1.5,4.2-1,5.6,0.3
						c1.3-0.1,2.6-0.2,3.9-0.3c0,0,0-0.1-0.1-0.1C221.2,294.2,218.3,292.3,214.7,293.4z"/>
				</g>
			</g>
			<g>
				<g>
					<path class="st16" d="M214.7,293.4c-2.5,0.8-4.6,2.6-6.6,4.4c1.5,0,3.1,0,4.7,0c0.3-0.2,0.7-0.4,1-0.6c2.5-1.5,4.2-1,5.6,0.3
						c1.3-0.1,2.6-0.2,3.9-0.3c0,0,0-0.1-0.1-0.1C221.2,294.2,218.3,292.3,214.7,293.4z"/>
				</g>
			</g>
			<g>
				<g>
					<path class="st16" d="M246.7,292.7c-0.4,0.1-0.7,0.2-1.1,0.3C245.9,292.9,246.3,292.8,246.7,292.7z"/>
				</g>
			</g>
			<g class="st17">
				<g>
					<path class="st20" d="M246.7,292.7c-0.4,0.1-0.7,0.2-1.1,0.3C245.9,292.9,246.3,292.8,246.7,292.7z"/>
				</g>
			</g>
		</g>
	</g>
</g>
<g>
	<path class="st21" d="M-243.9,934.1c-18.2-66.5-50.7-88.3-50.7-88.3L-336,812c-0.1,0-50.6-5.7-50.6-5.7s-51.7,73.9-58.3,127.8
		H-243.9z"/>
	<polygon class="st21" points="-386.5,806.3 -303.6,838.5 -278.6,776.9 -345.6,730 -370.7,778.1 	"/>
	<path class="st21" d="M-370.9,618.1c28.3-63.1,67.6-69.7,121.1-62.1c60.5,8.6,80.6,38.7,84,71.8c1.4,13-5.2,35.5-9.8,48.7
		c-4.3,12.2-7.9,17.9-8.7,22.2c-2.3,11.2,2.6,31.7,9.8,36c2.3,1.4,2.4,7.7,1.5,8.7c-2.4,2.7-7.8,2.8-12.3,7c-7.8,7.2-7.9,15-13,18.1
		c-4.6,2.8-20.5-3.7-26.2,3.8c-7.5,9.8,17.6,11.9,20.1,13.6c5.1,3.5-9.2,18.8-15.9,28.1c-6.3,8.6-36.3,9.7-53.2-0.5
		c-36.8-22.3-98.1-51.6-103.5-89.9C-382.5,685.2-378.1,632.5-370.9,618.1z"/>
	
		<linearGradient id="SVGID_1_" gradientUnits="userSpaceOnUse" x1="276.8111" y1="281.9728" x2="246.0981" y2="171.8957" gradientTransform="matrix(0.9879 0.1552 -0.1552 0.9879 -496.0073 389.0562)">
		<stop  offset="0.2032" style="stop-color:#E7B18B"/>
		<stop  offset="0.3467" style="stop-color:#E4A584"/>
		<stop  offset="0.6039" style="stop-color:#DD8673"/>
		<stop  offset="0.6898" style="stop-color:#DA7A6C"/>
	</linearGradient>
	<path class="st22" d="M-179.3,686.1c1.1-2.7,2.4-5.8,3.7-9.6c4.6-13.1,11.2-35.7,9.8-48.7c-3.5-33-23.6-63.2-84-71.8
		c-53.5-7.6-92.8-1-121.1,62.1c-3.2,6.3-6.3,57.7-7.8,74.4L-179.3,686.1z"/>
	<path class="st23" d="M-405.6,646.3c10.1-55.9,45.4-106.3,90.8-116.8c87.3-20.1,143,55,162.9,77.2c13.7,15.2,8.7,41.9-15,28.5
		c-82.1-46.7-114.4-7.6-114.4-7.6s-11.1,32.1-13,47.8c-1.9,15.7-12.1,32.2-15.3,28.8c-1.3-38.1-13.5-35.5-10-48.7
		c0.7-2.6-2.3,23.2-10.3,58.8c-2.7,16.9-32.7,59.3-40.7,63.9C-378.9,754.9-412,681.6-405.6,646.3z"/>
	<path class="st24" d="M-194.5,744c0,0,3.5,4,10.7,5.2c2.4-2.5,13.9-5.5,9.4-6.9C-176.4,741.7-194.5,744-194.5,744z"/>
	<g>
		<path class="st23" d="M-185.8,667.2c-1.2-3.4-28-6.3-32.4-6.2c-9,0.3-21.3,11-20.1,13.1c1.2,2.1,13.6-4.8,23.2-2.5
			c3.7,0.9,22.1,6.9,24.7,6.2C-187.8,677.1-184.6,670.5-185.8,667.2z"/>
		<path class="st25" d="M-209,688.8c-8.2-7.7-25.5-2.4-25.5-2.4s16.1,0,24.6,8.6"/>
	</g>
	<path class="st26" d="M-292.1,802.7c0,0-22.2-15.2-27.7-22.6c-5.4-7.4-5.7-38.5-5.7-38.5l11.2,33.5L-292.1,802.7z"/>
	<path class="st21" d="M-311,688.3c-3.1,17-4.2,29.9-16.6,26.1c-12.4-3.8-24.4-18.4-22.1-35.5c2.5-18.9,14.4-25.2,25-24.7
		C-316.3,654.6-307.5,669.4-311,688.3z"/>
	<g>
		<path class="st27" d="M-255.5,670.4c-0.7,4.6-4.1,7.8-7.6,7.3c-3.5-0.6-5.8-4.7-5-9.3c0.7-4.6,10.2-23.8,10.2-23.8
			S-254.8,665.9-255.5,670.4z"/>
		<g>
			<g>
				<path class="st18" d="M-258,644.6c0,0-1.7,3.4-4,8.6c-1.1,2.6-2.4,5.6-3.4,8.9c-1,3.3-1.8,7-1.2,10.2c0.1,0.4,0.2,0.8,0.4,1.1
					l0.1,0.3c0,0,0.1,0.2,0,0.1l0.1,0.2l0.3,0.6c0.4,0.6,0.8,1.1,1.4,1.5c1.2,0.7,2.8,0.6,4.2,0c0.7-0.3,1.4-0.7,1.9-1.2
					c0.2-0.1,0.5-0.6,0.8-0.9l0.5-0.9c0.6-1.4,0.9-2.8,1-4.2c0.3-2.8,0.1-5.2,0-6.8c-0.1-1.7-0.3-2.6-0.3-2.6s0.3,0.9,0.7,2.5
					c0.3,1.6,0.8,4,0.8,6.9c0,1.5-0.1,3.1-0.7,4.8c-0.7,1.9-2,3.3-3.8,4.2c-1.7,0.9-4.2,1.4-6.3,0.2c-1-0.5-1.9-1.4-2.5-2.4
					l-0.4-0.6l-0.1-0.2l-0.1-0.3l-0.2-0.4c-0.2-0.5-0.4-1-0.5-1.6c-0.9-4.3,0.3-8.2,1.4-11.7c1.3-3.4,2.8-6.4,4.3-8.9
					C-260.5,647.5-258,644.6-258,644.6z"/>
			</g>
		</g>
	</g>
	<line class="st28" x1="-194.5" y1="772.2" x2="-177.1" y2="774.4"/>
	<line class="st28" x1="-194.5" y1="778.1" x2="-180.2" y2="786.5"/>
	<line class="st28" x1="-196.6" y1="784.3" x2="-188.4" y2="797.9"/>
	<g>
		<path class="st29" d="M-176.5,838.5c3.7-2.3,11.4-17.6,13.5-26.1c2.1-8.5-2.1-21.2-0.8-28.3c1.3-7.1,9.6-9.3,10.8-1.5
			c2.2,14.4,5.9,30,4.2,37.9c-0.9,4.2-8,18.1-15,31C-171,864.9-180.2,840.8-176.5,838.5z"/>
		<path class="st29" d="M-179.6,836.8c3-2.3,8.7-16.3,9.8-23.9c1.2-7.6-3.4-18.4-2.8-24.7c0.6-6.3,7.7-8.9,9.3-2.1
			c3,12.5,7.4,25.8,6.5,32.9c-0.5,3.8-5.7,16.4-10.8,28.3C-172.8,859.5-182.7,839.1-179.6,836.8z"/>
		<path class="st29" d="M-187.3,846.4c2.8-2,8.1-14.3,9.3-21c1.2-6.7-2.7-16.4-1.9-22c0.7-5.6,7.1-7.7,8.4-1.7
			c2.4,11.2,6.1,23.1,5.1,29.4c-0.5,3.3-5.4,14.5-10.2,24.9C-181.7,866.7-190.1,848.3-187.3,846.4z"/>
		<path class="st21" d="M-211.5,933.4l10.2-56.3c0,0-8.7-21.1-6.1-30c2.6-8.9,3.8-20.4,6.1-24.1c2.2-3.7,11.6-14.9,12.9-17.8
			c3-7,11.2,3.2,7.4,11.3c-3.7,8.2-8.7,15.6-7.9,19.4c0.7,3.7,12.4,8.2,16.1,6c3.7-2.2,11.8-17.4,14-25.8c2.2-8.4-2.6-21.6-1.1-28.7
			c1.5-7.1,10.1-16.3,11.6-1.7c1.5,14.5,5.4,31,3.6,38.9c-2,8.5-30.3,56.1-30.3,56.1l2.4,52.9H-211.5z"/>
	</g>
	<line class="st28" x1="-167.6" y1="737.4" x2="-150.2" y2="739.7"/>
	<line class="st28" x1="-167.6" y1="743.3" x2="-153.3" y2="751.7"/>
	<line class="st28" x1="-169.7" y1="749.5" x2="-161.5" y2="763.2"/>
</g>
<g>
	<g>
		<path class="st6" d="M944.3-6.3c0,0-75.6,96.6-75.7,168.2c0,46.4,33.9,75.7,75.7,75.7s75.7-29.3,75.7-75.7
			C1020,90.3,944.3-6.3,944.3-6.3z"/>
		<g>
			<path class="st10" d="M950.1,1.4c20.3,39,42.4,91.5,42.4,135.8c0,53-33.9,86.4-75.7,86.4c-7.9,0-15.5-1.2-22.7-3.5
				c13.4,11.2,30.9,17.5,50.2,17.5c41.8,0,75.7-29.3,75.7-75.7C1020,102.4,967.7,25.7,950.1,1.4z"/>
		</g>
		<ellipse class="st18" cx="894.2" cy="164" rx="14.8" ry="26.3"/>
	</g>
	<g>
		<rect x="685.8" y="324.4" class="st30" width="517" height="182.3"/>
		<g>
			<path class="st18" d="M1202.8,346c-24.1,0-36.7-6.3-47.9-11.9c-10.3-5.2-19.3-9.6-38.2-9.6s-27.9,4.5-38.2,9.6
				c-11.2,5.6-23.8,11.9-47.9,11.9c-24.1,0-36.7-6.3-47.9-11.9c-10.3-5.2-19.3-9.6-38.3-9.6c-19,0-27.9,4.5-38.2,9.6
				c-11.2,5.6-23.8,11.9-47.9,11.9c-24.1,0-36.7-6.3-47.9-11.9c-10.3-5.2-19.3-9.6-38.3-9.6c-19,0-27.9,4.5-38.3,9.6
				c-11.2,5.6-23.8,11.9-47.9,11.9v-21.5c19,0,27.9-4.5,38.3-9.6c11.2-5.6,23.8-11.9,47.9-11.9c24.1,0,36.7,6.3,47.9,11.9
				c10.3,5.2,19.3,9.6,38.3,9.6c19,0,27.9-4.5,38.3-9.6c11.2-5.6,23.8-11.9,47.9-11.9c24.1,0,36.7,6.3,47.9,11.9
				c10.3,5.2,19.3,9.6,38.3,9.6c19,0,27.9-4.5,38.2-9.6c11.2-5.6,23.8-11.9,47.9-11.9c24.1,0,36.7,6.3,47.9,11.9
				c10.3,5.2,19.3,9.6,38.2,9.6V346z"/>
			<path class="st18" d="M1202.8,394.4c-24.1,0-36.7-6.3-47.9-11.9c-10.3-5.2-19.3-9.6-38.2-9.6s-27.9,4.5-38.2,9.6
				c-11.2,5.6-23.8,11.9-47.9,11.9c-24.1,0-36.7-6.3-47.9-11.9c-10.3-5.2-19.3-9.6-38.3-9.6c-19,0-27.9,4.5-38.2,9.6
				c-11.2,5.6-23.8,11.9-47.9,11.9c-24.1,0-36.7-6.3-47.9-11.9c-10.3-5.2-19.3-9.6-38.3-9.6c-19,0-27.9,4.5-38.3,9.6
				c-11.2,5.6-23.8,11.9-47.9,11.9v-21.5c19,0,27.9-4.5,38.3-9.6c11.2-5.6,23.8-11.9,47.9-11.9c24.1,0,36.7,6.3,47.9,11.9
				c10.3,5.2,19.3,9.6,38.3,9.6c19,0,27.9-4.5,38.3-9.6c11.2-5.6,23.8-11.9,47.9-11.9c24.1,0,36.7,6.3,47.9,11.9
				c10.3,5.2,19.3,9.6,38.3,9.6c19,0,27.9-4.5,38.2-9.6c11.2-5.6,23.8-11.9,47.9-11.9c24.1,0,36.7,6.3,47.9,11.9
				c10.3,5.2,19.3,9.6,38.2,9.6V394.4z"/>
			<path class="st18" d="M1202.8,442.9c-24.1,0-36.7-6.3-47.9-11.9c-10.3-5.2-19.3-9.6-38.2-9.6s-27.9,4.5-38.2,9.6
				c-11.2,5.6-23.8,11.9-47.9,11.9c-24.1,0-36.7-6.3-47.9-11.9c-10.3-5.2-19.3-9.6-38.3-9.6c-19,0-27.9,4.5-38.2,9.6
				c-11.2,5.6-23.8,11.9-47.9,11.9c-24.1,0-36.7-6.3-47.9-11.9c-10.3-5.2-19.3-9.6-38.3-9.6c-19,0-27.9,4.5-38.3,9.6
				c-11.2,5.6-23.8,11.9-47.9,11.9v-21.5c19,0,27.9-4.5,38.3-9.6c11.2-5.6,23.8-11.9,47.9-11.9c24.1,0,36.7,6.3,47.9,11.9
				c10.3,5.2,19.3,9.6,38.3,9.6c19,0,27.9-4.5,38.3-9.6c11.2-5.6,23.8-11.9,47.9-11.9c24.1,0,36.7,6.3,47.9,11.9
				c10.3,5.2,19.3,9.6,38.3,9.6c19,0,27.9-4.5,38.2-9.6c11.2-5.6,23.8-11.9,47.9-11.9c24.1,0,36.7,6.3,47.9,11.9
				c10.3,5.2,19.3,9.6,38.2,9.6V442.9z"/>
			<path class="st18" d="M1202.8,491.4c-24.1,0-36.7-6.3-47.9-11.9c-10.3-5.2-19.3-9.6-38.2-9.6s-27.9,4.5-38.2,9.6
				c-11.2,5.6-23.8,11.9-47.9,11.9c-24.1,0-36.7-6.3-47.9-11.9c-10.3-5.2-19.3-9.6-38.3-9.6c-19,0-27.9,4.5-38.2,9.6
				c-11.2,5.6-23.8,11.9-47.9,11.9c-24.1,0-36.7-6.3-47.9-11.9c-10.3-5.2-19.3-9.6-38.3-9.6c-19,0-27.9,4.5-38.3,9.6
				c-11.2,5.6-23.8,11.9-47.9,11.9v-21.5c19,0,27.9-4.5,38.3-9.6c11.2-5.6,23.8-11.9,47.9-11.9c24.1,0,36.7,6.3,47.9,11.9
				c10.3,5.2,19.3,9.6,38.3,9.6c19,0,27.9-4.5,38.3-9.6c11.2-5.6,23.8-11.9,47.9-11.9c24.1,0,36.7,6.3,47.9,11.9
				c10.3,5.2,19.3,9.6,38.3,9.6c19,0,27.9-4.5,38.2-9.6c11.2-5.6,23.8-11.9,47.9-11.9c24.1,0,36.7,6.3,47.9,11.9
				c10.3,5.2,19.3,9.6,38.2,9.6V491.4z"/>
		</g>
	</g>
</g>
<g>
	<path class="st31" d="M946.4,614.1c-6,4.5-26.7,26-67.9,86.2c0,0,1.5,1.1,4.2,2.7c16.8,10.4,81.2,44.4,138.8-2.2
		c0.2-0.2,3.1-2.8,3.4-3C1024.8,697.8,955.8,607,946.4,614.1z"/>
	<path class="st32" d="M1129.8,876.3c-5.9,3.1-11.8,5.9-17.7,8.6c-159.2,73.6-275.3,15-314.1-10.4c-9.3-6.1-14.2-10.2-14.2-10.2
		c21.4-71.8,71.7-132.4,98.8-161.3c16.8,10.4,81.2,44.4,138.8-2.2C1093.6,760.4,1129.8,876.3,1129.8,876.3z"/>
	<path class="st33" d="M1111.9,1004.3c-32.8,25.7-66.7,40.6-98.7,47.9c0.4-21.4,0.6-48.6-1.8-70.9c-2.2-21.1-13.7-25.6-24.2-27.2
		c-7.3-1.1-18.4,1.8-24.2,6.6c-6.6,5.4-11.3,16.1-11.3,28.7v68.2c-10.6-0.5-20.7-1.9-30.2-3.8c-99-20.4-124.5-66.1-124.5-66.1
		c-1.7-33-0.2-82.1,1-113.2c38.9,25.4,154.9,84,314.1,10.4C1115.6,945.1,1111.9,1004.3,1111.9,1004.3z"/>
	<g>
		<path class="st6" d="M855.8,1032.8C855.7,1032.6,855.9,1033.1,855.8,1032.8L855.8,1032.8z"/>
		<path class="st6" d="M873,1013.3c-6,7.5-10.1,11.7-17.2,19.5c11.1,5.2,24.2,10.1,39.4,14.5C888.6,1036.4,881.9,1027.5,873,1013.3z
			"/>
	</g>
	<path class="st6" d="M923.1,1030c-7.5,6-14.8,13.3-21.8,19c6.4,1.7,13.1,3.3,20.2,4.8c7.4,1.5,15.3,2.7,23.5,3.4
		C938.3,1048,931.6,1039.9,923.1,1030z"/>
	<path class="st6" d="M1035.7,1019.3c-6.8,10.6-13.6,22.4-18.5,32c12.3-3,24.8-7.2,37.4-12.7
		C1054.5,1038.4,1042.2,1024.7,1035.7,1019.3z"/>
	<g>
		<path class="st6" d="M1112.9,982.3c-5.1,10.3-10,23.6-14.2,31.7c4.4-3,8.8-6.3,13.2-9.7C1111.9,1004.3,1112.4,996,1112.9,982.3z"
			/>
	</g>
	<path class="st6" d="M1073.6,1005.1c-6.3,11.1-10.3,21.5-16.6,32.4c11.7-5.4,26.5-13.4,38.2-21.2
		C1095.3,1016.3,1079.6,1008.6,1073.6,1005.1z"/>
	<path class="st6" d="M831.8,995c-4.6,4.9-9,10.1-13.8,14.9c8,6.4,18.6,13.5,32.5,20.4C850.2,1029.7,838.6,1007.8,831.8,995z"/>
	<path class="st7" d="M1013.2,1052.2c-21.7,4.9-42.5,6.4-61.6,5.4v-68.2c0-12.6,4.7-23.3,11.3-28.7c5.8-4.8,16.9-7.6,24.2-6.6
		c10.6,1.5,22,6.1,24.2,27.2C1013.8,1003.6,1013.7,1030.9,1013.2,1052.2z"/>
	<path class="st6" d="M796.2,945.4v10.8c83.1,65.2,155.4,58.4,155.4,58.4v-8.6C865.6,1005.9,796.2,945.4,796.2,945.4z"/>
	<path class="st6" d="M1013.5,997.2l-0.3,10.8c82.6-13.1,100.2-41.8,100.2-41.8l0.3-12.2C1074.7,992,1013.5,997.2,1013.5,997.2z"/>
	<path class="st6" d="M901.3,1031.8c0,2-1.6,3.6-3.6,3.6c-2,0-3.6-1.6-3.6-3.6c0-2,1.6-3.6,3.6-3.6
		C899.7,1028.2,901.3,1029.8,901.3,1031.8z"/>
	<path class="st6" d="M857.5,1014.7c0,2-1.6,3.6-3.6,3.6c-2,0-3.6-1.6-3.6-3.6c0-2,1.6-3.6,3.6-3.6
		C855.9,1011.1,857.5,1012.7,857.5,1014.7z"/>
	<path class="st6" d="M1058.2,1018.3c0,2-1.6,3.6-3.6,3.6c-2,0-3.6-1.6-3.6-3.6c0-2,1.6-3.6,3.6-3.6
		C1056.5,1014.7,1058.2,1016.3,1058.2,1018.3z"/>
	<path class="st6" d="M1098.9,1001.8c0,2-1.6,3.6-3.6,3.6c-2,0-3.6-1.6-3.6-3.6c0-2,1.6-3.6,3.6-3.6
		C1097.3,998.2,1098.9,999.8,1098.9,1001.8z"/>
	<g>
		<g>
			<g>
				<g>
					<g>
						<path class="st34" d="M806.2,821.3c0.2,0.1-1.2,3.7-3.5,9.5c-2.4,5.8-5.9,13.7-9.4,22.5c-3.6,8.8-6.5,17-8.6,22.8
							c-2.1,5.9-3.4,9.5-3.6,9.5c-0.2-0.1,0.7-3.8,2.5-9.8c1.8-6,4.6-14.2,8.2-23.1c3.6-8.9,7.2-16.7,9.9-22.4
							C804.2,824.7,806,821.3,806.2,821.3z"/>
					</g>
				</g>
			</g>
			<g>
				<g>
					<g>
						<path class="st34" d="M820.5,802.3c0.1,0-0.3,1.2-1,3.4c-0.8,2.1-1.9,5.2-3.4,9c-2.9,7.5-7.1,17.9-11.7,29.4
							c-4.6,11.5-8.7,21.9-11.6,29.4c-1.5,3.8-2.7,6.8-3.5,8.9c-0.8,2.1-1.4,3.2-1.5,3.2c-0.1,0,0.2-1.3,0.9-3.4
							c0.7-2.2,1.7-5.3,3-9.1c2.7-7.6,6.6-18.1,11.2-29.6c4.6-11.5,8.9-21.8,12.1-29.2c1.6-3.7,2.9-6.7,3.9-8.8
							C819.9,803.4,820.4,802.3,820.5,802.3z"/>
					</g>
				</g>
			</g>
			<g>
				<g>
					<g>
						<path class="st34" d="M817.2,829.5c0.2,0.1-1.1,3.7-3.3,9.6c-2.3,5.8-5.6,13.8-8.9,22.7c-3.4,8.9-6.1,17.1-8.1,23
							c-2,5.9-3.2,9.6-3.4,9.5c-0.2-0.1,0.6-3.8,2.3-9.9c1.7-6,4.3-14.3,7.7-23.3c3.4-8.9,6.9-16.9,9.4-22.6
							C815.3,832.9,817,829.4,817.2,829.5z"/>
					</g>
				</g>
			</g>
			<g>
				<g>
					<g>
						<path class="st34" d="M832,812.5c0.1,0-0.3,1.2-1,3.4c-0.8,2.1-1.9,5.2-3.4,9c-2.9,7.5-7.1,17.9-11.7,29.4
							c-4.6,11.5-8.7,21.9-11.6,29.4c-1.5,3.8-2.7,6.8-3.5,8.9c-0.8,2.1-1.4,3.2-1.5,3.2c-0.1,0,0.2-1.3,0.9-3.4
							c0.7-2.2,1.7-5.3,3-9.1c2.7-7.6,6.6-18.1,11.2-29.6c4.6-11.5,8.9-21.8,12.1-29.2c1.6-3.7,2.9-6.7,3.9-8.8
							C831.3,813.5,831.9,812.4,832,812.5z"/>
					</g>
				</g>
			</g>
			<g>
				<g>
					<g>
						<path class="st34" d="M831,835c0.2,0.1-1.1,3.7-3.3,9.6c-2.3,5.8-5.6,13.8-8.9,22.7c-3.4,8.9-6.1,17.1-8.1,23
							c-2,5.9-3.2,9.6-3.4,9.5c-0.2-0.1,0.6-3.8,2.3-9.9c1.7-6,4.3-14.3,7.7-23.3c3.4-8.9,6.9-16.9,9.4-22.6
							C829.1,838.4,830.8,834.9,831,835z"/>
					</g>
				</g>
			</g>
			<g>
				<g>
					<g>
						<path class="st34" d="M847.6,817.9c0.1,0-0.3,1.2-1,3.4c-0.8,2.1-1.9,5.2-3.4,9c-2.9,7.5-7.1,17.9-11.7,29.4
							c-4.6,11.5-8.7,21.9-11.6,29.4c-1.5,3.8-2.7,6.8-3.5,8.9c-0.8,2.1-1.4,3.2-1.5,3.2c-0.1,0,0.2-1.3,0.9-3.4
							c0.7-2.2,1.7-5.3,3-9.1c2.7-7.6,6.6-18.1,11.2-29.6c4.6-11.5,8.9-21.8,12.1-29.2c1.6-3.7,2.9-6.7,3.9-8.8
							C846.9,818.9,847.5,817.8,847.6,817.9z"/>
					</g>
				</g>
			</g>
			<g>
				<g>
					<g>
						<path class="st34" d="M847,837.8c0.2,0.1-1,3.8-3.1,9.7c-2.1,5.9-5.2,14-8.3,23c-3.2,9-5.7,17.2-7.5,23.2
							c-1.8,6-2.9,9.7-3.2,9.6c-0.2-0.1,0.5-3.9,2-9.9c1.5-6.1,3.9-14.4,7.1-23.5c3.2-9,6.4-17,8.8-22.8
							C845.2,841.2,846.8,837.7,847,837.8z"/>
					</g>
				</g>
			</g>
			<g>
				<g>
					<g>
						<path class="st34" d="M860.4,818.1c0.1,0-0.2,1.3-0.9,3.4c-0.7,2.2-1.7,5.3-3,9.1c-2.6,7.7-6.2,18.2-10.3,29.9
							c-4,11.7-7.6,22.2-10.2,29.9c-1.3,3.8-2.4,6.9-3.1,9.1c-0.7,2.1-1.2,3.3-1.3,3.3c-0.1,0,0.1-1.3,0.7-3.5
							c0.6-2.2,1.4-5.4,2.6-9.2c2.3-7.8,5.7-18.4,9.8-30.1c4-11.7,7.9-22.2,10.7-29.7c1.4-3.8,2.6-6.8,3.5-8.9
							C859.8,819.2,860.3,818,860.4,818.1z"/>
					</g>
				</g>
			</g>
			<g>
				<g>
					<g>
						<path class="st34" d="M858.4,845.4c0.2,0.1-0.9,3.8-2.9,9.7c-2,5.9-4.9,14.1-7.9,23.1c-3,9.1-5.3,17.4-7,23.4
							c-1.7,6-2.7,9.7-2.9,9.7c-0.2,0,0.4-3.9,1.8-10c1.4-6.1,3.6-14.5,6.6-23.6c3-9.1,6.1-17.2,8.3-23
							C856.7,848.9,858.1,845.4,858.4,845.4z"/>
					</g>
				</g>
			</g>
			<g>
				<g>
					<g>
						<path class="st34" d="M873.8,828c0.1,0-0.2,1.3-0.9,3.4c-0.7,2.2-1.7,5.3-3,9.1c-2.6,7.7-6.2,18.2-10.3,29.9
							c-4,11.7-7.6,22.2-10.2,29.9c-1.3,3.8-2.4,6.9-3.1,9.1c-0.7,2.1-1.2,3.3-1.3,3.3c-0.1,0,0.1-1.3,0.7-3.5
							c0.6-2.2,1.4-5.4,2.6-9.2c2.3-7.8,5.7-18.4,9.8-30.1c4-11.7,7.9-22.2,10.7-29.7c1.4-3.8,2.6-6.8,3.5-8.9
							C873.2,829.1,873.7,828,873.8,828z"/>
					</g>
				</g>
			</g>
			<g>
				<g>
					<g>
						<path class="st34" d="M873.9,850.5c0.2,0.1-0.9,3.8-2.9,9.7c-2,5.9-4.9,14.1-7.9,23.1c-3,9.1-5.3,17.4-7,23.4
							c-1.7,6-2.7,9.7-2.9,9.7c-0.2,0,0.4-3.9,1.8-10c1.4-6.1,3.6-14.5,6.6-23.6c3-9.1,6.1-17.2,8.3-23
							C872.2,854,873.6,850.4,873.9,850.5z"/>
					</g>
				</g>
			</g>
			<g>
				<g>
					<g>
						<path class="st34" d="M887.1,831.9c0.1,0-0.1,1.3-0.7,3.5c-0.5,2.2-1.4,5.4-2.4,9.3c-2.1,7.8-5.1,18.6-8.5,30.5
							c-3.3,11.9-6.3,22.7-8.4,30.5c-1.1,3.9-1.9,7.1-2.5,9.2c-0.6,2.2-1,3.4-1.1,3.3c-0.1,0,0.1-1.3,0.5-3.5c0.4-2.2,1.1-5.4,2-9.4
							c1.8-7.9,4.6-18.7,7.9-30.6c3.3-11.9,6.5-22.6,8.9-30.3c1.2-3.9,2.2-7,2.9-9.1C886.5,833,887,831.8,887.1,831.9z"/>
					</g>
				</g>
			</g>
			<g>
				<g>
					<g>
						<path class="st34" d="M888.8,852.2c0.2,0.1-0.7,3.9-2,10.1c-1.3,6.2-3.1,14.9-5,24.4c-1.9,9.5-3.6,18.2-5,24.4
							c-1.4,6.2-2.4,10.1-2.6,10c-0.2,0,0.4-3.9,1.4-10.2c1.1-6.3,2.6-15,4.5-24.5c1.9-9.5,3.8-18.2,5.4-24.3
							C887.3,855.9,888.6,852.2,888.8,852.2z"/>
					</g>
				</g>
			</g>
			<g>
				<g>
					<g>
						<path class="st34" d="M885.5,919.8c-0.1,0,0-1.2,0.2-3.3c0.3-2.1,0.7-5.1,1.2-8.8c1.1-7.4,2.7-17.7,4.5-29.1
							c1.8-11.3,3.7-21.6,5.1-29c0.7-3.7,1.4-6.7,1.9-8.7c0.5-2,0.8-3.2,0.9-3.2c0.1,0,0,1.2-0.3,3.3c-0.3,2.1-0.8,5.1-1.3,8.8
							c-1.2,7.4-2.8,17.7-4.7,29c-1.8,11.3-3.6,21.6-5,29c-0.7,3.7-1.3,6.7-1.8,8.7C885.9,918.7,885.6,919.8,885.5,919.8z"/>
					</g>
				</g>
			</g>
			<g>
				<g>
					<g>
						<path class="st34" d="M903.5,854.3c0.2,0-0.3,4-1,10.3c-0.7,6.3-1.6,15.1-2.6,24.8c-1,9.7-1.9,18.4-2.6,24.8
							c-0.8,6.3-1.4,10.2-1.6,10.2c-0.2,0,0-4,0.5-10.3c0.5-6.4,1.2-15.1,2.2-24.8c1-9.7,2.1-18.4,3.1-24.7
							C902.3,858.1,903.3,854.2,903.5,854.3z"/>
					</g>
				</g>
			</g>
			<g>
				<g>
					<g>
						<path class="st34" d="M905.9,926.4c-0.1,0-0.1-1.2-0.1-3.3c0.1-2.1,0.2-5.1,0.4-8.9c0.4-7.5,1-17.9,1.7-29.3
							c0.7-11.5,1.6-21.8,2.4-29.3c0.4-3.7,0.7-6.8,1-8.9c0.3-2.1,0.5-3.2,0.6-3.2c0.1,0,0.1,1.2,0,3.3c-0.1,2.1-0.3,5.1-0.5,8.9
							c-0.5,7.5-1.1,17.9-1.9,29.3c-0.7,11.5-1.5,21.8-2.2,29.3c-0.3,3.7-0.7,6.8-0.9,8.9C906.2,925.2,906,926.4,905.9,926.4z"/>
					</g>
				</g>
			</g>
			<g>
				<g>
					<g>
						<path class="st34" d="M919.7,854.1c0.2,0-0.1,4-0.5,10.3c-0.4,6.4-0.9,15.1-1.5,24.9c-0.5,9.7-1,18.5-1.5,24.9
							c-0.5,6.4-0.9,10.3-1.1,10.3c-0.2,0-0.2-4,0-10.3c0.2-6.4,0.5-15.2,1-24.9c0.5-9.7,1.2-18.5,1.9-24.9
							C918.7,858,919.4,854.1,919.7,854.1z"/>
					</g>
				</g>
			</g>
			<g>
				<g>
					<g>
						<path class="st34" d="M925.5,926.5c-0.1,0-0.2-1.2-0.2-3.3c0-2.1,0-5.2,0.1-8.9c0.2-7.5,0.4-17.9,0.8-29.4
							c0.4-11.5,0.9-21.9,1.4-29.4c0.3-3.8,0.5-6.8,0.7-8.9c0.2-2.1,0.4-3.2,0.5-3.2c0.1,0,0.2,1.2,0.1,3.3c0,2.1-0.1,5.1-0.2,8.9
							c-0.2,7.5-0.6,17.9-0.9,29.4c-0.4,11.5-0.8,21.9-1.3,29.4c-0.2,3.8-0.4,6.8-0.6,8.9C925.8,925.3,925.7,926.5,925.5,926.5z"/>
					</g>
				</g>
			</g>
			<g>
				<g>
					<g>
						<path class="st34" d="M937.3,856.2c0.2,0,0,4-0.2,10.3c-0.2,6.4-0.4,15.2-0.6,24.9c-0.2,9.7-0.4,18.5-0.6,24.9
							c-0.3,6.4-0.6,10.3-0.8,10.3c-0.2,0-0.3-3.9-0.4-10.3c0-6.4,0-15.2,0.2-24.9c0.2-9.7,0.6-18.5,1.1-24.9
							C936.5,860.1,937.1,856.1,937.3,856.2z"/>
					</g>
				</g>
			</g>
			<g>
				<g>
					<g>
						<path class="st34" d="M946.3,928.3c-0.1,0-0.3-1.2-0.4-3.3c-0.2-2.1-0.3-5.1-0.5-8.9c-0.4-7.5-0.9-17.9-1.3-29.4
							c-0.4-11.5-0.7-21.9-0.7-29.4c0-3.8,0-6.8,0.1-8.9c0.1-2.1,0.2-3.3,0.3-3.3c0.1,0,0.2,1.2,0.4,3.3c0.1,2.1,0.3,5.1,0.4,8.9
							c0.3,7.5,0.7,17.9,1.2,29.4c0.4,11.5,0.8,21.9,0.9,29.4c0,3.8,0.1,6.8,0,8.9C946.5,927.1,946.4,928.3,946.3,928.3z"/>
					</g>
				</g>
			</g>
			<g>
				<g>
					<g>
						<path class="st34" d="M953.3,856.2c0.2,0,0.3,3.9,0.6,10.3c0.3,6.4,0.8,15.2,1.3,24.9c0.6,9.7,1.1,18.5,1.3,24.9
							c0.2,6.4,0.2,10.3,0,10.3c-0.2,0-0.6-3.9-1.2-10.3c-0.5-6.4-1.2-15.1-1.8-24.9c-0.6-9.7-0.9-18.5-0.8-24.9
							C952.8,860.1,953.1,856.2,953.3,856.2z"/>
					</g>
				</g>
			</g>
		</g>
		<g>
			<g>
				<g>
					<g>
						<path class="st34" d="M1098.4,820.6c0.2-0.1,2.1,3.3,5,8.8c2.9,5.5,6.9,13.2,10.8,21.9c4,8.7,7.1,16.8,9.1,22.7
							c2.1,5.9,3.1,9.6,2.9,9.7c-0.2,0.1-1.7-3.5-4-9.3c-2.3-5.8-5.6-13.8-9.5-22.5c-3.9-8.7-7.7-16.4-10.4-22.1
							C1099.7,824.2,1098.2,820.7,1098.4,820.6z"/>
					</g>
				</g>
			</g>
			<g>
				<g>
					<g>
						<path class="st34" d="M1083.3,802.2c0.1,0,0.8,1.1,1.9,3.3c1.1,2.2,2.6,5.3,4.5,9.2c3.7,7.8,8.8,18.6,14.2,30.6
							c5.4,12,10.1,23,13.3,31c1.6,4,2.8,7.3,3.7,9.6c0.8,2.3,1.2,3.6,1.1,3.6c-0.1,0-0.7-1.2-1.7-3.4c-1-2.2-2.4-5.4-4.1-9.3
							c-3.5-7.9-8.3-18.8-13.7-30.8c-5.4-12-10.3-22.9-13.7-30.8c-1.7-4-3.1-7.2-4-9.4S1083.2,802.3,1083.3,802.2z"/>
					</g>
				</g>
			</g>
			<g>
				<g>
					<g>
						<path class="st34" d="M1087.7,829.2c0.2-0.1,2,3.3,4.8,8.9c2.8,5.6,6.6,13.4,10.4,22.2c3.8,8.8,6.7,17,8.7,22.9
							c1.9,6,2.9,9.7,2.7,9.8c-0.2,0.1-1.6-3.5-3.8-9.4c-2.2-5.8-5.3-13.9-9.1-22.7c-3.8-8.8-7.4-16.6-9.9-22.3
							C1089,832.9,1087.5,829.3,1087.7,829.2z"/>
					</g>
				</g>
			</g>
			<g>
				<g>
					<g>
						<path class="st34" d="M1072.3,812.8c0.1,0,0.7,1,1.8,3.1c1,2,2.5,5,4.2,8.6c3.5,7.3,8.3,17.4,13.4,28.7
							c5.1,11.3,9.5,21.6,12.4,29.1c1.5,3.8,2.6,6.8,3.4,9c0.8,2.1,1.1,3.3,1,3.4c-0.1,0-0.7-1.1-1.6-3.1c-0.9-2.1-2.2-5.1-3.9-8.8
							c-3.3-7.4-7.8-17.6-12.9-28.9c-5.1-11.2-9.7-21.4-12.9-28.8c-1.6-3.7-2.9-6.7-3.8-8.8C1072.6,814,1072.2,812.9,1072.3,812.8z"
							/>
					</g>
				</g>
			</g>
			<g>
				<g>
					<g>
						<path class="st34" d="M1074.2,835.2c0.2-0.1,2,3.3,4.8,8.9c2.8,5.6,6.6,13.4,10.4,22.2c3.8,8.8,6.7,17,8.7,22.9
							c1.9,6,2.9,9.7,2.7,9.8c-0.2,0.1-1.6-3.5-3.8-9.4c-2.2-5.8-5.3-13.9-9.1-22.7c-3.8-8.8-7.4-16.6-9.9-22.3
							C1075.5,838.9,1074,835.3,1074.2,835.2z"/>
					</g>
				</g>
			</g>
			<g>
				<g>
					<g>
						<path class="st34" d="M1056.9,818.9c0.1,0,0.7,1.1,1.8,3.2c1.1,2.1,2.6,5.1,4.4,8.9c3.6,7.6,8.6,18,13.8,29.7
							c5.2,11.7,9.8,22.4,12.9,30.2c1.6,3.9,2.8,7.1,3.5,9.3c0.8,2.2,1.2,3.5,1.1,3.5c-0.1,0-0.7-1.1-1.7-3.3c-1-2.1-2.3-5.2-4-9.1
							c-3.4-7.7-8.1-18.3-13.3-29.9c-5.2-11.7-10-22.2-13.4-29.9c-1.7-3.8-3-7-3.9-9.1C1057.2,820.2,1056.8,818.9,1056.9,818.9z"/>
					</g>
				</g>
			</g>
			<g>
				<g>
					<g>
						<path class="st34" d="M1058.4,838.8c0.2-0.1,2,3.5,4.8,9.4c2.8,5.9,6.7,13.9,10.6,23.1c3.9,9.1,6.9,17.6,8.9,23.8
							c0.9,3.1,1.7,5.6,2.1,7.4c0.4,1.8,0.6,2.8,0.5,2.8c-0.2,0.1-1.5-3.7-3.7-9.8c-2.2-6.1-5.4-14.5-9.3-23.6
							c-3.9-9.1-7.6-17.2-10.1-23.2C1059.6,842.6,1058.2,838.8,1058.4,838.8z"/>
					</g>
				</g>
			</g>
			<g>
				<g>
					<g>
						<path class="st34" d="M1044.1,819.7c0.1,0,0.7,1.2,1.7,3.5c1,2.3,2.4,5.6,4.1,9.7c3.4,8.2,7.8,19.6,12.6,32.3
							c4.7,12.7,8.8,24.3,11.7,32.7c1.4,4.2,2.5,7.6,3.2,10c0.7,2.4,1.1,3.7,1,3.7c-0.1,0-0.7-1.2-1.6-3.5c-0.9-2.3-2.2-5.7-3.7-9.8
							c-3.1-8.3-7.4-19.8-12.1-32.5c-4.7-12.7-9-24.1-12.1-32.5c-1.5-4.2-2.8-7.5-3.6-9.9C1044.4,821.1,1044,819.7,1044.1,819.7z"/>
					</g>
				</g>
			</g>
			<g>
				<g>
					<g>
						<path class="st34" d="M1047.3,846.9c0.2-0.1,1.8,3.4,4.4,9.2c2.5,5.7,5.9,13.7,9.3,22.6c3.4,9,5.9,17.3,7.6,23.3
							c1.6,6,2.5,9.8,2.2,9.9c-0.2,0.1-1.4-3.6-3.4-9.6c-1.9-5.9-4.6-14.1-8-23.1c-3.3-8.9-6.6-16.9-8.8-22.8
							C1048.3,850.6,1047.1,846.9,1047.3,846.9z"/>
					</g>
				</g>
			</g>
			<g>
				<g>
					<g>
						<path class="st34" d="M1031.1,830.1c0.1,0,0.7,1.1,1.6,3.1c0.9,2.1,2.2,5.1,3.8,8.8c3.2,7.4,7.5,17.8,12,29.3
							c4.5,11.5,8.4,22,11,29.6c1.3,3.8,2.3,6.9,3,9.1c0.6,2.2,1,3.4,0.9,3.4c-0.1,0-0.6-1.1-1.5-3.2c-0.8-2.1-2-5.2-3.5-8.9
							c-2.9-7.5-6.9-18-11.5-29.4c-4.5-11.5-8.6-21.9-11.5-29.4c-1.4-3.8-2.6-6.8-3.4-9C1031.4,831.3,1031,830.1,1031.1,830.1z"/>
					</g>
				</g>
			</g>
			<g>
				<g>
					<g>
						<path class="st34" d="M1032,852.6c0.2-0.1,1.9,3.4,4.4,9.2c2.5,5.7,5.9,13.7,9.3,22.6c3.4,9,5.9,17.3,7.6,23.3
							c1.6,6,2.5,9.8,2.2,9.9c-0.2,0.1-1.4-3.6-3.4-9.6c-1.9-5.9-4.6-14.1-8-23.1c-3.3-8.9-6.6-16.9-8.8-22.8
							C1033.1,856.3,1031.8,852.7,1032,852.6z"/>
					</g>
				</g>
			</g>
			<g>
				<g>
					<g>
						<path class="st34" d="M1018,834.5c0.1,0,0.6,1.1,1.4,3.2c0.8,2.1,1.9,5.2,3.3,9c2.7,7.6,6.4,18.2,10.2,29.9
							c3.8,11.8,7.1,22.5,9.2,30.3c1.1,3.9,1.9,7.1,2.4,9.3c0.5,2.2,0.8,3.4,0.6,3.5c-0.1,0-0.6-1.1-1.3-3.3
							c-0.7-2.2-1.7-5.3-2.9-9.1c-2.4-7.7-5.8-18.3-9.7-30.1c-3.8-11.7-7.3-22.4-9.7-30.1c-1.2-3.9-2.2-7-2.8-9.2
							C1018.2,835.8,1017.9,834.5,1018,834.5z"/>
					</g>
				</g>
			</g>
			<g>
				<g>
					<g>
						<path class="st34" d="M1017.2,854.9c0.2-0.1,1.7,3.6,3.5,9.7c1.9,6.1,4.2,14.6,6.5,24.1c2.3,9.5,4.2,18.1,5.5,24.3
							c1.3,6.2,2.1,10.1,1.9,10.2c-0.2,0.1-1.4-3.7-3-9.9c-1.6-6.2-3.7-14.7-6-24.2c-2.3-9.4-4.4-18-6-24.2
							C1018,858.8,1017,855,1017.2,854.9z"/>
					</g>
				</g>
			</g>
			<g>
				<g>
					<g>
						<path class="st34" d="M1023.3,922.3c-0.1,0-0.5-1.1-1-3.1c-0.5-2-1.3-5-2.1-8.7c-1.7-7.3-3.9-17.5-6.2-28.7
							c-2.3-11.3-4.4-21.4-5.9-28.8c-0.7-3.7-1.3-6.7-1.7-8.7c-0.4-2.1-0.5-3.2-0.4-3.3c0.1,0,0.5,1.1,1,3.1c0.6,2,1.3,5,2.2,8.6
							c1.8,7.3,4,17.5,6.3,28.7c2.3,11.2,4.3,21.4,5.7,28.8c0.7,3.7,1.3,6.7,1.6,8.8C1023.3,921.1,1023.5,922.3,1023.3,922.3z"/>
					</g>
				</g>
			</g>
			<g>
				<g>
					<g>
						<path class="st34" d="M1002.6,857.6c0.2,0,1.3,3.8,2.6,10c1.3,6.3,2.8,15,4.2,24.6c1.4,9.6,2.5,18.4,3.2,24.7
							c0.7,6.3,1.1,10.3,0.9,10.3c-0.2,0-1-3.8-2.1-10.1c-1-6.3-2.3-15-3.7-24.6c-1.4-9.6-2.7-18.3-3.7-24.6
							C1003.1,861.5,1002.4,857.7,1002.6,857.6z"/>
					</g>
				</g>
			</g>
			<g>
				<g>
					<g>
						<path class="st34" d="M1003.2,929.8c-0.1,0-0.4-1.1-0.7-3.2c-0.3-2.1-0.8-5.1-1.3-8.8c-1-7.5-2.2-17.8-3.5-29.2
							c-1.2-11.4-2.3-21.8-3.1-29.2c-0.4-3.7-0.7-6.8-0.9-8.9c-0.2-2.1-0.2-3.3-0.1-3.3c0.1,0,0.4,1.1,0.7,3.2
							c0.4,2.1,0.9,5.1,1.4,8.8c1.1,7.5,2.4,17.8,3.6,29.2c1.2,11.4,2.3,21.8,3,29.2c0.4,3.7,0.6,6.8,0.8,8.9
							C1003.3,928.6,1003.4,929.7,1003.2,929.8z"/>
					</g>
				</g>
			</g>
			<g>
				<g>
					<g>
						<path class="st34" d="M986.4,858.1c0.2,0,1.1,3.8,2.1,10.1c1,6.3,2.1,15.1,3,24.8c0.9,9.7,1.6,18.5,2,24.8
							c0.4,6.4,0.6,10.3,0.4,10.3c-0.2,0-0.8-3.9-1.6-10.2c-0.7-6.3-1.6-15.1-2.5-24.8c-0.9-9.7-1.8-18.4-2.5-24.8
							C986.7,862.1,986.2,858.2,986.4,858.1z"/>
					</g>
				</g>
			</g>
			<g>
				<g>
					<g>
						<path class="st34" d="M983.6,930.7c-0.1,0-0.3-1.1-0.6-3.2c-0.3-2.1-0.6-5.1-1-8.9c-0.8-7.5-1.7-17.9-2.5-29.3
							c-0.9-11.5-1.6-21.8-2.2-29.3c-0.3-3.8-0.5-6.8-0.6-8.9c-0.1-2.1-0.1-3.3,0-3.3c0.1,0,0.3,1.1,0.6,3.2
							c0.3,2.1,0.7,5.1,1.1,8.8c0.8,7.5,1.8,17.8,2.7,29.3c0.9,11.4,1.6,21.8,2,29.3c0.2,3.8,0.4,6.8,0.5,8.9
							C983.7,929.5,983.7,930.7,983.6,930.7z"/>
					</g>
				</g>
			</g>
			<g>
				<g>
					<g>
						<path class="st34" d="M968.8,860.9c0.2,0,1,3.9,1.8,10.2c0.8,6.3,1.6,15.1,2.2,24.8c0.6,9.7,1,18.5,1.2,24.9
							c0.2,6.4,0.3,10.3,0.1,10.3c-0.2,0-0.7-3.9-1.2-10.3c-0.5-6.4-1.1-15.2-1.7-24.9c-0.6-9.7-1.2-18.5-1.7-24.8
							C969,864.9,968.6,861,968.8,860.9z"/>
					</g>
				</g>
			</g>
			<g>
				<g>
					<g>
						<path class="st34" d="M962.9,933.3c-0.1,0-0.2-1.2-0.4-3.3c-0.1-2.1-0.2-5.1-0.4-8.9c-0.2-7.5-0.4-17.9-0.4-29.4
							c0-11.5,0-21.9-0.1-29.4c0-3.8,0-6.8,0.1-8.9c0-2.1,0.1-3.3,0.2-3.3c0.1,0,0.3,1.2,0.4,3.3c0.2,2.1,0.3,5.1,0.5,8.9
							c0.3,7.5,0.5,17.9,0.5,29.4c0,11.5,0,21.9-0.1,29.4c0,3.8-0.1,6.8-0.2,8.9C963.1,932.2,963,933.3,962.9,933.3z"/>
					</g>
				</g>
			</g>
		</g>
	</g>
	<g>
		<g>
			<g>
				<g>
					<g>
						<path class="st35" d="M901,679c0.2,0.1-1.1,2.1-3,5.2c-2,3.1-4.7,7.5-7.7,12.4c-3,4.9-5.7,9.2-7.8,12.3
							c-2.1,3.1-3.6,4.9-3.8,4.7c-0.2-0.1,1-2.1,2.8-5.3c1.9-3.2,4.4-7.7,7.4-12.6c3-4.9,5.9-9.2,8.1-12.2
							C899.3,680.6,900.9,678.9,901,679z"/>
					</g>
				</g>
			</g>
			<g>
				<g>
					<g>
						<path class="st35" d="M904.3,687c0.2,0.1-0.6,1.9-2,4.8c-1.4,2.9-3.4,6.8-5.7,11.2c-2.3,4.3-4.5,8.2-6.3,10.9
							c-1.8,2.7-3.3,4.1-3.5,3.9c-0.2-0.2,1-1.7,2.5-4.5c1.6-2.8,3.6-6.7,5.9-11c2.3-4.3,4.4-8.2,6.1-11
							C902.9,688.5,904.1,686.8,904.3,687z"/>
					</g>
				</g>
			</g>
			<g>
				<g>
					<g>
						<path class="st35" d="M917.2,682.1c0.2,0.1-0.5,2.5-2.1,6.3c-1.6,3.8-4.2,8.8-7.2,14.3c-3,5.5-5.7,10.4-7.6,14
							c-1.9,3.6-2.9,5.9-3.2,5.8c-0.2-0.1,0.5-2.5,2.1-6.3c1.6-3.8,4.2-8.8,7.2-14.3c3-5.5,5.7-10.4,7.5-14
							C915.9,684.3,917,682,917.2,682.1z"/>
					</g>
				</g>
			</g>
			<g>
				<g>
					<g>
						<path class="st35" d="M919.7,697.7c0.4,0.1-1.3,7-4.4,15c-3.1,8.1-6.4,14.3-6.8,14.1c-0.4-0.2,2.2-6.7,5.3-14.7
							C916.8,704.1,919.2,697.5,919.7,697.7z"/>
					</g>
				</g>
			</g>
			<g>
				<g>
					<g>
						<path class="st35" d="M919.9,730.9c-0.5-0.1,1.9-10,4.2-22.3c2.3-12.3,4.4-22.3,4.8-22.2c0.2,0,0,2.6-0.6,6.7
							c-0.6,4.1-1.5,9.7-2.6,15.9c-1.2,6.2-2.5,11.7-3.6,15.7C920.9,728.5,920.1,730.9,919.9,730.9z"/>
					</g>
				</g>
			</g>
			<g>
				<g>
					<g>
						<path class="st35" d="M934.1,697.7c0.5,0,0.8,7.6-0.3,16.8c-0.5,4.6-1.2,8.7-1.7,11.7c-0.5,3-1,4.8-1.2,4.8
							c-0.2,0-0.2-1.9,0-4.9c0.2-3,0.7-7.2,1.2-11.8C933.3,705.2,933.7,697.7,934.1,697.7z"/>
					</g>
				</g>
			</g>
			<g>
				<g>
					<g>
						<path class="st35" d="M940.2,731.3c-0.5,0,0.3-10.2,0.5-22.7c0.3-12.5,0.7-22.7,1.1-22.7c0.2,0,0.4,2.5,0.5,6.7
							c0.1,4.1,0.1,9.8,0,16.1c-0.1,6.3-0.5,12-1,16.1C940.9,728.8,940.4,731.3,940.2,731.3z"/>
					</g>
				</g>
			</g>
			<g>
				<g>
					<g>
						<path class="st35" d="M950.2,701.3c0.4-0.1,1.7,7.4,1.9,16.7c0.1,4.6,0,8.8-0.2,11.8c-0.1,3-0.3,4.9-0.6,4.9
							c-0.2,0-0.4-1.9-0.6-4.9c-0.2-3-0.2-7.2-0.3-11.8C950.3,708.8,949.8,701.4,950.2,701.3z"/>
					</g>
				</g>
			</g>
		</g>
		<g>
			<g>
				<g>
					<g>
						<path class="st35" d="M999.3,679.1c0.2-0.1,1.7,1.6,4,4.6c2.2,3,5.1,7.3,8.1,12.2c3,4.9,5.5,9.3,7.4,12.6
							c1.9,3.2,3,5.2,2.8,5.3c-0.2,0.1-1.7-1.6-3.8-4.7c-2.1-3.1-4.8-7.5-7.8-12.3c-3-4.9-5.7-9.2-7.7-12.4
							C1000.4,681.2,999.1,679.3,999.3,679.1z"/>
					</g>
				</g>
			</g>
			<g>
				<g>
					<g>
						<path class="st35" d="M996.1,687.1c0.2-0.1,1.4,1.5,3.1,4.2c1.7,2.7,3.8,6.6,6.1,11c2.3,4.3,4.3,8.3,5.9,11
							c1.5,2.8,2.7,4.4,2.5,4.5c-0.2,0.2-1.7-1.2-3.5-3.9c-1.9-2.7-4.1-6.5-6.3-10.9c-2.3-4.3-4.2-8.3-5.7-11.2
							C996.7,689,995.9,687.2,996.1,687.1z"/>
					</g>
				</g>
			</g>
			<g>
				<g>
					<g>
						<path class="st35" d="M983.1,682.2c0.2-0.1,1.3,2.2,3.2,5.8c1.9,3.6,4.6,8.5,7.6,14c3,5.5,5.6,10.5,7.2,14.3
							c1.6,3.8,2.3,6.2,2.1,6.3c-0.2,0.1-1.3-2.2-3.2-5.8c-1.9-3.6-4.6-8.5-7.6-14c-3-5.5-5.6-10.5-7.2-14.3
							C983.6,684.7,982.9,682.3,983.1,682.2z"/>
					</g>
				</g>
			</g>
			<g>
				<g>
					<g>
						<path class="st35" d="M980.7,697.8c0.4-0.1,2.8,6.4,5.9,14.5c3.1,8,5.7,14.5,5.3,14.7c-0.4,0.2-3.7-6-6.8-14.1
							C982,704.7,980.3,697.9,980.7,697.8z"/>
					</g>
				</g>
			</g>
			<g>
				<g>
					<g>
						<path class="st35" d="M980.5,731c-0.2,0.1-1.1-2.4-2.2-6.3c-1.1-4-2.5-9.5-3.6-15.7c-1.2-6.2-2.1-11.8-2.6-15.9
							c-0.6-4.1-0.8-6.6-0.6-6.7c0.5-0.1,2.5,9.9,4.8,22.2C978.6,721,980.9,730.8,980.5,731z"/>
					</g>
				</g>
			</g>
			<g>
				<g>
					<g>
						<path class="st35" d="M966.2,697.8c0.4,0,0.9,7.4,1.9,16.6c0.5,4.6,1,8.7,1.2,11.8c0.2,3,0.3,4.9,0.1,4.9
							c-0.2,0-0.7-1.8-1.2-4.8c-0.5-3-1.2-7.1-1.7-11.7C965.4,705.4,965.7,697.8,966.2,697.8z"/>
					</g>
				</g>
			</g>
			<g>
				<g>
					<g>
						<path class="st35" d="M960.1,731.4c-0.2,0-0.7-2.5-1.1-6.6c-0.5-4.1-0.9-9.8-1-16.1c-0.2-6.3-0.1-12,0-16.1
							c0.1-4.1,0.3-6.7,0.5-6.7c0.5,0,0.9,10.2,1.1,22.7C959.9,721.2,960.6,731.4,960.1,731.4z"/>
					</g>
				</g>
			</g>
		</g>
	</g>
	<g>
		<g>
			<g>
				<path class="st36" d="M1001.4,960.1c-0.1,0.1-1.5-1.3-4.7-2.8c-3.1-1.6-8.1-3-14.4-2.7c-3.1,0.2-6.5,0.7-10,1.9
					c-3.5,1.2-7,3-10.1,5.6c-3.1,2.6-5.8,6.2-7.1,10.3c-1.3,4.2-1.8,9-2.2,13.7c-0.8,9.6-0.9,18.8-1,27.2c-0.1,8.4,0,15.9,0.1,22.3
					c0.1,6.3,0.1,11.5,0.1,15c0,3.5-0.2,5.5-0.3,5.5c-0.1,0-0.2-2-0.3-5.5c-0.2-3.5-0.4-8.7-0.6-15c-0.2-6.3-0.4-13.9-0.4-22.3
					c0-8.4,0.1-17.6,0.9-27.3c0.4-4.8,0.9-9.6,2.3-14.1c1.5-4.5,4.4-8.2,7.7-11c3.3-2.8,7-4.6,10.6-5.8c3.6-1.2,7.2-1.7,10.4-1.8
					c6.5-0.1,11.6,1.6,14.7,3.3c1.6,0.9,2.7,1.7,3.4,2.3C1001.1,959.7,1001.4,960,1001.4,960.1z"/>
			</g>
		</g>
	</g>
	<g>
		<g>
			<g>
				<path class="st36" d="M988.4,954.2c0-0.1,0.4-0.1,1.1-0.1c0.4,0,0.8,0,1.3,0.1c0.5,0.1,1.1,0.1,1.8,0.3c0.7,0.2,1.4,0.4,2.2,0.6
					c0.8,0.3,1.7,0.7,2.6,1.1c1.8,1,3.7,2.3,5.4,4.1c3.5,3.7,6.3,9.1,8,15.5c1.8,6.3,2.7,13.5,3.1,21c0.4,7.5,0.1,14.7-0.1,21.2
					c-0.1,6.5,0.2,12.3,0.3,17.2c0.1,4.9,0,8.9-0.3,11.7c-0.2,2.8-0.5,4.2-0.6,4.2c-0.1,0,0-1.5,0-4.3c0.1-2.7,0-6.7-0.3-11.6
					c-0.2-4.9-0.7-10.7-0.7-17.3c0.1-6.5,0.3-13.6,0-21.1c-0.4-7.4-1.2-14.5-2.9-20.7c-1.6-6.2-4.2-11.5-7.4-15.1
					c-1.6-1.8-3.4-3.1-5-4.1c-0.8-0.4-1.6-0.8-2.4-1.2c-0.8-0.3-1.5-0.5-2.1-0.7c-0.7-0.1-1.3-0.3-1.8-0.4c-0.5-0.1-0.9-0.2-1.3-0.2
					C988.8,954.3,988.4,954.2,988.4,954.2z"/>
			</g>
		</g>
	</g>
</g>
</svg>
