<?xml version="1.0" encoding="utf-8"?>
<!-- Generator: Adobe Illustrator 23.1.1, SVG Export Plug-In . SVG Version: 6.00 Build 0)  -->
<svg version="1.1" id="Camada_1" xmlns="http://www.w3.org/2000/svg" xmlns:xlink="http://www.w3.org/1999/xlink" x="0px" y="0px"
	 viewBox="0 0 600 900" style="enable-background:new 0 0 600 900;" xml:space="preserve">
<style type="text/css">
	.st0{fill:#FFF9DE;}
	.st1{fill:#EBAC66;}
	.st2{fill:#F3C581;}
	.st3{fill:#DA864C;}
	.st4{fill:#E0964D;}
	.st5{opacity:0.81;}
	.st6{fill:#87AACF;}
	.st7{fill:#009599;}
	.st8{fill:#334056;}
	.st9{fill:#53688C;}
	.st10{fill:#FED872;}
	.st11{fill:#9FC7F2;}
	.st12{fill:#6391C2;}
	.st13{fill:#00B3B8;}
	.st14{fill:#E4A760;}
	.st15{fill:#FEB900;}
	.st16{opacity:0.25;}
	.st17{fill:#D9DEDD;}
	.st18{fill:#5D6267;}
	.st19{fill:#FEC326;}
	.st20{opacity:0.32;}
	.st21{fill:#FFFFFF;}
	.st22{fill:#6990B8;}
	.st23{fill:#60B6BA;}
	.st24{fill:#E7B18B;}
	.st25{fill:url(#SVGID_1_);}
	.st26{fill:#212C50;}
	.st27{fill:#D2C0C0;}
	.st28{fill:none;stroke:#212C50;stroke-width:4.4619;stroke-linecap:round;stroke-linejoin:round;stroke-miterlimit:10;}
	.st29{fill:#E8D4D3;}
	.st30{opacity:0.5;fill:#D7EBFA;}
	.st31{fill:none;stroke:#D9D9D9;stroke-width:5.7239;stroke-linecap:round;stroke-miterlimit:10;}
	.st32{fill:#D29775;}
	.st33{fill:#F28D47;}
	.st34{fill:#E06E46;}
	.st35{opacity:0.2;fill:#FFFFFF;}
	.st36{fill:#E8C27E;}
	.st37{fill:#D8B16C;}
	.st38{fill:#AA572B;}
	.st39{fill:#F4906C;}
	.st40{opacity:0.4;fill:#E06E46;}
	.st41{opacity:0.5;fill:#E06E46;}
	.st42{fill:#CE9A56;stroke:#CE9A56;stroke-width:0.1403;stroke-miterlimit:10;}
	.st43{fill:#D9AD66;stroke:#D9AD66;stroke-width:0.1403;stroke-miterlimit:10;}
	.st44{fill:#BC775F;stroke:#BC775F;stroke-width:0.1403;stroke-miterlimit:10;}
</style>
<g>
	<path class="st0" d="M519,407.8c-24,38.4-65,69-115,99.4c-3,2.4-6,3.9-8,5.2c-7,5.1-15,8.6-22,12.1c-7,4.5-14,9.2-22,12.2
		c-3,0.8-6,2.6-9,3.4c-2,0.5-5,2.4-7,3.9c-2,0.6-4,1.1-6,1.7c-21,9-42,15.6-63,18.6c-2,0.6-4,1.1-6,1.7c-48,5.6-89-6.9-126-42.5
		c-7-6.7-13-13.6-19-21.7c-9-11.8-16-23.6-24-37.3c-6-12-11-22.9-16-35.1c-5-14.2-10-27.6-14-42.7c-1-5.5-2-12.1-4-18.2
		C46,306,52,256.2,76,217.4c6-8.4,12-17.1,19-25.9c10-10.9,20-21.5,33-30.8c1-0.9,1-1.9,2-2.7c5-2.4,8-6.2,13-8.8c1-0.9,1-1.9,2-2.9
		c28-19.7,56-38.3,90-55.4c1-0.2,3-0.7,4-1c31-16.7,62-27.9,94-32.9c2-0.6,5,0.6,7,0.1c3-0.8,7-0.9,10-0.7c8-1.1,16-1,23,0.5
		c5,0.9,11,0.7,16,1.8c24,5.7,47,17,68,35.6c1,1.1,1,2.1,2,3.2c54,49.8,83,136.8,86,205.7C546,344.7,537,378.5,519,407.8L519,407.8z
		"/>
</g>
<g>
	<g>
		<g>
			<g>
				<path class="st1" d="M-108.3-103.9c-19.2-8.4-41.9,0.2-52,23.8c-10.1,23.6,0.1,50,0.9,63.6c0.9,13.6,3.4,25.8-1.7,39.1
					c-5.1,13.3-73.1,188-71.5,195.7c1.2,6,11,8.3,14.8,3.7c3.8-4.6,68.1-190.5,79.6-205.9c10.6-14.3,39-35,48.7-52.5
					C-79.1-55-70.8-87.5-108.3-103.9z"/>
			</g>
		</g>
		<g>
			<g>
				<path class="st2" d="M-110.7-104.9c-0.1,0-0.1,0-0.2-0.1C-110.8-104.9-110.8-104.9-110.7-104.9
					C-110.7-104.9-110.7-104.9-110.7-104.9z"/>
			</g>
		</g>
		<g>
			<g>
				<path class="st2" d="M-141.6,1.2c-1.2-5.3,0.7-10.8-1.4-16c-1.7-4.3-5.1-7.7-7.4-11.6c-6.1-10.5-4.7-24.1-5.6-35.7
					c-0.7-9.3-1.3-19.3,1.5-28.2c-0.3,0.4-0.6,0.9-0.9,1.4c-1,3.7-1.6,7.6-1.7,11.4c-0.3,7.1,0.6,14.2,1,21.3
					c0.4,6.3,0.3,12.7,1.3,18.9c0.8,5.2,2.5,9.9,5.5,14.2c1.6,2.3,3.3,4.4,4.7,6.8c2.4,4.2,2.1,7.8,2.1,12.5c0,6.7,3.2,12.2,6,17.8
					c0.2-0.2,0.3-0.4,0.5-0.6C-138.2,9.5-140.6,5.6-141.6,1.2z"/>
			</g>
		</g>
		<g>
			<g>
				<path class="st3" d="M-146.7-98.6c0.2-0.2,0.4-0.3,0.6-0.5L-146.7-98.6z"/>
			</g>
		</g>
		<g>
			<g>
				<path class="st2" d="M-134.9-24.1c-1-4.2-3.2-7.3-5.7-10.8c-6.1-8.6-5.7-19.1-6.4-29.2c-0.7-10.6-3.8-24.7,0.9-35
					c-0.2,0.2-0.4,0.3-0.6,0.5c-2.4,5.7-2.5,12.1-2.1,18.4c0.6,11.3,0.8,23,2.6,34.2c0.8,4.6,2.4,8.4,5.1,12.1
					c4.1,5.7,6,10.7,6.7,17.7c0.8,8.4,1.4,16.9,2.1,25.4c0.3-0.3,0.6-0.6,0.9-0.9c-0.6-6.2-1.2-12.4-1.8-18.5
					C-133.7-14.9-133.8-19.6-134.9-24.1z"/>
			</g>
		</g>
		<g>
			<g>
				<path class="st2" d="M-110.2-30.6c2.9-7.9,6.2-13.8,1.5-21.9c-5.2-8.9-15.2-13.9-21.1-22.3c-5.9-8.4-9.2-18.3-9.6-28.5
					c-0.1,0.1-0.2,0.1-0.3,0.2c0.2,8.1,2,16,5.7,23.3c4.9,9.6,12.6,15.2,20,22.6c4.4,4.4,8.7,10.7,7,17.2c-1.4,5.3-4.3,9.8-5.4,15.3
					c-1.1,5.5-1.7,11.1-2.1,16.8c0.4-0.4,0.8-0.7,1.1-1.1c0-0.4,0.1-0.7,0.1-1.1C-112.8-16.9-112.7-24.1-110.2-30.6z"/>
			</g>
		</g>
		<g>
			<g>
				<path class="st4" d="M-98.5-73.8c-4.9-9.7-14-7.9-23-10.7c-9-2.8-12.6-11.6-14.7-20.2c-0.1,0.1-0.3,0.1-0.4,0.2
					c1.4,6.8,3.7,13.9,9.3,18.2c8.9,7.1,22.4,1.5,28.2,13.5c2.1,4.3,3,9.1,5.1,13.4c1.1,2.2,2.6,4.2,3.5,6.4c1.6,3.9,1,7.7,0.2,11.8
					c-0.5,2.5-0.9,5.2-1,7.8c0.4-0.6,0.7-1.1,1.1-1.7c0.4-4.5,1.9-8.9,1.9-13.4c0-4.7-2.7-8.1-4.8-12.1L-98.5-73.8z"/>
			</g>
		</g>
		<g>
			<g>
				<path class="st2" d="M-104.8-90.5c1.4,1.3,2.9,2.5,4.3,3.6c4.7,3.8,11.1,6.9,17,5.6c-0.2-0.4-0.3-0.8-0.5-1.2
					c-4.3,0.5-8.6-0.8-12.5-3.3c-1.6-1-3.4-2.3-5.2-3.8c-4.9-4-9.6-9.5-8.4-15.2c0,0,0,0,0,0c-0.2-0.1-0.3-0.1-0.5-0.2
					C-112.6-99.2-109-94.4-104.8-90.5z"/>
			</g>
		</g>
		<g>
			<g>
				<path class="st2" d="M-164.1-65.9c2.8,13.7,4.9,27.2,3.6,41.1c0.1,0.8,0.3,1.6,0.4,2.3c2.5-14.9-0.3-30.4-3.8-45
					C-164-67-164.1-66.5-164.1-65.9z"/>
			</g>
		</g>
		<g>
			<g>
				<path class="st4" d="M-148.4,1.7c0.1-4.7-0.4-10.4-4.4-13.5c-1.9-1.5-4.2-2.1-6.4-1.8c0,0.3,0,0.6,0.1,0.9
					c2.4-0.1,4.9,1,6.6,2.8c3.1,3.2,3.5,8,3.4,12.2c-0.2,5.8-1.4,11.5-4.9,16.3c-2.5,3.5-5.8,6.4-9.1,9.1c-0.2,0.5-0.4,1-0.6,1.5
					C-154.6,22-148.7,13.9-148.4,1.7z"/>
			</g>
		</g>
		<g>
			<g>
				<path class="st2" d="M-158.4-5.6c0,0.5,0.1,1,0.1,1.4c3.8,4.5,2.9,10.2,0,15.6c-0.1,0.6-0.2,1.3-0.3,1.9
					c0.7-1.3,1.4-2.6,1.9-3.9C-154.7,4.5-154.3-2-158.4-5.6z"/>
			</g>
		</g>
		<g>
			<g>
				<path class="st2" d="M-155,31.9c-4.3,4-7,8.5-7.8,14.3c-0.7,5,0,8.8-4.9,13.2c-1.5,1.4-3.5,2.3-5.1,3.4
					c-1.9,1.3-3.8,2.8-5.5,4.4c-0.2,0.6-0.5,1.3-0.7,1.9c1.1-1.1,2.3-2.2,3.5-3.2c3.9-3.1,9-5,11.4-9.6c3.4-6.5,1.1-13.6,6-19.9
					c2.9-3.8,9.3-9.9,15.1-11.1c0.2-0.5,0.4-0.9,0.6-1.4C-147.1,24.6-151.9,29.1-155,31.9z"/>
			</g>
		</g>
		<g>
			<g>
				<path class="st2" d="M-164.6,69.6c-5,4.7-10.1,9.5-11,16.7c-0.6,5.3,0.4,10.8,0.9,16c0.1,1.1,0.2,2.2,0.3,3.3
					c0.2-0.6,0.5-1.3,0.7-1.9c-0.4-4.1-0.8-8.1-1-12.2c-0.4-7,1.5-12.1,6.3-17c2.5-2.6,5.3-4.8,7.7-7.4c0.5-0.5,0.9-1,1.3-1.5
					c0.4-1,0.8-2,1.1-2.9C-159.9,65.1-162.1,67.3-164.6,69.6z"/>
			</g>
		</g>
		<g>
			<g>
				<path class="st4" d="M-154.5,42c-1.1,3.5-0.8,6.9-0.8,10.5c0,1,0,2-0.2,2.9c0.3-0.8,0.6-1.6,1-2.4c0.1-5.4-0.6-10.1,2.7-14.9
					c1.5-2.1,3.3-3.8,5.4-5.1c0.2-0.5,0.4-0.9,0.6-1.4C-149.8,33.7-153,37.4-154.5,42z"/>
			</g>
		</g>
		<g>
			<g>
				<path class="st4" d="M-186.6,98c-7.1,15.2-8.1,32.7-2.9,48.5c0.2-0.4,0.3-0.9,0.5-1.3c-4.4-13.6-4.3-28.5,0.7-42.1
					c0.3-0.7,0.5-1.4,0.8-2.1c0.9-1.4,1.2-1.1,0.9,0.9c0.6,1.9,0.3,4.8,0.5,6.8c0.3,4,0.5,8.1,1.2,12.1c0.5,2.5,1.1,5,2.1,7.3
					c0.2-0.6,0.4-1.1,0.6-1.7c-3.6-8.6-3.4-19.2-4.1-28.4C-186.2,97.5-186.5,97.8-186.6,98z"/>
			</g>
		</g>
		<g>
			<g>
				<path class="st4" d="M-225.9,207.4c2.5-4.9,8.7-9,7.6-15.2c-0.2-1-0.6-1.8-0.8-2.8c-0.5-2.2,0.9-8,2-10c1.1-1.9,2.6-3.6,3.8-5.4
					c2-2.8,4.9-5.7,6.1-9c0.7-2,0.3-3.7-0.2-5.7c-0.7-3.1-1.5-6.2-2.3-9.3c-0.1,0.4-0.3,0.8-0.4,1.2c0.2,0.7,0.3,1.4,0.5,2
					c0.6,2.4,1.9,5.4,1.9,7.9c0,6.4-5.3,11.4-8.8,16.4c-1.6,2.3-3.3,4.9-3.8,7.7c-1,5.7,3.4,8.4-0.9,14.5c-3.8,5.5-7.2,9.7-8,16.6
					c-0.2,2.2-0.2,4.4,0.1,6.6c0.4,0.2,0.7,0.4,1.1,0.6C-229,218.1-228.6,212.6-225.9,207.4z"/>
			</g>
		</g>
		<g>
			<g>
				<path class="st2" d="M-214.1,203.7c1.5-2.9,2.3-5.9,2-9.2c-0.2-2.5-1.2-5-1.1-7.5c0.1-5.6,3.2-10.2,6.5-14.4
					c3.7-4.8,8.1-11.1,5.8-17.5c-0.9-2.4-2.8-4.2-3.5-6.6c-1.2-3.6,0.1-7.7,0.7-11.3c0.4-2,0.7-4,1.1-6.1c-0.3,0.9-0.7,1.8-1,2.7
					c-0.3,1.8-0.7,3.6-1,5.3c-0.6,3.4-1.5,7-0.5,10.3c0.9,2.8,3.2,4.9,3.8,7.9c1.2,5.5-2.4,10.2-5.5,14.2c-2.5,3.2-5.2,6.4-6.5,10.3
					c-1.4,4.4,0.1,8.2,0.5,12.6c0.8,8.6-6,13.8-9.6,20.6c-1.5,2.9-2.6,5.9-3.2,9c0.2,0,0.4,0.1,0.6,0.1c0.3-1.8,0.8-3.5,1.5-5.2
					C-221.3,213.3-216.9,209.1-214.1,203.7z"/>
			</g>
		</g>
		<g>
			<g>
				<path class="st2" d="M-114.5-92.1c-18.7-5.6-42.2,2.8-41.8,38.5c0.5,45.1,26.5,56,57.5,17.7C-71.6-69.5-97.8-87.1-114.5-92.1z"
					/>
			</g>
		</g>
		<g>
			<g>
				<path class="st4" d="M-115.7-87.7c-16.7-5-37.6,2.5-37.2,34.3c0.5,40.2,23.6,49.9,51.3,15.8C-77.5-67.6-100.8-83.3-115.7-87.7z"
					/>
			</g>
		</g>
		<g>
			<g>
				<path class="st3" d="M-108.1-73.5c2.2-2.8,4.1-5.4,5.5-7.9c-4.2-3-9-5.1-13.1-6.3c-15.3-4.6-34.3,1.4-36.9,27.1
					C-143.7-47.3-127-50.2-108.1-73.5z"/>
			</g>
		</g>
		<g class="st5">
			<g>
				<path class="st2" d="M-225.8,216.1L-225.8,216.1c-1.3-0.5-2-1.8-1.6-2.8l75-194.2c0.4-1.1,1.8-1.5,3.1-1l0,0
					c1.3,0.5,2,1.8,1.6,2.8l-75,194.2C-223.1,216.1-224.5,216.6-225.8,216.1z"/>
			</g>
		</g>
	</g>
	<g>
		<g>
			<g>
				<path class="st1" d="M-166.8-135.2c-3.8-18-15.9-36.8-35.5-36.1c-27.3,0.9-34.3,39.9-34.2,52.6c0.1,18.2,5.1,34.2,13.3,46.3
					c8.7,12.7,13.7,21.9,13.7,29.5l0,253.3c0,3.5,2.8,6.3,6.3,6.3l0,0c3.5,0,6.3-2.8,6.3-6.3c0.1-39,0.5-246.3,2.3-257.5
					c1.9-12.4,9.5-12.7,20.3-33.6C-166-96.9-162.3-114.3-166.8-135.2z"/>
			</g>
		</g>
		<g>
			<g>
				<path class="st1" d="M-166.8-135.2c-3.8-18-15.9-36.8-35.5-36.1c-27.3,0.9-34.3,39.9-34.2,52.6c0.1,18.2,5.1,34.2,13.3,46.3
					c8.7,12.7,13.7,21.9,13.7,29.5l0,253.3c0,3.5,2.8,6.3,6.3,6.3l0,0c3.5,0,6.3-2.8,6.3-6.3c0.1-39,0.5-246.3,2.3-257.5
					c1.9-12.4,9.5-12.7,20.3-33.6C-166-96.9-162.3-114.3-166.8-135.2z"/>
			</g>
		</g>
		<g>
			<g>
				<g>
					<path class="st1" d="M-211.9-165.8c1.8-0.4,4-0.9,6.2-1.7c2.7-0.9,5.4-2.1,7.7-3.7c-1.4-0.2-2.8-0.2-4.3-0.2
						c-6.4,0.2-11.6,2.5-15.9,6C-216.2-165.1-214-165.3-211.9-165.8z"/>
				</g>
			</g>
			<g>
				<g>
					<path class="st1" d="M-198.5,155.6c0.6,2.7,1.3,5.3,1.7,7.8c0-5.3,0-10.8,0.1-16.5C-198.2,149-199.5,151.2-198.5,155.6z"/>
				</g>
			</g>
			<g>
				<g>
					<path class="st2" d="M-196.7,126.1c0-4.5,0-9.2,0.1-13.8c-0.2,0.4-0.4,0.8-0.6,1.2C-198.7,117.5-197.8,121.8-196.7,126.1z"/>
				</g>
			</g>
			<g>
				<g>
					<path class="st2" d="M-198.5-69.6c1.7-4.5,2.7-8.1,6.4-11.3c2.1-1.8,4.6-3.2,6.8-4.8c4.3-3.1,7.6-7,10.2-11.7
						c3.2-5.6,5.4-11.8,8-17.7c0.7-1.5,1.4-3,2-4.5c0-0.5,0-1-0.1-1.5c0,0,0,0.1-0.1,0.1c-5,10.9-8.7,24.5-18.1,32.3
						c-3.6,3-8,4.9-11.1,8.4c-3.8,4.2-4,10.2-7.1,14.8c-2.9,4.5-7.2,7.6-11,11.2c0.1,0.3,0.2,0.5,0.3,0.8
						C-206.9-58.2-201.1-62.5-198.5-69.6z"/>
				</g>
			</g>
			<g>
				<g>
					<path class="st2" d="M-189.1-99.2c3.9-2.6,6.7-5.7,9.1-9.8c5-8.7,8.9-18.3,12.9-27.6c-0.1-0.2-0.1-0.4-0.2-0.6
						c-1.9,4-3.9,7.8-5.5,11.3c-4.3,9.5-7.7,19.7-16.4,25.7c-3.5,2.4-6.7,4.6-9.2,8.3c-2.6,3.9-4.5,8.4-6.6,12.7
						c-3.3,6.8-6.6,13.5-9.9,20.4c0.2,0.4,0.4,0.7,0.6,1.1c4.3-8.8,8.3-17.8,12.6-26.7C-198.6-91.1-194.9-95.3-189.1-99.2z"/>
				</g>
			</g>
			<g>
				<g>
					<path class="st2" d="M-218.6-117.7c0.8-7,7-11.4,12.7-14c9.6-4.4,18.8-6.9,26.8-14.3c2.1-2,4.1-4.2,5.9-6.5
						c-0.1-0.2-0.3-0.5-0.4-0.7c-3.2,4-7,7.6-11.2,10.5c-8.6,5.9-19.6,7.1-27.7,13.7c-7.3,6-6.4,12.9-6.5,21.6
						c-0.1,7.2-2.5,14.1-4.4,20.9c-0.9,3.2-1.8,6.3-2.7,9.5c0.2,0.3,0.4,0.7,0.6,1c2.6-8.2,5.1-16.6,6.5-24.9
						C-218.1-106.6-219.2-112.1-218.6-117.7z"/>
				</g>
			</g>
			<g>
				<g>
					<path class="st2" d="M-229.4-136.3c1.7-1.8,3.8-3.2,5.6-4.9c3.5-3.4,6.1-7.6,9.6-11c9.7-9.4,20.3,1,31.2-2.5
						c2.3-0.7,4.3-1.9,6.2-3.4c-0.2-0.3-0.4-0.5-0.6-0.8c-3.3,2.5-7.2,3.9-11.7,3.6c-9.4-0.6-17.3-5.8-25.3,1.7
						c-3.6,3.3-6.1,7.6-9.7,10.9c-3.4,3.1-7.1,5.3-8.8,9.9c-1.8,4.8-1.8,10.1-3.5,15c0,0.9,0,1.9,0.1,2.8c1.3-3.3,2.1-6.7,2.7-10.1
						C-233.1-129.3-232.3-133.1-229.4-136.3z"/>
				</g>
			</g>
			<g>
				<g>
					<path class="st2" d="M-207.8-165.3c1.7-0.6,3.5-1.2,5.3-1.9c2.3-0.9,4.6-2.1,6.4-3.6c-0.6-0.1-1.2-0.2-1.8-0.3
						c-2.3,1.6-5,2.8-7.7,3.7c-2.2,0.8-4.4,1.3-6.2,1.7c-2.1,0.5-4.3,0.6-6.3,0.4c-0.5,0.4-1,0.9-1.5,1.3
						C-215.8-163.4-211.5-164.1-207.8-165.3z"/>
				</g>
			</g>
			<g>
				<g>
					<path class="st2" d="M-176.1-77.4c0.3-0.5,0.5-0.9,0.8-1.4c2-8.9,5.2-17.1,9.1-24.9c0.2-1,0.4-2.1,0.5-3.2
						C-170.7-97.6-174.6-87.8-176.1-77.4z"/>
				</g>
			</g>
			<g>
				<g>
					<path class="st2" d="M-197.7-13.9c1.4-5.9,0.5-11.3-2.1-16.7c-2-4.1-5.1-10.8-9.8-12.6c0,0.1,0,0.3,0,0.4c0,0,0,1,0,1
						c5.5,2.7,9.6,11.8,11,16.8c2.3,7.9-2.4,13.8-1.6,21.4c0.4,3.5,2.3,6.3,4.2,9.1c0-0.6,0-1.2,0-1.8c-0.7-1-1.5-2-2-3.1
						C-200.8-5.5-198.9-8.8-197.7-13.9z"/>
				</g>
			</g>
			<g>
				<g>
					<path class="st2" d="M-200.2,29.4c1.8-7.2-1.2-13.7-4.2-20.1c-3.1-6.6-5.4-12.7-2.5-20c1.4-3.4,2.9-6.6,3.1-10.4
						c0.3-5.6-1.8-11-5.6-14.8c0,0.1,0,1.3,0,1.4c2.2,2.4,3.8,5.2,4.5,8.5c1.4,6-1.2,10.4-3,15.8c-1.8,5.3-1.2,10.3,0.9,15.5
						c1.3,3.4,3.1,6.7,4.5,10.1c2.7,6.6,2.7,12.1-0.2,18.7c-2.1,4.8-4.4,9.4-6.7,14.1c0,1,0,1.1,0,2.1c0.9-1.9,1.8-3.9,2.7-5.8
						C-204.5,39.6-201.6,34.7-200.2,29.4z"/>
				</g>
			</g>
			<g>
				<g>
					<path class="st2" d="M-209.5,91.9c0,0.7,0,0.7,0,1.4c6.2-7.5,10.6-16.4,13.2-25.8c0-0.8,0-1.6,0-2.4
						C-198.7,74.9-203.3,84.1-209.5,91.9z"/>
				</g>
			</g>
			<g>
				<g>
					<path class="st2" d="M-209.5,73.2c2.2-2.1,4-4.6,5.6-7.2c2.1-3.6,3.8-7.4,5.5-11.2c0.7-1.6,1.3-3.8,2.3-5.4c0-0.3,0-0.7,0-1
						c-3.6,8.1-7.2,17-13.3,23C-209.5,72.3-209.5,72.3-209.5,73.2z"/>
				</g>
			</g>
			<g>
				<g>
					<path class="st3" d="M-196.8,169.3c0,1.4,0,2.8,0,4.2c0.8-3.6,0.6-6.8,0-10.1c0,0.8,0,1.6,0,2.4
						C-196.7,166.9-196.7,168.1-196.8,169.3z"/>
				</g>
			</g>
			<g>
				<g>
					<path class="st3" d="M-210.1,195.3c-0.2,0.3,0,1.4,0.2,1c0.1-0.2,0.2-0.3,0.3-0.5c0-0.1,0-1.2,0-1.4
						C-209.7,194.7-209.9,195-210.1,195.3z"/>
				</g>
			</g>
			<g>
				<g>
					<path class="st2" d="M-201.4,105.2c-4.5,5.3-2.7,13-0.9,19c1.5,5.3,2.8,10.8,0.8,16.2c-0.9,2.4-2.7,4.5-3.8,6.8
						c-1.4,3.1-1.8,6.3-1.4,9.6c0.7,6.2,3.3,11.9,3.3,18.3c0,4-0.8,7.9-2.2,11.6c-1.2,1.1-2.4,2.2-3.7,3.1c-0.2,0.1-0.2,1,0.1,0.9
						c0.9-0.5,1.8-1,2.7-1.6c-0.9,1.9-1.9,3.7-3.1,5.5c0,0.2,0,1.2,0,1.4c1.7-2.4,3.2-5,4.3-7.8c4-3.4,6.8-8.3,8.2-13.5
						c0.1-0.4,0.2-0.7,0.3-1.1c0-1.4,0-2.8,0-4.2c-0.5,6.3-3.4,11.8-7.6,16.3c1.5-4.7,2-9.6,1.4-14.6c-0.9-7.9-5.3-15.4-1.5-23.4
						c2-4.1,4.6-7.2,5-11.9c0.3-4.2-1.1-8.4-2.3-12.4c-1.5-5-3.1-10.9,0-15.7c1.4-2.1,3.5-3.3,5.3-4.9c0-0.5,0-1,0-1.5
						C-198.1,102.6-200,103.6-201.4,105.2z"/>
				</g>
			</g>
			<g>
				<g>
					<path class="st2" d="M-199.1,117c-0.1,3.6,1.5,7.5,2.4,10.9c0-0.6,0-1.3,0-1.9c-1.2-4.2-2.1-8.6-0.5-12.7
						c0.1-0.4,0.3-0.8,0.6-1.2c0-0.4,0-0.7,0-1.1c-0.1,0.1-0.2,0.3-0.3,0.4C-198.1,113.3-199.1,114.8-199.1,117z"/>
				</g>
			</g>
			<g>
				<g>
					<path class="st2" d="M-196.8,145c-0.5,0.8-1.3,1.5-1.8,2.3c-3.2,5.6,1.1,11.8,1.7,17.4c0,0.3,0.1,0.7,0.1,1c0-0.8,0-1.6,0-2.4
						c-0.4-2.5-1.1-5-1.7-7.8c-1-4.4,0.3-6.6,1.8-8.8C-196.7,146.2-196.7,145.5-196.8,145C-196.7,144.9-196.8,145-196.8,145z"/>
				</g>
			</g>
		</g>
		<g>
			<g>
				<path class="st2" d="M-200.5-163.1c-14.6,0.3-27.1,24.1-27.5,43.4c-0.5,19.3,10.8,58.5,26.1,56.8c16.1-1.8,27.8-31.3,28.9-54.9
					C-171.8-141.4-183.5-163.4-200.5-163.1z"/>
			</g>
		</g>
		<g>
			<g>
				<path class="st3" d="M-200.2-159.1c-12.3,0.2-22.8,22.2-23.1,40c-0.4,17.8,9.1,53.9,22.1,52.3c13.5-1.6,23.3-28.8,24.3-50.5
					C-175.9-139.1-185.9-159.4-200.2-159.1z"/>
			</g>
		</g>
		<g>
			<g>
				<path class="st4" d="M-201.2-66.8c13.5-1.6,23.3-28.8,24.3-50.5c0.8-16.8-5-32.8-14.3-39c1,6.6,1.8,20.1-4.2,33.4
					c-7.4,16.2-22.2,21-26,22C-218-84-210.5-65.7-201.2-66.8z"/>
			</g>
		</g>
		<g class="st5">
			<g>
				<path class="st2" d="M-202.6,209.2L-202.6,209.2c-1.4,0-2.5-1.1-2.5-2.5V-41.3c0-1.3,1.1-2.5,2.5-2.5l0,0c1.4,0,2.5,1.1,2.5,2.5
					v248.1C-200,208.1-201.2,209.2-202.6,209.2z"/>
			</g>
		</g>
	</g>
	<g>
		<g>
			<g>
				<path class="st6" d="M-474.6,103.3c0,0-29.8-5.5-31.2,10.4c-1.4,16,0,21.5,6.9,25c6.9,3.5,31.5,5.2,38.4,3.1
					C-453.6,139.7-465.6,108.1-474.6,103.3z"/>
			</g>
		</g>
		<g>
			<g>
				<path class="st7" d="M-498.9,138.7c6.9,3.5,22,6.8,34.9,3.9c4.5-1,4.4-5.1,1-17.8c-4.8,0.5-16.9,0.9-27.4-1
					c-13.6-2.5-15.4-10.1-15.4-10.1C-507.2,129.6-505.8,135.2-498.9,138.7z"/>
			</g>
		</g>
		<g>
			<g>
				<path class="st8" d="M-473.1,108c0,0-20.3-2.6-21,4.3c-0.7,6.9,8.9,8.2,20,7.7c6.4-0.3,7.4-1.8,7.4-1.8L-473.1,108z"/>
			</g>
		</g>
		<g>
			<g>
				<path class="st6" d="M-228.7,103.3c0,0,29.8-5.5,31.2,10.4c1.4,16,0,21.5-6.9,25c-6.9,3.5-27,5.2-34,3.1
					C-245.3,139.7-237.7,108.1-228.7,103.3z"/>
			</g>
		</g>
		<g>
			<g>
				<path class="st7" d="M-204.5,138.7c-6.9,3.5-18.5,5.9-33,4.4c-4.6-0.5-4.4-8.4-1-21.1c3.8,2.4,11.3,3.1,23.6,1.4
					c18.3-2.5,17.3-9.7,17.3-9.7C-196.1,129.6-197.5,135.2-204.5,138.7z"/>
			</g>
		</g>
		<g>
			<g>
				<path class="st8" d="M-231.7,108.4c0,0,21.7-3.1,22.4,3.9c0.7,6.9-16.5,6.2-22.8,5.8c-3.7-0.3-4.5,0.1-4.5,0.1L-231.7,108.4z"/>
			</g>
		</g>
		<g>
			<g>
				<path class="st9" d="M-352,93L-475,87.9l-2.4,3.1c1.8,17.9,9,69,29.5,92.8c25.6,29.8,40.6,30.9,57.9,34c18,3.2,35.4,3.2,38,3.1
					c2.6,0,20,0.1,38-3.1c17.3-3.1,32.3-4.2,57.9-34c19.3-22.5,28.6-72.8,30.9-92.6l-1.3-3.5L-352,93z"/>
			</g>
		</g>
		<g>
			<g>
				<ellipse class="st10" cx="-351.3" cy="89.3" rx="126.2" ry="42.8"/>
			</g>
		</g>
		<g>
			<g>
				<path class="st10" d="M-351.3,46.5c69.7,0,126.2,19.2,126.2,42.8L-351.3,46.5z"/>
			</g>
		</g>
		<g>
			<g>
				<ellipse class="st11" cx="-351.3" cy="87.8" rx="116.7" ry="38.2"/>
			</g>
		</g>
		<g>
			<g>
				<path class="st6" d="M-334.1,85.8c-52.7,0-79.2,22.9-87.1,32.2c0.5,0.4,3,0.7,3.6,1.1c18.8,4.3,41.7,6.8,66.3,6.8
					c35.7,0,67.7-5.3,89.1-13.5C-274,100.2-296.1,85.8-334.1,85.8z"/>
			</g>
		</g>
		<g>
			<g>
				<g>
					<path class="st12" d="M-243.5,131.5c0.2,0,0.3,0,0.5,0c3.3-8.2,6.3-17.1,8.6-26c-18.9,15.6-64.1,26.6-116.8,26.6
						c-29.6,0-56.8-3.5-78.3-9.2c3.6,10.3,7.8,19.9,11.9,28.1c2.7,5.5,5.7,10.4,8.7,14.9c2.6-2.2,5.3-3.8,8.9-2.8
						c4.2,1.2,6.8,5.3,10.9,6.7c4.3,1.6,6.8-2.3,9.6-4.9c2.9-2.7,6.2-4.3,10-2.2c2.2,1.3,3.7,3.5,6,4.6c3.1,1.5,6.4,1.2,9.5-0.2
						c4.3-1.9,8.1-5,13-4.1c4.4,0.8,7.1,4.5,11.2,6c8.1,3.1,10.6-11.4,19.3-8.6c4.7,1.5,6.4,8.3,12,6.7c5-1.4,8.2-7.7,12.8-10.2
						c4.5-2.5,8.7-1.5,12.1,2.3c1.2,1.4,2.4,4.1,4.2,4.8c2.8,1.2,4.9-2,6.1-4c2.4-3.8,4.6-8.5,9.6-9.4c0.8-0.1,1.5-0.1,2.3-0.1
						c1.4-2.8,2.8-5.8,4.2-9C-250.6,138.6-249.4,131.5-243.5,131.5z M-392.3,159.1c-7.4,0-7.4-11.5,0-11.5
						C-384.9,147.6-384.9,159.1-392.3,159.1z M-357.7,160.4c-7.4,0-7.4-11.5,0-11.5C-350.2,148.8-350.2,160.4-357.7,160.4z
						 M-325.6,158.5c-7.4,0-7.4-11.5,0-11.5C-318.2,146.9-318.2,158.5-325.6,158.5z M-295.5,157.2c-7.4,0-7.4-11.5,0-11.5
						C-288,145.6-288,157.2-295.5,157.2z M-264.7,150.8c-7.4,0-7.4-11.5,0-11.5C-257.2,139.2-257.3,150.8-264.7,150.8z"/>
				</g>
			</g>
			<g>
				<g>
					<path class="st7" d="M-256.5,164.1c-2.4,3.8-4.6,9.3-9.3,10.7c-3.7,5-7.4,9.1-11.2,12.3c0.5,0.4,1.1,0.7,1.8,1
						c4.2,1.4,7.6-2.9,10.3-5.4c2.4-2.2,5.2-4.4,8.5-5.1c1.2-0.2,3,0,4.9,0.3c2.8-4.2,5.4-8.9,7.6-13.8
						C-248.5,161.9-252.9,158.5-256.5,164.1z"/>
				</g>
			</g>
			<g>
				<g>
					<path class="st7" d="M-431.4,181.9c5,0.4,7.7,6,12.9,6.6c3.1,0.4,6-0.4,8.6-2.1c1.6-1,3-2.5,5-2.9c4-0.8,6.9,2.7,9.8,4.8
						c2.2,1.6,4.6,2.5,7.4,2.2c0.6-0.1,1.2-0.2,1.7-0.4c-6.3-4.6-12.8-10.8-18.9-18.8c-1.5,1-2.7,2.6-4,3.6
						c-2.8,2.3-5.9,3.4-9.4,2.2c-3.8-1.2-6.8-4.2-10-6.4c-1.3-0.9-2.9-2-4.5-2.3c-3-0.5-4.5,1.8-6.7,3.3c-4.1,2.9-8.8,1.2-12.2-2
						c-1.7-1.6-5.5-6.8-9-7.5c3.5,8.1,7.8,15.5,12.9,21.5c1.6,1.8,3.1,3.6,4.6,5.2c0.9-0.4,1.8-0.9,2.7-1.6
						C-437.9,185.2-435.4,181.6-431.4,181.9z"/>
				</g>
			</g>
			<g>
				<g>
					<path class="st13" d="M-386.1,190.1c2.2-0.8,3.7-2.4,5.7-3.7c6.4-4.2,11.3,3.2,16.9,5.1c7.8,2.6,11.2-10.3,19.5-4.9
						c4.4,2.9,6.9,6.9,12.9,6.3c5.4-0.5,6.8-4.5,10.7-7.2c7.3-5,13.7,7.1,21.3,1.9c4.7-3.2,9-10.9,15.6-7.1c2.7,1.6,4.1,4.8,6.6,6.6
						c3.8-3.3,7.5-7.3,11.2-12.3c-0.6,0.2-1.3,0.3-2,0.3c-6.2,0.2-6.9-6.1-11.1-8.7c-5.4-3.3-11.3,5.4-15.3,7.9
						c-3.9,2.4-8.2,2.8-11.9-0.2c-3.3-2.7-5.4-7.3-9.8-3.4c-2.7,2.5-4.8,5.8-8.4,7.2c-4.3,1.6-8.1-0.9-11.6-3.3
						c-2.3-1.6-4.5-3.4-7.4-3.3c-2.4,0.1-4.6,1.5-6.7,2.6c-4.8,2.4-9.7,3.7-14.8,1.3c-4.6-2.2-7-8.2-12-3.5c-2.9,2.7-5.6,6.5-10,6.5
						c-3.7,0-6.8-2.7-9.6-4.8c-1.7-1.3-3.8-3.1-6.1-2.9c-0.9,0-1.8,0.4-2.5,0.9C-398.9,179.3-392.4,185.5-386.1,190.1z"/>
				</g>
			</g>
			<g>
				<g>
					<path class="st7" d="M-263,187.3c-2.8,2.3-5.9,5.6-9.7,6c-3.3,0.3-5.5-1.5-7.5-3.6c-6.5,4.9-13.3,7.8-20.8,10.2
						c-22.1,6.8-43.2,6.8-66.3,0c-4.6-1.3-9.7-3.7-15.1-7.2c0,0,0,0,0,0c-1.6,1.1-3.4,1.8-5.3,2c-4.8,0.5-7.7-2.2-11.2-5
						c-3.2-2.5-5.3-2.9-8.7-0.6c-1.8,1.3-3.5,2.4-5.7,2.9c-3.7,0.9-7.6,0.4-10.9-1.5c-2.4-1.4-4.3-4.3-7.2-4.6
						c-2.9-0.3-4.6,1.7-6.6,3.5c-1,0.8-1.9,1.6-2.9,2.3c21.4,22.3,35.2,23.5,50.9,26.3c18,3.2,35.4,3.2,38,3.1c2.6,0,20,0.1,38-3.1
						c17.3-3.1,32.3-4.2,57.9-34c0.2-0.3,0.4-0.5,0.6-0.8c-0.5,0-0.9,0.1-1.4,0.3C-259.2,184-261.1,185.7-263,187.3z"/>
				</g>
			</g>
			<g>
				<g>
					<path class="st13" d="M-301.4,193.5c-3.9,0.9-7.2-1.4-10.6-3.1c-2-1-4.3-2.2-6.5-1.1c-2,1-3.2,3.4-4.8,4.8
						c-3.1,2.6-7.4,3.7-11.4,2.9c-4.1-0.8-6.3-3.5-9.4-5.9c-5.8-4.5-8.5,1.6-13.1,4c-2.9,1.5-5.8,1-8.6-0.5
						c-3.3-1.8-6.6-5.6-10.6-5.4c-2.5,0.1-3.9,2.3-5.8,3.5c5.4,3.5,10.5,5.8,15.1,7.2c23.1,6.7,44.2,6.7,66.3,0
						c7.6-2.3,14.3-5.3,20.8-10.2c-0.6-0.6-1.1-1.2-1.7-1.9C-289.7,178.8-293.8,191.7-301.4,193.5z"/>
				</g>
			</g>
			<g>
				<g>
					<path class="st14" d="M-265.8,174.8c4.6-1.4,6.9-6.9,9.3-10.7c3.6-5.6,8-2.2,12.6,0c1.4-3,2.6-6.1,3.8-9.2
						c-2.7-0.9-6.2-2.6-6.6-2.8c-1.5-0.7-3.2-1.2-4.8-1.3c0,0.1-0.1,0.2-0.1,0.3C-256.5,160.8-261.2,168.5-265.8,174.8z"/>
				</g>
			</g>
			<g>
				<g>
					<path class="st15" d="M-451.9,169.8c3.4,3.3,8.1,4.9,12.2,2c2.2-1.5,3.8-3.8,6.7-3.3c1.6,0.3,3.2,1.4,4.5,2.3
						c3.2,2.2,6.2,5.2,10,6.4c3.6,1.1,6.7,0.1,9.4-2.2c1.3-1.1,2.5-2.7,4-3.6c-1.3-1.7-2.7-3.5-3.9-5.4c-0.3,0.3-0.6,0.5-0.9,0.8
						c-3.8,3.6-6.7,4.2-11.2,1.3c-3.5-2.2-6.7-5.6-10.8-6.5c-1.6-0.4-3.2-0.4-4.7,0.2c-2.5,0.9-3.9,3.6-6.3,4.4
						c-6.1,1.9-10-8.4-15.2-10.2c-2-0.7-3.8-0.6-5.4,0c0.8,2.2,1.7,4.4,2.6,6.5C-457.4,163-453.6,168.2-451.9,169.8z"/>
				</g>
			</g>
			<g>
				<g>
					<path class="st10" d="M-253.8,150.8c-5,0.8-7.2,5.5-9.6,9.4c-1.2,2-3.3,5.2-6.1,4c-1.8-0.8-2.9-3.5-4.2-4.8
						c-3.4-3.8-7.6-4.7-12.1-2.3c-4.5,2.5-7.8,8.8-12.8,10.2c-5.7,1.6-7.3-5.1-12-6.7c-8.7-2.8-11.2,11.7-19.3,8.6
						c-4-1.5-6.8-5.2-11.2-6c-5-0.9-8.8,2.1-13,4.1c-3.1,1.4-6.3,1.7-9.5,0.2c-2.3-1.1-3.8-3.4-6-4.6c-3.8-2.1-7-0.5-10,2.2
						c-2.8,2.6-5.3,6.4-9.6,4.9c-4-1.5-6.6-5.5-10.9-6.7c-3.6-1-6.3,0.6-8.9,2.8c1.3,1.9,2.6,3.7,3.9,5.4c0.7-0.5,1.6-0.9,2.5-0.9
						c2.3-0.1,4.4,1.6,6.1,2.9c2.8,2.1,5.9,4.8,9.6,4.8c4.4,0,7.1-3.8,10-6.5c5-4.7,7.4,1.3,12,3.5c5.1,2.4,10,1.2,14.8-1.3
						c2.1-1,4.3-2.5,6.7-2.6c2.9-0.1,5.1,1.7,7.4,3.3c3.4,2.4,7.2,4.9,11.6,3.3c3.6-1.3,5.7-4.7,8.4-7.2c4.3-3.9,6.5,0.6,9.8,3.4
						c3.7,3.1,8,2.7,11.9,0.2c4-2.5,9.9-11.2,15.3-7.9c4.3,2.6,4.9,8.9,11.1,8.7c0.7,0,1.4-0.2,2-0.3c4.6-6.2,9.2-14,14.1-23.8
						c0-0.1,0.1-0.2,0.1-0.3C-252.3,150.6-253,150.6-253.8,150.8z"/>
				</g>
			</g>
			<g>
				<g>
					<path class="st15" d="M-256.4,177.6c-3.3,0.6-6.1,2.9-8.5,5.1c-2.7,2.5-6.1,6.8-10.3,5.4c-0.7-0.2-1.2-0.6-1.8-1
						c-1,0.9-2.1,1.8-3.2,2.6c2,2.2,4.3,3.9,7.5,3.6c3.8-0.4,6.9-3.6,9.7-6c1.9-1.6,3.7-3.3,6.1-4c0.5-0.1,1-0.2,1.4-0.3
						c1.4-1.6,2.7-3.4,3.9-5.2C-253.4,177.6-255.2,177.4-256.4,177.6z"/>
				</g>
			</g>
			<g>
				<g>
					<path class="st15" d="M-431.4,185.8c2.9,0.3,4.8,3.2,7.2,4.6c3.3,2,7.2,2.5,10.9,1.5c2.2-0.6,3.9-1.7,5.7-2.9
						c3.3-2.3,5.5-1.9,8.7,0.6c3.5,2.8,6.4,5.5,11.2,5c1.9-0.2,3.7-0.9,5.3-2c0,0,0,0,0,0c-1.2-0.8-2.5-1.6-3.7-2.6
						c-0.5,0.2-1.1,0.3-1.7,0.4c-2.8,0.3-5.2-0.6-7.4-2.2c-2.9-2.1-5.8-5.6-9.8-4.8c-1.9,0.4-3.4,1.9-5,2.9
						c-2.6,1.7-5.5,2.5-8.6,2.1c-5.2-0.6-7.9-6.2-12.9-6.6c-4-0.3-6.5,3.3-9.3,5.5c-0.9,0.7-1.8,1.2-2.7,1.6
						c0.8,0.9,1.6,1.7,2.4,2.6c1-0.7,1.9-1.4,2.9-2.3C-436,187.6-434.2,185.5-431.4,185.8z"/>
				</g>
			</g>
			<g>
				<g>
					<path class="st10" d="M-283.5,180.5c-6.6-3.9-10.9,3.8-15.6,7.1c-7.5,5.2-14-6.9-21.3-1.9c-3.9,2.7-5.3,6.6-10.7,7.2
						c-6,0.6-8.4-3.4-12.9-6.3c-8.2-5.4-11.7,7.5-19.5,4.9c-5.7-1.9-10.5-9.3-16.9-5.1c-2,1.3-3.5,2.9-5.7,3.7
						c1.2,0.9,2.5,1.8,3.7,2.6c1.9-1.3,3.3-3.4,5.8-3.5c4-0.2,7.3,3.7,10.6,5.4c2.8,1.5,5.7,2,8.6,0.5c4.6-2.4,7.4-8.5,13.1-4
						c3.1,2.4,5.3,5.1,9.4,5.9c4,0.8,8.3-0.2,11.4-2.9c1.7-1.4,2.8-3.8,4.8-4.8c2.2-1.1,4.5,0.1,6.5,1.1c3.3,1.7,6.6,4,10.6,3.1
						c7.7-1.7,11.8-14.7,19.6-5.7c0.5,0.6,1.1,1.3,1.7,1.9c1.1-0.8,2.1-1.6,3.2-2.6C-279.4,185.3-280.9,182-283.5,180.5z"/>
				</g>
			</g>
			<g>
				<g>
					<path class="st14" d="M-454.5,148.8c7.4,0,7.4-11.5,0-11.5C-461.9,137.3-461.9,148.8-454.5,148.8z"/>
				</g>
			</g>
			<g>
				<g>
					<path class="st14" d="M-426.3,156.5c7.4,0,7.4-11.5,0-11.5C-433.7,145-433.7,156.5-426.3,156.5z"/>
				</g>
			</g>
			<g>
				<g>
					<path class="st14" d="M-392.3,147.6c-7.4,0-7.4,11.5,0,11.5C-384.9,159.1-384.9,147.6-392.3,147.6z"/>
				</g>
			</g>
			<g>
				<g>
					<path class="st14" d="M-357.7,148.8c-7.4,0-7.4,11.5,0,11.5C-350.2,160.4-350.2,148.8-357.7,148.8z"/>
				</g>
			</g>
			<g>
				<g>
					<path class="st14" d="M-325.6,146.9c-7.4,0-7.4,11.5,0,11.5C-318.2,158.5-318.2,146.9-325.6,146.9z"/>
				</g>
			</g>
			<g>
				<g>
					<path class="st14" d="M-295.5,145.6c-7.4,0-7.4,11.5,0,11.5C-288,157.2-288,145.6-295.5,145.6z"/>
				</g>
			</g>
			<g>
				<g>
					<path class="st14" d="M-264.7,139.2c-7.4,0-7.4,11.5,0,11.5C-257.3,150.8-257.2,139.2-264.7,139.2z"/>
				</g>
			</g>
			<g>
				<g>
					<path class="st14" d="M-243,131.6c-1.4,3.5-2.8,6.9-4.3,10.1c0.9,0.8,2.2,1.4,3.8,1.4C-236.3,143.1-236.1,132.1-243,131.6z"/>
				</g>
			</g>
			<g>
				<g>
					<path class="st14" d="M-243.5,131.5c-5.8,0-7.1,7.1-3.8,10.2c1.5-3.2,2.9-6.6,4.3-10.1C-243.2,131.5-243.3,131.5-243.5,131.5z"
						/>
				</g>
			</g>
		</g>
		<g>
			<g>
				<path class="st6" d="M-410.9,54.4c-14.6,0.8-34.2,8.6-45,16.5c-32,23.4,4.5,38.4,23.9,44.4c-2.4-0.8-1.7-17.9-1.5-20.4
					c0.5-5.9,1.9-11.6,4.5-16.9c5.1-10.4,13.9-17.2,23.2-23.5C-407.3,54.4-409.1,54.3-410.9,54.4z"/>
			</g>
		</g>
		<g class="st16">
			<g>
				<path class="st17" d="M-410.2,157.9c-20.4,4.3-52.6-19.6-30-23C-417.6,131.5-385.3,152.7-410.2,157.9z"/>
			</g>
		</g>
		<g class="st16">
			<g>
				<path class="st17" d="M-254.7,145.2c-8.9,27.1-48.7,52.8-37.8,23.5C-281.4,139.5-243.8,112.3-254.7,145.2z"/>
			</g>
		</g>
	</g>
	<g>
		<g>
			<g>
				<path class="st9" d="M-470.5,20.8c1,25.3,28.2,81.4,65.9,89.2c37.7,7.9,101,2,128.9-14.1c27.9-16.1,50.3-69.2,43.7-103.7
					C-239.4-46.4-471.9-13.9-470.5,20.8z"/>
			</g>
		</g>
		<g>
			<g>
				<path class="st18" d="M-254.8,75.8c-10.1,6.8-36.2,20.5-86.3,25.3c-44.1,4.2-74.2,0-86.9-2.5c7.1,5.6,15,9.7,23.3,11.5
					c37.7,7.9,101,2,128.9-14.1C-268.3,91.6-261.1,84.5-254.8,75.8z"/>
			</g>
		</g>
		<g>
			<g>
				<path class="st11" d="M-470.5,20.8c0.1,2.4,0.4,5.1,1,8c10.1,5,39.8,12.7,120.9,1.2c86.6-12.2,110.9-25.5,117.5-30.8
					c-0.2-2.4-0.5-4.7-0.9-7C-239.4-46.4-471.9-13.9-470.5,20.8z"/>
			</g>
		</g>
		<g>
			<g>
				<path class="st19" d="M-349.5,24c-17,2.4-118.6,9.6-117.1-2.7c1.5-12.4,69.7-29.1,111.2-35c28.9-4.1,115.4-5.1,116.9,5.8
					C-237,3.1-323.7,20.4-349.5,24z"/>
			</g>
		</g>
		<g class="st20">
			<g>
				<path class="st21" d="M-393,27.4c19.7-1,37.3-2.5,43.5-3.4c17.6-2.5,63.7-11.4,90.6-20.2C-266.6-8.2-280-18-303.2-16
					C-353.5-11.7-387.5,21.7-393,27.4z"/>
			</g>
		</g>
		<g>
			<g>
				<g>
					<path class="st7" d="M-325,59.2c-9.8,5.8-21,10.9-33.6,14.4c1.9-0.4,3.9,0,5.8,1.6c2.2,1.9,3.1,6,6.3,6.7
						c1.9,0.4,3.7-0.7,5.2-1.8c3.1-2.1,5.6-5,8.6-7.3c2.3-1.8,5.2-3.5,8.2-3c4.5,0.7,7.1,8.8,11.8,7.5c3.5-1,5.2-6.2,7.3-8.7
						c1.2-1.4,2.7-2.7,4.4-3.4c2.6-1.2,5.9-1.1,7.5,1.6c1.2,2-0.6,3.7,3.2,4c2.7,0.2,4.2-1.8,5.6-3.6c1.5-2,2.6-4.4,4.4-6.2
						c2.2-2.2,5.9-4,9-2.7c2.4,1,2.2,3,3.7,4.6c5.2,5.3,7.6-1,9.3-4.6c1.7-3.7,3.6-6.8,7.8-7.5c1-0.2,1.6,0.8,1.6,1.7
						c-0.1,3.5,2.2,5.4,4.6,5.5c3.5-7.1,6.4-14.7,8.6-22.4c-11.5,5.2-23.5,9.1-35.8,12.3C-289,52.3-306.9,56.2-325,59.2z"/>
				</g>
			</g>
			<g>
				<g>
					<path class="st7" d="M-380.8,77.8c1.6,2.3,2.5,5.8,5.9,5.9c1.9,0,3.8-1.5,5.2-2.7c2.8-2.2,6.3-5.9,10-7.1
						C-366.3,75.7-373.4,77-380.8,77.8z"/>
				</g>
			</g>
			<g>
				<g>
					<path class="st7" d="M-432.7,83c1.8,1.6,3.7,3.5,6.4,2c1.3-0.7,1.9-2.6,2.6-3.8c0.9-1.5,1.8-3.1,3.4-4c3.8-2.1,6.9,0.7,9.5,3.2
						c2.2,2.2,4.4,4.7,7.8,3.8c2-0.5,3.8-2.2,5.3-3.5c0.8-0.7,1.6-1.5,2.4-2.3c-23-0.3-39.1-6.8-50.2-15.1
						c-3.9-0.4-7.9-0.9-11.8-1.5c2.9,5.5,6.2,10.9,9.9,16c0.9-0.4,1.9-0.7,3-0.8C-439.2,76.5-436.2,79.9-432.7,83z"/>
				</g>
			</g>
			<g>
				<g>
					<path class="st7" d="M-251.4,53.8c-4.8,2.3-5.2,11-10.4,13.5c-1.4,0.7-2.9,1.1-4.4,0.7c-2.4-0.7-2.5-2.6-3.9-4.3
						c-6.7-8.7-10.4,4.6-15,8.2c-3,2.3-7.9,2.4-10.3-0.9c-1.4-2-0.5-4.7-4.3-3.2c-3.1,1.3-4.4,4.4-6.2,6.9c-2,2.8-4.9,6.1-8.7,5.8
						c-5.2-0.5-6.1-8.1-11.2-7.8c-3.6,0.2-6.9,4-9.3,6.2c-4.2,3.8-10.1,8.8-15.4,3.8c-2.2-2.1-3.2-6.3-6.8-6.4
						c-1.9,0-3.8,1.5-5.2,2.6c-2.7,2.1-5.1,4.7-8.2,6.4c-2.5,1.3-5.2,1.7-7.7,0.2c-2.5-1.5-3.8-5.4-5.9-7.4
						c-1.4,0.1-2.7,0.2-4.1,0.2c-0.7,0-1.4,0-2.1,0.1c-5.1,3.5-9.5,11.3-16.6,8.3c-3.9-1.6-8.4-10.4-12.7-5.9
						c-2.5,2.6-2.7,6.5-6.7,7.5c-3.9,1-6.9-2.3-9.5-4.7c-2.3-2.1-4.5-4-7.8-3.6c-0.5,0.1-1.1,0.2-1.5,0.3c11,14.5,25,26.4,40.9,29.7
						c37.7,7.9,101,2,128.9-14.1c11.7-6.8,22.4-20,30.4-35.6C-248.2,59.6-250.8,57.4-251.4,53.8z"/>
				</g>
			</g>
			<g>
				<g>
					<path class="st19" d="M-459,50c-1.4-0.2-2.8-0.4-4.2-0.7c1.7,4.1,3.7,8.4,5.9,12.6c3.9,0.6,7.9,1,11.8,1.5
						C-451.1,59.1-455.6,54.5-459,50z"/>
				</g>
			</g>
			<g>
				<g>
					<path class="st19" d="M-269.7,35.3c-10.9,3.1-21.9,5.7-33,8c-6.3,5.3-13.8,10.8-22.4,15.9c18.1-3,36.1-6.9,53.8-11.5
						c12.3-3.2,24.3-7.1,35.8-12.3c1.4-4.8,2.5-9.6,3.2-14.4C-244,27.3-256.8,31.7-269.7,35.3z"/>
				</g>
			</g>
			<g>
				<g>
					<path class="st19" d="M-436.2,83.6c2.6,2.4,5.6,5.7,9.5,4.7c4-1,4.2-5,6.7-7.5c4.3-4.5,8.8,4.3,12.7,5.9
						c7,2.9,11.5-4.8,16.6-8.3c-1.5,0-3,0.1-4.4,0c-0.8,0.8-1.6,1.6-2.4,2.3c-1.5,1.3-3.3,3-5.3,3.5c-3.4,0.9-5.6-1.7-7.8-3.8
						c-2.6-2.6-5.8-5.4-9.5-3.2c-1.6,0.9-2.5,2.5-3.4,4c-0.7,1.2-1.3,3.1-2.6,3.8c-2.7,1.5-4.6-0.4-6.4-2c-3.5-3.1-6.5-6.5-11.7-5.9
						c-1,0.1-2.1,0.4-3,0.8c0.6,0.8,1.2,1.6,1.8,2.4c0.5-0.2,1-0.3,1.5-0.3C-440.7,79.6-438.5,81.5-436.2,83.6z"/>
				</g>
			</g>
			<g>
				<g>
					<path class="st19" d="M-248.7,52.1c0-0.9-0.6-1.8-1.6-1.7c-4.2,0.7-6.1,3.9-7.8,7.5c-1.7,3.6-4.1,9.9-9.3,4.6
						c-1.5-1.6-1.3-3.6-3.7-4.6c-3.1-1.3-6.8,0.5-9,2.7c-1.8,1.8-2.9,4.2-4.4,6.2c-1.4,1.8-2.9,3.9-5.6,3.6c-3.8-0.3-1.9-2-3.2-4
						c-1.6-2.7-4.9-2.7-7.5-1.6c-1.7,0.8-3.2,2-4.4,3.4c-2.2,2.5-3.8,7.7-7.3,8.7c-4.7,1.4-7.3-6.7-11.8-7.5c-3.1-0.5-5.9,1.2-8.2,3
						c-3,2.3-5.5,5.2-8.6,7.3c-1.5,1-3.3,2.2-5.2,1.8c-3.1-0.6-4.1-4.8-6.3-6.7c-1.9-1.7-3.9-2-5.8-1.6c-0.3,0.1-0.7,0.2-1,0.3
						c-3.7,1.3-7.2,5-10,7.1c-1.4,1.1-3.3,2.7-5.2,2.7c-3.4-0.1-4.3-3.6-5.9-5.9c-1.2,0.1-2.5,0.2-3.7,0.3c2.1,2,3.4,5.9,5.9,7.4
						c2.5,1.5,5.2,1.1,7.7-0.2c3.1-1.6,5.4-4.3,8.2-6.4c1.4-1.1,3.3-2.7,5.2-2.6c3.6,0.1,4.6,4.3,6.8,6.4c5.3,5,11.2-0.1,15.4-3.8
						c2.5-2.2,5.8-6,9.3-6.2c5.1-0.3,6,7.4,11.2,7.8c3.8,0.4,6.7-3,8.7-5.8c1.8-2.5,3.1-5.7,6.2-6.9c3.8-1.6,2.9,1.1,4.3,3.2
						c2.4,3.3,7.4,3.2,10.3,0.9c4.6-3.5,8.3-16.9,15-8.2c1.3,1.7,1.4,3.6,3.9,4.3c1.5,0.4,3.1,0,4.4-0.7c5.2-2.6,5.6-11.3,10.4-13.5
						c0.6,3.6,3.1,5.8,6,6.5c0.5-0.9,0.9-1.8,1.3-2.7C-246.5,57.5-248.8,55.7-248.7,52.1z"/>
				</g>
			</g>
			<g>
				<g>
					<path class="st22" d="M-319.3,46.5c5.6-1,11.1-2.1,16.7-3.2c15.8-13.3,24.2-25.2,24.2-25.2l-90.8,15.9l-73.7,0.3l-26.6-5.4
						c0,0,2.2,10.1,10.6,21.2c12.9,2,25.9,3.2,39,3.9C-386.3,55.4-352.5,52.4-319.3,46.5z"/>
				</g>
			</g>
			<g>
				<g>
					<path class="st7" d="M-445.4,63.4c11.2,8.3,27.2,14.8,50.2,15.1c1.9-1.8,3.8-3.5,6.3-4.2c3.4-1,6.2,0.8,8.1,3.5c0,0,0,0,0,0.1
						c7.4-0.7,14.5-2.1,21.2-3.9c0.3-0.1,0.7-0.2,1-0.3c12.6-3.5,23.8-8.7,33.6-14.4C-364.8,65.7-405.4,67.7-445.4,63.4z"/>
				</g>
			</g>
			<g class="st20">
				<g>
					<path class="st23" d="M-445.4,63.4c11.2,8.3,27.2,14.8,50.2,15.1c1.9-1.8,3.8-3.5,6.3-4.2c3.4-1,6.2,0.8,8.1,3.5c0,0,0,0,0,0.1
						c7.4-0.7,14.5-2.1,21.2-3.9c0.3-0.1,0.7-0.2,1-0.3c12.6-3.5,23.8-8.7,33.6-14.4C-364.8,65.7-405.4,67.7-445.4,63.4z"/>
				</g>
			</g>
			<g>
				<g>
					<path class="st7" d="M-389.8,77.8c-0.3,0.2-0.6,0.4-0.9,0.6c0.7,0,1.4,0,2.1-0.1c1.4-0.1,2.8-0.1,4.1-0.2
						C-385.8,76.9-387.4,76.4-389.8,77.8z"/>
				</g>
			</g>
			<g class="st20">
				<g>
					<path class="st23" d="M-389.8,77.8c-0.3,0.2-0.6,0.4-0.9,0.6c0.7,0,1.4,0,2.1-0.1c1.4-0.1,2.8-0.1,4.1-0.2
						C-385.8,76.9-387.4,76.4-389.8,77.8z"/>
				</g>
			</g>
			<g>
				<g>
					<path class="st19" d="M-445.4,63.4c40,4.4,80.6,2.3,120.4-4.2c8.6-5,16.1-10.6,22.4-15.9c-5.5,1.1-11.1,2.2-16.7,3.2
						c-33.1,5.9-67,8.9-100.6,7.3c-13.1-0.6-26.1-1.9-39-3.9C-455.6,54.5-451.1,59.1-445.4,63.4z"/>
				</g>
			</g>
			<g class="st20">
				<g>
					<path class="st21" d="M-445.4,63.4c40,4.4,80.6,2.3,120.4-4.2c8.6-5,16.1-10.6,22.4-15.9c-5.5,1.1-11.1,2.2-16.7,3.2
						c-33.1,5.9-67,8.9-100.6,7.3c-13.1-0.6-26.1-1.9-39-3.9C-455.6,54.5-451.1,59.1-445.4,63.4z"/>
				</g>
			</g>
			<g>
				<g>
					<path class="st19" d="M-388.9,74.2c-2.4,0.7-4.4,2.4-6.3,4.2c1.5,0,2.9,0,4.4,0c0.3-0.2,0.6-0.4,0.9-0.6c2.4-1.4,4-0.9,5.3,0.3
						c1.2-0.1,2.5-0.2,3.7-0.3c0,0,0-0.1,0-0.1C-382.8,75-385.5,73.2-388.9,74.2z"/>
				</g>
			</g>
			<g>
				<g>
					<path class="st19" d="M-388.9,74.2c-2.4,0.7-4.4,2.4-6.3,4.2c1.5,0,2.9,0,4.4,0c0.3-0.2,0.6-0.4,0.9-0.6c2.4-1.4,4-0.9,5.3,0.3
						c1.2-0.1,2.5-0.2,3.7-0.3c0,0,0-0.1,0-0.1C-382.8,75-385.5,73.2-388.9,74.2z"/>
				</g>
			</g>
			<g>
				<g>
					<path class="st19" d="M-358.6,73.6c-0.3,0.1-0.7,0.2-1,0.3C-359.3,73.8-358.9,73.7-358.6,73.6z"/>
				</g>
			</g>
			<g class="st20">
				<g>
					<path class="st23" d="M-358.6,73.6c-0.3,0.1-0.7,0.2-1,0.3C-359.3,73.8-358.9,73.7-358.6,73.6z"/>
				</g>
			</g>
		</g>
	</g>
</g>
<g>
	<path class="st24" d="M-238.9,746.6c-18.2-66.5-50.7-88.3-50.7-88.3l-41.3-33.8c-0.1,0-50.6-5.7-50.6-5.7s-51.7,73.9-58.3,127.8
		H-238.9z"/>
	<polygon class="st24" points="-381.5,618.8 -298.6,650.9 -273.6,589.4 -340.6,542.5 -365.6,590.5 	"/>
	<path class="st24" d="M-365.9,430.6c28.3-63.1,67.6-69.7,121.1-62.1c60.5,8.6,80.6,38.7,84,71.8c1.4,13-5.2,35.5-9.8,48.7
		c-4.3,12.2-7.9,17.9-8.7,22.2c-2.3,11.2,2.6,31.7,9.8,36c2.3,1.4,2.4,7.7,1.5,8.7c-2.4,2.7-7.8,2.8-12.3,7c-7.8,7.2-7.9,15-13,18.1
		c-4.6,2.8-20.5-3.7-26.2,3.8c-7.5,9.8,17.6,11.9,20.1,13.6c5.1,3.5-9.2,18.8-15.9,28.1c-6.3,8.6-36.3,9.7-53.2-0.5
		c-36.8-22.3-98.1-51.6-103.5-89.9C-377.5,497.6-373.1,444.9-365.9,430.6z"/>
	
		<linearGradient id="SVGID_1_" gradientUnits="userSpaceOnUse" x1="252.669" y1="95.9341" x2="221.9561" y2="-14.1431" gradientTransform="matrix(0.9879 0.1552 -0.1552 0.9879 -496.0073 389.0562)">
		<stop  offset="0.2032" style="stop-color:#E7B18B"/>
		<stop  offset="0.3467" style="stop-color:#E4A584"/>
		<stop  offset="0.6039" style="stop-color:#DD8673"/>
		<stop  offset="0.6898" style="stop-color:#DA7A6C"/>
	</linearGradient>
	<path class="st25" d="M-174.3,498.5c1.1-2.7,2.4-5.8,3.7-9.6c4.6-13.1,11.2-35.7,9.8-48.7c-3.5-33-23.6-63.2-84-71.8
		c-53.5-7.6-92.8-1-121.1,62.1c-3.2,6.3-6.3,57.7-7.8,74.4L-174.3,498.5z"/>
	<path class="st26" d="M-400.6,458.8c10.1-55.9,45.4-106.3,90.8-116.8c87.3-20.1,143,55,162.9,77.2c13.7,15.2,8.7,41.9-15,28.5
		c-82.1-46.7-114.4-7.6-114.4-7.6s-11.1,32.1-13,47.8c-1.9,15.7-12.1,32.2-15.3,28.8c-1.3-38.1-13.5-35.5-10-48.7
		c0.7-2.6-2.3,23.2-10.3,58.8c-2.7,16.9-32.7,59.3-40.7,63.9C-373.9,567.4-407,494.1-400.6,458.8z"/>
	<path class="st27" d="M-189.5,556.4c0,0,3.5,4,10.7,5.2c2.4-2.5,13.9-5.5,9.4-6.9C-171.4,554.1-189.5,556.4-189.5,556.4z"/>
	<g>
		<path class="st26" d="M-180.8,479.6c-1.2-3.4-28-6.3-32.4-6.2c-9,0.3-21.3,11-20.1,13.1c1.2,2.1,13.6-4.8,23.2-2.5
			c3.7,0.9,22.1,6.9,24.7,6.2C-182.8,489.6-179.6,483-180.8,479.6z"/>
		<path class="st28" d="M-203.9,501.3c-8.2-7.7-25.5-2.4-25.5-2.4s16.1,0,24.6,8.6"/>
	</g>
	<path class="st29" d="M-287.1,615.2c0,0-22.2-15.2-27.7-22.6c-5.4-7.4-5.7-38.5-5.7-38.5l11.2,33.5L-287.1,615.2z"/>
	<path class="st24" d="M-306,500.8c-3.1,17-4.2,29.9-16.6,26.1c-12.4-3.8-24.4-18.4-22.1-35.5c2.5-18.9,14.4-25.2,25-24.7
		C-311.2,467.1-302.5,481.9-306,500.8z"/>
	<g>
		<path class="st30" d="M-250.5,482.9c-0.7,4.6-4.1,7.8-7.6,7.3c-3.5-0.6-5.8-4.7-5-9.3c0.7-4.6,10.2-23.8,10.2-23.8
			S-249.8,478.3-250.5,482.9z"/>
		<g>
			<g>
				<path class="st21" d="M-252.9,457.1c0,0-1.7,3.4-4,8.6c-1.1,2.6-2.4,5.6-3.4,8.9c-1,3.3-1.8,7-1.2,10.2c0.1,0.4,0.2,0.8,0.4,1.1
					l0.1,0.3c0,0,0.1,0.2,0,0.1l0.1,0.2l0.3,0.6c0.4,0.6,0.8,1.1,1.4,1.5c1.2,0.7,2.8,0.6,4.2,0c0.7-0.3,1.4-0.7,1.9-1.2
					c0.2-0.1,0.5-0.6,0.8-0.9l0.5-0.9c0.6-1.4,0.9-2.8,1-4.2c0.3-2.8,0.1-5.2,0-6.8c-0.1-1.7-0.3-2.6-0.3-2.6s0.3,0.9,0.7,2.5
					c0.3,1.6,0.8,4,0.8,6.9c0,1.5-0.1,3.1-0.7,4.8c-0.7,1.9-2,3.3-3.8,4.2c-1.7,0.9-4.2,1.4-6.3,0.2c-1-0.5-1.9-1.4-2.5-2.4
					l-0.4-0.6l-0.1-0.2l-0.1-0.3l-0.2-0.4c-0.2-0.5-0.4-1-0.5-1.6c-0.9-4.3,0.3-8.2,1.4-11.7c1.3-3.4,2.8-6.4,4.3-8.9
					C-255.5,459.9-252.9,457.1-252.9,457.1z"/>
			</g>
		</g>
	</g>
	<line class="st31" x1="-189.5" y1="584.6" x2="-172.1" y2="586.9"/>
	<line class="st31" x1="-189.5" y1="590.5" x2="-175.2" y2="598.9"/>
	<line class="st31" x1="-191.5" y1="596.7" x2="-183.3" y2="610.4"/>
	<g>
		<path class="st32" d="M-171.5,651c3.7-2.3,11.4-17.6,13.5-26.1c2.1-8.5-2.1-21.2-0.8-28.3c1.3-7.1,9.6-9.3,10.8-1.5
			c2.2,14.4,5.9,30,4.2,37.9c-0.9,4.2-8,18.1-15,31C-166,677.4-175.2,653.3-171.5,651z"/>
		<path class="st32" d="M-174.6,649.2c3-2.3,8.7-16.3,9.8-23.9c1.2-7.6-3.4-18.4-2.8-24.7c0.6-6.3,7.7-8.9,9.3-2.1
			c3,12.5,7.4,25.8,6.5,32.9c-0.5,3.8-5.7,16.4-10.8,28.3C-167.7,671.9-177.6,651.5-174.6,649.2z"/>
		<path class="st32" d="M-182.3,658.8c2.8-2,8.1-14.3,9.3-21c1.2-6.7-2.7-16.4-1.9-22c0.7-5.6,7.1-7.7,8.4-1.7
			c2.4,11.2,6.1,23.1,5.1,29.4c-0.5,3.3-5.4,14.5-10.2,24.9C-176.7,679.2-185,660.8-182.3,658.8z"/>
		<path class="st24" d="M-206.5,745.8l10.2-56.3c0,0-8.7-21.1-6.1-30c2.6-8.9,3.8-20.4,6.1-24.1c2.2-3.7,11.6-14.9,12.9-17.8
			c3-7,11.2,3.2,7.4,11.3c-3.7,8.2-8.7,15.6-7.9,19.4c0.7,3.7,12.4,8.2,16.1,6c3.7-2.2,11.8-17.4,14-25.8c2.2-8.4-2.6-21.6-1.1-28.7
			c1.5-7.1,10.1-16.3,11.6-1.7c1.5,14.5,5.4,31,3.6,38.9c-2,8.5-30.3,56.1-30.3,56.1l2.4,52.9H-206.5z"/>
	</g>
	<line class="st31" x1="-162.6" y1="549.9" x2="-145.2" y2="552.2"/>
	<line class="st31" x1="-162.6" y1="555.8" x2="-148.2" y2="564.2"/>
	<line class="st31" x1="-164.6" y1="562" x2="-156.4" y2="575.7"/>
</g>
<g>
	<path class="st33" d="M299.7,57.3c0,0-75.6,96.6-75.7,168.2c0,46.4,33.9,75.7,75.7,75.7s75.7-29.3,75.7-75.7
		C375.3,153.9,299.7,57.3,299.7,57.3z"/>
	<g>
		<path class="st34" d="M305.4,65.1c20.3,39,42.4,91.5,42.4,135.8c0,53-33.9,86.4-75.7,86.4c-7.9,0-15.5-1.2-22.7-3.5
			c13.4,11.2,30.9,17.5,50.2,17.5c41.8,0,75.7-29.3,75.7-75.7C375.3,166,323.1,89.3,305.4,65.1z"/>
	</g>
	<ellipse class="st21" cx="249.5" cy="227.7" rx="14.8" ry="26.3"/>
</g>
<g>
	<rect x="41.2" y="388.1" class="st35" width="517" height="182.3"/>
	<g>
		<path class="st21" d="M558.1,409.6c-24.1,0-36.7-6.3-47.9-11.9c-10.3-5.2-19.3-9.6-38.2-9.6c-19,0-27.9,4.5-38.2,9.6
			c-11.2,5.6-23.8,11.9-47.9,11.9c-24.1,0-36.7-6.3-47.9-11.9c-10.3-5.2-19.3-9.6-38.3-9.6c-19,0-27.9,4.5-38.2,9.6
			c-11.2,5.6-23.8,11.9-47.9,11.9c-24.1,0-36.7-6.3-47.9-11.9c-10.3-5.2-19.3-9.6-38.3-9.6c-19,0-27.9,4.5-38.3,9.6
			c-11.2,5.6-23.8,11.9-47.9,11.9v-21.5c19,0,27.9-4.5,38.3-9.6c11.2-5.6,23.8-11.9,47.9-11.9c24.1,0,36.7,6.3,47.9,11.9
			c10.3,5.2,19.3,9.6,38.3,9.6c19,0,27.9-4.5,38.3-9.6c11.2-5.6,23.8-11.9,47.9-11.9c24.1,0,36.7,6.3,47.9,11.9
			c10.3,5.2,19.3,9.6,38.3,9.6c19,0,27.9-4.5,38.2-9.6c11.2-5.6,23.8-11.9,47.9-11.9c24.1,0,36.7,6.3,47.9,11.9
			c10.3,5.2,19.3,9.6,38.2,9.6V409.6z"/>
		<path class="st21" d="M558.1,458.1c-24.1,0-36.7-6.3-47.9-11.9c-10.3-5.2-19.3-9.6-38.2-9.6c-19,0-27.9,4.5-38.2,9.6
			c-11.2,5.6-23.8,11.9-47.9,11.9c-24.1,0-36.7-6.3-47.9-11.9c-10.3-5.2-19.3-9.6-38.3-9.6c-19,0-27.9,4.5-38.2,9.6
			c-11.2,5.6-23.8,11.9-47.9,11.9c-24.1,0-36.7-6.3-47.9-11.9c-10.3-5.2-19.3-9.6-38.3-9.6c-19,0-27.9,4.5-38.3,9.6
			c-11.2,5.6-23.8,11.9-47.9,11.9v-21.5c19,0,27.9-4.5,38.3-9.6c11.2-5.6,23.8-11.9,47.9-11.9c24.1,0,36.7,6.3,47.9,11.9
			c10.3,5.2,19.3,9.6,38.3,9.6c19,0,27.9-4.5,38.3-9.6c11.2-5.6,23.8-11.9,47.9-11.9c24.1,0,36.7,6.3,47.9,11.9
			c10.3,5.2,19.3,9.6,38.3,9.6c19,0,27.9-4.5,38.2-9.6C435.3,421.3,448,415,472,415c24.1,0,36.7,6.3,47.9,11.9
			c10.3,5.2,19.3,9.6,38.2,9.6V458.1z"/>
		<path class="st21" d="M558.1,506.5c-24.1,0-36.7-6.3-47.9-11.9c-10.3-5.2-19.3-9.6-38.2-9.6c-19,0-27.9,4.5-38.2,9.6
			c-11.2,5.6-23.8,11.9-47.9,11.9c-24.1,0-36.7-6.3-47.9-11.9c-10.3-5.2-19.3-9.6-38.3-9.6c-19,0-27.9,4.5-38.2,9.6
			c-11.2,5.6-23.8,11.9-47.9,11.9c-24.1,0-36.7-6.3-47.9-11.9c-10.3-5.2-19.3-9.6-38.3-9.6c-19,0-27.9,4.5-38.3,9.6
			c-11.2,5.6-23.8,11.9-47.9,11.9V485c19,0,27.9-4.5,38.3-9.6c11.2-5.6,23.8-11.9,47.9-11.9c24.1,0,36.7,6.3,47.9,11.9
			c10.3,5.2,19.3,9.6,38.3,9.6c19,0,27.9-4.5,38.3-9.6c11.2-5.6,23.8-11.9,47.9-11.9c24.1,0,36.7,6.3,47.9,11.9
			c10.3,5.2,19.3,9.6,38.3,9.6c19,0,27.9-4.5,38.2-9.6c11.2-5.6,23.8-11.9,47.9-11.9c24.1,0,36.7,6.3,47.9,11.9
			c10.3,5.2,19.3,9.6,38.2,9.6V506.5z"/>
		<path class="st21" d="M558.1,555c-24.1,0-36.7-6.3-47.9-11.9c-10.3-5.2-19.3-9.6-38.2-9.6c-19,0-27.9,4.5-38.2,9.6
			c-11.2,5.6-23.8,11.9-47.9,11.9c-24.1,0-36.7-6.3-47.9-11.9c-10.3-5.2-19.3-9.6-38.3-9.6c-19,0-27.9,4.5-38.2,9.6
			c-11.2,5.6-23.8,11.9-47.9,11.9c-24.1,0-36.7-6.3-47.9-11.9c-10.3-5.2-19.3-9.6-38.3-9.6c-19,0-27.9,4.5-38.3,9.6
			C77.9,548.7,65.3,555,41.2,555v-21.5c19,0,27.9-4.5,38.3-9.6c11.2-5.6,23.8-11.9,47.9-11.9c24.1,0,36.7,6.3,47.9,11.9
			c10.3,5.2,19.3,9.6,38.3,9.6c19,0,27.9-4.5,38.3-9.6c11.2-5.6,23.8-11.9,47.9-11.9c24.1,0,36.7,6.3,47.9,11.9
			c10.3,5.2,19.3,9.6,38.3,9.6c19,0,27.9-4.5,38.2-9.6c11.2-5.6,23.8-11.9,47.9-11.9c24.1,0,36.7,6.3,47.9,11.9
			c10.3,5.2,19.3,9.6,38.2,9.6V555z"/>
	</g>
</g>
<g>
	<path class="st36" d="M935.4,672.5c-6.9,5.2-30.7,30-78.2,99.2c0,0,1.7,1.2,4.8,3.2c19.4,11.9,93.5,51.2,159.8-2.6
		c0.2-0.2,3.6-3.2,3.9-3.4C1025.7,768.9,946.2,664.4,935.4,672.5z"/>
	<path class="st37" d="M1146.6,974.3c-6.8,3.5-13.6,6.8-20.3,9.9c-183.3,84.7-316.9,17.3-361.7-11.9c-10.7-7-16.3-11.8-16.3-11.8
		c24.6-82.6,82.6-152.5,113.7-185.7c19.4,11.9,93.5,51.2,159.8-2.6C1104.9,841,1146.6,974.3,1146.6,974.3z"/>
	<path class="st34" d="M1125.9,1121.8c-37.8,29.5-76.7,46.7-113.6,55.1c0.5-24.6,0.6-56-2.1-81.7c-2.5-24.3-15.7-29.5-27.9-31.3
		c-8.5-1.2-21.2,2-27.9,7.5c-7.6,6.3-13.1,18.6-13.1,33.1v78.6c-12.3-0.6-23.9-2.2-34.7-4.4c-114-23.5-143.3-76.1-143.3-76.1
		c-2-38-0.3-94.5,1.2-130.3c44.8,29.2,178.4,96.7,361.7,11.9C1130.2,1053.6,1125.9,1121.8,1125.9,1121.8z"/>
	<g>
		<path class="st38" d="M831,1154.6C830.9,1154.3,831.2,1154.9,831,1154.6L831,1154.6z"/>
		<path class="st39" d="M850.9,1132.1c-6.9,8.6-11.6,13.5-19.8,22.5c12.8,5.9,27.8,11.7,45.4,16.7
			C868.9,1158.7,861.1,1148.5,850.9,1132.1z"/>
	</g>
	<path class="st39" d="M908.6,1151.4c-8.6,6.9-17.1,15.3-25.2,21.9c7.3,2,15,3.8,23.2,5.5c8.6,1.8,17.6,3.1,27.1,3.9
		C926.1,1172,918.3,1162.7,908.6,1151.4z"/>
	<path class="st39" d="M1038.2,1139c-7.9,12.3-15.7,25.8-21.3,36.8c14.1-3.5,28.5-8.3,43-14.6
		C1059.8,1161.1,1045.6,1145.3,1038.2,1139z"/>
	<g>
		<path class="st39" d="M1127.1,1096.4c-5.9,11.9-11.6,27.2-16.3,36.5c5.1-3.5,10.1-7.2,15.2-11.2
			C1125.9,1121.8,1126.5,1112.2,1127.1,1096.4z"/>
	</g>
	<path class="st39" d="M1081.9,1122.7c-7.2,12.8-11.8,24.8-19.1,37.4c13.5-6.2,30.5-15.4,44-24.4
		C1106.8,1135.6,1088.7,1126.7,1081.9,1122.7z"/>
	<path class="st39" d="M803.4,1111.1c-5.3,5.7-10.4,11.6-15.9,17.1c9.2,7.4,21.4,15.5,37.4,23.5
		C824.6,1151,811.3,1125.8,803.4,1111.1z"/>
	<path class="st38" d="M1012.3,1176.9c-25,5.7-48.9,7.4-70.9,6.2v-78.6c0-14.5,5.4-26.8,13.1-33.1c6.7-5.5,19.4-8.8,27.9-7.5
		c12.2,1.8,25.3,7,27.9,31.3C1013,1121,1012.8,1152.4,1012.3,1176.9z"/>
	<path class="st40" d="M762.5,1053.9v12.4c95.7,75.1,178.9,67.2,178.9,67.2v-9.9C842.3,1123.6,762.5,1053.9,762.5,1053.9z"/>
	<path class="st40" d="M1012.6,1113.5l-0.4,12.4c95.1-15.1,115.3-48.2,115.3-48.2l0.3-14C1083,1107.6,1012.6,1113.5,1012.6,1113.5z"
		/>
	<path class="st41" d="M883.5,1153.4c0,2.3-1.8,4.1-4.1,4.1c-2.3,0-4.1-1.9-4.1-4.1c0-2.3,1.9-4.1,4.1-4.1
		C881.6,1149.3,883.5,1151.1,883.5,1153.4z"/>
	<path class="st41" d="M833.1,1133.8c0,2.3-1.9,4.1-4.1,4.1c-2.3,0-4.1-1.9-4.1-4.1c0-2.3,1.9-4.1,4.1-4.1
		C831.2,1129.6,833.1,1131.5,833.1,1133.8z"/>
	<path class="st41" d="M1064,1137.9c0,2.3-1.9,4.1-4.1,4.1c-2.3,0-4.1-1.9-4.1-4.1c0-2.3,1.8-4.1,4.1-4.1
		C1062.2,1133.8,1064,1135.6,1064,1137.9z"/>
	<path class="st41" d="M1110.9,1118.8c0,2.3-1.9,4.1-4.1,4.1c-2.3,0-4.1-1.9-4.1-4.1c0-2.3,1.9-4.1,4.1-4.1
		C1109.1,1114.7,1110.9,1116.6,1110.9,1118.8z"/>
	<g>
		<g>
			<g>
				<g>
					<g>
						<path class="st42" d="M773.9,911.1c0.1,0-0.2,1.1-1,3c-0.7,1.9-1.8,4.6-3.2,7.9c-2.8,6.7-6.8,15.8-10.9,25.9
							c-4.1,10.2-7.5,19.5-9.9,26.3c-2.4,6.8-3.8,11-4.1,10.9c-0.1,0,0.1-1.1,0.6-3.1c0.5-2,1.3-4.8,2.3-8.2
							c2.1-6.9,5.3-16.4,9.4-26.6c4.1-10.2,8.3-19.3,11.3-25.8c1.5-3.3,2.8-5.9,3.7-7.7C773.3,912.1,773.8,911.1,773.9,911.1z"/>
					</g>
				</g>
			</g>
			<g>
				<g>
					<g>
						<path class="st42" d="M790.5,889.2c0.1,0-0.3,1.4-1.2,3.9c-0.9,2.4-2.2,6-4,10.3c-3.4,8.7-8.2,20.6-13.5,33.8
							c-5.3,13.2-10,25.2-13.4,33.8c-1.7,4.3-3.1,7.8-4,10.3c-1,2.4-1.5,3.7-1.6,3.7c-0.1,0,0.3-1.4,1-3.9c0.8-2.5,2-6.1,3.5-10.5
							c3.1-8.8,7.6-20.8,12.9-34.1c5.3-13.2,10.3-25.1,13.9-33.6c1.8-4.3,3.4-7.7,4.4-10.1C789.7,890.4,790.4,889.2,790.5,889.2z"/>
					</g>
				</g>
			</g>
			<g>
				<g>
					<g>
						<path class="st42" d="M786.6,920.5c0.1,0-0.2,1.1-0.9,3c-0.7,1.9-1.7,4.6-3,8c-2.6,6.7-6.4,15.9-10.3,26.2
							c-3.9,10.3-7.1,19.7-9.3,26.5c-2.2,6.8-3.6,11.1-3.8,11c-0.1,0,0.1-1.1,0.6-3.1c0.5-2,1.2-4.8,2.2-8.3c2-6.9,5-16.5,8.9-26.8
							c3.9-10.3,7.9-19.4,10.8-26c1.5-3.3,2.7-6,3.5-7.8C786,921.5,786.5,920.5,786.6,920.5z"/>
					</g>
				</g>
			</g>
			<g>
				<g>
					<g>
						<path class="st42" d="M803.6,900.9c0.1,0-0.3,1.4-1.2,3.9c-0.9,2.4-2.2,6-4,10.3c-3.4,8.7-8.2,20.6-13.5,33.8
							c-5.3,13.2-10,25.2-13.4,33.8c-1.7,4.3-3.1,7.8-4,10.3c-1,2.4-1.5,3.7-1.6,3.7c-0.1,0,0.3-1.4,1-3.9c0.8-2.5,2-6.1,3.5-10.5
							c3.1-8.8,7.6-20.8,12.9-34.1c5.3-13.2,10.3-25.1,13.9-33.6c1.8-4.3,3.4-7.7,4.4-10.1C802.9,902.2,803.5,900.9,803.6,900.9z"/>
					</g>
				</g>
			</g>
			<g>
				<g>
					<g>
						<path class="st42" d="M802.5,926.8c0.1,0-0.2,1.1-0.9,3c-0.7,1.9-1.7,4.6-3,8c-2.6,6.7-6.4,15.9-10.3,26.2
							c-3.9,10.3-7.1,19.7-9.3,26.5c-2.2,6.8-3.6,11.1-3.8,11c-0.1,0,0.1-1.1,0.6-3.1c0.5-2,1.2-4.8,2.2-8.3c2-6.9,5-16.5,8.9-26.8
							c3.9-10.3,7.9-19.4,10.8-26c1.5-3.3,2.7-6,3.5-7.8C801.8,927.7,802.4,926.7,802.5,926.8z"/>
					</g>
				</g>
			</g>
			<g>
				<g>
					<g>
						<path class="st42" d="M821.6,907.1c0.1,0-0.3,1.4-1.2,3.9c-0.9,2.4-2.2,6-4,10.3c-3.4,8.7-8.2,20.6-13.5,33.8
							c-5.3,13.2-10,25.2-13.4,33.8c-1.7,4.3-3.1,7.8-4,10.3c-1,2.4-1.5,3.7-1.6,3.7c-0.1,0,0.3-1.4,1-3.9c0.8-2.5,2-6.1,3.5-10.5
							c3.1-8.8,7.6-20.8,12.9-34.1c5.3-13.2,10.3-25.1,13.9-33.6c1.8-4.3,3.4-7.7,4.4-10.1C820.9,908.4,821.5,907.1,821.6,907.1z"/>
					</g>
				</g>
			</g>
			<g>
				<g>
					<g>
						<path class="st42" d="M820.9,930.1c0.1,0-0.2,1.1-0.8,3c-0.6,1.9-1.6,4.7-2.8,8.1c-2.4,6.8-6,16.1-9.6,26.4
							c-3.6,10.4-6.5,19.9-8.6,26.8c-2,6.9-3.3,11.2-3.5,11.1c-0.1,0,0.1-1.1,0.5-3.1c0.4-2,1.1-4.8,2-8.3c1.8-7,4.5-16.6,8.2-27
							c3.6-10.4,7.4-19.6,10.1-26.3c1.4-3.3,2.5-6,3.3-7.9C820.3,931,820.8,930,820.9,930.1z"/>
					</g>
				</g>
			</g>
			<g>
				<g>
					<g>
						<path class="st42" d="M836.4,907.4c0.1,0-0.3,1.4-1.1,3.9c-0.8,2.5-2,6.1-3.5,10.5c-3,8.8-7.2,21-11.9,34.4
							c-4.7,13.4-8.8,25.6-11.7,34.4c-1.5,4.4-2.7,8-3.5,10.4c-0.8,2.5-1.4,3.8-1.5,3.8c-0.1,0,0.2-1.4,0.9-4
							c0.7-2.5,1.7-6.2,3-10.6c2.7-8.9,6.6-21.2,11.3-34.6c4.7-13.4,9.1-25.5,12.3-34.2c1.6-4.4,3-7.9,3.9-10.3
							C835.7,908.6,836.3,907.3,836.4,907.4z"/>
					</g>
				</g>
			</g>
			<g>
				<g>
					<g>
						<path class="st42" d="M834,938.9c0.1,0-0.2,1.1-0.8,3.1c-0.6,1.9-1.5,4.7-2.7,8.1c-2.3,6.8-5.7,16.2-9.1,26.6
							c-3.4,10.4-6.1,20-8,26.9c-1.9,6.9-3.1,11.2-3.3,11.2c-0.1,0,0-1.1,0.4-3.1c0.4-2,1-4.8,1.8-8.4c1.6-7,4.2-16.7,7.6-27.2
							c3.4-10.5,7-19.8,9.5-26.5c1.3-3.4,2.4-6.1,3.1-7.9C833.4,939.8,833.9,938.8,834,938.9z"/>
					</g>
				</g>
			</g>
			<g>
				<g>
					<g>
						<path class="st42" d="M851.8,918.8c0.1,0-0.3,1.4-1.1,3.9c-0.8,2.5-2,6.1-3.5,10.5c-3,8.8-7.2,21-11.9,34.4
							c-4.7,13.4-8.8,25.6-11.7,34.4c-1.5,4.4-2.7,8-3.5,10.4c-0.8,2.5-1.4,3.8-1.5,3.8c-0.1,0,0.2-1.4,0.9-4
							c0.7-2.5,1.7-6.2,3-10.6c2.7-8.9,6.6-21.2,11.3-34.6c4.7-13.4,9.1-25.5,12.3-34.2c1.6-4.4,3-7.9,3.9-10.3
							C851.1,920.1,851.7,918.8,851.8,918.8z"/>
					</g>
				</g>
			</g>
			<g>
				<g>
					<g>
						<path class="st42" d="M851.9,944.7c0.1,0-0.2,1.1-0.8,3.1c-0.6,1.9-1.5,4.7-2.7,8.1c-2.3,6.8-5.7,16.2-9.1,26.6
							c-3.4,10.4-6.1,20-8,26.9c-1.9,6.9-3.1,11.2-3.3,11.2c-0.1,0,0-1.1,0.4-3.1c0.4-2,1-4.8,1.8-8.4c1.6-7,4.2-16.7,7.6-27.2
							c3.4-10.5,7-19.8,9.5-26.5c1.3-3.4,2.4-6.1,3.1-7.9C851.3,945.7,851.8,944.7,851.9,944.7z"/>
					</g>
				</g>
			</g>
			<g>
				<g>
					<g>
						<path class="st42" d="M867.1,923.2c0.1,0-0.2,1.4-0.8,4c-0.6,2.5-1.6,6.2-2.8,10.7c-2.4,9-5.9,21.4-9.8,35.1
							c-3.8,13.7-7.2,26.1-9.6,35.1c-1.2,4.5-2.2,8.1-2.9,10.6c-0.7,2.5-1.1,3.9-1.2,3.9c-0.1,0,0.1-1.5,0.6-4
							c0.5-2.6,1.3-6.2,2.4-10.8c2.1-9.1,5.3-21.5,9.2-35.3c3.8-13.7,7.5-26,10.2-34.9c1.4-4.5,2.5-8.1,3.3-10.5
							C866.5,924.5,867,923.2,867.1,923.2z"/>
					</g>
				</g>
			</g>
			<g>
				<g>
					<g>
						<path class="st42" d="M869,946.7c0.1,0-0.1,1.2-0.5,3.2c-0.4,2-1.1,4.9-1.8,8.5c-1.6,7.2-3.6,17.1-5.7,28.1
							c-2.2,11-4.1,20.9-5.7,28.1c-0.8,3.6-1.4,6.5-1.9,8.5c-0.5,2-0.8,3.1-0.9,3.1c-0.1,0,0-1.2,0.3-3.2c0.3-2,0.8-5,1.4-8.6
							c1.3-7.2,3.1-17.2,5.2-28.2c2.2-11,4.4-20.9,6.2-28c0.9-3.6,1.7-6.4,2.4-8.4C868.5,947.7,868.9,946.6,869,946.7z"/>
					</g>
				</g>
			</g>
			<g>
				<g>
					<g>
						<path class="st42" d="M865.2,1024.5c-0.1,0,0-1.4,0.3-3.8c0.3-2.4,0.8-5.9,1.5-10.2c1.3-8.6,3.1-20.4,5.2-33.4
							c2.1-13.1,4.2-24.9,5.9-33.4c0.8-4.3,1.6-7.7,2.1-10c0.5-2.4,0.9-3.7,1-3.6c0.1,0,0,1.4-0.4,3.8c-0.3,2.4-0.9,5.9-1.6,10.1
							c-1.4,8.5-3.3,20.4-5.4,33.4c-2.1,13-4.1,24.9-5.7,33.4c-0.8,4.3-1.5,7.7-2,10.1C865.7,1023.2,865.4,1024.5,865.2,1024.5z"/>
					</g>
				</g>
			</g>
			<g>
				<g>
					<g>
						<path class="st42" d="M886,949c0.1,0,0,1.2-0.2,3.2c-0.2,2-0.6,5-1,8.6c-0.9,7.3-1.9,17.4-3.1,28.5c-1.1,11.2-2.1,21.2-3,28.5
							c-0.4,3.6-0.8,6.6-1.1,8.6c-0.3,2-0.5,3.1-0.7,3.1c-0.1,0-0.1-1.2,0-3.2c0.1-2.1,0.3-5,0.6-8.7c0.6-7.3,1.4-17.4,2.5-28.6
							c1.1-11.1,2.4-21.2,3.5-28.5c0.6-3.6,1.1-6.6,1.5-8.6C885.5,950.1,885.8,949,886,949z"/>
					</g>
				</g>
			</g>
			<g>
				<g>
					<g>
						<path class="st42" d="M888.7,1032.1c-0.1,0-0.1-1.4,0-3.8c0.1-2.4,0.3-5.9,0.5-10.3c0.5-8.7,1.2-20.6,2-33.8
							c0.9-13.2,1.8-25.1,2.7-33.8c0.4-4.3,0.8-7.8,1.1-10.2c0.3-2.4,0.5-3.7,0.7-3.7c0.1,0,0.1,1.4,0,3.8
							c-0.1,2.4-0.3,5.9-0.6,10.2c-0.6,8.6-1.3,20.6-2.2,33.8c-0.9,13.2-1.7,25.1-2.5,33.8c-0.4,4.3-0.7,7.8-1,10.2
							C889.1,1030.7,888.8,1032.1,888.7,1032.1z"/>
					</g>
				</g>
			</g>
			<g>
				<g>
					<g>
						<path class="st42" d="M904.6,948.9c0.1,0,0.1,1.2-0.1,3.2c-0.1,2-0.4,5-0.6,8.7c-0.5,7.3-1.1,17.4-1.7,28.6
							c-0.6,11.2-1.1,21.3-1.7,28.6c-0.3,3.7-0.5,6.6-0.7,8.7c-0.2,2-0.4,3.2-0.5,3.2c-0.1,0-0.2-1.1-0.1-3.2c0-2.1,0.1-5,0.2-8.7
							c0.2-7.3,0.6-17.5,1.2-28.7c0.6-11.2,1.4-21.3,2.2-28.6c0.4-3.7,0.8-6.6,1.1-8.6C904.2,950,904.5,948.9,904.6,948.9z"/>
					</g>
				</g>
			</g>
			<g>
				<g>
					<g>
						<path class="st42" d="M911.4,1032.2c-0.1,0-0.2-1.3-0.2-3.8c0-2.4,0.1-5.9,0.2-10.3c0.2-8.7,0.5-20.6,1-33.8
							c0.4-13.2,1-25.2,1.6-33.8c0.3-4.3,0.6-7.8,0.8-10.2c0.2-2.4,0.4-3.7,0.5-3.7c0.1,0,0.1,1.3,0.1,3.8c0,2.4-0.1,5.9-0.3,10.3
							c-0.3,8.7-0.7,20.6-1.1,33.8c-0.4,13.2-0.9,25.2-1.4,33.8c-0.2,4.3-0.5,7.8-0.7,10.2C911.7,1030.8,911.5,1032.2,911.4,1032.2z
							"/>
					</g>
				</g>
			</g>
			<g>
				<g>
					<g>
						<path class="st42" d="M925,951.2c0.1,0,0.1,1.2,0,3.2c-0.1,2.1-0.2,5-0.3,8.7c-0.3,7.3-0.5,17.5-0.8,28.7
							c-0.2,11.2-0.4,21.3-0.7,28.7c-0.1,3.7-0.3,6.6-0.4,8.7c-0.2,2.1-0.3,3.2-0.4,3.2c-0.1,0-0.2-1.1-0.2-3.2
							c-0.1-2.1-0.1-5-0.1-8.7c0-7.3,0-17.5,0.2-28.7c0.2-11.2,0.7-21.4,1.2-28.7c0.3-3.7,0.6-6.6,0.9-8.7
							C924.6,952.3,924.8,951.2,925,951.2z"/>
					</g>
				</g>
			</g>
			<g>
				<g>
					<g>
						<path class="st42" d="M935.3,1034.2c-0.1,0-0.3-1.3-0.4-3.8c-0.2-2.4-0.4-5.9-0.6-10.2c-0.4-8.7-1-20.6-1.5-33.8
							c-0.5-13.2-0.8-25.2-0.9-33.9c0-4.3,0-7.8,0.1-10.3c0.1-2.4,0.2-3.8,0.3-3.8c0.1,0,0.2,1.3,0.4,3.8c0.1,2.4,0.3,5.9,0.5,10.2
							c0.3,8.7,0.8,20.6,1.3,33.8c0.5,13.2,0.9,25.2,1,33.8c0.1,4.3,0.1,7.8,0.1,10.3C935.5,1032.9,935.4,1034.2,935.3,1034.2z"/>
					</g>
				</g>
			</g>
			<g>
				<g>
					<g>
						<path class="st42" d="M943.3,951.2c0.1,0,0.2,1.1,0.3,3.2c0.1,2.1,0.2,5,0.3,8.7c0.3,7.3,0.8,17.4,1.5,28.6
							c0.7,11.2,1.2,21.3,1.5,28.7c0.2,3.7,0.2,6.6,0.2,8.7c0,2.1,0,3.2-0.2,3.2c-0.1,0-0.3-1.1-0.5-3.2c-0.2-2-0.5-5-0.8-8.7
							c-0.6-7.3-1.4-17.4-2-28.6c-0.6-11.2-1-21.3-1-28.7c0-3.7,0.1-6.7,0.2-8.7C943.1,952.4,943.2,951.2,943.3,951.2z"/>
					</g>
				</g>
			</g>
		</g>
		<g>
			<g>
				<g>
					<g>
						<path class="st42" d="M1110.4,910.2c0.1,0,0.7,0.9,1.7,2.7c1,1.8,2.3,4.3,4,7.5c3.3,6.4,7.9,15.3,12.4,25.3
							c4.6,10,8.2,19.3,10.6,26.1c1.2,3.4,2.1,6.2,2.7,8.1c0.6,1.9,0.9,3,0.8,3.1c-0.2,0.1-1.9-4.1-4.5-10.7
							c-2.7-6.7-6.4-15.9-11-25.9c-4.5-10-8.9-18.9-12-25.4c-1.5-3.3-2.7-5.9-3.5-7.8C1110.7,911.3,1110.3,910.3,1110.4,910.2z"/>
					</g>
				</g>
			</g>
			<g>
				<g>
					<g>
						<path class="st42" d="M1093,889.1c0.1,0,0.8,1.3,2.1,3.8c1.3,2.5,3,6.1,5.2,10.6c4.3,9,10.1,21.4,16.3,35.3
							c6.2,13.9,11.6,26.5,15.3,35.7c1.9,4.6,3.3,8.4,4.3,11c0.9,2.6,1.4,4.1,1.3,4.1c-0.1,0-0.8-1.3-1.9-3.9
							c-1.1-2.5-2.7-6.2-4.7-10.8c-4-9.1-9.5-21.7-15.7-35.5c-6.2-13.8-11.8-26.4-15.9-35.4c-2-4.5-3.6-8.2-4.7-10.8
							S1092.9,889.1,1093,889.1z"/>
					</g>
				</g>
			</g>
			<g>
				<g>
					<g>
						<path class="st42" d="M1098.1,920.2c0.1,0,0.7,0.9,1.6,2.7c0.9,1.8,2.2,4.4,3.8,7.6c3.2,6.5,7.5,15.4,11.9,25.5
							c4.4,10.1,7.7,19.5,10,26.4c1.1,3.4,2,6.2,2.5,8.2c0.5,1.9,0.8,3,0.7,3.1c-0.2,0.1-1.8-4.1-4.3-10.8
							c-2.5-6.7-6.1-16-10.4-26.1c-4.3-10.1-8.5-19.1-11.4-25.7c-1.5-3.3-2.6-6-3.4-7.8C1098.4,921.3,1098,920.2,1098.1,920.2z"/>
					</g>
				</g>
			</g>
			<g>
				<g>
					<g>
						<path class="st42" d="M1080.3,901.3c0.1,0,0.8,1.2,2,3.5c1.2,2.3,2.8,5.7,4.9,9.9c4,8.4,9.5,20,15.4,33
							c5.8,13,10.9,24.8,14.4,33.5c1.7,4.3,3.1,7.9,4,10.3c0.9,2.5,1.3,3.8,1.2,3.9c-0.1,0-0.7-1.3-1.8-3.6c-1-2.4-2.6-5.8-4.4-10.1
							c-3.7-8.5-8.9-20.3-14.8-33.3c-5.8-12.9-11.2-24.7-14.9-33.2c-1.9-4.3-3.4-7.7-4.4-10.1
							C1080.7,902.7,1080.2,901.3,1080.3,901.3z"/>
					</g>
				</g>
			</g>
			<g>
				<g>
					<g>
						<path class="st42" d="M1082.6,927.1c0.1,0,0.7,0.9,1.6,2.7c0.9,1.8,2.2,4.4,3.8,7.6c3.2,6.5,7.5,15.4,11.9,25.5
							c4.4,10.1,7.7,19.5,10,26.4c1.1,3.4,2,6.2,2.5,8.2c0.5,1.9,0.8,3,0.7,3.1c-0.2,0.1-1.8-4.1-4.3-10.8
							c-2.5-6.7-6.1-16-10.4-26.1c-4.3-10.1-8.5-19.1-11.4-25.7c-1.5-3.3-2.6-6-3.4-7.8C1082.8,928.2,1082.4,927.2,1082.6,927.1z"/>
					</g>
				</g>
			</g>
			<g>
				<g>
					<g>
						<path class="st42" d="M1062.6,908.3c0.1,0,0.8,1.3,2,3.7c1.2,2.4,2.9,5.9,5,10.3c4.2,8.7,9.8,20.8,15.9,34.2
							c6,13.5,11.3,25.7,14.9,34.7c1.8,4.5,3.2,8.1,4.1,10.7c0.9,2.5,1.4,4,1.3,4c-0.1,0-0.8-1.3-1.9-3.8c-1.1-2.5-2.7-6-4.6-10.5
							c-3.9-8.8-9.3-21-15.3-34.5c-6-13.4-11.5-25.6-15.4-34.4c-1.9-4.4-3.5-8-4.5-10.5C1063,909.7,1062.5,908.3,1062.6,908.3z"/>
					</g>
				</g>
			</g>
			<g>
				<g>
					<g>
						<path class="st42" d="M1064.3,931.2c0.1,0,0.7,1,1.6,2.9c0.9,1.9,2.2,4.6,3.8,8c3.2,6.8,7.7,16.1,12.2,26.6
							c4.5,10.5,8,20.3,10.2,27.4c1.1,3.6,2,6.5,2.5,8.5c0.5,2,0.8,3.2,0.7,3.2c-0.2,0.1-1.7-4.3-4.2-11.3
							c-2.5-7-6.1-16.7-10.6-27.2c-4.5-10.5-8.8-19.9-11.7-26.7c-1.5-3.4-2.6-6.2-3.4-8.2C1064.6,932.3,1064.2,931.2,1064.3,931.2z"
							/>
					</g>
				</g>
			</g>
			<g>
				<g>
					<g>
						<path class="st42" d="M1047.9,909.2c0.1,0,0.8,1.4,1.9,4c1.1,2.6,2.8,6.4,4.7,11.2c3.9,9.5,9,22.6,14.5,37.2
							c5.5,14.6,10.2,27.9,13.5,37.6c1.6,4.8,2.9,8.8,3.8,11.5c0.8,2.7,1.3,4.3,1.1,4.3c-0.1,0-0.7-1.4-1.7-4.1
							c-1-2.7-2.5-6.5-4.3-11.3c-3.6-9.6-8.5-22.8-13.9-37.4c-5.5-14.6-10.4-27.8-14-37.4c-1.8-4.8-3.2-8.7-4.2-11.3
							C1048.3,910.8,1047.8,909.3,1047.9,909.2z"/>
					</g>
				</g>
			</g>
			<g>
				<g>
					<g>
						<path class="st42" d="M1051.5,940.5c0.1,0,0.6,0.9,1.5,2.8c0.8,1.8,2,4.5,3.5,7.8c2.9,6.6,6.8,15.8,10.7,26.1
							c3.9,10.3,6.8,19.9,8.7,26.8c0.9,3.5,1.7,6.3,2.1,8.3c0.5,2,0.7,3.1,0.5,3.1c-0.2,0.1-1.6-4.2-3.8-11
							c-2.2-6.8-5.3-16.3-9.2-26.6c-3.8-10.3-7.6-19.5-10.2-26.2c-1.3-3.4-2.3-6.1-3-8C1051.8,941.6,1051.4,940.5,1051.5,940.5z"/>
					</g>
				</g>
			</g>
			<g>
				<g>
					<g>
						<path class="st42" d="M1032.9,921.2c0.1,0,0.7,1.3,1.8,3.6c1.1,2.4,2.6,5.8,4.4,10.1c3.6,8.6,8.6,20.5,13.8,33.7
							c5.2,13.2,9.7,25.3,12.7,34.1c1.5,4.4,2.7,8,3.5,10.5c0.8,2.5,1.1,3.9,1,3.9c-0.1,0-0.7-1.3-1.6-3.7c-0.9-2.4-2.3-5.9-4-10.3
							c-3.3-8.7-8-20.7-13.2-33.9c-5.2-13.2-10-25.2-13.3-33.9c-1.7-4.3-3-7.9-3.9-10.3C1033.3,922.6,1032.8,921.2,1032.9,921.2z"/>
					</g>
				</g>
			</g>
			<g>
				<g>
					<g>
						<path class="st42" d="M1034,947.1c0.1,0,0.6,0.9,1.5,2.8c0.8,1.8,2,4.5,3.5,7.8c2.9,6.6,6.8,15.8,10.7,26.1
							c3.9,10.3,6.8,19.9,8.7,26.8c0.9,3.5,1.7,6.3,2.1,8.3c0.5,2,0.7,3.1,0.5,3.1c-0.2,0.1-1.6-4.2-3.8-11
							c-2.2-6.8-5.3-16.3-9.2-26.6c-3.8-10.3-7.6-19.5-10.2-26.2c-1.3-3.4-2.3-6.1-3-8C1034.2,948.2,1033.9,947.1,1034,947.1z"/>
					</g>
				</g>
			</g>
			<g>
				<g>
					<g>
						<path class="st42" d="M1017.9,926.3c0.1,0,0.7,1.3,1.6,3.7c0.9,2.4,2.2,6,3.8,10.4c3.1,8.8,7.3,21,11.7,34.5
							c4.4,13.5,8.2,25.9,10.7,34.8c1.3,4.5,2.2,8.1,2.8,10.7c0.6,2.5,0.9,3.9,0.8,4c-0.1,0-0.6-1.3-1.4-3.8
							c-0.8-2.5-1.9-6.1-3.3-10.5c-2.8-8.9-6.7-21.1-11.1-34.7c-4.4-13.5-8.4-25.7-11.2-34.6c-1.4-4.4-2.5-8-3.3-10.5
							C1018.1,927.7,1017.8,926.3,1017.9,926.3z"/>
					</g>
				</g>
			</g>
			<g>
				<g>
					<g>
						<path class="st42" d="M1016.9,949.8c0.1,0,0.6,1,1.3,2.9c0.7,1.9,1.6,4.8,2.7,8.3c2.2,7,4.8,16.9,7.4,27.7
							c2.6,10.9,4.9,20.8,6.4,28c0.8,3.6,1.4,6.5,1.8,8.5c0.4,2,0.6,3.1,0.5,3.2c-0.1,0-0.5-1-1.1-3c-0.6-2-1.4-4.8-2.3-8.4
							c-1.9-7.1-4.2-17-6.9-27.9c-2.6-10.9-5.1-20.7-6.9-27.8c-0.9-3.5-1.7-6.4-2.2-8.4C1017,950.9,1016.8,949.8,1016.9,949.8z"/>
					</g>
				</g>
			</g>
			<g>
				<g>
					<g>
						<path class="st42" d="M1024,1027.4c-0.1,0-0.5-1.3-1.1-3.6c-0.6-2.3-1.4-5.8-2.4-10c-1.9-8.4-4.5-20.2-7.1-33.1
							c-2.7-13-5.1-24.7-6.8-33.2c-0.9-4.2-1.6-7.7-2-10.1c-0.5-2.4-0.6-3.7-0.5-3.7c0.1,0,0.5,1.3,1.2,3.6c0.6,2.3,1.5,5.7,2.5,9.9
							c2,8.4,4.6,20.1,7.3,33.1c2.7,12.9,5,24.7,6.6,33.2c0.8,4.3,1.5,7.7,1.9,10.1C1023.9,1026,1024.1,1027.3,1024,1027.4z"/>
					</g>
				</g>
			</g>
			<g>
				<g>
					<g>
						<path class="st42" d="M1000.1,952.9c0.1,0,0.5,1.1,1,3.1c0.5,2,1.2,4.9,1.9,8.5c1.5,7.2,3.1,17.2,4.8,28.3
							c1.6,11.1,2.9,21.2,3.7,28.5c0.4,3.6,0.8,6.6,1,8.6c0.2,2,0.3,3.2,0.2,3.2c-0.1,0-0.4-1.1-0.8-3.1c-0.4-2-0.9-4.9-1.5-8.6
							c-1.2-7.3-2.6-17.3-4.2-28.4c-1.6-11.1-3.1-21.1-4.3-28.3c-0.6-3.6-1.1-6.6-1.4-8.6C1000.1,954,1000,952.9,1000.1,952.9z"/>
					</g>
				</g>
			</g>
			<g>
				<g>
					<g>
						<path class="st42" d="M1000.8,1035.9c-0.1,0-0.4-1.3-0.8-3.7c-0.4-2.4-0.9-5.9-1.4-10.2c-1.1-8.6-2.5-20.5-3.9-33.6
							c-1.4-13.2-2.7-25-3.6-33.7c-0.5-4.3-0.8-7.8-1-10.2c-0.2-2.4-0.3-3.8-0.2-3.8c0.1,0,0.4,1.3,0.8,3.7c0.4,2.4,1,5.9,1.6,10.1
							c1.2,8.6,2.7,20.5,4.1,33.6c1.4,13.1,2.6,25,3.5,33.7c0.4,4.3,0.7,7.8,0.9,10.2C1000.9,1034.6,1000.9,1035.9,1000.8,1035.9z"
							/>
					</g>
				</g>
			</g>
			<g>
				<g>
					<g>
						<path class="st42" d="M981.5,953.5c0.1,0,0.4,1.1,0.8,3.1c0.4,2,1,4.9,1.5,8.6c1.1,7.3,2.3,17.4,3.4,28.5
							c1.1,11.2,1.9,21.3,2.4,28.6c0.3,3.7,0.5,6.6,0.6,8.7c0.1,2.1,0.1,3.2,0,3.2c-0.1,0-0.3-1.1-0.6-3.1c-0.3-2-0.7-5-1.1-8.6
							c-0.8-7.3-1.8-17.4-2.9-28.6c-1.1-11.1-2.1-21.2-2.9-28.5c-0.4-3.6-0.8-6.6-1-8.6C981.4,954.7,981.4,953.5,981.5,953.5z"/>
					</g>
				</g>
			</g>
			<g>
				<g>
					<g>
						<path class="st42" d="M978.2,1037c-0.1,0-0.3-1.3-0.6-3.7c-0.3-2.4-0.7-5.9-1.1-10.2c-0.9-8.6-1.9-20.6-2.9-33.7
							c-1-13.2-1.9-25.1-2.6-33.8c-0.3-4.3-0.6-7.8-0.7-10.2c-0.1-2.4-0.2-3.8-0.1-3.8c0.1,0,0.4,1.3,0.7,3.7
							c0.3,2.4,0.8,5.9,1.2,10.2c1,8.6,2,20.5,3,33.7c1,13.2,1.8,25.1,2.4,33.8c0.3,4.3,0.5,7.8,0.6,10.2
							C978.3,1035.6,978.3,1037,978.2,1037z"/>
					</g>
				</g>
			</g>
			<g>
				<g>
					<g>
						<path class="st42" d="M961.2,956.7c0.1,0,0.4,1.1,0.7,3.1c0.3,2,0.8,5,1.2,8.6c0.9,7.3,1.8,17.4,2.5,28.6
							c0.7,11.2,1.2,21.3,1.4,28.7c0.1,3.7,0.2,6.6,0.3,8.7c0,2.1,0,3.2-0.1,3.2c-0.1,0-0.3-1.1-0.5-3.2c-0.2-2-0.5-5-0.8-8.7
							c-0.6-7.3-1.2-17.4-1.9-28.6c-0.7-11.2-1.4-21.3-2-28.6c-0.3-3.7-0.5-6.6-0.7-8.7C961.1,957.9,961.1,956.7,961.2,956.7z"/>
					</g>
				</g>
			</g>
			<g>
				<g>
					<g>
						<path class="st42" d="M954.4,1040.1c-0.1,0-0.2-1.3-0.4-3.8c-0.1-2.4-0.3-5.9-0.4-10.3c-0.2-8.7-0.4-20.6-0.4-33.9
							c0-13.2-0.1-25.2-0.1-33.9c0-4.3,0-7.8,0-10.3c0-2.4,0.1-3.8,0.2-3.8c0.1,0,0.3,1.3,0.4,3.8c0.2,2.4,0.3,5.9,0.5,10.3
							c0.3,8.7,0.5,20.6,0.6,33.9c0,13.2,0,25.2-0.1,33.9c0,4.3-0.1,7.8-0.1,10.3C954.6,1038.7,954.5,1040.1,954.4,1040.1z"/>
					</g>
				</g>
			</g>
		</g>
	</g>
	<g>
		<g>
			<g>
				<g>
					<g>
						<path class="st43" d="M883.2,747.3c0.2,0.1-1.3,2.4-3.6,6c-2.3,3.6-5.4,8.6-8.8,14.2c-3.4,5.6-6.5,10.6-9,14.2
							c-2.4,3.6-4.1,5.6-4.3,5.5c-0.2-0.1,1.2-2.4,3.3-6.1c2.2-3.7,5.1-8.8,8.5-14.4c3.4-5.6,6.7-10.6,9.3-14
							C881.2,749.1,883,747.1,883.2,747.3z"/>
					</g>
				</g>
			</g>
			<g>
				<g>
					<g>
						<path class="st43" d="M886.9,756.4c0.2,0.1-0.8,2.2-2.4,5.5c-1.6,3.3-3.9,7.8-6.5,12.8c-2.6,5-5.1,9.5-7.3,12.5
							c-2.1,3.1-3.8,4.7-3.9,4.6c-0.2-0.2,1.2-2,3-5.2c1.8-3.2,4.2-7.7,6.8-12.7c2.6-5,5.1-9.5,7-12.6
							C885.3,758.2,886.7,756.3,886.9,756.4z"/>
					</g>
				</g>
			</g>
			<g>
				<g>
					<g>
						<path class="st43" d="M901.8,750.8c0.2,0.1-0.6,2.9-2.5,7.2c-1.9,4.3-4.8,10.1-8.3,16.4c-3.4,6.3-6.6,12-8.7,16.2
							c-2.1,4.2-3.3,6.8-3.6,6.7c-0.2-0.1,0.6-2.9,2.5-7.2c1.9-4.3,4.8-10.1,8.3-16.4c3.4-6.3,6.6-12,8.7-16.1
							C900.3,753.4,901.5,750.7,901.8,750.8z"/>
					</g>
				</g>
			</g>
			<g>
				<g>
					<g>
						<path class="st43" d="M904.6,768.7c0.4,0.1-1.6,8-5.1,17.3c-3.6,9.3-7.3,16.5-7.7,16.3c-0.4-0.2,2.6-7.6,6.2-16.9
							C901.5,776.2,904.1,768.6,904.6,768.7z"/>
					</g>
				</g>
			</g>
			<g>
				<g>
					<g>
						<path class="st43" d="M904.8,807c-0.2-0.1,0.3-2.9,1.3-7.6c1-4.6,2.3-11,3.7-18.1c1.4-7.1,2.6-13.5,3.5-18.2
							c1-4.6,1.7-7.5,1.9-7.4c0.2,0-0.1,3-0.8,7.6c-0.7,4.7-1.7,11.2-3.1,18.3c-1.3,7.1-2.9,13.5-4.1,18.1
							C906,804.2,905.1,807,904.8,807z"/>
					</g>
				</g>
			</g>
			<g>
				<g>
					<g>
						<path class="st43" d="M921.3,768.8c0.5,0,0.8,8.7-0.5,19.3c-0.6,5.3-1.3,10.1-1.9,13.5c-0.6,3.4-1.1,5.5-1.3,5.5
							c-0.2,0-0.2-2.2,0.1-5.7c0.3-3.5,0.9-8.3,1.4-13.5C920.4,777.4,920.8,768.8,921.3,768.8z"/>
					</g>
				</g>
			</g>
			<g>
				<g>
					<g>
						<path class="st43" d="M928.2,807.5c-0.2,0-0.2-3,0.1-7.7c0.2-4.7,0.5-11.2,0.6-18.5c0.2-7.2,0.3-13.8,0.5-18.5
							c0.2-4.7,0.4-7.7,0.6-7.7c0.2,0,0.4,2.9,0.5,7.7c0.1,4.7,0.1,11.3,0,18.5c-0.2,7.2-0.6,13.8-1.1,18.5
							C928.9,804.6,928.5,807.5,928.2,807.5z"/>
					</g>
				</g>
			</g>
			<g>
				<g>
					<g>
						<path class="st43" d="M939.8,772.9c0.4-0.1,1.9,8.5,2,19.2c0.1,5.3,0,10.1-0.1,13.6c-0.1,3.5-0.3,5.6-0.6,5.6
							c-0.2,0-0.4-2.2-0.6-5.6c-0.2-3.5-0.2-8.3-0.3-13.6C940,781.5,939.3,773,939.8,772.9z"/>
					</g>
				</g>
			</g>
		</g>
		<g>
			<g>
				<g>
					<g>
						<path class="st43" d="M996.3,747.4c0.2-0.1,2,1.9,4.5,5.3c2.6,3.5,5.9,8.4,9.3,14c3.4,5.6,6.4,10.7,8.5,14.4
							c2.2,3.7,3.5,6,3.3,6.1c-0.2,0.1-1.9-1.9-4.3-5.5c-2.4-3.6-5.5-8.6-9-14.2c-3.4-5.6-6.5-10.6-8.8-14.2
							C997.6,749.7,996.1,747.5,996.3,747.4z"/>
					</g>
				</g>
			</g>
			<g>
				<g>
					<g>
						<path class="st43" d="M992.6,756.5c0.2-0.1,1.5,1.8,3.4,4.9c1.9,3.2,4.4,7.7,7,12.6c2.6,5,5,9.5,6.8,12.7c1.8,3.2,3.1,5,3,5.2
							c-0.2,0.2-1.9-1.5-3.9-4.6c-2.1-3.1-4.6-7.5-7.3-12.5c-2.6-5-4.9-9.5-6.5-12.8C993.4,758.7,992.4,756.6,992.6,756.5z"/>
					</g>
				</g>
			</g>
			<g>
				<g>
					<g>
						<path class="st43" d="M977.7,750.9c0.2-0.1,1.4,2.6,3.6,6.7c2.1,4.2,5.2,9.9,8.7,16.1c3.4,6.3,6.4,12.1,8.3,16.4
							c1.9,4.3,2.7,7.1,2.5,7.2c-0.2,0.1-1.4-2.5-3.6-6.7c-2.1-4.2-5.2-9.9-8.7-16.2c-3.4-6.3-6.4-12.1-8.3-16.4
							C978.3,753.8,977.5,751,977.7,750.9z"/>
					</g>
				</g>
			</g>
			<g>
				<g>
					<g>
						<path class="st43" d="M974.9,768.9c0.5-0.1,3.1,7.5,6.7,16.7c3.6,9.2,6.6,16.7,6.2,16.9c-0.4,0.2-4.1-7-7.7-16.3
							C976.4,776.8,974.5,769,974.9,768.9z"/>
					</g>
				</g>
			</g>
			<g>
				<g>
					<g>
						<path class="st43" d="M974.6,807.1c-0.2,0.1-1.2-2.7-2.4-7.3c-1.3-4.6-2.8-11-4.1-18.1c-1.4-7.1-2.4-13.6-3.1-18.3
							c-0.7-4.7-1-7.6-0.8-7.6c0.2,0,0.9,2.8,1.9,7.4c1,4.6,2.2,11.1,3.5,18.2c1.3,7.1,2.7,13.5,3.7,18.1
							C974.3,804.1,974.8,807,974.6,807.1z"/>
					</g>
				</g>
			</g>
			<g>
				<g>
					<g>
						<path class="st43" d="M958.2,768.9c0.4,0,0.9,8.6,2.1,19.1c0.6,5.3,1.1,10.1,1.4,13.5c0.3,3.5,0.4,5.6,0.1,5.7
							c-0.2,0-0.7-2.1-1.3-5.5c-0.6-3.4-1.3-8.2-1.9-13.5C957.4,777.6,957.7,768.9,958.2,768.9z"/>
					</g>
				</g>
			</g>
			<g>
				<g>
					<g>
						<path class="st43" d="M951.2,807.6c-0.2,0-0.7-2.9-1.2-7.6c-0.5-4.7-1-11.3-1.1-18.5c-0.2-7.2-0.1-13.8,0-18.5
							c0.1-4.7,0.3-7.7,0.5-7.7c0.2,0,0.5,2.9,0.6,7.7c0.2,4.7,0.4,11.3,0.5,18.5c0.2,7.2,0.4,13.7,0.6,18.5
							C951.4,804.6,951.4,807.6,951.2,807.6z"/>
					</g>
				</g>
			</g>
		</g>
	</g>
	<g>
		<g>
			<g>
				<path class="st44" d="M998.7,1070.8c0,0-0.5-0.3-1.4-0.9c-0.9-0.6-2.2-1.5-4-2.4c-3.6-1.8-9.4-3.5-16.6-3.2
					c-3.6,0.2-7.5,0.8-11.5,2.2c-4,1.4-8.1,3.4-11.7,6.5c-3.6,3-6.7,7.1-8.3,11.9c-1.5,4.9-2.1,10.3-2.6,15.8
					c-0.9,11.1-1,21.7-1.1,31.3c-0.1,9.6,0,18.3,0.1,25.6c0.1,7.3,0.1,13.2,0.1,17.3c0,2-0.1,3.6-0.1,4.7c-0.1,1.1-0.1,1.6-0.2,1.6
					c-0.1,0-0.1-0.6-0.1-1.6c0-1.1-0.1-2.7-0.2-4.7c-0.2-4.1-0.4-10-0.6-17.3c-0.2-7.3-0.4-16-0.5-25.7c0-9.7,0.1-20.3,1-31.5
					c0.5-5.6,1.1-11,2.7-16.2c1.7-5.2,5-9.4,8.8-12.6c3.8-3.2,8.1-5.3,12.2-6.6c4.2-1.4,8.2-1.9,11.9-2c7.4-0.1,13.3,1.8,16.9,3.8
					c1.8,1,3.1,2,3.9,2.7C998.3,1070.4,998.8,1070.8,998.7,1070.8z"/>
			</g>
		</g>
	</g>
	<g>
		<g>
			<g>
				<path class="st44" d="M983.7,1064.1c0-0.1,0.4-0.1,1.3-0.1c0.4,0,0.9,0,1.5,0.1c0.6,0.1,1.3,0.2,2.1,0.3
					c0.8,0.2,1.6,0.5,2.6,0.7c0.9,0.4,1.9,0.8,2.9,1.3c2,1.1,4.2,2.6,6.2,4.7c2,2.1,3.8,4.7,5.4,7.7c1.6,3,2.8,6.4,3.8,10
					c2,7.3,3.1,15.6,3.5,24.2c0.4,8.7,0.1,17-0.1,24.4c-0.1,7.4,0.3,14.2,0.4,19.8c0.1,5.7,0,10.3-0.3,13.4
					c-0.3,3.2-0.6,4.9-0.7,4.9c-0.1,0,0-1.8,0.1-4.9c0.1-3.2,0-7.7-0.3-13.4c-0.3-5.6-0.8-12.4-0.8-19.9c0.1-7.5,0.4-15.7,0-24.3
					c-0.4-8.6-1.4-16.7-3.4-23.9c-1-3.6-2.1-6.9-3.6-9.8c-1.5-2.9-3.2-5.5-5-7.6c-1.9-2.1-3.9-3.6-5.8-4.7c-1-0.5-1.9-0.9-2.8-1.3
					c-0.9-0.3-1.7-0.6-2.5-0.8c-0.8-0.2-1.4-0.3-2-0.4c-0.6-0.1-1.1-0.2-1.5-0.3C984.2,1064.2,983.7,1064.1,983.7,1064.1z"/>
			</g>
		</g>
	</g>
</g>
<g id="TlIpwG_1_">
	
		<image style="overflow:visible;" width="660" height="580" id="TlIpwG" xlink:href="58DD019711D8A534.png"  transform="matrix(0.5 0 0 0.5 -305.9691 681.9827)">
	</image>
</g>
</svg>
