<?xml version="1.0" encoding="utf-8"?>
<!-- Generator: Adobe Illustrator 23.1.1, SVG Export Plug-In . SVG Version: 6.00 Build 0)  -->
<svg version="1.1" id="Camada_1" xmlns="http://www.w3.org/2000/svg" xmlns:xlink="http://www.w3.org/1999/xlink" x="0px" y="0px"
	 viewBox="0 0 600 900" style="enable-background:new 0 0 600 900;" xml:space="preserve">
<style type="text/css">
	.st0{fill:#FFF9DE;}
	.st1{fill:#EBAC66;}
	.st2{fill:#F3C581;}
	.st3{fill:#DA864C;}
	.st4{fill:#E0964D;}
	.st5{opacity:0.81;}
	.st6{fill:#87AACF;}
	.st7{fill:#009599;}
	.st8{fill:#334056;}
	.st9{fill:#53688C;}
	.st10{fill:#FED872;}
	.st11{fill:#9FC7F2;}
	.st12{fill:#6391C2;}
	.st13{fill:#00B3B8;}
	.st14{fill:#E4A760;}
	.st15{fill:#FEB900;}
	.st16{opacity:0.25;}
	.st17{fill:#D9DEDD;}
	.st18{fill:#5D6267;}
	.st19{fill:#FEC326;}
	.st20{opacity:0.32;}
	.st21{fill:#FFFFFF;}
	.st22{fill:#6990B8;}
	.st23{fill:#60B6BA;}
	.st24{fill:#E7B18B;}
	.st25{fill:url(#SVGID_1_);}
	.st26{fill:#212C50;}
	.st27{fill:#D2C0C0;}
	.st28{fill:none;stroke:#212C50;stroke-width:4.4619;stroke-linecap:round;stroke-linejoin:round;stroke-miterlimit:10;}
	.st29{fill:#E8D4D3;}
	.st30{opacity:0.5;fill:#D7EBFA;}
	.st31{fill:none;stroke:#D9D9D9;stroke-width:5.7239;stroke-linecap:round;stroke-miterlimit:10;}
	.st32{fill:#D29775;}
	.st33{fill:#F28D47;}
	.st34{fill:#E06E46;}
	.st35{opacity:0.2;fill:#FFFFFF;}
	.st36{fill:#E8C27E;}
	.st37{fill:#D8B16C;}
	.st38{fill:#CC9966;}
	.st39{fill:#AA572B;}
	.st40{fill:#CE9A56;stroke:#CE9A56;stroke-width:0.1403;stroke-miterlimit:10;}
	.st41{fill:#D9AD66;stroke:#D9AD66;stroke-width:0.1403;stroke-miterlimit:10;}
	.st42{fill:#BC775F;stroke:#BC775F;stroke-width:0.1403;stroke-miterlimit:10;}
</style>
<g>
	<path class="st0" d="M519,407.8c-24,38.4-65,69-115,99.4c-3,2.4-6,3.9-8,5.2c-7,5.1-15,8.6-22,12.1c-7,4.5-14,9.2-22,12.2
		c-3,0.8-6,2.6-9,3.4c-2,0.5-5,2.4-7,3.9c-2,0.6-4,1.1-6,1.7c-21,9-42,15.6-63,18.6c-2,0.6-4,1.1-6,1.7c-48,5.6-89-6.9-126-42.5
		c-7-6.7-13-13.6-19-21.7c-9-11.8-16-23.6-24-37.3c-6-12-11-22.9-16-35.1c-5-14.2-10-27.6-14-42.7c-1-5.5-2-12.1-4-18.2
		C46,306,52,256.2,76,217.4c6-8.4,12-17.1,19-25.9c10-10.9,20-21.5,33-30.8c1-0.9,1-1.9,2-2.7c5-2.4,8-6.2,13-8.8c1-0.9,1-1.9,2-2.9
		c28-19.7,56-38.3,90-55.4c1-0.2,3-0.7,4-1c31-16.7,62-27.9,94-32.9c2-0.6,5,0.6,7,0.1c3-0.8,7-0.9,10-0.7c8-1.1,16-1,23,0.5
		c5,0.9,11,0.7,16,1.8c24,5.7,47,17,68,35.6c1,1.1,1,2.1,2,3.2c54,49.8,83,136.8,86,205.7C546,344.7,537,378.5,519,407.8L519,407.8z
		"/>
</g>
<g>
	<g>
		<g>
			<g>
				<path class="st1" d="M-108.3-103.9c-19.2-8.4-41.9,0.2-52,23.8c-10.1,23.6,0.1,50,0.9,63.6c0.9,13.6,3.4,25.8-1.7,39.1
					c-5.1,13.3-73.1,188-71.5,195.7c1.2,6,11,8.3,14.8,3.7c3.8-4.6,68.1-190.5,79.6-205.9c10.6-14.3,39-35,48.7-52.5
					C-79.1-55-70.8-87.5-108.3-103.9z"/>
			</g>
		</g>
		<g>
			<g>
				<path class="st2" d="M-110.7-104.9c-0.1,0-0.1,0-0.2-0.1C-110.8-104.9-110.8-104.9-110.7-104.9
					C-110.7-104.9-110.7-104.9-110.7-104.9z"/>
			</g>
		</g>
		<g>
			<g>
				<path class="st2" d="M-141.6,1.2c-1.2-5.3,0.7-10.8-1.4-16c-1.7-4.3-5.1-7.7-7.4-11.6c-6.1-10.5-4.7-24.1-5.6-35.7
					c-0.7-9.3-1.3-19.3,1.5-28.2c-0.3,0.4-0.6,0.9-0.9,1.4c-1,3.7-1.6,7.6-1.7,11.4c-0.3,7.1,0.6,14.2,1,21.3
					c0.4,6.3,0.3,12.7,1.3,18.9c0.8,5.2,2.5,9.9,5.5,14.2c1.6,2.3,3.3,4.4,4.7,6.8c2.4,4.2,2.1,7.8,2.1,12.5c0,6.7,3.2,12.2,6,17.8
					c0.2-0.2,0.3-0.4,0.5-0.6C-138.2,9.5-140.6,5.6-141.6,1.2z"/>
			</g>
		</g>
		<g>
			<g>
				<path class="st3" d="M-146.7-98.6c0.2-0.2,0.4-0.3,0.6-0.5L-146.7-98.6z"/>
			</g>
		</g>
		<g>
			<g>
				<path class="st2" d="M-134.9-24.1c-1-4.2-3.2-7.3-5.7-10.8c-6.1-8.6-5.7-19.1-6.4-29.2c-0.7-10.6-3.8-24.7,0.9-35
					c-0.2,0.2-0.4,0.3-0.6,0.5c-2.4,5.7-2.5,12.1-2.1,18.4c0.6,11.3,0.8,23,2.6,34.2c0.8,4.6,2.4,8.4,5.1,12.1
					c4.1,5.7,6,10.7,6.7,17.7c0.8,8.4,1.4,16.9,2.1,25.4c0.3-0.3,0.6-0.6,0.9-0.9c-0.6-6.2-1.2-12.4-1.8-18.5
					C-133.7-14.9-133.8-19.6-134.9-24.1z"/>
			</g>
		</g>
		<g>
			<g>
				<path class="st2" d="M-110.2-30.6c2.9-7.9,6.2-13.8,1.5-21.9c-5.2-8.9-15.2-13.9-21.1-22.3c-5.9-8.4-9.2-18.3-9.6-28.5
					c-0.1,0.1-0.2,0.1-0.3,0.2c0.2,8.1,2,16,5.7,23.3c4.9,9.6,12.6,15.2,20,22.6c4.4,4.4,8.7,10.7,7,17.2c-1.4,5.3-4.3,9.8-5.4,15.3
					c-1.1,5.5-1.7,11.1-2.1,16.8c0.4-0.4,0.8-0.7,1.1-1.1c0-0.4,0.1-0.7,0.1-1.1C-112.8-16.9-112.7-24.1-110.2-30.6z"/>
			</g>
		</g>
		<g>
			<g>
				<path class="st4" d="M-98.5-73.8c-4.9-9.7-14-7.9-23-10.7c-9-2.8-12.6-11.6-14.7-20.2c-0.1,0.1-0.3,0.1-0.4,0.2
					c1.4,6.8,3.7,13.9,9.3,18.2c8.9,7.1,22.4,1.5,28.2,13.5c2.1,4.3,3,9.1,5.1,13.4c1.1,2.2,2.6,4.2,3.5,6.4c1.6,3.9,1,7.7,0.2,11.8
					c-0.5,2.5-0.9,5.2-1,7.8c0.4-0.6,0.7-1.1,1.1-1.7c0.4-4.5,1.9-8.9,1.9-13.4c0-4.7-2.7-8.1-4.8-12.1L-98.5-73.8z"/>
			</g>
		</g>
		<g>
			<g>
				<path class="st2" d="M-104.8-90.5c1.4,1.3,2.9,2.5,4.3,3.6c4.7,3.8,11.1,6.9,17,5.6c-0.2-0.4-0.3-0.8-0.5-1.2
					c-4.3,0.5-8.6-0.8-12.5-3.3c-1.6-1-3.4-2.3-5.2-3.8c-4.9-4-9.6-9.5-8.4-15.2c0,0,0,0,0,0c-0.2-0.1-0.3-0.1-0.5-0.2
					C-112.6-99.2-109-94.4-104.8-90.5z"/>
			</g>
		</g>
		<g>
			<g>
				<path class="st2" d="M-164.1-65.9c2.8,13.7,4.9,27.2,3.6,41.1c0.1,0.8,0.3,1.6,0.4,2.3c2.5-14.9-0.3-30.4-3.8-45
					C-164-67-164.1-66.5-164.1-65.9z"/>
			</g>
		</g>
		<g>
			<g>
				<path class="st4" d="M-148.4,1.7c0.1-4.7-0.4-10.4-4.4-13.5c-1.9-1.5-4.2-2.1-6.4-1.8c0,0.3,0,0.6,0.1,0.9
					c2.4-0.1,4.9,1,6.6,2.8c3.1,3.2,3.5,8,3.4,12.2c-0.2,5.8-1.4,11.5-4.9,16.3c-2.5,3.5-5.8,6.4-9.1,9.1c-0.2,0.5-0.4,1-0.6,1.5
					C-154.6,22-148.7,13.9-148.4,1.7z"/>
			</g>
		</g>
		<g>
			<g>
				<path class="st2" d="M-158.4-5.6c0,0.5,0.1,1,0.1,1.4c3.8,4.5,2.9,10.2,0,15.6c-0.1,0.6-0.2,1.3-0.3,1.9
					c0.7-1.3,1.4-2.6,1.9-3.9C-154.7,4.5-154.3-2-158.4-5.6z"/>
			</g>
		</g>
		<g>
			<g>
				<path class="st2" d="M-155,31.9c-4.3,4-7,8.5-7.8,14.3c-0.7,5,0,8.8-4.9,13.2c-1.5,1.4-3.5,2.3-5.1,3.4
					c-1.9,1.3-3.8,2.8-5.5,4.4c-0.2,0.6-0.5,1.3-0.7,1.9c1.1-1.1,2.3-2.2,3.5-3.2c3.9-3.1,9-5,11.4-9.6c3.4-6.5,1.1-13.6,6-19.9
					c2.9-3.8,9.3-9.9,15.1-11.1c0.2-0.5,0.4-0.9,0.6-1.4C-147.1,24.6-151.9,29.1-155,31.9z"/>
			</g>
		</g>
		<g>
			<g>
				<path class="st2" d="M-164.6,69.6c-5,4.7-10.1,9.5-11,16.7c-0.6,5.3,0.4,10.8,0.9,16c0.1,1.1,0.2,2.2,0.3,3.3
					c0.2-0.6,0.5-1.3,0.7-1.9c-0.4-4.1-0.8-8.1-1-12.2c-0.4-7,1.5-12.1,6.3-17c2.5-2.6,5.3-4.8,7.7-7.4c0.5-0.5,0.9-1,1.3-1.5
					c0.4-1,0.8-2,1.1-2.9C-159.9,65.1-162.1,67.3-164.6,69.6z"/>
			</g>
		</g>
		<g>
			<g>
				<path class="st4" d="M-154.5,42c-1.1,3.5-0.8,6.9-0.8,10.5c0,1,0,2-0.2,2.9c0.3-0.8,0.6-1.6,1-2.4c0.1-5.4-0.6-10.1,2.7-14.9
					c1.5-2.1,3.3-3.8,5.4-5.1c0.2-0.5,0.4-0.9,0.6-1.4C-149.8,33.7-153,37.4-154.5,42z"/>
			</g>
		</g>
		<g>
			<g>
				<path class="st4" d="M-186.6,98c-7.1,15.2-8.1,32.7-2.9,48.5c0.2-0.4,0.3-0.9,0.5-1.3c-4.4-13.6-4.3-28.5,0.7-42.1
					c0.3-0.7,0.5-1.4,0.8-2.1c0.9-1.4,1.2-1.1,0.9,0.9c0.6,1.9,0.3,4.8,0.5,6.8c0.3,4,0.5,8.1,1.2,12.1c0.5,2.5,1.1,5,2.1,7.3
					c0.2-0.6,0.4-1.1,0.6-1.7c-3.6-8.6-3.4-19.2-4.1-28.4C-186.2,97.5-186.5,97.8-186.6,98z"/>
			</g>
		</g>
		<g>
			<g>
				<path class="st4" d="M-225.9,207.4c2.5-4.9,8.7-9,7.6-15.2c-0.2-1-0.6-1.8-0.8-2.8c-0.5-2.2,0.9-8,2-10c1.1-1.9,2.6-3.6,3.8-5.4
					c2-2.8,4.9-5.7,6.1-9c0.7-2,0.3-3.7-0.2-5.7c-0.7-3.1-1.5-6.2-2.3-9.3c-0.1,0.4-0.3,0.8-0.4,1.2c0.2,0.7,0.3,1.4,0.5,2
					c0.6,2.4,1.9,5.4,1.9,7.9c0,6.4-5.3,11.4-8.8,16.4c-1.6,2.3-3.3,4.9-3.8,7.7c-1,5.7,3.4,8.4-0.9,14.5c-3.8,5.5-7.2,9.7-8,16.6
					c-0.2,2.2-0.2,4.4,0.1,6.6c0.4,0.2,0.7,0.4,1.1,0.6C-229,218.1-228.6,212.6-225.9,207.4z"/>
			</g>
		</g>
		<g>
			<g>
				<path class="st2" d="M-214.1,203.7c1.5-2.9,2.3-5.9,2-9.2c-0.2-2.5-1.2-5-1.1-7.5c0.1-5.6,3.2-10.2,6.5-14.4
					c3.7-4.8,8.1-11.1,5.8-17.5c-0.9-2.4-2.8-4.2-3.5-6.6c-1.2-3.6,0.1-7.7,0.7-11.3c0.4-2,0.7-4,1.1-6.1c-0.3,0.9-0.7,1.8-1,2.7
					c-0.3,1.8-0.7,3.6-1,5.3c-0.6,3.4-1.5,7-0.5,10.3c0.9,2.8,3.2,4.9,3.8,7.9c1.2,5.5-2.4,10.2-5.5,14.2c-2.5,3.2-5.2,6.4-6.5,10.3
					c-1.4,4.4,0.1,8.2,0.5,12.6c0.8,8.6-6,13.8-9.6,20.6c-1.5,2.9-2.6,5.9-3.2,9c0.2,0,0.4,0.1,0.6,0.1c0.3-1.8,0.8-3.5,1.5-5.2
					C-221.3,213.3-216.9,209.1-214.1,203.7z"/>
			</g>
		</g>
		<g>
			<g>
				<path class="st2" d="M-114.5-92.1c-18.7-5.6-42.2,2.8-41.8,38.5c0.5,45.1,26.5,56,57.5,17.7C-71.6-69.5-97.8-87.1-114.5-92.1z"
					/>
			</g>
		</g>
		<g>
			<g>
				<path class="st4" d="M-115.7-87.7c-16.7-5-37.6,2.5-37.2,34.3c0.5,40.2,23.6,49.9,51.3,15.8C-77.5-67.6-100.8-83.3-115.7-87.7z"
					/>
			</g>
		</g>
		<g>
			<g>
				<path class="st3" d="M-108.1-73.5c2.2-2.8,4.1-5.4,5.5-7.9c-4.2-3-9-5.1-13.1-6.3c-15.3-4.6-34.3,1.4-36.9,27.1
					C-143.7-47.3-127-50.2-108.1-73.5z"/>
			</g>
		</g>
		<g class="st5">
			<g>
				<path class="st2" d="M-225.8,216.1L-225.8,216.1c-1.3-0.5-2-1.8-1.6-2.8l75-194.2c0.4-1.1,1.8-1.5,3.1-1l0,0
					c1.3,0.5,2,1.8,1.6,2.8l-75,194.2C-223.1,216.1-224.5,216.6-225.8,216.1z"/>
			</g>
		</g>
	</g>
	<g>
		<g>
			<g>
				<path class="st1" d="M-166.8-135.2c-3.8-18-15.9-36.8-35.5-36.1c-27.3,0.9-34.3,39.9-34.2,52.6c0.1,18.2,5.1,34.2,13.3,46.3
					c8.7,12.7,13.7,21.9,13.7,29.5l0,253.3c0,3.5,2.8,6.3,6.3,6.3l0,0c3.5,0,6.3-2.8,6.3-6.3c0.1-39,0.5-246.3,2.3-257.5
					c1.9-12.4,9.5-12.7,20.3-33.6C-166-96.9-162.3-114.3-166.8-135.2z"/>
			</g>
		</g>
		<g>
			<g>
				<path class="st1" d="M-166.8-135.2c-3.8-18-15.9-36.8-35.5-36.1c-27.3,0.9-34.3,39.9-34.2,52.6c0.1,18.2,5.1,34.2,13.3,46.3
					c8.7,12.7,13.7,21.9,13.7,29.5l0,253.3c0,3.5,2.8,6.3,6.3,6.3l0,0c3.5,0,6.3-2.8,6.3-6.3c0.1-39,0.5-246.3,2.3-257.5
					c1.9-12.4,9.5-12.7,20.3-33.6C-166-96.9-162.3-114.3-166.8-135.2z"/>
			</g>
		</g>
		<g>
			<g>
				<g>
					<path class="st1" d="M-211.9-165.8c1.8-0.4,4-0.9,6.2-1.7c2.7-0.9,5.4-2.1,7.7-3.7c-1.4-0.2-2.8-0.2-4.3-0.2
						c-6.4,0.2-11.6,2.5-15.9,6C-216.2-165.1-214-165.3-211.9-165.8z"/>
				</g>
			</g>
			<g>
				<g>
					<path class="st1" d="M-198.5,155.6c0.6,2.7,1.3,5.3,1.7,7.8c0-5.3,0-10.8,0.1-16.5C-198.2,149-199.5,151.2-198.5,155.6z"/>
				</g>
			</g>
			<g>
				<g>
					<path class="st2" d="M-196.7,126.1c0-4.5,0-9.2,0.1-13.8c-0.2,0.4-0.4,0.8-0.6,1.2C-198.7,117.5-197.8,121.8-196.7,126.1z"/>
				</g>
			</g>
			<g>
				<g>
					<path class="st2" d="M-198.5-69.6c1.7-4.5,2.7-8.1,6.4-11.3c2.1-1.8,4.6-3.2,6.8-4.8c4.3-3.1,7.6-7,10.2-11.7
						c3.2-5.6,5.4-11.8,8-17.7c0.7-1.5,1.4-3,2-4.5c0-0.5,0-1-0.1-1.5c0,0,0,0.1-0.1,0.1c-5,10.9-8.7,24.5-18.1,32.3
						c-3.6,3-8,4.9-11.1,8.4c-3.8,4.2-4,10.2-7.1,14.8c-2.9,4.5-7.2,7.6-11,11.2c0.1,0.3,0.2,0.5,0.3,0.8
						C-206.9-58.2-201.1-62.5-198.5-69.6z"/>
				</g>
			</g>
			<g>
				<g>
					<path class="st2" d="M-189.1-99.2c3.9-2.6,6.7-5.7,9.1-9.8c5-8.7,8.9-18.3,12.9-27.6c-0.1-0.2-0.1-0.4-0.2-0.6
						c-1.9,4-3.9,7.8-5.5,11.3c-4.3,9.5-7.7,19.7-16.4,25.7c-3.5,2.4-6.7,4.6-9.2,8.3c-2.6,3.9-4.5,8.4-6.6,12.7
						c-3.3,6.8-6.6,13.5-9.9,20.4c0.2,0.4,0.4,0.7,0.6,1.1c4.3-8.8,8.3-17.8,12.6-26.7C-198.6-91.1-194.9-95.3-189.1-99.2z"/>
				</g>
			</g>
			<g>
				<g>
					<path class="st2" d="M-218.6-117.7c0.8-7,7-11.4,12.7-14c9.6-4.4,18.8-6.9,26.8-14.3c2.1-2,4.1-4.2,5.9-6.5
						c-0.1-0.2-0.3-0.5-0.4-0.7c-3.2,4-7,7.6-11.2,10.5c-8.6,5.9-19.6,7.1-27.7,13.7c-7.3,6-6.4,12.9-6.5,21.6
						c-0.1,7.2-2.5,14.1-4.4,20.9c-0.9,3.2-1.8,6.3-2.7,9.5c0.2,0.3,0.4,0.7,0.6,1c2.6-8.2,5.1-16.6,6.5-24.9
						C-218.1-106.6-219.2-112.1-218.6-117.7z"/>
				</g>
			</g>
			<g>
				<g>
					<path class="st2" d="M-229.4-136.3c1.7-1.8,3.8-3.2,5.6-4.9c3.5-3.4,6.1-7.6,9.6-11c9.7-9.4,20.3,1,31.2-2.5
						c2.3-0.7,4.3-1.9,6.2-3.4c-0.2-0.3-0.4-0.5-0.6-0.8c-3.3,2.5-7.2,3.9-11.7,3.6c-9.4-0.6-17.3-5.8-25.3,1.7
						c-3.6,3.3-6.1,7.6-9.7,10.9c-3.4,3.1-7.1,5.3-8.8,9.9c-1.8,4.8-1.8,10.1-3.5,15c0,0.9,0,1.9,0.1,2.8c1.3-3.3,2.1-6.7,2.7-10.1
						C-233.1-129.3-232.3-133.1-229.4-136.3z"/>
				</g>
			</g>
			<g>
				<g>
					<path class="st2" d="M-207.8-165.3c1.7-0.6,3.5-1.2,5.3-1.9c2.3-0.9,4.6-2.1,6.4-3.6c-0.6-0.1-1.2-0.2-1.8-0.3
						c-2.3,1.6-5,2.8-7.7,3.7c-2.2,0.8-4.4,1.3-6.2,1.7c-2.1,0.5-4.3,0.6-6.3,0.4c-0.5,0.4-1,0.9-1.5,1.3
						C-215.8-163.4-211.5-164.1-207.8-165.3z"/>
				</g>
			</g>
			<g>
				<g>
					<path class="st2" d="M-176.1-77.4c0.3-0.5,0.5-0.9,0.8-1.4c2-8.9,5.2-17.1,9.1-24.9c0.2-1,0.4-2.1,0.5-3.2
						C-170.7-97.6-174.6-87.8-176.1-77.4z"/>
				</g>
			</g>
			<g>
				<g>
					<path class="st2" d="M-197.7-13.9c1.4-5.9,0.5-11.3-2.1-16.7c-2-4.1-5.1-10.8-9.8-12.6c0,0.1,0,0.3,0,0.4c0,0,0,1,0,1
						c5.5,2.7,9.6,11.8,11,16.8c2.3,7.9-2.4,13.8-1.6,21.4c0.4,3.5,2.3,6.3,4.2,9.1c0-0.6,0-1.2,0-1.8c-0.7-1-1.5-2-2-3.1
						C-200.8-5.5-198.9-8.8-197.7-13.9z"/>
				</g>
			</g>
			<g>
				<g>
					<path class="st2" d="M-200.2,29.4c1.8-7.2-1.2-13.7-4.2-20.1c-3.1-6.6-5.4-12.7-2.5-20c1.4-3.4,2.9-6.6,3.1-10.4
						c0.3-5.6-1.8-11-5.6-14.8c0,0.1,0,1.3,0,1.4c2.2,2.4,3.8,5.2,4.5,8.5c1.4,6-1.2,10.4-3,15.8c-1.8,5.3-1.2,10.3,0.9,15.5
						c1.3,3.4,3.1,6.7,4.5,10.1c2.7,6.6,2.7,12.1-0.2,18.7c-2.1,4.8-4.4,9.4-6.7,14.1c0,1,0,1.1,0,2.1c0.9-1.9,1.8-3.9,2.7-5.8
						C-204.5,39.6-201.6,34.7-200.2,29.4z"/>
				</g>
			</g>
			<g>
				<g>
					<path class="st2" d="M-209.5,91.9c0,0.7,0,0.7,0,1.4c6.2-7.5,10.6-16.4,13.2-25.8c0-0.8,0-1.6,0-2.4
						C-198.7,74.9-203.3,84.1-209.5,91.9z"/>
				</g>
			</g>
			<g>
				<g>
					<path class="st2" d="M-209.5,73.2c2.2-2.1,4-4.6,5.6-7.2c2.1-3.6,3.8-7.4,5.5-11.2c0.7-1.6,1.3-3.8,2.3-5.4c0-0.3,0-0.7,0-1
						c-3.6,8.1-7.2,17-13.3,23C-209.5,72.3-209.5,72.3-209.5,73.2z"/>
				</g>
			</g>
			<g>
				<g>
					<path class="st3" d="M-196.8,169.3c0,1.4,0,2.8,0,4.2c0.8-3.6,0.6-6.8,0-10.1c0,0.8,0,1.6,0,2.4
						C-196.7,166.9-196.7,168.1-196.8,169.3z"/>
				</g>
			</g>
			<g>
				<g>
					<path class="st3" d="M-210.1,195.3c-0.2,0.3,0,1.4,0.2,1c0.1-0.2,0.2-0.3,0.3-0.5c0-0.1,0-1.2,0-1.4
						C-209.7,194.7-209.9,195-210.1,195.3z"/>
				</g>
			</g>
			<g>
				<g>
					<path class="st2" d="M-201.4,105.2c-4.5,5.3-2.7,13-0.9,19c1.5,5.3,2.8,10.8,0.8,16.2c-0.9,2.4-2.7,4.5-3.8,6.8
						c-1.4,3.1-1.8,6.3-1.4,9.6c0.7,6.2,3.3,11.9,3.3,18.3c0,4-0.8,7.9-2.2,11.6c-1.2,1.1-2.4,2.2-3.7,3.1c-0.2,0.1-0.2,1,0.1,0.9
						c0.9-0.5,1.8-1,2.7-1.6c-0.9,1.9-1.9,3.7-3.1,5.5c0,0.2,0,1.2,0,1.4c1.7-2.4,3.2-5,4.3-7.8c4-3.4,6.8-8.3,8.2-13.5
						c0.1-0.4,0.2-0.7,0.3-1.1c0-1.4,0-2.8,0-4.2c-0.5,6.3-3.4,11.8-7.6,16.3c1.5-4.7,2-9.6,1.4-14.6c-0.9-7.9-5.3-15.4-1.5-23.4
						c2-4.1,4.6-7.2,5-11.9c0.3-4.2-1.1-8.4-2.3-12.4c-1.5-5-3.1-10.9,0-15.7c1.4-2.1,3.5-3.3,5.3-4.9c0-0.5,0-1,0-1.5
						C-198.1,102.6-200,103.6-201.4,105.2z"/>
				</g>
			</g>
			<g>
				<g>
					<path class="st2" d="M-199.1,117c-0.1,3.6,1.5,7.5,2.4,10.9c0-0.6,0-1.3,0-1.9c-1.2-4.2-2.1-8.6-0.5-12.7
						c0.1-0.4,0.3-0.8,0.6-1.2c0-0.4,0-0.7,0-1.1c-0.1,0.1-0.2,0.3-0.3,0.4C-198.1,113.3-199.1,114.8-199.1,117z"/>
				</g>
			</g>
			<g>
				<g>
					<path class="st2" d="M-196.8,145c-0.5,0.8-1.3,1.5-1.8,2.3c-3.2,5.6,1.1,11.8,1.7,17.4c0,0.3,0.1,0.7,0.1,1c0-0.8,0-1.6,0-2.4
						c-0.4-2.5-1.1-5-1.7-7.8c-1-4.4,0.3-6.6,1.8-8.8C-196.7,146.2-196.7,145.5-196.8,145C-196.7,144.9-196.8,145-196.8,145z"/>
				</g>
			</g>
		</g>
		<g>
			<g>
				<path class="st2" d="M-200.5-163.1c-14.6,0.3-27.1,24.1-27.5,43.4c-0.5,19.3,10.8,58.5,26.1,56.8c16.1-1.8,27.8-31.3,28.9-54.9
					C-171.8-141.4-183.5-163.4-200.5-163.1z"/>
			</g>
		</g>
		<g>
			<g>
				<path class="st3" d="M-200.2-159.1c-12.3,0.2-22.8,22.2-23.1,40c-0.4,17.8,9.1,53.9,22.1,52.3c13.5-1.6,23.3-28.8,24.3-50.5
					C-175.9-139.1-185.9-159.4-200.2-159.1z"/>
			</g>
		</g>
		<g>
			<g>
				<path class="st4" d="M-201.2-66.8c13.5-1.6,23.3-28.8,24.3-50.5c0.8-16.8-5-32.8-14.3-39c1,6.6,1.8,20.1-4.2,33.4
					c-7.4,16.2-22.2,21-26,22C-218-84-210.5-65.7-201.2-66.8z"/>
			</g>
		</g>
		<g class="st5">
			<g>
				<path class="st2" d="M-202.6,209.2L-202.6,209.2c-1.4,0-2.5-1.1-2.5-2.5V-41.3c0-1.3,1.1-2.5,2.5-2.5l0,0c1.4,0,2.5,1.1,2.5,2.5
					v248.1C-200,208.1-201.2,209.2-202.6,209.2z"/>
			</g>
		</g>
	</g>
	<g>
		<g>
			<g>
				<path class="st6" d="M-474.6,103.3c0,0-29.8-5.5-31.2,10.4c-1.4,16,0,21.5,6.9,25c6.9,3.5,31.5,5.2,38.4,3.1
					C-453.6,139.7-465.6,108.1-474.6,103.3z"/>
			</g>
		</g>
		<g>
			<g>
				<path class="st7" d="M-498.9,138.7c6.9,3.5,22,6.8,34.9,3.9c4.5-1,4.4-5.1,1-17.8c-4.8,0.5-16.9,0.9-27.4-1
					c-13.6-2.5-15.4-10.1-15.4-10.1C-507.2,129.6-505.8,135.2-498.9,138.7z"/>
			</g>
		</g>
		<g>
			<g>
				<path class="st8" d="M-473.1,108c0,0-20.3-2.6-21,4.3c-0.7,6.9,8.9,8.2,20,7.7c6.4-0.3,7.4-1.8,7.4-1.8L-473.1,108z"/>
			</g>
		</g>
		<g>
			<g>
				<path class="st6" d="M-228.7,103.3c0,0,29.8-5.5,31.2,10.4c1.4,16,0,21.5-6.9,25c-6.9,3.5-27,5.2-34,3.1
					C-245.3,139.7-237.7,108.1-228.7,103.3z"/>
			</g>
		</g>
		<g>
			<g>
				<path class="st7" d="M-204.5,138.7c-6.9,3.5-18.5,5.9-33,4.4c-4.6-0.5-4.4-8.4-1-21.1c3.8,2.4,11.3,3.1,23.6,1.4
					c18.3-2.5,17.3-9.7,17.3-9.7C-196.1,129.6-197.5,135.2-204.5,138.7z"/>
			</g>
		</g>
		<g>
			<g>
				<path class="st8" d="M-231.7,108.4c0,0,21.7-3.1,22.4,3.9c0.7,6.9-16.5,6.2-22.8,5.8c-3.7-0.3-4.5,0.1-4.5,0.1L-231.7,108.4z"/>
			</g>
		</g>
		<g>
			<g>
				<path class="st9" d="M-352,93L-475,87.9l-2.4,3.1c1.8,17.9,9,69,29.5,92.8c25.6,29.8,40.6,30.9,57.9,34c18,3.2,35.4,3.2,38,3.1
					c2.6,0,20,0.1,38-3.1c17.3-3.1,32.3-4.2,57.9-34c19.3-22.5,28.6-72.8,30.9-92.6l-1.3-3.5L-352,93z"/>
			</g>
		</g>
		<g>
			<g>
				<ellipse class="st10" cx="-351.3" cy="89.3" rx="126.2" ry="42.8"/>
			</g>
		</g>
		<g>
			<g>
				<path class="st10" d="M-351.3,46.5c69.7,0,126.2,19.2,126.2,42.8L-351.3,46.5z"/>
			</g>
		</g>
		<g>
			<g>
				<ellipse class="st11" cx="-351.3" cy="87.8" rx="116.7" ry="38.2"/>
			</g>
		</g>
		<g>
			<g>
				<path class="st6" d="M-334.1,85.8c-52.7,0-79.2,22.9-87.1,32.2c0.5,0.4,3,0.7,3.6,1.1c18.8,4.3,41.7,6.8,66.3,6.8
					c35.7,0,67.7-5.3,89.1-13.5C-274,100.2-296.1,85.8-334.1,85.8z"/>
			</g>
		</g>
		<g>
			<g>
				<g>
					<path class="st12" d="M-243.5,131.5c0.2,0,0.3,0,0.5,0c3.3-8.2,6.3-17.1,8.6-26c-18.9,15.6-64.1,26.6-116.8,26.6
						c-29.6,0-56.8-3.5-78.3-9.2c3.6,10.3,7.8,19.9,11.9,28.1c2.7,5.5,5.7,10.4,8.7,14.9c2.6-2.2,5.3-3.8,8.9-2.8
						c4.2,1.2,6.8,5.3,10.9,6.7c4.3,1.6,6.8-2.3,9.6-4.9c2.9-2.7,6.2-4.3,10-2.2c2.2,1.3,3.7,3.5,6,4.6c3.1,1.5,6.4,1.2,9.5-0.2
						c4.3-1.9,8.1-5,13-4.1c4.4,0.8,7.1,4.5,11.2,6c8.1,3.1,10.6-11.4,19.3-8.6c4.7,1.5,6.4,8.3,12,6.7c5-1.4,8.2-7.7,12.8-10.2
						c4.5-2.5,8.7-1.5,12.1,2.3c1.2,1.4,2.4,4.1,4.2,4.8c2.8,1.2,4.9-2,6.1-4c2.4-3.8,4.6-8.5,9.6-9.4c0.8-0.1,1.5-0.1,2.3-0.1
						c1.4-2.8,2.8-5.8,4.2-9C-250.6,138.6-249.4,131.5-243.5,131.5z M-392.3,159.1c-7.4,0-7.4-11.5,0-11.5
						C-384.9,147.6-384.9,159.1-392.3,159.1z M-357.7,160.4c-7.4,0-7.4-11.5,0-11.5C-350.2,148.8-350.2,160.4-357.7,160.4z
						 M-325.6,158.5c-7.4,0-7.4-11.5,0-11.5C-318.2,146.9-318.2,158.5-325.6,158.5z M-295.5,157.2c-7.4,0-7.4-11.5,0-11.5
						C-288,145.6-288,157.2-295.5,157.2z M-264.7,150.8c-7.4,0-7.4-11.5,0-11.5C-257.2,139.2-257.3,150.8-264.7,150.8z"/>
				</g>
			</g>
			<g>
				<g>
					<path class="st7" d="M-256.5,164.1c-2.4,3.8-4.6,9.3-9.3,10.7c-3.7,5-7.4,9.1-11.2,12.3c0.5,0.4,1.1,0.7,1.8,1
						c4.2,1.4,7.6-2.9,10.3-5.4c2.4-2.2,5.2-4.4,8.5-5.1c1.2-0.2,3,0,4.9,0.3c2.8-4.2,5.4-8.9,7.6-13.8
						C-248.5,161.9-252.9,158.5-256.5,164.1z"/>
				</g>
			</g>
			<g>
				<g>
					<path class="st7" d="M-431.4,181.9c5,0.4,7.7,6,12.9,6.6c3.1,0.4,6-0.4,8.6-2.1c1.6-1,3-2.5,5-2.9c4-0.8,6.9,2.7,9.8,4.8
						c2.2,1.6,4.6,2.5,7.4,2.2c0.6-0.1,1.2-0.2,1.7-0.4c-6.3-4.6-12.8-10.8-18.9-18.8c-1.5,1-2.7,2.6-4,3.6
						c-2.8,2.3-5.9,3.4-9.4,2.2c-3.8-1.2-6.8-4.2-10-6.4c-1.3-0.9-2.9-2-4.5-2.3c-3-0.5-4.5,1.8-6.7,3.3c-4.1,2.9-8.8,1.2-12.2-2
						c-1.7-1.6-5.5-6.8-9-7.5c3.5,8.1,7.8,15.5,12.9,21.5c1.6,1.8,3.1,3.6,4.6,5.2c0.9-0.4,1.8-0.9,2.7-1.6
						C-437.9,185.2-435.4,181.6-431.4,181.9z"/>
				</g>
			</g>
			<g>
				<g>
					<path class="st13" d="M-386.1,190.1c2.2-0.8,3.7-2.4,5.7-3.7c6.4-4.2,11.3,3.2,16.9,5.1c7.8,2.6,11.2-10.3,19.5-4.9
						c4.4,2.9,6.9,6.9,12.9,6.3c5.4-0.5,6.8-4.5,10.7-7.2c7.3-5,13.7,7.1,21.3,1.9c4.7-3.2,9-10.9,15.6-7.1c2.7,1.6,4.1,4.8,6.6,6.6
						c3.8-3.3,7.5-7.3,11.2-12.3c-0.6,0.2-1.3,0.3-2,0.3c-6.2,0.2-6.9-6.1-11.1-8.7c-5.4-3.3-11.3,5.4-15.3,7.9
						c-3.9,2.4-8.2,2.8-11.9-0.2c-3.3-2.7-5.4-7.3-9.8-3.4c-2.7,2.5-4.8,5.8-8.4,7.2c-4.3,1.6-8.1-0.9-11.6-3.3
						c-2.3-1.6-4.5-3.4-7.4-3.3c-2.4,0.1-4.6,1.5-6.7,2.6c-4.8,2.4-9.7,3.7-14.8,1.3c-4.6-2.2-7-8.2-12-3.5c-2.9,2.7-5.6,6.5-10,6.5
						c-3.7,0-6.8-2.7-9.6-4.8c-1.7-1.3-3.8-3.1-6.1-2.9c-0.9,0-1.8,0.4-2.5,0.9C-398.9,179.3-392.4,185.5-386.1,190.1z"/>
				</g>
			</g>
			<g>
				<g>
					<path class="st7" d="M-263,187.3c-2.8,2.3-5.9,5.6-9.7,6c-3.3,0.3-5.5-1.5-7.5-3.6c-6.5,4.9-13.3,7.8-20.8,10.2
						c-22.1,6.8-43.2,6.8-66.3,0c-4.6-1.3-9.7-3.7-15.1-7.2c0,0,0,0,0,0c-1.6,1.1-3.4,1.8-5.3,2c-4.8,0.5-7.7-2.2-11.2-5
						c-3.2-2.5-5.3-2.9-8.7-0.6c-1.8,1.3-3.5,2.4-5.7,2.9c-3.7,0.9-7.6,0.4-10.9-1.5c-2.4-1.4-4.3-4.3-7.2-4.6
						c-2.9-0.3-4.6,1.7-6.6,3.5c-1,0.8-1.9,1.6-2.9,2.3c21.4,22.3,35.2,23.5,50.9,26.3c18,3.2,35.4,3.2,38,3.1c2.6,0,20,0.1,38-3.1
						c17.3-3.1,32.3-4.2,57.9-34c0.2-0.3,0.4-0.5,0.6-0.8c-0.5,0-0.9,0.1-1.4,0.3C-259.2,184-261.1,185.7-263,187.3z"/>
				</g>
			</g>
			<g>
				<g>
					<path class="st13" d="M-301.4,193.5c-3.9,0.9-7.2-1.4-10.6-3.1c-2-1-4.3-2.2-6.5-1.1c-2,1-3.2,3.4-4.8,4.8
						c-3.1,2.6-7.4,3.7-11.4,2.9c-4.1-0.8-6.3-3.5-9.4-5.9c-5.8-4.5-8.5,1.6-13.1,4c-2.9,1.5-5.8,1-8.6-0.5
						c-3.3-1.8-6.6-5.6-10.6-5.4c-2.5,0.1-3.9,2.3-5.8,3.5c5.4,3.5,10.5,5.8,15.1,7.2c23.1,6.7,44.2,6.7,66.3,0
						c7.6-2.3,14.3-5.3,20.8-10.2c-0.6-0.6-1.1-1.2-1.7-1.9C-289.7,178.8-293.8,191.7-301.4,193.5z"/>
				</g>
			</g>
			<g>
				<g>
					<path class="st14" d="M-265.8,174.8c4.6-1.4,6.9-6.9,9.3-10.7c3.6-5.6,8-2.2,12.6,0c1.4-3,2.6-6.1,3.8-9.2
						c-2.7-0.9-6.2-2.6-6.6-2.8c-1.5-0.7-3.2-1.2-4.8-1.3c0,0.1-0.1,0.2-0.1,0.3C-256.5,160.8-261.2,168.5-265.8,174.8z"/>
				</g>
			</g>
			<g>
				<g>
					<path class="st15" d="M-451.9,169.8c3.4,3.3,8.1,4.9,12.2,2c2.2-1.5,3.8-3.8,6.7-3.3c1.6,0.3,3.2,1.4,4.5,2.3
						c3.2,2.2,6.2,5.2,10,6.4c3.6,1.1,6.7,0.1,9.4-2.2c1.3-1.1,2.5-2.7,4-3.6c-1.3-1.7-2.7-3.5-3.9-5.4c-0.3,0.3-0.6,0.5-0.9,0.8
						c-3.8,3.6-6.7,4.2-11.2,1.3c-3.5-2.2-6.7-5.6-10.8-6.5c-1.6-0.4-3.2-0.4-4.7,0.2c-2.5,0.9-3.9,3.6-6.3,4.4
						c-6.1,1.9-10-8.4-15.2-10.2c-2-0.7-3.8-0.6-5.4,0c0.8,2.2,1.7,4.4,2.6,6.5C-457.4,163-453.6,168.2-451.9,169.8z"/>
				</g>
			</g>
			<g>
				<g>
					<path class="st10" d="M-253.8,150.8c-5,0.8-7.2,5.5-9.6,9.4c-1.2,2-3.3,5.2-6.1,4c-1.8-0.8-2.9-3.5-4.2-4.8
						c-3.4-3.8-7.6-4.7-12.1-2.3c-4.5,2.5-7.8,8.8-12.8,10.2c-5.7,1.6-7.3-5.1-12-6.7c-8.7-2.8-11.2,11.7-19.3,8.6
						c-4-1.5-6.8-5.2-11.2-6c-5-0.9-8.8,2.1-13,4.1c-3.1,1.4-6.3,1.7-9.5,0.2c-2.3-1.1-3.8-3.4-6-4.6c-3.8-2.1-7-0.5-10,2.2
						c-2.8,2.6-5.3,6.4-9.6,4.9c-4-1.5-6.6-5.5-10.9-6.7c-3.6-1-6.3,0.6-8.9,2.8c1.3,1.9,2.6,3.7,3.9,5.4c0.7-0.5,1.6-0.9,2.5-0.9
						c2.3-0.1,4.4,1.6,6.1,2.9c2.8,2.1,5.9,4.8,9.6,4.8c4.4,0,7.1-3.8,10-6.5c5-4.7,7.4,1.3,12,3.5c5.1,2.4,10,1.2,14.8-1.3
						c2.1-1,4.3-2.5,6.7-2.6c2.9-0.1,5.1,1.7,7.4,3.3c3.4,2.4,7.2,4.9,11.6,3.3c3.6-1.3,5.7-4.7,8.4-7.2c4.3-3.9,6.5,0.6,9.8,3.4
						c3.7,3.1,8,2.7,11.9,0.2c4-2.5,9.9-11.2,15.3-7.9c4.3,2.6,4.9,8.9,11.1,8.7c0.7,0,1.4-0.2,2-0.3c4.6-6.2,9.2-14,14.1-23.8
						c0-0.1,0.1-0.2,0.1-0.3C-252.3,150.6-253,150.6-253.8,150.8z"/>
				</g>
			</g>
			<g>
				<g>
					<path class="st15" d="M-256.4,177.6c-3.3,0.6-6.1,2.9-8.5,5.1c-2.7,2.5-6.1,6.8-10.3,5.4c-0.7-0.2-1.2-0.6-1.8-1
						c-1,0.9-2.1,1.8-3.2,2.6c2,2.2,4.3,3.9,7.5,3.6c3.8-0.4,6.9-3.6,9.7-6c1.9-1.6,3.7-3.3,6.1-4c0.5-0.1,1-0.2,1.4-0.3
						c1.4-1.6,2.7-3.4,3.9-5.2C-253.4,177.6-255.2,177.4-256.4,177.6z"/>
				</g>
			</g>
			<g>
				<g>
					<path class="st15" d="M-431.4,185.8c2.9,0.3,4.8,3.2,7.2,4.6c3.3,2,7.2,2.5,10.9,1.5c2.2-0.6,3.9-1.7,5.7-2.9
						c3.3-2.3,5.5-1.9,8.7,0.6c3.5,2.8,6.4,5.5,11.2,5c1.9-0.2,3.7-0.9,5.3-2c0,0,0,0,0,0c-1.2-0.8-2.5-1.6-3.7-2.6
						c-0.5,0.2-1.1,0.3-1.7,0.4c-2.8,0.3-5.2-0.6-7.4-2.2c-2.9-2.1-5.8-5.6-9.8-4.8c-1.9,0.4-3.4,1.9-5,2.9
						c-2.6,1.7-5.5,2.5-8.6,2.1c-5.2-0.6-7.9-6.2-12.9-6.6c-4-0.3-6.5,3.3-9.3,5.5c-0.9,0.7-1.8,1.2-2.7,1.6
						c0.8,0.9,1.6,1.7,2.4,2.6c1-0.7,1.9-1.4,2.9-2.3C-436,187.6-434.2,185.5-431.4,185.8z"/>
				</g>
			</g>
			<g>
				<g>
					<path class="st10" d="M-283.5,180.5c-6.6-3.9-10.9,3.8-15.6,7.1c-7.5,5.2-14-6.9-21.3-1.9c-3.9,2.7-5.3,6.6-10.7,7.2
						c-6,0.6-8.4-3.4-12.9-6.3c-8.2-5.4-11.7,7.5-19.5,4.9c-5.7-1.9-10.5-9.3-16.9-5.1c-2,1.3-3.5,2.9-5.7,3.7
						c1.2,0.9,2.5,1.8,3.7,2.6c1.9-1.3,3.3-3.4,5.8-3.5c4-0.2,7.3,3.7,10.6,5.4c2.8,1.5,5.7,2,8.6,0.5c4.6-2.4,7.4-8.5,13.1-4
						c3.1,2.4,5.3,5.1,9.4,5.9c4,0.8,8.3-0.2,11.4-2.9c1.7-1.4,2.8-3.8,4.8-4.8c2.2-1.1,4.5,0.1,6.5,1.1c3.3,1.7,6.6,4,10.6,3.1
						c7.7-1.7,11.8-14.7,19.6-5.7c0.5,0.6,1.1,1.3,1.7,1.9c1.1-0.8,2.1-1.6,3.2-2.6C-279.4,185.3-280.9,182-283.5,180.5z"/>
				</g>
			</g>
			<g>
				<g>
					<path class="st14" d="M-454.5,148.8c7.4,0,7.4-11.5,0-11.5C-461.9,137.3-461.9,148.8-454.5,148.8z"/>
				</g>
			</g>
			<g>
				<g>
					<path class="st14" d="M-426.3,156.5c7.4,0,7.4-11.5,0-11.5C-433.7,145-433.7,156.5-426.3,156.5z"/>
				</g>
			</g>
			<g>
				<g>
					<path class="st14" d="M-392.3,147.6c-7.4,0-7.4,11.5,0,11.5C-384.9,159.1-384.9,147.6-392.3,147.6z"/>
				</g>
			</g>
			<g>
				<g>
					<path class="st14" d="M-357.7,148.8c-7.4,0-7.4,11.5,0,11.5C-350.2,160.4-350.2,148.8-357.7,148.8z"/>
				</g>
			</g>
			<g>
				<g>
					<path class="st14" d="M-325.6,146.9c-7.4,0-7.4,11.5,0,11.5C-318.2,158.5-318.2,146.9-325.6,146.9z"/>
				</g>
			</g>
			<g>
				<g>
					<path class="st14" d="M-295.5,145.6c-7.4,0-7.4,11.5,0,11.5C-288,157.2-288,145.6-295.5,145.6z"/>
				</g>
			</g>
			<g>
				<g>
					<path class="st14" d="M-264.7,139.2c-7.4,0-7.4,11.5,0,11.5C-257.3,150.8-257.2,139.2-264.7,139.2z"/>
				</g>
			</g>
			<g>
				<g>
					<path class="st14" d="M-243,131.6c-1.4,3.5-2.8,6.9-4.3,10.1c0.9,0.8,2.2,1.4,3.8,1.4C-236.3,143.1-236.1,132.1-243,131.6z"/>
				</g>
			</g>
			<g>
				<g>
					<path class="st14" d="M-243.5,131.5c-5.8,0-7.1,7.1-3.8,10.2c1.5-3.2,2.9-6.6,4.3-10.1C-243.2,131.5-243.3,131.5-243.5,131.5z"
						/>
				</g>
			</g>
		</g>
		<g>
			<g>
				<path class="st6" d="M-410.9,54.4c-14.6,0.8-34.2,8.6-45,16.5c-32,23.4,4.5,38.4,23.9,44.4c-2.4-0.8-1.7-17.9-1.5-20.4
					c0.5-5.9,1.9-11.6,4.5-16.9c5.1-10.4,13.9-17.2,23.2-23.5C-407.3,54.4-409.1,54.3-410.9,54.4z"/>
			</g>
		</g>
		<g class="st16">
			<g>
				<path class="st17" d="M-410.2,157.9c-20.4,4.3-52.6-19.6-30-23C-417.6,131.5-385.3,152.7-410.2,157.9z"/>
			</g>
		</g>
		<g class="st16">
			<g>
				<path class="st17" d="M-254.7,145.2c-8.9,27.1-48.7,52.8-37.8,23.5C-281.4,139.5-243.8,112.3-254.7,145.2z"/>
			</g>
		</g>
	</g>
	<g>
		<g>
			<g>
				<path class="st9" d="M-470.5,20.8c1,25.3,28.2,81.4,65.9,89.2c37.7,7.9,101,2,128.9-14.1c27.9-16.1,50.3-69.2,43.7-103.7
					C-239.4-46.4-471.9-13.9-470.5,20.8z"/>
			</g>
		</g>
		<g>
			<g>
				<path class="st18" d="M-254.8,75.8c-10.1,6.8-36.2,20.5-86.3,25.3c-44.1,4.2-74.2,0-86.9-2.5c7.1,5.6,15,9.7,23.3,11.5
					c37.7,7.9,101,2,128.9-14.1C-268.3,91.6-261.1,84.5-254.8,75.8z"/>
			</g>
		</g>
		<g>
			<g>
				<path class="st11" d="M-470.5,20.8c0.1,2.4,0.4,5.1,1,8c10.1,5,39.8,12.7,120.9,1.2c86.6-12.2,110.9-25.5,117.5-30.8
					c-0.2-2.4-0.5-4.7-0.9-7C-239.4-46.4-471.9-13.9-470.5,20.8z"/>
			</g>
		</g>
		<g>
			<g>
				<path class="st19" d="M-349.5,24c-17,2.4-118.6,9.6-117.1-2.7c1.5-12.4,69.7-29.1,111.2-35c28.9-4.1,115.4-5.1,116.9,5.8
					C-237,3.1-323.7,20.4-349.5,24z"/>
			</g>
		</g>
		<g class="st20">
			<g>
				<path class="st21" d="M-393,27.4c19.7-1,37.3-2.5,43.5-3.4c17.6-2.5,63.7-11.4,90.6-20.2C-266.6-8.2-280-18-303.2-16
					C-353.5-11.7-387.5,21.7-393,27.4z"/>
			</g>
		</g>
		<g>
			<g>
				<g>
					<path class="st7" d="M-325,59.2c-9.8,5.8-21,10.9-33.6,14.4c1.9-0.4,3.9,0,5.8,1.6c2.2,1.9,3.1,6,6.3,6.7
						c1.9,0.4,3.7-0.7,5.2-1.8c3.1-2.1,5.6-5,8.6-7.3c2.3-1.8,5.2-3.5,8.2-3c4.5,0.7,7.1,8.8,11.8,7.5c3.5-1,5.2-6.2,7.3-8.7
						c1.2-1.4,2.7-2.7,4.4-3.4c2.6-1.2,5.9-1.1,7.5,1.6c1.2,2-0.6,3.7,3.2,4c2.7,0.2,4.2-1.8,5.6-3.6c1.5-2,2.6-4.4,4.4-6.2
						c2.2-2.2,5.9-4,9-2.7c2.4,1,2.2,3,3.7,4.6c5.2,5.3,7.6-1,9.3-4.6c1.7-3.7,3.6-6.8,7.8-7.5c1-0.2,1.6,0.8,1.6,1.7
						c-0.1,3.5,2.2,5.4,4.6,5.5c3.5-7.1,6.4-14.7,8.6-22.4c-11.5,5.2-23.5,9.1-35.8,12.3C-289,52.3-306.9,56.2-325,59.2z"/>
				</g>
			</g>
			<g>
				<g>
					<path class="st7" d="M-380.8,77.8c1.6,2.3,2.5,5.8,5.9,5.9c1.9,0,3.8-1.5,5.2-2.7c2.8-2.2,6.3-5.9,10-7.1
						C-366.3,75.7-373.4,77-380.8,77.8z"/>
				</g>
			</g>
			<g>
				<g>
					<path class="st7" d="M-432.7,83c1.8,1.6,3.7,3.5,6.4,2c1.3-0.7,1.9-2.6,2.6-3.8c0.9-1.5,1.8-3.1,3.4-4c3.8-2.1,6.9,0.7,9.5,3.2
						c2.2,2.2,4.4,4.7,7.8,3.8c2-0.5,3.8-2.2,5.3-3.5c0.8-0.7,1.6-1.5,2.4-2.3c-23-0.3-39.1-6.8-50.2-15.1
						c-3.9-0.4-7.9-0.9-11.8-1.5c2.9,5.5,6.2,10.9,9.9,16c0.9-0.4,1.9-0.7,3-0.8C-439.2,76.5-436.2,79.9-432.7,83z"/>
				</g>
			</g>
			<g>
				<g>
					<path class="st7" d="M-251.4,53.8c-4.8,2.3-5.2,11-10.4,13.5c-1.4,0.7-2.9,1.1-4.4,0.7c-2.4-0.7-2.5-2.6-3.9-4.3
						c-6.7-8.7-10.4,4.6-15,8.2c-3,2.3-7.9,2.4-10.3-0.9c-1.4-2-0.5-4.7-4.3-3.2c-3.1,1.3-4.4,4.4-6.2,6.9c-2,2.8-4.9,6.1-8.7,5.8
						c-5.2-0.5-6.1-8.1-11.2-7.8c-3.6,0.2-6.9,4-9.3,6.2c-4.2,3.8-10.1,8.8-15.4,3.8c-2.2-2.1-3.2-6.3-6.8-6.4
						c-1.9,0-3.8,1.5-5.2,2.6c-2.7,2.1-5.1,4.7-8.2,6.4c-2.5,1.3-5.2,1.7-7.7,0.2c-2.5-1.5-3.8-5.4-5.9-7.4
						c-1.4,0.1-2.7,0.2-4.1,0.2c-0.7,0-1.4,0-2.1,0.1c-5.1,3.5-9.5,11.3-16.6,8.3c-3.9-1.6-8.4-10.4-12.7-5.9
						c-2.5,2.6-2.7,6.5-6.7,7.5c-3.9,1-6.9-2.3-9.5-4.7c-2.3-2.1-4.5-4-7.8-3.6c-0.5,0.1-1.1,0.2-1.5,0.3c11,14.5,25,26.4,40.9,29.7
						c37.7,7.9,101,2,128.9-14.1c11.7-6.8,22.4-20,30.4-35.6C-248.2,59.6-250.8,57.4-251.4,53.8z"/>
				</g>
			</g>
			<g>
				<g>
					<path class="st19" d="M-459,50c-1.4-0.2-2.8-0.4-4.2-0.7c1.7,4.1,3.7,8.4,5.9,12.6c3.9,0.6,7.9,1,11.8,1.5
						C-451.1,59.1-455.6,54.5-459,50z"/>
				</g>
			</g>
			<g>
				<g>
					<path class="st19" d="M-269.7,35.3c-10.9,3.1-21.9,5.7-33,8c-6.3,5.3-13.8,10.8-22.4,15.9c18.1-3,36.1-6.9,53.8-11.5
						c12.3-3.2,24.3-7.1,35.8-12.3c1.4-4.8,2.5-9.6,3.2-14.4C-244,27.3-256.8,31.7-269.7,35.3z"/>
				</g>
			</g>
			<g>
				<g>
					<path class="st19" d="M-436.2,83.6c2.6,2.4,5.6,5.7,9.5,4.7c4-1,4.2-5,6.7-7.5c4.3-4.5,8.8,4.3,12.7,5.9
						c7,2.9,11.5-4.8,16.6-8.3c-1.5,0-3,0.1-4.4,0c-0.8,0.8-1.6,1.6-2.4,2.3c-1.5,1.3-3.3,3-5.3,3.5c-3.4,0.9-5.6-1.7-7.8-3.8
						c-2.6-2.6-5.8-5.4-9.5-3.2c-1.6,0.9-2.5,2.5-3.4,4c-0.7,1.2-1.3,3.1-2.6,3.8c-2.7,1.5-4.6-0.4-6.4-2c-3.5-3.1-6.5-6.5-11.7-5.9
						c-1,0.1-2.1,0.4-3,0.8c0.6,0.8,1.2,1.6,1.8,2.4c0.5-0.2,1-0.3,1.5-0.3C-440.7,79.6-438.5,81.5-436.2,83.6z"/>
				</g>
			</g>
			<g>
				<g>
					<path class="st19" d="M-248.7,52.1c0-0.9-0.6-1.8-1.6-1.7c-4.2,0.7-6.1,3.9-7.8,7.5c-1.7,3.6-4.1,9.9-9.3,4.6
						c-1.5-1.6-1.3-3.6-3.7-4.6c-3.1-1.3-6.8,0.5-9,2.7c-1.8,1.8-2.9,4.2-4.4,6.2c-1.4,1.8-2.9,3.9-5.6,3.6c-3.8-0.3-1.9-2-3.2-4
						c-1.6-2.7-4.9-2.7-7.5-1.6c-1.7,0.8-3.2,2-4.4,3.4c-2.2,2.5-3.8,7.7-7.3,8.7c-4.7,1.4-7.3-6.7-11.8-7.5c-3.1-0.5-5.9,1.2-8.2,3
						c-3,2.3-5.5,5.2-8.6,7.3c-1.5,1-3.3,2.2-5.2,1.8c-3.1-0.6-4.1-4.8-6.3-6.7c-1.9-1.7-3.9-2-5.8-1.6c-0.3,0.1-0.7,0.2-1,0.3
						c-3.7,1.3-7.2,5-10,7.1c-1.4,1.1-3.3,2.7-5.2,2.7c-3.4-0.1-4.3-3.6-5.9-5.9c-1.2,0.1-2.5,0.2-3.7,0.3c2.1,2,3.4,5.9,5.9,7.4
						c2.5,1.5,5.2,1.1,7.7-0.2c3.1-1.6,5.4-4.3,8.2-6.4c1.4-1.1,3.3-2.7,5.2-2.6c3.6,0.1,4.6,4.3,6.8,6.4c5.3,5,11.2-0.1,15.4-3.8
						c2.5-2.2,5.8-6,9.3-6.2c5.1-0.3,6,7.4,11.2,7.8c3.8,0.4,6.7-3,8.7-5.8c1.8-2.5,3.1-5.7,6.2-6.9c3.8-1.6,2.9,1.1,4.3,3.2
						c2.4,3.3,7.4,3.2,10.3,0.9c4.6-3.5,8.3-16.9,15-8.2c1.3,1.7,1.4,3.6,3.9,4.3c1.5,0.4,3.1,0,4.4-0.7c5.2-2.6,5.6-11.3,10.4-13.5
						c0.6,3.6,3.1,5.8,6,6.5c0.5-0.9,0.9-1.8,1.3-2.7C-246.5,57.5-248.8,55.7-248.7,52.1z"/>
				</g>
			</g>
			<g>
				<g>
					<path class="st22" d="M-319.3,46.5c5.6-1,11.1-2.1,16.7-3.2c15.8-13.3,24.2-25.2,24.2-25.2l-90.8,15.9l-73.7,0.3l-26.6-5.4
						c0,0,2.2,10.1,10.6,21.2c12.9,2,25.9,3.2,39,3.9C-386.3,55.4-352.5,52.4-319.3,46.5z"/>
				</g>
			</g>
			<g>
				<g>
					<path class="st7" d="M-445.4,63.4c11.2,8.3,27.2,14.8,50.2,15.1c1.9-1.8,3.8-3.5,6.3-4.2c3.4-1,6.2,0.8,8.1,3.5c0,0,0,0,0,0.1
						c7.4-0.7,14.5-2.1,21.2-3.9c0.3-0.1,0.7-0.2,1-0.3c12.6-3.5,23.8-8.7,33.6-14.4C-364.8,65.7-405.4,67.7-445.4,63.4z"/>
				</g>
			</g>
			<g class="st20">
				<g>
					<path class="st23" d="M-445.4,63.4c11.2,8.3,27.2,14.8,50.2,15.1c1.9-1.8,3.8-3.5,6.3-4.2c3.4-1,6.2,0.8,8.1,3.5c0,0,0,0,0,0.1
						c7.4-0.7,14.5-2.1,21.2-3.9c0.3-0.1,0.7-0.2,1-0.3c12.6-3.5,23.8-8.7,33.6-14.4C-364.8,65.7-405.4,67.7-445.4,63.4z"/>
				</g>
			</g>
			<g>
				<g>
					<path class="st7" d="M-389.8,77.8c-0.3,0.2-0.6,0.4-0.9,0.6c0.7,0,1.4,0,2.1-0.1c1.4-0.1,2.8-0.1,4.1-0.2
						C-385.8,76.9-387.4,76.4-389.8,77.8z"/>
				</g>
			</g>
			<g class="st20">
				<g>
					<path class="st23" d="M-389.8,77.8c-0.3,0.2-0.6,0.4-0.9,0.6c0.7,0,1.4,0,2.1-0.1c1.4-0.1,2.8-0.1,4.1-0.2
						C-385.8,76.9-387.4,76.4-389.8,77.8z"/>
				</g>
			</g>
			<g>
				<g>
					<path class="st19" d="M-445.4,63.4c40,4.4,80.6,2.3,120.4-4.2c8.6-5,16.1-10.6,22.4-15.9c-5.5,1.1-11.1,2.2-16.7,3.2
						c-33.1,5.9-67,8.9-100.6,7.3c-13.1-0.6-26.1-1.9-39-3.9C-455.6,54.5-451.1,59.1-445.4,63.4z"/>
				</g>
			</g>
			<g class="st20">
				<g>
					<path class="st21" d="M-445.4,63.4c40,4.4,80.6,2.3,120.4-4.2c8.6-5,16.1-10.6,22.4-15.9c-5.5,1.1-11.1,2.2-16.7,3.2
						c-33.1,5.9-67,8.9-100.6,7.3c-13.1-0.6-26.1-1.9-39-3.9C-455.6,54.5-451.1,59.1-445.4,63.4z"/>
				</g>
			</g>
			<g>
				<g>
					<path class="st19" d="M-388.9,74.2c-2.4,0.7-4.4,2.4-6.3,4.2c1.5,0,2.9,0,4.4,0c0.3-0.2,0.6-0.4,0.9-0.6c2.4-1.4,4-0.9,5.3,0.3
						c1.2-0.1,2.5-0.2,3.7-0.3c0,0,0-0.1,0-0.1C-382.8,75-385.5,73.2-388.9,74.2z"/>
				</g>
			</g>
			<g>
				<g>
					<path class="st19" d="M-388.9,74.2c-2.4,0.7-4.4,2.4-6.3,4.2c1.5,0,2.9,0,4.4,0c0.3-0.2,0.6-0.4,0.9-0.6c2.4-1.4,4-0.9,5.3,0.3
						c1.2-0.1,2.5-0.2,3.7-0.3c0,0,0-0.1,0-0.1C-382.8,75-385.5,73.2-388.9,74.2z"/>
				</g>
			</g>
			<g>
				<g>
					<path class="st19" d="M-358.6,73.6c-0.3,0.1-0.7,0.2-1,0.3C-359.3,73.8-358.9,73.7-358.6,73.6z"/>
				</g>
			</g>
			<g class="st20">
				<g>
					<path class="st23" d="M-358.6,73.6c-0.3,0.1-0.7,0.2-1,0.3C-359.3,73.8-358.9,73.7-358.6,73.6z"/>
				</g>
			</g>
		</g>
	</g>
</g>
<g>
	<path class="st24" d="M-238.9,746.6c-18.2-66.5-50.7-88.3-50.7-88.3l-41.3-33.8c-0.1,0-50.6-5.7-50.6-5.7s-51.7,73.9-58.3,127.8
		H-238.9z"/>
	<polygon class="st24" points="-381.5,618.8 -298.6,650.9 -273.6,589.4 -340.6,542.5 -365.6,590.5 	"/>
	<path class="st24" d="M-365.9,430.6c28.3-63.1,67.6-69.7,121.1-62.1c60.5,8.6,80.6,38.7,84,71.8c1.4,13-5.2,35.5-9.8,48.7
		c-4.3,12.2-7.9,17.9-8.7,22.2c-2.3,11.2,2.6,31.7,9.8,36c2.3,1.4,2.4,7.7,1.5,8.7c-2.4,2.7-7.8,2.8-12.3,7c-7.8,7.2-7.9,15-13,18.1
		c-4.6,2.8-20.5-3.7-26.2,3.8c-7.5,9.8,17.6,11.9,20.1,13.6c5.1,3.5-9.2,18.8-15.9,28.1c-6.3,8.6-36.3,9.7-53.2-0.5
		c-36.8-22.3-98.1-51.6-103.5-89.9C-377.5,497.6-373.1,444.9-365.9,430.6z"/>
	
		<linearGradient id="SVGID_1_" gradientUnits="userSpaceOnUse" x1="252.669" y1="95.9341" x2="221.9561" y2="-14.1431" gradientTransform="matrix(0.9879 0.1552 -0.1552 0.9879 -496.0073 389.0562)">
		<stop  offset="0.2032" style="stop-color:#E7B18B"/>
		<stop  offset="0.3467" style="stop-color:#E4A584"/>
		<stop  offset="0.6039" style="stop-color:#DD8673"/>
		<stop  offset="0.6898" style="stop-color:#DA7A6C"/>
	</linearGradient>
	<path class="st25" d="M-174.3,498.5c1.1-2.7,2.4-5.8,3.7-9.6c4.6-13.1,11.2-35.7,9.8-48.7c-3.5-33-23.6-63.2-84-71.8
		c-53.5-7.6-92.8-1-121.1,62.1c-3.2,6.3-6.3,57.7-7.8,74.4L-174.3,498.5z"/>
	<path class="st26" d="M-400.6,458.8c10.1-55.9,45.4-106.3,90.8-116.8c87.3-20.1,143,55,162.9,77.2c13.7,15.2,8.7,41.9-15,28.5
		c-82.1-46.7-114.4-7.6-114.4-7.6s-11.1,32.1-13,47.8c-1.9,15.7-12.1,32.2-15.3,28.8c-1.3-38.1-13.5-35.5-10-48.7
		c0.7-2.6-2.3,23.2-10.3,58.8c-2.7,16.9-32.7,59.3-40.7,63.9C-373.9,567.4-407,494.1-400.6,458.8z"/>
	<path class="st27" d="M-189.5,556.4c0,0,3.5,4,10.7,5.2c2.4-2.5,13.9-5.5,9.4-6.9C-171.4,554.1-189.5,556.4-189.5,556.4z"/>
	<g>
		<path class="st26" d="M-180.8,479.6c-1.2-3.4-28-6.3-32.4-6.2c-9,0.3-21.3,11-20.1,13.1c1.2,2.1,13.6-4.8,23.2-2.5
			c3.7,0.9,22.1,6.9,24.7,6.2C-182.8,489.6-179.6,483-180.8,479.6z"/>
		<path class="st28" d="M-203.9,501.3c-8.2-7.7-25.5-2.4-25.5-2.4s16.1,0,24.6,8.6"/>
	</g>
	<path class="st29" d="M-287.1,615.2c0,0-22.2-15.2-27.7-22.6c-5.4-7.4-5.7-38.5-5.7-38.5l11.2,33.5L-287.1,615.2z"/>
	<path class="st24" d="M-306,500.8c-3.1,17-4.2,29.9-16.6,26.1c-12.4-3.8-24.4-18.4-22.1-35.5c2.5-18.9,14.4-25.2,25-24.7
		C-311.2,467.1-302.5,481.9-306,500.8z"/>
	<g>
		<path class="st30" d="M-250.5,482.9c-0.7,4.6-4.1,7.8-7.6,7.3c-3.5-0.6-5.8-4.7-5-9.3c0.7-4.6,10.2-23.8,10.2-23.8
			S-249.8,478.3-250.5,482.9z"/>
		<g>
			<g>
				<path class="st21" d="M-252.9,457.1c0,0-1.7,3.4-4,8.6c-1.1,2.6-2.4,5.6-3.4,8.9c-1,3.3-1.8,7-1.2,10.2c0.1,0.4,0.2,0.8,0.4,1.1
					l0.1,0.3c0,0,0.1,0.2,0,0.1l0.1,0.2l0.3,0.6c0.4,0.6,0.8,1.1,1.4,1.5c1.2,0.7,2.8,0.6,4.2,0c0.7-0.3,1.4-0.7,1.9-1.2
					c0.2-0.1,0.5-0.6,0.8-0.9l0.5-0.9c0.6-1.4,0.9-2.8,1-4.2c0.3-2.8,0.1-5.2,0-6.8c-0.1-1.7-0.3-2.6-0.3-2.6s0.3,0.9,0.7,2.5
					c0.3,1.6,0.8,4,0.8,6.9c0,1.5-0.1,3.1-0.7,4.8c-0.7,1.9-2,3.3-3.8,4.2c-1.7,0.9-4.2,1.4-6.3,0.2c-1-0.5-1.9-1.4-2.5-2.4
					l-0.4-0.6l-0.1-0.2l-0.1-0.3l-0.2-0.4c-0.2-0.5-0.4-1-0.5-1.6c-0.9-4.3,0.3-8.2,1.4-11.7c1.3-3.4,2.8-6.4,4.3-8.9
					C-255.5,459.9-252.9,457.1-252.9,457.1z"/>
			</g>
		</g>
	</g>
	<line class="st31" x1="-189.5" y1="584.6" x2="-172.1" y2="586.9"/>
	<line class="st31" x1="-189.5" y1="590.5" x2="-175.2" y2="598.9"/>
	<line class="st31" x1="-191.5" y1="596.7" x2="-183.3" y2="610.4"/>
	<g>
		<path class="st32" d="M-171.5,651c3.7-2.3,11.4-17.6,13.5-26.1c2.1-8.5-2.1-21.2-0.8-28.3c1.3-7.1,9.6-9.3,10.8-1.5
			c2.2,14.4,5.9,30,4.2,37.9c-0.9,4.2-8,18.1-15,31C-166,677.4-175.2,653.3-171.5,651z"/>
		<path class="st32" d="M-174.6,649.2c3-2.3,8.7-16.3,9.8-23.9c1.2-7.6-3.4-18.4-2.8-24.7c0.6-6.3,7.7-8.9,9.3-2.1
			c3,12.5,7.4,25.8,6.5,32.9c-0.5,3.8-5.7,16.4-10.8,28.3C-167.7,671.9-177.6,651.5-174.6,649.2z"/>
		<path class="st32" d="M-182.3,658.8c2.8-2,8.1-14.3,9.3-21c1.2-6.7-2.7-16.4-1.9-22c0.7-5.6,7.1-7.7,8.4-1.7
			c2.4,11.2,6.1,23.1,5.1,29.4c-0.5,3.3-5.4,14.5-10.2,24.9C-176.7,679.2-185,660.8-182.3,658.8z"/>
		<path class="st24" d="M-206.5,745.8l10.2-56.3c0,0-8.7-21.1-6.1-30c2.6-8.9,3.8-20.4,6.1-24.1c2.2-3.7,11.6-14.9,12.9-17.8
			c3-7,11.2,3.2,7.4,11.3c-3.7,8.2-8.7,15.6-7.9,19.4c0.7,3.7,12.4,8.2,16.1,6c3.7-2.2,11.8-17.4,14-25.8c2.2-8.4-2.6-21.6-1.1-28.7
			c1.5-7.1,10.1-16.3,11.6-1.7c1.5,14.5,5.4,31,3.6,38.9c-2,8.5-30.3,56.1-30.3,56.1l2.4,52.9H-206.5z"/>
	</g>
	<line class="st31" x1="-162.6" y1="549.9" x2="-145.2" y2="552.2"/>
	<line class="st31" x1="-162.6" y1="555.8" x2="-148.2" y2="564.2"/>
	<line class="st31" x1="-164.6" y1="562" x2="-156.4" y2="575.7"/>
</g>
<g>
	<g>
		<path class="st33" d="M944.3-6.3c0,0-75.6,96.6-75.7,168.2c0,46.4,33.9,75.7,75.7,75.7s75.7-29.3,75.7-75.7
			C1020,90.3,944.3-6.3,944.3-6.3z"/>
		<g>
			<path class="st34" d="M950.1,1.4c20.3,39,42.4,91.5,42.4,135.8c0,53-33.9,86.4-75.7,86.4c-7.9,0-15.5-1.2-22.7-3.5
				c13.4,11.2,30.9,17.5,50.2,17.5c41.8,0,75.7-29.3,75.7-75.7C1020,102.4,967.7,25.7,950.1,1.4z"/>
		</g>
		<ellipse class="st21" cx="894.2" cy="164" rx="14.8" ry="26.3"/>
	</g>
	<g>
		<rect x="685.8" y="324.4" class="st35" width="517" height="182.3"/>
		<g>
			<path class="st21" d="M1202.8,346c-24.1,0-36.7-6.3-47.9-11.9c-10.3-5.2-19.3-9.6-38.2-9.6s-27.9,4.5-38.2,9.6
				c-11.2,5.6-23.8,11.9-47.9,11.9c-24.1,0-36.7-6.3-47.9-11.9c-10.3-5.2-19.3-9.6-38.3-9.6c-19,0-27.9,4.5-38.2,9.6
				c-11.2,5.6-23.8,11.9-47.9,11.9c-24.1,0-36.7-6.3-47.9-11.9c-10.3-5.2-19.3-9.6-38.3-9.6c-19,0-27.9,4.5-38.3,9.6
				c-11.2,5.6-23.8,11.9-47.9,11.9v-21.5c19,0,27.9-4.5,38.3-9.6c11.2-5.6,23.8-11.9,47.9-11.9c24.1,0,36.7,6.3,47.9,11.9
				c10.3,5.2,19.3,9.6,38.3,9.6c19,0,27.9-4.5,38.3-9.6c11.2-5.6,23.8-11.9,47.9-11.9c24.1,0,36.7,6.3,47.9,11.9
				c10.3,5.2,19.3,9.6,38.3,9.6c19,0,27.9-4.5,38.2-9.6c11.2-5.6,23.8-11.9,47.9-11.9c24.1,0,36.7,6.3,47.9,11.9
				c10.3,5.2,19.3,9.6,38.2,9.6V346z"/>
			<path class="st21" d="M1202.8,394.4c-24.1,0-36.7-6.3-47.9-11.9c-10.3-5.2-19.3-9.6-38.2-9.6s-27.9,4.5-38.2,9.6
				c-11.2,5.6-23.8,11.9-47.9,11.9c-24.1,0-36.7-6.3-47.9-11.9c-10.3-5.2-19.3-9.6-38.3-9.6c-19,0-27.9,4.5-38.2,9.6
				c-11.2,5.6-23.8,11.9-47.9,11.9c-24.1,0-36.7-6.3-47.9-11.9c-10.3-5.2-19.3-9.6-38.3-9.6c-19,0-27.9,4.5-38.3,9.6
				c-11.2,5.6-23.8,11.9-47.9,11.9v-21.5c19,0,27.9-4.5,38.3-9.6c11.2-5.6,23.8-11.9,47.9-11.9c24.1,0,36.7,6.3,47.9,11.9
				c10.3,5.2,19.3,9.6,38.3,9.6c19,0,27.9-4.5,38.3-9.6c11.2-5.6,23.8-11.9,47.9-11.9c24.1,0,36.7,6.3,47.9,11.9
				c10.3,5.2,19.3,9.6,38.3,9.6c19,0,27.9-4.5,38.2-9.6c11.2-5.6,23.8-11.9,47.9-11.9c24.1,0,36.7,6.3,47.9,11.9
				c10.3,5.2,19.3,9.6,38.2,9.6V394.4z"/>
			<path class="st21" d="M1202.8,442.9c-24.1,0-36.7-6.3-47.9-11.9c-10.3-5.2-19.3-9.6-38.2-9.6s-27.9,4.5-38.2,9.6
				c-11.2,5.6-23.8,11.9-47.9,11.9c-24.1,0-36.7-6.3-47.9-11.9c-10.3-5.2-19.3-9.6-38.3-9.6c-19,0-27.9,4.5-38.2,9.6
				c-11.2,5.6-23.8,11.9-47.9,11.9c-24.1,0-36.7-6.3-47.9-11.9c-10.3-5.2-19.3-9.6-38.3-9.6c-19,0-27.9,4.5-38.3,9.6
				c-11.2,5.6-23.8,11.9-47.9,11.9v-21.5c19,0,27.9-4.5,38.3-9.6c11.2-5.6,23.8-11.9,47.9-11.9c24.1,0,36.7,6.3,47.9,11.9
				c10.3,5.2,19.3,9.6,38.3,9.6c19,0,27.9-4.5,38.3-9.6c11.2-5.6,23.8-11.9,47.9-11.9c24.1,0,36.7,6.3,47.9,11.9
				c10.3,5.2,19.3,9.6,38.3,9.6c19,0,27.9-4.5,38.2-9.6c11.2-5.6,23.8-11.9,47.9-11.9c24.1,0,36.7,6.3,47.9,11.9
				c10.3,5.2,19.3,9.6,38.2,9.6V442.9z"/>
			<path class="st21" d="M1202.8,491.4c-24.1,0-36.7-6.3-47.9-11.9c-10.3-5.2-19.3-9.6-38.2-9.6s-27.9,4.5-38.2,9.6
				c-11.2,5.6-23.8,11.9-47.9,11.9c-24.1,0-36.7-6.3-47.9-11.9c-10.3-5.2-19.3-9.6-38.3-9.6c-19,0-27.9,4.5-38.2,9.6
				c-11.2,5.6-23.8,11.9-47.9,11.9c-24.1,0-36.7-6.3-47.9-11.9c-10.3-5.2-19.3-9.6-38.3-9.6c-19,0-27.9,4.5-38.3,9.6
				c-11.2,5.6-23.8,11.9-47.9,11.9v-21.5c19,0,27.9-4.5,38.3-9.6c11.2-5.6,23.8-11.9,47.9-11.9c24.1,0,36.7,6.3,47.9,11.9
				c10.3,5.2,19.3,9.6,38.3,9.6c19,0,27.9-4.5,38.3-9.6c11.2-5.6,23.8-11.9,47.9-11.9c24.1,0,36.7,6.3,47.9,11.9
				c10.3,5.2,19.3,9.6,38.3,9.6c19,0,27.9-4.5,38.2-9.6c11.2-5.6,23.8-11.9,47.9-11.9c24.1,0,36.7,6.3,47.9,11.9
				c10.3,5.2,19.3,9.6,38.2,9.6V491.4z"/>
		</g>
	</g>
</g>
<g>
	<path class="st36" d="M303.4,86.6c-6,4.5-26.7,26-67.9,86.2c0,0,1.5,1.1,4.2,2.7c16.8,10.4,81.2,44.4,138.8-2.2
		c0.2-0.2,3.1-2.8,3.4-3C381.9,170.4,312.8,79.6,303.4,86.6z"/>
	<path class="st37" d="M486.9,348.8c-5.9,3.1-11.8,5.9-17.7,8.6C310,431,194,372.4,155.1,347.1c-9.3-6.1-14.2-10.2-14.2-10.2
		c21.4-71.8,71.7-132.4,98.8-161.3c16.8,10.4,81.2,44.4,138.8-2.2C450.7,233,486.9,348.8,486.9,348.8z"/>
	<path class="st38" d="M468.9,476.9c-32.8,25.7-66.7,40.6-98.7,47.9c0.4-21.4,0.6-48.6-1.8-70.9c-2.2-21.1-13.7-25.6-24.2-27.2
		c-7.3-1.1-18.4,1.8-24.2,6.6c-6.6,5.4-11.3,16.1-11.3,28.7v68.2c-10.6-0.5-20.7-1.9-30.2-3.8c-99-20.4-124.5-66.1-124.5-66.1
		c-1.7-33-0.2-82.1,1-113.2c38.9,25.4,154.9,84,314.1,10.4C472.6,417.7,468.9,476.9,468.9,476.9z"/>
	<g>
		<path class="st33" d="M212.8,505.4C212.7,505.1,212.9,505.6,212.8,505.4L212.8,505.4z"/>
		<path class="st33" d="M230,485.9c-6,7.5-10.1,11.7-17.2,19.5c11.1,5.2,24.2,10.1,39.4,14.5C245.6,508.9,238.9,500.1,230,485.9z"/>
	</g>
	<path class="st33" d="M280.2,502.6c-7.5,6-14.8,13.3-21.8,19c6.4,1.7,13.1,3.3,20.2,4.8c7.4,1.5,15.3,2.7,23.5,3.4
		C295.3,520.5,288.6,512.4,280.2,502.6z"/>
	<path class="st33" d="M392.7,491.8c-6.8,10.6-13.6,22.4-18.5,32c12.3-3,24.8-7.2,37.4-12.7C411.5,511,399.2,497.3,392.7,491.8z"/>
	<g>
		<path class="st33" d="M469.9,454.9c-5.1,10.3-10,23.6-14.2,31.7c4.4-3,8.8-6.3,13.2-9.7C468.9,476.9,469.4,468.5,469.9,454.9z"/>
	</g>
	<path class="st33" d="M430.7,477.7c-6.3,11.1-10.3,21.5-16.6,32.4c11.7-5.4,26.5-13.4,38.2-21.2
		C452.3,488.9,436.6,481.1,430.7,477.7z"/>
	<path class="st33" d="M188.8,467.6c-4.6,4.9-9,10.1-13.8,14.9c8,6.4,18.6,13.5,32.5,20.4C207.2,502.2,195.7,480.3,188.8,467.6z"/>
	<path class="st39" d="M370.3,524.8c-21.7,4.9-42.5,6.4-61.6,5.4v-68.2c0-12.6,4.7-23.3,11.3-28.7c5.8-4.8,16.9-7.6,24.2-6.6
		c10.6,1.5,22,6.1,24.2,27.2C370.8,476.2,370.7,503.4,370.3,524.8z"/>
	<path class="st33" d="M153.3,417.9v10.8c83.1,65.2,155.4,58.4,155.4,58.4v-8.6C222.6,478.5,153.3,417.9,153.3,417.9z"/>
	<path class="st33" d="M370.5,469.7l-0.3,10.8c82.6-13.1,100.2-41.8,100.2-41.8l0.3-12.2C431.7,464.6,370.5,469.7,370.5,469.7z"/>
	<path class="st33" d="M258.3,504.4c0,2-1.6,3.6-3.6,3.6c-2,0-3.6-1.6-3.6-3.6c0-2,1.6-3.6,3.6-3.6
		C256.7,500.8,258.3,502.4,258.3,504.4z"/>
	<path class="st33" d="M214.6,487.3c0,2-1.6,3.6-3.6,3.6c-2,0-3.6-1.6-3.6-3.6c0-2,1.6-3.6,3.6-3.6
		C213,483.7,214.6,485.3,214.6,487.3z"/>
	<path class="st33" d="M415.2,490.9c0,2-1.6,3.6-3.6,3.6c-2,0-3.6-1.6-3.6-3.6c0-2,1.6-3.6,3.6-3.6
		C413.6,487.3,415.2,488.9,415.2,490.9z"/>
	<path class="st33" d="M455.9,474.3c0,2-1.6,3.6-3.6,3.6c-2,0-3.6-1.6-3.6-3.6c0-2,1.6-3.6,3.6-3.6
		C454.3,470.7,455.9,472.3,455.9,474.3z"/>
	<g>
		<g>
			<g>
				<g>
					<g>
						<path class="st40" d="M163.2,293.9c0.2,0.1-1.2,3.7-3.5,9.5c-2.4,5.8-5.9,13.7-9.4,22.5c-3.6,8.8-6.5,17-8.6,22.8
							c-2.1,5.9-3.4,9.5-3.6,9.5c-0.2-0.1,0.7-3.8,2.5-9.8c1.8-6,4.6-14.2,8.2-23.1c3.6-8.9,7.2-16.7,9.9-22.4
							C161.3,297.3,163,293.8,163.2,293.9z"/>
					</g>
				</g>
			</g>
			<g>
				<g>
					<g>
						<path class="st40" d="M177.6,274.9c0.1,0-0.3,1.2-1,3.4c-0.8,2.1-1.9,5.2-3.4,9c-2.9,7.5-7.1,17.9-11.7,29.4
							c-4.6,11.5-8.7,21.9-11.6,29.4c-1.5,3.8-2.7,6.8-3.5,8.9c-0.8,2.1-1.4,3.2-1.5,3.2c-0.1,0,0.2-1.3,0.9-3.4
							c0.7-2.2,1.7-5.3,3-9.1c2.7-7.6,6.6-18.1,11.2-29.6c4.6-11.5,8.9-21.8,12.1-29.2c1.6-3.7,2.9-6.7,3.9-8.8
							C176.9,275.9,177.5,274.8,177.6,274.9z"/>
					</g>
				</g>
			</g>
			<g>
				<g>
					<g>
						<path class="st40" d="M174.2,302.1c0.2,0.1-1.1,3.7-3.3,9.6c-2.3,5.8-5.6,13.8-8.9,22.7c-3.4,8.9-6.1,17.1-8.1,23
							c-2,5.9-3.2,9.6-3.4,9.5c-0.2-0.1,0.6-3.8,2.3-9.9c1.7-6,4.3-14.3,7.7-23.3c3.4-8.9,6.9-16.9,9.4-22.6
							C172.4,305.5,174,302,174.2,302.1z"/>
					</g>
				</g>
			</g>
			<g>
				<g>
					<g>
						<path class="st40" d="M189,285c0.1,0-0.3,1.2-1,3.4c-0.8,2.1-1.9,5.2-3.4,9c-2.9,7.5-7.1,17.9-11.7,29.4
							c-4.6,11.5-8.7,21.9-11.6,29.4c-1.5,3.8-2.7,6.8-3.5,8.9c-0.8,2.1-1.4,3.2-1.5,3.2c-0.1,0,0.2-1.3,0.9-3.4
							c0.7-2.2,1.7-5.3,3-9.1c2.7-7.6,6.6-18.1,11.2-29.6c4.6-11.5,8.9-21.8,12.1-29.2c1.6-3.7,2.9-6.7,3.9-8.8
							C188.3,286.1,188.9,285,189,285z"/>
					</g>
				</g>
			</g>
			<g>
				<g>
					<g>
						<path class="st40" d="M188,307.5c0.2,0.1-1.1,3.7-3.3,9.6c-2.3,5.8-5.6,13.8-8.9,22.7c-3.4,8.9-6.1,17.1-8.1,23
							c-2,5.9-3.2,9.6-3.4,9.5c-0.2-0.1,0.6-3.8,2.3-9.9c1.7-6,4.3-14.3,7.7-23.3c3.4-8.9,6.9-16.9,9.4-22.6
							C186.1,310.9,187.8,307.4,188,307.5z"/>
					</g>
				</g>
			</g>
			<g>
				<g>
					<g>
						<path class="st40" d="M204.6,290.4c0.1,0-0.3,1.2-1,3.4c-0.8,2.1-1.9,5.2-3.4,9c-2.9,7.5-7.1,17.9-11.7,29.4
							c-4.6,11.5-8.7,21.9-11.6,29.4c-1.5,3.8-2.7,6.8-3.5,8.9c-0.8,2.1-1.4,3.2-1.5,3.2c-0.1,0,0.2-1.3,0.9-3.4
							c0.7-2.2,1.7-5.3,3-9.1c2.7-7.6,6.6-18.1,11.2-29.6c4.6-11.5,8.9-21.8,12.1-29.2c1.6-3.7,2.9-6.7,3.9-8.8
							C203.9,291.5,204.5,290.4,204.6,290.4z"/>
					</g>
				</g>
			</g>
			<g>
				<g>
					<g>
						<path class="st40" d="M204,310.3c0.2,0.1-1,3.8-3.1,9.7c-2.1,5.9-5.2,14-8.3,23c-3.2,9-5.7,17.2-7.5,23.2
							c-1.8,6-2.9,9.7-3.2,9.6c-0.2-0.1,0.5-3.9,2-9.9c1.5-6.1,3.9-14.4,7.1-23.5c3.2-9,6.4-17,8.8-22.8
							C202.2,313.8,203.8,310.3,204,310.3z"/>
					</g>
				</g>
			</g>
			<g>
				<g>
					<g>
						<path class="st40" d="M217.4,290.6c0.1,0-0.2,1.3-0.9,3.4c-0.7,2.2-1.7,5.3-3,9.1c-2.6,7.7-6.2,18.2-10.3,29.9
							c-4,11.7-7.6,22.2-10.2,29.9c-1.3,3.8-2.4,6.9-3.1,9.1c-0.7,2.1-1.2,3.3-1.3,3.3c-0.1,0,0.1-1.3,0.7-3.5
							c0.6-2.2,1.4-5.4,2.6-9.2c2.3-7.8,5.7-18.4,9.8-30.1c4-11.7,7.9-22.2,10.7-29.7c1.4-3.8,2.6-6.8,3.5-8.9
							C216.8,291.7,217.3,290.6,217.4,290.6z"/>
					</g>
				</g>
			</g>
			<g>
				<g>
					<g>
						<path class="st40" d="M215.4,318c0.2,0.1-0.9,3.8-2.9,9.7c-2,5.9-4.9,14.1-7.9,23.1c-3,9.1-5.3,17.4-7,23.4
							c-1.7,6-2.7,9.7-2.9,9.7c-0.2,0,0.4-3.9,1.8-10c1.4-6.1,3.6-14.5,6.6-23.6c3-9.1,6.1-17.2,8.3-23
							C213.7,321.5,215.2,317.9,215.4,318z"/>
					</g>
				</g>
			</g>
			<g>
				<g>
					<g>
						<path class="st40" d="M230.8,300.6c0.1,0-0.2,1.3-0.9,3.4c-0.7,2.2-1.7,5.3-3,9.1c-2.6,7.7-6.2,18.2-10.3,29.9
							c-4,11.7-7.6,22.2-10.2,29.9c-1.3,3.8-2.4,6.9-3.1,9.1c-0.7,2.1-1.2,3.3-1.3,3.3c-0.1,0,0.1-1.3,0.7-3.5
							c0.6-2.2,1.4-5.4,2.6-9.2c2.3-7.8,5.7-18.4,9.8-30.1c4-11.7,7.9-22.2,10.7-29.7c1.4-3.8,2.6-6.8,3.5-8.9
							C230.2,301.7,230.7,300.5,230.8,300.6z"/>
					</g>
				</g>
			</g>
			<g>
				<g>
					<g>
						<path class="st40" d="M230.9,323.1c0.2,0.1-0.9,3.8-2.9,9.7c-2,5.9-4.9,14.1-7.9,23.1c-3,9.1-5.3,17.4-7,23.4
							c-1.7,6-2.7,9.7-2.9,9.7c-0.2,0,0.4-3.9,1.8-10c1.4-6.1,3.6-14.5,6.6-23.6c3-9.1,6.1-17.2,8.3-23
							C229.2,326.6,230.7,323,230.9,323.1z"/>
					</g>
				</g>
			</g>
			<g>
				<g>
					<g>
						<path class="st40" d="M244.1,304.4c0.1,0-0.1,1.3-0.7,3.5c-0.5,2.2-1.4,5.4-2.4,9.3c-2.1,7.8-5.1,18.6-8.5,30.5
							c-3.3,11.9-6.3,22.7-8.4,30.5c-1.1,3.9-1.9,7.1-2.5,9.2c-0.6,2.2-1,3.4-1.1,3.3c-0.1,0,0.1-1.3,0.5-3.5c0.4-2.2,1.1-5.4,2-9.4
							c1.8-7.9,4.6-18.7,7.9-30.6c3.3-11.9,6.5-22.6,8.9-30.3c1.2-3.9,2.2-7,2.9-9.1C243.5,305.6,244,304.4,244.1,304.4z"/>
					</g>
				</g>
			</g>
			<g>
				<g>
					<g>
						<path class="st40" d="M245.8,324.8c0.2,0.1-0.7,3.9-2,10.1c-1.3,6.2-3.1,14.9-5,24.4c-1.9,9.5-3.6,18.2-5,24.4
							c-1.4,6.2-2.4,10.1-2.6,10c-0.2,0,0.4-3.9,1.4-10.2c1.1-6.3,2.6-15,4.5-24.5c1.9-9.5,3.8-18.2,5.4-24.3
							C244.3,328.5,245.6,324.7,245.8,324.8z"/>
					</g>
				</g>
			</g>
			<g>
				<g>
					<g>
						<path class="st40" d="M242.5,392.4c-0.1,0,0-1.2,0.2-3.3c0.3-2.1,0.7-5.1,1.2-8.8c1.1-7.4,2.7-17.7,4.5-29.1
							c1.8-11.3,3.7-21.6,5.1-29c0.7-3.7,1.4-6.7,1.9-8.7c0.5-2,0.8-3.2,0.9-3.2c0.1,0,0,1.2-0.3,3.3c-0.3,2.1-0.8,5.1-1.3,8.8
							c-1.2,7.4-2.8,17.7-4.7,29c-1.8,11.3-3.6,21.6-5,29c-0.7,3.7-1.3,6.7-1.8,8.7C242.9,391.3,242.6,392.4,242.5,392.4z"/>
					</g>
				</g>
			</g>
			<g>
				<g>
					<g>
						<path class="st40" d="M260.5,326.8c0.2,0-0.3,4-1,10.3c-0.7,6.3-1.6,15.1-2.6,24.8c-1,9.7-1.9,18.4-2.6,24.8
							c-0.8,6.3-1.4,10.2-1.6,10.2c-0.2,0,0-4,0.5-10.3c0.5-6.4,1.2-15.1,2.2-24.8c1-9.7,2.1-18.4,3.1-24.7
							C259.3,330.7,260.3,326.8,260.5,326.8z"/>
					</g>
				</g>
			</g>
			<g>
				<g>
					<g>
						<path class="st40" d="M262.9,398.9c-0.1,0-0.1-1.2-0.1-3.3c0.1-2.1,0.2-5.1,0.4-8.9c0.4-7.5,1-17.9,1.7-29.3
							c0.7-11.5,1.6-21.8,2.4-29.3c0.4-3.7,0.7-6.8,1-8.9c0.3-2.1,0.5-3.2,0.6-3.2c0.1,0,0.1,1.2,0,3.3c-0.1,2.1-0.3,5.1-0.5,8.9
							c-0.5,7.5-1.1,17.9-1.9,29.3c-0.7,11.5-1.5,21.8-2.2,29.3c-0.3,3.7-0.7,6.8-0.9,8.9C263.2,397.8,263,399,262.9,398.9z"/>
					</g>
				</g>
			</g>
			<g>
				<g>
					<g>
						<path class="st40" d="M276.7,326.7c0.2,0-0.1,4-0.5,10.3c-0.4,6.4-0.9,15.1-1.5,24.9c-0.5,9.7-1,18.5-1.5,24.9
							c-0.5,6.4-0.9,10.3-1.1,10.3c-0.2,0-0.2-4,0-10.3c0.2-6.4,0.5-15.2,1-24.9c0.5-9.7,1.2-18.5,1.9-24.9
							C275.7,330.6,276.5,326.7,276.7,326.7z"/>
					</g>
				</g>
			</g>
			<g>
				<g>
					<g>
						<path class="st40" d="M282.6,399c-0.1,0-0.2-1.2-0.2-3.3c0-2.1,0-5.2,0.1-8.9c0.2-7.5,0.4-17.9,0.8-29.4
							c0.4-11.5,0.9-21.9,1.4-29.4c0.3-3.8,0.5-6.8,0.7-8.9c0.2-2.1,0.4-3.2,0.5-3.2c0.1,0,0.2,1.2,0.1,3.3c0,2.1-0.1,5.1-0.2,8.9
							c-0.2,7.5-0.6,17.9-0.9,29.4c-0.4,11.5-0.8,21.9-1.3,29.4c-0.2,3.8-0.4,6.8-0.6,8.9C282.8,397.9,282.7,399,282.6,399z"/>
					</g>
				</g>
			</g>
			<g>
				<g>
					<g>
						<path class="st40" d="M294.4,328.7c0.2,0,0,4-0.2,10.3c-0.2,6.4-0.4,15.2-0.6,24.9c-0.2,9.7-0.4,18.5-0.6,24.9
							c-0.3,6.4-0.6,10.3-0.8,10.3c-0.2,0-0.3-3.9-0.4-10.3c0-6.4,0-15.2,0.2-24.9c0.2-9.7,0.6-18.5,1.1-24.9
							C293.5,332.6,294.1,328.7,294.4,328.7z"/>
					</g>
				</g>
			</g>
			<g>
				<g>
					<g>
						<path class="st40" d="M303.3,400.8c-0.1,0-0.3-1.2-0.4-3.3c-0.2-2.1-0.3-5.1-0.5-8.9c-0.4-7.5-0.9-17.9-1.3-29.4
							c-0.4-11.5-0.7-21.9-0.7-29.4c0-3.8,0-6.8,0.1-8.9c0.1-2.1,0.2-3.3,0.3-3.3c0.1,0,0.2,1.2,0.4,3.3c0.1,2.1,0.3,5.1,0.4,8.9
							c0.3,7.5,0.7,17.9,1.2,29.4c0.4,11.5,0.8,21.9,0.9,29.4c0,3.8,0.1,6.8,0,8.9C303.5,399.7,303.4,400.8,303.3,400.8z"/>
					</g>
				</g>
			</g>
			<g>
				<g>
					<g>
						<path class="st40" d="M310.3,328.7c0.2,0,0.3,3.9,0.6,10.3c0.3,6.4,0.8,15.2,1.3,24.9c0.6,9.7,1.1,18.5,1.3,24.9
							c0.2,6.4,0.2,10.3,0,10.3c-0.2,0-0.6-3.9-1.2-10.3c-0.5-6.4-1.2-15.1-1.8-24.9c-0.6-9.7-0.9-18.5-0.8-24.9
							C309.8,332.7,310.1,328.7,310.3,328.7z"/>
					</g>
				</g>
			</g>
		</g>
		<g>
			<g>
				<g>
					<g>
						<path class="st40" d="M455.4,293.1c0.2-0.1,2.1,3.3,5,8.8c2.9,5.5,6.9,13.2,10.8,21.9c4,8.7,7.1,16.8,9.1,22.7
							c2.1,5.9,3.1,9.6,2.9,9.7c-0.2,0.1-1.7-3.5-4-9.3c-2.3-5.8-5.6-13.8-9.5-22.5c-3.9-8.7-7.7-16.4-10.4-22.1
							C456.7,296.8,455.2,293.2,455.4,293.1z"/>
					</g>
				</g>
			</g>
			<g>
				<g>
					<g>
						<path class="st40" d="M440.3,274.8c0.1,0,0.8,1.1,1.9,3.3c1.1,2.2,2.6,5.3,4.5,9.2c3.7,7.8,8.8,18.6,14.2,30.6
							c5.4,12,10.1,23,13.3,31c1.6,4,2.8,7.3,3.7,9.6c0.8,2.3,1.2,3.6,1.1,3.6c-0.1,0-0.7-1.2-1.7-3.4c-1-2.2-2.4-5.4-4.1-9.3
							c-3.5-7.9-8.3-18.8-13.7-30.8c-5.4-12-10.3-22.9-13.7-30.8c-1.7-4-3.1-7.2-4-9.4C440.7,276.1,440.2,274.8,440.3,274.8z"/>
					</g>
				</g>
			</g>
			<g>
				<g>
					<g>
						<path class="st40" d="M444.8,301.8c0.2-0.1,2,3.3,4.8,8.9c2.8,5.6,6.6,13.4,10.4,22.2c3.8,8.8,6.7,17,8.7,22.9
							c1.9,6,2.9,9.7,2.7,9.8c-0.2,0.1-1.6-3.5-3.8-9.4c-2.2-5.8-5.3-13.9-9.1-22.7c-3.8-8.8-7.4-16.6-9.9-22.3
							C446,305.5,444.6,301.9,444.8,301.8z"/>
					</g>
				</g>
			</g>
			<g>
				<g>
					<g>
						<path class="st40" d="M429.3,285.4c0.1,0,0.7,1,1.8,3.1c1,2,2.5,5,4.2,8.6c3.5,7.3,8.3,17.4,13.4,28.7
							c5.1,11.3,9.5,21.6,12.4,29.1c1.5,3.8,2.6,6.8,3.4,9c0.8,2.1,1.1,3.3,1,3.4c-0.1,0-0.7-1.1-1.6-3.1c-0.9-2.1-2.2-5.1-3.9-8.8
							c-3.3-7.4-7.8-17.6-12.9-28.9c-5.1-11.2-9.7-21.4-12.9-28.8c-1.6-3.7-2.9-6.7-3.8-8.8C429.6,286.6,429.2,285.4,429.3,285.4z"
							/>
					</g>
				</g>
			</g>
			<g>
				<g>
					<g>
						<path class="st40" d="M431.2,307.8c0.2-0.1,2,3.3,4.8,8.9c2.8,5.6,6.6,13.4,10.4,22.2c3.8,8.8,6.7,17,8.7,22.9
							c1.9,6,2.9,9.7,2.7,9.8c-0.2,0.1-1.6-3.5-3.8-9.4c-2.2-5.8-5.3-13.9-9.1-22.7c-3.8-8.8-7.4-16.6-9.9-22.3
							C432.5,311.5,431,307.9,431.2,307.8z"/>
					</g>
				</g>
			</g>
			<g>
				<g>
					<g>
						<path class="st40" d="M413.9,291.4c0.1,0,0.7,1.1,1.8,3.2c1.1,2.1,2.6,5.1,4.4,8.9c3.6,7.6,8.6,18,13.8,29.7
							c5.2,11.7,9.8,22.4,12.9,30.2c1.6,3.9,2.8,7.1,3.5,9.3c0.8,2.2,1.2,3.5,1.1,3.5c-0.1,0-0.7-1.1-1.7-3.3c-1-2.1-2.3-5.2-4-9.1
							c-3.4-7.7-8.1-18.3-13.3-29.9c-5.2-11.7-10-22.2-13.4-29.9c-1.7-3.8-3-7-3.9-9.1C414.3,292.7,413.8,291.5,413.9,291.4z"/>
					</g>
				</g>
			</g>
			<g>
				<g>
					<g>
						<path class="st40" d="M415.4,311.3c0.2-0.1,2,3.5,4.8,9.4c2.8,5.9,6.7,13.9,10.6,23.1c3.9,9.1,6.9,17.6,8.9,23.8
							c0.9,3.1,1.7,5.6,2.1,7.4c0.4,1.8,0.6,2.8,0.5,2.8c-0.2,0.1-1.5-3.7-3.7-9.8c-2.2-6.1-5.4-14.5-9.3-23.6
							c-3.9-9.1-7.6-17.2-10.1-23.2C416.6,315.2,415.2,311.4,415.4,311.3z"/>
					</g>
				</g>
			</g>
			<g>
				<g>
					<g>
						<path class="st40" d="M401.2,292.3c0.1,0,0.7,1.2,1.7,3.5c1,2.3,2.4,5.6,4.1,9.7c3.4,8.2,7.8,19.6,12.6,32.3
							c4.7,12.7,8.8,24.3,11.7,32.7c1.4,4.2,2.5,7.6,3.2,10c0.7,2.4,1.1,3.7,1,3.7c-0.1,0-0.7-1.2-1.6-3.5c-0.9-2.3-2.2-5.7-3.7-9.8
							c-3.1-8.3-7.4-19.8-12.1-32.5c-4.7-12.7-9-24.1-12.1-32.5c-1.5-4.2-2.8-7.5-3.6-9.9C401.5,293.6,401,292.3,401.2,292.3z"/>
					</g>
				</g>
			</g>
			<g>
				<g>
					<g>
						<path class="st40" d="M404.3,319.4c0.2-0.1,1.8,3.4,4.4,9.2c2.5,5.7,5.9,13.7,9.3,22.6c3.4,9,5.9,17.3,7.6,23.3
							c1.6,6,2.5,9.8,2.2,9.9c-0.2,0.1-1.4-3.6-3.4-9.6c-1.9-5.9-4.6-14.1-8-23.1c-3.3-8.9-6.6-16.9-8.8-22.8
							C405.4,323.2,404.1,319.5,404.3,319.4z"/>
					</g>
				</g>
			</g>
			<g>
				<g>
					<g>
						<path class="st40" d="M388.1,302.7c0.1,0,0.7,1.1,1.6,3.1c0.9,2.1,2.2,5.1,3.8,8.8c3.2,7.4,7.5,17.8,12,29.3
							c4.5,11.5,8.4,22,11,29.6c1.3,3.8,2.3,6.9,3,9.1c0.6,2.2,1,3.4,0.9,3.4c-0.1,0-0.6-1.1-1.5-3.2c-0.8-2.1-2-5.2-3.5-8.9
							c-2.9-7.5-6.9-18-11.5-29.4c-4.5-11.5-8.6-21.9-11.5-29.4c-1.5-3.8-2.6-6.8-3.4-9C388.4,303.9,388,302.7,388.1,302.7z"/>
					</g>
				</g>
			</g>
			<g>
				<g>
					<g>
						<path class="st40" d="M389.1,325.1c0.2-0.1,1.9,3.4,4.4,9.2c2.5,5.7,5.9,13.7,9.3,22.6c3.4,9,5.9,17.3,7.6,23.3
							c1.6,6,2.5,9.8,2.2,9.9c-0.2,0.1-1.4-3.6-3.4-9.6c-1.9-5.9-4.6-14.1-8-23.1c-3.3-8.9-6.6-16.9-8.8-22.8
							C390.1,328.9,388.8,325.2,389.1,325.1z"/>
					</g>
				</g>
			</g>
			<g>
				<g>
					<g>
						<path class="st40" d="M375.1,307.1c0.1,0,0.6,1.1,1.4,3.2c0.8,2.1,1.9,5.2,3.3,9c2.7,7.6,6.4,18.2,10.2,29.9
							c3.8,11.8,7.1,22.5,9.2,30.3c1.1,3.9,1.9,7.1,2.4,9.3c0.5,2.2,0.8,3.4,0.6,3.5c-0.1,0-0.6-1.1-1.3-3.3
							c-0.7-2.2-1.7-5.3-2.9-9.1c-2.4-7.7-5.8-18.3-9.7-30.1c-3.8-11.7-7.3-22.4-9.7-30.1c-1.2-3.9-2.2-7-2.8-9.2
							C375.3,308.3,375,307.1,375.1,307.1z"/>
					</g>
				</g>
			</g>
			<g>
				<g>
					<g>
						<path class="st40" d="M374.2,327.5c0.2-0.1,1.7,3.6,3.5,9.7c1.9,6.1,4.2,14.6,6.5,24.1c2.3,9.5,4.2,18.1,5.5,24.3
							c1.3,6.2,2.1,10.1,1.9,10.2c-0.2,0.1-1.4-3.7-3-9.9c-1.6-6.2-3.7-14.7-6-24.2c-2.3-9.4-4.4-18-6-24.2
							C375.1,331.4,374,327.6,374.2,327.5z"/>
					</g>
				</g>
			</g>
			<g>
				<g>
					<g>
						<path class="st40" d="M380.4,394.9c-0.1,0-0.5-1.1-1-3.1c-0.5-2-1.3-5-2.1-8.7c-1.7-7.3-3.9-17.5-6.2-28.7
							c-2.3-11.3-4.4-21.4-5.9-28.8c-0.7-3.7-1.3-6.7-1.7-8.7c-0.4-2.1-0.5-3.2-0.4-3.3c0.1,0,0.5,1.1,1,3.1c0.6,2,1.3,5,2.2,8.6
							c1.8,7.3,4,17.5,6.3,28.7c2.3,11.2,4.3,21.4,5.7,28.8c0.7,3.7,1.3,6.7,1.6,8.8C380.3,393.7,380.5,394.8,380.4,394.9z"/>
					</g>
				</g>
			</g>
			<g>
				<g>
					<g>
						<path class="st40" d="M359.6,330.2c0.2,0,1.3,3.8,2.6,10c1.3,6.3,2.8,15,4.2,24.6c1.4,9.6,2.5,18.4,3.2,24.7
							c0.7,6.3,1.1,10.3,0.9,10.3c-0.2,0-1-3.8-2.1-10.1c-1-6.3-2.3-15-3.7-24.6c-1.4-9.6-2.7-18.3-3.7-24.6
							C360.1,334.1,359.4,330.2,359.6,330.2z"/>
					</g>
				</g>
			</g>
			<g>
				<g>
					<g>
						<path class="st40" d="M360.3,402.3c-0.1,0-0.4-1.1-0.7-3.2c-0.3-2.1-0.8-5.1-1.3-8.8c-1-7.5-2.2-17.8-3.5-29.2
							c-1.2-11.4-2.3-21.8-3.1-29.2c-0.4-3.7-0.7-6.8-0.9-8.9c-0.2-2.1-0.2-3.3-0.1-3.3c0.1,0,0.4,1.1,0.7,3.2
							c0.4,2.1,0.9,5.1,1.4,8.8c1.1,7.5,2.4,17.8,3.6,29.2c1.2,11.4,2.3,21.8,3,29.2c0.4,3.7,0.6,6.8,0.8,8.9
							C360.3,401.1,360.4,402.3,360.3,402.3z"/>
					</g>
				</g>
			</g>
			<g>
				<g>
					<g>
						<path class="st40" d="M343.5,330.7c0.2,0,1.1,3.8,2.1,10.1c1,6.3,2.1,15.1,3,24.8c0.9,9.7,1.6,18.5,2,24.8
							c0.4,6.4,0.6,10.3,0.4,10.3c-0.2,0-0.8-3.9-1.6-10.2c-0.7-6.3-1.6-15.1-2.5-24.8c-0.9-9.7-1.8-18.4-2.5-24.8
							C343.7,334.7,343.2,330.7,343.5,330.7z"/>
					</g>
				</g>
			</g>
			<g>
				<g>
					<g>
						<path class="st40" d="M340.6,403.2c-0.1,0-0.3-1.1-0.6-3.2c-0.3-2.1-0.6-5.1-1-8.9c-0.8-7.5-1.7-17.9-2.5-29.3
							c-0.9-11.5-1.6-21.8-2.2-29.3c-0.3-3.8-0.5-6.8-0.6-8.9c-0.1-2.1-0.1-3.3,0-3.3c0.1,0,0.3,1.1,0.6,3.2
							c0.3,2.1,0.7,5.1,1.1,8.8c0.8,7.5,1.8,17.8,2.7,29.3c0.9,11.4,1.6,21.8,2,29.3c0.2,3.8,0.4,6.8,0.5,8.9
							C340.7,402,340.7,403.2,340.6,403.2z"/>
					</g>
				</g>
			</g>
			<g>
				<g>
					<g>
						<path class="st40" d="M325.9,333.5c0.2,0,1,3.9,1.8,10.2c0.8,6.3,1.6,15.1,2.2,24.8c0.6,9.7,1,18.5,1.2,24.9
							c0.2,6.4,0.3,10.3,0.1,10.3c-0.2,0-0.7-3.9-1.2-10.3c-0.5-6.4-1.1-15.2-1.7-24.9c-0.6-9.7-1.2-18.5-1.7-24.8
							C326,337.4,325.6,333.5,325.9,333.5z"/>
					</g>
				</g>
			</g>
			<g>
				<g>
					<g>
						<path class="st40" d="M320,405.9c-0.1,0-0.2-1.2-0.4-3.3c-0.1-2.1-0.2-5.1-0.4-8.9c-0.2-7.5-0.4-17.9-0.4-29.4
							c0-11.5,0-21.9-0.1-29.4c0-3.8,0-6.8,0.1-8.9c0-2.1,0.1-3.3,0.2-3.3c0.1,0,0.3,1.2,0.4,3.3c0.2,2.1,0.3,5.1,0.5,8.9
							c0.3,7.5,0.5,17.9,0.5,29.4c0,11.5,0,21.9-0.1,29.4c0,3.8-0.1,6.8-0.2,8.9C320.2,404.7,320.1,405.9,320,405.9z"/>
					</g>
				</g>
			</g>
		</g>
	</g>
	<g>
		<g>
			<g>
				<g>
					<g>
						<path class="st41" d="M258.1,151.6c0.2,0.1-1.1,2.1-3,5.2c-2,3.1-4.7,7.5-7.7,12.4c-3,4.9-5.7,9.2-7.8,12.3
							c-2.1,3.1-3.6,4.9-3.8,4.7c-0.2-0.1,1-2.1,2.8-5.3c1.9-3.2,4.4-7.7,7.4-12.6c3-4.9,5.9-9.2,8.1-12.2
							C256.3,153.2,257.9,151.5,258.1,151.6z"/>
					</g>
				</g>
			</g>
			<g>
				<g>
					<g>
						<path class="st41" d="M261.3,159.5c0.2,0.1-0.6,1.9-2,4.8c-1.4,2.9-3.4,6.8-5.7,11.2c-2.3,4.3-4.5,8.2-6.3,10.9
							c-1.8,2.7-3.3,4.1-3.5,3.9c-0.2-0.2,1-1.7,2.5-4.5c1.6-2.8,3.6-6.7,5.9-11c2.3-4.3,4.4-8.2,6.1-11
							C259.9,161,261.1,159.4,261.3,159.5z"/>
					</g>
				</g>
			</g>
			<g>
				<g>
					<g>
						<path class="st41" d="M274.2,154.7c0.2,0.1-0.5,2.5-2.1,6.3c-1.6,3.8-4.2,8.8-7.2,14.3c-3,5.5-5.7,10.4-7.6,14
							c-1.9,3.6-2.9,5.9-3.2,5.8c-0.2-0.1,0.5-2.5,2.1-6.3c1.6-3.8,4.2-8.8,7.2-14.3c3-5.5,5.7-10.4,7.5-14
							C272.9,156.9,274,154.6,274.2,154.7z"/>
					</g>
				</g>
			</g>
			<g>
				<g>
					<g>
						<path class="st41" d="M276.7,170.2c0.4,0.1-1.3,7-4.4,15c-3.1,8.1-6.4,14.3-6.8,14.1c-0.4-0.2,2.2-6.7,5.3-14.7
							C273.9,176.7,276.2,170.1,276.7,170.2z"/>
					</g>
				</g>
			</g>
			<g>
				<g>
					<g>
						<path class="st41" d="M276.9,203.4c-0.5-0.1,1.9-10,4.2-22.3c2.3-12.3,4.4-22.3,4.8-22.2c0.2,0,0,2.6-0.6,6.7
							c-0.6,4.1-1.5,9.7-2.6,15.9c-1.2,6.2-2.5,11.7-3.6,15.7C278,201.1,277.1,203.5,276.9,203.4z"/>
					</g>
				</g>
			</g>
			<g>
				<g>
					<g>
						<path class="st41" d="M291.2,170.3c0.5,0,0.8,7.6-0.3,16.8c-0.5,4.6-1.2,8.7-1.7,11.7c-0.5,3-1,4.8-1.2,4.8
							c-0.2,0-0.2-1.9,0-4.9c0.2-3,0.7-7.2,1.2-11.8C290.3,177.7,290.7,170.3,291.2,170.3z"/>
					</g>
				</g>
			</g>
			<g>
				<g>
					<g>
						<path class="st41" d="M297.2,203.9c-0.5,0,0.3-10.2,0.5-22.7c0.3-12.5,0.7-22.7,1.1-22.7c0.2,0,0.4,2.5,0.5,6.7
							c0.1,4.1,0.1,9.8,0,16.1c-0.1,6.3-0.5,12-1,16.1C297.9,201.4,297.4,203.9,297.2,203.9z"/>
					</g>
				</g>
			</g>
			<g>
				<g>
					<g>
						<path class="st41" d="M307.2,173.9c0.4-0.1,1.7,7.4,1.9,16.7c0.1,4.6,0,8.8-0.2,11.8c-0.1,3-0.3,4.9-0.6,4.9
							c-0.2,0-0.4-1.9-0.6-4.9c-0.2-3-0.2-7.2-0.3-11.8C307.4,181.4,306.8,173.9,307.2,173.9z"/>
					</g>
				</g>
			</g>
		</g>
		<g>
			<g>
				<g>
					<g>
						<path class="st41" d="M356.3,151.7c0.2-0.1,1.7,1.6,4,4.6c2.2,3,5.1,7.3,8.1,12.2c3,4.9,5.5,9.3,7.4,12.6
							c1.9,3.2,3,5.2,2.8,5.3c-0.2,0.1-1.7-1.6-3.8-4.7c-2.1-3.1-4.8-7.5-7.8-12.3c-3-4.9-5.7-9.2-7.7-12.4
							C357.4,153.8,356.1,151.8,356.3,151.7z"/>
					</g>
				</g>
			</g>
			<g>
				<g>
					<g>
						<path class="st41" d="M353.1,159.6c0.2-0.1,1.4,1.5,3.1,4.2c1.7,2.7,3.8,6.6,6.1,11c2.3,4.3,4.3,8.3,5.9,11
							c1.5,2.8,2.7,4.4,2.5,4.5c-0.2,0.2-1.7-1.2-3.5-3.9c-1.9-2.7-4.1-6.5-6.3-10.9c-2.3-4.3-4.2-8.3-5.7-11.2
							C353.7,161.5,352.9,159.7,353.1,159.6z"/>
					</g>
				</g>
			</g>
			<g>
				<g>
					<g>
						<path class="st41" d="M340.2,154.8c0.2-0.1,1.3,2.2,3.2,5.8c1.9,3.6,4.6,8.5,7.6,14c3,5.5,5.6,10.5,7.2,14.3
							c1.6,3.8,2.3,6.2,2.1,6.3c-0.2,0.1-1.3-2.2-3.2-5.8c-1.9-3.6-4.6-8.5-7.6-14c-3-5.5-5.6-10.5-7.2-14.3
							C340.7,157.3,340,154.8,340.2,154.8z"/>
					</g>
				</g>
			</g>
			<g>
				<g>
					<g>
						<path class="st41" d="M337.7,170.3c0.4-0.1,2.8,6.4,5.9,14.5c3.1,8,5.7,14.5,5.3,14.7c-0.4,0.2-3.7-6-6.8-14.1
							C339,177.3,337.3,170.5,337.7,170.3z"/>
					</g>
				</g>
			</g>
			<g>
				<g>
					<g>
						<path class="st41" d="M337.5,203.5c-0.2,0.1-1.1-2.4-2.2-6.3c-1.1-4-2.5-9.5-3.6-15.7c-1.2-6.2-2.1-11.8-2.6-15.9
							c-0.6-4.1-0.8-6.6-0.6-6.7c0.5-0.1,2.5,9.9,4.8,22.2C335.6,193.5,338,203.4,337.5,203.5z"/>
					</g>
				</g>
			</g>
			<g>
				<g>
					<g>
						<path class="st41" d="M323.2,170.4c0.4,0,0.9,7.4,1.9,16.6c0.5,4.6,1,8.7,1.2,11.8c0.2,3,0.3,4.9,0.1,4.9
							c-0.2,0-0.7-1.8-1.2-4.8c-0.5-3-1.2-7.1-1.7-11.7C322.5,177.9,322.8,170.4,323.2,170.4z"/>
					</g>
				</g>
			</g>
			<g>
				<g>
					<g>
						<path class="st41" d="M317.2,204c-0.2,0-0.7-2.5-1.1-6.6c-0.5-4.1-0.9-9.8-1-16.1c-0.2-6.3-0.1-12,0-16.1
							c0.1-4.1,0.3-6.7,0.5-6.7c0.5,0,0.9,10.2,1.1,22.7C316.9,193.8,317.6,203.9,317.2,204z"/>
					</g>
				</g>
			</g>
		</g>
	</g>
	<g>
		<g>
			<g>
				<path class="st42" d="M358.4,432.6c-0.1,0.1-1.5-1.3-4.7-2.8c-3.1-1.6-8.1-3-14.4-2.7c-3.1,0.2-6.5,0.7-10,1.9
					c-3.5,1.2-7,3-10.1,5.6c-3.1,2.6-5.8,6.2-7.1,10.3c-1.3,4.2-1.8,9-2.2,13.7c-0.8,9.6-0.9,18.8-1,27.2c-0.1,8.4,0,15.9,0.1,22.3
					c0.1,6.3,0.1,11.5,0.1,15c0,3.5-0.2,5.5-0.3,5.5c-0.1,0-0.2-2-0.3-5.5c-0.2-3.5-0.4-8.7-0.6-15c-0.2-6.3-0.4-13.9-0.4-22.3
					c0-8.4,0.1-17.6,0.9-27.3c0.4-4.8,0.9-9.6,2.3-14.1c1.5-4.5,4.4-8.2,7.7-11c3.3-2.8,7-4.6,10.6-5.8c3.6-1.2,7.2-1.7,10.4-1.8
					c6.5-0.1,11.6,1.6,14.7,3.3c1.6,0.9,2.7,1.7,3.4,2.3C358.1,432.2,358.5,432.6,358.4,432.6z"/>
			</g>
		</g>
	</g>
	<g>
		<g>
			<g>
				<path class="st42" d="M345.4,426.7c0-0.1,0.4-0.1,1.1-0.1c0.4,0,0.8,0,1.3,0.1c0.5,0.1,1.1,0.1,1.8,0.3c0.7,0.2,1.4,0.4,2.2,0.6
					c0.8,0.3,1.7,0.7,2.6,1.1c1.8,1,3.7,2.3,5.4,4.1c3.5,3.7,6.3,9.1,8,15.5c1.8,6.3,2.7,13.5,3.1,21c0.4,7.5,0.1,14.7-0.1,21.2
					c-0.1,6.5,0.2,12.3,0.3,17.2c0.1,4.9,0,8.9-0.3,11.7c-0.2,2.8-0.5,4.2-0.6,4.2c-0.1,0,0-1.5,0-4.3c0.1-2.7,0-6.7-0.3-11.6
					c-0.2-4.9-0.7-10.7-0.7-17.3c0.1-6.5,0.3-13.6,0-21.1c-0.4-7.4-1.2-14.5-2.9-20.7c-1.6-6.2-4.2-11.5-7.4-15.1
					c-1.6-1.8-3.4-3.1-5-4.1c-0.8-0.4-1.6-0.8-2.4-1.2c-0.8-0.3-1.5-0.5-2.1-0.7c-0.7-0.1-1.3-0.3-1.8-0.4c-0.5-0.1-0.9-0.2-1.3-0.2
					C345.8,426.9,345.4,426.8,345.4,426.7z"/>
			</g>
		</g>
	</g>
</g>
<g id="TlIpwG_1_">
	
		<image style="overflow:visible;" width="660" height="580" id="TlIpwG" xlink:href="58E56CA3CBE6F97F.png"  transform="matrix(0.5 0 0 0.5 -305.9691 681.9827)">
	</image>
</g>
</svg>
