<?xml version="1.0" encoding="utf-8"?>
<!-- Generator: Adobe Illustrator 23.1.1, SVG Export Plug-In . SVG Version: 6.00 Build 0)  -->
<svg version="1.1" id="Camada_1" xmlns="http://www.w3.org/2000/svg" xmlns:xlink="http://www.w3.org/1999/xlink" x="0px" y="0px"
	 viewBox="0 0 1256.4 572.3" style="enable-background:new 0 0 1256.4 572.3;" xml:space="preserve">
<style type="text/css">
	.st0{fill:#FFF9DE;}
	.st1{fill:none;stroke:#F28D47;stroke-width:2;stroke-miterlimit:10;}
	.st2{fill:#904B27;}
	.st3{fill:#FFFFFF;}
	.st4{fill:none;stroke:#F28D47;stroke-width:3;stroke-miterlimit:10;}
</style>
<g>
	<rect x="19.7" y="161.6" class="st0" width="1210.6" height="73"/>
	<line class="st1" x1="23.1" y1="232.7" x2="1230.3" y2="232.7"/>
</g>
<g>
	<rect x="19.7" y="435.6" class="st0" width="1210.6" height="73"/>
	<line class="st1" x1="23.1" y1="506.7" x2="1230.3" y2="506.7"/>
</g>
<g>
	<rect x="19.7" y="299.6" class="st0" width="1210.6" height="73"/>
	<line class="st1" x1="23.1" y1="370.7" x2="1230.3" y2="370.7"/>
</g>
<g id="Y4zh0g.tif">
	
		<image style="overflow:visible;" width="1168" height="926" id="Layer_0" xlink:href="3BCA0EF081D7181F.png"  transform="matrix(1.4793 0 0 1.4793 -3314.1907 258.0611)">
	</image>
</g>
<path class="st2" d="M1236.4,89.6c0.4-0.8,0.6-36.2,0.6-37.1V15.9H19v36.6c0,0.9,0.2,36.2,0.6,37.1H1236.4z"/>
<g>
	<path class="st3" d="M203.4,45.2v4.6h9.3v4.6h-9.3v7.2h-5.9v-21h16.5v4.6H203.4z"/>
	<path class="st3" d="M225.9,56h-3.2v5.6h-5.9v-21h9.6c1.9,0,3.5,0.3,5,0.9c1.4,0.6,2.5,1.5,3.2,2.7c0.8,1.2,1.1,2.5,1.1,4.1
		c0,1.5-0.4,2.8-1.1,4s-1.7,2-3,2.7l4.5,6.6h-6.4L225.9,56z M228.7,46.1c-0.6-0.5-1.5-0.8-2.8-0.8h-3.3v6.1h3.3
		c1.2,0,2.1-0.3,2.8-0.8c0.6-0.5,0.9-1.3,0.9-2.3C229.7,47.4,229.4,46.6,228.7,46.1z"/>
	<path class="st3" d="M255.8,57v4.6h-16.9v-21h16.5v4.6h-10.6v3.5h9.3v4.4h-9.3V57H255.8z"/>
	<path class="st3" d="M282.4,64c-0.7,0.9-1.6,1.5-2.6,2c-1,0.5-2.1,0.7-3.3,0.7c-1.2,0-2.2-0.1-3.1-0.4c-0.9-0.3-1.9-0.8-2.8-1.5
		c-1-0.7-2-1.7-3.2-2.9c-1.8-0.3-3.4-0.9-4.9-2c-1.4-1-2.5-2.3-3.3-3.8c-0.8-1.5-1.2-3.2-1.2-5c0-2.1,0.5-3.9,1.5-5.6
		c1-1.7,2.4-3,4.2-3.9c1.8-0.9,3.8-1.4,6-1.4c2.2,0,4.2,0.5,6,1.4c1.8,0.9,3.2,2.2,4.2,3.9s1.5,3.5,1.5,5.6c0,2.4-0.6,4.4-1.9,6.3
		c-1.3,1.8-3,3.1-5.2,3.9c0.4,0.4,0.8,0.8,1.2,0.9c0.4,0.2,0.8,0.3,1.3,0.3c1.2,0,2.2-0.5,3.2-1.5L282.4,64z M264.8,54.2
		c0.5,0.9,1.2,1.6,2,2.1c0.9,0.5,1.8,0.8,2.9,0.8c1.1,0,2-0.2,2.9-0.8c0.9-0.5,1.5-1.2,2-2.1c0.5-0.9,0.8-2,0.8-3.1
		c0-1.2-0.2-2.2-0.8-3.1s-1.2-1.6-2-2.1c-0.9-0.5-1.8-0.8-2.9-0.8c-1.1,0-2,0.3-2.9,0.8c-0.9,0.5-1.5,1.2-2,2.1s-0.8,2-0.8,3.1
		C264,52.3,264.3,53.3,264.8,54.2z"/>
	<path class="st3" d="M286.9,59.5c-1.7-1.7-2.6-4.1-2.6-7.2V40.6h5.9v11.5c0,3.4,1.3,5,4,5c2.6,0,4-1.7,4-5V40.6h5.9v11.6
		c0,3.1-0.9,5.5-2.6,7.2c-1.7,1.7-4.2,2.5-7.3,2.5S288.6,61.2,286.9,59.5z"/>
	<path class="st3" d="M324.9,57v4.6h-16.9v-21h16.5v4.6h-10.6v3.5h9.3v4.4h-9.3V57H324.9z M318.9,38.9l-2.6-2.3l-2.6,2.3h-3.8
		l3.9-4.6h4.9l3.9,4.6H318.9z"/>
	<path class="st3" d="M348.2,40.6v21h-4.9L334,50.4v11.2h-5.8v-21h4.9l9.3,11.2V40.6H348.2z"/>
	<path class="st3" d="M356.9,60.6c-1.8-0.9-3.1-2.2-4.1-3.9c-1-1.7-1.5-3.5-1.5-5.6s0.5-4,1.5-5.6c1-1.7,2.4-3,4.1-3.9
		c1.8-0.9,3.7-1.4,5.9-1.4c1.9,0,3.6,0.3,5.2,1c1.5,0.7,2.8,1.7,3.8,2.9l-3.8,3.4c-1.4-1.6-3-2.5-5-2.5c-1.1,0-2.2,0.3-3,0.8
		c-0.9,0.5-1.6,1.2-2.1,2.1s-0.7,2-0.7,3.1c0,1.2,0.2,2.2,0.7,3.1c0.5,0.9,1.2,1.6,2.1,2.1c0.9,0.5,1.9,0.8,3,0.8
		c1.9,0,3.6-0.8,5-2.5l3.8,3.4c-1,1.3-2.3,2.3-3.8,2.9s-3.3,1-5.2,1C360.7,62,358.7,61.6,356.9,60.6z"/>
	<path class="st3" d="M374.5,40.6h5.9v21h-5.9V40.6z"/>
	<path class="st3" d="M398.8,57.5h-8.9l-1.6,4.1h-6.1l9.3-21h5.8l9.3,21h-6.2L398.8,57.5z M397,53.1l-2.7-6.7l-2.7,6.7H397z"/>
	<path class="st3" d="M421.6,60.6c-1.8-0.9-3.1-2.2-4.1-3.9c-1-1.7-1.5-3.5-1.5-5.6s0.5-4,1.5-5.6c1-1.7,2.4-3,4.1-3.9
		c1.8-0.9,3.7-1.4,5.9-1.4c1.9,0,3.6,0.3,5.2,1c1.5,0.7,2.8,1.7,3.8,2.9l-3.8,3.4c-1.4-1.6-3-2.5-5-2.5c-1.1,0-2.2,0.3-3,0.8
		c-0.9,0.5-1.6,1.2-2.1,2.1s-0.7,2-0.7,3.1c0,1.2,0.2,2.2,0.7,3.1c0.5,0.9,1.2,1.6,2.1,2.1c0.9,0.5,1.9,0.8,3,0.8
		c1.9,0,3.6-0.8,5-2.5l3.8,3.4c-1,1.3-2.3,2.3-3.8,2.9s-3.3,1-5.2,1C425.3,62,423.3,61.6,421.6,60.6z"/>
	<path class="st3" d="M453.2,57.5h-8.9l-1.6,4.1h-6.1l9.3-21h5.8l9.3,21h-6.2L453.2,57.5z M451.5,53.1l-2.7-6.7l-2.7,6.7H451.5z"/>
	<path class="st3" d="M471.9,56h-3.2v5.6h-5.9v-21h9.6c1.9,0,3.5,0.3,4.9,0.9c1.4,0.6,2.5,1.5,3.2,2.7s1.1,2.5,1.1,4.1
		c0,1.5-0.4,2.8-1.1,4s-1.7,2-3,2.7l4.5,6.6h-6.4L471.9,56z M474.7,46.1c-0.6-0.5-1.5-0.8-2.8-0.8h-3.3v6.1h3.3
		c1.2,0,2.1-0.3,2.8-0.8s0.9-1.3,0.9-2.3C475.7,47.4,475.4,46.6,474.7,46.1z"/>
	<path class="st3" d="M484.9,40.6h9.9c2.3,0,4.3,0.4,6.1,1.3c1.8,0.9,3.2,2.1,4.1,3.7c1,1.6,1.5,3.4,1.5,5.5c0,2.1-0.5,4-1.5,5.5
		c-1,1.6-2.4,2.8-4.1,3.7c-1.8,0.9-3.8,1.3-6.1,1.3h-9.9V40.6z M494.6,56.9c1.8,0,3.2-0.5,4.3-1.5c1.1-1,1.6-2.4,1.6-4.2
		s-0.5-3.2-1.6-4.2c-1.1-1-2.5-1.5-4.3-1.5h-3.8v11.5H494.6z"/>
	<path class="st3" d="M509.7,40.6h5.9v21h-5.9V40.6z M513.8,34.3h5.7l-5.6,4.6h-4.1L513.8,34.3z"/>
	<path class="st3" d="M534,57.5h-8.9l-1.7,4.1h-6.1l9.3-21h5.9l9.3,21h-6.2L534,57.5z M532.2,53.1l-2.7-6.7l-2.7,6.7H532.2z"/>
	<path class="st3" d="M548,60.6c-1.8-0.9-3.1-2.2-4.1-3.9c-1-1.7-1.5-3.5-1.5-5.6s0.5-4,1.5-5.6c1-1.7,2.4-3,4.1-3.9
		c1.8-0.9,3.7-1.4,5.9-1.4c1.9,0,3.6,0.3,5.2,1c1.5,0.7,2.8,1.7,3.8,2.9l-3.8,3.4c-1.4-1.6-3-2.5-5-2.5c-1.1,0-2.2,0.3-3,0.8
		c-0.9,0.5-1.6,1.2-2.1,2.1s-0.7,2-0.7,3.1c0,1.2,0.2,2.2,0.7,3.1c0.5,0.9,1.2,1.6,2.1,2.1c0.9,0.5,1.9,0.8,3,0.8
		c1.9,0,3.6-0.8,5-2.5l3.8,3.4c-1,1.3-2.3,2.3-3.8,2.9s-3.3,1-5.2,1C551.7,62,549.8,61.6,548,60.6z"/>
	<path class="st3" d="M579.7,57.5h-8.9l-1.7,4.1h-6.1l9.3-21h5.9l9.3,21h-6.2L579.7,57.5z M577.9,53.1l-2.7-6.7l-2.7,6.7H577.9z"/>
	<path class="st3" d="M598.6,61.1c-0.7-2.4-1-5-1-7.7c0-2.7,0.3-5.3,1-7.7c0.7-2.4,1.6-4.5,2.9-6.3h5.5c-1.3,2.3-2.2,4.6-2.8,6.9
		s-0.9,4.7-0.9,7.2s0.3,4.9,0.9,7.2c0.6,2.3,1.5,4.6,2.8,6.9h-5.5C600.2,65.6,599.3,63.5,598.6,61.1z"/>
	<path class="st3" d="M623.5,41.6c1.4,0.6,2.5,1.5,3.2,2.7s1.1,2.5,1.1,4.1c0,1.6-0.4,3-1.1,4.1c-0.8,1.2-1.8,2.1-3.2,2.7
		c-1.4,0.6-3,0.9-4.9,0.9h-3.7v5.5H609v-21h9.6C620.5,40.6,622.1,40.9,623.5,41.6z M621,50.6c0.6-0.5,0.9-1.3,0.9-2.3
		c0-1-0.3-1.7-0.9-2.3c-0.6-0.5-1.5-0.8-2.8-0.8h-3.3v6.1h3.3C619.4,51.4,620.4,51.2,621,50.6z"/>
	<path class="st3" d="M635.7,60.6c-1.8-0.9-3.2-2.2-4.2-3.9c-1-1.7-1.5-3.5-1.5-5.6s0.5-3.9,1.5-5.6s2.4-3,4.2-3.9
		c1.8-0.9,3.8-1.4,6-1.4s4.2,0.5,6,1.4c1.8,0.9,3.2,2.2,4.2,3.9s1.5,3.5,1.5,5.6s-0.5,4-1.5,5.6c-1,1.7-2.4,3-4.2,3.9
		c-1.8,0.9-3.8,1.4-6,1.4S637.5,61.6,635.7,60.6z M644.6,56.4c0.9-0.5,1.5-1.2,2-2.1c0.5-0.9,0.8-2,0.8-3.1c0-1.2-0.2-2.2-0.8-3.1
		s-1.2-1.6-2-2.1c-0.9-0.5-1.8-0.8-2.9-0.8s-2,0.3-2.9,0.8c-0.9,0.5-1.5,1.2-2,2.1s-0.8,2-0.8,3.1c0,1.2,0.2,2.2,0.8,3.1
		c0.5,0.9,1.2,1.6,2,2.1c0.9,0.5,1.8,0.8,2.9,0.8S643.7,56.9,644.6,56.4z"/>
	<path class="st3" d="M665.7,56h-3.2v5.6h-5.9v-21h9.6c1.9,0,3.5,0.3,5,0.9c1.4,0.6,2.5,1.5,3.2,2.7s1.1,2.5,1.1,4.1
		c0,1.5-0.4,2.8-1.1,4s-1.7,2-3,2.7l4.5,6.6h-6.4L665.7,56z M668.5,46.1c-0.6-0.5-1.5-0.8-2.8-0.8h-3.3v6.1h3.3
		c1.2,0,2.1-0.3,2.8-0.8s0.9-1.3,0.9-2.3C669.4,47.4,669.1,46.6,668.5,46.1z"/>
	<path class="st3" d="M706.4,61.6l-0.1-11.1l-5.4,9.1h-2.6l-5.4-8.8v10.8h-5.5v-21h4.9l7.4,12.1l7.2-12.1h4.9l0.1,21H706.4z"/>
	<path class="st3" d="M716,40.6h5.9v21H716V40.6z"/>
	<path class="st3" d="M746.2,40.6v21h-4.9L732,50.4v11.2h-5.8v-21h4.9l9.3,11.2V40.6H746.2z"/>
	<path class="st3" d="M752.8,59.5c-1.7-1.7-2.6-4.1-2.6-7.2V40.6h5.9v11.5c0,3.4,1.3,5,4,5c2.6,0,4-1.7,4-5V40.6h5.9v11.6
		c0,3.1-0.9,5.5-2.6,7.2c-1.7,1.7-4.2,2.5-7.3,2.5S754.5,61.2,752.8,59.5z"/>
	<path class="st3" d="M778.4,45.3H772v-4.7h18.8v4.7h-6.4v16.3h-5.9V45.3z"/>
	<path class="st3" d="M797.6,60.6c-1.8-0.9-3.2-2.2-4.2-3.9c-1-1.7-1.5-3.5-1.5-5.6s0.5-3.9,1.5-5.6c1-1.7,2.4-3,4.2-3.9
		c1.8-0.9,3.8-1.4,6-1.4c2.2,0,4.2,0.5,6,1.4c1.8,0.9,3.2,2.2,4.2,3.9s1.5,3.5,1.5,5.6s-0.5,4-1.5,5.6c-1,1.7-2.4,3-4.2,3.9
		c-1.8,0.9-3.8,1.4-6,1.4C801.4,62,799.4,61.6,797.6,60.6z M806.5,56.4c0.9-0.5,1.5-1.2,2-2.1c0.5-0.9,0.8-2,0.8-3.1
		c0-1.2-0.3-2.2-0.8-3.1c-0.5-0.9-1.2-1.6-2-2.1c-0.9-0.5-1.8-0.8-2.9-0.8c-1.1,0-2,0.3-2.9,0.8c-0.9,0.5-1.5,1.2-2,2.1
		s-0.8,2-0.8,3.1c0,1.2,0.2,2.2,0.8,3.1c0.5,0.9,1.2,1.6,2,2.1c0.9,0.5,1.8,0.8,2.9,0.8C804.7,57.1,805.6,56.9,806.5,56.4z"/>
	<path class="st3" d="M816.2,67.4c1.3-2.3,2.2-4.6,2.8-6.9c0.6-2.3,0.9-4.7,0.9-7.2s-0.3-4.9-0.9-7.2s-1.5-4.6-2.8-6.9h5.5
		c1.2,1.8,2.2,3.9,2.9,6.3s1,5,1,7.7c0,2.7-0.3,5.3-1,7.7c-0.7,2.4-1.6,4.5-2.9,6.3H816.2z"/>
	<path class="st3" d="M855,57v4.6h-16.9v-21h16.5v4.6h-10.6v3.5h9.3v4.4h-9.3V57H855z"/>
	<path class="st3" d="M877.3,61.6l-0.1-11.1l-5.4,9.1h-2.6l-5.4-8.8v10.8h-5.5v-21h4.9l7.4,12.1l7.2-12.1h4.9l0.1,21H877.3z"/>
	<path class="st3" d="M900.2,60.6c-1.8-0.9-3.1-2.2-4.1-3.9s-1.5-3.5-1.5-5.6s0.5-4,1.5-5.6c1-1.7,2.4-3,4.1-3.9
		c1.8-0.9,3.7-1.4,5.9-1.4c1.9,0,3.6,0.3,5.2,1c1.5,0.7,2.8,1.7,3.8,2.9l-3.8,3.4c-1.4-1.6-3-2.5-5-2.5c-1.1,0-2.2,0.3-3,0.8
		c-0.9,0.5-1.6,1.2-2.1,2.1s-0.7,2-0.7,3.1c0,1.2,0.2,2.2,0.7,3.1c0.5,0.9,1.2,1.6,2.1,2.1c0.9,0.5,1.9,0.8,3,0.8
		c1.9,0,3.6-0.8,5-2.5l3.8,3.4c-1,1.3-2.3,2.3-3.8,2.9s-3.3,1-5.2,1C904,62,902,61.6,900.2,60.6z"/>
	<path class="st3" d="M927,56h-3.2v5.6h-5.9v-21h9.6c1.9,0,3.5,0.3,5,0.9c1.4,0.6,2.5,1.5,3.2,2.7s1.1,2.5,1.1,4.1
		c0,1.5-0.4,2.8-1.1,4s-1.7,2-3,2.7l4.5,6.6h-6.4L927,56z M929.8,46.1c-0.6-0.5-1.5-0.8-2.8-0.8h-3.3v6.1h3.3c1.2,0,2.1-0.3,2.8-0.8
		s0.9-1.3,0.9-2.3C930.8,47.4,930.5,46.6,929.8,46.1z"/>
	<path class="st3" d="M940,40.6h5.9v21H940V40.6z"/>
	<path class="st3" d="M964.3,57.5h-8.9l-1.7,4.1h-6.1l9.3-21h5.9l9.3,21h-6.2L964.3,57.5z M962.5,53.1l-2.7-6.7l-2.7,6.7H962.5z"/>
	<path class="st3" d="M993.8,40.6v21h-4.9l-9.3-11.2v11.2h-5.8v-21h4.9l9.3,11.2V40.6H993.8z"/>
	<path class="st3" d="M1002.5,60.6c-1.8-0.9-3.1-2.2-4.1-3.9s-1.5-3.5-1.5-5.6s0.5-4,1.5-5.6c1-1.7,2.4-3,4.1-3.9
		c1.8-0.9,3.7-1.4,5.9-1.4c1.9,0,3.6,0.3,5.2,1c1.5,0.7,2.8,1.7,3.8,2.9l-3.8,3.4c-1.4-1.6-3-2.5-5-2.5c-1.1,0-2.2,0.3-3,0.8
		c-0.9,0.5-1.6,1.2-2.1,2.1s-0.7,2-0.7,3.1c0,1.2,0.2,2.2,0.7,3.1c0.5,0.9,1.2,1.6,2.1,2.1c0.9,0.5,1.9,0.8,3,0.8
		c1.9,0,3.6-0.8,5-2.5l3.8,3.4c-1,1.3-2.3,2.3-3.8,2.9s-3.3,1-5.2,1C1006.2,62,1004.3,61.6,1002.5,60.6z M1005.1,68.5
		c-0.5-0.1-1-0.3-1.3-0.4l0.8-2.2c0.6,0.3,1.2,0.4,1.9,0.4c1,0,1.5-0.3,1.5-0.8c0-0.5-0.5-0.8-1.4-0.8h-1.1l0.8-3.3h3l-0.4,1.8
		c0.9,0.1,1.5,0.4,1.9,0.8s0.6,1,0.6,1.6c0,1-0.4,1.7-1.3,2.3c-0.9,0.6-2,0.8-3.5,0.8C1006.1,68.7,1005.6,68.6,1005.1,68.5z"/>
	<path class="st3" d="M1034.2,57.5h-8.9l-1.7,4.1h-6.1l9.3-21h5.9l9.3,21h-6.2L1034.2,57.5z M1032.4,53.1l-2.7-6.7l-2.7,6.7H1032.4z
		"/>
	<path class="st3" d="M1046.1,61.4c-1.6-0.4-2.9-1-3.9-1.7l2-4.4c0.9,0.6,2,1.1,3.3,1.5c1.2,0.4,2.5,0.6,3.7,0.6
		c2.3,0,3.4-0.6,3.4-1.7c0-0.6-0.3-1-1-1.3c-0.7-0.3-1.7-0.6-3.1-0.9c-1.6-0.3-2.9-0.7-4-1.1c-1.1-0.4-2-1-2.7-1.9s-1.1-2-1.1-3.5
		c0-1.3,0.3-2.4,1-3.5c0.7-1,1.7-1.8,3.1-2.4s3.1-0.9,5.1-0.9c1.4,0,2.7,0.2,4.1,0.5c1.3,0.3,2.5,0.8,3.5,1.4l-1.8,4.4
		c-2-1.1-3.9-1.6-5.8-1.6c-1.2,0-2,0.2-2.6,0.5c-0.5,0.4-0.8,0.8-0.8,1.4c0,0.6,0.3,1,1,1.3c0.6,0.3,1.7,0.6,3.1,0.9
		c1.6,0.3,2.9,0.7,4,1.1c1.1,0.4,2,1,2.7,1.9c0.8,0.9,1.2,2,1.2,3.5c0,1.3-0.4,2.4-1,3.4c-0.7,1-1.8,1.8-3.2,2.4
		c-1.4,0.6-3.1,0.9-5.1,0.9C1049.4,62,1047.7,61.8,1046.1,61.4z"/>
</g>
<g>
	<path class="st2" d="M429.3,537.6v3.7h6.5v2.6h-6.5v5.1H426v-14h10.6v2.6H429.3z"/>
	<path class="st2" d="M440.7,548.5c-0.9-0.5-1.6-1.1-2.1-2s-0.8-1.8-0.8-2.9c0-1.1,0.3-2,0.8-2.9s1.2-1.5,2.1-2
		c0.9-0.5,1.9-0.7,3.1-0.7s2.1,0.2,3,0.7c0.9,0.5,1.6,1.1,2.1,2c0.5,0.8,0.8,1.8,0.8,2.9c0,1.1-0.3,2-0.8,2.9
		c-0.5,0.8-1.2,1.5-2.1,2c-0.9,0.5-1.9,0.7-3,0.7S441.6,549,440.7,548.5z M445.7,545.8c0.5-0.5,0.8-1.3,0.8-2.2
		c0-0.9-0.3-1.6-0.8-2.2s-1.2-0.8-2-0.8c-0.8,0-1.5,0.3-2,0.8s-0.8,1.3-0.8,2.2c0,0.9,0.3,1.6,0.8,2.2s1.2,0.8,2,0.8
		C444.5,546.6,445.2,546.4,445.7,545.8z"/>
	<path class="st2" d="M461.5,539.3c0.8,0.8,1.2,2,1.2,3.6v6.2h-3.1v-5.7c0-0.9-0.2-1.5-0.6-1.9c-0.4-0.4-0.9-0.6-1.6-0.6
		c-0.8,0-1.4,0.2-1.9,0.7c-0.5,0.5-0.7,1.2-0.7,2.2v5.3h-3.1v-10.8h3v1.3c0.4-0.5,0.9-0.8,1.5-1c0.6-0.2,1.3-0.4,2-0.4
		C459.6,538.1,460.6,538.5,461.5,539.3z"/>
	<path class="st2" d="M472.4,548.5c-0.3,0.2-0.7,0.4-1.1,0.5s-0.9,0.2-1.4,0.2c-1.3,0-2.3-0.3-3-1c-0.7-0.7-1.1-1.6-1.1-2.9v-4.4
		h-1.7v-2.4h1.7v-2.6h3.1v2.6h2.7v2.4H469v4.4c0,0.5,0.1,0.8,0.4,1c0.2,0.2,0.6,0.4,1,0.4c0.5,0,0.9-0.1,1.3-0.4L472.4,548.5z"/>
	<path class="st2" d="M484.7,544.6h-8.1c0.1,0.7,0.5,1.2,1,1.6s1.2,0.6,2,0.6c0.6,0,1.1-0.1,1.5-0.2c0.4-0.2,0.8-0.4,1.2-0.8
		l1.7,1.8c-1,1.2-2.5,1.7-4.4,1.7c-1.2,0-2.3-0.2-3.2-0.7c-0.9-0.5-1.7-1.1-2.2-2s-0.8-1.8-0.8-2.9c0-1.1,0.2-2,0.8-2.9
		s1.2-1.5,2.1-2c0.9-0.5,1.8-0.7,2.9-0.7c1.1,0,2,0.2,2.9,0.7c0.9,0.5,1.5,1.1,2,2c0.5,0.8,0.7,1.8,0.7,3
		C484.7,543.8,484.7,544,484.7,544.6z M477.4,541.1c-0.5,0.4-0.8,0.9-0.9,1.6h5.3c-0.1-0.7-0.4-1.2-0.9-1.6
		c-0.5-0.4-1.1-0.6-1.8-0.6C478.5,540.5,477.9,540.7,477.4,541.1z"/>
	<path class="st2" d="M486.6,541.5c-0.4-0.4-0.6-0.8-0.6-1.4c0-0.6,0.2-1,0.6-1.4c0.4-0.4,0.8-0.5,1.4-0.5c0.5,0,1,0.2,1.4,0.5
		c0.4,0.4,0.6,0.8,0.6,1.4c0,0.6-0.2,1-0.6,1.4c-0.4,0.4-0.8,0.6-1.4,0.6C487.5,542,487,541.8,486.6,541.5z M486.6,548.6
		c-0.4-0.4-0.6-0.8-0.6-1.4c0-0.6,0.2-1,0.6-1.4c0.4-0.4,0.8-0.5,1.4-0.5c0.5,0,1,0.2,1.4,0.5c0.4,0.4,0.6,0.8,0.6,1.4
		c0,0.6-0.2,1-0.6,1.4c-0.4,0.4-0.8,0.6-1.4,0.6C487.5,549.2,487,549,486.6,548.6z"/>
	<path class="st2" d="M507.3,545.3h-7.8l-1.7,3.7h-1.5l6.4-14h1.5l6.4,14H509L507.3,545.3z M506.8,544.1l-3.4-7.5l-3.4,7.5H506.8z"
		/>
	<path class="st2" d="M528.8,539.6c0.8,0.8,1.1,1.9,1.1,3.4v6.1h-1.4v-6c0-1.1-0.3-1.9-0.8-2.5c-0.5-0.6-1.3-0.9-2.2-0.9
		c-1.1,0-2,0.3-2.6,1c-0.6,0.7-0.9,1.6-0.9,2.8v5.5h-1.4v-6c0-1.1-0.3-1.9-0.8-2.5c-0.5-0.6-1.3-0.9-2.2-0.9c-1.1,0-1.9,0.3-2.6,1
		c-0.6,0.7-1,1.6-1,2.8v5.5h-1.4v-10.5h1.4v1.9c0.4-0.6,0.9-1.1,1.6-1.5s1.4-0.5,2.3-0.5c0.9,0,1.6,0.2,2.3,0.6
		c0.6,0.4,1.1,0.9,1.4,1.7c0.4-0.7,0.9-1.2,1.7-1.6c0.7-0.4,1.6-0.6,2.5-0.6C527,538.4,528.1,538.8,528.8,539.6z"/>
	<path class="st2" d="M543,544.2h-8.8c0.1,1.1,0.5,2,1.3,2.7c0.8,0.7,1.7,1,2.9,1c0.7,0,1.3-0.1,1.8-0.3s1-0.6,1.4-1l0.8,0.9
		c-0.5,0.6-1,1-1.8,1.3c-0.7,0.3-1.5,0.4-2.3,0.4c-1.1,0-2-0.2-2.9-0.7c-0.8-0.5-1.5-1.1-1.9-1.9c-0.5-0.8-0.7-1.7-0.7-2.8
		c0-1,0.2-1.9,0.7-2.8c0.4-0.8,1.1-1.4,1.8-1.9s1.7-0.7,2.6-0.7s1.8,0.2,2.6,0.7s1.4,1.1,1.8,1.9c0.4,0.8,0.7,1.7,0.7,2.8L543,544.2
		z M535.4,540.6c-0.7,0.6-1.1,1.5-1.2,2.5h7.5c-0.1-1-0.5-1.9-1.2-2.5s-1.5-1-2.6-1C536.9,539.7,536,540,535.4,540.6z"/>
	<path class="st2" d="M548.8,539c0.7-0.4,1.5-0.5,2.5-0.5v1.4l-0.3,0c-1.1,0-2,0.3-2.6,1c-0.6,0.7-0.9,1.6-0.9,2.9v5.4h-1.4v-10.5
		h1.4v2.1C547.6,539.9,548.1,539.4,548.8,539z"/>
	<path class="st2" d="M553.9,535.9c-0.2-0.2-0.3-0.4-0.3-0.7c0-0.3,0.1-0.5,0.3-0.7s0.4-0.3,0.7-0.3c0.3,0,0.5,0.1,0.7,0.3
		c0.2,0.2,0.3,0.4,0.3,0.7c0,0.3-0.1,0.5-0.3,0.7c-0.2,0.2-0.4,0.3-0.7,0.3C554.4,536.2,554.1,536.1,553.9,535.9z M553.9,538.5h1.4
		v10.5h-1.4V538.5z"/>
	<path class="st2" d="M560.9,548.5c-0.8-0.5-1.5-1.1-1.9-1.9c-0.5-0.8-0.7-1.7-0.7-2.8c0-1,0.2-1.9,0.7-2.8c0.5-0.8,1.1-1.4,1.9-1.9
		s1.8-0.7,2.8-0.7c0.9,0,1.7,0.2,2.4,0.5s1.3,0.9,1.7,1.5l-1.1,0.7c-0.3-0.5-0.8-0.9-1.3-1.2c-0.5-0.3-1.1-0.4-1.7-0.4
		c-0.8,0-1.4,0.2-2,0.5c-0.6,0.3-1.1,0.8-1.4,1.5c-0.3,0.6-0.5,1.3-0.5,2.1c0,0.8,0.2,1.5,0.5,2.1c0.3,0.6,0.8,1.1,1.4,1.4
		c0.6,0.3,1.3,0.5,2,0.5c0.6,0,1.2-0.1,1.7-0.4c0.5-0.3,1-0.6,1.3-1.2l1.1,0.7c-0.4,0.7-1,1.2-1.7,1.5c-0.7,0.4-1.5,0.5-2.4,0.5
		C562.6,549.1,561.7,548.9,560.9,548.5z"/>
	<path class="st2" d="M577.4,539.5c0.7,0.7,1.1,1.7,1.1,3v6.5h-1.4v-1.6c-0.3,0.5-0.8,1-1.4,1.3s-1.4,0.5-2.2,0.5
		c-1.2,0-2.1-0.3-2.8-0.8s-1-1.3-1-2.2c0-0.9,0.3-1.6,1-2.2c0.6-0.5,1.7-0.8,3.1-0.8h3.3v-0.6c0-0.9-0.3-1.6-0.8-2.1
		c-0.5-0.5-1.2-0.7-2.2-0.7c-0.7,0-1.3,0.1-1.9,0.3s-1.1,0.5-1.6,0.9l-0.6-1.1c0.5-0.5,1.2-0.8,1.9-1c0.7-0.2,1.5-0.4,2.4-0.4
		C575.6,538.4,576.7,538.8,577.4,539.5z M575.8,547.5c0.6-0.4,1-0.9,1.3-1.6v-1.7h-3.3c-1.8,0-2.7,0.6-2.7,1.9
		c0,0.6,0.2,1.1,0.7,1.5c0.5,0.4,1.1,0.5,2,0.5C574.5,548,575.2,547.8,575.8,547.5z"/>
	<path class="st2" d="M590.9,539.6c0.8,0.8,1.2,1.9,1.2,3.3v6.1h-1.4v-6c0-1.1-0.3-1.9-0.8-2.5s-1.3-0.9-2.3-0.9c-1.1,0-2,0.3-2.7,1
		c-0.7,0.7-1,1.6-1,2.8v5.5h-1.4v-10.5h1.4v1.9c0.4-0.6,0.9-1.1,1.6-1.5c0.7-0.4,1.5-0.5,2.4-0.5C589,538.4,590.1,538.8,590.9,539.6
		z"/>
	<path class="st2" d="M613.1,535.1v14h-1.5v-6.5h-8.8v6.5h-1.5v-14h1.5v6.2h8.8v-6.2H613.1z"/>
	<path class="st2" d="M626.6,544.2h-8.8c0.1,1.1,0.5,2,1.3,2.7c0.8,0.7,1.7,1,2.9,1c0.7,0,1.3-0.1,1.8-0.3s1-0.6,1.4-1l0.8,0.9
		c-0.5,0.6-1,1-1.8,1.3c-0.7,0.3-1.5,0.4-2.3,0.4c-1.1,0-2-0.2-2.9-0.7c-0.8-0.5-1.5-1.1-2-1.9s-0.7-1.7-0.7-2.8
		c0-1,0.2-1.9,0.7-2.8c0.4-0.8,1.1-1.4,1.8-1.9c0.8-0.5,1.7-0.7,2.6-0.7c1,0,1.8,0.2,2.6,0.7c0.8,0.5,1.4,1.1,1.8,1.9
		c0.4,0.8,0.7,1.7,0.7,2.8L626.6,544.2z M618.9,540.6c-0.7,0.6-1.1,1.5-1.2,2.5h7.5c-0.1-1-0.5-1.9-1.2-2.5s-1.5-1-2.6-1
		C620.5,539.7,619.6,540,618.9,540.6z"/>
	<path class="st2" d="M636.3,539.5c0.7,0.7,1.1,1.7,1.1,3v6.5h-1.4v-1.6c-0.3,0.5-0.8,1-1.4,1.3c-0.6,0.3-1.4,0.5-2.2,0.5
		c-1.2,0-2.1-0.3-2.8-0.8s-1-1.3-1-2.2c0-0.9,0.3-1.6,1-2.2c0.6-0.5,1.7-0.8,3.1-0.8h3.3v-0.6c0-0.9-0.3-1.6-0.8-2.1
		c-0.5-0.5-1.2-0.7-2.2-0.7c-0.7,0-1.3,0.1-1.9,0.3s-1.1,0.5-1.6,0.9l-0.6-1.1c0.5-0.5,1.2-0.8,1.9-1c0.7-0.2,1.5-0.4,2.4-0.4
		C634.5,538.4,635.6,538.8,636.3,539.5z M634.7,547.5c0.6-0.4,1-0.9,1.3-1.6v-1.7h-3.3c-1.8,0-2.7,0.6-2.7,1.9
		c0,0.6,0.2,1.1,0.7,1.5c0.5,0.4,1.1,0.5,2,0.5C633.5,548,634.2,547.8,634.7,547.5z"/>
	<path class="st2" d="M644.1,539c0.7-0.4,1.5-0.5,2.5-0.5v1.4l-0.3,0c-1.1,0-2,0.3-2.6,1c-0.6,0.7-0.9,1.6-0.9,2.9v5.4h-1.4v-10.5
		h1.4v2.1C643,539.9,643.5,539.4,644.1,539z"/>
	<path class="st2" d="M654.8,548.4c-0.3,0.2-0.6,0.4-1,0.6c-0.4,0.1-0.8,0.2-1.2,0.2c-1,0-1.7-0.3-2.3-0.8s-0.8-1.3-0.8-2.3v-6.4
		h-1.9v-1.2h1.9v-2.3h1.4v2.3h3.2v1.2H651v6.3c0,0.6,0.2,1.1,0.5,1.4c0.3,0.3,0.8,0.5,1.3,0.5c0.3,0,0.6,0,0.8-0.1
		c0.3-0.1,0.5-0.2,0.7-0.4L654.8,548.4z"/>
	<path class="st2" d="M671.7,545.3h-7.8l-1.7,3.7h-1.5l6.4-14h1.5l6.4,14h-1.6L671.7,545.3z M671.2,544.1l-3.4-7.5l-3.4,7.5H671.2z"
		/>
	<path class="st2" d="M677.4,548.8c-0.8-0.2-1.4-0.6-1.8-0.9l0.6-1.1c0.4,0.3,1,0.6,1.7,0.8c0.7,0.2,1.4,0.3,2.1,0.3
		c1,0,1.7-0.1,2.1-0.4c0.5-0.3,0.7-0.7,0.7-1.3c0-0.4-0.1-0.7-0.4-0.9c-0.3-0.2-0.6-0.4-1-0.5s-0.9-0.2-1.5-0.3
		c-0.9-0.2-1.5-0.3-2.1-0.5c-0.5-0.2-1-0.5-1.3-0.9c-0.4-0.4-0.5-1-0.5-1.7c0-0.9,0.4-1.6,1.1-2.2c0.7-0.6,1.8-0.8,3.1-0.8
		c0.7,0,1.4,0.1,2,0.3c0.7,0.2,1.2,0.4,1.7,0.7l-0.6,1.1c-0.9-0.6-1.9-0.9-3.1-0.9c-0.9,0-1.6,0.2-2,0.5s-0.7,0.7-0.7,1.3
		c0,0.4,0.1,0.7,0.4,1c0.3,0.2,0.6,0.4,1,0.5s0.9,0.2,1.6,0.4c0.8,0.2,1.5,0.3,2,0.5s0.9,0.4,1.3,0.8c0.4,0.4,0.5,0.9,0.5,1.6
		c0,0.9-0.4,1.7-1.1,2.2c-0.8,0.5-1.8,0.8-3.2,0.8C679,549.1,678.2,549,677.4,548.8z"/>
	<path class="st2" d="M687.2,548.8c-0.8-0.2-1.4-0.6-1.8-0.9l0.6-1.1c0.4,0.3,1,0.6,1.7,0.8c0.7,0.2,1.4,0.3,2.1,0.3
		c1,0,1.7-0.1,2.1-0.4c0.5-0.3,0.7-0.7,0.7-1.3c0-0.4-0.1-0.7-0.4-0.9c-0.3-0.2-0.6-0.4-1-0.5s-0.9-0.2-1.5-0.3
		c-0.9-0.2-1.5-0.3-2.1-0.5c-0.5-0.2-1-0.5-1.3-0.9c-0.4-0.4-0.5-1-0.5-1.7c0-0.9,0.4-1.6,1.1-2.2c0.7-0.6,1.8-0.8,3.1-0.8
		c0.7,0,1.4,0.1,2,0.3c0.7,0.2,1.2,0.4,1.7,0.7l-0.6,1.1c-0.9-0.6-1.9-0.9-3.1-0.9c-0.9,0-1.6,0.2-2,0.5s-0.7,0.7-0.7,1.3
		c0,0.4,0.1,0.7,0.4,1c0.3,0.2,0.6,0.4,1,0.5s0.9,0.2,1.6,0.4c0.8,0.2,1.5,0.3,2,0.5s0.9,0.4,1.3,0.8c0.4,0.4,0.5,0.9,0.5,1.6
		c0,0.9-0.4,1.7-1.1,2.2c-0.8,0.5-1.8,0.8-3.2,0.8C688.7,549.1,687.9,549,687.2,548.8z"/>
	<path class="st2" d="M698.1,548.5c-0.8-0.5-1.5-1.1-1.9-1.9s-0.7-1.7-0.7-2.8c0-1,0.2-1.9,0.7-2.8c0.5-0.8,1.1-1.4,1.9-1.9
		s1.7-0.7,2.7-0.7c1,0,1.9,0.2,2.7,0.7c0.8,0.5,1.5,1.1,1.9,1.9c0.5,0.8,0.7,1.7,0.7,2.8c0,1-0.2,1.9-0.7,2.8s-1.1,1.5-1.9,1.9
		c-0.8,0.5-1.7,0.7-2.7,0.7C699.9,549.1,698.9,548.9,698.1,548.5z M702.9,547.4c0.6-0.3,1.1-0.8,1.4-1.5s0.5-1.3,0.5-2.1
		c0-0.8-0.2-1.5-0.5-2.1c-0.3-0.6-0.8-1.1-1.4-1.5c-0.6-0.3-1.3-0.5-2-0.5c-0.7,0-1.4,0.2-2,0.5c-0.6,0.3-1.1,0.8-1.4,1.5
		c-0.3,0.6-0.5,1.3-0.5,2.1c0,0.8,0.2,1.5,0.5,2.1s0.8,1.1,1.4,1.5c0.6,0.3,1.3,0.5,2,0.5C701.6,547.9,702.3,547.7,702.9,547.4z"/>
	<path class="st2" d="M710.7,548.5c-0.8-0.5-1.5-1.1-1.9-1.9s-0.7-1.7-0.7-2.8c0-1,0.2-1.9,0.7-2.8c0.5-0.8,1.1-1.4,1.9-1.9
		c0.8-0.5,1.8-0.7,2.8-0.7c0.9,0,1.7,0.2,2.4,0.5c0.7,0.4,1.3,0.9,1.7,1.5l-1.1,0.7c-0.3-0.5-0.8-0.9-1.3-1.2
		c-0.5-0.3-1.1-0.4-1.7-0.4c-0.8,0-1.4,0.2-2,0.5c-0.6,0.3-1.1,0.8-1.4,1.5c-0.3,0.6-0.5,1.3-0.5,2.1c0,0.8,0.2,1.5,0.5,2.1
		s0.8,1.1,1.4,1.4s1.3,0.5,2,0.5c0.6,0,1.2-0.1,1.7-0.4s1-0.6,1.3-1.2l1.1,0.7c-0.4,0.7-1,1.2-1.7,1.5c-0.7,0.4-1.5,0.5-2.4,0.5
		C712.4,549.1,711.5,548.9,710.7,548.5z"/>
	<path class="st2" d="M720.3,535.9c-0.2-0.2-0.3-0.4-0.3-0.7c0-0.3,0.1-0.5,0.3-0.7s0.4-0.3,0.7-0.3c0.3,0,0.5,0.1,0.7,0.3
		c0.2,0.2,0.3,0.4,0.3,0.7c0,0.3-0.1,0.5-0.3,0.7c-0.2,0.2-0.4,0.3-0.7,0.3C720.8,536.2,720.5,536.1,720.3,535.9z M720.4,538.5h1.4
		v10.5h-1.4V538.5z"/>
	<path class="st2" d="M732.6,539.5c0.7,0.7,1.1,1.7,1.1,3v6.5h-1.4v-1.6c-0.3,0.5-0.8,1-1.4,1.3c-0.6,0.3-1.4,0.5-2.2,0.5
		c-1.2,0-2.1-0.3-2.8-0.8s-1-1.3-1-2.2c0-0.9,0.3-1.6,1-2.2c0.6-0.5,1.7-0.8,3.1-0.8h3.3v-0.6c0-0.9-0.3-1.6-0.8-2.1
		c-0.5-0.5-1.2-0.7-2.2-0.7c-0.7,0-1.3,0.1-1.9,0.3s-1.1,0.5-1.6,0.9l-0.6-1.1c0.5-0.5,1.2-0.8,1.9-1c0.7-0.2,1.5-0.4,2.4-0.4
		C730.8,538.4,731.9,538.8,732.6,539.5z M731,547.5c0.6-0.4,1-0.9,1.3-1.6v-1.7H729c-1.8,0-2.7,0.6-2.7,1.9c0,0.6,0.2,1.1,0.7,1.5
		c0.5,0.4,1.1,0.5,2,0.5C729.7,548,730.4,547.8,731,547.5z"/>
	<path class="st2" d="M743.1,548.4c-0.3,0.2-0.6,0.4-1,0.6c-0.4,0.1-0.8,0.2-1.2,0.2c-1,0-1.7-0.3-2.3-0.8s-0.8-1.3-0.8-2.3v-6.4
		h-1.9v-1.2h1.9v-2.3h1.4v2.3h3.2v1.2h-3.2v6.3c0,0.6,0.2,1.1,0.5,1.4c0.3,0.3,0.8,0.5,1.3,0.5c0.3,0,0.6,0,0.8-0.1
		c0.3-0.1,0.5-0.2,0.7-0.4L743.1,548.4z"/>
	<path class="st2" d="M745.6,535.9c-0.2-0.2-0.3-0.4-0.3-0.7c0-0.3,0.1-0.5,0.3-0.7s0.4-0.3,0.7-0.3c0.3,0,0.5,0.1,0.7,0.3
		c0.2,0.2,0.3,0.4,0.3,0.7c0,0.3-0.1,0.5-0.3,0.7c-0.2,0.2-0.4,0.3-0.7,0.3C746.1,536.2,745.8,536.1,745.6,535.9z M745.7,538.5h1.4
		v10.5h-1.4V538.5z"/>
	<path class="st2" d="M752.6,548.5c-0.8-0.5-1.5-1.1-1.9-1.9s-0.7-1.7-0.7-2.8c0-1,0.2-1.9,0.7-2.8c0.5-0.8,1.1-1.4,1.9-1.9
		s1.7-0.7,2.7-0.7c1,0,1.9,0.2,2.7,0.7c0.8,0.5,1.5,1.1,1.9,1.9c0.5,0.8,0.7,1.7,0.7,2.8c0,1-0.2,1.9-0.7,2.8s-1.1,1.5-1.9,1.9
		c-0.8,0.5-1.7,0.7-2.7,0.7C754.3,549.1,753.4,548.9,752.6,548.5z M757.4,547.4c0.6-0.3,1.1-0.8,1.4-1.5s0.5-1.3,0.5-2.1
		c0-0.8-0.2-1.5-0.5-2.1c-0.3-0.6-0.8-1.1-1.4-1.5c-0.6-0.3-1.3-0.5-2-0.5c-0.7,0-1.4,0.2-2,0.5c-0.6,0.3-1.1,0.8-1.4,1.5
		c-0.3,0.6-0.5,1.3-0.5,2.1c0,0.8,0.2,1.5,0.5,2.1s0.8,1.1,1.4,1.5c0.6,0.3,1.3,0.5,2,0.5C756.1,547.9,756.8,547.7,757.4,547.4z"/>
	<path class="st2" d="M772.1,539.6c0.8,0.8,1.2,1.9,1.2,3.3v6.1h-1.4v-6c0-1.1-0.3-1.9-0.8-2.5s-1.3-0.9-2.3-0.9c-1.1,0-2,0.3-2.7,1
		c-0.7,0.7-1,1.6-1,2.8v5.5h-1.4v-10.5h1.4v1.9c0.4-0.6,0.9-1.1,1.6-1.5c0.7-0.4,1.5-0.5,2.4-0.5
		C770.3,538.4,771.3,538.8,772.1,539.6z"/>
	<path class="st2" d="M778,547.3c0.2,0.2,0.3,0.5,0.3,0.8c0,0.2,0,0.3-0.1,0.5c0,0.2-0.1,0.4-0.2,0.6l-0.8,2.8h-1l0.7-2.9
		c-0.2-0.1-0.4-0.2-0.5-0.4c-0.1-0.2-0.2-0.4-0.2-0.6c0-0.3,0.1-0.6,0.3-0.8c0.2-0.2,0.5-0.3,0.8-0.3S777.8,547.1,778,547.3z"/>
	<path class="st2" d="M795.2,547.8v1.3h-9.8v-1l5.8-5.7c0.7-0.7,1.2-1.3,1.5-1.9c0.3-0.5,0.4-1.1,0.4-1.6c0-0.8-0.3-1.5-0.9-1.9
		s-1.4-0.7-2.4-0.7c-1.6,0-2.9,0.5-3.8,1.6l-1-0.9c0.5-0.6,1.2-1.1,2.1-1.5c0.8-0.3,1.8-0.5,2.9-0.5c1.4,0,2.6,0.3,3.4,1
		c0.8,0.7,1.2,1.6,1.2,2.8c0,0.7-0.2,1.4-0.5,2.1c-0.3,0.7-0.9,1.4-1.8,2.3l-4.8,4.7H795.2z"/>
	<path class="st2" d="M799.7,548.3c-0.8-0.6-1.5-1.4-2-2.5c-0.5-1.1-0.7-2.3-0.7-3.8s0.2-2.7,0.7-3.8c0.5-1.1,1.1-1.9,2-2.5
		c0.8-0.6,1.8-0.9,2.9-0.9s2,0.3,2.9,0.9s1.5,1.4,2,2.5s0.7,2.3,0.7,3.8s-0.2,2.7-0.7,3.8s-1.1,1.9-2,2.5s-1.8,0.9-2.9,0.9
		S800.6,548.9,799.7,548.3z M804.8,547.2c0.6-0.5,1.1-1.1,1.5-2c0.3-0.9,0.5-1.9,0.5-3.1s-0.2-2.3-0.5-3.1c-0.3-0.9-0.8-1.5-1.5-2
		c-0.6-0.5-1.3-0.7-2.1-0.7s-1.5,0.2-2.2,0.7s-1.1,1.1-1.5,2c-0.3,0.9-0.5,1.9-0.5,3.1s0.2,2.3,0.5,3.1c0.3,0.9,0.8,1.5,1.5,2
		s1.3,0.7,2.2,0.7S804.1,547.6,804.8,547.2z"/>
	<path class="st2" d="M814.1,535.1v14h-1.4v-12.7h-3.3v-1.3H814.1z"/>
	<path class="st2" d="M825.6,541.9c0.9,0.7,1.4,1.7,1.4,3c0,0.8-0.2,1.5-0.6,2.2c-0.4,0.6-1,1.1-1.7,1.5c-0.8,0.4-1.7,0.6-2.8,0.6
		c-1,0-2-0.2-2.8-0.5c-0.9-0.3-1.6-0.8-2.2-1.3l0.7-1.1c0.5,0.5,1.1,0.9,1.8,1.2c0.8,0.3,1.6,0.5,2.5,0.5c1.2,0,2.1-0.3,2.7-0.8
		c0.6-0.5,1-1.2,1-2.1c0-1-0.4-1.7-1.1-2.2s-1.9-0.7-3.6-0.7h-3l0.7-7h7.7v1.3h-6.4l-0.5,4.5h1.8
		C823.2,540.8,824.7,541.2,825.6,541.9z"/>
	<path class="st2" d="M829.1,548.8c-0.2-0.2-0.3-0.5-0.3-0.8s0.1-0.6,0.3-0.8c0.2-0.2,0.5-0.3,0.8-0.3c0.3,0,0.5,0.1,0.8,0.3
		c0.2,0.2,0.3,0.5,0.3,0.8s-0.1,0.6-0.3,0.8c-0.2,0.2-0.5,0.3-0.8,0.3C829.6,549.1,829.3,549,829.1,548.8z"/>
</g>
<line class="st1" x1="358.6" y1="89.6" x2="358.6" y2="506.3"/>
<line class="st1" x1="806.3" y1="89.6" x2="806.3" y2="506.3"/>
<line class="st1" x1="19" y1="160.4" x2="1228.5" y2="160.4"/>
<g>
	<path class="st2" d="M89.4,123.5H94v16.1h-4.6V123.5z"/>
	<path class="st2" d="M97.2,123.5h7.6c1.8,0,3.3,0.3,4.7,1s2.4,1.6,3.2,2.8c0.8,1.2,1.1,2.6,1.1,4.3s-0.4,3-1.1,4.3
		c-0.8,1.2-1.8,2.1-3.2,2.8s-2.9,1-4.7,1h-7.6V123.5z M104.7,136c1.4,0,2.5-0.4,3.3-1.2c0.8-0.8,1.3-1.9,1.3-3.2
		c0-1.4-0.4-2.5-1.3-3.2c-0.8-0.8-1.9-1.2-3.3-1.2h-2.9v8.8H104.7z"/>
	<path class="st2" d="M127,136.5h-6.8l-1.3,3.1h-4.6l7.1-16.1h4.5l7.1,16.1h-4.7L127,136.5z M125.7,133.1l-2.1-5.2l-2.1,5.2H125.7z"
		/>
	<path class="st2" d="M134.3,123.5h7.6c1.8,0,3.3,0.3,4.7,1c1.4,0.7,2.4,1.6,3.2,2.8c0.8,1.2,1.1,2.6,1.1,4.3s-0.4,3-1.1,4.3
		c-0.8,1.2-1.8,2.1-3.2,2.8c-1.4,0.7-2.9,1-4.7,1h-7.6V123.5z M141.7,136c1.4,0,2.5-0.4,3.3-1.2c0.8-0.8,1.3-1.9,1.3-3.2
		c0-1.4-0.4-2.5-1.3-3.2c-0.8-0.8-1.9-1.2-3.3-1.2h-2.9v8.8H141.7z"/>
	<path class="st2" d="M166.2,136.1v3.5h-12.9v-16.1h12.6v3.5h-8.1v2.7h7.2v3.4h-7.2v2.9H166.2z"/>
	<path class="st2" d="M434.3,127v3.5h7.1v3.5h-7.1v5.5h-4.6v-16.1h12.6v3.5H434.3z"/>
	<path class="st2" d="M451.6,135.3h-2.5v4.3h-4.6v-16.1h7.4c1.5,0,2.7,0.2,3.8,0.7s1.9,1.2,2.5,2.1s0.9,2,0.9,3.2
		c0,1.2-0.3,2.2-0.8,3c-0.5,0.9-1.3,1.5-2.3,2l3.5,5.1h-4.9L451.6,135.3z M453.7,127.7c-0.5-0.4-1.2-0.6-2.1-0.6h-2.5v4.7h2.5
		c0.9,0,1.6-0.2,2.1-0.6c0.5-0.4,0.7-1,0.7-1.7C454.4,128.7,454.2,128.1,453.7,127.7z"/>
	<path class="st2" d="M474.5,136.1v3.5h-12.9v-16.1h12.6v3.5h-8.1v2.7h7.2v3.4h-7.2v2.9H474.5z"/>
	<path class="st2" d="M494.9,141.5c-0.5,0.7-1.2,1.2-2,1.5c-0.8,0.3-1.6,0.5-2.5,0.5c-0.9,0-1.7-0.1-2.4-0.3s-1.4-0.6-2.2-1.1
		c-0.7-0.5-1.5-1.3-2.4-2.2c-1.4-0.2-2.6-0.7-3.7-1.5c-1.1-0.8-1.9-1.7-2.5-2.9c-0.6-1.2-0.9-2.4-0.9-3.8c0-1.6,0.4-3,1.2-4.3
		c0.8-1.3,1.8-2.3,3.2-3c1.4-0.7,2.9-1.1,4.6-1.1c1.7,0,3.2,0.4,4.6,1.1c1.4,0.7,2.4,1.7,3.2,3c0.8,1.3,1.2,2.7,1.2,4.3
		c0,1.8-0.5,3.4-1.5,4.8s-2.3,2.4-4,3c0.3,0.3,0.6,0.6,0.9,0.7s0.6,0.2,1,0.2c0.9,0,1.7-0.4,2.4-1.1L494.9,141.5z M481.4,134
		c0.4,0.7,0.9,1.2,1.6,1.6c0.7,0.4,1.4,0.6,2.2,0.6c0.8,0,1.5-0.2,2.2-0.6s1.2-0.9,1.6-1.6c0.4-0.7,0.6-1.5,0.6-2.4
		s-0.2-1.7-0.6-2.4c-0.4-0.7-0.9-1.2-1.6-1.6c-0.7-0.4-1.4-0.6-2.2-0.6c-0.8,0-1.5,0.2-2.2,0.6c-0.7,0.4-1.2,0.9-1.6,1.6
		c-0.4,0.7-0.6,1.5-0.6,2.4S481,133.3,481.4,134z"/>
	<path class="st2" d="M498.3,138c-1.3-1.3-2-3.2-2-5.5v-8.9h4.6v8.8c0,2.6,1,3.9,3.1,3.9c2,0,3-1.3,3-3.9v-8.8h4.5v8.9
		c0,2.4-0.7,4.2-2,5.5s-3.2,2-5.6,2S499.6,139.3,498.3,138z"/>
	<path class="st2" d="M527.5,136.1v3.5h-12.9v-16.1h12.6v3.5h-8.1v2.7h7.2v3.4h-7.2v2.9H527.5z M522.8,122.2l-2-1.7l-2,1.7H516
		l3-3.5h3.8l3,3.5H522.8z"/>
	<path class="st2" d="M545.3,123.5v16.1h-3.7l-7.1-8.6v8.6H530v-16.1h3.7l7.1,8.6v-8.6H545.3z"/>
	<path class="st2" d="M552,138.9c-1.3-0.7-2.4-1.7-3.2-3c-0.8-1.3-1.1-2.7-1.1-4.3c0-1.6,0.4-3.1,1.1-4.3c0.8-1.3,1.8-2.3,3.2-3
		s2.9-1.1,4.5-1.1c1.5,0,2.8,0.3,4,0.8c1.2,0.5,2.2,1.3,2.9,2.3l-2.9,2.6c-1-1.3-2.3-1.9-3.8-1.9c-0.9,0-1.7,0.2-2.3,0.6
		c-0.7,0.4-1.2,0.9-1.6,1.6c-0.4,0.7-0.6,1.5-0.6,2.4s0.2,1.7,0.6,2.4s0.9,1.2,1.6,1.6s1.5,0.6,2.3,0.6c1.5,0,2.8-0.6,3.8-1.9
		l2.9,2.6c-0.8,1-1.8,1.7-2.9,2.3s-2.5,0.8-4,0.8C554.9,139.9,553.4,139.6,552,138.9z"/>
	<path class="st2" d="M565.5,123.5h4.6v16.1h-4.6V123.5z"/>
	<path class="st2" d="M584.1,136.5h-6.8l-1.3,3.1h-4.6l7.1-16.1h4.5l7.1,16.1h-4.7L584.1,136.5z M582.8,133.1l-2.1-5.2l-2.1,5.2
		H582.8z"/>
	<path class="st2" d="M611,136.1v3.5h-12.9v-16.1h12.6v3.5h-8.1v2.7h7.2v3.4h-7.2v2.9H611z"/>
	<path class="st2" d="M628.1,139.6l0-8.5l-4.1,6.9h-2l-4.1-6.7v8.3h-4.2v-16.1h3.7l5.7,9.3l5.5-9.3h3.7l0,16.1H628.1z"/>
	<path class="st2" d="M658.5,123.5l-6.9,16.1h-4.5l-6.9-16.1h4.9l4.4,10.5l4.5-10.5H658.5z"/>
	<path class="st2" d="M659.8,123.5h4.6v16.1h-4.6V123.5z"/>
	<path class="st2" d="M678.4,131.2h4v6.7c-0.9,0.7-2,1.2-3.2,1.5s-2.4,0.5-3.6,0.5c-1.7,0-3.2-0.4-4.6-1.1c-1.3-0.7-2.4-1.7-3.2-3
		c-0.8-1.3-1.1-2.7-1.1-4.3c0-1.6,0.4-3.1,1.1-4.3c0.8-1.3,1.8-2.3,3.2-3c1.4-0.7,2.9-1.1,4.6-1.1c1.5,0,2.9,0.3,4,0.8
		s2.2,1.2,3,2.2l-2.9,2.6c-1.1-1.2-2.4-1.8-3.9-1.8c-1.4,0-2.5,0.4-3.3,1.3c-0.8,0.8-1.3,2-1.3,3.3c0,0.9,0.2,1.7,0.6,2.4
		c0.4,0.7,0.9,1.2,1.6,1.6c0.7,0.4,1.5,0.6,2.4,0.6c0.9,0,1.7-0.2,2.5-0.5V131.2z"/>
	<path class="st2" d="M685.3,123.5h4.6v16.1h-4.6V123.5z M688.4,118.7h4.4l-4.3,3.5h-3.1L688.4,118.7z"/>
	<path class="st2" d="M693.1,123.5h4.6V136h7.7v3.6h-12.2V123.5z"/>
	<path class="st2" d="M707.1,123.5h4.6v16.1h-4.6V123.5z"/>
	<path class="st2" d="M725.7,136.5h-6.8l-1.3,3.1H713l7.1-16.1h4.5l7.1,16.1H727L725.7,136.5z M724.4,133.1l-2.1-5.2l-2.1,5.2H724.4
		z"/>
	<path class="st2" d="M891.5,127v3.5h7.1v3.5h-7.1v5.5h-4.6v-16.1h12.6v3.5H891.5z"/>
	<path class="st2" d="M908.7,135.3h-2.5v4.3h-4.6v-16.1h7.4c1.5,0,2.7,0.2,3.8,0.7s1.9,1.2,2.5,2.1s0.9,2,0.9,3.2
		c0,1.2-0.3,2.2-0.8,3c-0.5,0.9-1.3,1.5-2.3,2l3.5,5.1h-4.9L908.7,135.3z M910.9,127.7c-0.5-0.4-1.2-0.6-2.1-0.6h-2.5v4.7h2.5
		c0.9,0,1.6-0.2,2.1-0.6c0.5-0.4,0.7-1,0.7-1.7C911.6,128.7,911.4,128.1,910.9,127.7z"/>
	<path class="st2" d="M931.6,136.1v3.5h-12.9v-16.1h12.6v3.5h-8.1v2.7h7.2v3.4h-7.2v2.9H931.6z"/>
	<path class="st2" d="M952.1,141.5c-0.5,0.7-1.2,1.2-2,1.5c-0.8,0.3-1.6,0.5-2.5,0.5c-0.9,0-1.7-0.1-2.4-0.3s-1.4-0.6-2.2-1.1
		c-0.7-0.5-1.5-1.3-2.4-2.2c-1.4-0.2-2.6-0.7-3.7-1.5c-1.1-0.8-1.9-1.7-2.5-2.9c-0.6-1.2-0.9-2.4-0.9-3.8c0-1.6,0.4-3,1.2-4.3
		c0.8-1.3,1.8-2.3,3.2-3c1.4-0.7,2.9-1.1,4.6-1.1c1.7,0,3.2,0.4,4.6,1.1c1.4,0.7,2.4,1.7,3.2,3c0.8,1.3,1.2,2.7,1.2,4.3
		c0,1.8-0.5,3.4-1.5,4.8s-2.3,2.4-4,3c0.3,0.3,0.6,0.6,0.9,0.7s0.6,0.2,1,0.2c0.9,0,1.7-0.4,2.4-1.1L952.1,141.5z M938.5,134
		c0.4,0.7,0.9,1.2,1.6,1.6c0.7,0.4,1.4,0.6,2.2,0.6c0.8,0,1.5-0.2,2.2-0.6s1.2-0.9,1.6-1.6c0.4-0.7,0.6-1.5,0.6-2.4
		s-0.2-1.7-0.6-2.4c-0.4-0.7-0.9-1.2-1.6-1.6c-0.7-0.4-1.4-0.6-2.2-0.6c-0.8,0-1.5,0.2-2.2,0.6c-0.7,0.4-1.2,0.9-1.6,1.6
		c-0.4,0.7-0.6,1.5-0.6,2.4S938.1,133.3,938.5,134z"/>
	<path class="st2" d="M955.5,138c-1.3-1.3-2-3.2-2-5.5v-8.9h4.6v8.8c0,2.6,1,3.9,3.1,3.9c2,0,3-1.3,3-3.9v-8.8h4.5v8.9
		c0,2.4-0.7,4.2-2,5.5s-3.2,2-5.6,2S956.8,139.3,955.5,138z"/>
	<path class="st2" d="M984.6,136.1v3.5h-12.9v-16.1h12.6v3.5h-8.1v2.7h7.2v3.4h-7.2v2.9H984.6z M980,122.2l-2-1.7l-2,1.7h-2.9l3-3.5
		h3.8l3,3.5H980z"/>
	<path class="st2" d="M1002.5,123.5v16.1h-3.7l-7.1-8.6v8.6h-4.5v-16.1h3.7l7.1,8.6v-8.6H1002.5z"/>
	<path class="st2" d="M1009.2,138.9c-1.3-0.7-2.4-1.7-3.2-3c-0.8-1.3-1.1-2.7-1.1-4.3c0-1.6,0.4-3.1,1.1-4.3c0.8-1.3,1.8-2.3,3.2-3
		s2.9-1.1,4.5-1.1c1.5,0,2.8,0.3,4,0.8c1.2,0.5,2.2,1.3,2.9,2.3l-2.9,2.6c-1-1.3-2.3-1.9-3.8-1.9c-0.9,0-1.7,0.2-2.3,0.6
		c-0.7,0.4-1.2,0.9-1.6,1.6c-0.4,0.7-0.6,1.5-0.6,2.4s0.2,1.7,0.6,2.4s0.9,1.2,1.6,1.6s1.5,0.6,2.3,0.6c1.5,0,2.8-0.6,3.8-1.9
		l2.9,2.6c-0.8,1-1.8,1.7-2.9,2.3s-2.5,0.8-4,0.8C1012,139.9,1010.5,139.6,1009.2,138.9z"/>
	<path class="st2" d="M1022.7,123.5h4.6v16.1h-4.6V123.5z"/>
	<path class="st2" d="M1041.3,136.5h-6.8l-1.3,3.1h-4.6l7.1-16.1h4.5l7.1,16.1h-4.7L1041.3,136.5z M1039.9,133.1l-2.1-5.2l-2.1,5.2
		H1039.9z"/>
	<path class="st2" d="M1068.2,136.1v3.5h-12.9v-16.1h12.6v3.5h-8.1v2.7h7.2v3.4h-7.2v2.9H1068.2z"/>
	<path class="st2" d="M1085.2,139.6l0-8.5l-4.1,6.9h-2l-4.1-6.7v8.3h-4.2v-16.1h3.7l5.7,9.3l5.5-9.3h3.7l0,16.1H1085.2z"/>
	<path class="st2" d="M1101.2,139.5c-1.2-0.3-2.2-0.8-3-1.3l1.5-3.4c0.7,0.5,1.6,0.9,2.5,1.1c1,0.3,1.9,0.4,2.8,0.4
		c1.7,0,2.6-0.4,2.6-1.3c0-0.5-0.2-0.8-0.7-1c-0.5-0.2-1.3-0.5-2.4-0.7c-1.2-0.3-2.2-0.5-3-0.8c-0.8-0.3-1.5-0.8-2.1-1.4
		c-0.6-0.7-0.9-1.5-0.9-2.7c0-1,0.3-1.9,0.8-2.7c0.5-0.8,1.3-1.4,2.4-1.9c1.1-0.5,2.4-0.7,3.9-0.7c1.1,0,2.1,0.1,3.1,0.4
		s1.9,0.6,2.7,1l-1.4,3.4c-1.5-0.8-3-1.2-4.5-1.2c-0.9,0-1.6,0.1-2,0.4c-0.4,0.3-0.6,0.6-0.6,1c0,0.4,0.2,0.8,0.7,1
		c0.5,0.2,1.3,0.4,2.4,0.7c1.2,0.3,2.2,0.5,3,0.8c0.8,0.3,1.5,0.8,2.1,1.4c0.6,0.7,0.9,1.5,0.9,2.7c0,1-0.3,1.8-0.8,2.6
		c-0.5,0.8-1.3,1.4-2.4,1.9c-1.1,0.5-2.4,0.7-3.9,0.7C1103.7,139.9,1102.4,139.8,1101.2,139.5z"/>
	<path class="st2" d="M1117.7,138.9c-1.4-0.7-2.4-1.7-3.2-3c-0.8-1.3-1.2-2.7-1.2-4.3s0.4-3,1.2-4.3c0.8-1.3,1.8-2.3,3.2-3
		c1.4-0.7,2.9-1.1,4.6-1.1c1.7,0,3.2,0.4,4.6,1.1c1.4,0.7,2.4,1.7,3.2,3c0.8,1.3,1.2,2.7,1.2,4.3s-0.4,3-1.2,4.3
		c-0.8,1.3-1.8,2.3-3.2,3c-1.4,0.7-2.9,1.1-4.6,1.1C1120.6,139.9,1119.1,139.6,1117.7,138.9z M1124.5,135.6c0.7-0.4,1.2-0.9,1.6-1.6
		c0.4-0.7,0.6-1.5,0.6-2.4s-0.2-1.7-0.6-2.4c-0.4-0.7-0.9-1.2-1.6-1.6c-0.7-0.4-1.4-0.6-2.2-0.6c-0.8,0-1.5,0.2-2.2,0.6
		c-0.7,0.4-1.2,0.9-1.6,1.6c-0.4,0.7-0.6,1.5-0.6,2.4s0.2,1.7,0.6,2.4c0.4,0.7,0.9,1.2,1.6,1.6c0.7,0.4,1.4,0.6,2.2,0.6
		C1123.1,136.2,1123.9,136,1124.5,135.6z"/>
	<path class="st2" d="M1149,123.5v16.1h-3.7l-7.1-8.6v8.6h-4.5v-16.1h3.7l7.1,8.6v-8.6H1149z"/>
	<path class="st2" d="M1155.7,138.9c-1.4-0.7-2.4-1.7-3.2-3c-0.8-1.3-1.2-2.7-1.2-4.3s0.4-3,1.2-4.3c0.8-1.3,1.8-2.3,3.2-3
		c1.4-0.7,2.9-1.1,4.6-1.1c1.7,0,3.2,0.4,4.6,1.1c1.4,0.7,2.4,1.7,3.2,3c0.8,1.3,1.2,2.7,1.2,4.3s-0.4,3-1.2,4.3
		c-0.8,1.3-1.8,2.3-3.2,3c-1.4,0.7-2.9,1.1-4.6,1.1C1158.6,139.9,1157.1,139.6,1155.7,138.9z M1162.5,135.6c0.7-0.4,1.2-0.9,1.6-1.6
		c0.4-0.7,0.6-1.5,0.6-2.4s-0.2-1.7-0.6-2.4c-0.4-0.7-0.9-1.2-1.6-1.6c-0.7-0.4-1.4-0.6-2.2-0.6c-0.8,0-1.5,0.2-2.2,0.6
		c-0.7,0.4-1.2,0.9-1.6,1.6c-0.4,0.7-0.6,1.5-0.6,2.4s0.2,1.7,0.6,2.4c0.4,0.7,0.9,1.2,1.6,1.6c0.7,0.4,1.4,0.6,2.2,0.6
		C1161.1,136.2,1161.9,136,1162.5,135.6z"/>
</g>
<line class="st4" x1="19" y1="505.4" x2="1230.3" y2="505.4"/>
<g>
	<path d="M62,196.6c0.9,0.9,1.3,1.9,1.3,3.3c0,1-0.2,1.8-0.7,2.6s-1.2,1.4-2.1,1.8s-2.1,0.7-3.5,0.7c-1.2,0-2.4-0.2-3.5-0.5
		c-1.1-0.4-2-0.9-2.7-1.5l1.1-1.9c0.6,0.5,1.3,1,2.2,1.3c0.9,0.3,1.8,0.5,2.9,0.5c1.2,0,2.2-0.3,2.9-0.8c0.7-0.5,1-1.3,1-2.2
		c0-0.9-0.3-1.6-1-2.2c-0.7-0.5-1.7-0.8-3.1-0.8h-1.3v-1.7l4.2-5.2h-8.1V188h11.1v1.6l-4.4,5.4C59.8,195.3,61.1,195.8,62,196.6z"/>
	<path d="M68.8,204c-1-0.7-1.8-1.7-2.4-3c-0.6-1.3-0.9-2.8-0.9-4.6s0.3-3.3,0.9-4.6c0.6-1.3,1.4-2.3,2.4-3c1-0.7,2.2-1,3.5-1
		c1.3,0,2.5,0.3,3.5,1c1,0.7,1.8,1.7,2.4,3c0.6,1.3,0.9,2.8,0.9,4.6s-0.3,3.3-0.9,4.6s-1.4,2.3-2.4,3c-1,0.7-2.2,1-3.5,1
		C71,205,69.8,204.7,68.8,204z M75.6,201.2c0.8-1.1,1.2-2.7,1.2-4.8s-0.4-3.7-1.2-4.8c-0.8-1.1-1.9-1.7-3.2-1.7
		c-1.4,0-2.4,0.6-3.3,1.7c-0.8,1.1-1.2,2.7-1.2,4.8s0.4,3.7,1.2,4.8c0.8,1.1,1.9,1.7,3.3,1.7C73.7,202.9,74.8,202.3,75.6,201.2z"/>
	<path d="M108.7,193.4c0.9,0.9,1.4,2.3,1.4,4.1v7.3h-2.3v-7.1c0-1.2-0.3-2.2-0.9-2.8s-1.4-0.9-2.4-0.9c-1.2,0-2.1,0.4-2.8,1.1
		c-0.7,0.7-1,1.8-1,3.1v6.6h-2.3v-7.1c0-1.2-0.3-2.2-0.9-2.8c-0.6-0.6-1.4-0.9-2.4-0.9c-1.2,0-2.1,0.4-2.8,1.1c-0.7,0.7-1,1.8-1,3.1
		v6.6H89v-12.7h2.2v1.9c0.5-0.7,1.1-1.2,1.8-1.5c0.8-0.3,1.6-0.5,2.6-0.5c1,0,1.9,0.2,2.6,0.6c0.8,0.4,1.4,1,1.8,1.8
		c0.5-0.7,1.1-1.3,2-1.7c0.9-0.4,1.8-0.6,2.9-0.6C106.5,192,107.8,192.5,108.7,193.4z"/>
	<path d="M126.5,192.1v11c0,2.2-0.6,3.9-1.7,4.9c-1.1,1.1-2.8,1.6-4.9,1.6c-1.2,0-2.3-0.2-3.4-0.5c-1.1-0.3-2-0.8-2.6-1.4l1.1-1.8
		c0.6,0.5,1.3,0.9,2.2,1.2s1.8,0.4,2.7,0.4c1.5,0,2.6-0.4,3.3-1.1c0.7-0.7,1.1-1.8,1.1-3.2v-1c-0.5,0.7-1.2,1.1-2,1.5
		c-0.8,0.3-1.7,0.5-2.6,0.5c-1.2,0-2.3-0.3-3.3-0.8c-1-0.5-1.8-1.2-2.3-2.2c-0.6-0.9-0.8-2-0.8-3.2c0-1.2,0.3-2.3,0.8-3.2
		c0.6-0.9,1.3-1.7,2.3-2.2s2.1-0.8,3.3-0.8c1,0,1.9,0.2,2.7,0.5c0.8,0.4,1.5,0.9,2,1.6v-2H126.5z M122.1,201.8
		c0.7-0.4,1.2-0.8,1.6-1.5c0.4-0.6,0.6-1.3,0.6-2.1c0-1.2-0.4-2.2-1.2-3c-0.8-0.8-1.9-1.1-3.1-1.1c-1.3,0-2.4,0.4-3.2,1.1
		c-0.8,0.8-1.2,1.8-1.2,3c0,0.8,0.2,1.5,0.6,2.1c0.4,0.6,0.9,1.1,1.6,1.5c0.7,0.4,1.4,0.5,2.3,0.5
		C120.7,202.3,121.5,202.1,122.1,201.8z"/>
	<path d="M132.6,202.2c0.3,0.3,0.4,0.7,0.4,1.2c0,0.2,0,0.5-0.1,0.7s-0.2,0.6-0.3,1l-1.1,3.3H130l0.9-3.6c-0.3-0.1-0.5-0.3-0.7-0.6
		c-0.2-0.3-0.3-0.6-0.3-0.9c0-0.5,0.2-0.9,0.5-1.2c0.3-0.3,0.7-0.5,1.2-0.5C131.9,201.7,132.3,201.9,132.6,202.2z"/>
	<path d="M147,188v16.8h-2.4v-14.7h-3.8V188H147z"/>
	<path d="M162.5,202.8v2.1h-12.1v-1.6l6.8-6.6c0.8-0.8,1.4-1.5,1.7-2.1c0.3-0.6,0.4-1.2,0.4-1.8c0-0.9-0.3-1.6-0.9-2.1
		c-0.6-0.5-1.5-0.7-2.7-0.7c-1.9,0-3.3,0.6-4.3,1.8l-1.6-1.4c0.7-0.8,1.5-1.4,2.6-1.9c1.1-0.4,2.3-0.7,3.6-0.7
		c1.8,0,3.2,0.4,4.2,1.3c1,0.8,1.6,2,1.6,3.4c0,0.9-0.2,1.7-0.6,2.5c-0.4,0.8-1.1,1.7-2.2,2.7l-5.1,4.9H162.5z"/>
	<path d="M170.5,184.6h2.1l-7.9,22.6h-2.1L170.5,184.6z"/>
	<path d="M178.1,188v16.8h-2.4v-14.7h-3.8V188H178.1z"/>
	<path d="M193.6,202.8v2.1h-12.1v-1.6l6.8-6.6c0.8-0.8,1.4-1.5,1.7-2.1c0.3-0.6,0.4-1.2,0.4-1.8c0-0.9-0.3-1.6-0.9-2.1
		c-0.6-0.5-1.5-0.7-2.7-0.7c-1.9,0-3.3,0.6-4.3,1.8l-1.6-1.4c0.7-0.8,1.5-1.4,2.6-1.9c1.1-0.4,2.3-0.7,3.6-0.7
		c1.8,0,3.2,0.4,4.2,1.3c1,0.8,1.6,2,1.6,3.4c0,0.9-0.2,1.7-0.6,2.5c-0.4,0.8-1.1,1.7-2.2,2.7l-5.1,4.9H193.6z"/>
	<path d="M207.2,193.4c1,0.9,1.4,2.3,1.4,4.1v7.3h-2.3v-7.1c0-1.2-0.3-2.2-0.9-2.8c-0.6-0.6-1.4-0.9-2.5-0.9c-1.2,0-2.2,0.4-3,1.1
		c-0.7,0.7-1.1,1.8-1.1,3.1v6.6h-2.3V187h2.3v6.9c0.5-0.6,1.1-1.1,1.9-1.4c0.8-0.3,1.6-0.5,2.6-0.5C205,192,206.3,192.5,207.2,193.4
		z"/>
	<path d="M214.6,202.2c0.3,0.3,0.4,0.7,0.4,1.2c0,0.2,0,0.5-0.1,0.7s-0.2,0.6-0.3,1l-1.1,3.3H212l0.9-3.6c-0.3-0.1-0.5-0.3-0.7-0.6
		c-0.2-0.3-0.3-0.6-0.3-0.9c0-0.5,0.2-0.9,0.5-1.2c0.3-0.3,0.7-0.5,1.2-0.5C213.9,201.7,214.3,201.9,214.6,202.2z"/>
	<path d="M233.9,196.1c1.1,0.9,1.7,2.1,1.7,3.7c0,1-0.2,1.9-0.7,2.7c-0.5,0.8-1.2,1.4-2.1,1.9s-2.1,0.7-3.5,0.7
		c-1.2,0-2.3-0.2-3.4-0.5c-1.1-0.4-2-0.9-2.7-1.5l1.1-1.9c0.6,0.5,1.3,1,2.2,1.3c0.9,0.3,1.8,0.5,2.8,0.5c1.3,0,2.2-0.3,2.9-0.8
		c0.7-0.5,1-1.3,1-2.2c0-1-0.4-1.8-1.2-2.3c-0.8-0.5-2.1-0.8-3.9-0.8h-3.8l0.9-8.8h9.5v2.1h-7.5l-0.5,4.6h1.9
		C231,194.7,232.8,195.2,233.9,196.1z"/>
	<path d="M257.1,187v17.8h-2.2v-2c-0.5,0.7-1.2,1.2-1.9,1.6c-0.8,0.4-1.6,0.6-2.6,0.6c-1.2,0-2.3-0.3-3.3-0.8
		c-1-0.5-1.7-1.3-2.3-2.3c-0.6-1-0.8-2.1-0.8-3.4c0-1.3,0.3-2.4,0.8-3.4c0.6-1,1.3-1.7,2.3-2.3c1-0.5,2.1-0.8,3.3-0.8
		c0.9,0,1.8,0.2,2.5,0.5c0.8,0.3,1.4,0.9,1.9,1.5v-7H257.1z M252.7,202.4c0.7-0.4,1.2-0.9,1.5-1.6c0.4-0.7,0.6-1.5,0.6-2.3
		s-0.2-1.7-0.6-2.3c-0.4-0.7-0.9-1.2-1.5-1.6c-0.7-0.4-1.4-0.6-2.2-0.6c-0.8,0-1.5,0.2-2.2,0.6c-0.6,0.4-1.2,0.9-1.5,1.6
		c-0.4,0.7-0.6,1.5-0.6,2.3s0.2,1.7,0.6,2.3c0.4,0.7,0.9,1.2,1.5,1.6c0.6,0.4,1.4,0.6,2.2,0.6C251.3,203,252,202.8,252.7,202.4z"/>
	<path d="M261.5,189.2c-0.3-0.3-0.4-0.6-0.4-1.1s0.1-0.8,0.4-1.1c0.3-0.3,0.7-0.4,1.1-0.4c0.4,0,0.8,0.1,1.1,0.4
		c0.3,0.3,0.4,0.6,0.4,1c0,0.4-0.1,0.8-0.4,1.1c-0.3,0.3-0.7,0.4-1.1,0.4C262.1,189.7,261.8,189.5,261.5,189.2z M261.4,192.1h2.3
		v12.7h-2.3V192.1z"/>
	<path d="M276.8,193.3c0.9,0.9,1.4,2.2,1.4,3.9v7.7H276v-1.7c-0.4,0.6-0.9,1-1.6,1.4c-0.7,0.3-1.6,0.5-2.5,0.5c-1.4,0-2.6-0.3-3.4-1
		c-0.9-0.7-1.3-1.6-1.3-2.7c0-1.1,0.4-2,1.2-2.7c0.8-0.7,2.1-1,3.9-1h3.6v-0.5c0-1-0.3-1.8-0.9-2.3c-0.6-0.5-1.4-0.8-2.5-0.8
		c-0.8,0-1.5,0.1-2.2,0.4c-0.7,0.2-1.3,0.6-1.8,1l-1-1.7c0.7-0.5,1.4-0.9,2.4-1.2c0.9-0.3,1.9-0.4,2.9-0.4
		C274.5,192,275.9,192.4,276.8,193.3z M274.5,202.6c0.6-0.4,1.1-0.9,1.4-1.7v-1.8h-3.6c-2,0-2.9,0.7-2.9,2c0,0.6,0.2,1.1,0.7,1.5
		c0.5,0.4,1.2,0.6,2.1,0.6C273.1,203.2,273.9,203,274.5,202.6z"/>
	<path d="M283.1,204.6c-1-0.3-1.7-0.6-2.3-1.1l1-1.8c0.6,0.4,1.2,0.7,2,1c0.8,0.2,1.6,0.4,2.4,0.4c2,0,3-0.6,3-1.7
		c0-0.4-0.1-0.7-0.4-0.9c-0.3-0.2-0.6-0.4-1-0.5c-0.4-0.1-1-0.2-1.7-0.3c-1-0.2-1.9-0.3-2.5-0.6s-1.2-0.6-1.7-1.1
		c-0.5-0.5-0.7-1.2-0.7-2.1c0-1.2,0.5-2.1,1.4-2.8c1-0.7,2.2-1,3.9-1c0.8,0,1.7,0.1,2.5,0.3c0.8,0.2,1.5,0.5,2.1,0.8l-1,1.8
		c-1-0.7-2.3-1-3.7-1c-1,0-1.7,0.2-2.2,0.5c-0.5,0.3-0.8,0.7-0.8,1.3c0,0.4,0.1,0.7,0.4,1c0.3,0.2,0.6,0.4,1.1,0.5
		c0.4,0.1,1,0.2,1.8,0.4c1,0.2,1.9,0.4,2.5,0.6c0.6,0.2,1.2,0.5,1.6,1s0.7,1.2,0.7,2c0,1.2-0.5,2.1-1.5,2.7c-1,0.7-2.3,1-4,1
		C285.1,205,284.1,204.8,283.1,204.6z"/>
	<path d="M66.4,268.7h-3.2v4.1h-2.3v-4.1h-9.3V267l8.6-11h2.6l-8.2,10.6h6.5V263h2.3v3.6h3.2V268.7z"/>
	<path d="M77.9,264.1c1.1,0.9,1.7,2.1,1.7,3.7c0,1-0.2,1.9-0.7,2.7c-0.5,0.8-1.2,1.4-2.1,1.9s-2.1,0.7-3.5,0.7
		c-1.2,0-2.3-0.2-3.4-0.5c-1.1-0.4-2-0.9-2.7-1.5l1.1-1.9c0.6,0.5,1.3,1,2.2,1.3c0.9,0.3,1.8,0.5,2.8,0.5c1.3,0,2.2-0.3,2.9-0.8
		c0.7-0.5,1-1.3,1-2.2c0-1-0.4-1.8-1.2-2.3c-0.8-0.5-2.1-0.8-3.9-0.8h-3.8l0.9-8.8h9.5v2.1h-7.5l-0.5,4.6h1.9
		C75,262.7,76.8,263.2,77.9,264.1z"/>
	<path d="M108.8,261.4c0.9,0.9,1.4,2.3,1.4,4.1v7.3h-2.3v-7.1c0-1.2-0.3-2.2-0.9-2.8s-1.4-0.9-2.4-0.9c-1.2,0-2.1,0.4-2.8,1.1
		c-0.7,0.7-1,1.8-1,3.1v6.6h-2.3v-7.1c0-1.2-0.3-2.2-0.9-2.8c-0.6-0.6-1.4-0.9-2.4-0.9c-1.2,0-2.1,0.4-2.8,1.1c-0.7,0.7-1,1.8-1,3.1
		v6.6h-2.3v-12.7h2.2v1.9c0.5-0.7,1.1-1.2,1.8-1.5c0.8-0.3,1.6-0.5,2.6-0.5c1,0,1.9,0.2,2.6,0.6c0.8,0.4,1.4,1,1.8,1.8
		c0.5-0.7,1.1-1.3,2-1.7c0.9-0.4,1.8-0.6,2.9-0.6C106.6,260,107.9,260.5,108.8,261.4z"/>
	<path d="M126.6,260.1v11c0,2.2-0.6,3.9-1.7,4.9c-1.1,1.1-2.8,1.6-4.9,1.6c-1.2,0-2.3-0.2-3.4-0.5s-2-0.8-2.6-1.4l1.1-1.8
		c0.6,0.5,1.3,0.9,2.2,1.2s1.8,0.4,2.7,0.4c1.5,0,2.6-0.4,3.3-1.1s1.1-1.8,1.1-3.2v-1c-0.5,0.7-1.2,1.1-2,1.5s-1.7,0.5-2.6,0.5
		c-1.2,0-2.3-0.3-3.3-0.8c-1-0.5-1.8-1.2-2.3-2.2c-0.6-0.9-0.8-2-0.8-3.2s0.3-2.3,0.8-3.2c0.6-0.9,1.3-1.7,2.3-2.2
		c1-0.5,2.1-0.8,3.3-0.8c1,0,1.9,0.2,2.7,0.5c0.8,0.4,1.5,0.9,2,1.6v-2H126.6z M122.2,269.8c0.7-0.4,1.2-0.8,1.6-1.5
		c0.4-0.6,0.6-1.3,0.6-2.1c0-1.2-0.4-2.2-1.2-3s-1.9-1.1-3.1-1.1c-1.3,0-2.4,0.4-3.2,1.1s-1.2,1.8-1.2,3c0,0.8,0.2,1.5,0.6,2.1
		s0.9,1.1,1.6,1.5c0.7,0.4,1.4,0.5,2.3,0.5C120.8,270.3,121.6,270.1,122.2,269.8z"/>
	<path d="M132.7,270.2c0.3,0.3,0.4,0.7,0.4,1.2c0,0.2,0,0.5-0.1,0.7c-0.1,0.2-0.2,0.6-0.3,1l-1.1,3.3h-1.5l0.9-3.6
		c-0.3-0.1-0.5-0.3-0.7-0.6c-0.2-0.3-0.3-0.6-0.3-0.9c0-0.5,0.2-0.9,0.5-1.2c0.3-0.3,0.7-0.5,1.2-0.5
		C132,269.7,132.4,269.9,132.7,270.2z"/>
	<path d="M147.1,256v16.8h-2.4v-14.7h-3.8V256H147.1z"/>
	<path d="M162.6,270.8v2.1h-12.1v-1.6l6.8-6.6c0.8-0.8,1.4-1.5,1.7-2.1c0.3-0.6,0.4-1.2,0.4-1.8c0-0.9-0.3-1.6-0.9-2.1
		c-0.6-0.5-1.5-0.7-2.7-0.7c-1.9,0-3.3,0.6-4.3,1.8l-1.6-1.4c0.7-0.8,1.5-1.4,2.6-1.9c1.1-0.4,2.3-0.7,3.6-0.7
		c1.8,0,3.2,0.4,4.2,1.3c1,0.8,1.6,2,1.6,3.4c0,0.9-0.2,1.7-0.6,2.5c-0.4,0.8-1.1,1.7-2.2,2.7l-5.1,4.9H162.6z"/>
	<path d="M170.6,252.6h2.1l-7.9,22.6h-2.1L170.6,252.6z"/>
	<path d="M178.2,256v16.8h-2.4v-14.7H172V256H178.2z"/>
	<path d="M193.7,270.8v2.1h-12.1v-1.6l6.8-6.6c0.8-0.8,1.4-1.5,1.7-2.1c0.3-0.6,0.4-1.2,0.4-1.8c0-0.9-0.3-1.6-0.9-2.1
		c-0.6-0.5-1.5-0.7-2.7-0.7c-1.9,0-3.3,0.6-4.3,1.8l-1.6-1.4c0.7-0.8,1.5-1.4,2.6-1.9c1.1-0.4,2.3-0.7,3.6-0.7
		c1.8,0,3.2,0.4,4.2,1.3c1,0.8,1.6,2,1.6,3.4c0,0.9-0.2,1.7-0.6,2.5c-0.4,0.8-1.1,1.7-2.2,2.7l-5.1,4.9H193.7z"/>
	<path d="M207.3,261.4c1,0.9,1.4,2.3,1.4,4.1v7.3h-2.3v-7.1c0-1.2-0.3-2.2-0.9-2.8c-0.6-0.6-1.4-0.9-2.5-0.9c-1.2,0-2.2,0.4-3,1.1
		c-0.7,0.7-1.1,1.8-1.1,3.1v6.6h-2.3V255h2.3v6.9c0.5-0.6,1.1-1.1,1.9-1.4c0.8-0.3,1.6-0.5,2.6-0.5
		C205.1,260,206.4,260.5,207.3,261.4z"/>
	<path d="M214.7,270.2c0.3,0.3,0.4,0.7,0.4,1.2c0,0.2,0,0.5-0.1,0.7c-0.1,0.2-0.2,0.6-0.3,1l-1.1,3.3h-1.5l0.9-3.6
		c-0.3-0.1-0.5-0.3-0.7-0.6c-0.2-0.3-0.3-0.6-0.3-0.9c0-0.5,0.2-0.9,0.5-1.2c0.3-0.3,0.7-0.5,1.2-0.5
		C214,269.7,214.4,269.9,214.7,270.2z"/>
	<path d="M234,264.1c1.1,0.9,1.7,2.1,1.7,3.7c0,1-0.2,1.9-0.7,2.7c-0.5,0.8-1.2,1.4-2.1,1.9s-2.1,0.7-3.5,0.7
		c-1.2,0-2.3-0.2-3.4-0.5c-1.1-0.4-2-0.9-2.7-1.5l1.1-1.9c0.6,0.5,1.3,1,2.2,1.3c0.9,0.3,1.8,0.5,2.8,0.5c1.3,0,2.2-0.3,2.9-0.8
		c0.7-0.5,1-1.3,1-2.2c0-1-0.4-1.8-1.2-2.3c-0.8-0.5-2.1-0.8-3.9-0.8h-3.8l0.9-8.8h9.5v2.1h-7.5l-0.5,4.6h1.9
		C231.1,262.7,232.8,263.2,234,264.1z"/>
	<path d="M257.1,255v17.8h-2.2v-2c-0.5,0.7-1.2,1.2-1.9,1.6c-0.8,0.4-1.6,0.6-2.6,0.6c-1.2,0-2.3-0.3-3.3-0.8
		c-1-0.5-1.7-1.3-2.3-2.3c-0.6-1-0.8-2.1-0.8-3.4c0-1.3,0.3-2.4,0.8-3.4c0.6-1,1.3-1.7,2.3-2.3c1-0.5,2.1-0.8,3.3-0.8
		c0.9,0,1.8,0.2,2.5,0.5c0.8,0.3,1.4,0.9,1.9,1.5v-7H257.1z M252.8,270.4c0.7-0.4,1.2-0.9,1.5-1.6c0.4-0.7,0.6-1.5,0.6-2.3
		c0-0.9-0.2-1.7-0.6-2.3c-0.4-0.7-0.9-1.2-1.5-1.6c-0.7-0.4-1.4-0.6-2.2-0.6c-0.8,0-1.5,0.2-2.2,0.6c-0.6,0.4-1.2,0.9-1.5,1.6
		c-0.4,0.7-0.6,1.5-0.6,2.3c0,0.9,0.2,1.7,0.6,2.3c0.4,0.7,0.9,1.2,1.5,1.6s1.4,0.6,2.2,0.6C251.4,271,252.1,270.8,252.8,270.4z"/>
	<path d="M261.6,257.2c-0.3-0.3-0.4-0.6-0.4-1.1c0-0.4,0.1-0.8,0.4-1.1c0.3-0.3,0.7-0.4,1.1-0.4c0.4,0,0.8,0.1,1.1,0.4
		c0.3,0.3,0.4,0.6,0.4,1c0,0.4-0.1,0.8-0.4,1.1c-0.3,0.3-0.7,0.4-1.1,0.4C262.2,257.7,261.8,257.5,261.6,257.2z M261.5,260.1h2.3
		v12.7h-2.3V260.1z"/>
	<path d="M276.9,261.3c0.9,0.9,1.4,2.2,1.4,3.9v7.7h-2.2v-1.7c-0.4,0.6-0.9,1-1.6,1.4c-0.7,0.3-1.6,0.5-2.5,0.5
		c-1.4,0-2.6-0.3-3.4-1c-0.9-0.7-1.3-1.6-1.3-2.7s0.4-2,1.2-2.7c0.8-0.7,2.1-1,3.9-1h3.6v-0.5c0-1-0.3-1.8-0.9-2.3
		c-0.6-0.5-1.4-0.8-2.5-0.8c-0.8,0-1.5,0.1-2.2,0.4c-0.7,0.2-1.3,0.6-1.8,1l-1-1.7c0.7-0.5,1.4-0.9,2.4-1.2s1.9-0.4,2.9-0.4
		C274.6,260,276,260.4,276.9,261.3z M274.6,270.6c0.6-0.4,1.1-0.9,1.4-1.7v-1.8h-3.6c-2,0-2.9,0.7-2.9,2c0,0.6,0.2,1.1,0.7,1.5
		c0.5,0.4,1.2,0.6,2.1,0.6C273.2,271.2,274,271,274.6,270.6z"/>
	<path d="M283.2,272.6c-1-0.3-1.7-0.6-2.3-1.1l1-1.8c0.6,0.4,1.2,0.7,2,1c0.8,0.2,1.6,0.4,2.4,0.4c2,0,3-0.6,3-1.7
		c0-0.4-0.1-0.7-0.4-0.9c-0.3-0.2-0.6-0.4-1-0.5c-0.4-0.1-1-0.2-1.7-0.3c-1-0.2-1.9-0.3-2.5-0.6s-1.2-0.6-1.7-1.1
		c-0.5-0.5-0.7-1.2-0.7-2.1c0-1.2,0.5-2.1,1.4-2.8s2.2-1,3.9-1c0.8,0,1.7,0.1,2.5,0.3c0.8,0.2,1.5,0.5,2.1,0.8l-1,1.8
		c-1-0.7-2.3-1-3.7-1c-1,0-1.7,0.2-2.2,0.5c-0.5,0.3-0.8,0.7-0.8,1.3c0,0.4,0.1,0.7,0.4,1c0.3,0.2,0.6,0.4,1.1,0.5
		c0.4,0.1,1,0.2,1.8,0.4c1,0.2,1.9,0.4,2.5,0.6c0.6,0.2,1.2,0.5,1.6,1c0.4,0.5,0.7,1.2,0.7,2c0,1.2-0.5,2.1-1.5,2.7
		c-1,0.7-2.3,1-4,1C285.2,273,284.2,272.8,283.2,272.6z"/>
	<path d="M62,331.3c0.9,0.4,1.6,1,2.1,1.8c0.5,0.8,0.7,1.7,0.7,2.7c0,1.1-0.3,2-0.8,2.8c-0.5,0.8-1.2,1.4-2.1,1.9
		c-0.9,0.4-1.9,0.7-3,0.7c-2.3,0-4-0.7-5.2-2.2c-1.2-1.5-1.8-3.5-1.8-6.2c0-1.9,0.3-3.5,1-4.8c0.7-1.3,1.6-2.3,2.8-3
		c1.2-0.7,2.6-1,4.2-1c0.8,0,1.6,0.1,2.3,0.3c0.7,0.2,1.3,0.4,1.9,0.7l-0.9,1.9c-0.8-0.5-1.9-0.8-3.2-0.8c-1.7,0-3.1,0.5-4.1,1.6
		c-1,1.1-1.5,2.7-1.5,4.7c0,0.3,0,0.5,0,0.6c0.5-0.7,1.1-1.3,2-1.6c0.8-0.4,1.8-0.6,2.8-0.6C60.1,330.6,61.1,330.8,62,331.3z
		 M61.4,338.2c0.7-0.6,1-1.4,1-2.4s-0.3-1.8-1-2.4c-0.7-0.6-1.6-0.9-2.8-0.9c-0.8,0-1.4,0.1-2,0.4s-1,0.7-1.4,1.2
		c-0.3,0.5-0.5,1-0.5,1.7c0,0.6,0.2,1.1,0.5,1.6s0.8,0.9,1.4,1.2c0.6,0.3,1.3,0.4,2.1,0.4C59.8,339.1,60.7,338.8,61.4,338.2z"/>
	<path d="M76.7,332.1c1.1,0.9,1.7,2.1,1.7,3.7c0,1-0.2,1.9-0.7,2.7c-0.5,0.8-1.2,1.4-2.1,1.9S73.4,341,72,341
		c-1.2,0-2.3-0.2-3.4-0.5c-1.1-0.4-2-0.9-2.7-1.5l1.1-1.9c0.6,0.5,1.3,1,2.2,1.3c0.9,0.3,1.8,0.5,2.8,0.5c1.3,0,2.2-0.3,2.9-0.8
		c0.7-0.5,1-1.3,1-2.2c0-1-0.4-1.8-1.2-2.3c-0.8-0.5-2.1-0.8-3.9-0.8H67l0.9-8.8h9.5v2.1h-7.5l-0.5,4.6h1.9
		C73.8,330.7,75.5,331.2,76.7,332.1z"/>
	<path d="M107.5,329.4c0.9,0.9,1.4,2.3,1.4,4.1v7.3h-2.3v-7.1c0-1.2-0.3-2.2-0.9-2.8s-1.4-0.9-2.4-0.9c-1.2,0-2.1,0.4-2.8,1.1
		c-0.7,0.7-1,1.8-1,3.1v6.6h-2.3v-7.1c0-1.2-0.3-2.2-0.9-2.8c-0.6-0.6-1.4-0.9-2.4-0.9c-1.2,0-2.1,0.4-2.8,1.1c-0.7,0.7-1,1.8-1,3.1
		v6.6h-2.3v-12.7H90v1.9c0.5-0.7,1.1-1.2,1.8-1.5c0.8-0.3,1.6-0.5,2.6-0.5c1,0,1.9,0.2,2.6,0.6c0.8,0.4,1.4,1,1.8,1.8
		c0.5-0.7,1.1-1.3,2-1.7c0.9-0.4,1.8-0.6,2.9-0.6C105.3,328,106.6,328.5,107.5,329.4z"/>
	<path d="M125.4,328.1v11c0,2.2-0.6,3.9-1.7,4.9c-1.1,1.1-2.8,1.6-4.9,1.6c-1.2,0-2.3-0.2-3.4-0.5s-2-0.8-2.6-1.4l1.1-1.8
		c0.6,0.5,1.3,0.9,2.2,1.2s1.8,0.4,2.7,0.4c1.5,0,2.6-0.4,3.3-1.1s1.1-1.8,1.1-3.2v-1c-0.5,0.7-1.2,1.1-2,1.5s-1.7,0.5-2.6,0.5
		c-1.2,0-2.3-0.3-3.3-0.8c-1-0.5-1.8-1.2-2.3-2.2c-0.6-0.9-0.8-2-0.8-3.2s0.3-2.3,0.8-3.2c0.6-0.9,1.3-1.7,2.3-2.2
		c1-0.5,2.1-0.8,3.3-0.8c1,0,1.9,0.2,2.7,0.5c0.8,0.4,1.5,0.9,2,1.6v-2H125.4z M121,337.8c0.7-0.4,1.2-0.8,1.6-1.5
		c0.4-0.6,0.6-1.3,0.6-2.1c0-1.2-0.4-2.2-1.2-3s-1.9-1.1-3.1-1.1c-1.3,0-2.4,0.4-3.2,1.1s-1.2,1.8-1.2,3c0,0.8,0.2,1.5,0.6,2.1
		s0.9,1.1,1.6,1.5c0.7,0.4,1.4,0.5,2.3,0.5C119.6,338.3,120.3,338.1,121,337.8z"/>
	<path d="M131.4,338.2c0.3,0.3,0.4,0.7,0.4,1.2c0,0.2,0,0.5-0.1,0.7c-0.1,0.2-0.2,0.6-0.3,1l-1.1,3.3h-1.5l0.9-3.6
		c-0.3-0.1-0.5-0.3-0.7-0.6c-0.2-0.3-0.3-0.6-0.3-0.9c0-0.5,0.2-0.9,0.5-1.2c0.3-0.3,0.7-0.5,1.2-0.5
		C130.8,337.7,131.2,337.9,131.4,338.2z"/>
	<path d="M145.8,324v16.8h-2.4v-14.7h-3.8V324H145.8z"/>
	<path d="M161.3,338.8v2.1h-12.1v-1.6l6.8-6.6c0.8-0.8,1.4-1.5,1.7-2.1c0.3-0.6,0.4-1.2,0.4-1.8c0-0.9-0.3-1.6-0.9-2.1
		c-0.6-0.5-1.5-0.7-2.7-0.7c-1.9,0-3.3,0.6-4.3,1.8l-1.6-1.4c0.7-0.8,1.5-1.4,2.6-1.9c1.1-0.4,2.3-0.7,3.6-0.7
		c1.8,0,3.2,0.4,4.2,1.3c1,0.8,1.6,2,1.6,3.4c0,0.9-0.2,1.7-0.6,2.5c-0.4,0.8-1.1,1.7-2.2,2.7l-5.1,4.9H161.3z"/>
	<path d="M169.4,320.6h2.1l-7.9,22.6h-2.1L169.4,320.6z"/>
	<path d="M176.9,324v16.8h-2.4v-14.7h-3.8V324H176.9z"/>
	<path d="M192.4,338.8v2.1h-12.1v-1.6l6.8-6.6c0.8-0.8,1.4-1.5,1.7-2.1c0.3-0.6,0.4-1.2,0.4-1.8c0-0.9-0.3-1.6-0.9-2.1
		c-0.6-0.5-1.5-0.7-2.7-0.7c-1.9,0-3.3,0.6-4.3,1.8l-1.6-1.4c0.7-0.8,1.5-1.4,2.6-1.9c1.1-0.4,2.3-0.7,3.6-0.7
		c1.8,0,3.2,0.4,4.2,1.3c1,0.8,1.6,2,1.6,3.4c0,0.9-0.2,1.7-0.6,2.5c-0.4,0.8-1.1,1.7-2.2,2.7l-5.1,4.9H192.4z"/>
	<path d="M206.1,329.4c1,0.9,1.4,2.3,1.4,4.1v7.3h-2.3v-7.1c0-1.2-0.3-2.2-0.9-2.8c-0.6-0.6-1.4-0.9-2.5-0.9c-1.2,0-2.2,0.4-3,1.1
		c-0.7,0.7-1.1,1.8-1.1,3.1v6.6h-2.3V323h2.3v6.9c0.5-0.6,1.1-1.1,1.9-1.4c0.8-0.3,1.6-0.5,2.6-0.5
		C203.8,328,205.1,328.5,206.1,329.4z"/>
	<path d="M213.5,338.2c0.3,0.3,0.4,0.7,0.4,1.2c0,0.2,0,0.5-0.1,0.7c-0.1,0.2-0.2,0.6-0.3,1l-1.1,3.3h-1.5l0.9-3.6
		c-0.3-0.1-0.5-0.3-0.7-0.6c-0.2-0.3-0.3-0.6-0.3-0.9c0-0.5,0.2-0.9,0.5-1.2c0.3-0.3,0.7-0.5,1.2-0.5
		C212.8,337.7,213.2,337.9,213.5,338.2z"/>
	<path d="M232.7,332.1c1.1,0.9,1.7,2.1,1.7,3.7c0,1-0.2,1.9-0.7,2.7c-0.5,0.8-1.2,1.4-2.1,1.9s-2.1,0.7-3.5,0.7
		c-1.2,0-2.3-0.2-3.4-0.5c-1.1-0.4-2-0.9-2.7-1.5l1.1-1.9c0.6,0.5,1.3,1,2.2,1.3c0.9,0.3,1.8,0.5,2.8,0.5c1.3,0,2.2-0.3,2.9-0.8
		c0.7-0.5,1-1.3,1-2.2c0-1-0.4-1.8-1.2-2.3c-0.8-0.5-2.1-0.8-3.9-0.8h-3.8l0.9-8.8h9.5v2.1H226l-0.5,4.6h1.9
		C229.8,330.7,231.6,331.2,232.7,332.1z"/>
	<path d="M255.9,323v17.8h-2.2v-2c-0.5,0.7-1.2,1.2-1.9,1.6c-0.8,0.4-1.6,0.6-2.6,0.6c-1.2,0-2.3-0.3-3.3-0.8
		c-1-0.5-1.7-1.3-2.3-2.3c-0.6-1-0.8-2.1-0.8-3.4c0-1.3,0.3-2.4,0.8-3.4c0.6-1,1.3-1.7,2.3-2.3c1-0.5,2.1-0.8,3.3-0.8
		c0.9,0,1.8,0.2,2.5,0.5c0.8,0.3,1.4,0.9,1.9,1.5v-7H255.9z M251.5,338.4c0.7-0.4,1.2-0.9,1.5-1.6c0.4-0.7,0.6-1.5,0.6-2.3
		c0-0.9-0.2-1.7-0.6-2.3c-0.4-0.7-0.9-1.2-1.5-1.6c-0.7-0.4-1.4-0.6-2.2-0.6c-0.8,0-1.5,0.2-2.2,0.6c-0.6,0.4-1.2,0.9-1.5,1.6
		c-0.4,0.7-0.6,1.5-0.6,2.3c0,0.9,0.2,1.7,0.6,2.3c0.4,0.7,0.9,1.2,1.5,1.6s1.4,0.6,2.2,0.6C250.1,339,250.9,338.8,251.5,338.4z"/>
	<path d="M260.3,325.2c-0.3-0.3-0.4-0.6-0.4-1.1s0.1-0.8,0.4-1.1c0.3-0.3,0.7-0.4,1.1-0.4c0.4,0,0.8,0.1,1.1,0.4
		c0.3,0.3,0.4,0.6,0.4,1c0,0.4-0.1,0.8-0.4,1.1c-0.3,0.3-0.7,0.4-1.1,0.4C261,325.7,260.6,325.5,260.3,325.2z M260.3,328.1h2.3v12.7
		h-2.3V328.1z"/>
	<path d="M275.6,329.3c0.9,0.9,1.4,2.2,1.4,3.9v7.7h-2.2v-1.7c-0.4,0.6-0.9,1-1.6,1.4c-0.7,0.3-1.6,0.5-2.5,0.5
		c-1.4,0-2.6-0.3-3.4-1c-0.9-0.7-1.3-1.6-1.3-2.7s0.4-2,1.2-2.7c0.8-0.7,2.1-1,3.9-1h3.6v-0.5c0-1-0.3-1.8-0.9-2.3
		c-0.6-0.5-1.4-0.8-2.5-0.8c-0.8,0-1.5,0.1-2.2,0.4c-0.7,0.2-1.3,0.6-1.8,1l-1-1.7c0.7-0.5,1.4-0.9,2.4-1.2s1.9-0.4,2.9-0.4
		C273.4,328,274.7,328.4,275.6,329.3z M273.3,338.6c0.6-0.4,1.1-0.9,1.4-1.7v-1.8h-3.6c-2,0-2.9,0.7-2.9,2c0,0.6,0.2,1.1,0.7,1.5
		c0.5,0.4,1.2,0.6,2.1,0.6C271.9,339.2,272.7,339,273.3,338.6z"/>
	<path d="M282,340.6c-1-0.3-1.7-0.6-2.3-1.1l1-1.8c0.6,0.4,1.2,0.7,2,1c0.8,0.2,1.6,0.4,2.4,0.4c2,0,3-0.6,3-1.7
		c0-0.4-0.1-0.7-0.4-0.9c-0.3-0.2-0.6-0.4-1-0.5c-0.4-0.1-1-0.2-1.7-0.3c-1-0.2-1.9-0.3-2.5-0.6s-1.2-0.6-1.7-1.1
		c-0.5-0.5-0.7-1.2-0.7-2.1c0-1.2,0.5-2.1,1.4-2.8s2.2-1,3.9-1c0.8,0,1.7,0.1,2.5,0.3c0.8,0.2,1.5,0.5,2.1,0.8l-1,1.8
		c-1-0.7-2.3-1-3.7-1c-1,0-1.7,0.2-2.2,0.5c-0.5,0.3-0.8,0.7-0.8,1.3c0,0.4,0.1,0.7,0.4,1c0.3,0.2,0.6,0.4,1.1,0.5
		c0.4,0.1,1,0.2,1.8,0.4c1,0.2,1.9,0.4,2.5,0.6c0.6,0.2,1.2,0.5,1.6,1c0.4,0.5,0.7,1.2,0.7,2c0,1.2-0.5,2.1-1.5,2.7
		c-1,0.7-2.3,1-4,1C283.9,341,282.9,340.8,282,340.6z"/>
	<path d="M64,392v1.6l-6.8,15.2h-2.5l6.6-14.7h-7.7v3h-2.3V392H64z"/>
	<path d="M76.2,400.1c1.1,0.9,1.7,2.1,1.7,3.7c0,1-0.2,1.9-0.7,2.7c-0.5,0.8-1.2,1.4-2.1,1.9s-2.1,0.7-3.5,0.7
		c-1.2,0-2.3-0.2-3.4-0.5c-1.1-0.4-2-0.9-2.7-1.5l1.1-1.9c0.6,0.5,1.3,1,2.2,1.3c0.9,0.3,1.8,0.5,2.8,0.5c1.3,0,2.2-0.3,2.9-0.8
		c0.7-0.5,1-1.3,1-2.2c0-1-0.4-1.8-1.2-2.3c-0.8-0.5-2.1-0.8-3.9-0.8h-3.8l0.9-8.8H77v2.1h-7.5l-0.5,4.6h1.9
		C73.3,398.7,75.1,399.2,76.2,400.1z"/>
	<path d="M107.1,397.4c0.9,0.9,1.4,2.3,1.4,4.1v7.3h-2.3v-7.1c0-1.2-0.3-2.2-0.9-2.8s-1.4-0.9-2.4-0.9c-1.2,0-2.1,0.4-2.8,1.1
		c-0.7,0.7-1,1.8-1,3.1v6.6h-2.3v-7.1c0-1.2-0.3-2.2-0.9-2.8c-0.6-0.6-1.4-0.9-2.4-0.9c-1.2,0-2.1,0.4-2.8,1.1c-0.7,0.7-1,1.8-1,3.1
		v6.6h-2.3v-12.7h2.2v1.9c0.5-0.7,1.1-1.2,1.8-1.5c0.8-0.3,1.6-0.5,2.6-0.5c1,0,1.9,0.2,2.6,0.6c0.8,0.4,1.4,1,1.8,1.8
		c0.5-0.7,1.1-1.3,2-1.7c0.9-0.4,1.8-0.6,2.9-0.6C104.9,396,106.2,396.5,107.1,397.4z"/>
	<path d="M124.9,396.1v11c0,2.2-0.6,3.9-1.7,4.9c-1.1,1.1-2.8,1.6-4.9,1.6c-1.2,0-2.3-0.2-3.4-0.5s-2-0.8-2.6-1.4l1.1-1.8
		c0.6,0.5,1.3,0.9,2.2,1.2s1.8,0.4,2.7,0.4c1.5,0,2.6-0.4,3.3-1.1s1.1-1.8,1.1-3.2v-1c-0.5,0.7-1.2,1.1-2,1.5s-1.7,0.5-2.6,0.5
		c-1.2,0-2.3-0.3-3.3-0.8c-1-0.5-1.8-1.2-2.3-2.2c-0.6-0.9-0.8-2-0.8-3.2s0.3-2.3,0.8-3.2c0.6-0.9,1.3-1.7,2.3-2.2
		c1-0.5,2.1-0.8,3.3-0.8c1,0,1.9,0.2,2.7,0.5c0.8,0.4,1.5,0.9,2,1.6v-2H124.9z M120.5,405.8c0.7-0.4,1.2-0.8,1.6-1.5
		c0.4-0.6,0.6-1.3,0.6-2.1c0-1.2-0.4-2.2-1.2-3s-1.9-1.1-3.1-1.1c-1.3,0-2.4,0.4-3.2,1.1s-1.2,1.8-1.2,3c0,0.8,0.2,1.5,0.6,2.1
		s0.9,1.1,1.6,1.5c0.7,0.4,1.4,0.5,2.3,0.5C119.1,406.3,119.9,406.1,120.5,405.8z"/>
	<path d="M131,406.2c0.3,0.3,0.4,0.7,0.4,1.2c0,0.2,0,0.5-0.1,0.7c-0.1,0.2-0.2,0.6-0.3,1l-1.1,3.3h-1.5l0.9-3.6
		c-0.3-0.1-0.5-0.3-0.7-0.6c-0.2-0.3-0.3-0.6-0.3-0.9c0-0.5,0.2-0.9,0.5-1.2c0.3-0.3,0.7-0.5,1.2-0.5
		C130.3,405.7,130.7,405.9,131,406.2z"/>
	<path d="M145.4,392v16.8H143v-14.7h-3.8V392H145.4z"/>
	<path d="M160.9,406.8v2.1h-12.1v-1.6l6.8-6.6c0.8-0.8,1.4-1.5,1.7-2.1c0.3-0.6,0.4-1.2,0.4-1.8c0-0.9-0.3-1.6-0.9-2.1
		c-0.6-0.5-1.5-0.7-2.7-0.7c-1.9,0-3.3,0.6-4.3,1.8l-1.6-1.4c0.7-0.8,1.5-1.4,2.6-1.9c1.1-0.4,2.3-0.7,3.6-0.7
		c1.8,0,3.2,0.4,4.2,1.3c1,0.8,1.6,2,1.6,3.4c0,0.9-0.2,1.7-0.6,2.5c-0.4,0.8-1.1,1.7-2.2,2.7l-5.1,4.9H160.9z"/>
	<path d="M168.9,388.6h2.1l-7.9,22.6H161L168.9,388.6z"/>
	<path d="M176.5,392v16.8h-2.4v-14.7h-3.8V392H176.5z"/>
	<path d="M192,406.8v2.1h-12.1v-1.6l6.8-6.6c0.8-0.8,1.4-1.5,1.7-2.1c0.3-0.6,0.4-1.2,0.4-1.8c0-0.9-0.3-1.6-0.9-2.1
		c-0.6-0.5-1.5-0.7-2.7-0.7c-1.9,0-3.3,0.6-4.3,1.8l-1.6-1.4c0.7-0.8,1.5-1.4,2.6-1.9c1.1-0.4,2.3-0.7,3.6-0.7
		c1.8,0,3.2,0.4,4.2,1.3c1,0.8,1.6,2,1.6,3.4c0,0.9-0.2,1.7-0.6,2.5c-0.4,0.8-1.1,1.7-2.2,2.7l-5.1,4.9H192z"/>
	<path d="M205.6,397.4c1,0.9,1.4,2.3,1.4,4.1v7.3h-2.3v-7.1c0-1.2-0.3-2.2-0.9-2.8c-0.6-0.6-1.4-0.9-2.5-0.9c-1.2,0-2.2,0.4-3,1.1
		c-0.7,0.7-1.1,1.8-1.1,3.1v6.6H195V391h2.3v6.9c0.5-0.6,1.1-1.1,1.9-1.4c0.8-0.3,1.6-0.5,2.6-0.5
		C203.4,396,204.7,396.5,205.6,397.4z"/>
	<path d="M213,406.2c0.3,0.3,0.4,0.7,0.4,1.2c0,0.2,0,0.5-0.1,0.7c-0.1,0.2-0.2,0.6-0.3,1l-1.1,3.3h-1.5l0.9-3.6
		c-0.3-0.1-0.5-0.3-0.7-0.6c-0.2-0.3-0.3-0.6-0.3-0.9c0-0.5,0.2-0.9,0.5-1.2c0.3-0.3,0.7-0.5,1.2-0.5
		C212.3,405.7,212.7,405.9,213,406.2z"/>
	<path d="M232.3,400.1c1.1,0.9,1.7,2.1,1.7,3.7c0,1-0.2,1.9-0.7,2.7c-0.5,0.8-1.2,1.4-2.1,1.9s-2.1,0.7-3.5,0.7
		c-1.2,0-2.3-0.2-3.4-0.5c-1.1-0.4-2-0.9-2.7-1.5l1.1-1.9c0.6,0.5,1.3,1,2.2,1.3c0.9,0.3,1.8,0.5,2.8,0.5c1.3,0,2.2-0.3,2.9-0.8
		c0.7-0.5,1-1.3,1-2.2c0-1-0.4-1.8-1.2-2.3c-0.8-0.5-2.1-0.8-3.9-0.8h-3.8l0.9-8.8h9.5v2.1h-7.5l-0.5,4.6h1.9
		C229.4,398.7,231.1,399.2,232.3,400.1z"/>
	<path d="M255.4,391v17.8h-2.2v-2c-0.5,0.7-1.2,1.2-1.9,1.6c-0.8,0.4-1.6,0.6-2.6,0.6c-1.2,0-2.3-0.3-3.3-0.8
		c-1-0.5-1.7-1.3-2.3-2.3c-0.6-1-0.8-2.1-0.8-3.4c0-1.3,0.3-2.4,0.8-3.4c0.6-1,1.3-1.7,2.3-2.3c1-0.5,2.1-0.8,3.3-0.8
		c0.9,0,1.8,0.2,2.5,0.5c0.8,0.3,1.4,0.9,1.9,1.5v-7H255.4z M251.1,406.4c0.7-0.4,1.2-0.9,1.5-1.6c0.4-0.7,0.6-1.5,0.6-2.3
		c0-0.9-0.2-1.7-0.6-2.3c-0.4-0.7-0.9-1.2-1.5-1.6c-0.7-0.4-1.4-0.6-2.2-0.6c-0.8,0-1.5,0.2-2.2,0.6c-0.6,0.4-1.2,0.9-1.5,1.6
		c-0.4,0.7-0.6,1.5-0.6,2.3c0,0.9,0.2,1.7,0.6,2.3c0.4,0.7,0.9,1.2,1.5,1.6s1.4,0.6,2.2,0.6C249.7,407,250.4,406.8,251.1,406.4z"/>
	<path d="M259.8,393.2c-0.3-0.3-0.4-0.6-0.4-1.1s0.1-0.8,0.4-1.1c0.3-0.3,0.7-0.4,1.1-0.4c0.4,0,0.8,0.1,1.1,0.4
		c0.3,0.3,0.4,0.6,0.4,1c0,0.4-0.1,0.8-0.4,1.1c-0.3,0.3-0.7,0.4-1.1,0.4C260.5,393.7,260.1,393.5,259.8,393.2z M259.8,396.1h2.3
		v12.7h-2.3V396.1z"/>
	<path d="M275.2,397.3c0.9,0.9,1.4,2.2,1.4,3.9v7.7h-2.2v-1.7c-0.4,0.6-0.9,1-1.6,1.4c-0.7,0.3-1.6,0.5-2.5,0.5
		c-1.4,0-2.6-0.3-3.4-1c-0.9-0.7-1.3-1.6-1.3-2.7s0.4-2,1.2-2.7c0.8-0.7,2.1-1,3.9-1h3.6v-0.5c0-1-0.3-1.8-0.9-2.3
		c-0.6-0.5-1.4-0.8-2.5-0.8c-0.8,0-1.5,0.1-2.2,0.4c-0.7,0.2-1.3,0.6-1.8,1l-1-1.7c0.7-0.5,1.4-0.9,2.4-1.2s1.9-0.4,2.9-0.4
		C272.9,396,274.2,396.4,275.2,397.3z M272.9,406.6c0.6-0.4,1.1-0.9,1.4-1.7v-1.8h-3.6c-2,0-2.9,0.7-2.9,2c0,0.6,0.2,1.1,0.7,1.5
		c0.5,0.4,1.2,0.6,2.1,0.6C271.5,407.2,272.3,407,272.9,406.6z"/>
	<path d="M281.5,408.6c-1-0.3-1.7-0.6-2.3-1.1l1-1.8c0.6,0.4,1.2,0.7,2,1c0.8,0.2,1.6,0.4,2.4,0.4c2,0,3-0.6,3-1.7
		c0-0.4-0.1-0.7-0.4-0.9c-0.3-0.2-0.6-0.4-1-0.5c-0.4-0.1-1-0.2-1.7-0.3c-1-0.2-1.9-0.3-2.5-0.6s-1.2-0.6-1.7-1.1
		c-0.5-0.5-0.7-1.2-0.7-2.1c0-1.2,0.5-2.1,1.4-2.8s2.2-1,3.9-1c0.8,0,1.7,0.1,2.5,0.3c0.8,0.2,1.5,0.5,2.1,0.8l-1,1.8
		c-1-0.7-2.3-1-3.7-1c-1,0-1.7,0.2-2.2,0.5c-0.5,0.3-0.8,0.7-0.8,1.3c0,0.4,0.1,0.7,0.4,1c0.3,0.2,0.6,0.4,1.1,0.5
		c0.4,0.1,1,0.2,1.8,0.4c1,0.2,1.9,0.4,2.5,0.6c0.6,0.2,1.2,0.5,1.6,1c0.4,0.5,0.7,1.2,0.7,2c0,1.2-0.5,2.1-1.5,2.7
		c-1,0.7-2.3,1-4,1C283.5,409,282.5,408.8,281.5,408.6z"/>
	<path d="M64,460v1.6l-6.8,15.2h-2.5l6.6-14.7h-7.7v3h-2.3V460H64z"/>
	<path d="M76.2,468.1c1.1,0.9,1.7,2.1,1.7,3.7c0,1-0.2,1.9-0.7,2.7c-0.5,0.8-1.2,1.4-2.1,1.9s-2.1,0.7-3.5,0.7
		c-1.2,0-2.3-0.2-3.4-0.5c-1.1-0.4-2-0.9-2.7-1.5l1.1-1.9c0.6,0.5,1.3,1,2.2,1.3c0.9,0.3,1.8,0.5,2.8,0.5c1.3,0,2.2-0.3,2.9-0.8
		c0.7-0.5,1-1.3,1-2.2c0-1-0.4-1.8-1.2-2.3c-0.8-0.5-2.1-0.8-3.9-0.8h-3.8l0.9-8.8H77v2.1h-7.5l-0.5,4.6h1.9
		C73.3,466.7,75.1,467.2,76.2,468.1z"/>
	<path d="M107.1,465.4c0.9,0.9,1.4,2.3,1.4,4.1v7.3h-2.3v-7.1c0-1.2-0.3-2.2-0.9-2.8s-1.4-0.9-2.4-0.9c-1.2,0-2.1,0.4-2.8,1.1
		c-0.7,0.7-1,1.8-1,3.1v6.6h-2.3v-7.1c0-1.2-0.3-2.2-0.9-2.8c-0.6-0.6-1.4-0.9-2.4-0.9c-1.2,0-2.1,0.4-2.8,1.1c-0.7,0.7-1,1.8-1,3.1
		v6.6h-2.3v-12.7h2.2v1.9c0.5-0.7,1.1-1.2,1.8-1.5c0.8-0.3,1.6-0.5,2.6-0.5c1,0,1.9,0.2,2.6,0.6c0.8,0.4,1.4,1,1.8,1.8
		c0.5-0.7,1.1-1.3,2-1.7c0.9-0.4,1.8-0.6,2.9-0.6C104.9,464,106.2,464.5,107.1,465.4z"/>
	<path d="M124.9,464.1v11c0,2.2-0.6,3.9-1.7,4.9c-1.1,1.1-2.8,1.6-4.9,1.6c-1.2,0-2.3-0.2-3.4-0.5s-2-0.8-2.6-1.4l1.1-1.8
		c0.6,0.5,1.3,0.9,2.2,1.2s1.8,0.4,2.7,0.4c1.5,0,2.6-0.4,3.3-1.1s1.1-1.8,1.1-3.2v-1c-0.5,0.7-1.2,1.1-2,1.5s-1.7,0.5-2.6,0.5
		c-1.2,0-2.3-0.3-3.3-0.8c-1-0.5-1.8-1.2-2.3-2.2c-0.6-0.9-0.8-2-0.8-3.2s0.3-2.3,0.8-3.2c0.6-0.9,1.3-1.7,2.3-2.2
		c1-0.5,2.1-0.8,3.3-0.8c1,0,1.9,0.2,2.7,0.5c0.8,0.4,1.5,0.9,2,1.6v-2H124.9z M120.5,473.8c0.7-0.4,1.2-0.8,1.6-1.5
		c0.4-0.6,0.6-1.3,0.6-2.1c0-1.2-0.4-2.2-1.2-3s-1.9-1.1-3.1-1.1c-1.3,0-2.4,0.4-3.2,1.1s-1.2,1.8-1.2,3c0,0.8,0.2,1.5,0.6,2.1
		s0.9,1.1,1.6,1.5c0.7,0.4,1.4,0.5,2.3,0.5C119.1,474.3,119.9,474.1,120.5,473.8z"/>
	<path d="M131,474.2c0.3,0.3,0.4,0.7,0.4,1.2c0,0.2,0,0.5-0.1,0.7c-0.1,0.2-0.2,0.6-0.3,1l-1.1,3.3h-1.5l0.9-3.6
		c-0.3-0.1-0.5-0.3-0.7-0.6c-0.2-0.3-0.3-0.6-0.3-0.9c0-0.5,0.2-0.9,0.5-1.2c0.3-0.3,0.7-0.5,1.2-0.5
		C130.3,473.7,130.7,473.9,131,474.2z"/>
	<path d="M145.4,460v16.8H143v-14.7h-3.8V460H145.4z"/>
	<path d="M160.9,474.8v2.1h-12.1v-1.6l6.8-6.6c0.8-0.8,1.4-1.5,1.7-2.1c0.3-0.6,0.4-1.2,0.4-1.8c0-0.9-0.3-1.6-0.9-2.1
		c-0.6-0.5-1.5-0.7-2.7-0.7c-1.9,0-3.3,0.6-4.3,1.8l-1.6-1.4c0.7-0.8,1.5-1.4,2.6-1.9c1.1-0.4,2.3-0.7,3.6-0.7
		c1.8,0,3.2,0.4,4.2,1.3c1,0.8,1.6,2,1.6,3.4c0,0.9-0.2,1.7-0.6,2.5c-0.4,0.8-1.1,1.7-2.2,2.7l-5.1,4.9H160.9z"/>
	<path d="M168.9,456.6h2.1l-7.9,22.6H161L168.9,456.6z"/>
	<path d="M176.5,460v16.8h-2.4v-14.7h-3.8V460H176.5z"/>
	<path d="M192,474.8v2.1h-12.1v-1.6l6.8-6.6c0.8-0.8,1.4-1.5,1.7-2.1c0.3-0.6,0.4-1.2,0.4-1.8c0-0.9-0.3-1.6-0.9-2.1
		c-0.6-0.5-1.5-0.7-2.7-0.7c-1.9,0-3.3,0.6-4.3,1.8l-1.6-1.4c0.7-0.8,1.5-1.4,2.6-1.9c1.1-0.4,2.3-0.7,3.6-0.7
		c1.8,0,3.2,0.4,4.2,1.3c1,0.8,1.6,2,1.6,3.4c0,0.9-0.2,1.7-0.6,2.5c-0.4,0.8-1.1,1.7-2.2,2.7l-5.1,4.9H192z"/>
	<path d="M205.6,465.4c1,0.9,1.4,2.3,1.4,4.1v7.3h-2.3v-7.1c0-1.2-0.3-2.2-0.9-2.8c-0.6-0.6-1.4-0.9-2.5-0.9c-1.2,0-2.2,0.4-3,1.1
		c-0.7,0.7-1.1,1.8-1.1,3.1v6.6H195V459h2.3v6.9c0.5-0.6,1.1-1.1,1.9-1.4c0.8-0.3,1.6-0.5,2.6-0.5
		C203.4,464,204.7,464.5,205.6,465.4z"/>
	<path d="M213,474.2c0.3,0.3,0.4,0.7,0.4,1.2c0,0.2,0,0.5-0.1,0.7c-0.1,0.2-0.2,0.6-0.3,1l-1.1,3.3h-1.5l0.9-3.6
		c-0.3-0.1-0.5-0.3-0.7-0.6c-0.2-0.3-0.3-0.6-0.3-0.9c0-0.5,0.2-0.9,0.5-1.2c0.3-0.3,0.7-0.5,1.2-0.5
		C212.3,473.7,212.7,473.9,213,474.2z"/>
	<path d="M232.3,468.1c1.1,0.9,1.7,2.1,1.7,3.7c0,1-0.2,1.9-0.7,2.7c-0.5,0.8-1.2,1.4-2.1,1.9s-2.1,0.7-3.5,0.7
		c-1.2,0-2.3-0.2-3.4-0.5c-1.1-0.4-2-0.9-2.7-1.5l1.1-1.9c0.6,0.5,1.3,1,2.2,1.3c0.9,0.3,1.8,0.5,2.8,0.5c1.3,0,2.2-0.3,2.9-0.8
		c0.7-0.5,1-1.3,1-2.2c0-1-0.4-1.8-1.2-2.3c-0.8-0.5-2.1-0.8-3.9-0.8h-3.8l0.9-8.8h9.5v2.1h-7.5l-0.5,4.6h1.9
		C229.4,466.7,231.1,467.2,232.3,468.1z"/>
	<path d="M255.4,459v17.8h-2.2v-2c-0.5,0.7-1.2,1.2-1.9,1.6c-0.8,0.4-1.6,0.6-2.6,0.6c-1.2,0-2.3-0.3-3.3-0.8
		c-1-0.5-1.7-1.3-2.3-2.3c-0.6-1-0.8-2.1-0.8-3.4c0-1.3,0.3-2.4,0.8-3.4c0.6-1,1.3-1.7,2.3-2.3c1-0.5,2.1-0.8,3.3-0.8
		c0.9,0,1.8,0.2,2.5,0.5c0.8,0.3,1.4,0.9,1.9,1.5v-7H255.4z M251.1,474.4c0.7-0.4,1.2-0.9,1.5-1.6c0.4-0.7,0.6-1.5,0.6-2.3
		c0-0.9-0.2-1.7-0.6-2.3c-0.4-0.7-0.9-1.2-1.5-1.6c-0.7-0.4-1.4-0.6-2.2-0.6c-0.8,0-1.5,0.2-2.2,0.6c-0.6,0.4-1.2,0.9-1.5,1.6
		c-0.4,0.7-0.6,1.5-0.6,2.3c0,0.9,0.2,1.7,0.6,2.3c0.4,0.7,0.9,1.2,1.5,1.6s1.4,0.6,2.2,0.6C249.7,475,250.4,474.8,251.1,474.4z"/>
	<path d="M259.8,461.2c-0.3-0.3-0.4-0.6-0.4-1.1s0.1-0.8,0.4-1.1c0.3-0.3,0.7-0.4,1.1-0.4c0.4,0,0.8,0.1,1.1,0.4
		c0.3,0.3,0.4,0.6,0.4,1c0,0.4-0.1,0.8-0.4,1.1c-0.3,0.3-0.7,0.4-1.1,0.4C260.5,461.7,260.1,461.5,259.8,461.2z M259.8,464.1h2.3
		v12.7h-2.3V464.1z"/>
	<path d="M275.2,465.3c0.9,0.9,1.4,2.2,1.4,3.9v7.7h-2.2v-1.7c-0.4,0.6-0.9,1-1.6,1.4c-0.7,0.3-1.6,0.5-2.5,0.5
		c-1.4,0-2.6-0.3-3.4-1c-0.9-0.7-1.3-1.6-1.3-2.7s0.4-2,1.2-2.7c0.8-0.7,2.1-1,3.9-1h3.6v-0.5c0-1-0.3-1.8-0.9-2.3
		c-0.6-0.5-1.4-0.8-2.5-0.8c-0.8,0-1.5,0.1-2.2,0.4c-0.7,0.2-1.3,0.6-1.8,1l-1-1.7c0.7-0.5,1.4-0.9,2.4-1.2s1.9-0.4,2.9-0.4
		C272.9,464,274.2,464.4,275.2,465.3z M272.9,474.6c0.6-0.4,1.1-0.9,1.4-1.7v-1.8h-3.6c-2,0-2.9,0.7-2.9,2c0,0.6,0.2,1.1,0.7,1.5
		c0.5,0.4,1.2,0.6,2.1,0.6C271.5,475.2,272.3,475,272.9,474.6z"/>
	<path d="M281.5,476.6c-1-0.3-1.7-0.6-2.3-1.1l1-1.8c0.6,0.4,1.2,0.7,2,1c0.8,0.2,1.6,0.4,2.4,0.4c2,0,3-0.6,3-1.7
		c0-0.4-0.1-0.7-0.4-0.9c-0.3-0.2-0.6-0.4-1-0.5c-0.4-0.1-1-0.2-1.7-0.3c-1-0.2-1.9-0.3-2.5-0.6s-1.2-0.6-1.7-1.1
		c-0.5-0.5-0.7-1.2-0.7-2.1c0-1.2,0.5-2.1,1.4-2.8s2.2-1,3.9-1c0.8,0,1.7,0.1,2.5,0.3c0.8,0.2,1.5,0.5,2.1,0.8l-1,1.8
		c-1-0.7-2.3-1-3.7-1c-1,0-1.7,0.2-2.2,0.5c-0.5,0.3-0.8,0.7-0.8,1.3c0,0.4,0.1,0.7,0.4,1c0.3,0.2,0.6,0.4,1.1,0.5
		c0.4,0.1,1,0.2,1.8,0.4c1,0.2,1.9,0.4,2.5,0.6c0.6,0.2,1.2,0.5,1.6,1c0.4,0.5,0.7,1.2,0.7,2c0,1.2-0.5,2.1-1.5,2.7
		c-1,0.7-2.3,1-4,1C283.5,477,282.5,476.8,281.5,476.6z"/>
</g>
<rect x="584.4" y="292.5" width="9.5" height="1.5"/>
<line class="st1" x1="23.1" y1="298.7" x2="1230.3" y2="298.7"/>
<line class="st1" x1="23.1" y1="433.7" x2="1230.3" y2="433.7"/>
<g>
	<path d="M540.6,188v16.8h-2.4v-14.7h-3.8V188H540.6z"/>
	<path d="M547.6,204c-1-0.7-1.8-1.7-2.4-3s-0.9-2.8-0.9-4.6s0.3-3.3,0.9-4.6c0.6-1.3,1.4-2.3,2.4-3c1-0.7,2.2-1,3.5-1
		c1.3,0,2.5,0.3,3.5,1c1,0.7,1.8,1.7,2.4,3c0.6,1.3,0.9,2.8,0.9,4.6s-0.3,3.3-0.9,4.6s-1.4,2.3-2.4,3c-1,0.7-2.2,1-3.5,1
		C549.8,205,548.6,204.7,547.6,204z M554.4,201.2c0.8-1.1,1.2-2.7,1.2-4.8s-0.4-3.7-1.2-4.8s-1.9-1.7-3.2-1.7
		c-1.4,0-2.4,0.6-3.3,1.7c-0.8,1.1-1.2,2.7-1.2,4.8s0.4,3.7,1.2,4.8c0.8,1.1,1.9,1.7,3.3,1.7C552.5,202.9,553.6,202.3,554.4,201.2z"
		/>
	<path d="M563.6,204c-1-0.7-1.8-1.7-2.4-3s-0.9-2.8-0.9-4.6s0.3-3.3,0.9-4.6c0.6-1.3,1.4-2.3,2.4-3c1-0.7,2.2-1,3.5-1
		c1.3,0,2.5,0.3,3.5,1c1,0.7,1.8,1.7,2.4,3c0.6,1.3,0.9,2.8,0.9,4.6s-0.3,3.3-0.9,4.6s-1.4,2.3-2.4,3c-1,0.7-2.2,1-3.5,1
		C565.8,205,564.7,204.7,563.6,204z M570.4,201.2c0.8-1.1,1.2-2.7,1.2-4.8s-0.4-3.7-1.2-4.8s-1.9-1.7-3.2-1.7
		c-1.4,0-2.4,0.6-3.3,1.7c-0.8,1.1-1.2,2.7-1.2,4.8s0.4,3.7,1.2,4.8c0.8,1.1,1.9,1.7,3.3,1.7C568.5,202.9,569.6,202.3,570.4,201.2z"
		/>
	<path d="M592.5,193.3c0.9,0.9,1.4,2.2,1.4,3.9v7.7h-2.2v-1.7c-0.4,0.6-0.9,1-1.6,1.4c-0.7,0.3-1.6,0.5-2.5,0.5
		c-1.4,0-2.6-0.3-3.4-1c-0.9-0.7-1.3-1.6-1.3-2.7c0-1.1,0.4-2,1.2-2.7c0.8-0.7,2.1-1,3.9-1h3.6v-0.5c0-1-0.3-1.8-0.9-2.3
		c-0.6-0.5-1.4-0.8-2.5-0.8c-0.8,0-1.5,0.1-2.2,0.4c-0.7,0.2-1.3,0.6-1.8,1l-1-1.7c0.7-0.5,1.4-0.9,2.4-1.2c0.9-0.3,1.9-0.4,2.9-0.4
		C590.2,192,591.5,192.4,592.5,193.3z M590.2,202.6c0.6-0.4,1.1-0.9,1.4-1.7v-1.8H588c-2,0-2.9,0.7-2.9,2c0,0.6,0.2,1.1,0.7,1.5
		c0.5,0.4,1.2,0.6,2.1,0.6S589.5,203,590.2,202.6z"/>
	<path d="M615.4,202.8v2.1h-12.1v-1.6l6.8-6.6c0.8-0.8,1.4-1.5,1.7-2.1c0.3-0.6,0.4-1.2,0.4-1.8c0-0.9-0.3-1.6-0.9-2.1
		c-0.6-0.5-1.5-0.7-2.7-0.7c-1.9,0-3.3,0.6-4.3,1.8l-1.6-1.4c0.7-0.8,1.5-1.4,2.6-1.9s2.3-0.7,3.6-0.7c1.8,0,3.2,0.4,4.2,1.3
		c1,0.8,1.6,2,1.6,3.4c0,0.9-0.2,1.7-0.6,2.5c-0.4,0.8-1.1,1.7-2.2,2.7l-5.1,4.9H615.4z"/>
	<path d="M620.7,204c-1-0.7-1.8-1.7-2.4-3c-0.6-1.3-0.9-2.8-0.9-4.6s0.3-3.3,0.9-4.6c0.6-1.3,1.4-2.3,2.4-3c1-0.7,2.2-1,3.5-1
		c1.3,0,2.5,0.3,3.5,1c1,0.7,1.8,1.7,2.4,3c0.6,1.3,0.9,2.8,0.9,4.6s-0.3,3.3-0.9,4.6s-1.4,2.3-2.4,3c-1,0.7-2.2,1-3.5,1
		C622.9,205,621.7,204.7,620.7,204z M627.4,201.2c0.8-1.1,1.2-2.7,1.2-4.8s-0.4-3.7-1.2-4.8c-0.8-1.1-1.9-1.7-3.2-1.7
		c-1.4,0-2.4,0.6-3.3,1.7s-1.2,2.7-1.2,4.8s0.4,3.7,1.2,4.8s1.9,1.7,3.3,1.7C625.6,202.9,626.6,202.3,627.4,201.2z"/>
	<path d="M643.4,196.1c1.1,0.9,1.7,2.1,1.7,3.7c0,1-0.2,1.9-0.7,2.7s-1.2,1.4-2.1,1.9s-2.1,0.7-3.5,0.7c-1.2,0-2.3-0.2-3.4-0.5
		c-1.1-0.4-2-0.9-2.7-1.5l1.1-1.9c0.6,0.5,1.3,1,2.2,1.3c0.9,0.3,1.8,0.5,2.8,0.5c1.3,0,2.2-0.3,2.9-0.8c0.7-0.5,1-1.3,1-2.2
		c0-1-0.4-1.8-1.2-2.3s-2.1-0.8-3.9-0.8h-3.8l0.9-8.8h9.5v2.1h-7.5l-0.5,4.6h1.9C640.6,194.7,642.3,195.2,643.4,196.1z"/>
	<path d="M542.2,256v16.8h-2.4v-14.7h-3.8V256H542.2z"/>
	<path d="M549.2,272c-1-0.7-1.8-1.7-2.4-3c-0.6-1.3-0.9-2.8-0.9-4.6c0-1.8,0.3-3.3,0.9-4.6c0.6-1.3,1.4-2.3,2.4-3c1-0.7,2.2-1,3.5-1
		c1.3,0,2.5,0.3,3.5,1c1,0.7,1.8,1.7,2.4,3c0.6,1.3,0.9,2.8,0.9,4.6c0,1.8-0.3,3.3-0.9,4.6s-1.4,2.3-2.4,3c-1,0.7-2.2,1-3.5,1
		C551.4,273,550.3,272.7,549.2,272z M556,269.2c0.8-1.1,1.2-2.7,1.2-4.8c0-2.1-0.4-3.7-1.2-4.8c-0.8-1.1-1.9-1.7-3.2-1.7
		c-1.4,0-2.4,0.6-3.3,1.7s-1.2,2.7-1.2,4.8c0,2.1,0.4,3.7,1.2,4.8c0.8,1.1,1.9,1.7,3.3,1.7C554.1,270.9,555.2,270.3,556,269.2z"/>
	<path d="M565.2,272c-1-0.7-1.8-1.7-2.4-3c-0.6-1.3-0.9-2.8-0.9-4.6c0-1.8,0.3-3.3,0.9-4.6c0.6-1.3,1.4-2.3,2.4-3c1-0.7,2.2-1,3.5-1
		c1.3,0,2.5,0.3,3.5,1c1,0.7,1.8,1.7,2.4,3c0.6,1.3,0.9,2.8,0.9,4.6c0,1.8-0.3,3.3-0.9,4.6s-1.4,2.3-2.4,3c-1,0.7-2.2,1-3.5,1
		C567.4,273,566.3,272.7,565.2,272z M572,269.2c0.8-1.1,1.2-2.7,1.2-4.8c0-2.1-0.4-3.7-1.2-4.8c-0.8-1.1-1.9-1.7-3.2-1.7
		c-1.4,0-2.4,0.6-3.3,1.7s-1.2,2.7-1.2,4.8c0,2.1,0.4,3.7,1.2,4.8c0.8,1.1,1.9,1.7,3.3,1.7C570.1,270.9,571.2,270.3,572,269.2z"/>
	<path d="M594.1,261.3c0.9,0.9,1.4,2.2,1.4,3.9v7.7h-2.2v-1.7c-0.4,0.6-0.9,1-1.6,1.4c-0.7,0.3-1.6,0.5-2.5,0.5
		c-1.4,0-2.6-0.3-3.4-1c-0.9-0.7-1.3-1.6-1.3-2.7s0.4-2,1.2-2.7s2.1-1,3.9-1h3.6v-0.5c0-1-0.3-1.8-0.9-2.3c-0.6-0.5-1.4-0.8-2.5-0.8
		c-0.8,0-1.5,0.1-2.2,0.4s-1.3,0.6-1.8,1l-1-1.7c0.7-0.5,1.4-0.9,2.4-1.2s1.9-0.4,2.9-0.4C591.8,260,593.1,260.4,594.1,261.3z
		 M591.8,270.6c0.6-0.4,1.1-0.9,1.4-1.7v-1.8h-3.6c-2,0-2.9,0.7-2.9,2c0,0.6,0.2,1.1,0.7,1.5s1.2,0.6,2.1,0.6
		C590.4,271.2,591.1,271,591.8,270.6z"/>
	<path d="M610.4,256v16.8H608v-14.7h-3.8V256H610.4z"/>
	<path d="M626.5,265.6c0.5,0.7,0.8,1.5,0.8,2.5c0,1-0.3,1.9-0.8,2.6s-1.3,1.3-2.3,1.7c-1,0.4-2.2,0.6-3.6,0.6
		c-1.3,0-2.5-0.2-3.5-0.6c-1-0.4-1.8-1-2.3-1.7s-0.8-1.6-0.8-2.6c0-1,0.3-1.8,0.8-2.5c0.5-0.7,1.2-1.2,2.2-1.6
		c-0.8-0.4-1.4-0.9-1.8-1.5c-0.4-0.6-0.6-1.3-0.6-2.2c0-0.9,0.3-1.7,0.8-2.4c0.5-0.7,1.2-1.2,2.1-1.6s2-0.6,3.2-0.6
		c1.2,0,2.3,0.2,3.2,0.6s1.6,0.9,2.1,1.6c0.5,0.7,0.8,1.5,0.8,2.4c0,0.8-0.2,1.5-0.6,2.1c-0.4,0.6-1,1.1-1.8,1.5
		C625.3,264.4,626,264.9,626.5,265.6z M623.8,270.3c0.8-0.6,1.2-1.3,1.2-2.2c0-0.9-0.4-1.7-1.2-2.2c-0.8-0.5-1.8-0.8-3.1-0.8
		s-2.4,0.3-3.1,0.8s-1.1,1.3-1.1,2.2c0,0.9,0.4,1.7,1.1,2.2s1.8,0.8,3.1,0.8S623,270.8,623.8,270.3z M617.9,258.5
		c-0.7,0.5-1,1.1-1,2s0.3,1.5,1,2c0.6,0.5,1.5,0.7,2.7,0.7c1.2,0,2.1-0.2,2.7-0.7c0.7-0.5,1-1.1,1-2s-0.3-1.5-1-2
		c-0.7-0.5-1.6-0.7-2.7-0.7S618.6,258,617.9,258.5z"/>
	<path d="M632.8,272c-1-0.7-1.8-1.7-2.4-3s-0.9-2.8-0.9-4.6c0-1.8,0.3-3.3,0.9-4.6c0.6-1.3,1.4-2.3,2.4-3c1-0.7,2.2-1,3.5-1
		c1.3,0,2.5,0.3,3.5,1c1,0.7,1.8,1.7,2.4,3c0.6,1.3,0.9,2.8,0.9,4.6c0,1.8-0.3,3.3-0.9,4.6s-1.4,2.3-2.4,3c-1,0.7-2.2,1-3.5,1
		C635,273,633.9,272.7,632.8,272z M639.6,269.2c0.8-1.1,1.2-2.7,1.2-4.8c0-2.1-0.4-3.7-1.2-4.8s-1.9-1.7-3.2-1.7
		c-1.4,0-2.4,0.6-3.3,1.7c-0.8,1.1-1.2,2.7-1.2,4.8c0,2.1,0.4,3.7,1.2,4.8c0.8,1.1,1.9,1.7,3.3,1.7
		C637.7,270.9,638.8,270.3,639.6,269.2z"/>
	<path d="M552.7,326c1.2,1.5,1.8,3.5,1.8,6.2c0,1.9-0.3,3.5-1,4.8c-0.7,1.3-1.6,2.3-2.8,3c-1.2,0.7-2.6,1-4.2,1
		c-0.8,0-1.6-0.1-2.3-0.3c-0.7-0.2-1.3-0.4-1.9-0.7l0.9-1.9c0.8,0.5,1.9,0.8,3.2,0.8c1.7,0,3.1-0.5,4.1-1.6c1-1.1,1.5-2.7,1.5-4.7
		V332c-0.5,0.7-1.1,1.3-2,1.6c-0.8,0.4-1.8,0.6-2.9,0.6c-1.1,0-2.1-0.2-3-0.6s-1.6-1-2-1.8s-0.7-1.7-0.7-2.7c0-1.1,0.3-2,0.8-2.8
		c0.5-0.8,1.2-1.4,2.1-1.9c0.9-0.4,1.9-0.7,3-0.7C549.7,323.8,551.5,324.6,552.7,326z M549.7,331.9c0.6-0.3,1.1-0.7,1.4-1.2
		c0.3-0.5,0.5-1,0.5-1.7c0-0.6-0.2-1.1-0.5-1.6c-0.3-0.5-0.8-0.9-1.4-1.2c-0.6-0.3-1.3-0.4-2.2-0.4c-1.1,0-2,0.3-2.7,0.9
		s-1,1.4-1,2.4c0,1,0.3,1.8,1,2.4c0.7,0.6,1.6,0.9,2.8,0.9C548.4,332.3,549.1,332.2,549.7,331.9z"/>
	<path d="M569.3,333.6c0.5,0.7,0.8,1.5,0.8,2.5c0,1-0.3,1.9-0.8,2.6s-1.3,1.3-2.3,1.7c-1,0.4-2.2,0.6-3.6,0.6
		c-1.3,0-2.5-0.2-3.5-0.6c-1-0.4-1.8-1-2.3-1.7c-0.5-0.7-0.8-1.6-0.8-2.6c0-1,0.3-1.8,0.8-2.5c0.5-0.7,1.2-1.2,2.2-1.6
		c-0.8-0.4-1.4-0.9-1.8-1.5c-0.4-0.6-0.6-1.3-0.6-2.2c0-0.9,0.3-1.7,0.8-2.4c0.5-0.7,1.2-1.2,2.1-1.6c0.9-0.4,2-0.6,3.2-0.6
		c1.2,0,2.3,0.2,3.2,0.6c0.9,0.4,1.6,0.9,2.1,1.6c0.5,0.7,0.8,1.5,0.8,2.4c0,0.8-0.2,1.5-0.6,2.1c-0.4,0.6-1,1.1-1.8,1.5
		C568.1,332.4,568.8,332.9,569.3,333.6z M566.5,338.3c0.8-0.6,1.2-1.3,1.2-2.2c0-0.9-0.4-1.7-1.2-2.2c-0.8-0.5-1.8-0.8-3.1-0.8
		c-1.3,0-2.4,0.3-3.1,0.8c-0.8,0.5-1.1,1.3-1.1,2.2c0,0.9,0.4,1.7,1.1,2.2c0.8,0.6,1.8,0.8,3.1,0.8
		C564.7,339.1,565.8,338.8,566.5,338.3z M560.7,326.5c-0.7,0.5-1,1.1-1,2s0.3,1.5,1,2c0.6,0.5,1.5,0.7,2.7,0.7
		c1.2,0,2.1-0.2,2.7-0.7c0.7-0.5,1-1.1,1-2s-0.3-1.5-1-2c-0.7-0.5-1.6-0.7-2.7-0.7C562.3,325.8,561.4,326,560.7,326.5z"/>
	<path d="M588.5,329.3c0.9,0.9,1.4,2.2,1.4,3.9v7.7h-2.2v-1.7c-0.4,0.6-0.9,1-1.6,1.4c-0.7,0.3-1.6,0.5-2.5,0.5
		c-1.4,0-2.6-0.3-3.4-1c-0.9-0.7-1.3-1.6-1.3-2.7s0.4-2,1.2-2.7s2.1-1,3.9-1h3.6v-0.5c0-1-0.3-1.8-0.9-2.3c-0.6-0.5-1.4-0.8-2.5-0.8
		c-0.8,0-1.5,0.1-2.2,0.4s-1.3,0.6-1.8,1l-1-1.7c0.7-0.5,1.4-0.9,2.4-1.2s1.9-0.4,2.9-0.4C586.2,328,587.5,328.4,588.5,329.3z
		 M586.2,338.6c0.6-0.4,1.1-0.9,1.4-1.7v-1.8H584c-2,0-2.9,0.7-2.9,2c0,0.6,0.2,1.1,0.7,1.5s1.2,0.6,2.1,0.6
		C584.8,339.2,585.5,339,586.2,338.6z"/>
	<path d="M604.8,324v16.8h-2.4v-14.7h-3.8V324H604.8z"/>
	<path d="M623.1,336.7h-3.2v4.1h-2.3v-4.1h-9.3V335l8.6-11h2.6l-8.2,10.6h6.5V331h2.3v3.6h3.2V336.7z"/>
	<path d="M627.8,340c-1-0.7-1.8-1.7-2.4-3s-0.9-2.8-0.9-4.6c0-1.8,0.3-3.3,0.9-4.6s1.4-2.3,2.4-3c1-0.7,2.2-1,3.5-1
		c1.3,0,2.5,0.3,3.5,1c1,0.7,1.8,1.7,2.4,3s0.9,2.8,0.9,4.6c0,1.8-0.3,3.3-0.9,4.6s-1.4,2.3-2.4,3c-1,0.7-2.2,1-3.5,1
		C630,341,628.9,340.7,627.8,340z M634.6,337.2c0.8-1.1,1.2-2.7,1.2-4.8c0-2.1-0.4-3.7-1.2-4.8c-0.8-1.1-1.9-1.7-3.2-1.7
		c-1.4,0-2.4,0.6-3.3,1.7c-0.8,1.1-1.2,2.7-1.2,4.8c0,2.1,0.4,3.7,1.2,4.8c0.8,1.1,1.9,1.7,3.3,1.7
		C632.7,338.9,633.8,338.3,634.6,337.2z"/>
	<path d="M555.1,401.6c0.5,0.7,0.8,1.5,0.8,2.5c0,1-0.3,1.9-0.8,2.6s-1.3,1.3-2.3,1.7c-1,0.4-2.2,0.6-3.6,0.6
		c-1.3,0-2.5-0.2-3.5-0.6c-1-0.4-1.8-1-2.3-1.7c-0.5-0.7-0.8-1.6-0.8-2.6c0-1,0.3-1.8,0.8-2.5c0.5-0.7,1.2-1.2,2.2-1.6
		c-0.8-0.4-1.4-0.9-1.8-1.5c-0.4-0.6-0.6-1.3-0.6-2.2c0-0.9,0.3-1.7,0.8-2.4c0.5-0.7,1.2-1.2,2.1-1.6c0.9-0.4,2-0.6,3.2-0.6
		c1.2,0,2.3,0.2,3.2,0.6c0.9,0.4,1.6,0.9,2.1,1.6c0.5,0.7,0.8,1.5,0.8,2.4c0,0.8-0.2,1.5-0.6,2.1c-0.4,0.6-1,1.1-1.8,1.5
		C553.8,400.4,554.5,400.9,555.1,401.6z M552.3,406.3c0.8-0.6,1.2-1.3,1.2-2.2c0-0.9-0.4-1.7-1.2-2.2c-0.8-0.5-1.8-0.8-3.1-0.8
		c-1.3,0-2.4,0.3-3.1,0.8c-0.8,0.5-1.1,1.3-1.1,2.2c0,0.9,0.4,1.7,1.1,2.2c0.8,0.6,1.8,0.8,3.1,0.8
		C550.5,407.1,551.5,406.8,552.3,406.3z M546.4,394.5c-0.7,0.5-1,1.1-1,2s0.3,1.5,1,2c0.6,0.5,1.5,0.7,2.7,0.7
		c1.2,0,2.1-0.2,2.7-0.7c0.7-0.5,1-1.1,1-2s-0.3-1.5-1-2c-0.7-0.5-1.6-0.7-2.7-0.7C548,393.8,547.1,394,546.4,394.5z"/>
	<path d="M561.4,408c-1-0.7-1.8-1.7-2.4-3c-0.6-1.3-0.9-2.8-0.9-4.6c0-1.8,0.3-3.3,0.9-4.6c0.6-1.3,1.4-2.3,2.4-3c1-0.7,2.2-1,3.5-1
		c1.3,0,2.5,0.3,3.5,1c1,0.7,1.8,1.7,2.4,3s0.9,2.8,0.9,4.6c0,1.8-0.3,3.3-0.9,4.6s-1.4,2.3-2.4,3c-1,0.7-2.2,1-3.5,1
		C563.6,409,562.4,408.7,561.4,408z M568.1,405.2c0.8-1.1,1.2-2.7,1.2-4.8c0-2.1-0.4-3.7-1.2-4.8c-0.8-1.1-1.9-1.7-3.2-1.7
		c-1.4,0-2.4,0.6-3.3,1.7c-0.8,1.1-1.2,2.7-1.2,4.8c0,2.1,0.4,3.7,1.2,4.8c0.8,1.1,1.9,1.7,3.3,1.7
		C566.2,406.9,567.3,406.3,568.1,405.2z"/>
	<path d="M590.2,397.3c0.9,0.9,1.4,2.2,1.4,3.9v7.7h-2.2v-1.7c-0.4,0.6-0.9,1-1.6,1.4c-0.7,0.3-1.6,0.5-2.5,0.5
		c-1.4,0-2.6-0.3-3.4-1c-0.9-0.7-1.3-1.6-1.3-2.7s0.4-2,1.2-2.7s2.1-1,3.9-1h3.6v-0.5c0-1-0.3-1.8-0.9-2.3c-0.6-0.5-1.4-0.8-2.5-0.8
		c-0.8,0-1.5,0.1-2.2,0.4s-1.3,0.6-1.8,1l-1-1.7c0.7-0.5,1.4-0.9,2.4-1.2s1.9-0.4,2.9-0.4C587.9,396,589.3,396.4,590.2,397.3z
		 M587.9,406.6c0.6-0.4,1.1-0.9,1.4-1.7v-1.8h-3.6c-2,0-2.9,0.7-2.9,2c0,0.6,0.2,1.1,0.7,1.5s1.2,0.6,2.1,0.6
		C586.5,407.2,587.3,407,587.9,406.6z"/>
	<path d="M606.5,392v16.8h-2.4v-14.7h-3.8V392H606.5z"/>
	<path d="M622,406.8v2.1h-12.1v-1.6l6.8-6.6c0.8-0.8,1.4-1.5,1.7-2.1s0.4-1.2,0.4-1.8c0-0.9-0.3-1.6-0.9-2.1s-1.5-0.7-2.7-0.7
		c-1.9,0-3.3,0.6-4.3,1.8l-1.6-1.4c0.7-0.8,1.5-1.4,2.6-1.9c1.1-0.4,2.3-0.7,3.6-0.7c1.8,0,3.2,0.4,4.2,1.3c1,0.8,1.6,2,1.6,3.4
		c0,0.9-0.2,1.7-0.6,2.5c-0.4,0.8-1.1,1.7-2.2,2.7l-5.1,4.9H622z"/>
	<path d="M627.3,408c-1-0.7-1.8-1.7-2.4-3c-0.6-1.3-0.9-2.8-0.9-4.6c0-1.8,0.3-3.3,0.9-4.6c0.6-1.3,1.4-2.3,2.4-3c1-0.7,2.2-1,3.5-1
		c1.3,0,2.5,0.3,3.5,1c1,0.7,1.8,1.7,2.4,3s0.9,2.8,0.9,4.6c0,1.8-0.3,3.3-0.9,4.6s-1.4,2.3-2.4,3c-1,0.7-2.2,1-3.5,1
		C629.5,409,628.3,408.7,627.3,408z M634,405.2c0.8-1.1,1.2-2.7,1.2-4.8c0-2.1-0.4-3.7-1.2-4.8c-0.8-1.1-1.9-1.7-3.2-1.7
		c-1.4,0-2.4,0.6-3.3,1.7c-0.8,1.1-1.2,2.7-1.2,4.8c0,2.1,0.4,3.7,1.2,4.8c0.8,1.1,1.9,1.7,3.3,1.7
		C632.2,406.9,633.2,406.3,634,405.2z"/>
	<path d="M559.2,460v1.6l-6.8,15.2h-2.5l6.6-14.7h-7.7v3h-2.3V460H559.2z"/>
	<path d="M571.4,468.1c1.1,0.9,1.7,2.1,1.7,3.7c0,1-0.2,1.9-0.7,2.7c-0.5,0.8-1.2,1.4-2.1,1.9s-2.1,0.7-3.5,0.7
		c-1.2,0-2.3-0.2-3.4-0.5c-1.1-0.4-2-0.9-2.7-1.5l1.1-1.9c0.6,0.5,1.3,1,2.2,1.3c0.9,0.3,1.8,0.5,2.8,0.5c1.3,0,2.2-0.3,2.9-0.8
		s1-1.3,1-2.2c0-1-0.4-1.8-1.2-2.3c-0.8-0.5-2.1-0.8-3.9-0.8h-3.8l0.9-8.8h9.5v2.1h-7.5l-0.5,4.6h1.9
		C568.5,466.7,570.3,467.2,571.4,468.1z"/>
	<path d="M591.3,465.3c0.9,0.9,1.4,2.2,1.4,3.9v7.7h-2.2v-1.7c-0.4,0.6-0.9,1-1.6,1.4c-0.7,0.3-1.6,0.5-2.5,0.5
		c-1.4,0-2.6-0.3-3.4-1c-0.9-0.7-1.3-1.6-1.3-2.7s0.4-2,1.2-2.7s2.1-1,3.9-1h3.6v-0.5c0-1-0.3-1.8-0.9-2.3c-0.6-0.5-1.4-0.8-2.5-0.8
		c-0.8,0-1.5,0.1-2.2,0.4s-1.3,0.6-1.8,1l-1-1.7c0.7-0.5,1.4-0.9,2.4-1.2s1.9-0.4,2.9-0.4C589,464,590.3,464.4,591.3,465.3z
		 M589,474.6c0.6-0.4,1.1-0.9,1.4-1.7v-1.8h-3.6c-2,0-2.9,0.7-2.9,2c0,0.6,0.2,1.1,0.7,1.5s1.2,0.6,2.1,0.6
		C587.6,475.2,588.3,475,589,474.6z"/>
	<path d="M607.6,460v16.8h-2.4v-14.7h-3.8V460H607.6z"/>
	<path d="M616.4,460v16.8h-2.4v-14.7h-3.8V460H616.4z"/>
	<path d="M632.6,469.6c0.5,0.7,0.8,1.5,0.8,2.5c0,1-0.3,1.9-0.8,2.6s-1.3,1.3-2.3,1.7c-1,0.4-2.2,0.6-3.6,0.6
		c-1.3,0-2.5-0.2-3.5-0.6c-1-0.4-1.8-1-2.3-1.7s-0.8-1.6-0.8-2.6c0-1,0.3-1.8,0.8-2.5c0.5-0.7,1.2-1.2,2.2-1.6
		c-0.8-0.4-1.4-0.9-1.8-1.5c-0.4-0.6-0.6-1.3-0.6-2.2c0-0.9,0.3-1.7,0.8-2.4c0.5-0.7,1.2-1.2,2.1-1.6c0.9-0.4,2-0.6,3.2-0.6
		c1.2,0,2.3,0.2,3.2,0.6c0.9,0.4,1.6,0.9,2.1,1.6c0.5,0.7,0.8,1.5,0.8,2.4c0,0.8-0.2,1.5-0.6,2.1c-0.4,0.6-1,1.1-1.8,1.5
		C631.3,468.4,632.1,468.9,632.6,469.6z M629.8,474.3c0.8-0.6,1.2-1.3,1.2-2.2c0-0.9-0.4-1.7-1.2-2.2c-0.8-0.5-1.8-0.8-3.1-0.8
		s-2.4,0.3-3.1,0.8s-1.1,1.3-1.1,2.2c0,0.9,0.4,1.7,1.1,2.2s1.8,0.8,3.1,0.8S629,474.8,629.8,474.3z M624,462.5c-0.7,0.5-1,1.1-1,2
		s0.3,1.5,1,2c0.6,0.5,1.5,0.7,2.7,0.7c1.2,0,2.1-0.2,2.7-0.7c0.7-0.5,1-1.1,1-2s-0.3-1.5-1-2c-0.7-0.5-1.6-0.7-2.7-0.7
		S624.6,462,624,462.5z"/>
</g>
<g>
	<path d="M992,190c1.2,1.5,1.8,3.5,1.8,6.2c0,1.9-0.3,3.5-1,4.8c-0.7,1.3-1.6,2.3-2.8,3c-1.2,0.7-2.6,1-4.2,1
		c-0.8,0-1.6-0.1-2.3-0.3s-1.3-0.4-1.9-0.7l0.9-1.9c0.8,0.5,1.9,0.8,3.2,0.8c1.7,0,3.1-0.5,4.1-1.6c1-1.1,1.5-2.7,1.5-4.7V196
		c-0.5,0.7-1.1,1.3-2,1.6c-0.8,0.4-1.8,0.6-2.9,0.6c-1.1,0-2.1-0.2-3-0.6c-0.9-0.4-1.6-1-2-1.8c-0.5-0.8-0.7-1.7-0.7-2.7
		c0-1.1,0.3-2,0.8-2.8c0.5-0.8,1.2-1.4,2.1-1.9c0.9-0.4,1.9-0.7,3-0.7C989.1,187.8,990.8,188.6,992,190z M989.1,195.9
		c0.6-0.3,1.1-0.7,1.4-1.2s0.5-1,0.5-1.7c0-0.6-0.2-1.1-0.5-1.6c-0.3-0.5-0.8-0.9-1.4-1.2c-0.6-0.3-1.3-0.4-2.2-0.4
		c-1.1,0-2,0.3-2.7,0.9c-0.7,0.6-1,1.4-1,2.4c0,1,0.3,1.8,1,2.4c0.7,0.6,1.6,0.9,2.8,0.9C987.8,196.3,988.5,196.2,989.1,195.9z"/>
	<path d="M999.5,204c-1-0.7-1.8-1.7-2.4-3s-0.9-2.8-0.9-4.6s0.3-3.3,0.9-4.6c0.6-1.3,1.4-2.3,2.4-3c1-0.7,2.2-1,3.5-1
		c1.3,0,2.5,0.3,3.5,1c1,0.7,1.8,1.7,2.4,3c0.6,1.3,0.9,2.8,0.9,4.6s-0.3,3.3-0.9,4.6s-1.4,2.3-2.4,3c-1,0.7-2.2,1-3.5,1
		C1001.7,205,1000.5,204.7,999.5,204z M1006.3,201.2c0.8-1.1,1.2-2.7,1.2-4.8s-0.4-3.7-1.2-4.8s-1.9-1.7-3.2-1.7
		c-1.4,0-2.4,0.6-3.3,1.7c-0.8,1.1-1.2,2.7-1.2,4.8s0.4,3.7,1.2,4.8c0.8,1.1,1.9,1.7,3.3,1.7
		C1004.4,202.9,1005.5,202.3,1006.3,201.2z"/>
	<path d="M1028.4,193.3c0.9,0.9,1.4,2.2,1.4,3.9v7.7h-2.2v-1.7c-0.4,0.6-0.9,1-1.6,1.4c-0.7,0.3-1.6,0.5-2.5,0.5
		c-1.4,0-2.6-0.3-3.4-1c-0.9-0.7-1.3-1.6-1.3-2.7c0-1.1,0.4-2,1.2-2.7c0.8-0.7,2.1-1,3.9-1h3.6v-0.5c0-1-0.3-1.8-0.9-2.3
		c-0.6-0.5-1.4-0.8-2.5-0.8c-0.8,0-1.5,0.1-2.2,0.4c-0.7,0.2-1.3,0.6-1.8,1l-1-1.7c0.7-0.5,1.4-0.9,2.4-1.2c0.9-0.3,1.9-0.4,2.9-0.4
		C1026.1,192,1027.4,192.4,1028.4,193.3z M1026.1,202.6c0.6-0.4,1.1-0.9,1.4-1.7v-1.8h-3.6c-2,0-2.9,0.7-2.9,2
		c0,0.6,0.2,1.1,0.7,1.5c0.5,0.4,1.2,0.6,2.1,0.6C1024.7,203.2,1025.4,203,1026.1,202.6z"/>
	<path d="M1044.7,188v16.8h-2.4v-14.7h-3.8V188H1044.7z"/>
	<path d="M1058.6,195.3c0.9,0.4,1.6,1,2.1,1.8c0.5,0.8,0.7,1.7,0.7,2.7c0,1.1-0.3,2-0.8,2.8c-0.5,0.8-1.2,1.4-2.1,1.9
		s-1.9,0.7-3,0.7c-2.3,0-4-0.7-5.2-2.2c-1.2-1.5-1.8-3.5-1.8-6.2c0-1.9,0.3-3.5,1-4.8c0.7-1.3,1.6-2.3,2.8-3c1.2-0.7,2.6-1,4.2-1
		c0.8,0,1.6,0.1,2.3,0.3c0.7,0.2,1.3,0.4,1.9,0.7l-0.9,1.9c-0.8-0.5-1.9-0.8-3.2-0.8c-1.7,0-3.1,0.5-4.1,1.6s-1.5,2.7-1.5,4.7
		c0,0.3,0,0.5,0,0.6c0.5-0.7,1.1-1.3,2-1.6c0.8-0.4,1.8-0.6,2.8-0.6C1056.7,194.6,1057.7,194.8,1058.6,195.3z M1058,202.2
		c0.7-0.6,1-1.4,1-2.4c0-1-0.3-1.8-1-2.4s-1.6-0.9-2.8-0.9c-0.8,0-1.4,0.1-2,0.4c-0.6,0.3-1,0.7-1.4,1.2c-0.3,0.5-0.5,1-0.5,1.7
		c0,0.6,0.2,1.1,0.5,1.6c0.3,0.5,0.8,0.9,1.4,1.2c0.6,0.3,1.3,0.4,2.1,0.4C1056.4,203.1,1057.3,202.8,1058,202.2z"/>
	<path d="M1066.5,204c-1-0.7-1.8-1.7-2.4-3s-0.9-2.8-0.9-4.6s0.3-3.3,0.9-4.6c0.6-1.3,1.4-2.3,2.4-3c1-0.7,2.2-1,3.5-1
		c1.3,0,2.5,0.3,3.5,1c1,0.7,1.8,1.7,2.4,3c0.6,1.3,0.9,2.8,0.9,4.6s-0.3,3.3-0.9,4.6s-1.4,2.3-2.4,3c-1,0.7-2.2,1-3.5,1
		C1068.7,205,1067.5,204.7,1066.5,204z M1073.2,201.2c0.8-1.1,1.2-2.7,1.2-4.8s-0.4-3.7-1.2-4.8s-1.9-1.7-3.2-1.7
		c-1.4,0-2.4,0.6-3.3,1.7c-0.8,1.1-1.2,2.7-1.2,4.8s0.4,3.7,1.2,4.8c0.8,1.1,1.9,1.7,3.3,1.7
		C1071.4,202.9,1072.4,202.3,1073.2,201.2z"/>
	<path d="M992,258c1.2,1.5,1.8,3.5,1.8,6.2c0,1.9-0.3,3.5-1,4.8s-1.6,2.3-2.8,3c-1.2,0.7-2.6,1-4.2,1c-0.8,0-1.6-0.1-2.3-0.3
		s-1.3-0.4-1.9-0.7l0.9-1.9c0.8,0.5,1.9,0.8,3.2,0.8c1.7,0,3.1-0.5,4.1-1.6s1.5-2.7,1.5-4.7V264c-0.5,0.7-1.1,1.3-2,1.6
		c-0.8,0.4-1.8,0.6-2.9,0.6c-1.1,0-2.1-0.2-3-0.6s-1.6-1-2-1.8s-0.7-1.7-0.7-2.7c0-1.1,0.3-2,0.8-2.8c0.5-0.8,1.2-1.4,2.1-1.9
		c0.9-0.4,1.9-0.7,3-0.7C989.1,255.8,990.8,256.6,992,258z M989.1,263.9c0.6-0.3,1.1-0.7,1.4-1.2c0.3-0.5,0.5-1,0.5-1.7
		c0-0.6-0.2-1.1-0.5-1.6c-0.3-0.5-0.8-0.9-1.4-1.2c-0.6-0.3-1.3-0.4-2.2-0.4c-1.1,0-2,0.3-2.7,0.9c-0.7,0.6-1,1.4-1,2.4
		c0,1,0.3,1.8,1,2.4c0.7,0.6,1.6,0.9,2.8,0.9C987.8,264.3,988.5,264.2,989.1,263.9z"/>
	<path d="M999.5,272c-1-0.7-1.8-1.7-2.4-3s-0.9-2.8-0.9-4.6c0-1.8,0.3-3.3,0.9-4.6c0.6-1.3,1.4-2.3,2.4-3c1-0.7,2.2-1,3.5-1
		c1.3,0,2.5,0.3,3.5,1c1,0.7,1.8,1.7,2.4,3c0.6,1.3,0.9,2.8,0.9,4.6c0,1.8-0.3,3.3-0.9,4.6s-1.4,2.3-2.4,3c-1,0.7-2.2,1-3.5,1
		C1001.7,273,1000.5,272.7,999.5,272z M1006.3,269.2c0.8-1.1,1.2-2.7,1.2-4.8c0-2.1-0.4-3.7-1.2-4.8s-1.9-1.7-3.2-1.7
		c-1.4,0-2.4,0.6-3.3,1.7c-0.8,1.1-1.2,2.7-1.2,4.8c0,2.1,0.4,3.7,1.2,4.8c0.8,1.1,1.9,1.7,3.3,1.7
		C1004.4,270.9,1005.5,270.3,1006.3,269.2z"/>
	<path d="M1028.4,261.3c0.9,0.9,1.4,2.2,1.4,3.9v7.7h-2.2v-1.7c-0.4,0.6-0.9,1-1.6,1.4c-0.7,0.3-1.6,0.5-2.5,0.5
		c-1.4,0-2.6-0.3-3.4-1c-0.9-0.7-1.3-1.6-1.3-2.7s0.4-2,1.2-2.7c0.8-0.7,2.1-1,3.9-1h3.6v-0.5c0-1-0.3-1.8-0.9-2.3
		c-0.6-0.5-1.4-0.8-2.5-0.8c-0.8,0-1.5,0.1-2.2,0.4c-0.7,0.2-1.3,0.6-1.8,1l-1-1.7c0.7-0.5,1.4-0.9,2.4-1.2s1.9-0.4,2.9-0.4
		C1026.1,260,1027.4,260.4,1028.4,261.3z M1026.1,270.6c0.6-0.4,1.1-0.9,1.4-1.7v-1.8h-3.6c-2,0-2.9,0.7-2.9,2
		c0,0.6,0.2,1.1,0.7,1.5c0.5,0.4,1.2,0.6,2.1,0.6C1024.7,271.2,1025.4,271,1026.1,270.6z"/>
	<path d="M1044.7,256v16.8h-2.4v-14.7h-3.8V256H1044.7z"/>
	<path d="M1058.6,263.3c0.9,0.4,1.6,1,2.1,1.8c0.5,0.8,0.7,1.7,0.7,2.7c0,1.1-0.3,2-0.8,2.8c-0.5,0.8-1.2,1.4-2.1,1.9
		s-1.9,0.7-3,0.7c-2.3,0-4-0.7-5.2-2.2c-1.2-1.5-1.8-3.5-1.8-6.2c0-1.9,0.3-3.5,1-4.8c0.7-1.3,1.6-2.3,2.8-3c1.2-0.7,2.6-1,4.2-1
		c0.8,0,1.6,0.1,2.3,0.3c0.7,0.2,1.3,0.4,1.9,0.7l-0.9,1.9c-0.8-0.5-1.9-0.8-3.2-0.8c-1.7,0-3.1,0.5-4.1,1.6c-1,1.1-1.5,2.7-1.5,4.7
		c0,0.3,0,0.5,0,0.6c0.5-0.7,1.1-1.3,2-1.6c0.8-0.4,1.8-0.6,2.8-0.6C1056.7,262.6,1057.7,262.8,1058.6,263.3z M1058,270.2
		c0.7-0.6,1-1.4,1-2.4s-0.3-1.8-1-2.4s-1.6-0.9-2.8-0.9c-0.8,0-1.4,0.1-2,0.4s-1,0.7-1.4,1.2c-0.3,0.5-0.5,1-0.5,1.7
		c0,0.6,0.2,1.1,0.5,1.6c0.3,0.5,0.8,0.9,1.4,1.2c0.6,0.3,1.3,0.4,2.1,0.4C1056.4,271.1,1057.3,270.8,1058,270.2z"/>
	<path d="M1066.5,272c-1-0.7-1.8-1.7-2.4-3s-0.9-2.8-0.9-4.6c0-1.8,0.3-3.3,0.9-4.6c0.6-1.3,1.4-2.3,2.4-3c1-0.7,2.2-1,3.5-1
		c1.3,0,2.5,0.3,3.5,1c1,0.7,1.8,1.7,2.4,3c0.6,1.3,0.9,2.8,0.9,4.6c0,1.8-0.3,3.3-0.9,4.6s-1.4,2.3-2.4,3c-1,0.7-2.2,1-3.5,1
		C1068.7,273,1067.5,272.7,1066.5,272z M1073.2,269.2c0.8-1.1,1.2-2.7,1.2-4.8c0-2.1-0.4-3.7-1.2-4.8s-1.9-1.7-3.2-1.7
		c-1.4,0-2.4,0.6-3.3,1.7c-0.8,1.1-1.2,2.7-1.2,4.8c0,2.1,0.4,3.7,1.2,4.8c0.8,1.1,1.9,1.7,3.3,1.7
		C1071.4,270.9,1072.4,270.3,1073.2,269.2z"/>
	<path d="M994.1,333.6c0.5,0.7,0.8,1.5,0.8,2.5c0,1-0.3,1.9-0.8,2.6s-1.3,1.3-2.3,1.7c-1,0.4-2.2,0.6-3.6,0.6
		c-1.3,0-2.5-0.2-3.5-0.6c-1-0.4-1.8-1-2.3-1.7c-0.5-0.7-0.8-1.6-0.8-2.6c0-1,0.3-1.8,0.8-2.5c0.5-0.7,1.2-1.2,2.2-1.6
		c-0.8-0.4-1.4-0.9-1.8-1.5c-0.4-0.6-0.6-1.3-0.6-2.2c0-0.9,0.3-1.7,0.8-2.4c0.5-0.7,1.2-1.2,2.1-1.6c0.9-0.4,2-0.6,3.2-0.6
		c1.2,0,2.3,0.2,3.2,0.6c0.9,0.4,1.6,0.9,2.1,1.6c0.5,0.7,0.8,1.5,0.8,2.4c0,0.8-0.2,1.5-0.6,2.1c-0.4,0.6-1,1.1-1.8,1.5
		C992.8,332.4,993.5,332.9,994.1,333.6z M991.3,338.3c0.8-0.6,1.2-1.3,1.2-2.2c0-0.9-0.4-1.7-1.2-2.2c-0.8-0.5-1.8-0.8-3.1-0.8
		c-1.3,0-2.4,0.3-3.1,0.8c-0.8,0.5-1.1,1.3-1.1,2.2c0,0.9,0.4,1.7,1.1,2.2c0.8,0.6,1.8,0.8,3.1,0.8
		C989.5,339.1,990.5,338.8,991.3,338.3z M985.4,326.5c-0.7,0.5-1,1.1-1,2s0.3,1.5,1,2c0.6,0.5,1.5,0.7,2.7,0.7
		c1.2,0,2.1-0.2,2.7-0.7c0.7-0.5,1-1.1,1-2s-0.3-1.5-1-2c-0.7-0.5-1.6-0.7-2.7-0.7C987,325.8,986.1,326,985.4,326.5z"/>
	<path d="M1000.4,340c-1-0.7-1.8-1.7-2.4-3c-0.6-1.3-0.9-2.8-0.9-4.6c0-1.8,0.3-3.3,0.9-4.6c0.6-1.3,1.4-2.3,2.4-3
		c1-0.7,2.2-1,3.5-1c1.3,0,2.5,0.3,3.5,1c1,0.7,1.8,1.7,2.4,3s0.9,2.8,0.9,4.6c0,1.8-0.3,3.3-0.9,4.6s-1.4,2.3-2.4,3
		c-1,0.7-2.2,1-3.5,1C1002.6,341,1001.4,340.7,1000.4,340z M1007.1,337.2c0.8-1.1,1.2-2.7,1.2-4.8c0-2.1-0.4-3.7-1.2-4.8
		c-0.8-1.1-1.9-1.7-3.2-1.7c-1.4,0-2.4,0.6-3.3,1.7c-0.8,1.1-1.2,2.7-1.2,4.8c0,2.1,0.4,3.7,1.2,4.8c0.8,1.1,1.9,1.7,3.3,1.7
		C1005.2,338.9,1006.3,338.3,1007.1,337.2z"/>
	<path d="M1029.2,329.3c0.9,0.9,1.4,2.2,1.4,3.9v7.7h-2.2v-1.7c-0.4,0.6-0.9,1-1.6,1.4c-0.7,0.3-1.6,0.5-2.5,0.5
		c-1.4,0-2.6-0.3-3.4-1c-0.9-0.7-1.3-1.6-1.3-2.7s0.4-2,1.2-2.7s2.1-1,3.9-1h3.6v-0.5c0-1-0.3-1.8-0.9-2.3c-0.6-0.5-1.4-0.8-2.5-0.8
		c-0.8,0-1.5,0.1-2.2,0.4s-1.3,0.6-1.8,1l-1-1.7c0.7-0.5,1.4-0.9,2.4-1.2s1.9-0.4,2.9-0.4C1026.9,328,1028.3,328.4,1029.2,329.3z
		 M1026.9,338.6c0.6-0.4,1.1-0.9,1.4-1.7v-1.8h-3.6c-2,0-2.9,0.7-2.9,2c0,0.6,0.2,1.1,0.7,1.5s1.2,0.6,2.1,0.6
		C1025.5,339.2,1026.3,339,1026.9,338.6z"/>
	<path d="M1045.5,324v16.8h-2.4v-14.7h-3.8V324H1045.5z"/>
	<path d="M1061,338.8v2.1h-12.1v-1.6l6.8-6.6c0.8-0.8,1.4-1.5,1.7-2.1s0.4-1.2,0.4-1.8c0-0.9-0.3-1.6-0.9-2.1s-1.5-0.7-2.7-0.7
		c-1.9,0-3.3,0.6-4.3,1.8l-1.6-1.4c0.7-0.8,1.5-1.4,2.6-1.9c1.1-0.4,2.3-0.7,3.6-0.7c1.8,0,3.2,0.4,4.2,1.3c1,0.8,1.6,2,1.6,3.4
		c0,0.9-0.2,1.7-0.6,2.5c-0.4,0.8-1.1,1.7-2.2,2.7l-5.1,4.9H1061z"/>
	<path d="M1066.3,340c-1-0.7-1.8-1.7-2.4-3c-0.6-1.3-0.9-2.8-0.9-4.6c0-1.8,0.3-3.3,0.9-4.6c0.6-1.3,1.4-2.3,2.4-3
		c1-0.7,2.2-1,3.5-1c1.3,0,2.5,0.3,3.5,1c1,0.7,1.8,1.7,2.4,3s0.9,2.8,0.9,4.6c0,1.8-0.3,3.3-0.9,4.6s-1.4,2.3-2.4,3
		c-1,0.7-2.2,1-3.5,1C1068.5,341,1067.3,340.7,1066.3,340z M1073,337.2c0.8-1.1,1.2-2.7,1.2-4.8c0-2.1-0.4-3.7-1.2-4.8
		c-0.8-1.1-1.9-1.7-3.2-1.7c-1.4,0-2.4,0.6-3.3,1.7c-0.8,1.1-1.2,2.7-1.2,4.8c0,2.1,0.4,3.7,1.2,4.8c0.8,1.1,1.9,1.7,3.3,1.7
		C1071.2,338.9,1072.2,338.3,1073,337.2z"/>
	<path d="M992.1,399.3c0.9,0.4,1.6,1,2.1,1.8c0.5,0.8,0.7,1.7,0.7,2.7c0,1.1-0.3,2-0.8,2.8c-0.5,0.8-1.2,1.4-2.1,1.9
		c-0.9,0.4-1.9,0.7-3,0.7c-2.3,0-4-0.7-5.2-2.2c-1.2-1.5-1.8-3.5-1.8-6.2c0-1.9,0.3-3.5,1-4.8c0.7-1.3,1.6-2.3,2.8-3
		c1.2-0.7,2.6-1,4.2-1c0.8,0,1.6,0.1,2.3,0.3c0.7,0.2,1.3,0.4,1.9,0.7l-0.9,1.9c-0.8-0.5-1.9-0.8-3.2-0.8c-1.7,0-3.1,0.5-4.1,1.6
		c-1,1.1-1.5,2.7-1.5,4.7c0,0.3,0,0.5,0,0.6c0.5-0.7,1.1-1.3,2-1.6s1.8-0.6,2.8-0.6C990.2,398.6,991.2,398.8,992.1,399.3z
		 M991.5,406.2c0.7-0.6,1-1.4,1-2.4s-0.3-1.8-1-2.4c-0.7-0.6-1.6-0.9-2.8-0.9c-0.8,0-1.4,0.1-2,0.4s-1,0.7-1.4,1.2
		c-0.3,0.5-0.5,1-0.5,1.7c0,0.6,0.2,1.1,0.5,1.6c0.3,0.5,0.8,0.9,1.4,1.2c0.6,0.3,1.3,0.4,2.1,0.4
		C990,407.1,990.9,406.8,991.5,406.2z"/>
	<path d="M1006.8,400.1c1.1,0.9,1.7,2.1,1.7,3.7c0,1-0.2,1.9-0.7,2.7s-1.2,1.4-2.1,1.9s-2.1,0.7-3.5,0.7c-1.2,0-2.3-0.2-3.4-0.5
		c-1.1-0.4-2-0.9-2.7-1.5l1.1-1.9c0.6,0.5,1.3,1,2.2,1.3c0.9,0.3,1.8,0.5,2.8,0.5c1.3,0,2.2-0.3,2.9-0.8c0.7-0.5,1-1.3,1-2.2
		c0-1-0.4-1.8-1.2-2.3c-0.8-0.5-2.1-0.8-3.9-0.8h-3.8l0.9-8.8h9.5v2.1h-7.5l-0.5,4.6h1.9C1003.9,398.7,1005.7,399.2,1006.8,400.1z"
		/>
	<path d="M1026.6,397.3c0.9,0.9,1.4,2.2,1.4,3.9v7.7h-2.2v-1.7c-0.4,0.6-0.9,1-1.6,1.4c-0.7,0.3-1.6,0.5-2.5,0.5
		c-1.4,0-2.6-0.3-3.4-1c-0.9-0.7-1.3-1.6-1.3-2.7s0.4-2,1.2-2.7c0.8-0.7,2.1-1,3.9-1h3.6v-0.5c0-1-0.3-1.8-0.9-2.3
		c-0.6-0.5-1.4-0.8-2.5-0.8c-0.8,0-1.5,0.1-2.2,0.4c-0.7,0.2-1.3,0.6-1.8,1l-1-1.7c0.7-0.5,1.4-0.9,2.4-1.2s1.9-0.4,2.9-0.4
		C1024.4,396,1025.7,396.4,1026.6,397.3z M1024.4,406.6c0.6-0.4,1.1-0.9,1.4-1.7v-1.8h-3.6c-2,0-2.9,0.7-2.9,2
		c0,0.6,0.2,1.1,0.7,1.5c0.5,0.4,1.2,0.6,2.1,0.6S1023.7,407,1024.4,406.6z"/>
	<path d="M1043,392v16.8h-2.4v-14.7h-3.8V392H1043z"/>
	<path d="M1049.9,408c-1-0.7-1.8-1.7-2.4-3s-0.9-2.8-0.9-4.6c0-1.8,0.3-3.3,0.9-4.6s1.4-2.3,2.4-3c1-0.7,2.2-1,3.5-1
		c1.3,0,2.5,0.3,3.5,1c1,0.7,1.8,1.7,2.4,3s0.9,2.8,0.9,4.6c0,1.8-0.3,3.3-0.9,4.6s-1.4,2.3-2.4,3c-1,0.7-2.2,1-3.5,1
		C1052.2,409,1051,408.7,1049.9,408z M1056.7,405.2c0.8-1.1,1.2-2.7,1.2-4.8c0-2.1-0.4-3.7-1.2-4.8c-0.8-1.1-1.9-1.7-3.2-1.7
		c-1.4,0-2.4,0.6-3.3,1.7c-0.8,1.1-1.2,2.7-1.2,4.8c0,2.1,0.4,3.7,1.2,4.8c0.8,1.1,1.9,1.7,3.3,1.7
		C1054.8,406.9,1055.9,406.3,1056.7,405.2z"/>
	<path d="M1066,408c-1-0.7-1.8-1.7-2.4-3s-0.9-2.8-0.9-4.6c0-1.8,0.3-3.3,0.9-4.6s1.4-2.3,2.4-3c1-0.7,2.2-1,3.5-1
		c1.3,0,2.5,0.3,3.5,1c1,0.7,1.8,1.7,2.4,3s0.9,2.8,0.9,4.6c0,1.8-0.3,3.3-0.9,4.6s-1.4,2.3-2.4,3c-1,0.7-2.2,1-3.5,1
		C1068.2,409,1067,408.7,1066,408z M1072.7,405.2c0.8-1.1,1.2-2.7,1.2-4.8c0-2.1-0.4-3.7-1.2-4.8c-0.8-1.1-1.9-1.7-3.2-1.7
		c-1.4,0-2.4,0.6-3.3,1.7c-0.8,1.1-1.2,2.7-1.2,4.8c0,2.1,0.4,3.7,1.2,4.8c0.8,1.1,1.9,1.7,3.3,1.7
		C1070.8,406.9,1071.9,406.3,1072.7,405.2z"/>
	<path d="M989.1,468.1c1.1,0.9,1.7,2.1,1.7,3.7c0,1-0.2,1.9-0.7,2.7c-0.5,0.8-1.2,1.4-2.1,1.9s-2.1,0.7-3.5,0.7
		c-1.2,0-2.3-0.2-3.4-0.5c-1.1-0.4-2-0.9-2.7-1.5l1.1-1.9c0.6,0.5,1.3,1,2.2,1.3c0.9,0.3,1.8,0.5,2.8,0.5c1.3,0,2.2-0.3,2.9-0.8
		s1-1.3,1-2.2c0-1-0.4-1.8-1.2-2.3c-0.8-0.5-2.1-0.8-3.9-0.8h-3.8l0.9-8.8h9.5v2.1h-7.5l-0.5,4.6h1.9
		C986.2,466.7,988,467.2,989.1,468.1z"/>
	<path d="M1005.2,469.6c0.5,0.7,0.8,1.5,0.8,2.5c0,1-0.3,1.9-0.8,2.6s-1.3,1.3-2.3,1.7c-1,0.4-2.2,0.6-3.6,0.6
		c-1.3,0-2.5-0.2-3.5-0.6c-1-0.4-1.8-1-2.3-1.7c-0.5-0.7-0.8-1.6-0.8-2.6c0-1,0.3-1.8,0.8-2.5c0.5-0.7,1.2-1.2,2.2-1.6
		c-0.8-0.4-1.4-0.9-1.8-1.5c-0.4-0.6-0.6-1.3-0.6-2.2c0-0.9,0.3-1.7,0.8-2.4c0.5-0.7,1.2-1.2,2.1-1.6c0.9-0.4,2-0.6,3.2-0.6
		c1.2,0,2.3,0.2,3.2,0.6c0.9,0.4,1.6,0.9,2.1,1.6c0.5,0.7,0.8,1.5,0.8,2.4c0,0.8-0.2,1.5-0.6,2.1c-0.4,0.6-1,1.1-1.8,1.5
		C1004,468.4,1004.7,468.9,1005.2,469.6z M1002.5,474.3c0.8-0.6,1.2-1.3,1.2-2.2c0-0.9-0.4-1.7-1.2-2.2c-0.8-0.5-1.8-0.8-3.1-0.8
		c-1.3,0-2.4,0.3-3.1,0.8c-0.8,0.5-1.1,1.3-1.1,2.2c0,0.9,0.4,1.7,1.1,2.2c0.8,0.6,1.8,0.8,3.1,0.8
		C1000.6,475.1,1001.7,474.8,1002.5,474.3z M996.6,462.5c-0.7,0.5-1,1.1-1,2s0.3,1.5,1,2c0.6,0.5,1.5,0.7,2.7,0.7
		c1.2,0,2.1-0.2,2.7-0.7c0.7-0.5,1-1.1,1-2s-0.3-1.5-1-2c-0.7-0.5-1.6-0.7-2.7-0.7C998.2,461.8,997.3,462,996.6,462.5z"/>
	<path d="M1024.4,465.3c0.9,0.9,1.4,2.2,1.4,3.9v7.7h-2.2v-1.7c-0.4,0.6-0.9,1-1.6,1.4c-0.7,0.3-1.6,0.5-2.5,0.5
		c-1.4,0-2.6-0.3-3.4-1c-0.9-0.7-1.3-1.6-1.3-2.7s0.4-2,1.2-2.7s2.1-1,3.9-1h3.6v-0.5c0-1-0.3-1.8-0.9-2.3c-0.6-0.5-1.4-0.8-2.5-0.8
		c-0.8,0-1.5,0.1-2.2,0.4s-1.3,0.6-1.8,1l-1-1.7c0.7-0.5,1.4-0.9,2.4-1.2s1.9-0.4,2.9-0.4C1022.1,464,1023.5,464.4,1024.4,465.3z
		 M1022.1,474.6c0.6-0.4,1.1-0.9,1.4-1.7v-1.8h-3.6c-2,0-2.9,0.7-2.9,2c0,0.6,0.2,1.1,0.7,1.5s1.2,0.6,2.1,0.6
		C1020.7,475.2,1021.5,475,1022.1,474.6z"/>
	<path d="M1038.6,476.1c-1-0.6-1.8-1.3-2.4-2.3c-0.6-1-0.9-2.1-0.9-3.3s0.3-2.4,0.9-3.3c0.6-1,1.4-1.8,2.4-2.3
		c1-0.6,2.1-0.8,3.4-0.8s2.4,0.3,3.4,0.8c1,0.6,1.8,1.3,2.4,2.3c0.6,1,0.9,2.1,0.9,3.3s-0.3,2.4-0.9,3.3c-0.6,1-1.4,1.8-2.4,2.3
		c-1,0.6-2.1,0.8-3.4,0.8S1039.6,476.7,1038.6,476.1z M1044.2,474.4c0.6-0.4,1.2-0.9,1.5-1.6c0.4-0.7,0.6-1.5,0.6-2.3
		c0-0.9-0.2-1.7-0.6-2.3c-0.4-0.7-0.9-1.2-1.5-1.6c-0.6-0.4-1.4-0.6-2.2-0.6c-0.8,0-1.5,0.2-2.2,0.6c-0.6,0.4-1.2,0.9-1.5,1.6
		c-0.4,0.7-0.6,1.5-0.6,2.3c0,0.9,0.2,1.7,0.6,2.3c0.4,0.7,0.9,1.2,1.5,1.6c0.6,0.4,1.4,0.6,2.2,0.6
		C1042.8,475,1043.5,474.8,1044.2,474.4z"/>
	<path d="M1061.4,462c1.2,1.5,1.8,3.5,1.8,6.2c0,1.9-0.3,3.5-1,4.8c-0.7,1.3-1.6,2.3-2.8,3c-1.2,0.7-2.6,1-4.2,1
		c-0.8,0-1.6-0.1-2.3-0.3c-0.7-0.2-1.3-0.4-1.9-0.7l0.9-1.9c0.8,0.5,1.9,0.8,3.2,0.8c1.7,0,3.1-0.5,4.1-1.6c1-1.1,1.5-2.7,1.5-4.7
		V468c-0.5,0.7-1.1,1.3-2,1.6c-0.8,0.4-1.8,0.6-2.9,0.6c-1.1,0-2.1-0.2-3-0.6s-1.6-1-2-1.8s-0.7-1.7-0.7-2.7c0-1.1,0.3-2,0.8-2.8
		c0.5-0.8,1.2-1.4,2.1-1.9c0.9-0.4,1.9-0.7,3-0.7C1058.4,459.8,1060.2,460.6,1061.4,462z M1058.4,467.9c0.6-0.3,1.1-0.7,1.4-1.2
		c0.3-0.5,0.5-1,0.5-1.7c0-0.6-0.2-1.1-0.5-1.6c-0.3-0.5-0.8-0.9-1.4-1.2c-0.6-0.3-1.3-0.4-2.2-0.4c-1.1,0-2,0.3-2.7,0.9
		s-1,1.4-1,2.4c0,1,0.3,1.8,1,2.4c0.7,0.6,1.6,0.9,2.8,0.9C1057.1,468.3,1057.8,468.2,1058.4,467.9z"/>
	<path d="M1068.9,476c-1-0.7-1.8-1.7-2.4-3c-0.6-1.3-0.9-2.8-0.9-4.6c0-1.8,0.3-3.3,0.9-4.6c0.6-1.3,1.4-2.3,2.4-3
		c1-0.7,2.2-1,3.5-1c1.3,0,2.5,0.3,3.5,1c1,0.7,1.8,1.7,2.4,3s0.9,2.8,0.9,4.6c0,1.8-0.3,3.3-0.9,4.6s-1.4,2.3-2.4,3
		c-1,0.7-2.2,1-3.5,1C1071.1,477,1069.9,476.7,1068.9,476z M1075.6,473.2c0.8-1.1,1.2-2.7,1.2-4.8c0-2.1-0.4-3.7-1.2-4.8
		c-0.8-1.1-1.9-1.7-3.2-1.7c-1.4,0-2.4,0.6-3.3,1.7c-0.8,1.1-1.2,2.7-1.2,4.8c0,2.1,0.4,3.7,1.2,4.8c0.8,1.1,1.9,1.7,3.3,1.7
		C1073.7,474.9,1074.8,474.3,1075.6,473.2z"/>
</g>
</svg>
