<?xml version="1.0" encoding="utf-8"?>
<!-- Generator: Adobe Illustrator 25.0.0, SVG Export Plug-In . SVG Version: 6.00 Build 0)  -->
<svg version="1.1" id="tabela02" xmlns="http://www.w3.org/2000/svg" xmlns:xlink="http://www.w3.org/1999/xlink" x="0px" y="0px"
	 viewBox="0 0 1256.4 572.3" style="enable-background:new 0 0 1256.4 572.3;" xml:space="preserve">
<style type="text/css">
	.st0{fill:#FFF9DE;}
	.st1{fill:none;stroke:#F28D47;stroke-width:2;stroke-miterlimit:10;}
	.st2{fill:#904B27;}
	.st3{enable-background:new    ;}
	.st4{fill:#FFFFFF;}
	.st5{fill:none;stroke:#F28D47;stroke-width:3;stroke-miterlimit:10;}
</style>
<rect x="19.7" y="161.6" class="st0" width="1210.6" height="73"/>
<line class="st1" x1="23.1" y1="232.7" x2="1230.3" y2="232.7"/>
<rect x="19.7" y="435.6" class="st0" width="1210.6" height="73"/>
<line class="st1" x1="23.1" y1="506.7" x2="1230.3" y2="506.7"/>
<rect x="19.7" y="299.6" class="st0" width="1210.6" height="73"/>
<line class="st1" x1="23.1" y1="370.7" x2="1230.3" y2="370.7"/>
<path class="st2" d="M1236.4,89.6c0.4-0.8,0.6-36.2,0.6-37.1V15.9H19v36.6c0,0.9,0.2,36.3,0.6,37.1H1236.4z"/>
<g class="st3">
	<path class="st4" d="M203.4,45.2v4.6h9.3v4.6h-9.3v7.2h-5.9v-21h16.5v4.6H203.4z"/>
	<path class="st4" d="M225.9,56h-3.2v5.6h-5.9v-21h9.6c1.9,0,3.5,0.3,4.9,0.9s2.5,1.5,3.2,2.7c0.8,1.2,1.1,2.5,1.1,4.1
		c0,1.5-0.4,2.8-1.1,4s-1.7,2-3,2.7l4.5,6.6h-6.4L225.9,56z M228.7,46.1c-0.6-0.5-1.5-0.8-2.8-0.8h-3.3v6.2h3.3
		c1.2,0,2.1-0.3,2.8-0.8c0.6-0.5,0.9-1.3,0.9-2.3C229.7,47.4,229.4,46.6,228.7,46.1z"/>
	<path class="st4" d="M255.8,57v4.6h-16.9v-21h16.5v4.6h-10.6v3.5h9.3v4.4h-9.3V57H255.8z"/>
	<path class="st4" d="M282.4,64c-0.7,0.9-1.6,1.5-2.6,2c-1,0.5-2.1,0.7-3.3,0.7c-1.2,0-2.2-0.2-3.1-0.5c-0.9-0.3-1.9-0.8-2.8-1.5
		c-1-0.7-2-1.7-3.2-2.9c-1.8-0.3-3.4-1-4.9-2c-1.4-1-2.5-2.3-3.3-3.8c-0.8-1.5-1.2-3.2-1.2-5c0-2.1,0.5-3.9,1.5-5.6
		c1-1.7,2.4-3,4.2-3.9s3.8-1.4,6-1.4c2.2,0,4.2,0.5,6,1.4s3.2,2.2,4.2,3.9c1,1.7,1.5,3.5,1.5,5.6c0,2.4-0.6,4.4-1.9,6.3
		c-1.3,1.8-3,3.1-5.2,3.9c0.4,0.4,0.8,0.8,1.2,0.9c0.4,0.2,0.8,0.3,1.3,0.3c1.2,0,2.2-0.5,3.2-1.5L282.4,64z M264.7,54.2
		c0.5,0.9,1.2,1.6,2,2.1c0.9,0.5,1.8,0.8,2.9,0.8s2-0.2,2.9-0.8s1.5-1.2,2-2.1c0.5-0.9,0.8-2,0.8-3.1c0-1.2-0.2-2.2-0.8-3.1
		s-1.2-1.6-2-2.1s-1.8-0.8-2.9-0.8s-2,0.2-2.9,0.8c-0.9,0.5-1.5,1.2-2,2.1c-0.5,0.9-0.8,2-0.8,3.1C264,52.3,264.2,53.3,264.7,54.2z"
		/>
	<path class="st4" d="M286.9,59.5c-1.7-1.7-2.6-4.1-2.6-7.2V40.6h5.9v11.5c0,3.4,1.3,5,4,5c2.6,0,4-1.7,4-5V40.6h5.9v11.6
		c0,3.1-0.9,5.5-2.6,7.2s-4.2,2.5-7.3,2.5S288.6,61.2,286.9,59.5z"/>
	<path class="st4" d="M324.9,57v4.6H308v-21h16.5v4.6h-10.6v3.5h9.3v4.4h-9.3V57H324.9z M318.9,38.9l-2.6-2.3l-2.6,2.3h-3.8l3.9-4.6
		h4.9l3.9,4.6H318.9z"/>
	<path class="st4" d="M348.2,40.6v21h-4.9L334,50.4v11.2h-5.8v-21h4.9l9.3,11.2V40.6H348.2z"/>
	<path class="st4" d="M356.9,60.6c-1.8-0.9-3.1-2.2-4.1-3.9c-1-1.7-1.5-3.5-1.5-5.6s0.5-4,1.5-5.6c1-1.7,2.4-3,4.1-3.9
		c1.8-0.9,3.7-1.4,5.9-1.4c1.9,0,3.6,0.3,5.2,1c1.5,0.7,2.8,1.7,3.8,2.9l-3.8,3.4c-1.4-1.6-3-2.5-4.9-2.5c-1.1,0-2.2,0.2-3,0.8
		c-0.9,0.5-1.6,1.2-2.1,2.1c-0.5,0.9-0.7,2-0.7,3.1c0,1.2,0.2,2.2,0.7,3.1c0.5,0.9,1.2,1.6,2.1,2.1c0.9,0.5,1.9,0.8,3,0.8
		c1.9,0,3.6-0.8,4.9-2.5l3.8,3.4c-1,1.3-2.3,2.3-3.8,2.9s-3.3,1-5.2,1C360.6,62,358.7,61.6,356.9,60.6z"/>
	<path class="st4" d="M374.5,40.6h5.9v21h-5.9V40.6z"/>
	<path class="st4" d="M398.7,57.5h-8.9l-1.6,4.1h-6.1l9.3-21h5.9l9.3,21h-6.2L398.7,57.5z M397,53.1l-2.7-6.7l-2.7,6.7H397z"/>
	<path class="st4" d="M421.5,60.6c-1.8-0.9-3.1-2.2-4.1-3.9c-1-1.7-1.5-3.5-1.5-5.6s0.5-4,1.5-5.6c1-1.7,2.4-3,4.1-3.9
		c1.8-0.9,3.7-1.4,5.9-1.4c1.9,0,3.6,0.3,5.2,1c1.5,0.7,2.8,1.7,3.8,2.9l-3.8,3.4c-1.4-1.6-3-2.5-4.9-2.5c-1.1,0-2.2,0.2-3,0.8
		c-0.9,0.5-1.6,1.2-2.1,2.1c-0.5,0.9-0.7,2-0.7,3.1c0,1.2,0.2,2.2,0.7,3.1c0.5,0.9,1.2,1.6,2.1,2.1c0.9,0.5,1.9,0.8,3,0.8
		c1.9,0,3.6-0.8,4.9-2.5l3.8,3.4c-1,1.3-2.3,2.3-3.8,2.9s-3.3,1-5.2,1C425.3,62,423.3,61.6,421.5,60.6z"/>
	<path class="st4" d="M452.8,57.5H444l-1.6,4.1h-6.1l9.3-21h5.9l9.3,21h-6.2L452.8,57.5z M451.1,53.1l-2.7-6.7l-2.7,6.7H451.1z"/>
	<path class="st4" d="M471.5,56h-3.2v5.6h-5.9v-21h9.6c1.9,0,3.5,0.3,4.9,0.9s2.5,1.5,3.2,2.7c0.8,1.2,1.1,2.5,1.1,4.1
		c0,1.5-0.4,2.8-1.1,4s-1.7,2-3,2.7l4.5,6.6h-6.4L471.5,56z M474.3,46.1c-0.6-0.5-1.5-0.8-2.8-0.8h-3.3v6.2h3.3
		c1.2,0,2.1-0.3,2.8-0.8c0.6-0.5,0.9-1.3,0.9-2.3C475.3,47.4,475,46.6,474.3,46.1z"/>
	<path class="st4" d="M484.5,40.6h9.9c2.3,0,4.3,0.4,6.1,1.3c1.8,0.9,3.2,2.1,4.1,3.7c1,1.6,1.5,3.4,1.5,5.5s-0.5,4-1.5,5.5
		c-1,1.6-2.4,2.8-4.1,3.7c-1.8,0.9-3.8,1.3-6.1,1.3h-9.9V40.6z M494.2,56.9c1.8,0,3.2-0.5,4.3-1.5c1.1-1,1.6-2.4,1.6-4.2
		s-0.5-3.2-1.6-4.2c-1.1-1-2.5-1.5-4.3-1.5h-3.8v11.5H494.2z"/>
	<path class="st4" d="M509.3,40.6h5.9v21h-5.9V40.6z M513.4,34.3h5.7l-5.6,4.6h-4.1L513.4,34.3z"/>
	<path class="st4" d="M533.6,57.5h-8.9l-1.6,4.1H517l9.3-21h5.9l9.3,21h-6.2L533.6,57.5z M531.8,53.1l-2.7-6.7l-2.7,6.7H531.8z"/>
	<path class="st4" d="M547.3,60.6c-1.8-0.9-3.1-2.2-4.1-3.9c-1-1.7-1.5-3.5-1.5-5.6s0.5-4,1.5-5.6c1-1.7,2.4-3,4.1-3.9
		c1.8-0.9,3.7-1.4,5.9-1.4c1.9,0,3.6,0.3,5.2,1c1.5,0.7,2.8,1.7,3.8,2.9l-3.8,3.4c-1.4-1.6-3-2.5-5-2.5c-1.1,0-2.2,0.2-3,0.8
		c-0.9,0.5-1.6,1.2-2.1,2.1c-0.5,0.9-0.7,2-0.7,3.1c0,1.2,0.2,2.2,0.7,3.1c0.5,0.9,1.2,1.6,2.1,2.1c0.9,0.5,1.9,0.8,3,0.8
		c1.9,0,3.6-0.8,5-2.5l3.8,3.4c-1,1.3-2.3,2.3-3.8,2.9s-3.3,1-5.2,1C551,62,549.1,61.6,547.3,60.6z"/>
	<path class="st4" d="M578.6,57.5h-8.9l-1.7,4.1H562l9.3-21h5.9l9.3,21h-6.2L578.6,57.5z M576.9,53.1l-2.7-6.7l-2.7,6.7H576.9z"/>
	<path class="st4" d="M597.6,61.1c-0.7-2.4-1-5-1-7.7s0.3-5.3,1-7.7c0.7-2.4,1.6-4.5,2.9-6.3h5.5c-1.3,2.3-2.2,4.6-2.8,6.9
		c-0.6,2.3-0.9,4.7-0.9,7.2c0,2.5,0.3,4.9,0.9,7.2c0.6,2.3,1.5,4.6,2.8,6.9h-5.5C599.2,65.6,598.2,63.5,597.6,61.1z"/>
	<path class="st4" d="M622.5,41.6c1.4,0.6,2.5,1.5,3.2,2.7c0.8,1.2,1.1,2.5,1.1,4.1c0,1.6-0.4,3-1.1,4.1c-0.8,1.2-1.8,2.1-3.2,2.7
		c-1.4,0.6-3.1,0.9-5,0.9h-3.7v5.5h-5.9v-21h9.6C619.4,40.6,621.1,40.9,622.5,41.6z M619.9,50.6c0.6-0.5,0.9-1.3,0.9-2.3
		c0-1-0.3-1.7-0.9-2.3s-1.5-0.8-2.8-0.8h-3.3v6.2h3.3C618.4,51.4,619.3,51.2,619.9,50.6z"/>
	<path class="st4" d="M634.7,60.6c-1.8-0.9-3.2-2.2-4.2-3.9c-1-1.7-1.5-3.5-1.5-5.6s0.5-3.9,1.5-5.6c1-1.7,2.4-3,4.2-3.9
		c1.8-0.9,3.8-1.4,6-1.4c2.2,0,4.2,0.5,6,1.4c1.8,0.9,3.2,2.2,4.2,3.9c1,1.7,1.5,3.5,1.5,5.6s-0.5,4-1.5,5.6s-2.4,3-4.2,3.9
		c-1.8,0.9-3.8,1.4-6,1.4C638.4,62,636.4,61.6,634.7,60.6z M643.5,56.4c0.9-0.5,1.5-1.2,2-2.1c0.5-0.9,0.8-2,0.8-3.1
		c0-1.2-0.3-2.2-0.8-3.1c-0.5-0.9-1.2-1.6-2-2.1c-0.9-0.5-1.8-0.8-2.9-0.8c-1.1,0-2,0.2-2.9,0.8c-0.9,0.5-1.5,1.2-2,2.1
		s-0.8,2-0.8,3.1c0,1.2,0.2,2.2,0.8,3.1c0.5,0.9,1.2,1.6,2,2.1c0.9,0.5,1.8,0.8,2.9,0.8C641.7,57.1,642.7,56.9,643.5,56.4z"/>
	<path class="st4" d="M664.6,56h-3.2v5.6h-5.9v-21h9.6c1.9,0,3.5,0.3,5,0.9c1.4,0.6,2.5,1.5,3.2,2.7c0.8,1.2,1.1,2.5,1.1,4.1
		c0,1.5-0.4,2.8-1.1,4s-1.7,2-3,2.7l4.5,6.6h-6.4L664.6,56z M667.4,46.1c-0.6-0.5-1.5-0.8-2.8-0.8h-3.3v6.2h3.3
		c1.2,0,2.1-0.3,2.8-0.8s0.9-1.3,0.9-2.3C668.4,47.4,668,46.6,667.4,46.1z"/>
	<path class="st4" d="M705.3,61.6l-0.1-11.1l-5.4,9.1h-2.6l-5.4-8.8v10.8h-5.5v-21h4.9l7.4,12.1l7.2-12.1h4.9l0.1,21H705.3z"/>
	<path class="st4" d="M715,40.6h5.9v21H715V40.6z"/>
	<path class="st4" d="M745.1,40.6v21h-4.9L731,50.4v11.2h-5.8v-21h4.9l9.3,11.2V40.6H745.1z"/>
	<path class="st4" d="M751.7,59.5c-1.7-1.7-2.6-4.1-2.6-7.2V40.6h5.9v11.5c0,3.4,1.3,5,4,5c2.6,0,4-1.7,4-5V40.6h5.9v11.6
		c0,3.1-0.9,5.5-2.6,7.2c-1.7,1.7-4.2,2.5-7.3,2.5S753.5,61.2,751.7,59.5z"/>
	<path class="st4" d="M777,45.3h-6.5v-4.7h18.8v4.7H783v16.3H777V45.3z"/>
	<path class="st4" d="M795.9,60.6c-1.8-0.9-3.2-2.2-4.2-3.9c-1-1.7-1.5-3.5-1.5-5.6s0.5-3.9,1.5-5.6c1-1.7,2.4-3,4.2-3.9
		c1.8-0.9,3.8-1.4,6-1.4c2.2,0,4.2,0.5,6,1.4c1.8,0.9,3.2,2.2,4.2,3.9c1,1.7,1.5,3.5,1.5,5.6s-0.5,4-1.5,5.6s-2.4,3-4.2,3.9
		c-1.8,0.9-3.8,1.4-6,1.4C799.7,62,797.7,61.6,795.9,60.6z M804.8,56.4c0.9-0.5,1.5-1.2,2-2.1c0.5-0.9,0.8-2,0.8-3.1
		c0-1.2-0.3-2.2-0.8-3.1c-0.5-0.9-1.2-1.6-2-2.1c-0.9-0.5-1.8-0.8-2.9-0.8c-1.1,0-2,0.2-2.9,0.8c-0.9,0.5-1.5,1.2-2,2.1
		s-0.8,2-0.8,3.1c0,1.2,0.2,2.2,0.8,3.1c0.5,0.9,1.2,1.6,2,2.1c0.9,0.5,1.8,0.8,2.9,0.8C803,57.1,803.9,56.9,804.8,56.4z"/>
	<path class="st4" d="M814.6,67.4c1.3-2.3,2.2-4.6,2.8-6.9s0.9-4.7,0.9-7.2c0-2.5-0.3-4.9-0.9-7.2c-0.6-2.3-1.5-4.6-2.8-6.9h5.5
		c1.2,1.8,2.2,3.9,2.9,6.3c0.7,2.4,1,5,1,7.7s-0.3,5.3-1,7.7s-1.6,4.5-2.9,6.3H814.6z"/>
	<path class="st4" d="M853.5,57v4.6h-16.9v-21h16.5v4.6h-10.6v3.5h9.3v4.4h-9.3V57H853.5z"/>
	<path class="st4" d="M875.7,61.6l-0.1-11.1l-5.4,9.1h-2.6l-5.4-8.8v10.8h-5.5v-21h4.9l7.4,12.1l7.2-12.1h4.9l0.1,21H875.7z"/>
	<path class="st4" d="M898.6,60.6c-1.8-0.9-3.1-2.2-4.1-3.9c-1-1.7-1.5-3.5-1.5-5.6s0.5-4,1.5-5.6s2.4-3,4.1-3.9
		c1.8-0.9,3.7-1.4,5.9-1.4c1.9,0,3.6,0.3,5.2,1c1.5,0.7,2.8,1.7,3.8,2.9l-3.8,3.4c-1.4-1.6-3-2.5-5-2.5c-1.1,0-2.2,0.2-3,0.8
		c-0.9,0.5-1.6,1.2-2.1,2.1s-0.7,2-0.7,3.1c0,1.2,0.2,2.2,0.7,3.1c0.5,0.9,1.2,1.6,2.1,2.1c0.9,0.5,1.9,0.8,3,0.8
		c1.9,0,3.6-0.8,5-2.5l3.8,3.4c-1,1.3-2.3,2.3-3.8,2.9s-3.3,1-5.2,1C902.4,62,900.4,61.6,898.6,60.6z"/>
	<path class="st4" d="M925.4,56h-3.2v5.6h-5.9v-21h9.6c1.9,0,3.5,0.3,5,0.9c1.4,0.6,2.5,1.5,3.2,2.7c0.8,1.2,1.1,2.5,1.1,4.1
		c0,1.5-0.4,2.8-1.1,4s-1.7,2-3,2.7l4.5,6.6h-6.4L925.4,56z M928.2,46.1c-0.6-0.5-1.5-0.8-2.8-0.8h-3.3v6.2h3.3
		c1.2,0,2.1-0.3,2.8-0.8s0.9-1.3,0.9-2.3C929.2,47.4,928.9,46.6,928.2,46.1z"/>
	<path class="st4" d="M938.4,40.6h5.9v21h-5.9V40.6z"/>
	<path class="st4" d="M962.7,57.5h-8.9l-1.7,4.1h-6.1l9.3-21h5.9l9.3,21h-6.2L962.7,57.5z M960.9,53.1l-2.7-6.7l-2.7,6.7H960.9z"/>
	<path class="st4" d="M992.2,40.6v21h-4.9L978,50.4v11.2h-5.8v-21h4.9l9.3,11.2V40.6H992.2z"/>
	<path class="st4" d="M1000.9,60.6c-1.8-0.9-3.1-2.2-4.1-3.9c-1-1.7-1.5-3.5-1.5-5.6s0.5-4,1.5-5.6s2.4-3,4.1-3.9
		c1.8-0.9,3.7-1.4,5.9-1.4c1.9,0,3.6,0.3,5.2,1c1.5,0.7,2.8,1.7,3.8,2.9l-3.8,3.4c-1.4-1.6-3-2.5-5-2.5c-1.1,0-2.2,0.2-3,0.8
		c-0.9,0.5-1.6,1.2-2.1,2.1s-0.7,2-0.7,3.1c0,1.2,0.2,2.2,0.7,3.1c0.5,0.9,1.2,1.6,2.1,2.1c0.9,0.5,1.9,0.8,3,0.8
		c1.9,0,3.6-0.8,5-2.5l3.8,3.4c-1,1.3-2.3,2.3-3.8,2.9s-3.3,1-5.2,1C1004.6,62,1002.7,61.6,1000.9,60.6z M1003.5,68.5
		c-0.5-0.1-1-0.3-1.3-0.5l0.8-2.2c0.6,0.3,1.2,0.4,1.9,0.4c1,0,1.5-0.3,1.5-0.8c0-0.5-0.5-0.8-1.4-0.8h-1.1l0.8-3.3h3l-0.4,1.8
		c0.9,0.1,1.5,0.4,1.9,0.8c0.4,0.4,0.6,1,0.6,1.6c0,1-0.4,1.7-1.3,2.3c-0.9,0.6-2,0.8-3.5,0.8C1004.5,68.7,1004,68.6,1003.5,68.5z"
		/>
	<path class="st4" d="M1032.2,57.5h-8.9l-1.7,4.1h-6.1l9.3-21h5.9l9.3,21h-6.2L1032.2,57.5z M1030.5,53.1l-2.7-6.7l-2.7,6.7H1030.5z
		"/>
	<path class="st4" d="M1044.2,61.4c-1.6-0.4-2.9-1-3.9-1.7l2-4.4c0.9,0.6,2,1.1,3.3,1.5s2.5,0.6,3.7,0.6c2.3,0,3.4-0.6,3.4-1.7
		c0-0.6-0.3-1-1-1.3c-0.7-0.3-1.7-0.6-3.1-0.9c-1.6-0.3-2.9-0.7-4-1.1c-1.1-0.4-2-1-2.7-1.9c-0.8-0.9-1.1-2-1.1-3.5
		c0-1.3,0.3-2.4,1-3.5c0.7-1,1.7-1.8,3.1-2.4c1.4-0.6,3.1-0.9,5.1-0.9c1.4,0,2.7,0.2,4.1,0.5c1.3,0.3,2.5,0.8,3.5,1.4l-1.8,4.4
		c-2-1.1-3.9-1.6-5.8-1.6c-1.2,0-2,0.2-2.6,0.5c-0.5,0.4-0.8,0.8-0.8,1.4c0,0.6,0.3,1,1,1.3c0.6,0.3,1.7,0.6,3.1,0.9
		c1.6,0.3,2.9,0.7,4,1.1c1.1,0.4,2,1,2.7,1.9c0.8,0.9,1.2,2,1.2,3.5c0,1.3-0.4,2.4-1,3.4c-0.7,1-1.8,1.8-3.2,2.4
		c-1.4,0.6-3.1,0.9-5.1,0.9C1047.4,62,1045.8,61.8,1044.2,61.4z"/>
</g>
<g class="st3">
	<path class="st2" d="M429.3,537.6v3.7h6.5v2.6h-6.5v5.1H426v-14h10.6v2.6H429.3z"/>
	<path class="st2" d="M440.4,548.5c-0.9-0.5-1.6-1.1-2.1-2c-0.5-0.8-0.8-1.8-0.8-2.9s0.3-2,0.8-2.9s1.2-1.5,2.1-2
		c0.9-0.5,1.9-0.7,3.1-0.7s2.1,0.2,3,0.7c0.9,0.5,1.6,1.1,2.1,2c0.5,0.8,0.8,1.8,0.8,2.9s-0.3,2-0.8,2.9c-0.5,0.8-1.2,1.5-2.1,2
		c-0.9,0.5-1.9,0.7-3,0.7S441.3,549,440.4,548.5z M445.4,545.8c0.5-0.5,0.8-1.3,0.8-2.2c0-0.9-0.3-1.6-0.8-2.2s-1.2-0.8-2-0.8
		c-0.8,0-1.5,0.3-2,0.8s-0.8,1.3-0.8,2.2c0,0.9,0.3,1.6,0.8,2.2s1.2,0.8,2,0.8C444.2,546.6,444.9,546.4,445.4,545.8z"/>
	<path class="st2" d="M461.2,539.3c0.8,0.8,1.2,2,1.2,3.6v6.2h-3.1v-5.7c0-0.9-0.2-1.5-0.6-1.9c-0.4-0.4-0.9-0.6-1.6-0.6
		c-0.8,0-1.4,0.2-1.9,0.7c-0.5,0.5-0.7,1.2-0.7,2.2v5.3h-3.1v-10.8h3v1.3c0.4-0.5,0.9-0.8,1.5-1s1.3-0.4,2-0.4
		C459.3,538.1,460.4,538.5,461.2,539.3z"/>
	<path class="st2" d="M472.2,548.5c-0.3,0.2-0.7,0.4-1.1,0.5s-0.9,0.2-1.4,0.2c-1.3,0-2.3-0.3-3-1c-0.7-0.7-1.1-1.6-1.1-2.9v-4.4
		H464v-2.4h1.7v-2.6h3.1v2.6h2.7v2.4h-2.7v4.4c0,0.5,0.1,0.8,0.4,1c0.2,0.2,0.6,0.4,1,0.4c0.5,0,0.9-0.1,1.3-0.4L472.2,548.5z"/>
	<path class="st2" d="M484.1,544.5h-8.1c0.1,0.7,0.5,1.2,1,1.6s1.2,0.6,2,0.6c0.6,0,1.1-0.1,1.5-0.2c0.4-0.2,0.8-0.4,1.2-0.8
		l1.7,1.8c-1,1.2-2.5,1.7-4.4,1.7c-1.2,0-2.3-0.2-3.2-0.7c-0.9-0.5-1.7-1.1-2.2-2c-0.5-0.8-0.8-1.8-0.8-2.9c0-1.1,0.2-2,0.8-2.9
		c0.5-0.8,1.2-1.5,2.1-2c0.9-0.5,1.8-0.7,2.9-0.7c1.1,0,2,0.2,2.9,0.7c0.9,0.5,1.5,1.1,2,2c0.5,0.8,0.7,1.8,0.7,3
		C484.1,543.8,484.1,544,484.1,544.5z M476.8,541.1c-0.5,0.4-0.8,0.9-0.9,1.6h5.3c-0.1-0.7-0.4-1.2-0.9-1.6
		c-0.5-0.4-1.1-0.6-1.8-0.6C477.8,540.5,477.2,540.7,476.8,541.1z"/>
	<path class="st2" d="M486,541.5c-0.4-0.4-0.6-0.8-0.6-1.4c0-0.6,0.2-1,0.6-1.4c0.4-0.4,0.8-0.5,1.4-0.5c0.5,0,1,0.2,1.4,0.5
		c0.4,0.4,0.6,0.8,0.6,1.4c0,0.6-0.2,1-0.6,1.4c-0.4,0.4-0.8,0.6-1.4,0.6C486.8,542,486.4,541.8,486,541.5z M486,548.6
		c-0.4-0.4-0.6-0.8-0.6-1.4c0-0.6,0.2-1,0.6-1.4c0.4-0.4,0.8-0.5,1.4-0.5c0.5,0,1,0.2,1.4,0.5c0.4,0.4,0.6,0.8,0.6,1.4
		c0,0.6-0.2,1-0.6,1.4c-0.4,0.4-0.8,0.6-1.4,0.6C486.8,549.2,486.4,549,486,548.6z"/>
</g>
<g class="st3">
	<path class="st2" d="M507.4,545.3h-7.8l-1.7,3.7h-1.5l6.4-14h1.5l6.4,14H509L507.4,545.3z M506.8,544.1l-3.4-7.5l-3.4,7.5H506.8z"
		/>
	<path class="st2" d="M528.8,539.6c0.8,0.8,1.1,1.9,1.1,3.4v6.1h-1.4v-6c0-1.1-0.3-1.9-0.8-2.5s-1.3-0.9-2.2-0.9c-1.1,0-2,0.3-2.6,1
		c-0.6,0.7-0.9,1.6-0.9,2.8v5.5h-1.4v-6c0-1.1-0.3-1.9-0.8-2.5s-1.3-0.9-2.2-0.9c-1.1,0-1.9,0.3-2.6,1c-0.6,0.7-1,1.6-1,2.8v5.5
		h-1.4v-10.5h1.4v1.9c0.4-0.6,0.9-1.1,1.6-1.5c0.7-0.3,1.4-0.5,2.3-0.5c0.9,0,1.6,0.2,2.3,0.6c0.6,0.4,1.1,0.9,1.4,1.7
		c0.4-0.7,0.9-1.2,1.7-1.6s1.6-0.6,2.5-0.6C527,538.5,528.1,538.8,528.8,539.6z"/>
	<path class="st2" d="M543,544.2h-8.8c0.1,1.1,0.5,2,1.3,2.7c0.8,0.7,1.7,1,2.9,1c0.7,0,1.3-0.1,1.8-0.3s1-0.6,1.4-1l0.8,0.9
		c-0.5,0.6-1,1-1.8,1.3s-1.5,0.4-2.3,0.4c-1.1,0-2-0.2-2.9-0.7s-1.5-1.1-1.9-1.9c-0.5-0.8-0.7-1.7-0.7-2.8s0.2-1.9,0.7-2.8
		c0.4-0.8,1.1-1.4,1.8-1.9c0.8-0.5,1.7-0.7,2.6-0.7c1,0,1.8,0.2,2.6,0.7c0.8,0.5,1.4,1.1,1.8,1.9c0.4,0.8,0.7,1.7,0.7,2.8L543,544.2
		z M535.4,540.6c-0.7,0.6-1.1,1.5-1.2,2.5h7.5c-0.1-1-0.5-1.9-1.2-2.5c-0.7-0.6-1.5-1-2.6-1C536.9,539.7,536.1,540,535.4,540.6z"/>
	<path class="st2" d="M548.8,539c0.7-0.4,1.5-0.5,2.4-0.5v1.4l-0.3,0c-1.1,0-2,0.3-2.6,1c-0.6,0.7-0.9,1.6-0.9,2.9v5.4h-1.4v-10.5
		h1.4v2.1C547.6,539.9,548.1,539.3,548.8,539z"/>
	<path class="st2" d="M553.8,535.9c-0.2-0.2-0.3-0.4-0.3-0.7c0-0.3,0.1-0.5,0.3-0.7s0.4-0.3,0.7-0.3c0.3,0,0.5,0.1,0.7,0.3
		c0.2,0.2,0.3,0.4,0.3,0.7c0,0.3-0.1,0.5-0.3,0.7c-0.2,0.2-0.4,0.3-0.7,0.3C554.2,536.2,554,536.1,553.8,535.9z M553.8,538.5h1.4
		V549h-1.4V538.5z"/>
	<path class="st2" d="M560.8,548.5c-0.8-0.5-1.5-1.1-1.9-1.9c-0.5-0.8-0.7-1.7-0.7-2.8s0.2-1.9,0.7-2.8c0.5-0.8,1.1-1.4,1.9-1.9
		c0.8-0.5,1.8-0.7,2.8-0.7c0.9,0,1.7,0.2,2.4,0.5c0.7,0.4,1.3,0.9,1.7,1.6l-1.1,0.7c-0.3-0.5-0.8-0.9-1.3-1.2
		c-0.5-0.3-1.1-0.4-1.7-0.4c-0.8,0-1.4,0.2-2,0.5c-0.6,0.3-1.1,0.8-1.4,1.4c-0.3,0.6-0.5,1.3-0.5,2.1c0,0.8,0.2,1.5,0.5,2.1
		c0.3,0.6,0.8,1.1,1.4,1.4c0.6,0.3,1.3,0.5,2,0.5c0.6,0,1.2-0.1,1.7-0.4c0.5-0.3,1-0.6,1.3-1.2l1.1,0.7c-0.4,0.7-1,1.2-1.7,1.6
		c-0.7,0.4-1.5,0.5-2.4,0.5C562.5,549.1,561.6,548.9,560.8,548.5z"/>
	<path class="st2" d="M577.3,539.5c0.7,0.7,1.1,1.7,1.1,3.1v6.5H577v-1.6c-0.3,0.5-0.8,1-1.4,1.3c-0.6,0.3-1.4,0.5-2.2,0.5
		c-1.2,0-2.1-0.3-2.8-0.8c-0.7-0.6-1-1.3-1-2.2c0-0.9,0.3-1.6,1-2.2c0.6-0.5,1.7-0.8,3.1-0.8h3.3v-0.6c0-0.9-0.3-1.6-0.8-2.1
		c-0.5-0.5-1.2-0.7-2.2-0.7c-0.7,0-1.3,0.1-1.9,0.3c-0.6,0.2-1.1,0.5-1.6,0.9l-0.6-1.1c0.5-0.5,1.2-0.8,1.9-1.1
		c0.7-0.2,1.5-0.4,2.4-0.4C575.5,538.5,576.6,538.8,577.3,539.5z M575.7,547.5c0.6-0.4,1-0.9,1.3-1.6v-1.7h-3.3
		c-1.8,0-2.7,0.6-2.7,1.9c0,0.6,0.2,1.1,0.7,1.5c0.5,0.4,1.1,0.5,2,0.5C574.4,548,575.1,547.8,575.7,547.5z"/>
	<path class="st2" d="M590.8,539.6c0.8,0.8,1.2,1.9,1.2,3.4v6.1h-1.4v-6c0-1.1-0.3-1.9-0.8-2.5s-1.3-0.9-2.3-0.9c-1.1,0-2,0.3-2.7,1
		c-0.7,0.7-1,1.6-1,2.8v5.5h-1.4v-10.5h1.4v1.9c0.4-0.6,0.9-1.1,1.6-1.5c0.7-0.4,1.5-0.5,2.4-0.5C588.9,538.5,590,538.8,590.8,539.6
		z"/>
	<path class="st2" d="M613,535v14h-1.5v-6.5h-8.8v6.5h-1.5v-14h1.5v6.2h8.8V535H613z"/>
	<path class="st2" d="M626.4,544.2h-8.8c0.1,1.1,0.5,2,1.3,2.7c0.8,0.7,1.7,1,2.9,1c0.7,0,1.3-0.1,1.8-0.3s1-0.6,1.4-1l0.8,0.9
		c-0.5,0.6-1,1-1.8,1.3s-1.5,0.4-2.3,0.4c-1.1,0-2-0.2-2.9-0.7s-1.5-1.1-1.9-1.9c-0.5-0.8-0.7-1.7-0.7-2.8s0.2-1.9,0.7-2.8
		c0.4-0.8,1.1-1.4,1.8-1.9c0.8-0.5,1.7-0.7,2.6-0.7c1,0,1.8,0.2,2.6,0.7c0.8,0.5,1.4,1.1,1.8,1.9c0.4,0.8,0.7,1.7,0.7,2.8
		L626.4,544.2z M618.8,540.6c-0.7,0.6-1.1,1.5-1.2,2.5h7.5c-0.1-1-0.5-1.9-1.2-2.5c-0.7-0.6-1.5-1-2.6-1
		C620.4,539.7,619.5,540,618.8,540.6z"/>
	<path class="st2" d="M635.9,539.5c0.7,0.7,1.1,1.7,1.1,3.1v6.5h-1.4v-1.6c-0.3,0.5-0.8,1-1.4,1.3c-0.6,0.3-1.4,0.5-2.2,0.5
		c-1.2,0-2.1-0.3-2.8-0.8c-0.7-0.6-1-1.3-1-2.2c0-0.9,0.3-1.6,1-2.2c0.6-0.5,1.7-0.8,3.1-0.8h3.3v-0.6c0-0.9-0.3-1.6-0.8-2.1
		c-0.5-0.5-1.2-0.7-2.2-0.7c-0.7,0-1.3,0.1-1.9,0.3c-0.6,0.2-1.1,0.5-1.6,0.9l-0.6-1.1c0.5-0.5,1.2-0.8,1.9-1.1
		c0.7-0.2,1.5-0.4,2.4-0.4C634.1,538.5,635.2,538.8,635.9,539.5z M634.3,547.5c0.6-0.4,1-0.9,1.3-1.6v-1.7h-3.3
		c-1.8,0-2.7,0.6-2.7,1.9c0,0.6,0.2,1.1,0.7,1.5c0.5,0.4,1.1,0.5,2,0.5C633,548,633.7,547.8,634.3,547.5z"/>
	<path class="st2" d="M643.7,539c0.7-0.4,1.5-0.5,2.5-0.5v1.4l-0.3,0c-1.1,0-2,0.3-2.6,1c-0.6,0.7-0.9,1.6-0.9,2.9v5.4h-1.4v-10.5
		h1.4v2.1C642.6,539.9,643.1,539.3,643.7,539z"/>
	<path class="st2" d="M654.7,548.4c-0.3,0.2-0.6,0.4-1,0.5c-0.4,0.1-0.8,0.2-1.2,0.2c-1,0-1.7-0.3-2.3-0.8c-0.5-0.5-0.8-1.3-0.8-2.3
		v-6.4h-1.9v-1.2h1.9v-2.3h1.4v2.3h3.2v1.2h-3.2v6.3c0,0.6,0.2,1.1,0.5,1.4c0.3,0.3,0.8,0.5,1.3,0.5c0.3,0,0.6,0,0.9-0.1
		c0.3-0.1,0.5-0.2,0.7-0.4L654.7,548.4z"/>
	<path class="st2" d="M671.6,545.3h-7.8l-1.7,3.7h-1.5l6.4-14h1.5l6.4,14h-1.6L671.6,545.3z M671.1,544.1l-3.4-7.5l-3.4,7.5H671.1z"
		/>
	<path class="st2" d="M677.2,548.8c-0.8-0.2-1.4-0.6-1.8-0.9l0.6-1.1c0.4,0.3,1,0.6,1.7,0.9c0.7,0.2,1.4,0.3,2.1,0.3
		c1,0,1.7-0.2,2.1-0.5c0.5-0.3,0.7-0.7,0.7-1.3c0-0.4-0.1-0.7-0.4-0.9c-0.3-0.2-0.6-0.4-1-0.5s-0.9-0.2-1.5-0.3
		c-0.9-0.2-1.5-0.3-2.1-0.5c-0.5-0.2-1-0.5-1.3-0.9c-0.4-0.4-0.6-1-0.6-1.7c0-0.9,0.4-1.6,1.1-2.2c0.7-0.6,1.8-0.8,3.1-0.8
		c0.7,0,1.4,0.1,2,0.3s1.2,0.4,1.7,0.7l-0.6,1.1c-0.9-0.6-1.9-0.9-3.1-0.9c-0.9,0-1.6,0.2-2,0.5c-0.5,0.3-0.7,0.7-0.7,1.3
		c0,0.4,0.1,0.7,0.4,1c0.3,0.2,0.6,0.4,1,0.5c0.4,0.1,0.9,0.2,1.6,0.4c0.8,0.2,1.5,0.3,2,0.5s0.9,0.4,1.3,0.8
		c0.4,0.4,0.5,0.9,0.5,1.6c0,0.9-0.4,1.7-1.1,2.2c-0.8,0.5-1.8,0.8-3.2,0.8C678.8,549.1,677.9,549,677.2,548.8z"/>
	<path class="st2" d="M686.9,548.8c-0.8-0.2-1.4-0.6-1.8-0.9l0.6-1.1c0.4,0.3,1,0.6,1.7,0.9c0.7,0.2,1.4,0.3,2.1,0.3
		c1,0,1.7-0.2,2.1-0.5s0.7-0.7,0.7-1.3c0-0.4-0.1-0.7-0.4-0.9c-0.3-0.2-0.6-0.4-1-0.5s-0.9-0.2-1.5-0.3c-0.9-0.2-1.5-0.3-2.1-0.5
		c-0.5-0.2-1-0.5-1.3-0.9c-0.4-0.4-0.5-1-0.5-1.7c0-0.9,0.4-1.6,1.1-2.2c0.7-0.6,1.8-0.8,3.1-0.8c0.7,0,1.4,0.1,2,0.3
		c0.7,0.2,1.2,0.4,1.7,0.7l-0.6,1.1c-0.9-0.6-1.9-0.9-3.1-0.9c-0.9,0-1.6,0.2-2.1,0.5c-0.5,0.3-0.7,0.7-0.7,1.3c0,0.4,0.1,0.7,0.4,1
		c0.3,0.2,0.6,0.4,1,0.5c0.4,0.1,0.9,0.2,1.6,0.4c0.8,0.2,1.5,0.3,2,0.5s0.9,0.4,1.3,0.8c0.4,0.4,0.5,0.9,0.5,1.6
		c0,0.9-0.4,1.7-1.2,2.2s-1.8,0.8-3.2,0.8C688.5,549.1,687.7,549,686.9,548.8z"/>
	<path class="st2" d="M697.9,548.5c-0.8-0.5-1.5-1.1-1.9-1.9c-0.5-0.8-0.7-1.7-0.7-2.8s0.2-1.9,0.7-2.8c0.5-0.8,1.1-1.4,1.9-1.9
		c0.8-0.5,1.7-0.7,2.7-0.7c1,0,1.9,0.2,2.7,0.7s1.5,1.1,1.9,1.9c0.5,0.8,0.7,1.7,0.7,2.8s-0.2,1.9-0.7,2.8s-1.1,1.5-1.9,1.9
		s-1.7,0.7-2.7,0.7C699.6,549.1,698.7,548.9,697.9,548.5z M702.7,547.4c0.6-0.3,1.1-0.8,1.4-1.5c0.3-0.6,0.5-1.3,0.5-2.1
		s-0.2-1.5-0.5-2.1c-0.3-0.6-0.8-1.1-1.4-1.4c-0.6-0.3-1.3-0.5-2-0.5c-0.7,0-1.4,0.2-2,0.5c-0.6,0.3-1.1,0.8-1.4,1.4
		c-0.3,0.6-0.5,1.3-0.5,2.1s0.2,1.5,0.5,2.1c0.3,0.6,0.8,1.1,1.4,1.5c0.6,0.3,1.3,0.5,2,0.5C701.4,547.9,702.1,547.7,702.7,547.4z"
		/>
	<path class="st2" d="M710.5,548.5c-0.8-0.5-1.5-1.1-1.9-1.9c-0.5-0.8-0.7-1.7-0.7-2.8s0.2-1.9,0.7-2.8c0.5-0.8,1.1-1.4,1.9-1.9
		s1.8-0.7,2.8-0.7c0.9,0,1.7,0.2,2.4,0.5c0.7,0.4,1.3,0.9,1.7,1.6l-1.1,0.7c-0.3-0.5-0.8-0.9-1.3-1.2c-0.5-0.3-1.1-0.4-1.7-0.4
		c-0.8,0-1.4,0.2-2,0.5c-0.6,0.3-1.1,0.8-1.4,1.4c-0.3,0.6-0.5,1.3-0.5,2.1c0,0.8,0.2,1.5,0.5,2.1c0.3,0.6,0.8,1.1,1.4,1.4
		c0.6,0.3,1.3,0.5,2,0.5c0.6,0,1.2-0.1,1.7-0.4c0.5-0.3,1-0.6,1.3-1.2l1.1,0.7c-0.4,0.7-1,1.2-1.7,1.6s-1.5,0.5-2.4,0.5
		C712.2,549.1,711.3,548.9,710.5,548.5z"/>
	<path class="st2" d="M720.1,535.9c-0.2-0.2-0.3-0.4-0.3-0.7c0-0.3,0.1-0.5,0.3-0.7s0.4-0.3,0.7-0.3c0.3,0,0.5,0.1,0.7,0.3
		c0.2,0.2,0.3,0.4,0.3,0.7c0,0.3-0.1,0.5-0.3,0.7c-0.2,0.2-0.4,0.3-0.7,0.3C720.6,536.2,720.3,536.1,720.1,535.9z M720.1,538.5h1.4
		V549h-1.4V538.5z"/>
	<path class="st2" d="M732.4,539.5c0.7,0.7,1.1,1.7,1.1,3.1v6.5h-1.4v-1.6c-0.3,0.5-0.8,1-1.4,1.3c-0.6,0.3-1.4,0.5-2.2,0.5
		c-1.2,0-2.1-0.3-2.8-0.8c-0.7-0.6-1-1.3-1-2.2c0-0.9,0.3-1.6,1-2.2c0.6-0.5,1.7-0.8,3.1-0.8h3.3v-0.6c0-0.9-0.3-1.6-0.8-2.1
		c-0.5-0.5-1.2-0.7-2.2-0.7c-0.7,0-1.3,0.1-1.9,0.3c-0.6,0.2-1.1,0.5-1.6,0.9l-0.6-1.1c0.5-0.5,1.2-0.8,1.9-1.1
		c0.7-0.2,1.5-0.4,2.4-0.4C730.6,538.5,731.6,538.8,732.4,539.5z M730.8,547.5c0.6-0.4,1-0.9,1.3-1.6v-1.7h-3.3
		c-1.8,0-2.7,0.6-2.7,1.9c0,0.6,0.2,1.1,0.7,1.5c0.5,0.4,1.1,0.5,2,0.5C729.5,548,730.2,547.8,730.8,547.5z"/>
	<path class="st2" d="M742.9,548.4c-0.3,0.2-0.6,0.4-1,0.5c-0.4,0.1-0.8,0.2-1.2,0.2c-1,0-1.7-0.3-2.3-0.8c-0.5-0.5-0.8-1.3-0.8-2.3
		v-6.4h-1.9v-1.2h1.9v-2.3h1.4v2.3h3.2v1.2H739v6.3c0,0.6,0.2,1.1,0.5,1.4c0.3,0.3,0.8,0.5,1.3,0.5c0.3,0,0.6,0,0.9-0.1
		c0.3-0.1,0.5-0.2,0.7-0.4L742.9,548.4z"/>
	<path class="st2" d="M745.4,535.9c-0.2-0.2-0.3-0.4-0.3-0.7c0-0.3,0.1-0.5,0.3-0.7s0.4-0.3,0.7-0.3c0.3,0,0.5,0.1,0.7,0.3
		c0.2,0.2,0.3,0.4,0.3,0.7c0,0.3-0.1,0.5-0.3,0.7c-0.2,0.2-0.4,0.3-0.7,0.3C745.9,536.2,745.6,536.1,745.4,535.9z M745.4,538.5h1.4
		V549h-1.4V538.5z"/>
	<path class="st2" d="M752.4,548.5c-0.8-0.5-1.5-1.1-1.9-1.9c-0.5-0.8-0.7-1.7-0.7-2.8s0.2-1.9,0.7-2.8c0.5-0.8,1.1-1.4,1.9-1.9
		c0.8-0.5,1.7-0.7,2.7-0.7c1,0,1.9,0.2,2.7,0.7s1.5,1.1,1.9,1.9c0.5,0.8,0.7,1.7,0.7,2.8s-0.2,1.9-0.7,2.8s-1.1,1.5-1.9,1.9
		s-1.7,0.7-2.7,0.7C754.1,549.1,753.2,548.9,752.4,548.5z M757.1,547.4c0.6-0.3,1.1-0.8,1.4-1.5c0.3-0.6,0.5-1.3,0.5-2.1
		s-0.2-1.5-0.5-2.1c-0.3-0.6-0.8-1.1-1.4-1.4c-0.6-0.3-1.3-0.5-2-0.5c-0.7,0-1.4,0.2-2,0.5c-0.6,0.3-1.1,0.8-1.4,1.4
		c-0.3,0.6-0.5,1.3-0.5,2.1s0.2,1.5,0.5,2.1c0.3,0.6,0.8,1.1,1.4,1.5c0.6,0.3,1.3,0.5,2,0.5C755.9,547.9,756.5,547.7,757.1,547.4z"
		/>
	<path class="st2" d="M771.9,539.6c0.8,0.8,1.2,1.9,1.2,3.4v6.1h-1.4v-6c0-1.1-0.3-1.9-0.8-2.5s-1.3-0.9-2.3-0.9c-1.1,0-2,0.3-2.7,1
		c-0.7,0.7-1,1.6-1,2.8v5.5h-1.4v-10.5h1.4v1.9c0.4-0.6,0.9-1.1,1.6-1.5c0.7-0.4,1.5-0.5,2.4-0.5C770,538.5,771.1,538.8,771.9,539.6
		z"/>
	<path class="st2" d="M777.8,547.3c0.2,0.2,0.3,0.5,0.3,0.8c0,0.2,0,0.3-0.1,0.5c0,0.2-0.1,0.4-0.2,0.6L777,552h-1l0.7-2.9
		c-0.2-0.1-0.4-0.2-0.5-0.4c-0.1-0.2-0.2-0.4-0.2-0.7c0-0.3,0.1-0.6,0.3-0.8c0.2-0.2,0.5-0.3,0.8-0.3S777.6,547.1,777.8,547.3z"/>
	<path class="st2" d="M795,547.8v1.3h-9.8v-1l5.8-5.7c0.7-0.7,1.2-1.3,1.5-1.9s0.4-1.1,0.4-1.6c0-0.8-0.3-1.5-0.8-1.9
		c-0.6-0.5-1.4-0.7-2.4-0.7c-1.6,0-2.9,0.5-3.8,1.6l-1-0.9c0.5-0.6,1.2-1.1,2.1-1.5c0.8-0.3,1.8-0.5,2.9-0.5c1.4,0,2.6,0.3,3.4,1
		c0.8,0.7,1.2,1.6,1.2,2.8c0,0.7-0.2,1.4-0.5,2.1c-0.3,0.7-0.9,1.4-1.8,2.3l-4.8,4.7H795z"/>
	<path class="st2" d="M799.4,548.3c-0.8-0.6-1.5-1.4-2-2.5s-0.7-2.3-0.7-3.8s0.2-2.7,0.7-3.8s1.1-1.9,2-2.5s1.8-0.9,2.9-0.9
		s2,0.3,2.9,0.9s1.5,1.4,2,2.5c0.5,1.1,0.7,2.3,0.7,3.8s-0.2,2.7-0.7,3.8c-0.5,1.1-1.1,1.9-2,2.5s-1.8,0.9-2.9,0.9
		S800.3,548.9,799.4,548.3z M804.5,547.2c0.6-0.5,1.1-1.1,1.5-2c0.3-0.9,0.5-1.9,0.5-3.1s-0.2-2.3-0.5-3.1c-0.3-0.9-0.8-1.5-1.5-2
		s-1.3-0.7-2.2-0.7s-1.5,0.2-2.1,0.7c-0.6,0.5-1.1,1.1-1.5,2c-0.3,0.9-0.5,1.9-0.5,3.1s0.2,2.3,0.5,3.1c0.3,0.9,0.8,1.5,1.5,2
		c0.6,0.5,1.3,0.7,2.1,0.7S803.8,547.6,804.5,547.2z"/>
	<path class="st2" d="M813.8,535v14h-1.4v-12.7h-3.3V535H813.8z"/>
	<path class="st2" d="M825.3,541.9c0.9,0.7,1.4,1.7,1.4,3c0,0.8-0.2,1.5-0.6,2.2c-0.4,0.6-1,1.1-1.7,1.5c-0.8,0.4-1.7,0.5-2.8,0.5
		c-1,0-2-0.2-2.9-0.5c-0.9-0.3-1.6-0.8-2.2-1.3l0.7-1.1c0.5,0.5,1.1,0.9,1.8,1.2c0.8,0.3,1.6,0.5,2.5,0.5c1.2,0,2.1-0.3,2.7-0.8
		c0.6-0.5,1-1.2,1-2.1c0-1-0.4-1.7-1.1-2.2c-0.7-0.5-1.9-0.7-3.6-0.7h-3l0.7-7h7.7v1.3h-6.4l-0.5,4.5h1.8
		C822.9,540.8,824.3,541.2,825.3,541.9z"/>
	<path class="st2" d="M828.8,548.8c-0.2-0.2-0.3-0.5-0.3-0.8s0.1-0.6,0.3-0.8c0.2-0.2,0.5-0.3,0.8-0.3c0.3,0,0.5,0.1,0.8,0.3
		c0.2,0.2,0.3,0.5,0.3,0.8s-0.1,0.6-0.3,0.8c-0.2,0.2-0.5,0.3-0.8,0.3C829.3,549.1,829,549,828.8,548.8z"/>
</g>
<line class="st1" x1="358.6" y1="89.6" x2="358.6" y2="506.3"/>
<line class="st1" x1="806.3" y1="89.6" x2="806.3" y2="506.3"/>
<line class="st1" x1="19" y1="160.4" x2="1228.5" y2="160.4"/>
<g class="st3">
	<path class="st2" d="M89.4,123.5H94v16.1h-4.6V123.5z"/>
	<path class="st2" d="M97.2,123.5h7.6c1.8,0,3.3,0.3,4.7,1c1.4,0.7,2.4,1.6,3.2,2.8s1.1,2.6,1.1,4.3s-0.4,3-1.1,4.3
		s-1.8,2.1-3.2,2.8c-1.4,0.7-2.9,1-4.7,1h-7.6V123.5z M104.7,136c1.4,0,2.5-0.4,3.3-1.2c0.8-0.8,1.3-1.9,1.3-3.2s-0.4-2.5-1.3-3.2
		s-1.9-1.2-3.3-1.2h-2.9v8.8H104.7z"/>
	<path class="st2" d="M126.8,136.5H120l-1.3,3.1h-4.6l7.1-16.1h4.5l7.1,16.1H128L126.8,136.5z M125.4,133.1l-2.1-5.2l-2.1,5.2H125.4
		z"/>
	<path class="st2" d="M134.1,123.5h7.6c1.8,0,3.3,0.3,4.7,1c1.4,0.7,2.4,1.6,3.2,2.8s1.1,2.6,1.1,4.3s-0.4,3-1.1,4.3
		s-1.8,2.1-3.2,2.8c-1.4,0.7-2.9,1-4.7,1h-7.6V123.5z M141.5,136c1.4,0,2.5-0.4,3.3-1.2c0.8-0.8,1.3-1.9,1.3-3.2s-0.4-2.5-1.3-3.2
		s-1.9-1.2-3.3-1.2h-2.9v8.8H141.5z"/>
	<path class="st2" d="M166,136.1v3.5h-12.9v-16.1h12.6v3.5h-8.1v2.7h7.2v3.4h-7.2v2.9H166z"/>
	<path class="st2" d="M434.1,127v3.5h7.1v3.5h-7.1v5.5h-4.6v-16.1h12.6v3.5H434.1z"/>
	<path class="st2" d="M451.3,135.3h-2.5v4.3h-4.6v-16.1h7.4c1.5,0,2.7,0.2,3.8,0.7c1.1,0.5,1.9,1.2,2.5,2.1c0.6,0.9,0.9,2,0.9,3.2
		c0,1.2-0.3,2.2-0.8,3c-0.5,0.9-1.3,1.5-2.3,2l3.5,5.1h-4.9L451.3,135.3z M453.5,127.7c-0.5-0.4-1.2-0.6-2.1-0.6h-2.5v4.7h2.5
		c0.9,0,1.6-0.2,2.1-0.6c0.5-0.4,0.7-1,0.7-1.7C454.2,128.7,454,128.1,453.5,127.7z"/>
	<path class="st2" d="M474.3,136.1v3.5h-12.9v-16.1H474v3.5h-8.1v2.7h7.2v3.4h-7.2v2.9H474.3z"/>
	<path class="st2" d="M494.7,141.5c-0.5,0.7-1.2,1.2-2,1.5c-0.8,0.3-1.6,0.5-2.5,0.5c-0.9,0-1.7-0.1-2.4-0.3s-1.4-0.6-2.2-1.1
		s-1.5-1.3-2.4-2.2c-1.4-0.2-2.6-0.7-3.7-1.5c-1.1-0.8-1.9-1.7-2.5-2.9s-0.9-2.4-0.9-3.8c0-1.6,0.4-3,1.2-4.3c0.8-1.3,1.8-2.3,3.2-3
		c1.4-0.7,2.9-1.1,4.6-1.1c1.7,0,3.2,0.4,4.6,1.1c1.4,0.7,2.4,1.7,3.2,3c0.8,1.3,1.2,2.7,1.2,4.3c0,1.8-0.5,3.4-1.5,4.8
		c-1,1.4-2.3,2.4-4,3c0.3,0.3,0.6,0.6,0.9,0.7c0.3,0.1,0.6,0.2,1,0.2c0.9,0,1.7-0.4,2.4-1.1L494.7,141.5z M481.1,134
		c0.4,0.7,0.9,1.2,1.6,1.6c0.7,0.4,1.4,0.6,2.2,0.6c0.8,0,1.5-0.2,2.2-0.6c0.7-0.4,1.2-0.9,1.6-1.6c0.4-0.7,0.6-1.5,0.6-2.4
		s-0.2-1.7-0.6-2.4c-0.4-0.7-0.9-1.2-1.6-1.6c-0.7-0.4-1.4-0.6-2.2-0.6c-0.8,0-1.5,0.2-2.2,0.6c-0.7,0.4-1.2,0.9-1.6,1.6
		c-0.4,0.7-0.6,1.5-0.6,2.4S480.7,133.3,481.1,134z"/>
	<path class="st2" d="M498.1,138c-1.3-1.3-2-3.2-2-5.5v-8.9h4.6v8.8c0,2.6,1,3.9,3.1,3.9c2,0,3-1.3,3-3.9v-8.8h4.5v8.9
		c0,2.4-0.7,4.2-2,5.5s-3.2,2-5.6,2S499.4,139.3,498.1,138z"/>
	<path class="st2" d="M527.2,136.1v3.5h-12.9v-16.1h12.6v3.5h-8.1v2.7h7.2v3.4h-7.2v2.9H527.2z M522.6,122.2l-2-1.7l-2,1.7h-2.9
		l3-3.5h3.8l3,3.5H522.6z"/>
	<path class="st2" d="M545.1,123.5v16.1h-3.7l-7.1-8.6v8.6h-4.5v-16.1h3.7l7.1,8.6v-8.6H545.1z"/>
	<path class="st2" d="M551.8,138.9c-1.3-0.7-2.4-1.7-3.2-3c-0.8-1.3-1.1-2.7-1.1-4.3c0-1.6,0.4-3.1,1.1-4.3s1.8-2.3,3.2-3
		s2.9-1.1,4.5-1.1c1.5,0,2.8,0.3,4,0.8s2.2,1.3,2.9,2.3l-2.9,2.6c-1-1.3-2.3-1.9-3.8-1.9c-0.9,0-1.7,0.2-2.3,0.6
		c-0.7,0.4-1.2,0.9-1.6,1.6c-0.4,0.7-0.6,1.5-0.6,2.4s0.2,1.7,0.6,2.4c0.4,0.7,0.9,1.2,1.6,1.6c0.7,0.4,1.5,0.6,2.3,0.6
		c1.5,0,2.8-0.6,3.8-1.9l2.9,2.6c-0.8,1-1.8,1.7-2.9,2.3s-2.5,0.8-4,0.8C554.6,139.9,553.1,139.6,551.8,138.9z"/>
	<path class="st2" d="M565.3,123.5h4.6v16.1h-4.6V123.5z"/>
	<path class="st2" d="M583.8,136.5H577l-1.3,3.1h-4.6l7.1-16.1h4.5l7.1,16.1h-4.7L583.8,136.5z M582.5,133.1l-2.1-5.2l-2.1,5.2
		H582.5z"/>
	<path class="st2" d="M610.8,136.1v3.5h-12.9v-16.1h12.6v3.5h-8.1v2.7h7.2v3.4h-7.2v2.9H610.8z"/>
	<path class="st2" d="M627.8,139.6l0-8.5l-4.1,6.9h-2l-4.1-6.7v8.3h-4.2v-16.1h3.7l5.7,9.3l5.5-9.3h3.7l0,16.1H627.8z"/>
	<path class="st2" d="M658.3,123.5l-6.9,16.1h-4.5l-6.9-16.1h4.9l4.4,10.5l4.5-10.5H658.3z"/>
	<path class="st2" d="M659.2,123.5h4.6v16.1h-4.6V123.5z"/>
	<path class="st2" d="M677.8,131.2h4v6.7c-0.9,0.7-2,1.2-3.2,1.5s-2.4,0.5-3.6,0.5c-1.7,0-3.2-0.4-4.6-1.1c-1.3-0.7-2.4-1.7-3.2-3
		c-0.8-1.3-1.1-2.7-1.1-4.3c0-1.6,0.4-3.1,1.1-4.3s1.8-2.3,3.2-3c1.4-0.7,2.9-1.1,4.6-1.1c1.5,0,2.9,0.3,4,0.8s2.2,1.2,3,2.2
		l-2.9,2.6c-1.1-1.2-2.4-1.8-3.9-1.8c-1.4,0-2.5,0.4-3.3,1.3c-0.8,0.8-1.3,2-1.3,3.3c0,0.9,0.2,1.7,0.6,2.4c0.4,0.7,0.9,1.2,1.6,1.6
		c0.7,0.4,1.5,0.6,2.4,0.6c0.9,0,1.7-0.2,2.5-0.5V131.2z"/>
	<path class="st2" d="M684.7,123.5h4.6v16.1h-4.6V123.5z M687.8,118.7h4.4l-4.3,3.5h-3.1L687.8,118.7z"/>
	<path class="st2" d="M692.5,123.5h4.6V136h7.7v3.6h-12.2V123.5z"/>
	<path class="st2" d="M706.5,123.5h4.6v16.1h-4.6V123.5z"/>
	<path class="st2" d="M725.1,136.5h-6.8l-1.3,3.1h-4.6l7.1-16.1h4.5l7.1,16.1h-4.7L725.1,136.5z M723.8,133.1l-2.1-5.2l-2.1,5.2
		H723.8z"/>
	<path class="st2" d="M890.9,127v3.5h7.1v3.5h-7.1v5.5h-4.6v-16.1H899v3.5H890.9z"/>
	<path class="st2" d="M908.1,135.3h-2.5v4.3h-4.6v-16.1h7.4c1.5,0,2.7,0.2,3.8,0.7c1.1,0.5,1.9,1.2,2.5,2.1c0.6,0.9,0.9,2,0.9,3.2
		c0,1.2-0.3,2.2-0.8,3c-0.5,0.9-1.3,1.5-2.3,2l3.5,5.1h-4.9L908.1,135.3z M910.3,127.7c-0.5-0.4-1.2-0.6-2.1-0.6h-2.5v4.7h2.5
		c0.9,0,1.6-0.2,2.1-0.6c0.5-0.4,0.7-1,0.7-1.7C911,128.7,910.8,128.1,910.3,127.7z"/>
	<path class="st2" d="M931,136.1v3.5h-12.9v-16.1h12.6v3.5h-8.1v2.7h7.2v3.4h-7.2v2.9H931z"/>
	<path class="st2" d="M951.4,141.5c-0.5,0.7-1.2,1.2-2,1.5c-0.8,0.3-1.6,0.5-2.5,0.5c-0.9,0-1.7-0.1-2.4-0.3s-1.4-0.6-2.2-1.1
		s-1.5-1.3-2.4-2.2c-1.4-0.2-2.6-0.7-3.7-1.5c-1.1-0.8-1.9-1.7-2.5-2.9s-0.9-2.4-0.9-3.8c0-1.6,0.4-3,1.2-4.3c0.8-1.3,1.8-2.3,3.2-3
		c1.4-0.7,2.9-1.1,4.6-1.1c1.7,0,3.2,0.4,4.6,1.1c1.4,0.7,2.4,1.7,3.2,3c0.8,1.3,1.2,2.7,1.2,4.3c0,1.8-0.5,3.4-1.5,4.8
		c-1,1.4-2.3,2.4-4,3c0.3,0.3,0.6,0.6,0.9,0.7c0.3,0.1,0.6,0.2,1,0.2c0.9,0,1.7-0.4,2.4-1.1L951.4,141.5z M937.9,134
		c0.4,0.7,0.9,1.2,1.6,1.6c0.7,0.4,1.4,0.6,2.2,0.6c0.8,0,1.5-0.2,2.2-0.6c0.7-0.4,1.2-0.9,1.6-1.6c0.4-0.7,0.6-1.5,0.6-2.4
		s-0.2-1.7-0.6-2.4c-0.4-0.7-0.9-1.2-1.6-1.6c-0.7-0.4-1.4-0.6-2.2-0.6c-0.8,0-1.5,0.2-2.2,0.6c-0.7,0.4-1.2,0.9-1.6,1.6
		c-0.4,0.7-0.6,1.5-0.6,2.4S937.5,133.3,937.9,134z"/>
	<path class="st2" d="M954.9,138c-1.3-1.3-2-3.2-2-5.5v-8.9h4.6v8.8c0,2.6,1,3.9,3.1,3.9c2,0,3-1.3,3-3.9v-8.8h4.5v8.9
		c0,2.4-0.7,4.2-2,5.5s-3.2,2-5.6,2S956.2,139.3,954.9,138z"/>
	<path class="st2" d="M984,136.1v3.5h-12.9v-16.1h12.6v3.5h-8.1v2.7h7.2v3.4h-7.2v2.9H984z M979.4,122.2l-2-1.7l-2,1.7h-2.9l3-3.5
		h3.8l3,3.5H979.4z"/>
	<path class="st2" d="M1001.9,123.5v16.1h-3.7L991,131v8.6h-4.5v-16.1h3.7l7.1,8.6v-8.6H1001.9z"/>
	<path class="st2" d="M1008.6,138.9c-1.3-0.7-2.4-1.7-3.2-3c-0.8-1.3-1.1-2.7-1.1-4.3c0-1.6,0.4-3.1,1.1-4.3s1.8-2.3,3.2-3
		s2.9-1.1,4.5-1.1c1.5,0,2.8,0.3,4,0.8s2.2,1.3,2.9,2.3l-2.9,2.6c-1-1.3-2.3-1.9-3.8-1.9c-0.9,0-1.7,0.2-2.3,0.6
		c-0.7,0.4-1.2,0.9-1.6,1.6c-0.4,0.7-0.6,1.5-0.6,2.4s0.2,1.7,0.6,2.4c0.4,0.7,0.9,1.2,1.6,1.6c0.7,0.4,1.5,0.6,2.3,0.6
		c1.5,0,2.8-0.6,3.8-1.9l2.9,2.6c-0.8,1-1.8,1.7-2.9,2.3s-2.5,0.8-4,0.8C1011.4,139.9,1009.9,139.6,1008.6,138.9z"/>
	<path class="st2" d="M1022.1,123.5h4.6v16.1h-4.6V123.5z"/>
	<path class="st2" d="M1040.6,136.5h-6.8l-1.3,3.1h-4.6l7.1-16.1h4.5l7.1,16.1h-4.7L1040.6,136.5z M1039.3,133.1l-2.1-5.2l-2.1,5.2
		H1039.3z"/>
	<path class="st2" d="M1067.5,136.1v3.5h-12.9v-16.1h12.6v3.5h-8.1v2.7h7.2v3.4h-7.2v2.9H1067.5z"/>
	<path class="st2" d="M1084.6,139.6l0-8.5l-4.1,6.9h-2l-4.1-6.7v8.3h-4.2v-16.1h3.7l5.7,9.3l5.5-9.3h3.7l0,16.1H1084.6z"/>
	<path class="st2" d="M1100.6,139.5c-1.2-0.3-2.2-0.8-3-1.3l1.5-3.4c0.7,0.5,1.6,0.9,2.5,1.1c1,0.3,1.9,0.4,2.8,0.4
		c1.7,0,2.6-0.4,2.6-1.3c0-0.5-0.2-0.8-0.7-1c-0.5-0.2-1.3-0.5-2.4-0.7c-1.2-0.3-2.2-0.5-3-0.8s-1.5-0.8-2.1-1.4s-0.9-1.5-0.9-2.7
		c0-1,0.3-1.9,0.8-2.7c0.5-0.8,1.3-1.4,2.4-1.9c1.1-0.5,2.4-0.7,3.9-0.7c1.1,0,2.1,0.1,3.1,0.4c1,0.2,1.9,0.6,2.7,1l-1.4,3.4
		c-1.5-0.8-3-1.2-4.5-1.2c-0.9,0-1.6,0.1-2,0.4c-0.4,0.3-0.6,0.6-0.6,1c0,0.4,0.2,0.8,0.7,1c0.5,0.2,1.3,0.4,2.4,0.7
		c1.2,0.3,2.2,0.5,3,0.8c0.8,0.3,1.5,0.8,2.1,1.4c0.6,0.7,0.9,1.5,0.9,2.7c0,1-0.3,1.8-0.8,2.6s-1.3,1.4-2.4,1.9
		c-1.1,0.5-2.4,0.7-3.9,0.7C1103.1,139.9,1101.8,139.8,1100.6,139.5z"/>
	<path class="st2" d="M1117.1,138.9c-1.4-0.7-2.4-1.7-3.2-3s-1.2-2.7-1.2-4.3s0.4-3,1.2-4.3c0.8-1.3,1.8-2.3,3.2-3
		c1.4-0.7,2.9-1.1,4.6-1.1c1.7,0,3.2,0.4,4.6,1.1c1.4,0.7,2.4,1.7,3.2,3c0.8,1.3,1.2,2.7,1.2,4.3s-0.4,3-1.2,4.3s-1.8,2.3-3.2,3
		c-1.4,0.7-2.9,1.1-4.6,1.1C1120,139.9,1118.5,139.6,1117.1,138.9z M1123.9,135.6c0.7-0.4,1.2-0.9,1.6-1.6c0.4-0.7,0.6-1.5,0.6-2.4
		s-0.2-1.7-0.6-2.4c-0.4-0.7-0.9-1.2-1.6-1.6c-0.7-0.4-1.4-0.6-2.2-0.6c-0.8,0-1.5,0.2-2.2,0.6c-0.7,0.4-1.2,0.9-1.6,1.6
		c-0.4,0.7-0.6,1.5-0.6,2.4s0.2,1.7,0.6,2.4c0.4,0.7,0.9,1.2,1.6,1.6c0.7,0.4,1.4,0.6,2.2,0.6C1122.5,136.2,1123.3,136,1123.9,135.6
		z"/>
	<path class="st2" d="M1148.4,123.5v16.1h-3.7l-7.1-8.6v8.6h-4.5v-16.1h3.7l7.1,8.6v-8.6H1148.4z"/>
	<path class="st2" d="M1155.1,138.9c-1.4-0.7-2.4-1.7-3.2-3s-1.2-2.7-1.2-4.3s0.4-3,1.2-4.3c0.8-1.3,1.8-2.3,3.2-3
		c1.4-0.7,2.9-1.1,4.6-1.1c1.7,0,3.2,0.4,4.6,1.1c1.4,0.7,2.4,1.7,3.2,3c0.8,1.3,1.2,2.7,1.2,4.3s-0.4,3-1.2,4.3s-1.8,2.3-3.2,3
		c-1.4,0.7-2.9,1.1-4.6,1.1C1158,139.9,1156.5,139.6,1155.1,138.9z M1161.9,135.6c0.7-0.4,1.2-0.9,1.6-1.6c0.4-0.7,0.6-1.5,0.6-2.4
		s-0.2-1.7-0.6-2.4c-0.4-0.7-0.9-1.2-1.6-1.6c-0.7-0.4-1.4-0.6-2.2-0.6c-0.8,0-1.5,0.2-2.2,0.6c-0.7,0.4-1.2,0.9-1.6,1.6
		c-0.4,0.7-0.6,1.5-0.6,2.4s0.2,1.7,0.6,2.4c0.4,0.7,0.9,1.2,1.6,1.6c0.7,0.4,1.4,0.6,2.2,0.6C1160.5,136.2,1161.3,136,1161.9,135.6
		z"/>
</g>
<line class="st5" x1="19" y1="505.4" x2="1230.3" y2="505.4"/>
<g class="st3">
	<path d="M64.4,204.8l-3.6-5.2c-0.4,0-0.8,0-1.1,0h-4.2v5.1h-2.4V188h6.6c2.2,0,3.9,0.5,5.1,1.6s1.9,2.5,1.9,4.3
		c0,1.3-0.3,2.4-1,3.3c-0.6,0.9-1.6,1.6-2.7,2l4,5.6H64.4z M63.1,196.7c0.8-0.7,1.2-1.6,1.2-2.8c0-1.2-0.4-2.1-1.2-2.8
		c-0.8-0.6-2-1-3.5-1h-4.1v7.6h4.1C61.1,197.7,62.3,197.4,63.1,196.7z"/>
	<path d="M81.7,199.2H71.4c0.1,1.1,0.6,2,1.5,2.7c0.8,0.7,1.9,1,3.1,1c1.5,0,2.7-0.5,3.7-1.5l1.3,1.5c-0.6,0.7-1.3,1.2-2.1,1.5
		S77,205,75.9,205c-1.3,0-2.5-0.3-3.6-0.8c-1-0.6-1.8-1.3-2.4-2.3s-0.9-2.1-0.9-3.4c0-1.2,0.3-2.3,0.8-3.3c0.6-1,1.3-1.8,2.3-2.3
		c1-0.6,2.1-0.8,3.3-0.8c1.2,0,2.3,0.3,3.3,0.8c1,0.6,1.7,1.3,2.2,2.3c0.5,1,0.8,2.1,0.8,3.4C81.7,198.7,81.7,199,81.7,199.2z
		 M72.7,195c-0.7,0.7-1.2,1.6-1.3,2.6h8.2c-0.1-1.1-0.6-1.9-1.3-2.6c-0.7-0.7-1.7-1-2.8-1S73.4,194.3,72.7,195z"/>
	<path d="M87,204.1c-1-0.6-1.8-1.3-2.4-2.3c-0.6-1-0.9-2.1-0.9-3.3s0.3-2.4,0.9-3.3s1.4-1.8,2.4-2.3c1-0.6,2.2-0.8,3.5-0.8
		c1.2,0,2.2,0.2,3.1,0.7c0.9,0.5,1.6,1.1,2.1,2l-1.8,1.1c-0.4-0.6-0.9-1.1-1.5-1.4c-0.6-0.3-1.2-0.5-2-0.5c-0.8,0-1.6,0.2-2.2,0.6
		c-0.7,0.4-1.2,0.9-1.6,1.6c-0.4,0.7-0.6,1.5-0.6,2.3c0,0.9,0.2,1.7,0.6,2.4c0.4,0.7,0.9,1.2,1.6,1.6c0.7,0.4,1.4,0.6,2.2,0.6
		c0.7,0,1.4-0.2,2-0.5c0.6-0.3,1.1-0.8,1.5-1.4l1.8,1.1c-0.5,0.9-1.2,1.6-2.1,2c-0.9,0.5-1.9,0.7-3.1,0.7
		C89.2,205,88,204.7,87,204.1z"/>
	<path d="M109.9,199.2H99.6c0.1,1.1,0.6,2,1.5,2.7c0.8,0.7,1.9,1,3.1,1c1.5,0,2.7-0.5,3.7-1.5l1.3,1.5c-0.6,0.7-1.3,1.2-2.1,1.5
		s-1.8,0.5-2.9,0.5c-1.3,0-2.5-0.3-3.6-0.8c-1-0.6-1.8-1.3-2.4-2.3s-0.9-2.1-0.9-3.4c0-1.2,0.3-2.3,0.8-3.3c0.6-1,1.3-1.8,2.3-2.3
		c1-0.6,2.1-0.8,3.3-0.8c1.2,0,2.3,0.3,3.3,0.8c1,0.6,1.7,1.3,2.2,2.3c0.5,1,0.8,2.1,0.8,3.4C109.9,198.7,109.9,199,109.9,199.2z
		 M100.9,195c-0.7,0.7-1.2,1.6-1.3,2.6h8.2c-0.1-1.1-0.6-1.9-1.3-2.6c-0.7-0.7-1.7-1-2.8-1S101.6,194.3,100.9,195z M105.1,187.2h2.9
		l-4,3.1h-2.2L105.1,187.2z"/>
	<path d="M132.8,193.4c0.9,0.9,1.4,2.3,1.4,4.1v7.3h-2.3v-7.1c0-1.2-0.3-2.2-0.9-2.8s-1.4-0.9-2.4-0.9c-1.2,0-2.1,0.4-2.8,1.1
		c-0.7,0.7-1,1.8-1,3.1v6.6h-2.3v-7.1c0-1.2-0.3-2.2-0.9-2.8c-0.6-0.6-1.4-0.9-2.4-0.9c-1.2,0-2.1,0.4-2.8,1.1c-0.7,0.7-1,1.8-1,3.1
		v6.6h-2.3v-12.7h2.2v1.9c0.5-0.7,1.1-1.2,1.8-1.5c0.8-0.3,1.6-0.5,2.6-0.5c1,0,1.9,0.2,2.6,0.6c0.8,0.4,1.4,1,1.8,1.8
		c0.5-0.7,1.1-1.3,2-1.7c0.9-0.4,1.8-0.6,2.9-0.6C130.6,192,131.9,192.5,132.8,193.4z"/>
	<path d="M137.7,197.3h6.5v2h-6.5V197.3z"/>
	<path d="M158.3,193.4c1,0.9,1.4,2.3,1.4,4.1v7.3h-2.3v-7.1c0-1.2-0.3-2.2-0.9-2.8c-0.6-0.6-1.4-0.9-2.5-0.9c-1.2,0-2.2,0.4-3,1.1
		c-0.7,0.7-1.1,1.8-1.1,3.1v6.6h-2.3v-12.7h2.2v1.9c0.5-0.7,1.1-1.2,1.9-1.5c0.8-0.4,1.7-0.5,2.7-0.5
		C156.1,192,157.4,192.5,158.3,193.4z"/>
	<path d="M172.7,193.3c0.9,0.9,1.4,2.2,1.4,3.9v7.7h-2.2v-1.7c-0.4,0.6-0.9,1-1.6,1.4c-0.7,0.3-1.6,0.5-2.5,0.5
		c-1.4,0-2.6-0.3-3.4-1c-0.9-0.7-1.3-1.6-1.3-2.7s0.4-2,1.2-2.7c0.8-0.7,2.1-1,3.9-1h3.6v-0.5c0-1-0.3-1.8-0.9-2.3
		c-0.6-0.5-1.4-0.8-2.5-0.8c-0.8,0-1.5,0.1-2.2,0.4c-0.7,0.2-1.3,0.6-1.8,1l-1-1.7c0.7-0.5,1.4-0.9,2.4-1.2s1.9-0.4,2.9-0.4
		C170.4,192,171.8,192.4,172.7,193.3z M170.4,202.6c0.6-0.4,1.1-0.9,1.4-1.7v-1.8h-3.6c-2,0-2.9,0.7-2.9,2c0,0.6,0.2,1.1,0.7,1.5
		c0.5,0.4,1.2,0.6,2.1,0.6C169,203.2,169.8,203,170.4,202.6z"/>
	<path d="M179,204.6c-1-0.3-1.7-0.6-2.3-1.1l1-1.8c0.6,0.4,1.2,0.7,2,1c0.8,0.2,1.6,0.4,2.4,0.4c2,0,3-0.6,3-1.7
		c0-0.4-0.1-0.7-0.4-0.9c-0.3-0.2-0.6-0.4-1-0.5c-0.4-0.1-1-0.2-1.7-0.3c-1-0.2-1.9-0.3-2.5-0.6s-1.2-0.6-1.7-1.1
		c-0.5-0.5-0.7-1.2-0.7-2.1c0-1.2,0.5-2.1,1.4-2.8s2.2-1,3.9-1c0.8,0,1.7,0.1,2.5,0.3c0.8,0.2,1.5,0.5,2.1,0.8l-1,1.8
		c-1-0.7-2.3-1-3.7-1c-1,0-1.7,0.2-2.2,0.5c-0.5,0.3-0.8,0.7-0.8,1.3c0,0.4,0.1,0.7,0.4,1c0.3,0.2,0.6,0.4,1.1,0.5
		c0.4,0.1,1,0.2,1.8,0.4c1,0.2,1.9,0.4,2.5,0.6c0.6,0.2,1.2,0.5,1.6,1c0.4,0.5,0.7,1.2,0.7,2c0,1.2-0.5,2.1-1.5,2.7
		c-1,0.7-2.3,1-4,1C181,205,180,204.8,179,204.6z"/>
	<path d="M192.5,204.1c-1-0.6-1.8-1.3-2.4-2.3c-0.6-1-0.9-2.1-0.9-3.3s0.3-2.4,0.9-3.3s1.4-1.8,2.4-2.3c1-0.6,2.2-0.8,3.5-0.8
		c1.2,0,2.2,0.2,3.1,0.7c0.9,0.5,1.6,1.1,2.1,2l-1.8,1.1c-0.4-0.6-0.9-1.1-1.5-1.4c-0.6-0.3-1.2-0.5-2-0.5c-0.8,0-1.6,0.2-2.2,0.6
		c-0.7,0.4-1.2,0.9-1.6,1.6c-0.4,0.7-0.6,1.5-0.6,2.3c0,0.9,0.2,1.7,0.6,2.4c0.4,0.7,0.9,1.2,1.6,1.6c0.7,0.4,1.4,0.6,2.2,0.6
		c0.7,0,1.4-0.2,2-0.5c0.6-0.3,1.1-0.8,1.5-1.4l1.8,1.1c-0.5,0.9-1.2,1.6-2.1,2c-0.9,0.5-1.9,0.7-3.1,0.7
		C194.7,205,193.5,204.7,192.5,204.1z"/>
	<path d="M204.1,189.2c-0.3-0.3-0.4-0.6-0.4-1.1s0.1-0.8,0.4-1.1c0.3-0.3,0.7-0.4,1.1-0.4c0.4,0,0.8,0.1,1.1,0.4
		c0.3,0.3,0.4,0.6,0.4,1c0,0.4-0.1,0.8-0.4,1.1c-0.3,0.3-0.7,0.4-1.1,0.4C204.8,189.7,204.4,189.5,204.1,189.2z M204.1,192.1h2.3
		v12.7h-2.3V192.1z"/>
	<path d="M222.8,187v17.8h-2.2v-2c-0.5,0.7-1.2,1.2-1.9,1.6c-0.8,0.4-1.6,0.6-2.6,0.6c-1.2,0-2.3-0.3-3.3-0.8
		c-1-0.5-1.7-1.3-2.3-2.3c-0.6-1-0.8-2.1-0.8-3.4c0-1.3,0.3-2.4,0.8-3.4c0.6-1,1.3-1.7,2.3-2.3c1-0.5,2.1-0.8,3.3-0.8
		c0.9,0,1.8,0.2,2.5,0.5c0.8,0.3,1.4,0.9,1.9,1.5v-7H222.8z M218.4,202.4c0.7-0.4,1.2-0.9,1.5-1.6c0.4-0.7,0.6-1.5,0.6-2.3
		c0-0.9-0.2-1.7-0.6-2.3c-0.4-0.7-0.9-1.2-1.5-1.6c-0.7-0.4-1.4-0.6-2.2-0.6c-0.8,0-1.5,0.2-2.2,0.6c-0.6,0.4-1.2,0.9-1.5,1.6
		c-0.4,0.7-0.6,1.5-0.6,2.3c0,0.9,0.2,1.7,0.6,2.3c0.4,0.7,0.9,1.2,1.5,1.6s1.4,0.6,2.2,0.6C217.1,203,217.8,202.8,218.4,202.4z"/>
	<path d="M229.2,204.1c-1-0.6-1.8-1.3-2.4-2.3c-0.6-1-0.9-2.1-0.9-3.3s0.3-2.4,0.9-3.3s1.4-1.8,2.4-2.3c1-0.6,2.1-0.8,3.4-0.8
		c1.3,0,2.4,0.3,3.4,0.8c1,0.6,1.8,1.3,2.4,2.3s0.9,2.1,0.9,3.3s-0.3,2.4-0.9,3.3c-0.6,1-1.4,1.8-2.4,2.3c-1,0.6-2.1,0.8-3.4,0.8
		C231.4,205,230.2,204.7,229.2,204.1z M234.8,202.4c0.6-0.4,1.2-0.9,1.5-1.6c0.4-0.7,0.6-1.5,0.6-2.3c0-0.9-0.2-1.7-0.6-2.3
		c-0.4-0.7-0.9-1.2-1.5-1.6c-0.6-0.4-1.4-0.6-2.2-0.6c-0.8,0-1.5,0.2-2.2,0.6c-0.6,0.4-1.2,0.9-1.5,1.6c-0.4,0.7-0.6,1.5-0.6,2.3
		c0,0.9,0.2,1.7,0.6,2.3c0.4,0.7,0.9,1.2,1.5,1.6s1.4,0.6,2.2,0.6C233.4,203,234.2,202.8,234.8,202.4z"/>
</g>
<g class="st3">
	<path d="M57,256v16.8h-2.4v-14.7h-3.8V256H57z"/>
	<path d="M76.8,261.3c0.9,0.9,1.4,2.2,1.4,3.9v7.7H76v-1.7c-0.4,0.6-0.9,1-1.6,1.4c-0.7,0.3-1.6,0.5-2.5,0.5c-1.4,0-2.6-0.3-3.4-1
		c-0.9-0.7-1.3-1.6-1.3-2.7s0.4-2,1.2-2.7c0.8-0.7,2.1-1,3.9-1h3.6v-0.5c0-1-0.3-1.8-0.9-2.3c-0.6-0.5-1.4-0.8-2.5-0.8
		c-0.8,0-1.5,0.1-2.2,0.4c-0.7,0.2-1.3,0.6-1.8,1l-1-1.7c0.7-0.5,1.4-0.9,2.4-1.2s1.9-0.4,2.9-0.4C74.5,260,75.9,260.4,76.8,261.3z
		 M74.5,270.6c0.6-0.4,1.1-0.9,1.4-1.7v-1.8h-3.6c-2,0-2.9,0.7-2.9,2c0,0.6,0.2,1.1,0.7,1.5c0.5,0.4,1.2,0.6,2.1,0.6
		C73.1,271.2,73.9,271,74.5,270.6z"/>
	<path d="M93.1,256v16.8h-2.4v-14.7h-3.8V256H93.1z"/>
	<path d="M108.6,270.8v2.1H96.5v-1.6l6.8-6.6c0.8-0.8,1.4-1.5,1.7-2.1c0.3-0.6,0.4-1.2,0.4-1.8c0-0.9-0.3-1.6-0.9-2.1
		c-0.6-0.5-1.5-0.7-2.7-0.7c-1.9,0-3.3,0.6-4.3,1.8l-1.6-1.4c0.7-0.8,1.5-1.4,2.6-1.9c1.1-0.4,2.3-0.7,3.6-0.7
		c1.8,0,3.2,0.4,4.2,1.3c1,0.8,1.6,2,1.6,3.4c0,0.9-0.2,1.7-0.6,2.5c-0.4,0.8-1.1,1.7-2.2,2.7l-5.1,4.9H108.6z"/>
	<path d="M137.8,261.4c0.9,0.9,1.4,2.3,1.4,4.1v7.3h-2.3v-7.1c0-1.2-0.3-2.2-0.9-2.8s-1.4-0.9-2.4-0.9c-1.2,0-2.1,0.4-2.8,1.1
		c-0.7,0.7-1,1.8-1,3.1v6.6h-2.3v-7.1c0-1.2-0.3-2.2-0.9-2.8c-0.6-0.6-1.4-0.9-2.4-0.9c-1.2,0-2.1,0.4-2.8,1.1c-0.7,0.7-1,1.8-1,3.1
		v6.6H118v-12.7h2.2v1.9c0.5-0.7,1.1-1.2,1.8-1.5c0.8-0.3,1.6-0.5,2.6-0.5c1,0,1.9,0.2,2.6,0.6c0.8,0.4,1.4,1,1.8,1.8
		c0.5-0.7,1.1-1.3,2-1.7c0.9-0.4,1.8-0.6,2.9-0.6C135.6,260,136.8,260.5,137.8,261.4z"/>
	<path d="M154.9,267.2h-10.3c0.1,1.1,0.6,2,1.5,2.7c0.8,0.7,1.9,1,3.1,1c1.5,0,2.7-0.5,3.7-1.5l1.3,1.5c-0.6,0.7-1.3,1.2-2.1,1.5
		s-1.8,0.5-2.9,0.5c-1.3,0-2.5-0.3-3.6-0.8c-1-0.6-1.8-1.3-2.4-2.3s-0.9-2.1-0.9-3.4c0-1.2,0.3-2.3,0.8-3.3c0.6-1,1.3-1.8,2.3-2.3
		c1-0.6,2.1-0.8,3.3-0.8c1.2,0,2.3,0.3,3.3,0.8c1,0.6,1.7,1.3,2.2,2.3c0.5,1,0.8,2.1,0.8,3.4C155,266.7,155,267,154.9,267.2z
		 M145.9,263c-0.7,0.7-1.2,1.6-1.3,2.6h8.2c-0.1-1.1-0.6-1.9-1.3-2.6c-0.7-0.7-1.7-1-2.8-1S146.7,262.3,145.9,263z"/>
	<path d="M158.8,272.6c-1-0.3-1.7-0.6-2.3-1.1l1-1.8c0.6,0.4,1.2,0.7,2,1c0.8,0.2,1.6,0.4,2.4,0.4c2,0,3-0.6,3-1.7
		c0-0.4-0.1-0.7-0.4-0.9c-0.3-0.2-0.6-0.4-1-0.5c-0.4-0.1-1-0.2-1.7-0.3c-1-0.2-1.9-0.3-2.5-0.6s-1.2-0.6-1.7-1.1
		c-0.5-0.5-0.7-1.2-0.7-2.1c0-1.2,0.5-2.1,1.4-2.8s2.2-1,3.9-1c0.8,0,1.7,0.1,2.5,0.3c0.8,0.2,1.5,0.5,2.1,0.8l-1,1.8
		c-1-0.7-2.3-1-3.7-1c-1,0-1.7,0.2-2.2,0.5c-0.5,0.3-0.8,0.7-0.8,1.3c0,0.4,0.1,0.7,0.4,1c0.3,0.2,0.6,0.4,1.1,0.5
		c0.4,0.1,1,0.2,1.8,0.4c1,0.2,1.9,0.4,2.5,0.6c0.6,0.2,1.2,0.5,1.6,1c0.4,0.5,0.7,1.2,0.7,2c0,1.2-0.5,2.1-1.5,2.7
		c-1,0.7-2.3,1-4,1C160.8,273,159.8,272.8,158.8,272.6z"/>
	<path d="M181.6,267.2h-10.3c0.1,1.1,0.6,2,1.5,2.7c0.8,0.7,1.9,1,3.1,1c1.5,0,2.7-0.5,3.7-1.5l1.3,1.5c-0.6,0.7-1.3,1.2-2.1,1.5
		s-1.8,0.5-2.9,0.5c-1.3,0-2.5-0.3-3.6-0.8c-1-0.6-1.8-1.3-2.4-2.3s-0.9-2.1-0.9-3.4c0-1.2,0.3-2.3,0.8-3.3c0.6-1,1.3-1.8,2.3-2.3
		c1-0.6,2.1-0.8,3.3-0.8c1.2,0,2.3,0.3,3.3,0.8c1,0.6,1.7,1.3,2.2,2.3c0.5,1,0.8,2.1,0.8,3.4C181.7,266.7,181.7,267,181.6,267.2z
		 M172.6,263c-0.7,0.7-1.2,1.6-1.3,2.6h8.2c-0.1-1.1-0.6-1.9-1.3-2.6c-0.7-0.7-1.7-1-2.8-1S173.4,262.3,172.6,263z"/>
	<path d="M185.5,272.6c-1-0.3-1.7-0.6-2.3-1.1l1-1.8c0.6,0.4,1.2,0.7,2,1c0.8,0.2,1.6,0.4,2.4,0.4c2,0,3-0.6,3-1.7
		c0-0.4-0.1-0.7-0.4-0.9c-0.3-0.2-0.6-0.4-1-0.5c-0.4-0.1-1-0.2-1.7-0.3c-1-0.2-1.9-0.3-2.5-0.6s-1.2-0.6-1.7-1.1
		c-0.5-0.5-0.7-1.2-0.7-2.1c0-1.2,0.5-2.1,1.4-2.8s2.2-1,3.9-1c0.8,0,1.7,0.1,2.5,0.3c0.8,0.2,1.5,0.5,2.1,0.8l-1,1.8
		c-1-0.7-2.3-1-3.7-1c-1,0-1.7,0.2-2.2,0.5c-0.5,0.3-0.8,0.7-0.8,1.3c0,0.4,0.1,0.7,0.4,1c0.3,0.2,0.6,0.4,1.1,0.5
		c0.4,0.1,1,0.2,1.8,0.4c1,0.2,1.9,0.4,2.5,0.6c0.6,0.2,1.2,0.5,1.6,1c0.4,0.5,0.7,1.2,0.7,2c0,1.2-0.5,2.1-1.5,2.7
		c-1,0.7-2.3,1-4,1C187.5,273,186.5,272.8,185.5,272.6z"/>
</g>
<g class="st3">
	<path d="M57,324v16.8h-2.4v-14.7h-3.8V324H57z"/>
	<path d="M76.8,329.3c0.9,0.9,1.4,2.2,1.4,3.9v7.7H76v-1.7c-0.4,0.6-0.9,1-1.6,1.4c-0.7,0.3-1.6,0.5-2.5,0.5c-1.4,0-2.6-0.3-3.4-1
		c-0.9-0.7-1.3-1.6-1.3-2.7s0.4-2,1.2-2.7c0.8-0.7,2.1-1,3.9-1h3.6v-0.5c0-1-0.3-1.8-0.9-2.3c-0.6-0.5-1.4-0.8-2.5-0.8
		c-0.8,0-1.5,0.1-2.2,0.4c-0.7,0.2-1.3,0.6-1.8,1l-1-1.7c0.7-0.5,1.4-0.9,2.4-1.2s1.9-0.4,2.9-0.4C74.5,328,75.9,328.4,76.8,329.3z
		 M74.5,338.6c0.6-0.4,1.1-0.9,1.4-1.7v-1.8h-3.6c-2,0-2.9,0.7-2.9,2c0,0.6,0.2,1.1,0.7,1.5c0.5,0.4,1.2,0.6,2.1,0.6
		C73.1,339.2,73.9,339,74.5,338.6z"/>
	<path d="M99.7,338.8v2.1H87.6v-1.6l6.8-6.6c0.8-0.8,1.4-1.5,1.7-2.1c0.3-0.6,0.4-1.2,0.4-1.8c0-0.9-0.3-1.6-0.9-2.1
		c-0.6-0.5-1.5-0.7-2.7-0.7c-1.9,0-3.3,0.6-4.3,1.8l-1.6-1.4c0.7-0.8,1.5-1.4,2.6-1.9c1.1-0.4,2.3-0.7,3.6-0.7
		c1.8,0,3.2,0.4,4.2,1.3c1,0.8,1.6,2,1.6,3.4c0,0.9-0.2,1.7-0.6,2.5c-0.4,0.8-1.1,1.7-2.2,2.7l-5.1,4.9H99.7z"/>
	<path d="M117.8,329.3c0.9,0.9,1.4,2.2,1.4,3.9v7.7h-2.2v-1.7c-0.4,0.6-0.9,1-1.6,1.4c-0.7,0.3-1.6,0.5-2.5,0.5
		c-1.4,0-2.6-0.3-3.4-1c-0.9-0.7-1.3-1.6-1.3-2.7s0.4-2,1.2-2.7c0.8-0.7,2.1-1,3.9-1h3.6v-0.5c0-1-0.3-1.8-0.9-2.3
		c-0.6-0.5-1.4-0.8-2.5-0.8c-0.8,0-1.5,0.1-2.2,0.4c-0.7,0.2-1.3,0.6-1.8,1l-1-1.7c0.7-0.5,1.4-0.9,2.4-1.2s1.9-0.4,2.9-0.4
		C115.6,328,116.9,328.4,117.8,329.3z M115.6,338.6c0.6-0.4,1.1-0.9,1.4-1.7v-1.8h-3.6c-2,0-2.9,0.7-2.9,2c0,0.6,0.2,1.1,0.7,1.5
		c0.5,0.4,1.2,0.6,2.1,0.6C114.2,339.2,114.9,339,115.6,338.6z"/>
	<path d="M134.2,329.4c1,0.9,1.4,2.3,1.4,4.1v7.3h-2.3v-7.1c0-1.2-0.3-2.2-0.9-2.8c-0.6-0.6-1.4-0.9-2.5-0.9c-1.2,0-2.2,0.4-3,1.1
		c-0.7,0.7-1.1,1.8-1.1,3.1v6.6h-2.3v-12.7h2.2v1.9c0.5-0.7,1.1-1.2,1.9-1.5c0.8-0.4,1.7-0.5,2.7-0.5
		C131.9,328,133.2,328.5,134.2,329.4z"/>
	<path d="M142,340.1c-1-0.6-1.8-1.3-2.4-2.3c-0.6-1-0.9-2.1-0.9-3.3s0.3-2.4,0.9-3.3s1.4-1.8,2.4-2.3c1-0.6,2.1-0.8,3.4-0.8
		c1.3,0,2.4,0.3,3.4,0.8c1,0.6,1.8,1.3,2.4,2.3s0.9,2.1,0.9,3.3s-0.3,2.4-0.9,3.3c-0.6,1-1.4,1.8-2.4,2.3c-1,0.6-2.1,0.8-3.4,0.8
		C144.1,341,143,340.7,142,340.1z M147.6,338.4c0.6-0.4,1.2-0.9,1.5-1.6c0.4-0.7,0.6-1.5,0.6-2.3c0-0.9-0.2-1.7-0.6-2.3
		c-0.4-0.7-0.9-1.2-1.5-1.6c-0.6-0.4-1.4-0.6-2.2-0.6c-0.8,0-1.5,0.2-2.2,0.6c-0.6,0.4-1.2,0.9-1.5,1.6c-0.4,0.7-0.6,1.5-0.6,2.3
		c0,0.9,0.2,1.7,0.6,2.3c0.4,0.7,0.9,1.2,1.5,1.6s1.4,0.6,2.2,0.6C146.2,339,146.9,338.8,147.6,338.4z"/>
	<path d="M155.8,340.6c-1-0.3-1.7-0.6-2.3-1.1l1-1.8c0.6,0.4,1.2,0.7,2,1c0.8,0.2,1.6,0.4,2.4,0.4c2,0,3-0.6,3-1.7
		c0-0.4-0.1-0.7-0.4-0.9c-0.3-0.2-0.6-0.4-1-0.5c-0.4-0.1-1-0.2-1.7-0.3c-1-0.2-1.9-0.3-2.5-0.6s-1.2-0.6-1.7-1.1
		c-0.5-0.5-0.7-1.2-0.7-2.1c0-1.2,0.5-2.1,1.4-2.8s2.2-1,3.9-1c0.8,0,1.7,0.1,2.5,0.3c0.8,0.2,1.5,0.5,2.1,0.8l-1,1.8
		c-1-0.7-2.3-1-3.7-1c-1,0-1.7,0.2-2.2,0.5c-0.5,0.3-0.8,0.7-0.8,1.3c0,0.4,0.1,0.7,0.4,1c0.3,0.2,0.6,0.4,1.1,0.5
		c0.4,0.1,1,0.2,1.8,0.4c1,0.2,1.9,0.4,2.5,0.6c0.6,0.2,1.2,0.5,1.6,1c0.4,0.5,0.7,1.2,0.7,2c0,1.2-0.5,2.1-1.5,2.7
		c-1,0.7-2.3,1-4,1C157.8,341,156.8,340.8,155.8,340.6z"/>
</g>
<g class="st3">
	<path d="M62,400.6c0.9,0.9,1.3,1.9,1.3,3.3c0,1-0.2,1.8-0.7,2.6s-1.2,1.4-2.1,1.8s-2.1,0.7-3.5,0.7c-1.2,0-2.4-0.2-3.5-0.5
		c-1.1-0.4-2-0.9-2.7-1.5l1.1-1.9c0.6,0.5,1.3,1,2.2,1.3c0.9,0.3,1.8,0.5,2.9,0.5c1.2,0,2.2-0.3,2.9-0.8c0.7-0.5,1-1.3,1-2.2
		s-0.3-1.6-1-2.2c-0.7-0.5-1.7-0.8-3.1-0.8h-1.3v-1.7l4.2-5.2h-8.1V392h11.1v1.6l-4.4,5.4C59.8,399.3,61.1,399.8,62,400.6z"/>
	<path d="M81.7,397.3c0.9,0.9,1.4,2.2,1.4,3.9v7.7h-2.2v-1.7c-0.4,0.6-0.9,1-1.6,1.4c-0.7,0.3-1.6,0.5-2.5,0.5c-1.4,0-2.6-0.3-3.4-1
		c-0.9-0.7-1.3-1.6-1.3-2.7s0.4-2,1.2-2.7c0.8-0.7,2.1-1,3.9-1h3.6v-0.5c0-1-0.3-1.8-0.9-2.3c-0.6-0.5-1.4-0.8-2.5-0.8
		c-0.8,0-1.5,0.1-2.2,0.4c-0.7,0.2-1.3,0.6-1.8,1l-1-1.7c0.7-0.5,1.4-0.9,2.4-1.2s1.9-0.4,2.9-0.4C79.4,396,80.7,396.4,81.7,397.3z
		 M79.4,406.6c0.6-0.4,1.1-0.9,1.4-1.7v-1.8h-3.6c-2,0-2.9,0.7-2.9,2c0,0.6,0.2,1.1,0.7,1.5c0.5,0.4,1.2,0.6,2.1,0.6
		C78,407.2,78.7,407,79.4,406.6z"/>
	<path d="M102.8,400.1c1.1,0.9,1.7,2.1,1.7,3.7c0,1-0.2,1.9-0.7,2.7c-0.5,0.8-1.2,1.4-2.1,1.9s-2.1,0.7-3.5,0.7
		c-1.2,0-2.3-0.2-3.4-0.5c-1.1-0.4-2-0.9-2.7-1.5l1.1-1.9c0.6,0.5,1.3,1,2.2,1.3c0.9,0.3,1.8,0.5,2.8,0.5c1.3,0,2.2-0.3,2.9-0.8
		c0.7-0.5,1-1.3,1-2.2c0-1-0.4-1.8-1.2-2.3c-0.8-0.5-2.1-0.8-3.9-0.8h-3.8l0.9-8.8h9.5v2.1h-7.5l-0.5,4.6h1.9
		C100,398.7,101.7,399.2,102.8,400.1z"/>
	<path d="M122.7,397.3c0.9,0.9,1.4,2.2,1.4,3.9v7.7h-2.2v-1.7c-0.4,0.6-0.9,1-1.6,1.4c-0.7,0.3-1.6,0.5-2.5,0.5
		c-1.4,0-2.6-0.3-3.4-1c-0.9-0.7-1.3-1.6-1.3-2.7s0.4-2,1.2-2.7c0.8-0.7,2.1-1,3.9-1h3.6v-0.5c0-1-0.3-1.8-0.9-2.3
		c-0.6-0.5-1.4-0.8-2.5-0.8c-0.8,0-1.5,0.1-2.2,0.4c-0.7,0.2-1.3,0.6-1.8,1l-1-1.7c0.7-0.5,1.4-0.9,2.4-1.2s1.9-0.4,2.9-0.4
		C120.4,396,121.8,396.4,122.7,397.3z M120.4,406.6c0.6-0.4,1.1-0.9,1.4-1.7v-1.8h-3.6c-2,0-2.9,0.7-2.9,2c0,0.6,0.2,1.1,0.7,1.5
		c0.5,0.4,1.2,0.6,2.1,0.6C119,407.2,119.8,407,120.4,406.6z"/>
	<path d="M139,397.4c1,0.9,1.4,2.3,1.4,4.1v7.3h-2.3v-7.1c0-1.2-0.3-2.2-0.9-2.8c-0.6-0.6-1.4-0.9-2.5-0.9c-1.2,0-2.2,0.4-3,1.1
		c-0.7,0.7-1.1,1.8-1.1,3.1v6.6h-2.3v-12.7h2.2v1.9c0.5-0.7,1.1-1.2,1.9-1.5c0.8-0.4,1.7-0.5,2.7-0.5
		C136.8,396,138.1,396.5,139,397.4z"/>
	<path d="M146.8,408.1c-1-0.6-1.8-1.3-2.4-2.3c-0.6-1-0.9-2.1-0.9-3.3s0.3-2.4,0.9-3.3s1.4-1.8,2.4-2.3c1-0.6,2.1-0.8,3.4-0.8
		c1.3,0,2.4,0.3,3.4,0.8c1,0.6,1.8,1.3,2.4,2.3s0.9,2.1,0.9,3.3s-0.3,2.4-0.9,3.3c-0.6,1-1.4,1.8-2.4,2.3c-1,0.6-2.1,0.8-3.4,0.8
		C149,409,147.8,408.7,146.8,408.1z M152.4,406.4c0.6-0.4,1.2-0.9,1.5-1.6c0.4-0.7,0.6-1.5,0.6-2.3c0-0.9-0.2-1.7-0.6-2.3
		c-0.4-0.7-0.9-1.2-1.5-1.6c-0.6-0.4-1.4-0.6-2.2-0.6c-0.8,0-1.5,0.2-2.2,0.6c-0.6,0.4-1.2,0.9-1.5,1.6c-0.4,0.7-0.6,1.5-0.6,2.3
		c0,0.9,0.2,1.7,0.6,2.3c0.4,0.7,0.9,1.2,1.5,1.6s1.4,0.6,2.2,0.6C151,407,151.8,406.8,152.4,406.4z"/>
	<path d="M160.7,408.6c-1-0.3-1.7-0.6-2.3-1.1l1-1.8c0.6,0.4,1.2,0.7,2,1c0.8,0.2,1.6,0.4,2.4,0.4c2,0,3-0.6,3-1.7
		c0-0.4-0.1-0.7-0.4-0.9c-0.3-0.2-0.6-0.4-1-0.5c-0.4-0.1-1-0.2-1.7-0.3c-1-0.2-1.9-0.3-2.5-0.6s-1.2-0.6-1.7-1.1
		c-0.5-0.5-0.7-1.2-0.7-2.1c0-1.2,0.5-2.1,1.4-2.8s2.2-1,3.9-1c0.8,0,1.7,0.1,2.5,0.3c0.8,0.2,1.5,0.5,2.1,0.8l-1,1.8
		c-1-0.7-2.3-1-3.7-1c-1,0-1.7,0.2-2.2,0.5c-0.5,0.3-0.8,0.7-0.8,1.3c0,0.4,0.1,0.7,0.4,1c0.3,0.2,0.6,0.4,1.1,0.5
		c0.4,0.1,1,0.2,1.8,0.4c1,0.2,1.9,0.4,2.5,0.6c0.6,0.2,1.2,0.5,1.6,1c0.4,0.5,0.7,1.2,0.7,2c0,1.2-0.5,2.1-1.5,2.7
		c-1,0.7-2.3,1-4,1C162.6,409,161.6,408.8,160.7,408.6z"/>
</g>
<g class="st3">
	<path d="M65.3,474.8v2.1H53.1V460H65v2.1h-9.5v5.2H64v2h-8.4v5.4H65.3z"/>
	<path d="M69.4,476.6c-1-0.3-1.7-0.6-2.3-1.1l1-1.8c0.6,0.4,1.2,0.7,2,1c0.8,0.2,1.6,0.4,2.4,0.4c2,0,3-0.6,3-1.7
		c0-0.4-0.1-0.7-0.4-0.9c-0.3-0.2-0.6-0.4-1-0.5c-0.4-0.1-1-0.2-1.7-0.3c-1-0.2-1.9-0.3-2.5-0.6s-1.2-0.6-1.7-1.1
		c-0.5-0.5-0.7-1.2-0.7-2.1c0-1.2,0.5-2.1,1.4-2.8s2.2-1,3.9-1c0.8,0,1.7,0.1,2.5,0.3c0.8,0.2,1.5,0.5,2.1,0.8l-1,1.8
		c-1-0.7-2.3-1-3.7-1c-1,0-1.7,0.2-2.2,0.5c-0.5,0.3-0.8,0.7-0.8,1.3c0,0.4,0.1,0.7,0.4,1c0.3,0.2,0.6,0.4,1.1,0.5
		c0.4,0.1,1,0.2,1.8,0.4c1,0.2,1.9,0.4,2.5,0.6c0.6,0.2,1.2,0.5,1.6,1c0.4,0.5,0.7,1.2,0.7,2c0,1.2-0.5,2.1-1.5,2.7
		c-1,0.7-2.3,1-4,1C71.3,477,70.3,476.8,69.4,476.6z"/>
	<path d="M82.8,476.1c-1-0.6-1.8-1.3-2.4-2.3c-0.6-1-0.9-2.1-0.9-3.3s0.3-2.4,0.9-3.3s1.4-1.8,2.4-2.3c1-0.6,2.2-0.8,3.5-0.8
		c1.2,0,2.2,0.2,3.1,0.7c0.9,0.5,1.6,1.1,2.1,2l-1.8,1.1c-0.4-0.6-0.9-1.1-1.5-1.4c-0.6-0.3-1.2-0.5-2-0.5c-0.8,0-1.6,0.2-2.2,0.6
		c-0.7,0.4-1.2,0.9-1.6,1.6c-0.4,0.7-0.6,1.5-0.6,2.3c0,0.9,0.2,1.7,0.6,2.4c0.4,0.7,0.9,1.2,1.6,1.6c0.7,0.4,1.4,0.6,2.2,0.6
		c0.7,0,1.4-0.2,2-0.5c0.6-0.3,1.1-0.8,1.5-1.4l1.8,1.1c-0.5,0.9-1.2,1.6-2.1,2c-0.9,0.5-1.9,0.7-3.1,0.7
		C85,477,83.8,476.7,82.8,476.1z"/>
	<path d="M96.3,476.1c-1-0.6-1.8-1.3-2.4-2.3c-0.6-1-0.9-2.1-0.9-3.3s0.3-2.4,0.9-3.3s1.4-1.8,2.4-2.3c1-0.6,2.1-0.8,3.4-0.8
		c1.3,0,2.4,0.3,3.4,0.8c1,0.6,1.8,1.3,2.4,2.3s0.9,2.1,0.9,3.3s-0.3,2.4-0.9,3.3c-0.6,1-1.4,1.8-2.4,2.3c-1,0.6-2.1,0.8-3.4,0.8
		C98.4,477,97.3,476.7,96.3,476.1z M101.9,474.4c0.6-0.4,1.2-0.9,1.5-1.6c0.4-0.7,0.6-1.5,0.6-2.3c0-0.9-0.2-1.7-0.6-2.3
		c-0.4-0.7-0.9-1.2-1.5-1.6c-0.6-0.4-1.4-0.6-2.2-0.6c-0.8,0-1.5,0.2-2.2,0.6c-0.6,0.4-1.2,0.9-1.5,1.6c-0.4,0.7-0.6,1.5-0.6,2.3
		c0,0.9,0.2,1.7,0.6,2.3c0.4,0.7,0.9,1.2,1.5,1.6s1.4,0.6,2.2,0.6C100.5,475,101.2,474.8,101.9,474.4z"/>
	<path d="M109.5,459h2.3v17.8h-2.3V459z"/>
	<path d="M124.9,465.3c0.9,0.9,1.4,2.2,1.4,3.9v7.7h-2.2v-1.7c-0.4,0.6-0.9,1-1.6,1.4c-0.7,0.3-1.6,0.5-2.5,0.5
		c-1.4,0-2.6-0.3-3.4-1c-0.9-0.7-1.3-1.6-1.3-2.7s0.4-2,1.2-2.7c0.8-0.7,2.1-1,3.9-1h3.6v-0.5c0-1-0.3-1.8-0.9-2.3
		c-0.6-0.5-1.4-0.8-2.5-0.8c-0.8,0-1.5,0.1-2.2,0.4c-0.7,0.2-1.3,0.6-1.8,1l-1-1.7c0.7-0.5,1.4-0.9,2.4-1.2s1.9-0.4,2.9-0.4
		C122.6,464,123.9,464.4,124.9,465.3z M122.6,474.6c0.6-0.4,1.1-0.9,1.4-1.7v-1.8h-3.6c-2,0-2.9,0.7-2.9,2c0,0.6,0.2,1.1,0.7,1.5
		c0.5,0.4,1.2,0.6,2.1,0.6C121.2,475.2,121.9,475,122.6,474.6z"/>
	<path d="M134.5,464.6c0.8-0.4,1.7-0.6,2.9-0.6v2.2c-0.1,0-0.3,0-0.5,0c-1.2,0-2.2,0.4-2.9,1.1c-0.7,0.7-1.1,1.8-1.1,3.2v6.3h-2.3
		v-12.7h2.2v2.1C133.1,465.5,133.7,465,134.5,464.6z"/>
</g>
<rect x="584.4" y="292.5" width="9.5" height="1.5"/>
<line class="st1" x1="23.1" y1="298.7" x2="1230.3" y2="298.7"/>
<line class="st1" x1="23.1" y1="433.7" x2="1230.3" y2="433.7"/>
<g class="st3">
	<path d="M540.6,188v16.8h-2.4v-14.7h-3.8V188H540.6z"/>
	<path d="M547.6,204c-1-0.7-1.8-1.7-2.4-3s-0.9-2.8-0.9-4.6c0-1.8,0.3-3.3,0.9-4.6s1.4-2.3,2.4-3c1-0.7,2.2-1,3.5-1
		c1.3,0,2.5,0.3,3.5,1c1,0.7,1.8,1.7,2.4,3s0.9,2.8,0.9,4.6c0,1.8-0.3,3.3-0.9,4.6s-1.4,2.3-2.4,3c-1,0.7-2.2,1-3.5,1
		C549.8,205,548.6,204.7,547.6,204z M554.4,201.2c0.8-1.1,1.2-2.7,1.2-4.8c0-2.1-0.4-3.7-1.2-4.8c-0.8-1.1-1.9-1.7-3.2-1.7
		c-1.4,0-2.4,0.6-3.3,1.7c-0.8,1.1-1.2,2.7-1.2,4.8c0,2.1,0.4,3.7,1.2,4.8c0.8,1.1,1.9,1.7,3.3,1.7
		C552.5,202.9,553.6,202.3,554.4,201.2z"/>
	<path d="M563.6,204c-1-0.7-1.8-1.7-2.4-3s-0.9-2.8-0.9-4.6c0-1.8,0.3-3.3,0.9-4.6s1.4-2.3,2.4-3c1-0.7,2.2-1,3.5-1
		c1.3,0,2.5,0.3,3.5,1c1,0.7,1.8,1.7,2.4,3s0.9,2.8,0.9,4.6c0,1.8-0.3,3.3-0.9,4.6s-1.4,2.3-2.4,3c-1,0.7-2.2,1-3.5,1
		C565.8,205,564.7,204.7,563.6,204z M570.4,201.2c0.8-1.1,1.2-2.7,1.2-4.8c0-2.1-0.4-3.7-1.2-4.8c-0.8-1.1-1.9-1.7-3.2-1.7
		c-1.4,0-2.4,0.6-3.3,1.7c-0.8,1.1-1.2,2.7-1.2,4.8c0,2.1,0.4,3.7,1.2,4.8c0.8,1.1,1.9,1.7,3.3,1.7
		C568.5,202.9,569.6,202.3,570.4,201.2z"/>
	<path d="M592.5,193.3c0.9,0.9,1.4,2.2,1.4,3.9v7.7h-2.2v-1.7c-0.4,0.6-0.9,1-1.6,1.4c-0.7,0.3-1.6,0.5-2.5,0.5
		c-1.4,0-2.6-0.3-3.4-1c-0.9-0.7-1.3-1.6-1.3-2.7s0.4-2,1.2-2.7c0.8-0.7,2.1-1,3.9-1h3.6v-0.5c0-1-0.3-1.8-0.9-2.3
		c-0.6-0.5-1.4-0.8-2.5-0.8c-0.8,0-1.5,0.1-2.2,0.4c-0.7,0.2-1.3,0.6-1.8,1l-1-1.7c0.7-0.5,1.4-0.9,2.4-1.2s1.9-0.4,2.9-0.4
		C590.2,192,591.5,192.4,592.5,193.3z M590.2,202.6c0.6-0.4,1.1-0.9,1.4-1.7v-1.8H588c-2,0-2.9,0.7-2.9,2c0,0.6,0.2,1.1,0.7,1.5
		c0.5,0.4,1.2,0.6,2.1,0.6S589.5,203,590.2,202.6z"/>
	<path d="M615.4,202.8v2.1h-12.1v-1.6l6.8-6.6c0.8-0.8,1.4-1.5,1.7-2.1s0.4-1.2,0.4-1.8c0-0.9-0.3-1.6-0.9-2.1s-1.5-0.7-2.7-0.7
		c-1.9,0-3.3,0.6-4.3,1.8l-1.6-1.4c0.7-0.8,1.5-1.4,2.6-1.9c1.1-0.4,2.3-0.7,3.6-0.7c1.8,0,3.2,0.4,4.2,1.3c1,0.8,1.6,2,1.6,3.4
		c0,0.9-0.2,1.7-0.6,2.5c-0.4,0.8-1.1,1.7-2.2,2.7l-5.1,4.9H615.4z"/>
	<path d="M620.6,204c-1-0.7-1.8-1.7-2.4-3s-0.9-2.8-0.9-4.6c0-1.8,0.3-3.3,0.9-4.6s1.4-2.3,2.4-3c1-0.7,2.2-1,3.5-1
		c1.3,0,2.5,0.3,3.5,1c1,0.7,1.8,1.7,2.4,3s0.9,2.8,0.9,4.6c0,1.8-0.3,3.3-0.9,4.6s-1.4,2.3-2.4,3c-1,0.7-2.2,1-3.5,1
		C622.8,205,621.6,204.7,620.6,204z M627.4,201.2c0.8-1.1,1.2-2.7,1.2-4.8c0-2.1-0.4-3.7-1.2-4.8c-0.8-1.1-1.9-1.7-3.2-1.7
		c-1.4,0-2.4,0.6-3.3,1.7c-0.8,1.1-1.2,2.7-1.2,4.8c0,2.1,0.4,3.7,1.2,4.8c0.8,1.1,1.9,1.7,3.3,1.7
		C625.5,202.9,626.6,202.3,627.4,201.2z"/>
	<path d="M643.4,196.1c1.1,0.9,1.7,2.1,1.7,3.7c0,1-0.2,1.9-0.7,2.7c-0.5,0.8-1.2,1.4-2.1,1.9s-2.1,0.7-3.5,0.7
		c-1.2,0-2.3-0.2-3.4-0.5c-1.1-0.4-2-0.9-2.7-1.5l1.1-1.9c0.6,0.5,1.3,1,2.2,1.3c0.9,0.3,1.8,0.5,2.8,0.5c1.3,0,2.2-0.3,2.9-0.8
		s1-1.3,1-2.2c0-1-0.4-1.8-1.2-2.3c-0.8-0.5-2.1-0.8-3.9-0.8h-3.8l0.9-8.8h9.5v2.1h-7.5l-0.5,4.6h1.9
		C640.5,194.7,642.2,195.2,643.4,196.1z"/>
</g>
<g class="st3">
	<path d="M542.2,256v16.8h-2.4v-14.7h-3.8V256H542.2z"/>
	<path d="M549.2,272c-1-0.7-1.8-1.7-2.4-3c-0.6-1.3-0.9-2.8-0.9-4.6c0-1.8,0.3-3.3,0.9-4.6c0.6-1.3,1.4-2.3,2.4-3c1-0.7,2.2-1,3.5-1
		c1.3,0,2.5,0.3,3.5,1c1,0.7,1.8,1.7,2.4,3s0.9,2.8,0.9,4.6c0,1.8-0.3,3.3-0.9,4.6s-1.4,2.3-2.4,3c-1,0.7-2.2,1-3.5,1
		C551.4,273,550.3,272.7,549.2,272z M556,269.2c0.8-1.1,1.2-2.7,1.2-4.8c0-2.1-0.4-3.7-1.2-4.8c-0.8-1.1-1.9-1.7-3.2-1.7
		c-1.4,0-2.4,0.6-3.3,1.7c-0.8,1.1-1.2,2.7-1.2,4.8c0,2.1,0.4,3.7,1.2,4.8c0.8,1.1,1.9,1.7,3.3,1.7
		C554.1,270.9,555.2,270.3,556,269.2z"/>
	<path d="M565.2,272c-1-0.7-1.8-1.7-2.4-3c-0.6-1.3-0.9-2.8-0.9-4.6c0-1.8,0.3-3.3,0.9-4.6c0.6-1.3,1.4-2.3,2.4-3c1-0.7,2.2-1,3.5-1
		c1.3,0,2.5,0.3,3.5,1c1,0.7,1.8,1.7,2.4,3s0.9,2.8,0.9,4.6c0,1.8-0.3,3.3-0.9,4.6s-1.4,2.3-2.4,3c-1,0.7-2.2,1-3.5,1
		C567.4,273,566.3,272.7,565.2,272z M572,269.2c0.8-1.1,1.2-2.7,1.2-4.8c0-2.1-0.4-3.7-1.2-4.8c-0.8-1.1-1.9-1.7-3.2-1.7
		c-1.4,0-2.4,0.6-3.3,1.7c-0.8,1.1-1.2,2.7-1.2,4.8c0,2.1,0.4,3.7,1.2,4.8c0.8,1.1,1.9,1.7,3.3,1.7
		C570.1,270.9,571.2,270.3,572,269.2z"/>
	<path d="M594.1,261.3c0.9,0.9,1.4,2.2,1.4,3.9v7.7h-2.2v-1.7c-0.4,0.6-0.9,1-1.6,1.4c-0.7,0.3-1.6,0.5-2.5,0.5
		c-1.4,0-2.6-0.3-3.4-1c-0.9-0.7-1.3-1.6-1.3-2.7s0.4-2,1.2-2.7c0.8-0.7,2.1-1,3.9-1h3.6v-0.5c0-1-0.3-1.8-0.9-2.3
		c-0.6-0.5-1.4-0.8-2.5-0.8c-0.8,0-1.5,0.1-2.2,0.4c-0.7,0.2-1.3,0.6-1.8,1l-1-1.7c0.7-0.5,1.4-0.9,2.4-1.2s1.9-0.4,2.9-0.4
		C591.8,260,593.1,260.4,594.1,261.3z M591.8,270.6c0.6-0.4,1.1-0.9,1.4-1.7v-1.8h-3.6c-2,0-2.9,0.7-2.9,2c0,0.6,0.2,1.1,0.7,1.5
		c0.5,0.4,1.2,0.6,2.1,0.6C590.4,271.2,591.1,271,591.8,270.6z"/>
	<path d="M610.4,256v16.8H608v-14.7h-3.8V256H610.4z"/>
	<path d="M626.5,265.6c0.5,0.7,0.8,1.5,0.8,2.5c0,1-0.3,1.9-0.8,2.6s-1.3,1.3-2.3,1.7c-1,0.4-2.2,0.6-3.6,0.6
		c-1.3,0-2.5-0.2-3.5-0.6c-1-0.4-1.8-1-2.3-1.7c-0.5-0.7-0.8-1.6-0.8-2.6c0-1,0.3-1.8,0.8-2.5c0.5-0.7,1.2-1.2,2.2-1.6
		c-0.8-0.4-1.4-0.9-1.8-1.5c-0.4-0.6-0.6-1.3-0.6-2.2c0-0.9,0.3-1.7,0.8-2.4c0.5-0.7,1.2-1.2,2.1-1.6c0.9-0.4,2-0.6,3.2-0.6
		c1.2,0,2.3,0.2,3.2,0.6c0.9,0.4,1.6,0.9,2.1,1.6c0.5,0.7,0.8,1.5,0.8,2.4c0,0.8-0.2,1.5-0.6,2.1c-0.4,0.6-1,1.1-1.8,1.5
		C625.3,264.4,626,264.9,626.5,265.6z M623.8,270.3c0.8-0.6,1.2-1.3,1.2-2.2c0-0.9-0.4-1.7-1.2-2.2s-1.8-0.8-3.1-0.8
		c-1.3,0-2.4,0.3-3.1,0.8c-0.8,0.5-1.1,1.3-1.1,2.2c0,0.9,0.4,1.7,1.1,2.2c0.8,0.6,1.8,0.8,3.1,0.8
		C621.9,271.1,623,270.8,623.8,270.3z M617.9,258.5c-0.7,0.5-1,1.1-1,2s0.3,1.5,1,2c0.6,0.5,1.5,0.7,2.7,0.7c1.2,0,2.1-0.2,2.7-0.7
		c0.7-0.5,1-1.1,1-2s-0.3-1.5-1-2c-0.7-0.5-1.6-0.7-2.7-0.7C619.5,257.8,618.6,258,617.9,258.5z"/>
	<path d="M632.8,272c-1-0.7-1.8-1.7-2.4-3c-0.6-1.3-0.9-2.8-0.9-4.6c0-1.8,0.3-3.3,0.9-4.6c0.6-1.3,1.4-2.3,2.4-3c1-0.7,2.2-1,3.5-1
		c1.3,0,2.5,0.3,3.5,1c1,0.7,1.8,1.7,2.4,3s0.9,2.8,0.9,4.6c0,1.8-0.3,3.3-0.9,4.6s-1.4,2.3-2.4,3c-1,0.7-2.2,1-3.5,1
		C635.1,273,633.9,272.7,632.8,272z M639.6,269.2c0.8-1.1,1.2-2.7,1.2-4.8c0-2.1-0.4-3.7-1.2-4.8c-0.8-1.1-1.9-1.7-3.2-1.7
		c-1.4,0-2.4,0.6-3.3,1.7c-0.8,1.1-1.2,2.7-1.2,4.8c0,2.1,0.4,3.7,1.2,4.8c0.8,1.1,1.9,1.7,3.3,1.7
		C637.7,270.9,638.8,270.3,639.6,269.2z"/>
</g>
<g class="st3">
	<path d="M552.7,326c1.2,1.5,1.8,3.5,1.8,6.2c0,1.9-0.3,3.5-1,4.8c-0.7,1.3-1.6,2.3-2.8,3c-1.2,0.7-2.6,1-4.2,1
		c-0.8,0-1.6-0.1-2.3-0.3c-0.7-0.2-1.3-0.4-1.9-0.7l0.9-1.9c0.8,0.5,1.9,0.8,3.2,0.8c1.7,0,3.1-0.5,4.1-1.6c1-1.1,1.5-2.7,1.5-4.7
		V332c-0.5,0.7-1.1,1.3-2,1.6c-0.8,0.4-1.8,0.6-2.9,0.6c-1.1,0-2.1-0.2-3-0.6s-1.6-1-2-1.8s-0.7-1.7-0.7-2.7c0-1.1,0.3-2,0.8-2.8
		c0.5-0.8,1.2-1.4,2.1-1.9c0.9-0.4,1.9-0.7,3-0.7C549.7,323.8,551.5,324.6,552.7,326z M549.7,331.9c0.6-0.3,1.1-0.7,1.4-1.2
		c0.3-0.5,0.5-1,0.5-1.7c0-0.6-0.2-1.1-0.5-1.6s-0.8-0.9-1.4-1.2c-0.6-0.3-1.3-0.4-2.2-0.4c-1.1,0-2,0.3-2.7,0.9
		c-0.7,0.6-1,1.4-1,2.4c0,1,0.3,1.8,1,2.4c0.7,0.6,1.6,0.9,2.8,0.9C548.4,332.3,549.1,332.2,549.7,331.9z"/>
	<path d="M569.3,333.6c0.5,0.7,0.8,1.5,0.8,2.5c0,1-0.3,1.9-0.8,2.6s-1.3,1.3-2.3,1.7c-1,0.4-2.2,0.6-3.6,0.6
		c-1.3,0-2.5-0.2-3.5-0.6c-1-0.4-1.8-1-2.3-1.7c-0.5-0.7-0.8-1.6-0.8-2.6c0-1,0.3-1.8,0.8-2.5c0.5-0.7,1.2-1.2,2.2-1.6
		c-0.8-0.4-1.4-0.9-1.8-1.5c-0.4-0.6-0.6-1.3-0.6-2.2c0-0.9,0.3-1.7,0.8-2.4c0.5-0.7,1.2-1.2,2.1-1.6c0.9-0.4,2-0.6,3.2-0.6
		c1.2,0,2.3,0.2,3.2,0.6c0.9,0.4,1.6,0.9,2.1,1.6c0.5,0.7,0.8,1.5,0.8,2.4c0,0.8-0.2,1.5-0.6,2.1c-0.4,0.6-1,1.1-1.8,1.5
		C568.1,332.4,568.8,332.9,569.3,333.6z M566.5,338.3c0.8-0.6,1.2-1.3,1.2-2.2c0-0.9-0.4-1.7-1.2-2.2s-1.8-0.8-3.1-0.8
		c-1.3,0-2.4,0.3-3.1,0.8c-0.8,0.5-1.1,1.3-1.1,2.2c0,0.9,0.4,1.7,1.1,2.2c0.8,0.6,1.8,0.8,3.1,0.8
		C564.7,339.1,565.8,338.8,566.5,338.3z M560.7,326.5c-0.7,0.5-1,1.1-1,2s0.3,1.5,1,2c0.6,0.5,1.5,0.7,2.7,0.7
		c1.2,0,2.1-0.2,2.7-0.7c0.7-0.5,1-1.1,1-2s-0.3-1.5-1-2c-0.7-0.5-1.6-0.7-2.7-0.7C562.3,325.8,561.4,326,560.7,326.5z"/>
	<path d="M588.5,329.3c0.9,0.9,1.4,2.2,1.4,3.9v7.7h-2.2v-1.7c-0.4,0.6-0.9,1-1.6,1.4c-0.7,0.3-1.6,0.5-2.5,0.5
		c-1.4,0-2.6-0.3-3.4-1c-0.9-0.7-1.3-1.6-1.3-2.7s0.4-2,1.2-2.7c0.8-0.7,2.1-1,3.9-1h3.6v-0.5c0-1-0.3-1.8-0.9-2.3
		c-0.6-0.5-1.4-0.8-2.5-0.8c-0.8,0-1.5,0.1-2.2,0.4c-0.7,0.2-1.3,0.6-1.8,1l-1-1.7c0.7-0.5,1.4-0.9,2.4-1.2s1.9-0.4,2.9-0.4
		C586.2,328,587.5,328.4,588.5,329.3z M586.2,338.6c0.6-0.4,1.1-0.9,1.4-1.7v-1.8H584c-2,0-2.9,0.7-2.9,2c0,0.6,0.2,1.1,0.7,1.5
		c0.5,0.4,1.2,0.6,2.1,0.6C584.8,339.2,585.5,339,586.2,338.6z"/>
	<path d="M604.8,324v16.8h-2.4v-14.7h-3.8V324H604.8z"/>
	<path d="M623.1,336.7h-3.2v4.1h-2.3v-4.1h-9.3V335l8.6-11h2.6l-8.2,10.6h6.5V331h2.3v3.6h3.2V336.7z"/>
	<path d="M627.8,340c-1-0.7-1.8-1.7-2.4-3c-0.6-1.3-0.9-2.8-0.9-4.6c0-1.8,0.3-3.3,0.9-4.6c0.6-1.3,1.4-2.3,2.4-3c1-0.7,2.2-1,3.5-1
		c1.3,0,2.5,0.3,3.5,1c1,0.7,1.8,1.7,2.4,3s0.9,2.8,0.9,4.6c0,1.8-0.3,3.3-0.9,4.6s-1.4,2.3-2.4,3c-1,0.7-2.2,1-3.5,1
		C630,341,628.9,340.7,627.8,340z M634.6,337.2c0.8-1.1,1.2-2.7,1.2-4.8c0-2.1-0.4-3.7-1.2-4.8c-0.8-1.1-1.9-1.7-3.2-1.7
		c-1.4,0-2.4,0.6-3.3,1.7c-0.8,1.1-1.2,2.7-1.2,4.8c0,2.1,0.4,3.7,1.2,4.8c0.8,1.1,1.9,1.7,3.3,1.7
		C632.7,338.9,633.8,338.3,634.6,337.2z"/>
</g>
<g class="st3">
	<path d="M555.1,401.6c0.5,0.7,0.8,1.5,0.8,2.5c0,1-0.3,1.9-0.8,2.6s-1.3,1.3-2.3,1.7c-1,0.4-2.2,0.6-3.6,0.6
		c-1.3,0-2.5-0.2-3.5-0.6c-1-0.4-1.8-1-2.3-1.7c-0.5-0.7-0.8-1.6-0.8-2.6c0-1,0.3-1.8,0.8-2.5c0.5-0.7,1.2-1.2,2.2-1.6
		c-0.8-0.4-1.4-0.9-1.8-1.5c-0.4-0.6-0.6-1.3-0.6-2.2c0-0.9,0.3-1.7,0.8-2.4c0.5-0.7,1.2-1.2,2.1-1.6c0.9-0.4,2-0.6,3.2-0.6
		c1.2,0,2.3,0.2,3.2,0.6c0.9,0.4,1.6,0.9,2.1,1.6c0.5,0.7,0.8,1.5,0.8,2.4c0,0.8-0.2,1.5-0.6,2.1c-0.4,0.6-1,1.1-1.8,1.5
		C553.8,400.4,554.5,400.9,555.1,401.6z M552.3,406.3c0.8-0.6,1.2-1.3,1.2-2.2c0-0.9-0.4-1.7-1.2-2.2s-1.8-0.8-3.1-0.8
		c-1.3,0-2.4,0.3-3.1,0.8c-0.8,0.5-1.1,1.3-1.1,2.2c0,0.9,0.4,1.7,1.1,2.2c0.8,0.6,1.8,0.8,3.1,0.8
		C550.5,407.1,551.5,406.8,552.3,406.3z M546.4,394.5c-0.7,0.5-1,1.1-1,2s0.3,1.5,1,2c0.6,0.5,1.5,0.7,2.7,0.7
		c1.2,0,2.1-0.2,2.7-0.7c0.7-0.5,1-1.1,1-2s-0.3-1.5-1-2c-0.7-0.5-1.6-0.7-2.7-0.7C548,393.8,547.1,394,546.4,394.5z"/>
	<path d="M561.4,408c-1-0.7-1.8-1.7-2.4-3c-0.6-1.3-0.9-2.8-0.9-4.6c0-1.8,0.3-3.3,0.9-4.6c0.6-1.3,1.4-2.3,2.4-3c1-0.7,2.2-1,3.5-1
		c1.3,0,2.5,0.3,3.5,1c1,0.7,1.8,1.7,2.4,3s0.9,2.8,0.9,4.6c0,1.8-0.3,3.3-0.9,4.6s-1.4,2.3-2.4,3c-1,0.7-2.2,1-3.5,1
		C563.6,409,562.4,408.7,561.4,408z M568.1,405.2c0.8-1.1,1.2-2.7,1.2-4.8c0-2.1-0.4-3.7-1.2-4.8c-0.8-1.1-1.9-1.7-3.2-1.7
		c-1.4,0-2.4,0.6-3.3,1.7c-0.8,1.1-1.2,2.7-1.2,4.8c0,2.1,0.4,3.7,1.2,4.8c0.8,1.1,1.9,1.7,3.3,1.7
		C566.2,406.9,567.3,406.3,568.1,405.2z"/>
	<path d="M590.2,397.3c0.9,0.9,1.4,2.2,1.4,3.9v7.7h-2.2v-1.7c-0.4,0.6-0.9,1-1.6,1.4c-0.7,0.3-1.6,0.5-2.5,0.5
		c-1.4,0-2.6-0.3-3.4-1c-0.9-0.7-1.3-1.6-1.3-2.7s0.4-2,1.2-2.7c0.8-0.7,2.1-1,3.9-1h3.6v-0.5c0-1-0.3-1.8-0.9-2.3
		c-0.6-0.5-1.4-0.8-2.5-0.8c-0.8,0-1.5,0.1-2.2,0.4c-0.7,0.2-1.3,0.6-1.8,1l-1-1.7c0.7-0.5,1.4-0.9,2.4-1.2s1.9-0.4,2.9-0.4
		C587.9,396,589.3,396.4,590.2,397.3z M587.9,406.6c0.6-0.4,1.1-0.9,1.4-1.7v-1.8h-3.6c-2,0-2.9,0.7-2.9,2c0,0.6,0.2,1.1,0.7,1.5
		c0.5,0.4,1.2,0.6,2.1,0.6C586.5,407.2,587.3,407,587.9,406.6z"/>
	<path d="M606.5,392v16.8h-2.4v-14.7h-3.8V392H606.5z"/>
	<path d="M622,406.8v2.1h-12.1v-1.6l6.8-6.6c0.8-0.8,1.4-1.5,1.7-2.1c0.3-0.6,0.4-1.2,0.4-1.8c0-0.9-0.3-1.6-0.9-2.1
		c-0.6-0.5-1.5-0.7-2.7-0.7c-1.9,0-3.3,0.6-4.3,1.8l-1.6-1.4c0.7-0.8,1.5-1.4,2.6-1.9c1.1-0.4,2.3-0.7,3.6-0.7
		c1.8,0,3.2,0.4,4.2,1.3c1,0.8,1.6,2,1.6,3.4c0,0.9-0.2,1.7-0.6,2.5c-0.4,0.8-1.1,1.7-2.2,2.7l-5.1,4.9H622z"/>
	<path d="M627.2,408c-1-0.7-1.8-1.7-2.4-3c-0.6-1.3-0.9-2.8-0.9-4.6c0-1.8,0.3-3.3,0.9-4.6c0.6-1.3,1.4-2.3,2.4-3c1-0.7,2.2-1,3.5-1
		c1.3,0,2.5,0.3,3.5,1c1,0.7,1.8,1.7,2.4,3s0.9,2.8,0.9,4.6c0,1.8-0.3,3.3-0.9,4.6s-1.4,2.3-2.4,3c-1,0.7-2.2,1-3.5,1
		C629.4,409,628.2,408.7,627.2,408z M634,405.2c0.8-1.1,1.2-2.7,1.2-4.8c0-2.1-0.4-3.7-1.2-4.8c-0.8-1.1-1.9-1.7-3.2-1.7
		c-1.4,0-2.4,0.6-3.3,1.7c-0.8,1.1-1.2,2.7-1.2,4.8c0,2.1,0.4,3.7,1.2,4.8c0.8,1.1,1.9,1.7,3.3,1.7
		C632.1,406.9,633.2,406.3,634,405.2z"/>
</g>
<g class="st3">
	<path d="M559.2,460v1.6l-6.8,15.2h-2.5l6.6-14.7h-7.7v3h-2.3V460H559.2z"/>
	<path d="M571,468.1c1.1,0.9,1.7,2.1,1.7,3.7c0,1-0.2,1.9-0.7,2.7c-0.5,0.8-1.2,1.4-2.1,1.9s-2.1,0.7-3.5,0.7
		c-1.2,0-2.3-0.2-3.4-0.5c-1.1-0.4-2-0.9-2.7-1.5l1.1-1.9c0.6,0.5,1.3,1,2.2,1.3c0.9,0.3,1.8,0.5,2.8,0.5c1.3,0,2.2-0.3,2.9-0.8
		c0.7-0.5,1-1.3,1-2.2c0-1-0.4-1.8-1.2-2.3c-0.8-0.5-2.1-0.8-3.9-0.8h-3.8l0.9-8.8h9.5v2.1h-7.5l-0.5,4.6h1.9
		C568.1,466.7,569.9,467.2,571,468.1z"/>
	<path d="M590.8,465.3c0.9,0.9,1.4,2.2,1.4,3.9v7.7h-2.2v-1.7c-0.4,0.6-0.9,1-1.6,1.4c-0.7,0.3-1.6,0.5-2.5,0.5
		c-1.4,0-2.6-0.3-3.4-1c-0.9-0.7-1.3-1.6-1.3-2.7s0.4-2,1.2-2.7c0.8-0.7,2.1-1,3.9-1h3.6v-0.5c0-1-0.3-1.8-0.9-2.3
		c-0.6-0.5-1.4-0.8-2.5-0.8c-0.8,0-1.5,0.1-2.2,0.4c-0.7,0.2-1.3,0.6-1.8,1l-1-1.7c0.7-0.5,1.4-0.9,2.4-1.2s1.9-0.4,2.9-0.4
		C588.5,464,589.9,464.4,590.8,465.3z M588.5,474.6c0.6-0.4,1.1-0.9,1.4-1.7v-1.8h-3.6c-2,0-2.9,0.7-2.9,2c0,0.6,0.2,1.1,0.7,1.5
		c0.5,0.4,1.2,0.6,2.1,0.6C587.1,475.2,587.9,475,588.5,474.6z"/>
	<path d="M607.1,460v16.8h-2.4v-14.7H601V460H607.1z"/>
	<path d="M616,460v16.8h-2.4v-14.7h-3.8V460H616z"/>
	<path d="M632.2,469.6c0.5,0.7,0.8,1.5,0.8,2.5c0,1-0.3,1.9-0.8,2.6s-1.3,1.3-2.3,1.7c-1,0.4-2.2,0.6-3.6,0.6
		c-1.3,0-2.5-0.2-3.5-0.6c-1-0.4-1.8-1-2.3-1.7c-0.5-0.7-0.8-1.6-0.8-2.6c0-1,0.3-1.8,0.8-2.5c0.5-0.7,1.2-1.2,2.2-1.6
		c-0.8-0.4-1.4-0.9-1.8-1.5c-0.4-0.6-0.6-1.3-0.6-2.2c0-0.9,0.3-1.7,0.8-2.4c0.5-0.7,1.2-1.2,2.1-1.6c0.9-0.4,2-0.6,3.2-0.6
		c1.2,0,2.3,0.2,3.2,0.6c0.9,0.4,1.6,0.9,2.1,1.6c0.5,0.7,0.8,1.5,0.8,2.4c0,0.8-0.2,1.5-0.6,2.1c-0.4,0.6-1,1.1-1.8,1.5
		C630.9,468.4,631.7,468.9,632.2,469.6z M629.4,474.3c0.8-0.6,1.2-1.3,1.2-2.2c0-0.9-0.4-1.7-1.2-2.2c-0.8-0.5-1.8-0.8-3.1-0.8
		c-1.3,0-2.4,0.3-3.1,0.8c-0.8,0.5-1.1,1.3-1.1,2.2c0,0.9,0.4,1.7,1.1,2.2c0.8,0.6,1.8,0.8,3.1,0.8
		C627.6,475.1,628.6,474.8,629.4,474.3z M623.6,462.5c-0.7,0.5-1,1.1-1,2s0.3,1.5,1,2c0.6,0.5,1.5,0.7,2.7,0.7
		c1.2,0,2.1-0.2,2.7-0.7c0.7-0.5,1-1.1,1-2s-0.3-1.5-1-2c-0.7-0.5-1.6-0.7-2.7-0.7C625.1,461.8,624.2,462,623.6,462.5z"/>
</g>
<g class="st3">
	<path d="M992,190c1.2,1.5,1.8,3.5,1.8,6.2c0,1.9-0.3,3.5-1,4.8c-0.7,1.3-1.6,2.3-2.8,3c-1.2,0.7-2.6,1-4.2,1
		c-0.8,0-1.6-0.1-2.3-0.3c-0.7-0.2-1.3-0.4-1.9-0.7l0.9-1.9c0.8,0.5,1.9,0.8,3.2,0.8c1.7,0,3.1-0.5,4.1-1.6s1.5-2.7,1.5-4.7V196
		c-0.5,0.7-1.1,1.3-2,1.6c-0.8,0.4-1.8,0.6-2.9,0.6c-1.1,0-2.1-0.2-3-0.6s-1.6-1-2-1.8s-0.7-1.7-0.7-2.7c0-1.1,0.3-2,0.8-2.8
		s1.2-1.4,2.1-1.9c0.9-0.4,1.9-0.7,3-0.7C989.1,187.8,990.8,188.6,992,190z M989.1,195.9c0.6-0.3,1.1-0.7,1.4-1.2
		c0.3-0.5,0.5-1,0.5-1.7c0-0.6-0.2-1.1-0.5-1.6s-0.8-0.9-1.4-1.2s-1.3-0.4-2.2-0.4c-1.1,0-2,0.3-2.7,0.9s-1,1.4-1,2.4
		c0,1,0.3,1.8,1,2.4s1.6,0.9,2.8,0.9C987.8,196.3,988.5,196.2,989.1,195.9z"/>
	<path d="M999.5,204c-1-0.7-1.8-1.7-2.4-3c-0.6-1.3-0.9-2.8-0.9-4.6c0-1.8,0.3-3.3,0.9-4.6c0.6-1.3,1.4-2.3,2.4-3c1-0.7,2.2-1,3.5-1
		c1.3,0,2.5,0.3,3.5,1c1,0.7,1.8,1.7,2.4,3s0.9,2.8,0.9,4.6c0,1.8-0.3,3.3-0.9,4.6s-1.4,2.3-2.4,3c-1,0.7-2.2,1-3.5,1
		C1001.7,205,1000.5,204.7,999.5,204z M1006.3,201.2c0.8-1.1,1.2-2.7,1.2-4.8c0-2.1-0.4-3.7-1.2-4.8c-0.8-1.1-1.9-1.7-3.2-1.7
		c-1.4,0-2.4,0.6-3.3,1.7c-0.8,1.1-1.2,2.7-1.2,4.8c0,2.1,0.4,3.7,1.2,4.8c0.8,1.1,1.9,1.7,3.3,1.7
		C1004.4,202.9,1005.5,202.3,1006.3,201.2z"/>
	<path d="M1028.4,193.3c0.9,0.9,1.4,2.2,1.4,3.9v7.7h-2.2v-1.7c-0.4,0.6-0.9,1-1.6,1.4c-0.7,0.3-1.6,0.5-2.5,0.5
		c-1.4,0-2.6-0.3-3.4-1c-0.9-0.7-1.3-1.6-1.3-2.7s0.4-2,1.2-2.7s2.1-1,3.9-1h3.6v-0.5c0-1-0.3-1.8-0.9-2.3c-0.6-0.5-1.4-0.8-2.5-0.8
		c-0.8,0-1.5,0.1-2.2,0.4c-0.7,0.2-1.3,0.6-1.8,1l-1-1.7c0.7-0.5,1.4-0.9,2.4-1.2s1.9-0.4,2.9-0.4
		C1026.1,192,1027.4,192.4,1028.4,193.3z M1026.1,202.6c0.6-0.4,1.1-0.9,1.4-1.7v-1.8h-3.6c-2,0-2.9,0.7-2.9,2
		c0,0.6,0.2,1.1,0.7,1.5c0.5,0.4,1.2,0.6,2.1,0.6C1024.7,203.2,1025.4,203,1026.1,202.6z"/>
	<path d="M1044.7,188v16.8h-2.4v-14.7h-3.8V188H1044.7z"/>
	<path d="M1058.6,195.3c0.9,0.4,1.6,1,2.1,1.8c0.5,0.8,0.7,1.7,0.7,2.7c0,1.1-0.3,2-0.8,2.8c-0.5,0.8-1.2,1.4-2.1,1.9
		c-0.9,0.4-1.9,0.7-3,0.7c-2.3,0-4-0.7-5.2-2.2c-1.2-1.5-1.8-3.5-1.8-6.2c0-1.9,0.3-3.5,1-4.8c0.7-1.3,1.6-2.3,2.8-3
		c1.2-0.7,2.6-1,4.2-1c0.8,0,1.6,0.1,2.3,0.3s1.3,0.4,1.9,0.7l-0.9,1.9c-0.8-0.5-1.9-0.8-3.2-0.8c-1.7,0-3.1,0.5-4.1,1.6
		s-1.5,2.7-1.5,4.7c0,0.3,0,0.5,0,0.6c0.5-0.7,1.1-1.3,2-1.6c0.8-0.4,1.8-0.6,2.8-0.6C1056.7,194.6,1057.7,194.8,1058.6,195.3z
		 M1058,202.2c0.7-0.6,1-1.4,1-2.4s-0.3-1.8-1-2.4c-0.7-0.6-1.6-0.9-2.8-0.9c-0.8,0-1.4,0.1-2,0.4s-1,0.7-1.4,1.2
		c-0.3,0.5-0.5,1-0.5,1.7c0,0.6,0.2,1.1,0.5,1.6s0.8,0.9,1.4,1.2c0.6,0.3,1.3,0.4,2.1,0.4C1056.4,203.1,1057.3,202.8,1058,202.2z"/>
	<path d="M1066.5,204c-1-0.7-1.8-1.7-2.4-3c-0.6-1.3-0.9-2.8-0.9-4.6c0-1.8,0.3-3.3,0.9-4.6c0.6-1.3,1.4-2.3,2.4-3
		c1-0.7,2.2-1,3.5-1c1.3,0,2.5,0.3,3.5,1c1,0.7,1.8,1.7,2.4,3s0.9,2.8,0.9,4.6c0,1.8-0.3,3.3-0.9,4.6s-1.4,2.3-2.4,3
		c-1,0.7-2.2,1-3.5,1C1068.7,205,1067.5,204.7,1066.5,204z M1073.2,201.2c0.8-1.1,1.2-2.7,1.2-4.8c0-2.1-0.4-3.7-1.2-4.8
		c-0.8-1.1-1.9-1.7-3.2-1.7c-1.4,0-2.4,0.6-3.3,1.7c-0.8,1.1-1.2,2.7-1.2,4.8c0,2.1,0.4,3.7,1.2,4.8c0.8,1.1,1.9,1.7,3.3,1.7
		C1071.4,202.9,1072.4,202.3,1073.2,201.2z"/>
</g>
<g class="st3">
	<path d="M992,258c1.2,1.5,1.8,3.5,1.8,6.2c0,1.9-0.3,3.5-1,4.8c-0.7,1.3-1.6,2.3-2.8,3c-1.2,0.7-2.6,1-4.2,1
		c-0.8,0-1.6-0.1-2.3-0.3c-0.7-0.2-1.3-0.4-1.9-0.7l0.9-1.9c0.8,0.5,1.9,0.8,3.2,0.8c1.7,0,3.1-0.5,4.1-1.6s1.5-2.7,1.5-4.7V264
		c-0.5,0.7-1.1,1.3-2,1.6c-0.8,0.4-1.8,0.6-2.9,0.6c-1.1,0-2.1-0.2-3-0.6s-1.6-1-2-1.8s-0.7-1.7-0.7-2.7c0-1.1,0.3-2,0.8-2.8
		s1.2-1.4,2.1-1.9c0.9-0.4,1.9-0.7,3-0.7C989.1,255.8,990.8,256.6,992,258z M989.1,263.9c0.6-0.3,1.1-0.7,1.4-1.2
		c0.3-0.5,0.5-1,0.5-1.7c0-0.6-0.2-1.1-0.5-1.6s-0.8-0.9-1.4-1.2s-1.3-0.4-2.2-0.4c-1.1,0-2,0.3-2.7,0.9s-1,1.4-1,2.4
		c0,1,0.3,1.8,1,2.4s1.6,0.9,2.8,0.9C987.8,264.3,988.5,264.2,989.1,263.9z"/>
	<path d="M999.5,272c-1-0.7-1.8-1.7-2.4-3c-0.6-1.3-0.9-2.8-0.9-4.6c0-1.8,0.3-3.3,0.9-4.6c0.6-1.3,1.4-2.3,2.4-3c1-0.7,2.2-1,3.5-1
		c1.3,0,2.5,0.3,3.5,1c1,0.7,1.8,1.7,2.4,3s0.9,2.8,0.9,4.6c0,1.8-0.3,3.3-0.9,4.6s-1.4,2.3-2.4,3c-1,0.7-2.2,1-3.5,1
		C1001.7,273,1000.5,272.7,999.5,272z M1006.3,269.2c0.8-1.1,1.2-2.7,1.2-4.8c0-2.1-0.4-3.7-1.2-4.8c-0.8-1.1-1.9-1.7-3.2-1.7
		c-1.4,0-2.4,0.6-3.3,1.7c-0.8,1.1-1.2,2.7-1.2,4.8c0,2.1,0.4,3.7,1.2,4.8c0.8,1.1,1.9,1.7,3.3,1.7
		C1004.4,270.9,1005.5,270.3,1006.3,269.2z"/>
	<path d="M1028.4,261.3c0.9,0.9,1.4,2.2,1.4,3.9v7.7h-2.2v-1.7c-0.4,0.6-0.9,1-1.6,1.4c-0.7,0.3-1.6,0.5-2.5,0.5
		c-1.4,0-2.6-0.3-3.4-1c-0.9-0.7-1.3-1.6-1.3-2.7s0.4-2,1.2-2.7s2.1-1,3.9-1h3.6v-0.5c0-1-0.3-1.8-0.9-2.3c-0.6-0.5-1.4-0.8-2.5-0.8
		c-0.8,0-1.5,0.1-2.2,0.4c-0.7,0.2-1.3,0.6-1.8,1l-1-1.7c0.7-0.5,1.4-0.9,2.4-1.2s1.9-0.4,2.9-0.4
		C1026.1,260,1027.4,260.4,1028.4,261.3z M1026.1,270.6c0.6-0.4,1.1-0.9,1.4-1.7v-1.8h-3.6c-2,0-2.9,0.7-2.9,2
		c0,0.6,0.2,1.1,0.7,1.5c0.5,0.4,1.2,0.6,2.1,0.6C1024.7,271.2,1025.4,271,1026.1,270.6z"/>
	<path d="M1044.7,256v16.8h-2.4v-14.7h-3.8V256H1044.7z"/>
	<path d="M1058.6,263.3c0.9,0.4,1.6,1,2.1,1.8c0.5,0.8,0.7,1.7,0.7,2.7c0,1.1-0.3,2-0.8,2.8c-0.5,0.8-1.2,1.4-2.1,1.9
		c-0.9,0.4-1.9,0.7-3,0.7c-2.3,0-4-0.7-5.2-2.2c-1.2-1.5-1.8-3.5-1.8-6.2c0-1.9,0.3-3.5,1-4.8c0.7-1.3,1.6-2.3,2.8-3
		c1.2-0.7,2.6-1,4.2-1c0.8,0,1.6,0.1,2.3,0.3s1.3,0.4,1.9,0.7l-0.9,1.9c-0.8-0.5-1.9-0.8-3.2-0.8c-1.7,0-3.1,0.5-4.1,1.6
		s-1.5,2.7-1.5,4.7c0,0.3,0,0.5,0,0.6c0.5-0.7,1.1-1.3,2-1.6c0.8-0.4,1.8-0.6,2.8-0.6C1056.7,262.6,1057.7,262.8,1058.6,263.3z
		 M1058,270.2c0.7-0.6,1-1.4,1-2.4s-0.3-1.8-1-2.4c-0.7-0.6-1.6-0.9-2.8-0.9c-0.8,0-1.4,0.1-2,0.4s-1,0.7-1.4,1.2
		c-0.3,0.5-0.5,1-0.5,1.7c0,0.6,0.2,1.1,0.5,1.6s0.8,0.9,1.4,1.2c0.6,0.3,1.3,0.4,2.1,0.4C1056.4,271.1,1057.3,270.8,1058,270.2z"/>
	<path d="M1066.5,272c-1-0.7-1.8-1.7-2.4-3c-0.6-1.3-0.9-2.8-0.9-4.6c0-1.8,0.3-3.3,0.9-4.6c0.6-1.3,1.4-2.3,2.4-3
		c1-0.7,2.2-1,3.5-1c1.3,0,2.5,0.3,3.5,1c1,0.7,1.8,1.7,2.4,3s0.9,2.8,0.9,4.6c0,1.8-0.3,3.3-0.9,4.6s-1.4,2.3-2.4,3
		c-1,0.7-2.2,1-3.5,1C1068.7,273,1067.5,272.7,1066.5,272z M1073.2,269.2c0.8-1.1,1.2-2.7,1.2-4.8c0-2.1-0.4-3.7-1.2-4.8
		c-0.8-1.1-1.9-1.7-3.2-1.7c-1.4,0-2.4,0.6-3.3,1.7c-0.8,1.1-1.2,2.7-1.2,4.8c0,2.1,0.4,3.7,1.2,4.8c0.8,1.1,1.9,1.7,3.3,1.7
		C1071.4,270.9,1072.4,270.3,1073.2,269.2z"/>
</g>
<g class="st3">
	<path d="M994.1,333.6c0.5,0.7,0.8,1.5,0.8,2.5c0,1-0.3,1.9-0.8,2.6s-1.3,1.3-2.3,1.7c-1,0.4-2.2,0.6-3.6,0.6
		c-1.3,0-2.5-0.2-3.5-0.6c-1-0.4-1.8-1-2.3-1.7s-0.8-1.6-0.8-2.6c0-1,0.3-1.8,0.8-2.5c0.5-0.7,1.2-1.2,2.2-1.6
		c-0.8-0.4-1.4-0.9-1.8-1.5c-0.4-0.6-0.6-1.3-0.6-2.2c0-0.9,0.3-1.7,0.8-2.4c0.5-0.7,1.2-1.2,2.1-1.6c0.9-0.4,2-0.6,3.2-0.6
		c1.2,0,2.3,0.2,3.2,0.6c0.9,0.4,1.6,0.9,2.1,1.6c0.5,0.7,0.8,1.5,0.8,2.4c0,0.8-0.2,1.5-0.6,2.1c-0.4,0.6-1,1.1-1.8,1.5
		C992.8,332.4,993.5,332.9,994.1,333.6z M991.3,338.3c0.8-0.6,1.2-1.3,1.2-2.2c0-0.9-0.4-1.7-1.2-2.2c-0.8-0.5-1.8-0.8-3.1-0.8
		s-2.4,0.3-3.1,0.8s-1.1,1.3-1.1,2.2c0,0.9,0.4,1.7,1.1,2.2s1.8,0.8,3.1,0.8S990.5,338.8,991.3,338.3z M985.4,326.5
		c-0.7,0.5-1,1.1-1,2s0.3,1.5,1,2c0.6,0.5,1.5,0.7,2.7,0.7c1.2,0,2.1-0.2,2.7-0.7c0.7-0.5,1-1.1,1-2s-0.3-1.5-1-2
		c-0.7-0.5-1.6-0.7-2.7-0.7S986.1,326,985.4,326.5z"/>
	<path d="M1000.4,340c-1-0.7-1.8-1.7-2.4-3s-0.9-2.8-0.9-4.6c0-1.8,0.3-3.3,0.9-4.6s1.4-2.3,2.4-3c1-0.7,2.2-1,3.5-1
		c1.3,0,2.5,0.3,3.5,1c1,0.7,1.8,1.7,2.4,3s0.9,2.8,0.9,4.6c0,1.8-0.3,3.3-0.9,4.6s-1.4,2.3-2.4,3c-1,0.7-2.2,1-3.5,1
		C1002.6,341,1001.4,340.7,1000.4,340z M1007.1,337.2c0.8-1.1,1.2-2.7,1.2-4.8c0-2.1-0.4-3.7-1.2-4.8c-0.8-1.1-1.9-1.7-3.2-1.7
		c-1.4,0-2.4,0.6-3.3,1.7c-0.8,1.1-1.2,2.7-1.2,4.8c0,2.1,0.4,3.7,1.2,4.8c0.8,1.1,1.9,1.7,3.3,1.7
		C1005.2,338.9,1006.3,338.3,1007.1,337.2z"/>
	<path d="M1029.2,329.3c0.9,0.9,1.4,2.2,1.4,3.9v7.7h-2.2v-1.7c-0.4,0.6-0.9,1-1.6,1.4c-0.7,0.3-1.6,0.5-2.5,0.5
		c-1.4,0-2.6-0.3-3.4-1c-0.9-0.7-1.3-1.6-1.3-2.7s0.4-2,1.2-2.7c0.8-0.7,2.1-1,3.9-1h3.6v-0.5c0-1-0.3-1.8-0.9-2.3
		c-0.6-0.5-1.4-0.8-2.5-0.8c-0.8,0-1.5,0.1-2.2,0.4c-0.7,0.2-1.3,0.6-1.8,1l-1-1.7c0.7-0.5,1.4-0.9,2.4-1.2s1.9-0.4,2.9-0.4
		C1026.9,328,1028.3,328.4,1029.2,329.3z M1026.9,338.6c0.6-0.4,1.1-0.9,1.4-1.7v-1.8h-3.6c-2,0-2.9,0.7-2.9,2
		c0,0.6,0.2,1.1,0.7,1.5c0.5,0.4,1.2,0.6,2.1,0.6S1026.3,339,1026.9,338.6z"/>
	<path d="M1045.5,324v16.8h-2.4v-14.7h-3.8V324H1045.5z"/>
	<path d="M1061,338.8v2.1h-12.1v-1.6l6.8-6.6c0.8-0.8,1.4-1.5,1.7-2.1s0.4-1.2,0.4-1.8c0-0.9-0.3-1.6-0.9-2.1s-1.5-0.7-2.7-0.7
		c-1.9,0-3.3,0.6-4.3,1.8l-1.6-1.4c0.7-0.8,1.5-1.4,2.6-1.9c1.1-0.4,2.3-0.7,3.6-0.7c1.8,0,3.2,0.4,4.2,1.3c1,0.8,1.6,2,1.6,3.4
		c0,0.9-0.2,1.7-0.6,2.5c-0.4,0.8-1.1,1.7-2.2,2.7l-5.1,4.9H1061z"/>
	<path d="M1066.2,340c-1-0.7-1.8-1.7-2.4-3s-0.9-2.8-0.9-4.6c0-1.8,0.3-3.3,0.9-4.6s1.4-2.3,2.4-3c1-0.7,2.2-1,3.5-1
		c1.3,0,2.5,0.3,3.5,1c1,0.7,1.8,1.7,2.4,3s0.9,2.8,0.9,4.6c0,1.8-0.3,3.3-0.9,4.6s-1.4,2.3-2.4,3c-1,0.7-2.2,1-3.5,1
		C1068.4,341,1067.2,340.7,1066.2,340z M1073,337.2c0.8-1.1,1.2-2.7,1.2-4.8c0-2.1-0.4-3.7-1.2-4.8c-0.8-1.1-1.9-1.7-3.2-1.7
		c-1.4,0-2.4,0.6-3.3,1.7c-0.8,1.1-1.2,2.7-1.2,4.8c0,2.1,0.4,3.7,1.2,4.8c0.8,1.1,1.9,1.7,3.3,1.7
		C1071.1,338.9,1072.2,338.3,1073,337.2z"/>
</g>
<g class="st3">
	<path d="M992.1,399.3c0.9,0.4,1.6,1,2.1,1.8c0.5,0.8,0.7,1.7,0.7,2.7c0,1.1-0.3,2-0.8,2.8c-0.5,0.8-1.2,1.4-2.1,1.9s-1.9,0.7-3,0.7
		c-2.3,0-4-0.7-5.2-2.2c-1.2-1.5-1.8-3.5-1.8-6.2c0-1.9,0.3-3.5,1-4.8c0.7-1.3,1.6-2.3,2.8-3c1.2-0.7,2.6-1,4.2-1
		c0.8,0,1.6,0.1,2.3,0.3c0.7,0.2,1.3,0.4,1.9,0.7l-0.9,1.9c-0.8-0.5-1.9-0.8-3.2-0.8c-1.7,0-3.1,0.5-4.1,1.6c-1,1.1-1.5,2.7-1.5,4.7
		c0,0.3,0,0.5,0,0.6c0.5-0.7,1.1-1.3,2-1.6c0.8-0.4,1.8-0.6,2.8-0.6C990.3,398.6,991.2,398.8,992.1,399.3z M991.5,406.2
		c0.7-0.6,1-1.4,1-2.4s-0.3-1.8-1-2.4s-1.6-0.9-2.8-0.9c-0.8,0-1.4,0.1-2,0.4s-1,0.7-1.4,1.2c-0.3,0.5-0.5,1-0.5,1.7
		c0,0.6,0.2,1.1,0.5,1.6c0.3,0.5,0.8,0.9,1.4,1.2c0.6,0.3,1.3,0.4,2.1,0.4C990,407.1,990.9,406.8,991.5,406.2z"/>
	<path d="M1006.8,400.1c1.1,0.9,1.7,2.1,1.7,3.7c0,1-0.2,1.9-0.7,2.7c-0.5,0.8-1.2,1.4-2.1,1.9s-2.1,0.7-3.5,0.7
		c-1.2,0-2.3-0.2-3.4-0.5c-1.1-0.4-2-0.9-2.7-1.5l1.1-1.9c0.6,0.5,1.3,1,2.2,1.3s1.8,0.5,2.8,0.5c1.3,0,2.2-0.3,2.9-0.8s1-1.3,1-2.2
		c0-1-0.4-1.8-1.2-2.3c-0.8-0.5-2.1-0.8-3.9-0.8h-3.8l0.9-8.8h9.5v2.1h-7.5l-0.5,4.6h1.9C1003.9,398.7,1005.7,399.2,1006.8,400.1z"
		/>
	<path d="M1026.6,397.3c0.9,0.9,1.4,2.2,1.4,3.9v7.7h-2.2v-1.7c-0.4,0.6-0.9,1-1.6,1.4c-0.7,0.3-1.6,0.5-2.5,0.5
		c-1.4,0-2.6-0.3-3.4-1c-0.9-0.7-1.3-1.6-1.3-2.7s0.4-2,1.2-2.7c0.8-0.7,2.1-1,3.9-1h3.6v-0.5c0-1-0.3-1.8-0.9-2.3
		c-0.6-0.5-1.4-0.8-2.5-0.8c-0.8,0-1.5,0.1-2.2,0.4s-1.3,0.6-1.8,1l-1-1.7c0.7-0.5,1.4-0.9,2.4-1.2s1.9-0.4,2.9-0.4
		C1024.4,396,1025.7,396.4,1026.6,397.3z M1024.4,406.6c0.6-0.4,1.1-0.9,1.4-1.7v-1.8h-3.6c-2,0-2.9,0.7-2.9,2
		c0,0.6,0.2,1.1,0.7,1.5s1.2,0.6,2.1,0.6C1023,407.2,1023.7,407,1024.4,406.6z"/>
	<path d="M1043,392v16.8h-2.4v-14.7h-3.8V392H1043z"/>
	<path d="M1050,408c-1-0.7-1.8-1.7-2.4-3c-0.6-1.3-0.9-2.8-0.9-4.6c0-1.8,0.3-3.3,0.9-4.6c0.6-1.3,1.4-2.3,2.4-3c1-0.7,2.2-1,3.5-1
		c1.3,0,2.5,0.3,3.5,1c1,0.7,1.8,1.7,2.4,3s0.9,2.8,0.9,4.6c0,1.8-0.3,3.3-0.9,4.6s-1.4,2.3-2.4,3c-1,0.7-2.2,1-3.5,1
		C1052.2,409,1051,408.7,1050,408z M1056.7,405.2c0.8-1.1,1.2-2.7,1.2-4.8c0-2.1-0.4-3.7-1.2-4.8c-0.8-1.1-1.9-1.7-3.2-1.7
		c-1.4,0-2.4,0.6-3.3,1.7c-0.8,1.1-1.2,2.7-1.2,4.8c0,2.1,0.4,3.7,1.2,4.8c0.8,1.1,1.9,1.7,3.3,1.7
		C1054.8,406.9,1055.9,406.3,1056.7,405.2z"/>
	<path d="M1066,408c-1-0.7-1.8-1.7-2.4-3c-0.6-1.3-0.9-2.8-0.9-4.6c0-1.8,0.3-3.3,0.9-4.6c0.6-1.3,1.4-2.3,2.4-3c1-0.7,2.2-1,3.5-1
		c1.3,0,2.5,0.3,3.5,1c1,0.7,1.8,1.7,2.4,3s0.9,2.8,0.9,4.6c0,1.8-0.3,3.3-0.9,4.6s-1.4,2.3-2.4,3c-1,0.7-2.2,1-3.5,1
		C1068.2,409,1067,408.7,1066,408z M1072.7,405.2c0.8-1.1,1.2-2.7,1.2-4.8c0-2.1-0.4-3.7-1.2-4.8c-0.8-1.1-1.9-1.7-3.2-1.7
		c-1.4,0-2.4,0.6-3.3,1.7c-0.8,1.1-1.2,2.7-1.2,4.8c0,2.1,0.4,3.7,1.2,4.8c0.8,1.1,1.9,1.7,3.3,1.7
		C1070.8,406.9,1071.9,406.3,1072.7,405.2z"/>
</g>
<g class="st3">
	<path d="M996.7,468.1c1.1,0.9,1.7,2.1,1.7,3.7c0,1-0.2,1.9-0.7,2.7c-0.5,0.8-1.2,1.4-2.1,1.9s-2.1,0.7-3.5,0.7
		c-1.2,0-2.3-0.2-3.4-0.5c-1.1-0.4-2-0.9-2.7-1.5l1.1-1.9c0.6,0.5,1.3,1,2.2,1.3s1.8,0.5,2.8,0.5c1.3,0,2.2-0.3,2.9-0.8s1-1.3,1-2.2
		c0-1-0.4-1.8-1.2-2.3c-0.8-0.5-2.1-0.8-3.9-0.8h-3.8l0.9-8.8h9.5v2.1H990l-0.5,4.6h1.9C993.8,466.7,995.6,467.2,996.7,468.1z"/>
	<path d="M1012.9,469.6c0.5,0.7,0.8,1.5,0.8,2.5c0,1-0.3,1.9-0.8,2.6c-0.5,0.7-1.3,1.3-2.3,1.7c-1,0.4-2.2,0.6-3.6,0.6
		c-1.3,0-2.5-0.2-3.5-0.6c-1-0.4-1.8-1-2.3-1.7s-0.8-1.6-0.8-2.6c0-1,0.3-1.8,0.8-2.5c0.5-0.7,1.2-1.2,2.2-1.6
		c-0.8-0.4-1.4-0.9-1.8-1.5c-0.4-0.6-0.6-1.3-0.6-2.2c0-0.9,0.3-1.7,0.8-2.4c0.5-0.7,1.2-1.2,2.1-1.6c0.9-0.4,2-0.6,3.2-0.6
		c1.2,0,2.3,0.2,3.2,0.6c0.9,0.4,1.6,0.9,2.1,1.6c0.5,0.7,0.8,1.5,0.8,2.4c0,0.8-0.2,1.5-0.6,2.1c-0.4,0.6-1,1.1-1.8,1.5
		C1011.6,468.4,1012.4,468.9,1012.9,469.6z M1010.1,474.3c0.8-0.6,1.2-1.3,1.2-2.2c0-0.9-0.4-1.7-1.2-2.2s-1.8-0.8-3.1-0.8
		s-2.4,0.3-3.1,0.8c-0.8,0.5-1.1,1.3-1.1,2.2c0,0.9,0.4,1.7,1.1,2.2c0.8,0.6,1.8,0.8,3.1,0.8S1009.3,474.8,1010.1,474.3z
		 M1004.3,462.5c-0.7,0.5-1,1.1-1,2s0.3,1.5,1,2c0.6,0.5,1.5,0.7,2.7,0.7c1.2,0,2.1-0.2,2.7-0.7c0.7-0.5,1-1.1,1-2s-0.3-1.5-1-2
		c-0.7-0.5-1.6-0.7-2.7-0.7C1005.8,461.8,1004.9,462,1004.3,462.5z"/>
	<path d="M1032,465.3c0.9,0.9,1.4,2.2,1.4,3.9v7.7h-2.2v-1.7c-0.4,0.6-0.9,1-1.6,1.4c-0.7,0.3-1.6,0.5-2.5,0.5c-1.4,0-2.6-0.3-3.4-1
		c-0.9-0.7-1.3-1.6-1.3-2.7s0.4-2,1.2-2.7c0.8-0.7,2.1-1,3.9-1h3.6v-0.5c0-1-0.3-1.8-0.9-2.3c-0.6-0.5-1.4-0.8-2.5-0.8
		c-0.8,0-1.5,0.1-2.2,0.4c-0.7,0.2-1.3,0.6-1.8,1l-1-1.7c0.7-0.5,1.4-0.9,2.4-1.2s1.9-0.4,2.9-0.4
		C1029.7,464,1031.1,464.4,1032,465.3z M1029.7,474.6c0.6-0.4,1.1-0.9,1.4-1.7v-1.8h-3.6c-2,0-2.9,0.7-2.9,2c0,0.6,0.2,1.1,0.7,1.5
		s1.2,0.6,2.1,0.6C1028.3,475.2,1029.1,475,1029.7,474.6z"/>
	<path d="M1053.8,462c1.2,1.5,1.8,3.5,1.8,6.2c0,1.9-0.3,3.5-1,4.8s-1.6,2.3-2.8,3c-1.2,0.7-2.6,1-4.2,1c-0.8,0-1.6-0.1-2.3-0.3
		c-0.7-0.2-1.3-0.4-1.9-0.7l0.9-1.9c0.8,0.5,1.9,0.8,3.2,0.8c1.7,0,3.1-0.5,4.1-1.6c1-1.1,1.5-2.7,1.5-4.7V468
		c-0.5,0.7-1.1,1.3-2,1.6s-1.8,0.6-2.9,0.6c-1.1,0-2.1-0.2-3-0.6c-0.9-0.4-1.6-1-2-1.8s-0.7-1.7-0.7-2.7c0-1.1,0.3-2,0.8-2.8
		c0.5-0.8,1.2-1.4,2.1-1.9c0.9-0.4,1.9-0.7,3-0.7C1050.8,459.8,1052.6,460.6,1053.8,462z M1050.8,467.9c0.6-0.3,1.1-0.7,1.4-1.2
		c0.3-0.5,0.5-1,0.5-1.7c0-0.6-0.2-1.1-0.5-1.6c-0.3-0.5-0.8-0.9-1.4-1.2c-0.6-0.3-1.3-0.4-2.2-0.4c-1.1,0-2,0.3-2.7,0.9
		s-1,1.4-1,2.4c0,1,0.3,1.8,1,2.4c0.7,0.6,1.6,0.9,2.8,0.9C1049.5,468.3,1050.2,468.2,1050.8,467.9z"/>
	<path d="M1061.2,476c-1-0.7-1.8-1.7-2.4-3s-0.9-2.8-0.9-4.6c0-1.8,0.3-3.3,0.9-4.6s1.4-2.3,2.4-3c1-0.7,2.2-1,3.5-1
		c1.3,0,2.5,0.3,3.5,1c1,0.7,1.8,1.7,2.4,3s0.9,2.8,0.9,4.6c0,1.8-0.3,3.3-0.9,4.6s-1.4,2.3-2.4,3c-1,0.7-2.2,1-3.5,1
		C1063.5,477,1062.3,476.7,1061.2,476z M1068,473.2c0.8-1.1,1.2-2.7,1.2-4.8c0-2.1-0.4-3.7-1.2-4.8c-0.8-1.1-1.9-1.7-3.2-1.7
		c-1.4,0-2.4,0.6-3.3,1.7c-0.8,1.1-1.2,2.7-1.2,4.8c0,2.1,0.4,3.7,1.2,4.8c0.8,1.1,1.9,1.7,3.3,1.7
		C1066.1,474.9,1067.2,474.3,1068,473.2z"/>
</g>
</svg>
