<?xml version="1.0" encoding="utf-8"?>
<!-- Generator: Adobe Illustrator 23.1.1, SVG Export Plug-In . SVG Version: 6.00 Build 0)  -->
<svg version="1.1" id="Camada_1" xmlns="http://www.w3.org/2000/svg" xmlns:xlink="http://www.w3.org/1999/xlink" x="0px" y="0px"
	 viewBox="0 0 1256.4 572.3" style="enable-background:new 0 0 1256.4 572.3;" xml:space="preserve">
<style type="text/css">
	.st0{fill:#FFF9DE;}
	.st1{fill:none;stroke:#F28D47;stroke-width:2;stroke-miterlimit:10;}
	.st2{fill:#904B27;}
	.st3{enable-background:new    ;}
	.st4{fill:#FFFFFF;}
	.st5{fill:none;stroke:#F28D47;stroke-width:3;stroke-miterlimit:10;}
	.st6{fill:none;}
</style>
<g>
	<rect x="19.7" y="161.6" class="st0" width="1210.6" height="73"/>
	<line class="st1" x1="23.1" y1="232.7" x2="1230.3" y2="232.7"/>
</g>
<g>
	<rect x="19.7" y="435.6" class="st0" width="1210.6" height="73"/>
	<line class="st1" x1="23.1" y1="506.7" x2="1230.3" y2="506.7"/>
</g>
<g>
	<rect x="19.7" y="299.6" class="st0" width="1210.6" height="73"/>
	<line class="st1" x1="23.1" y1="370.7" x2="1230.3" y2="370.7"/>
</g>
<g id="Y4zh0g.tif">
	
		<image style="overflow:visible;enable-background:new    ;" width="1176" height="933" id="Layer_0" xlink:href="3BD279FD3BE56C67.png"  transform="matrix(1.4688 0 0 1.4688 -3313.9556 257.7646)">
	</image>
</g>
<path class="st2" d="M1236.4,89.6c0.4-0.8,0.6-36.2,0.6-37.1V15.9H19v36.6c0,0.9,0.2,36.2,0.6,37.1H1236.4z"/>
<g class="st3">
	<path class="st4" d="M180.5,45.2v4.6h9.3v4.6h-9.3v7.2h-5.9v-21H191v4.6H180.5z"/>
	<path class="st4" d="M203,56h-3.2v5.6h-5.9v-21h9.6c1.9,0,3.5,0.3,4.9,0.9s2.5,1.5,3.2,2.7c0.8,1.2,1.1,2.5,1.1,4.1
		c0,1.5-0.4,2.8-1.1,4s-1.7,2-3,2.7l4.5,6.6h-6.4L203,56z M205.8,46.1c-0.6-0.5-1.5-0.8-2.8-0.8h-3.3v6.2h3.3c1.2,0,2.1-0.3,2.8-0.8
		c0.6-0.5,0.9-1.3,0.9-2.3C206.8,47.4,206.4,46.6,205.8,46.1z"/>
	<path class="st4" d="M232.9,57v4.6H216v-21h16.5v4.6h-10.6v3.5h9.3v4.4h-9.3V57H232.9z"/>
	<path class="st4" d="M259.5,64c-0.7,0.9-1.6,1.5-2.6,2c-1,0.5-2.1,0.7-3.3,0.7c-1.2,0-2.2-0.2-3.1-0.5c-0.9-0.3-1.9-0.8-2.8-1.5
		c-1-0.7-2-1.7-3.2-2.9c-1.8-0.3-3.4-1-4.9-2c-1.4-1-2.5-2.3-3.3-3.8c-0.8-1.5-1.2-3.2-1.2-5c0-2.1,0.5-3.9,1.5-5.6
		c1-1.7,2.4-3,4.2-3.9s3.8-1.4,6-1.4c2.2,0,4.2,0.5,6,1.4s3.2,2.2,4.2,3.9c1,1.7,1.5,3.5,1.5,5.6c0,2.4-0.6,4.4-1.9,6.3
		c-1.3,1.8-3,3.1-5.2,3.9c0.4,0.4,0.8,0.8,1.2,0.9c0.4,0.2,0.8,0.3,1.3,0.3c1.2,0,2.2-0.5,3.2-1.5L259.5,64z M241.8,54.2
		c0.5,0.9,1.2,1.6,2,2.1c0.9,0.5,1.8,0.8,2.9,0.8s2-0.2,2.9-0.8s1.5-1.2,2-2.1c0.5-0.9,0.8-2,0.8-3.1c0-1.2-0.2-2.2-0.8-3.1
		s-1.2-1.6-2-2.1s-1.8-0.8-2.9-0.8s-2,0.2-2.9,0.8c-0.9,0.5-1.5,1.2-2,2.1c-0.5,0.9-0.8,2-0.8,3.1C241.1,52.3,241.3,53.3,241.8,54.2
		z"/>
	<path class="st4" d="M263.9,59.5c-1.7-1.7-2.6-4.1-2.6-7.2V40.6h5.9v11.5c0,3.4,1.3,5,4,5c2.6,0,4-1.7,4-5V40.6h5.9v11.6
		c0,3.1-0.9,5.5-2.6,7.2s-4.2,2.5-7.3,2.5S265.7,61.2,263.9,59.5z"/>
	<path class="st4" d="M302,57v4.6h-16.9v-21h16.5v4.6H291v3.5h9.3v4.4H291V57H302z M295.9,38.9l-2.6-2.3l-2.6,2.3H287l3.9-4.6h4.9
		l3.9,4.6H295.9z"/>
	<path class="st4" d="M325.2,40.6v21h-4.9l-9.3-11.2v11.2h-5.8v-21h4.9l9.3,11.2V40.6H325.2z"/>
	<path class="st4" d="M334,60.6c-1.8-0.9-3.1-2.2-4.1-3.9c-1-1.7-1.5-3.5-1.5-5.6s0.5-4,1.5-5.6c1-1.7,2.4-3,4.1-3.9
		c1.8-0.9,3.7-1.4,5.9-1.4c1.9,0,3.6,0.3,5.2,1c1.5,0.7,2.8,1.7,3.8,2.9l-3.8,3.4c-1.4-1.6-3-2.5-4.9-2.5c-1.1,0-2.2,0.2-3,0.8
		c-0.9,0.5-1.6,1.2-2.1,2.1c-0.5,0.9-0.7,2-0.7,3.1c0,1.2,0.2,2.2,0.7,3.1c0.5,0.9,1.2,1.6,2.1,2.1c0.9,0.5,1.9,0.8,3,0.8
		c1.9,0,3.6-0.8,4.9-2.5l3.8,3.4c-1,1.3-2.3,2.3-3.8,2.9s-3.3,1-5.2,1C337.7,62,335.7,61.6,334,60.6z"/>
	<path class="st4" d="M351.6,40.6h5.9v21h-5.9V40.6z"/>
	<path class="st4" d="M375.8,57.5h-8.9l-1.6,4.1h-6.1l9.3-21h5.9l9.3,21h-6.2L375.8,57.5z M374.1,53.1l-2.7-6.7l-2.7,6.7H374.1z"/>
	<path class="st4" d="M403.2,56H400v5.6h-5.9v-21h9.6c1.9,0,3.5,0.3,4.9,0.9s2.5,1.5,3.2,2.7c0.8,1.2,1.1,2.5,1.1,4.1
		c0,1.5-0.4,2.8-1.1,4s-1.7,2-3,2.7l4.5,6.6h-6.4L403.2,56z M406.1,46.1c-0.6-0.5-1.5-0.8-2.8-0.8H400v6.2h3.3
		c1.2,0,2.1-0.3,2.8-0.8c0.6-0.5,0.9-1.3,0.9-2.3C407,47.4,406.7,46.6,406.1,46.1z"/>
	<path class="st4" d="M433.1,57v4.6h-16.9v-21h16.5v4.6h-10.6v3.5h9.3v4.4h-9.3V57H433.1z"/>
	<path class="st4" d="M438.9,61.4c-1.6-0.4-2.9-1-3.9-1.7l2-4.4c0.9,0.6,2,1.1,3.3,1.5c1.2,0.4,2.5,0.6,3.7,0.6
		c2.3,0,3.4-0.6,3.4-1.7c0-0.6-0.3-1-1-1.3c-0.7-0.3-1.7-0.6-3.1-0.9c-1.6-0.3-2.9-0.7-4-1.1s-2-1-2.7-1.9c-0.8-0.9-1.1-2-1.1-3.5
		c0-1.3,0.3-2.4,1-3.5c0.7-1,1.7-1.8,3.1-2.4c1.4-0.6,3.1-0.9,5.1-0.9c1.4,0,2.7,0.2,4.1,0.5c1.3,0.3,2.5,0.8,3.5,1.4l-1.8,4.4
		c-2-1.1-3.9-1.6-5.8-1.6c-1.2,0-2,0.2-2.6,0.5c-0.5,0.4-0.8,0.8-0.8,1.4c0,0.6,0.3,1,1,1.3c0.6,0.3,1.7,0.6,3.1,0.9
		c1.6,0.3,2.9,0.7,4,1.1c1,0.4,2,1,2.7,1.9c0.8,0.9,1.2,2,1.2,3.5c0,1.3-0.4,2.4-1,3.4c-0.7,1-1.8,1.8-3.1,2.4
		c-1.4,0.6-3.1,0.9-5.1,0.9C442.1,62,440.5,61.8,438.9,61.4z"/>
	<path class="st4" d="M470.4,41.6c1.4,0.6,2.5,1.5,3.2,2.7c0.8,1.2,1.1,2.5,1.1,4.1c0,1.6-0.4,3-1.1,4.1c-0.8,1.2-1.8,2.1-3.2,2.7
		c-1.4,0.6-3.1,0.9-4.9,0.9h-3.7v5.5h-5.9v-21h9.6C467.3,40.6,469,40.9,470.4,41.6z M467.8,50.6c0.6-0.5,0.9-1.3,0.9-2.3
		c0-1-0.3-1.7-0.9-2.3c-0.6-0.5-1.5-0.8-2.8-0.8h-3.3v6.2h3.3C466.3,51.4,467.2,51.2,467.8,50.6z"/>
	<path class="st4" d="M477.6,40.6h5.9v21h-5.9V40.6z"/>
	<path class="st4" d="M497,56h-3.2v5.6h-5.9v-21h9.6c1.9,0,3.5,0.3,5,0.9c1.4,0.6,2.5,1.5,3.2,2.7c0.8,1.2,1.1,2.5,1.1,4.1
		c0,1.5-0.4,2.8-1.1,4s-1.7,2-3,2.7l4.5,6.6h-6.4L497,56z M499.8,46.1c-0.6-0.5-1.5-0.8-2.8-0.8h-3.3v6.2h3.3c1.2,0,2.1-0.3,2.8-0.8
		s0.9-1.3,0.9-2.3C500.7,47.4,500.4,46.6,499.8,46.1z"/>
	<path class="st4" d="M524.1,57.5h-8.9l-1.7,4.1h-6.1l9.3-21h5.9l9.3,21h-6.2L524.1,57.5z M522.3,53.1l-2.7-6.7l-2.7,6.7H522.3z"/>
	<path class="st4" d="M537,45.3h-6.5v-4.7h18.8v4.7H543v16.3H537V45.3z"/>
	<path class="st4" d="M555.9,60.6c-1.8-0.9-3.2-2.2-4.2-3.9c-1-1.7-1.5-3.5-1.5-5.6s0.5-3.9,1.5-5.6c1-1.7,2.4-3,4.2-3.9
		c1.8-0.9,3.8-1.4,6-1.4c2.2,0,4.2,0.5,6,1.4c1.8,0.9,3.2,2.2,4.2,3.9c1,1.7,1.5,3.5,1.5,5.6s-0.5,4-1.5,5.6s-2.4,3-4.2,3.9
		c-1.8,0.9-3.8,1.4-6,1.4C559.7,62,557.7,61.6,555.9,60.6z M564.8,56.4c0.9-0.5,1.5-1.2,2-2.1c0.5-0.9,0.8-2,0.8-3.1
		c0-1.2-0.3-2.2-0.8-3.1c-0.5-0.9-1.2-1.6-2-2.1c-0.9-0.5-1.8-0.8-2.9-0.8c-1.1,0-2,0.2-2.9,0.8c-0.9,0.5-1.5,1.2-2,2.1
		s-0.8,2-0.8,3.1c0,1.2,0.2,2.2,0.8,3.1c0.5,0.9,1.2,1.6,2,2.1c0.9,0.5,1.8,0.8,2.9,0.8C562.9,57.1,563.9,56.9,564.8,56.4z
		 M563,34.3h5.7l-5.6,4.6h-4.1L563,34.3z"/>
	<path class="st4" d="M585.9,56h-3.2v5.6h-5.9v-21h9.6c1.9,0,3.5,0.3,5,0.9c1.4,0.6,2.5,1.5,3.2,2.7c0.8,1.2,1.1,2.5,1.1,4.1
		c0,1.5-0.4,2.8-1.1,4s-1.7,2-3,2.7l4.5,6.6h-6.4L585.9,56z M588.7,46.1c-0.6-0.5-1.5-0.8-2.8-0.8h-3.3v6.2h3.3
		c1.2,0,2.1-0.3,2.8-0.8s0.9-1.3,0.9-2.3C589.6,47.4,589.3,46.6,588.7,46.1z"/>
	<path class="st4" d="M598.9,40.6h5.9v21h-5.9V40.6z"/>
	<path class="st4" d="M623.1,57.5h-8.9l-1.7,4.1h-6.1l9.3-21h5.9l9.3,21h-6.2L623.1,57.5z M621.4,53.1l-2.7-6.7l-2.7,6.7H621.4z"/>
	<path class="st4" d="M642.1,61.1c-0.7-2.4-1-5-1-7.7s0.3-5.3,1-7.7c0.7-2.4,1.6-4.5,2.9-6.3h5.5c-1.3,2.3-2.2,4.6-2.8,6.9
		c-0.6,2.3-0.9,4.7-0.9,7.2c0,2.5,0.3,4.9,0.9,7.2c0.6,2.3,1.5,4.6,2.8,6.9h-5.5C643.7,65.6,642.7,63.5,642.1,61.1z"/>
	<path class="st4" d="M667,41.6c1.4,0.6,2.5,1.5,3.2,2.7c0.8,1.2,1.1,2.5,1.1,4.1c0,1.6-0.4,3-1.1,4.1c-0.8,1.2-1.8,2.1-3.2,2.7
		c-1.4,0.6-3.1,0.9-5,0.9h-3.7v5.5h-5.9v-21h9.6C663.9,40.6,665.6,40.9,667,41.6z M664.4,50.6c0.6-0.5,0.9-1.3,0.9-2.3
		c0-1-0.3-1.7-0.9-2.3s-1.5-0.8-2.8-0.8h-3.3v6.2h3.3C662.9,51.4,663.8,51.2,664.4,50.6z"/>
	<path class="st4" d="M679.1,60.6c-1.8-0.9-3.2-2.2-4.2-3.9c-1-1.7-1.5-3.5-1.5-5.6s0.5-3.9,1.5-5.6c1-1.7,2.4-3,4.2-3.9
		c1.8-0.9,3.8-1.4,6-1.4c2.2,0,4.2,0.5,6,1.4c1.8,0.9,3.2,2.2,4.2,3.9c1,1.7,1.5,3.5,1.5,5.6s-0.5,4-1.5,5.6s-2.4,3-4.2,3.9
		c-1.8,0.9-3.8,1.4-6,1.4C682.9,62,680.9,61.6,679.1,60.6z M688,56.4c0.9-0.5,1.5-1.2,2-2.1c0.5-0.9,0.8-2,0.8-3.1
		c0-1.2-0.3-2.2-0.8-3.1c-0.5-0.9-1.2-1.6-2-2.1c-0.9-0.5-1.8-0.8-2.9-0.8c-1.1,0-2,0.2-2.9,0.8c-0.9,0.5-1.5,1.2-2,2.1
		s-0.8,2-0.8,3.1c0,1.2,0.2,2.2,0.8,3.1c0.5,0.9,1.2,1.6,2,2.1c0.9,0.5,1.8,0.8,2.9,0.8C686.2,57.1,687.1,56.9,688,56.4z"/>
	<path class="st4" d="M709.1,56h-3.2v5.6h-5.9v-21h9.6c1.9,0,3.5,0.3,5,0.9c1.4,0.6,2.5,1.5,3.2,2.7c0.8,1.2,1.1,2.5,1.1,4.1
		c0,1.5-0.4,2.8-1.1,4s-1.7,2-3,2.7l4.5,6.6h-6.4L709.1,56z M711.9,46.1c-0.6-0.5-1.5-0.8-2.8-0.8h-3.3v6.2h3.3
		c1.2,0,2.1-0.3,2.8-0.8s0.9-1.3,0.9-2.3C712.8,47.4,712.5,46.6,711.9,46.1z"/>
	<path class="st4" d="M749.8,61.6l-0.1-11.1l-5.4,9.1h-2.6l-5.4-8.8v10.8h-5.5v-21h4.9l7.4,12.1l7.2-12.1h4.9l0.1,21H749.8z"/>
	<path class="st4" d="M759.5,40.6h5.9v21h-5.9V40.6z"/>
	<path class="st4" d="M789.6,40.6v21h-4.9l-9.3-11.2v11.2h-5.8v-21h4.9l9.3,11.2V40.6H789.6z"/>
	<path class="st4" d="M796.2,59.5c-1.7-1.7-2.6-4.1-2.6-7.2V40.6h5.9v11.5c0,3.4,1.3,5,4,5c2.6,0,4-1.7,4-5V40.6h5.9v11.6
		c0,3.1-0.9,5.5-2.6,7.2c-1.7,1.7-4.2,2.5-7.3,2.5S798,61.2,796.2,59.5z"/>
	<path class="st4" d="M821.5,45.3h-6.5v-4.7h18.8v4.7h-6.4v16.3h-5.9V45.3z"/>
	<path class="st4" d="M840.4,60.6c-1.8-0.9-3.2-2.2-4.2-3.9c-1-1.7-1.5-3.5-1.5-5.6s0.5-3.9,1.5-5.6c1-1.7,2.4-3,4.2-3.9
		c1.8-0.9,3.8-1.4,6-1.4c2.2,0,4.2,0.5,6,1.4c1.8,0.9,3.2,2.2,4.2,3.9c1,1.7,1.5,3.5,1.5,5.6s-0.5,4-1.5,5.6s-2.4,3-4.2,3.9
		c-1.8,0.9-3.8,1.4-6,1.4C844.2,62,842.2,61.6,840.4,60.6z M849.3,56.4c0.9-0.5,1.5-1.2,2-2.1c0.5-0.9,0.8-2,0.8-3.1
		c0-1.2-0.3-2.2-0.8-3.1c-0.5-0.9-1.2-1.6-2-2.1c-0.9-0.5-1.8-0.8-2.9-0.8c-1.1,0-2,0.2-2.9,0.8c-0.9,0.5-1.5,1.2-2,2.1
		s-0.8,2-0.8,3.1c0,1.2,0.2,2.2,0.8,3.1c0.5,0.9,1.2,1.6,2,2.1c0.9,0.5,1.8,0.8,2.9,0.8C847.5,57.1,848.4,56.9,849.3,56.4z"/>
	<path class="st4" d="M859.1,67.4c1.3-2.3,2.2-4.6,2.8-6.9s0.9-4.7,0.9-7.2c0-2.5-0.3-4.9-0.9-7.2c-0.6-2.3-1.5-4.6-2.8-6.9h5.5
		c1.2,1.8,2.2,3.9,2.9,6.3c0.7,2.4,1,5,1,7.7s-0.3,5.3-1,7.7s-1.6,4.5-2.9,6.3H859.1z"/>
	<path class="st4" d="M897.9,57v4.6h-16.9v-21h16.5v4.6H887v3.5h9.3v4.4H887V57H897.9z"/>
	<path class="st4" d="M920.2,61.6l-0.1-11.1l-5.4,9.1h-2.6l-5.4-8.8v10.8h-5.5v-21h4.9l7.4,12.1l7.2-12.1h4.9l0.1,21H920.2z"/>
	<path class="st4" d="M943.1,60.6c-1.8-0.9-3.1-2.2-4.1-3.9c-1-1.7-1.5-3.5-1.5-5.6s0.5-4,1.5-5.6s2.4-3,4.1-3.9
		c1.8-0.9,3.7-1.4,5.9-1.4c1.9,0,3.6,0.3,5.2,1c1.5,0.7,2.8,1.7,3.8,2.9l-3.8,3.4c-1.4-1.6-3-2.5-5-2.5c-1.1,0-2.2,0.2-3,0.8
		c-0.9,0.5-1.6,1.2-2.1,2.1s-0.7,2-0.7,3.1c0,1.2,0.2,2.2,0.7,3.1c0.5,0.9,1.2,1.6,2.1,2.1c0.9,0.5,1.9,0.8,3,0.8
		c1.9,0,3.6-0.8,5-2.5l3.8,3.4c-1,1.3-2.3,2.3-3.8,2.9s-3.3,1-5.2,1C946.9,62,944.9,61.6,943.1,60.6z"/>
	<path class="st4" d="M969.9,56h-3.2v5.6h-5.9v-21h9.6c1.9,0,3.5,0.3,5,0.9c1.4,0.6,2.5,1.5,3.2,2.7c0.8,1.2,1.1,2.5,1.1,4.1
		c0,1.5-0.4,2.8-1.1,4s-1.7,2-3,2.7l4.5,6.6h-6.4L969.9,56z M972.7,46.1c-0.6-0.5-1.5-0.8-2.8-0.8h-3.3v6.2h3.3
		c1.2,0,2.1-0.3,2.8-0.8s0.9-1.3,0.9-2.3C973.7,47.4,973.4,46.6,972.7,46.1z"/>
	<path class="st4" d="M982.9,40.6h5.9v21h-5.9V40.6z"/>
	<path class="st4" d="M1007.2,57.5h-8.9l-1.7,4.1h-6.1l9.3-21h5.9l9.3,21h-6.2L1007.2,57.5z M1005.4,53.1l-2.7-6.7l-2.7,6.7H1005.4z
		"/>
	<path class="st4" d="M1036.7,40.6v21h-4.9l-9.3-11.2v11.2h-5.8v-21h4.9l9.3,11.2V40.6H1036.7z"/>
	<path class="st4" d="M1045.4,60.6c-1.8-0.9-3.1-2.2-4.1-3.9c-1-1.7-1.5-3.5-1.5-5.6s0.5-4,1.5-5.6s2.4-3,4.1-3.9
		c1.8-0.9,3.7-1.4,5.9-1.4c1.9,0,3.6,0.3,5.2,1c1.5,0.7,2.8,1.7,3.8,2.9l-3.8,3.4c-1.4-1.6-3-2.5-5-2.5c-1.1,0-2.2,0.2-3,0.8
		c-0.9,0.5-1.6,1.2-2.1,2.1s-0.7,2-0.7,3.1c0,1.2,0.2,2.2,0.7,3.1c0.5,0.9,1.2,1.6,2.1,2.1c0.9,0.5,1.9,0.8,3,0.8
		c1.9,0,3.6-0.8,5-2.5l3.8,3.4c-1,1.3-2.3,2.3-3.8,2.9s-3.3,1-5.2,1C1049.1,62,1047.2,61.6,1045.4,60.6z M1048,68.5
		c-0.5-0.1-1-0.3-1.3-0.5l0.8-2.2c0.6,0.3,1.2,0.4,1.9,0.4c1,0,1.5-0.3,1.5-0.8c0-0.5-0.5-0.8-1.4-0.8h-1.1l0.8-3.3h3l-0.4,1.8
		c0.9,0.1,1.5,0.4,1.9,0.8c0.4,0.4,0.6,1,0.6,1.6c0,1-0.4,1.7-1.3,2.3c-0.9,0.6-2,0.8-3.5,0.8C1049,68.7,1048.5,68.6,1048,68.5z"/>
	<path class="st4" d="M1076.7,57.5h-8.9l-1.7,4.1h-6.1l9.3-21h5.9l9.3,21h-6.2L1076.7,57.5z M1075,53.1l-2.7-6.7l-2.7,6.7H1075z"/>
	<path class="st4" d="M1088.7,61.4c-1.6-0.4-2.9-1-3.9-1.7l2-4.4c0.9,0.6,2,1.1,3.3,1.5s2.5,0.6,3.7,0.6c2.3,0,3.4-0.6,3.4-1.7
		c0-0.6-0.3-1-1-1.3c-0.7-0.3-1.7-0.6-3.1-0.9c-1.6-0.3-2.9-0.7-4-1.1c-1.1-0.4-2-1-2.7-1.9c-0.8-0.9-1.1-2-1.1-3.5
		c0-1.3,0.3-2.4,1-3.5c0.7-1,1.7-1.8,3.1-2.4c1.4-0.6,3.1-0.9,5.1-0.9c1.4,0,2.7,0.2,4.1,0.5c1.3,0.3,2.5,0.8,3.5,1.4l-1.8,4.4
		c-2-1.1-3.9-1.6-5.8-1.6c-1.2,0-2,0.2-2.6,0.5c-0.5,0.4-0.8,0.8-0.8,1.4c0,0.6,0.3,1,1,1.3c0.6,0.3,1.7,0.6,3.1,0.9
		c1.6,0.3,2.9,0.7,4,1.1c1.1,0.4,2,1,2.7,1.9c0.8,0.9,1.2,2,1.2,3.5c0,1.3-0.4,2.4-1,3.4c-0.7,1-1.8,1.8-3.2,2.4
		c-1.4,0.6-3.1,0.9-5.1,0.9C1091.9,62,1090.3,61.8,1088.7,61.4z"/>
</g>
<g class="st3">
	<path class="st2" d="M429.3,537.6v3.7h6.5v2.6h-6.5v5.1H426v-14h10.6v2.6H429.3z"/>
	<path class="st2" d="M440.4,548.5c-0.9-0.5-1.6-1.1-2.1-2c-0.5-0.8-0.8-1.8-0.8-2.9s0.3-2,0.8-2.9s1.2-1.5,2.1-2
		c0.9-0.5,1.9-0.7,3.1-0.7s2.1,0.2,3,0.7c0.9,0.5,1.6,1.1,2.1,2c0.5,0.8,0.8,1.8,0.8,2.9s-0.3,2-0.8,2.9c-0.5,0.8-1.2,1.5-2.1,2
		c-0.9,0.5-1.9,0.7-3,0.7S441.3,549,440.4,548.5z M445.4,545.8c0.5-0.5,0.8-1.3,0.8-2.2c0-0.9-0.3-1.6-0.8-2.2s-1.2-0.8-2-0.8
		c-0.8,0-1.5,0.3-2,0.8s-0.8,1.3-0.8,2.2c0,0.9,0.3,1.6,0.8,2.2s1.2,0.8,2,0.8C444.2,546.6,444.9,546.4,445.4,545.8z"/>
	<path class="st2" d="M461.2,539.3c0.8,0.8,1.2,2,1.2,3.6v6.2h-3.1v-5.7c0-0.9-0.2-1.5-0.6-1.9c-0.4-0.4-0.9-0.6-1.6-0.6
		c-0.8,0-1.4,0.2-1.9,0.7c-0.5,0.5-0.7,1.2-0.7,2.2v5.3h-3.1v-10.8h3v1.3c0.4-0.5,0.9-0.8,1.5-1s1.3-0.4,2-0.4
		C459.3,538.1,460.4,538.5,461.2,539.3z"/>
	<path class="st2" d="M472.2,548.5c-0.3,0.2-0.7,0.4-1.1,0.5s-0.9,0.2-1.4,0.2c-1.3,0-2.3-0.3-3-1c-0.7-0.7-1.1-1.6-1.1-2.9v-4.4
		h-1.7v-2.4h1.7v-2.6h3.1v2.6h2.7v2.4h-2.7v4.4c0,0.5,0.1,0.8,0.4,1c0.2,0.2,0.6,0.4,1,0.4c0.5,0,0.9-0.1,1.3-0.4L472.2,548.5z"/>
	<path class="st2" d="M484.1,544.5h-8.1c0.1,0.7,0.5,1.2,1,1.6s1.2,0.6,2,0.6c0.6,0,1.1-0.1,1.5-0.2c0.4-0.2,0.8-0.4,1.2-0.8
		l1.7,1.8c-1,1.2-2.5,1.7-4.4,1.7c-1.2,0-2.3-0.2-3.2-0.7c-0.9-0.5-1.7-1.1-2.2-2c-0.5-0.8-0.8-1.8-0.8-2.9c0-1.1,0.2-2,0.8-2.9
		c0.5-0.8,1.2-1.5,2.1-2c0.9-0.5,1.8-0.7,2.9-0.7c1.1,0,2,0.2,2.9,0.7c0.9,0.5,1.5,1.1,2,2c0.5,0.8,0.7,1.8,0.7,3
		C484.1,543.8,484.1,544,484.1,544.5z M476.8,541.1c-0.5,0.4-0.8,0.9-0.9,1.6h5.3c-0.1-0.7-0.4-1.2-0.9-1.6
		c-0.5-0.4-1.1-0.6-1.8-0.6C477.8,540.5,477.2,540.7,476.8,541.1z"/>
	<path class="st2" d="M486,541.5c-0.4-0.4-0.6-0.8-0.6-1.4c0-0.6,0.2-1,0.6-1.4c0.4-0.4,0.8-0.5,1.4-0.5c0.5,0,1,0.2,1.4,0.5
		c0.4,0.4,0.6,0.8,0.6,1.4c0,0.6-0.2,1-0.6,1.4c-0.4,0.4-0.8,0.6-1.4,0.6C486.8,542,486.4,541.8,486,541.5z M486,548.6
		c-0.4-0.4-0.6-0.8-0.6-1.4c0-0.6,0.2-1,0.6-1.4c0.4-0.4,0.8-0.5,1.4-0.5c0.5,0,1,0.2,1.4,0.5c0.4,0.4,0.6,0.8,0.6,1.4
		c0,0.6-0.2,1-0.6,1.4c-0.4,0.4-0.8,0.6-1.4,0.6C486.8,549.2,486.4,549,486,548.6z"/>
</g>
<g class="st3">
	<path class="st2" d="M507.3,545.3h-7.8l-1.7,3.7h-1.5l6.4-14h1.5l6.4,14H509L507.3,545.3z M506.8,544.1l-3.4-7.5l-3.4,7.5H506.8z"
		/>
	<path class="st2" d="M528.8,539.6c0.8,0.8,1.1,1.9,1.1,3.4v6.1h-1.4v-6c0-1.1-0.3-1.9-0.8-2.5s-1.3-0.9-2.2-0.9c-1.1,0-2,0.3-2.6,1
		c-0.6,0.7-0.9,1.6-0.9,2.8v5.5h-1.4v-6c0-1.1-0.3-1.9-0.8-2.5s-1.3-0.9-2.2-0.9c-1.1,0-1.9,0.3-2.6,1c-0.6,0.7-1,1.6-1,2.8v5.5
		h-1.4v-10.5h1.4v1.9c0.4-0.6,0.9-1.1,1.6-1.5c0.7-0.3,1.4-0.5,2.3-0.5c0.9,0,1.6,0.2,2.3,0.6c0.6,0.4,1.1,0.9,1.4,1.7
		c0.4-0.7,0.9-1.2,1.7-1.6s1.6-0.6,2.5-0.6C527,538.5,528.1,538.8,528.8,539.6z"/>
	<path class="st2" d="M543,544.2h-8.8c0.1,1.1,0.5,2,1.3,2.7c0.8,0.7,1.7,1,2.9,1c0.7,0,1.3-0.1,1.8-0.3s1-0.6,1.4-1l0.8,0.9
		c-0.5,0.6-1,1-1.8,1.3s-1.5,0.4-2.3,0.4c-1.1,0-2-0.2-2.9-0.7s-1.5-1.1-1.9-1.9c-0.5-0.8-0.7-1.7-0.7-2.8s0.2-1.9,0.7-2.8
		c0.4-0.8,1.1-1.4,1.8-1.9c0.8-0.5,1.7-0.7,2.6-0.7c1,0,1.8,0.2,2.6,0.7c0.8,0.5,1.4,1.1,1.8,1.9c0.4,0.8,0.7,1.7,0.7,2.8L543,544.2
		z M535.4,540.6c-0.7,0.6-1.1,1.5-1.2,2.5h7.5c-0.1-1-0.5-1.9-1.2-2.5c-0.7-0.6-1.5-1-2.6-1C536.9,539.7,536.1,540,535.4,540.6z"/>
	<path class="st2" d="M548.8,539c0.7-0.4,1.5-0.5,2.4-0.5v1.4l-0.3,0c-1.1,0-2,0.3-2.6,1c-0.6,0.7-0.9,1.6-0.9,2.9v5.4h-1.4v-10.5
		h1.4v2.1C547.6,539.9,548.1,539.3,548.8,539z"/>
	<path class="st2" d="M553.8,535.9c-0.2-0.2-0.3-0.4-0.3-0.7c0-0.3,0.1-0.5,0.3-0.7s0.4-0.3,0.7-0.3c0.3,0,0.5,0.1,0.7,0.3
		c0.2,0.2,0.3,0.4,0.3,0.7c0,0.3-0.1,0.5-0.3,0.7c-0.2,0.2-0.4,0.3-0.7,0.3C554.2,536.2,554,536.1,553.8,535.9z M553.8,538.5h1.4
		V549h-1.4V538.5z"/>
	<path class="st2" d="M560.7,548.5c-0.8-0.5-1.5-1.1-1.9-1.9c-0.5-0.8-0.7-1.7-0.7-2.8s0.2-1.9,0.7-2.8c0.5-0.8,1.1-1.4,1.9-1.9
		c0.8-0.5,1.8-0.7,2.8-0.7c0.9,0,1.7,0.2,2.4,0.5c0.7,0.4,1.3,0.9,1.7,1.6l-1.1,0.7c-0.3-0.5-0.8-0.9-1.3-1.2
		c-0.5-0.3-1.1-0.4-1.7-0.4c-0.8,0-1.4,0.2-2,0.5c-0.6,0.3-1.1,0.8-1.4,1.4c-0.3,0.6-0.5,1.3-0.5,2.1c0,0.8,0.2,1.5,0.5,2.1
		c0.3,0.6,0.8,1.1,1.4,1.4c0.6,0.3,1.3,0.5,2,0.5c0.6,0,1.2-0.1,1.7-0.4c0.5-0.3,1-0.6,1.3-1.2l1.1,0.7c-0.4,0.7-1,1.2-1.7,1.6
		c-0.7,0.4-1.5,0.5-2.4,0.5C562.5,549.1,561.6,548.9,560.7,548.5z"/>
	<path class="st2" d="M577.3,539.5c0.7,0.7,1.1,1.7,1.1,3.1v6.5H577v-1.6c-0.3,0.5-0.8,1-1.4,1.3c-0.6,0.3-1.4,0.5-2.2,0.5
		c-1.2,0-2.1-0.3-2.8-0.8c-0.7-0.6-1-1.3-1-2.2c0-0.9,0.3-1.6,1-2.2c0.6-0.5,1.7-0.8,3.1-0.8h3.3v-0.6c0-0.9-0.3-1.6-0.8-2.1
		c-0.5-0.5-1.2-0.7-2.2-0.7c-0.7,0-1.3,0.1-1.9,0.3c-0.6,0.2-1.1,0.5-1.6,0.9l-0.6-1.1c0.5-0.5,1.2-0.8,1.9-1.1
		c0.7-0.2,1.5-0.4,2.4-0.4C575.5,538.5,576.5,538.8,577.3,539.5z M575.7,547.5c0.6-0.4,1-0.9,1.3-1.6v-1.7h-3.3
		c-1.8,0-2.7,0.6-2.7,1.9c0,0.6,0.2,1.1,0.7,1.5c0.5,0.4,1.1,0.5,2,0.5C574.4,548,575.1,547.8,575.7,547.5z"/>
	<path class="st2" d="M590.7,539.6c0.8,0.8,1.2,1.9,1.2,3.4v6.1h-1.4v-6c0-1.1-0.3-1.9-0.8-2.5s-1.3-0.9-2.3-0.9c-1.1,0-2,0.3-2.7,1
		c-0.7,0.7-1,1.6-1,2.8v5.5h-1.4v-10.5h1.4v1.9c0.4-0.6,0.9-1.1,1.6-1.5c0.7-0.4,1.5-0.5,2.4-0.5C588.9,538.5,590,538.8,590.7,539.6
		z"/>
	<path class="st2" d="M613,535v14h-1.5v-6.5h-8.8v6.5h-1.5v-14h1.5v6.2h8.8V535H613z"/>
	<path class="st2" d="M626.4,544.2h-8.8c0.1,1.1,0.5,2,1.3,2.7c0.8,0.7,1.7,1,2.9,1c0.7,0,1.3-0.1,1.8-0.3s1-0.6,1.4-1l0.8,0.9
		c-0.5,0.6-1,1-1.8,1.3s-1.5,0.4-2.3,0.4c-1.1,0-2-0.2-2.9-0.7s-1.5-1.1-1.9-1.9c-0.5-0.8-0.7-1.7-0.7-2.8s0.2-1.9,0.7-2.8
		c0.4-0.8,1.1-1.4,1.8-1.9c0.8-0.5,1.7-0.7,2.6-0.7c1,0,1.8,0.2,2.6,0.7c0.8,0.5,1.4,1.1,1.8,1.9c0.4,0.8,0.7,1.7,0.7,2.8
		L626.4,544.2z M618.8,540.6c-0.7,0.6-1.1,1.5-1.2,2.5h7.5c-0.1-1-0.5-1.9-1.2-2.5c-0.7-0.6-1.5-1-2.6-1
		C620.3,539.7,619.5,540,618.8,540.6z"/>
	<path class="st2" d="M635.9,539.5c0.7,0.7,1.1,1.7,1.1,3.1v6.5h-1.4v-1.6c-0.3,0.5-0.8,1-1.4,1.3c-0.6,0.3-1.4,0.5-2.2,0.5
		c-1.2,0-2.1-0.3-2.8-0.8c-0.7-0.6-1-1.3-1-2.2c0-0.9,0.3-1.6,1-2.2c0.6-0.5,1.7-0.8,3.1-0.8h3.3v-0.6c0-0.9-0.3-1.6-0.8-2.1
		c-0.5-0.5-1.2-0.7-2.2-0.7c-0.7,0-1.3,0.1-1.9,0.3c-0.6,0.2-1.1,0.5-1.6,0.9l-0.6-1.1c0.5-0.5,1.2-0.8,1.9-1.1
		c0.7-0.2,1.5-0.4,2.4-0.4C634.1,538.5,635.2,538.8,635.9,539.5z M634.3,547.5c0.6-0.4,1-0.9,1.3-1.6v-1.7h-3.3
		c-1.8,0-2.7,0.6-2.7,1.9c0,0.6,0.2,1.1,0.7,1.5c0.5,0.4,1.1,0.5,2,0.5C633,548,633.7,547.8,634.3,547.5z"/>
	<path class="st2" d="M643.7,539c0.7-0.4,1.5-0.5,2.5-0.5v1.4l-0.3,0c-1.1,0-2,0.3-2.6,1c-0.6,0.7-0.9,1.6-0.9,2.9v5.4h-1.4v-10.5
		h1.4v2.1C642.5,539.9,643,539.3,643.7,539z"/>
	<path class="st2" d="M654.7,548.4c-0.3,0.2-0.6,0.4-1,0.5c-0.4,0.1-0.8,0.2-1.2,0.2c-1,0-1.7-0.3-2.3-0.8c-0.5-0.5-0.8-1.3-0.8-2.3
		v-6.4h-1.9v-1.2h1.9v-2.3h1.4v2.3h3.2v1.2h-3.2v6.3c0,0.6,0.2,1.1,0.5,1.4c0.3,0.3,0.8,0.5,1.3,0.5c0.3,0,0.6,0,0.9-0.1
		c0.3-0.1,0.5-0.2,0.7-0.4L654.7,548.4z"/>
	<path class="st2" d="M671.6,545.3h-7.8l-1.7,3.7h-1.5l6.4-14h1.5l6.4,14h-1.6L671.6,545.3z M671.1,544.1l-3.4-7.5l-3.4,7.5H671.1z"
		/>
	<path class="st2" d="M677.1,548.8c-0.8-0.2-1.4-0.6-1.8-0.9l0.6-1.1c0.4,0.3,1,0.6,1.7,0.9c0.7,0.2,1.4,0.3,2.1,0.3
		c1,0,1.7-0.2,2.1-0.5c0.5-0.3,0.7-0.7,0.7-1.3c0-0.4-0.1-0.7-0.4-0.9c-0.3-0.2-0.6-0.4-1-0.5s-0.9-0.2-1.5-0.3
		c-0.9-0.2-1.5-0.3-2.1-0.5c-0.5-0.2-1-0.5-1.3-0.9c-0.4-0.4-0.6-1-0.6-1.7c0-0.9,0.4-1.6,1.1-2.2c0.7-0.6,1.8-0.8,3.1-0.8
		c0.7,0,1.4,0.1,2,0.3s1.2,0.4,1.7,0.7l-0.6,1.1c-0.9-0.6-1.9-0.9-3.1-0.9c-0.9,0-1.6,0.2-2,0.5c-0.5,0.3-0.7,0.7-0.7,1.3
		c0,0.4,0.1,0.7,0.4,1c0.3,0.2,0.6,0.4,1,0.5c0.4,0.1,0.9,0.2,1.6,0.4c0.8,0.2,1.5,0.3,2,0.5s0.9,0.4,1.3,0.8
		c0.4,0.4,0.5,0.9,0.5,1.6c0,0.9-0.4,1.7-1.1,2.2c-0.8,0.5-1.8,0.8-3.2,0.8C678.7,549.1,677.9,549,677.1,548.8z"/>
	<path class="st2" d="M686.9,548.8c-0.8-0.2-1.4-0.6-1.8-0.9l0.6-1.1c0.4,0.3,1,0.6,1.7,0.9c0.7,0.2,1.4,0.3,2.1,0.3
		c1,0,1.7-0.2,2.1-0.5s0.7-0.7,0.7-1.3c0-0.4-0.1-0.7-0.4-0.9c-0.3-0.2-0.6-0.4-1-0.5s-0.9-0.2-1.5-0.3c-0.9-0.2-1.5-0.3-2.1-0.5
		c-0.5-0.2-1-0.5-1.3-0.9c-0.4-0.4-0.5-1-0.5-1.7c0-0.9,0.4-1.6,1.1-2.2c0.7-0.6,1.8-0.8,3.1-0.8c0.7,0,1.4,0.1,2,0.3
		c0.7,0.2,1.2,0.4,1.7,0.7l-0.6,1.1c-0.9-0.6-1.9-0.9-3.1-0.9c-0.9,0-1.6,0.2-2.1,0.5c-0.5,0.3-0.7,0.7-0.7,1.3c0,0.4,0.1,0.7,0.4,1
		c0.3,0.2,0.6,0.4,1,0.5c0.4,0.1,0.9,0.2,1.6,0.4c0.8,0.2,1.5,0.3,2,0.5s0.9,0.4,1.3,0.8c0.4,0.4,0.5,0.9,0.5,1.6
		c0,0.9-0.4,1.7-1.2,2.2s-1.8,0.8-3.2,0.8C688.5,549.1,687.7,549,686.9,548.8z"/>
	<path class="st2" d="M697.9,548.5c-0.8-0.5-1.5-1.1-1.9-1.9c-0.5-0.8-0.7-1.7-0.7-2.8s0.2-1.9,0.7-2.8c0.5-0.8,1.1-1.4,1.9-1.9
		c0.8-0.5,1.7-0.7,2.7-0.7c1,0,1.9,0.2,2.7,0.7s1.5,1.1,1.9,1.9c0.5,0.8,0.7,1.7,0.7,2.8s-0.2,1.9-0.7,2.8s-1.1,1.5-1.9,1.9
		s-1.7,0.7-2.7,0.7C699.6,549.1,698.7,548.9,697.9,548.5z M702.6,547.4c0.6-0.3,1.1-0.8,1.4-1.5c0.3-0.6,0.5-1.3,0.5-2.1
		s-0.2-1.5-0.5-2.1c-0.3-0.6-0.8-1.1-1.4-1.4c-0.6-0.3-1.3-0.5-2-0.5c-0.7,0-1.4,0.2-2,0.5c-0.6,0.3-1.1,0.8-1.4,1.4
		c-0.3,0.6-0.5,1.3-0.5,2.1s0.2,1.5,0.5,2.1c0.3,0.6,0.8,1.1,1.4,1.5c0.6,0.3,1.3,0.5,2,0.5C701.4,547.9,702,547.7,702.6,547.4z"/>
	<path class="st2" d="M710.4,548.5c-0.8-0.5-1.5-1.1-1.9-1.9c-0.5-0.8-0.7-1.7-0.7-2.8s0.2-1.9,0.7-2.8c0.5-0.8,1.1-1.4,1.9-1.9
		s1.8-0.7,2.8-0.7c0.9,0,1.7,0.2,2.4,0.5c0.7,0.4,1.3,0.9,1.7,1.6l-1.1,0.7c-0.3-0.5-0.8-0.9-1.3-1.2c-0.5-0.3-1.1-0.4-1.7-0.4
		c-0.8,0-1.4,0.2-2,0.5c-0.6,0.3-1.1,0.8-1.4,1.4c-0.3,0.6-0.5,1.3-0.5,2.1c0,0.8,0.2,1.5,0.5,2.1c0.3,0.6,0.8,1.1,1.4,1.4
		c0.6,0.3,1.3,0.5,2,0.5c0.6,0,1.2-0.1,1.7-0.4c0.5-0.3,1-0.6,1.3-1.2l1.1,0.7c-0.4,0.7-1,1.2-1.7,1.6s-1.5,0.5-2.4,0.5
		C712.2,549.1,711.3,548.9,710.4,548.5z"/>
	<path class="st2" d="M720.1,535.9c-0.2-0.2-0.3-0.4-0.3-0.7c0-0.3,0.1-0.5,0.3-0.7s0.4-0.3,0.7-0.3c0.3,0,0.5,0.1,0.7,0.3
		c0.2,0.2,0.3,0.4,0.3,0.7c0,0.3-0.1,0.5-0.3,0.7c-0.2,0.2-0.4,0.3-0.7,0.3C720.6,536.2,720.3,536.1,720.1,535.9z M720.1,538.5h1.4
		V549h-1.4V538.5z"/>
	<path class="st2" d="M732.3,539.5c0.7,0.7,1.1,1.7,1.1,3.1v6.5h-1.4v-1.6c-0.3,0.5-0.8,1-1.4,1.3c-0.6,0.3-1.4,0.5-2.2,0.5
		c-1.2,0-2.1-0.3-2.8-0.8c-0.7-0.6-1-1.3-1-2.2c0-0.9,0.3-1.6,1-2.2c0.6-0.5,1.7-0.8,3.1-0.8h3.3v-0.6c0-0.9-0.3-1.6-0.8-2.1
		c-0.5-0.5-1.2-0.7-2.2-0.7c-0.7,0-1.3,0.1-1.9,0.3c-0.6,0.2-1.1,0.5-1.6,0.9l-0.6-1.1c0.5-0.5,1.2-0.8,1.9-1.1
		c0.7-0.2,1.5-0.4,2.4-0.4C730.6,538.5,731.6,538.8,732.3,539.5z M730.7,547.5c0.6-0.4,1-0.9,1.3-1.6v-1.7h-3.3
		c-1.8,0-2.7,0.6-2.7,1.9c0,0.6,0.2,1.1,0.7,1.5c0.5,0.4,1.1,0.5,2,0.5C729.5,548,730.2,547.8,730.7,547.5z"/>
	<path class="st2" d="M742.8,548.4c-0.3,0.2-0.6,0.4-1,0.5c-0.4,0.1-0.8,0.2-1.2,0.2c-1,0-1.7-0.3-2.3-0.8c-0.5-0.5-0.8-1.3-0.8-2.3
		v-6.4h-1.9v-1.2h1.9v-2.3h1.4v2.3h3.2v1.2H739v6.3c0,0.6,0.2,1.1,0.5,1.4c0.3,0.3,0.8,0.5,1.3,0.5c0.3,0,0.6,0,0.9-0.1
		c0.3-0.1,0.5-0.2,0.7-0.4L742.8,548.4z"/>
	<path class="st2" d="M745.4,535.9c-0.2-0.2-0.3-0.4-0.3-0.7c0-0.3,0.1-0.5,0.3-0.7s0.4-0.3,0.7-0.3c0.3,0,0.5,0.1,0.7,0.3
		c0.2,0.2,0.3,0.4,0.3,0.7c0,0.3-0.1,0.5-0.3,0.7c-0.2,0.2-0.4,0.3-0.7,0.3C745.9,536.2,745.6,536.1,745.4,535.9z M745.4,538.5h1.4
		V549h-1.4V538.5z"/>
	<path class="st2" d="M752.4,548.5c-0.8-0.5-1.5-1.1-1.9-1.9c-0.5-0.8-0.7-1.7-0.7-2.8s0.2-1.9,0.7-2.8c0.5-0.8,1.1-1.4,1.9-1.9
		c0.8-0.5,1.7-0.7,2.7-0.7c1,0,1.9,0.2,2.7,0.7s1.5,1.1,1.9,1.9c0.5,0.8,0.7,1.7,0.7,2.8s-0.2,1.9-0.7,2.8s-1.1,1.5-1.9,1.9
		s-1.7,0.7-2.7,0.7C754.1,549.1,753.2,548.9,752.4,548.5z M757.1,547.4c0.6-0.3,1.1-0.8,1.4-1.5c0.3-0.6,0.5-1.3,0.5-2.1
		s-0.2-1.5-0.5-2.1c-0.3-0.6-0.8-1.1-1.4-1.4c-0.6-0.3-1.3-0.5-2-0.5c-0.7,0-1.4,0.2-2,0.5c-0.6,0.3-1.1,0.8-1.4,1.4
		c-0.3,0.6-0.5,1.3-0.5,2.1s0.2,1.5,0.5,2.1c0.3,0.6,0.8,1.1,1.4,1.5c0.6,0.3,1.3,0.5,2,0.5C755.9,547.9,756.5,547.7,757.1,547.4z"
		/>
	<path class="st2" d="M771.9,539.6c0.8,0.8,1.2,1.9,1.2,3.4v6.1h-1.4v-6c0-1.1-0.3-1.9-0.8-2.5s-1.3-0.9-2.3-0.9c-1.1,0-2,0.3-2.7,1
		c-0.7,0.7-1,1.6-1,2.8v5.5h-1.4v-10.5h1.4v1.9c0.4-0.6,0.9-1.1,1.6-1.5c0.7-0.4,1.5-0.5,2.4-0.5C770,538.5,771.1,538.8,771.9,539.6
		z"/>
	<path class="st2" d="M777.8,547.3c0.2,0.2,0.3,0.5,0.3,0.8c0,0.2,0,0.3-0.1,0.5c0,0.2-0.1,0.4-0.2,0.6L777,552h-1l0.7-2.9
		c-0.2-0.1-0.4-0.2-0.5-0.4c-0.1-0.2-0.2-0.4-0.2-0.7c0-0.3,0.1-0.6,0.3-0.8c0.2-0.2,0.5-0.3,0.8-0.3S777.6,547.1,777.8,547.3z"/>
	<path class="st2" d="M795,547.8v1.3h-9.8v-1l5.8-5.7c0.7-0.7,1.2-1.3,1.5-1.9s0.4-1.1,0.4-1.6c0-0.8-0.3-1.5-0.8-1.9
		c-0.6-0.5-1.4-0.7-2.4-0.7c-1.6,0-2.9,0.5-3.8,1.6l-1-0.9c0.5-0.6,1.2-1.1,2.1-1.5c0.8-0.3,1.8-0.5,2.9-0.5c1.4,0,2.6,0.3,3.4,1
		c0.8,0.7,1.2,1.6,1.2,2.8c0,0.7-0.2,1.4-0.5,2.1c-0.3,0.7-0.9,1.4-1.8,2.3l-4.8,4.7H795z"/>
	<path class="st2" d="M799.4,548.3c-0.8-0.6-1.5-1.4-2-2.5c-0.5-1.1-0.7-2.3-0.7-3.8s0.2-2.7,0.7-3.8c0.5-1.1,1.1-1.9,2-2.5
		c0.8-0.6,1.8-0.9,2.9-0.9s2,0.3,2.9,0.9c0.8,0.6,1.5,1.4,2,2.5s0.7,2.3,0.7,3.8s-0.2,2.7-0.7,3.8s-1.1,1.9-2,2.5
		c-0.8,0.6-1.8,0.9-2.9,0.9S800.2,548.9,799.4,548.3z M804.4,547.2c0.6-0.5,1.1-1.1,1.4-2c0.3-0.9,0.5-1.9,0.5-3.1s-0.2-2.3-0.5-3.1
		c-0.3-0.9-0.8-1.5-1.4-2s-1.3-0.7-2.2-0.7c-0.8,0-1.5,0.2-2.2,0.7c-0.6,0.5-1.1,1.1-1.4,2c-0.3,0.9-0.5,1.9-0.5,3.1
		s0.2,2.3,0.5,3.1c0.3,0.9,0.8,1.5,1.4,2c0.6,0.5,1.3,0.7,2.2,0.7C803.1,547.8,803.8,547.6,804.4,547.2z"/>
	<path class="st2" d="M813.8,535v14h-1.4v-12.7H809V535H813.8z"/>
	<path class="st2" d="M825.2,541.9c0.9,0.7,1.4,1.7,1.4,3c0,0.8-0.2,1.5-0.6,2.2c-0.4,0.6-1,1.1-1.7,1.5c-0.8,0.4-1.7,0.5-2.8,0.5
		c-1,0-2-0.2-2.8-0.5c-0.9-0.3-1.6-0.8-2.2-1.3l0.7-1.1c0.5,0.5,1.1,0.9,1.8,1.2c0.8,0.3,1.6,0.5,2.5,0.5c1.2,0,2.1-0.3,2.7-0.8
		c0.6-0.5,1-1.2,1-2.1c0-1-0.4-1.7-1.1-2.2c-0.7-0.5-1.9-0.7-3.6-0.7h-3l0.7-7h7.7v1.3h-6.4l-0.5,4.5h1.8
		C822.8,540.8,824.3,541.2,825.2,541.9z"/>
	<path class="st2" d="M828.8,548.8c-0.2-0.2-0.3-0.5-0.3-0.8s0.1-0.6,0.3-0.8c0.2-0.2,0.5-0.3,0.8-0.3c0.3,0,0.5,0.1,0.8,0.3
		c0.2,0.2,0.3,0.5,0.3,0.8s-0.1,0.6-0.3,0.8c-0.2,0.2-0.5,0.3-0.8,0.3C829.2,549.1,829,549,828.8,548.8z"/>
</g>
<line class="st1" x1="608.6" y1="89.6" x2="608.6" y2="506.3"/>
<line class="st1" x1="19" y1="160.4" x2="1228.5" y2="160.4"/>
<g class="st3">
	<path class="st2" d="M269.4,123.5h4.6v16.1h-4.6V123.5z"/>
	<path class="st2" d="M277.2,123.5h7.6c1.8,0,3.3,0.3,4.7,1c1.4,0.7,2.4,1.6,3.2,2.8c0.8,1.2,1.1,2.6,1.1,4.3s-0.4,3-1.1,4.3
		c-0.8,1.2-1.8,2.1-3.2,2.8c-1.4,0.7-2.9,1-4.7,1h-7.6V123.5z M284.7,136c1.4,0,2.5-0.4,3.3-1.2c0.8-0.8,1.3-1.9,1.3-3.2
		s-0.4-2.5-1.3-3.2s-1.9-1.2-3.3-1.2h-2.9v8.8H284.7z"/>
	<path class="st2" d="M306.8,136.5H300l-1.3,3.1h-4.6l7.1-16.1h4.5l7.1,16.1H308L306.8,136.5z M305.4,133.1l-2.1-5.2l-2.1,5.2H305.4
		z"/>
	<path class="st2" d="M314.1,123.5h7.6c1.8,0,3.3,0.3,4.7,1c1.4,0.7,2.4,1.6,3.2,2.8c0.8,1.2,1.1,2.6,1.1,4.3s-0.4,3-1.1,4.3
		c-0.8,1.2-1.8,2.1-3.2,2.8c-1.4,0.7-2.9,1-4.7,1h-7.6V123.5z M321.5,136c1.4,0,2.5-0.4,3.3-1.2c0.8-0.8,1.3-1.9,1.3-3.2
		s-0.4-2.5-1.3-3.2s-1.9-1.2-3.3-1.2h-2.9v8.8H321.5z"/>
	<path class="st2" d="M346,136.1v3.5h-12.9v-16.1h12.6v3.5h-8.1v2.7h7.2v3.4h-7.2v2.9H346z"/>
	<path class="st2" d="M835,127v3.5h7.1v3.5H835v5.5h-4.6v-16.1H843v3.5H835z"/>
	<path class="st2" d="M852.2,135.3h-2.5v4.3h-4.6v-16.1h7.4c1.5,0,2.7,0.2,3.8,0.7c1.1,0.5,1.9,1.2,2.5,2.1c0.6,0.9,0.9,2,0.9,3.2
		c0,1.2-0.3,2.2-0.8,3c-0.5,0.9-1.3,1.5-2.3,2l3.5,5.1h-4.9L852.2,135.3z M854.4,127.7c-0.5-0.4-1.2-0.6-2.1-0.6h-2.5v4.7h2.5
		c0.9,0,1.6-0.2,2.1-0.6c0.5-0.4,0.7-1,0.7-1.7C855.1,128.7,854.8,128.1,854.4,127.7z"/>
	<path class="st2" d="M875.1,136.1v3.5h-12.9v-16.1h12.6v3.5h-8.1v2.7h7.2v3.4h-7.2v2.9H875.1z"/>
	<path class="st2" d="M895.5,141.5c-0.5,0.7-1.2,1.2-2,1.5c-0.8,0.3-1.6,0.5-2.5,0.5c-0.9,0-1.7-0.1-2.4-0.3s-1.4-0.6-2.2-1.1
		s-1.5-1.3-2.4-2.2c-1.4-0.2-2.6-0.7-3.7-1.5c-1.1-0.8-1.9-1.7-2.5-2.9s-0.9-2.4-0.9-3.8c0-1.6,0.4-3,1.2-4.3c0.8-1.3,1.8-2.3,3.2-3
		c1.4-0.7,2.9-1.1,4.6-1.1c1.7,0,3.2,0.4,4.6,1.1c1.4,0.7,2.4,1.7,3.2,3c0.8,1.3,1.2,2.7,1.2,4.3c0,1.8-0.5,3.4-1.5,4.8
		c-1,1.4-2.3,2.4-4,3c0.3,0.3,0.6,0.6,0.9,0.7c0.3,0.1,0.6,0.2,1,0.2c0.9,0,1.7-0.4,2.4-1.1L895.5,141.5z M882,134
		c0.4,0.7,0.9,1.2,1.6,1.6c0.7,0.4,1.4,0.6,2.2,0.6c0.8,0,1.5-0.2,2.2-0.6c0.7-0.4,1.2-0.9,1.6-1.6c0.4-0.7,0.6-1.5,0.6-2.4
		s-0.2-1.7-0.6-2.4c-0.4-0.7-0.9-1.2-1.6-1.6c-0.7-0.4-1.4-0.6-2.2-0.6c-0.8,0-1.5,0.2-2.2,0.6c-0.7,0.4-1.2,0.9-1.6,1.6
		c-0.4,0.7-0.6,1.5-0.6,2.4S881.6,133.3,882,134z"/>
	<path class="st2" d="M898.9,138c-1.3-1.3-2-3.2-2-5.5v-8.9h4.6v8.8c0,2.6,1,3.9,3.1,3.9c2,0,3-1.3,3-3.9v-8.8h4.5v8.9
		c0,2.4-0.7,4.2-2,5.5s-3.2,2-5.6,2S900.3,139.3,898.9,138z"/>
	<path class="st2" d="M928.1,136.1v3.5h-12.9v-16.1h12.6v3.5h-8.1v2.7h7.2v3.4h-7.2v2.9H928.1z M923.5,122.2l-2-1.7l-2,1.7h-2.9
		l3-3.5h3.8l3,3.5H923.5z"/>
	<path class="st2" d="M945.9,123.5v16.1h-3.7l-7.1-8.6v8.6h-4.5v-16.1h3.7l7.1,8.6v-8.6H945.9z"/>
	<path class="st2" d="M952.6,138.9c-1.3-0.7-2.4-1.7-3.2-3c-0.8-1.3-1.1-2.7-1.1-4.3c0-1.6,0.4-3.1,1.1-4.3s1.8-2.3,3.2-3
		s2.9-1.1,4.5-1.1c1.5,0,2.8,0.3,4,0.8s2.2,1.3,2.9,2.3l-2.9,2.6c-1-1.3-2.3-1.9-3.8-1.9c-0.9,0-1.7,0.2-2.3,0.6
		c-0.7,0.4-1.2,0.9-1.6,1.6c-0.4,0.7-0.6,1.5-0.6,2.4s0.2,1.7,0.6,2.4c0.4,0.7,0.9,1.2,1.6,1.6c0.7,0.4,1.5,0.6,2.3,0.6
		c1.5,0,2.8-0.6,3.8-1.9l2.9,2.6c-0.8,1-1.8,1.7-2.9,2.3s-2.5,0.8-4,0.8C955.5,139.9,954,139.6,952.6,138.9z"/>
	<path class="st2" d="M966.1,123.5h4.6v16.1h-4.6V123.5z"/>
	<path class="st2" d="M984.7,136.5h-6.8l-1.3,3.1H972l7.1-16.1h4.5l7.1,16.1H986L984.7,136.5z M983.4,133.1l-2.1-5.2l-2.1,5.2H983.4
		z"/>
</g>
<line class="st5" x1="19" y1="505.4" x2="1230.3" y2="505.4"/>
<rect x="167.6" y="187" class="st6" width="280.2" height="300.2"/>
<g class="st3">
	<path d="M242,188v16.8h-2.4v-14.7h-3.8V188H242z"/>
	<path d="M261.9,193.3c0.9,0.9,1.4,2.2,1.4,3.9v7.7h-2.2v-1.7c-0.4,0.6-0.9,1-1.6,1.4c-0.7,0.3-1.6,0.5-2.5,0.5
		c-1.4,0-2.6-0.3-3.4-1c-0.9-0.7-1.3-1.6-1.3-2.7s0.4-2,1.2-2.7c0.8-0.7,2.1-1,3.9-1h3.6v-0.5c0-1-0.3-1.8-0.9-2.3
		c-0.6-0.5-1.4-0.8-2.5-0.8c-0.8,0-1.5,0.1-2.2,0.4c-0.7,0.2-1.3,0.6-1.8,1l-1-1.7c0.7-0.5,1.4-0.9,2.4-1.2s1.9-0.4,2.9-0.4
		C259.6,192,260.9,192.4,261.9,193.3z M259.6,202.6c0.6-0.4,1.1-0.9,1.4-1.7v-1.8h-3.6c-2,0-2.9,0.7-2.9,2c0,0.6,0.2,1.1,0.7,1.5
		c0.5,0.4,1.2,0.6,2.1,0.6C258.2,203.2,258.9,203,259.6,202.6z"/>
	<path d="M278.2,188v16.8h-2.4v-14.7H272V188H278.2z"/>
	<path d="M293.7,202.8v2.1h-12.1v-1.6l6.8-6.6c0.8-0.8,1.4-1.5,1.7-2.1c0.3-0.6,0.4-1.2,0.4-1.8c0-0.9-0.3-1.6-0.9-2.1
		c-0.6-0.5-1.5-0.7-2.7-0.7c-1.9,0-3.3,0.6-4.3,1.8l-1.6-1.4c0.7-0.8,1.5-1.4,2.6-1.9c1.1-0.4,2.3-0.7,3.6-0.7
		c1.8,0,3.2,0.4,4.2,1.3c1,0.8,1.6,2,1.6,3.4c0,0.9-0.2,1.7-0.6,2.5c-0.4,0.8-1.1,1.7-2.2,2.7l-5.1,4.9H293.7z"/>
	<path d="M322.8,193.4c0.9,0.9,1.4,2.3,1.4,4.1v7.3h-2.3v-7.1c0-1.2-0.3-2.2-0.9-2.8s-1.4-0.9-2.4-0.9c-1.2,0-2.1,0.4-2.8,1.1
		c-0.7,0.7-1,1.8-1,3.1v6.6h-2.3v-7.1c0-1.2-0.3-2.2-0.9-2.8c-0.6-0.6-1.4-0.9-2.4-0.9c-1.2,0-2.1,0.4-2.8,1.1c-0.7,0.7-1,1.8-1,3.1
		v6.6h-2.3v-12.7h2.2v1.9c0.5-0.7,1.1-1.2,1.8-1.5c0.8-0.3,1.6-0.5,2.6-0.5c1,0,1.9,0.2,2.6,0.6c0.8,0.4,1.4,1,1.8,1.8
		c0.5-0.7,1.1-1.3,2-1.7c0.9-0.4,1.8-0.6,2.9-0.6C320.6,192,321.9,192.5,322.8,193.4z"/>
	<path d="M340,199.2h-10.3c0.1,1.1,0.6,2,1.5,2.7c0.8,0.7,1.9,1,3.1,1c1.5,0,2.7-0.5,3.7-1.5l1.3,1.5c-0.6,0.7-1.3,1.2-2.1,1.5
		s-1.8,0.5-2.9,0.5c-1.3,0-2.5-0.3-3.6-0.8c-1-0.6-1.8-1.3-2.4-2.3s-0.9-2.1-0.9-3.4c0-1.2,0.3-2.3,0.8-3.3c0.6-1,1.3-1.8,2.3-2.3
		c1-0.6,2.1-0.8,3.3-0.8c1.2,0,2.3,0.3,3.3,0.8c1,0.6,1.7,1.3,2.2,2.3c0.5,1,0.8,2.1,0.8,3.4C340.1,198.7,340,199,340,199.2z
		 M331,195c-0.7,0.7-1.2,1.6-1.3,2.6h8.2c-0.1-1.1-0.6-1.9-1.3-2.6c-0.7-0.7-1.7-1-2.8-1S331.7,194.3,331,195z"/>
	<path d="M343.9,204.6c-1-0.3-1.7-0.6-2.3-1.1l1-1.8c0.6,0.4,1.2,0.7,2,1c0.8,0.2,1.6,0.4,2.4,0.4c2,0,3-0.6,3-1.7
		c0-0.4-0.1-0.7-0.4-0.9c-0.3-0.2-0.6-0.4-1-0.5c-0.4-0.1-1-0.2-1.7-0.3c-1-0.2-1.9-0.3-2.5-0.6s-1.2-0.6-1.7-1.1
		c-0.5-0.5-0.7-1.2-0.7-2.1c0-1.2,0.5-2.1,1.4-2.8s2.2-1,3.9-1c0.8,0,1.7,0.1,2.5,0.3c0.8,0.2,1.5,0.5,2.1,0.8l-1,1.8
		c-1-0.7-2.3-1-3.7-1c-1,0-1.7,0.2-2.2,0.5c-0.5,0.3-0.8,0.7-0.8,1.3c0,0.4,0.1,0.7,0.4,1c0.3,0.2,0.6,0.4,1.1,0.5
		c0.4,0.1,1,0.2,1.8,0.4c1,0.2,1.9,0.4,2.5,0.6c0.6,0.2,1.2,0.5,1.6,1c0.4,0.5,0.7,1.2,0.7,2c0,1.2-0.5,2.1-1.5,2.7
		c-1,0.7-2.3,1-4,1C345.9,205,344.9,204.8,343.9,204.6z"/>
	<path d="M366.7,199.2h-10.3c0.1,1.1,0.6,2,1.5,2.7c0.8,0.7,1.9,1,3.1,1c1.5,0,2.7-0.5,3.7-1.5l1.3,1.5c-0.6,0.7-1.3,1.2-2.1,1.5
		s-1.8,0.5-2.9,0.5c-1.3,0-2.5-0.3-3.6-0.8c-1-0.6-1.8-1.3-2.4-2.3s-0.9-2.1-0.9-3.4c0-1.2,0.3-2.3,0.8-3.3c0.6-1,1.3-1.8,2.3-2.3
		c1-0.6,2.1-0.8,3.3-0.8c1.2,0,2.3,0.3,3.3,0.8c1,0.6,1.7,1.3,2.2,2.3c0.5,1,0.8,2.1,0.8,3.4C366.8,198.7,366.8,199,366.7,199.2z
		 M357.7,195c-0.7,0.7-1.2,1.6-1.3,2.6h8.2c-0.1-1.1-0.6-1.9-1.3-2.6c-0.7-0.7-1.7-1-2.8-1S358.5,194.3,357.7,195z"/>
	<path d="M370.6,204.6c-1-0.3-1.7-0.6-2.3-1.1l1-1.8c0.6,0.4,1.2,0.7,2,1c0.8,0.2,1.6,0.4,2.4,0.4c2,0,3-0.6,3-1.7
		c0-0.4-0.1-0.7-0.4-0.9c-0.3-0.2-0.6-0.4-1-0.5c-0.4-0.1-1-0.2-1.7-0.3c-1-0.2-1.9-0.3-2.5-0.6s-1.2-0.6-1.7-1.1
		c-0.5-0.5-0.7-1.2-0.7-2.1c0-1.2,0.5-2.1,1.4-2.8s2.2-1,3.9-1c0.8,0,1.7,0.1,2.5,0.3c0.8,0.2,1.5,0.5,2.1,0.8l-1,1.8
		c-1-0.7-2.3-1-3.7-1c-1,0-1.7,0.2-2.2,0.5c-0.5,0.3-0.8,0.7-0.8,1.3c0,0.4,0.1,0.7,0.4,1c0.3,0.2,0.6,0.4,1.1,0.5
		c0.4,0.1,1,0.2,1.8,0.4c1,0.2,1.9,0.4,2.5,0.6c0.6,0.2,1.2,0.5,1.6,1c0.4,0.5,0.7,1.2,0.7,2c0,1.2-0.5,2.1-1.5,2.7
		c-1,0.7-2.3,1-4,1C372.6,205,371.6,204.8,370.6,204.6z"/>
</g>
<g class="st3">
	<path d="M246.4,256v16.8h-2.4v-14.7h-3.8V256H246.4z"/>
	<path d="M266.3,261.3c0.9,0.9,1.4,2.2,1.4,3.9v7.7h-2.2v-1.7c-0.4,0.6-0.9,1-1.6,1.4c-0.7,0.3-1.6,0.5-2.5,0.5
		c-1.4,0-2.6-0.3-3.4-1c-0.9-0.7-1.3-1.6-1.3-2.7s0.4-2,1.2-2.7c0.8-0.7,2.1-1,3.9-1h3.6v-0.5c0-1-0.3-1.8-0.9-2.3
		c-0.6-0.5-1.4-0.8-2.5-0.8c-0.8,0-1.5,0.1-2.2,0.4c-0.7,0.2-1.3,0.6-1.8,1l-1-1.7c0.7-0.5,1.4-0.9,2.4-1.2s1.9-0.4,2.9-0.4
		C264,260,265.3,260.4,266.3,261.3z M264,270.6c0.6-0.4,1.1-0.9,1.4-1.7v-1.8h-3.6c-2,0-2.9,0.7-2.9,2c0,0.6,0.2,1.1,0.7,1.5
		c0.5,0.4,1.2,0.6,2.1,0.6C262.6,271.2,263.3,271,264,270.6z"/>
	<path d="M289.2,270.8v2.1h-12.1v-1.6l6.8-6.6c0.8-0.8,1.4-1.5,1.7-2.1c0.3-0.6,0.4-1.2,0.4-1.8c0-0.9-0.3-1.6-0.9-2.1
		c-0.6-0.5-1.5-0.7-2.7-0.7c-1.9,0-3.3,0.6-4.3,1.8l-1.6-1.4c0.7-0.8,1.5-1.4,2.6-1.9c1.1-0.4,2.3-0.7,3.6-0.7
		c1.8,0,3.2,0.4,4.2,1.3c1,0.8,1.6,2,1.6,3.4c0,0.9-0.2,1.7-0.6,2.5c-0.4,0.8-1.1,1.7-2.2,2.7l-5.1,4.9H289.2z"/>
	<path d="M318.4,261.4c0.9,0.9,1.4,2.3,1.4,4.1v7.3h-2.3v-7.1c0-1.2-0.3-2.2-0.9-2.8s-1.4-0.9-2.4-0.9c-1.2,0-2.1,0.4-2.8,1.1
		c-0.7,0.7-1,1.8-1,3.1v6.6H308v-7.1c0-1.2-0.3-2.2-0.9-2.8c-0.6-0.6-1.4-0.9-2.4-0.9c-1.2,0-2.1,0.4-2.8,1.1c-0.7,0.7-1,1.8-1,3.1
		v6.6h-2.3v-12.7h2.2v1.9c0.5-0.7,1.1-1.2,1.8-1.5c0.8-0.3,1.6-0.5,2.6-0.5c1,0,1.9,0.2,2.6,0.6c0.8,0.4,1.4,1,1.8,1.8
		c0.5-0.7,1.1-1.3,2-1.7c0.9-0.4,1.8-0.6,2.9-0.6C316.2,260,317.4,260.5,318.4,261.4z"/>
	<path d="M335.5,267.2h-10.3c0.1,1.1,0.6,2,1.5,2.7c0.8,0.7,1.9,1,3.1,1c1.5,0,2.7-0.5,3.7-1.5l1.3,1.5c-0.6,0.7-1.3,1.2-2.1,1.5
		s-1.8,0.5-2.9,0.5c-1.3,0-2.5-0.3-3.6-0.8c-1-0.6-1.8-1.3-2.4-2.3s-0.9-2.1-0.9-3.4c0-1.2,0.3-2.3,0.8-3.3c0.6-1,1.3-1.8,2.3-2.3
		c1-0.6,2.1-0.8,3.3-0.8c1.2,0,2.3,0.3,3.3,0.8c1,0.6,1.7,1.3,2.2,2.3c0.5,1,0.8,2.1,0.8,3.4C335.6,266.7,335.6,267,335.5,267.2z
		 M326.5,263c-0.7,0.7-1.2,1.6-1.3,2.6h8.2c-0.1-1.1-0.6-1.9-1.3-2.6c-0.7-0.7-1.7-1-2.8-1S327.3,262.3,326.5,263z"/>
	<path d="M339.4,272.6c-1-0.3-1.7-0.6-2.3-1.1l1-1.8c0.6,0.4,1.2,0.7,2,1c0.8,0.2,1.6,0.4,2.4,0.4c2,0,3-0.6,3-1.7
		c0-0.4-0.1-0.7-0.4-0.9c-0.3-0.2-0.6-0.4-1-0.5c-0.4-0.1-1-0.2-1.7-0.3c-1-0.2-1.9-0.3-2.5-0.6s-1.2-0.6-1.7-1.1
		c-0.5-0.5-0.7-1.2-0.7-2.1c0-1.2,0.5-2.1,1.4-2.8s2.2-1,3.9-1c0.8,0,1.7,0.1,2.5,0.3c0.8,0.2,1.5,0.5,2.1,0.8l-1,1.8
		c-1-0.7-2.3-1-3.7-1c-1,0-1.7,0.2-2.2,0.5c-0.5,0.3-0.8,0.7-0.8,1.3c0,0.4,0.1,0.7,0.4,1c0.3,0.2,0.6,0.4,1.1,0.5
		c0.4,0.1,1,0.2,1.8,0.4c1,0.2,1.9,0.4,2.5,0.6c0.6,0.2,1.2,0.5,1.6,1c0.4,0.5,0.7,1.2,0.7,2c0,1.2-0.5,2.1-1.5,2.7
		c-1,0.7-2.3,1-4,1C341.4,273,340.4,272.8,339.4,272.6z"/>
	<path d="M362.2,267.2h-10.3c0.1,1.1,0.6,2,1.5,2.7c0.8,0.7,1.9,1,3.1,1c1.5,0,2.7-0.5,3.7-1.5l1.3,1.5c-0.6,0.7-1.3,1.2-2.1,1.5
		s-1.8,0.5-2.9,0.5c-1.3,0-2.5-0.3-3.6-0.8c-1-0.6-1.8-1.3-2.4-2.3s-0.9-2.1-0.9-3.4c0-1.2,0.3-2.3,0.8-3.3c0.6-1,1.3-1.8,2.3-2.3
		c1-0.6,2.1-0.8,3.3-0.8c1.2,0,2.3,0.3,3.3,0.8c1,0.6,1.7,1.3,2.2,2.3c0.5,1,0.8,2.1,0.8,3.4C362.3,266.7,362.3,267,362.2,267.2z
		 M353.2,263c-0.7,0.7-1.2,1.6-1.3,2.6h8.2c-0.1-1.1-0.6-1.9-1.3-2.6c-0.7-0.7-1.7-1-2.8-1S354,262.3,353.2,263z"/>
	<path d="M366.1,272.6c-1-0.3-1.7-0.6-2.3-1.1l1-1.8c0.6,0.4,1.2,0.7,2,1c0.8,0.2,1.6,0.4,2.4,0.4c2,0,3-0.6,3-1.7
		c0-0.4-0.1-0.7-0.4-0.9c-0.3-0.2-0.6-0.4-1-0.5c-0.4-0.1-1-0.2-1.7-0.3c-1-0.2-1.9-0.3-2.5-0.6s-1.2-0.6-1.7-1.1
		c-0.5-0.5-0.7-1.2-0.7-2.1c0-1.2,0.5-2.1,1.4-2.8s2.2-1,3.9-1c0.8,0,1.7,0.1,2.5,0.3c0.8,0.2,1.5,0.5,2.1,0.8l-1,1.8
		c-1-0.7-2.3-1-3.7-1c-1,0-1.7,0.2-2.2,0.5c-0.5,0.3-0.8,0.7-0.8,1.3c0,0.4,0.1,0.7,0.4,1c0.3,0.2,0.6,0.4,1.1,0.5
		c0.4,0.1,1,0.2,1.8,0.4c1,0.2,1.9,0.4,2.5,0.6c0.6,0.2,1.2,0.5,1.6,1c0.4,0.5,0.7,1.2,0.7,2c0,1.2-0.5,2.1-1.5,2.7
		c-1,0.7-2.3,1-4,1C368.1,273,367.1,272.8,366.1,272.6z"/>
</g>
<g class="st3">
	<path d="M259.4,332.6c0.9,0.9,1.3,1.9,1.3,3.3c0,1-0.2,1.8-0.7,2.6s-1.2,1.4-2.1,1.8s-2.1,0.7-3.5,0.7c-1.2,0-2.4-0.2-3.5-0.5
		c-1.1-0.4-2-0.9-2.7-1.5l1.1-1.9c0.6,0.5,1.3,1,2.2,1.3c0.9,0.3,1.8,0.5,2.9,0.5c1.2,0,2.2-0.3,2.9-0.8c0.7-0.5,1-1.3,1-2.2
		s-0.3-1.6-1-2.2c-0.7-0.5-1.7-0.8-3.1-0.8h-1.3v-1.7l4.2-5.2H249V324h11.1v1.6l-4.4,5.4C257.3,331.3,258.6,331.8,259.4,332.6z"/>
	<path d="M279.1,329.3c0.9,0.9,1.4,2.2,1.4,3.9v7.7h-2.2v-1.7c-0.4,0.6-0.9,1-1.6,1.4c-0.7,0.3-1.6,0.5-2.5,0.5
		c-1.4,0-2.6-0.3-3.4-1c-0.9-0.7-1.3-1.6-1.3-2.7s0.4-2,1.2-2.7c0.8-0.7,2.1-1,3.9-1h3.6v-0.5c0-1-0.3-1.8-0.9-2.3
		c-0.6-0.5-1.4-0.8-2.5-0.8c-0.8,0-1.5,0.1-2.2,0.4c-0.7,0.2-1.3,0.6-1.8,1l-1-1.7c0.7-0.5,1.4-0.9,2.4-1.2s1.9-0.4,2.9-0.4
		C276.8,328,278.2,328.4,279.1,329.3z M276.8,338.6c0.6-0.4,1.1-0.9,1.4-1.7v-1.8h-3.6c-2,0-2.9,0.7-2.9,2c0,0.6,0.2,1.1,0.7,1.5
		c0.5,0.4,1.2,0.6,2.1,0.6C275.4,339.2,276.2,339,276.8,338.6z"/>
	<path d="M300.3,332.1c1.1,0.9,1.7,2.1,1.7,3.7c0,1-0.2,1.9-0.7,2.7c-0.5,0.8-1.2,1.4-2.1,1.9s-2.1,0.7-3.5,0.7
		c-1.2,0-2.3-0.2-3.4-0.5c-1.1-0.4-2-0.9-2.7-1.5l1.1-1.9c0.6,0.5,1.3,1,2.2,1.3c0.9,0.3,1.8,0.5,2.8,0.5c1.3,0,2.2-0.3,2.9-0.8
		c0.7-0.5,1-1.3,1-2.2c0-1-0.4-1.8-1.2-2.3c-0.8-0.5-2.1-0.8-3.9-0.8h-3.8l0.9-8.8h9.5v2.1h-7.5l-0.5,4.6h1.9
		C297.4,330.7,299.2,331.2,300.3,332.1z"/>
	<path d="M320.2,329.3c0.9,0.9,1.4,2.2,1.4,3.9v7.7h-2.2v-1.7c-0.4,0.6-0.9,1-1.6,1.4c-0.7,0.3-1.6,0.5-2.5,0.5
		c-1.4,0-2.6-0.3-3.4-1c-0.9-0.7-1.3-1.6-1.3-2.7s0.4-2,1.2-2.7c0.8-0.7,2.1-1,3.9-1h3.6v-0.5c0-1-0.3-1.8-0.9-2.3
		c-0.6-0.5-1.4-0.8-2.5-0.8c-0.8,0-1.5,0.1-2.2,0.4c-0.7,0.2-1.3,0.6-1.8,1l-1-1.7c0.7-0.5,1.4-0.9,2.4-1.2s1.9-0.4,2.9-0.4
		C317.9,328,319.2,328.4,320.2,329.3z M317.9,338.6c0.6-0.4,1.1-0.9,1.4-1.7v-1.8h-3.6c-2,0-2.9,0.7-2.9,2c0,0.6,0.2,1.1,0.7,1.5
		c0.5,0.4,1.2,0.6,2.1,0.6C316.5,339.2,317.2,339,317.9,338.6z"/>
	<path d="M336.5,329.4c1,0.9,1.4,2.3,1.4,4.1v7.3h-2.3v-7.1c0-1.2-0.3-2.2-0.9-2.8c-0.6-0.6-1.4-0.9-2.5-0.9c-1.2,0-2.2,0.4-3,1.1
		c-0.7,0.7-1.1,1.8-1.1,3.1v6.6h-2.3v-12.7h2.2v1.9c0.5-0.7,1.1-1.2,1.9-1.5c0.8-0.4,1.7-0.5,2.7-0.5
		C334.2,328,335.5,328.5,336.5,329.4z"/>
	<path d="M344.3,340.1c-1-0.6-1.8-1.3-2.4-2.3c-0.6-1-0.9-2.1-0.9-3.3s0.3-2.4,0.9-3.3s1.4-1.8,2.4-2.3c1-0.6,2.1-0.8,3.4-0.8
		c1.3,0,2.4,0.3,3.4,0.8c1,0.6,1.8,1.3,2.4,2.3s0.9,2.1,0.9,3.3s-0.3,2.4-0.9,3.3c-0.6,1-1.4,1.8-2.4,2.3c-1,0.6-2.1,0.8-3.4,0.8
		C346.4,341,345.3,340.7,344.3,340.1z M349.9,338.4c0.6-0.4,1.2-0.9,1.5-1.6c0.4-0.7,0.6-1.5,0.6-2.3c0-0.9-0.2-1.7-0.6-2.3
		c-0.4-0.7-0.9-1.2-1.5-1.6c-0.6-0.4-1.4-0.6-2.2-0.6c-0.8,0-1.5,0.2-2.2,0.6c-0.6,0.4-1.2,0.9-1.5,1.6c-0.4,0.7-0.6,1.5-0.6,2.3
		c0,0.9,0.2,1.7,0.6,2.3c0.4,0.7,0.9,1.2,1.5,1.6s1.4,0.6,2.2,0.6C348.5,339,349.3,338.8,349.9,338.4z"/>
	<path d="M358.1,340.6c-1-0.3-1.7-0.6-2.3-1.1l1-1.8c0.6,0.4,1.2,0.7,2,1c0.8,0.2,1.6,0.4,2.4,0.4c2,0,3-0.6,3-1.7
		c0-0.4-0.1-0.7-0.4-0.9c-0.3-0.2-0.6-0.4-1-0.5c-0.4-0.1-1-0.2-1.7-0.3c-1-0.2-1.9-0.3-2.5-0.6s-1.2-0.6-1.7-1.1
		c-0.5-0.5-0.7-1.2-0.7-2.1c0-1.2,0.5-2.1,1.4-2.8s2.2-1,3.9-1c0.8,0,1.7,0.1,2.5,0.3c0.8,0.2,1.5,0.5,2.1,0.8l-1,1.8
		c-1-0.7-2.3-1-3.7-1c-1,0-1.7,0.2-2.2,0.5c-0.5,0.3-0.8,0.7-0.8,1.3c0,0.4,0.1,0.7,0.4,1c0.3,0.2,0.6,0.4,1.1,0.5
		c0.4,0.1,1,0.2,1.8,0.4c1,0.2,1.9,0.4,2.5,0.6c0.6,0.2,1.2,0.5,1.6,1c0.4,0.5,0.7,1.2,0.7,2c0,1.2-0.5,2.1-1.5,2.7
		c-1,0.7-2.3,1-4,1C360.1,341,359.1,340.8,358.1,340.6z"/>
</g>
<g class="st3">
	<path d="M273.5,406.8v2.1h-12.2V392h11.9v2.1h-9.5v5.2h8.4v2h-8.4v5.4H273.5z"/>
	<path d="M277.5,408.6c-1-0.3-1.7-0.6-2.3-1.1l1-1.8c0.6,0.4,1.2,0.7,2,1c0.8,0.2,1.6,0.4,2.4,0.4c2,0,3-0.6,3-1.7
		c0-0.4-0.1-0.7-0.4-0.9c-0.3-0.2-0.6-0.4-1-0.5c-0.4-0.1-1-0.2-1.7-0.3c-1-0.2-1.9-0.3-2.5-0.6s-1.2-0.6-1.7-1.1
		c-0.5-0.5-0.7-1.2-0.7-2.1c0-1.2,0.5-2.1,1.4-2.8s2.2-1,3.9-1c0.8,0,1.7,0.1,2.5,0.3c0.8,0.2,1.5,0.5,2.1,0.8l-1,1.8
		c-1-0.7-2.3-1-3.7-1c-1,0-1.7,0.2-2.2,0.5c-0.5,0.3-0.8,0.7-0.8,1.3c0,0.4,0.1,0.7,0.4,1c0.3,0.2,0.6,0.4,1.1,0.5
		c0.4,0.1,1,0.2,1.8,0.4c1,0.2,1.9,0.4,2.5,0.6c0.6,0.2,1.2,0.5,1.6,1c0.4,0.5,0.7,1.2,0.7,2c0,1.2-0.5,2.1-1.5,2.7
		c-1,0.7-2.3,1-4,1C279.5,409,278.5,408.8,277.5,408.6z"/>
	<path d="M291,408.1c-1-0.6-1.8-1.3-2.4-2.3c-0.6-1-0.9-2.1-0.9-3.3s0.3-2.4,0.9-3.3s1.4-1.8,2.4-2.3c1-0.6,2.2-0.8,3.5-0.8
		c1.2,0,2.2,0.2,3.1,0.7c0.9,0.5,1.6,1.1,2.1,2l-1.8,1.1c-0.4-0.6-0.9-1.1-1.5-1.4c-0.6-0.3-1.2-0.5-2-0.5c-0.8,0-1.6,0.2-2.2,0.6
		c-0.7,0.4-1.2,0.9-1.6,1.6c-0.4,0.7-0.6,1.5-0.6,2.3c0,0.9,0.2,1.7,0.6,2.4c0.4,0.7,0.9,1.2,1.6,1.6c0.7,0.4,1.4,0.6,2.2,0.6
		c0.7,0,1.4-0.2,2-0.5c0.6-0.3,1.1-0.8,1.5-1.4l1.8,1.1c-0.5,0.9-1.2,1.6-2.1,2c-0.9,0.5-1.9,0.7-3.1,0.7
		C293.1,409,292,408.7,291,408.1z"/>
	<path d="M304.5,408.1c-1-0.6-1.8-1.3-2.4-2.3c-0.6-1-0.9-2.1-0.9-3.3s0.3-2.4,0.9-3.3s1.4-1.8,2.4-2.3c1-0.6,2.1-0.8,3.4-0.8
		c1.3,0,2.4,0.3,3.4,0.8c1,0.6,1.8,1.3,2.4,2.3s0.9,2.1,0.9,3.3s-0.3,2.4-0.9,3.3c-0.6,1-1.4,1.8-2.4,2.3c-1,0.6-2.1,0.8-3.4,0.8
		C306.6,409,305.5,408.7,304.5,408.1z M310.1,406.4c0.6-0.4,1.2-0.9,1.5-1.6c0.4-0.7,0.6-1.5,0.6-2.3c0-0.9-0.2-1.7-0.6-2.3
		c-0.4-0.7-0.9-1.2-1.5-1.6c-0.6-0.4-1.4-0.6-2.2-0.6c-0.8,0-1.5,0.2-2.2,0.6c-0.6,0.4-1.2,0.9-1.5,1.6c-0.4,0.7-0.6,1.5-0.6,2.3
		c0,0.9,0.2,1.7,0.6,2.3c0.4,0.7,0.9,1.2,1.5,1.6s1.4,0.6,2.2,0.6C308.7,407,309.4,406.8,310.1,406.4z"/>
	<path d="M317.7,391h2.3v17.8h-2.3V391z"/>
	<path d="M333,397.3c0.9,0.9,1.4,2.2,1.4,3.9v7.7h-2.2v-1.7c-0.4,0.6-0.9,1-1.6,1.4c-0.7,0.3-1.6,0.5-2.5,0.5c-1.4,0-2.6-0.3-3.4-1
		c-0.9-0.7-1.3-1.6-1.3-2.7s0.4-2,1.2-2.7c0.8-0.7,2.1-1,3.9-1h3.6v-0.5c0-1-0.3-1.8-0.9-2.3c-0.6-0.5-1.4-0.8-2.5-0.8
		c-0.8,0-1.5,0.1-2.2,0.4c-0.7,0.2-1.3,0.6-1.8,1l-1-1.7c0.7-0.5,1.4-0.9,2.4-1.2s1.9-0.4,2.9-0.4C330.7,396,332.1,396.4,333,397.3z
		 M330.7,406.6c0.6-0.4,1.1-0.9,1.4-1.7v-1.8h-3.6c-2,0-2.9,0.7-2.9,2c0,0.6,0.2,1.1,0.7,1.5c0.5,0.4,1.2,0.6,2.1,0.6
		C329.3,407.2,330.1,407,330.7,406.6z"/>
	<path d="M342.7,396.6c0.8-0.4,1.7-0.6,2.9-0.6v2.2c-0.1,0-0.3,0-0.5,0c-1.2,0-2.2,0.4-2.9,1.1c-0.7,0.7-1.1,1.8-1.1,3.2v6.3h-2.3
		v-12.7h2.2v2.1C341.3,397.5,341.9,397,342.7,396.6z"/>
	<path d="M352.4,396.6c0.8-0.4,1.7-0.6,2.9-0.6v2.2c-0.1,0-0.3,0-0.5,0c-1.2,0-2.2,0.4-2.9,1.1c-0.7,0.7-1.1,1.8-1.1,3.2v6.3h-2.3
		v-12.7h2.2v2.1C351,397.5,351.6,397,352.4,396.6z"/>
</g>
<g class="st3">
	<path d="M245,472.6h-8.9l-1.8,4.2h-2.5l7.6-16.8h2.4l7.6,16.8h-2.5L245,472.6z M244.2,470.7l-3.6-8.2l-3.6,8.2H244.2z"/>
	<path d="M263.4,459v17.8h-2.2v-2c-0.5,0.7-1.2,1.2-1.9,1.6c-0.8,0.4-1.6,0.6-2.6,0.6c-1.2,0-2.3-0.3-3.3-0.8
		c-1-0.5-1.7-1.3-2.3-2.3c-0.6-1-0.8-2.1-0.8-3.4c0-1.3,0.3-2.4,0.8-3.4c0.6-1,1.3-1.7,2.3-2.3c1-0.5,2.1-0.8,3.3-0.8
		c0.9,0,1.8,0.2,2.5,0.5c0.8,0.3,1.4,0.9,1.9,1.5v-7H263.4z M259,474.4c0.7-0.4,1.2-0.9,1.5-1.6c0.4-0.7,0.6-1.5,0.6-2.3
		c0-0.9-0.2-1.7-0.6-2.3c-0.4-0.7-0.9-1.2-1.5-1.6c-0.7-0.4-1.4-0.6-2.2-0.6c-0.8,0-1.5,0.2-2.2,0.6c-0.6,0.4-1.2,0.9-1.5,1.6
		c-0.4,0.7-0.6,1.5-0.6,2.3c0,0.9,0.2,1.7,0.6,2.3c0.4,0.7,0.9,1.2,1.5,1.6s1.4,0.6,2.2,0.6C257.7,475,258.4,474.8,259,474.4z"/>
	<path d="M269.8,476.1c-1-0.6-1.8-1.3-2.4-2.3c-0.6-1-0.9-2.1-0.9-3.3s0.3-2.4,0.9-3.3s1.4-1.8,2.4-2.3c1-0.6,2.1-0.8,3.4-0.8
		c1.3,0,2.4,0.3,3.4,0.8c1,0.6,1.8,1.3,2.4,2.3s0.9,2.1,0.9,3.3s-0.3,2.4-0.9,3.3c-0.6,1-1.4,1.8-2.4,2.3c-1,0.6-2.1,0.8-3.4,0.8
		C272,477,270.8,476.7,269.8,476.1z M275.4,474.4c0.6-0.4,1.2-0.9,1.5-1.6c0.4-0.7,0.6-1.5,0.6-2.3c0-0.9-0.2-1.7-0.6-2.3
		c-0.4-0.7-0.9-1.2-1.5-1.6c-0.6-0.4-1.4-0.6-2.2-0.6c-0.8,0-1.5,0.2-2.2,0.6c-0.6,0.4-1.2,0.9-1.5,1.6c-0.4,0.7-0.6,1.5-0.6,2.3
		c0,0.9,0.2,1.7,0.6,2.3c0.4,0.7,0.9,1.2,1.5,1.6s1.4,0.6,2.2,0.6C274,475,274.8,474.8,275.4,474.4z"/>
	<path d="M283,459h2.3v17.8H283V459z"/>
	<path d="M301.2,471.2h-10.3c0.1,1.1,0.6,2,1.5,2.7c0.8,0.7,1.9,1,3.1,1c1.5,0,2.7-0.5,3.7-1.5l1.3,1.5c-0.6,0.7-1.3,1.2-2.1,1.5
		s-1.8,0.5-2.9,0.5c-1.3,0-2.5-0.3-3.6-0.8c-1-0.6-1.8-1.3-2.4-2.3s-0.9-2.1-0.9-3.4c0-1.2,0.3-2.3,0.8-3.3c0.6-1,1.3-1.8,2.3-2.3
		c1-0.6,2.1-0.8,3.3-0.8c1.2,0,2.3,0.3,3.3,0.8c1,0.6,1.7,1.3,2.2,2.3c0.5,1,0.8,2.1,0.8,3.4C301.2,470.7,301.2,471,301.2,471.2z
		 M292.2,467c-0.7,0.7-1.2,1.6-1.3,2.6h8.2c-0.1-1.1-0.6-1.9-1.3-2.6c-0.7-0.7-1.7-1-2.8-1S292.9,466.3,292.2,467z"/>
	<path d="M305.1,476.6c-1-0.3-1.7-0.6-2.3-1.1l1-1.8c0.6,0.4,1.2,0.7,2,1c0.8,0.2,1.6,0.4,2.4,0.4c2,0,3-0.6,3-1.7
		c0-0.4-0.1-0.7-0.4-0.9c-0.3-0.2-0.6-0.4-1-0.5c-0.4-0.1-1-0.2-1.7-0.3c-1-0.2-1.9-0.3-2.5-0.6s-1.2-0.6-1.7-1.1
		c-0.5-0.5-0.7-1.2-0.7-2.1c0-1.2,0.5-2.1,1.4-2.8s2.2-1,3.9-1c0.8,0,1.7,0.1,2.5,0.3c0.8,0.2,1.5,0.5,2.1,0.8l-1,1.8
		c-1-0.7-2.3-1-3.7-1c-1,0-1.7,0.2-2.2,0.5c-0.5,0.3-0.8,0.7-0.8,1.3c0,0.4,0.1,0.7,0.4,1c0.3,0.2,0.6,0.4,1.1,0.5
		c0.4,0.1,1,0.2,1.8,0.4c1,0.2,1.9,0.4,2.5,0.6c0.6,0.2,1.2,0.5,1.6,1c0.4,0.5,0.7,1.2,0.7,2c0,1.2-0.5,2.1-1.5,2.7
		c-1,0.7-2.3,1-4,1C307,477,306,476.8,305.1,476.6z"/>
	<path d="M318.5,476.1c-1-0.6-1.8-1.3-2.4-2.3c-0.6-1-0.9-2.1-0.9-3.3s0.3-2.4,0.9-3.3s1.4-1.8,2.4-2.3c1-0.6,2.2-0.8,3.5-0.8
		c1.2,0,2.2,0.2,3.1,0.7c0.9,0.5,1.6,1.1,2.1,2l-1.8,1.1c-0.4-0.6-0.9-1.1-1.5-1.4c-0.6-0.3-1.2-0.5-2-0.5c-0.8,0-1.6,0.2-2.2,0.6
		c-0.7,0.4-1.2,0.9-1.6,1.6c-0.4,0.7-0.6,1.5-0.6,2.3c0,0.9,0.2,1.7,0.6,2.4c0.4,0.7,0.9,1.2,1.6,1.6c0.7,0.4,1.4,0.6,2.2,0.6
		c0.7,0,1.4-0.2,2-0.5c0.6-0.3,1.1-0.8,1.5-1.4l1.8,1.1c-0.5,0.9-1.2,1.6-2.1,2c-0.9,0.5-1.9,0.7-3.1,0.7
		C320.7,477,319.5,476.7,318.5,476.1z"/>
	<path d="M341.4,471.2h-10.3c0.1,1.1,0.6,2,1.5,2.7c0.8,0.7,1.9,1,3.1,1c1.5,0,2.7-0.5,3.7-1.5l1.3,1.5c-0.6,0.7-1.3,1.2-2.1,1.5
		s-1.8,0.5-2.9,0.5c-1.3,0-2.5-0.3-3.6-0.8c-1-0.6-1.8-1.3-2.4-2.3s-0.9-2.1-0.9-3.4c0-1.2,0.3-2.3,0.8-3.3c0.6-1,1.3-1.8,2.3-2.3
		c1-0.6,2.1-0.8,3.3-0.8c1.2,0,2.3,0.3,3.3,0.8c1,0.6,1.7,1.3,2.2,2.3c0.5,1,0.8,2.1,0.8,3.4C341.4,470.7,341.4,471,341.4,471.2z
		 M332.4,467c-0.7,0.7-1.2,1.6-1.3,2.6h8.2c-0.1-1.1-0.6-1.9-1.3-2.6c-0.7-0.7-1.7-1-2.8-1S333.1,466.3,332.4,467z"/>
	<path d="M355.3,465.4c1,0.9,1.4,2.3,1.4,4.1v7.3h-2.3v-7.1c0-1.2-0.3-2.2-0.9-2.8c-0.6-0.6-1.4-0.9-2.5-0.9c-1.2,0-2.2,0.4-3,1.1
		c-0.7,0.7-1.1,1.8-1.1,3.1v6.6h-2.3v-12.7h2.2v1.9c0.5-0.7,1.1-1.2,1.9-1.5c0.8-0.4,1.7-0.5,2.7-0.5
		C353,464,354.3,464.5,355.3,465.4z"/>
	<path d="M368.1,476.1c-0.3,0.3-0.8,0.5-1.2,0.7s-1,0.2-1.5,0.2c-1.3,0-2.3-0.3-3-1c-0.7-0.7-1.1-1.7-1.1-3v-7h-2.2v-1.9h2.2v-2.8
		h2.3v2.8h3.6v1.9h-3.6v6.9c0,0.7,0.2,1.2,0.5,1.6s0.8,0.6,1.5,0.6c0.7,0,1.3-0.2,1.8-0.6L368.1,476.1z"/>
	<path d="M381.9,471.2h-10.3c0.1,1.1,0.6,2,1.5,2.7c0.8,0.7,1.9,1,3.1,1c1.5,0,2.7-0.5,3.7-1.5l1.3,1.5c-0.6,0.7-1.3,1.2-2.1,1.5
		s-1.8,0.5-2.9,0.5c-1.3,0-2.5-0.3-3.6-0.8c-1-0.6-1.8-1.3-2.4-2.3s-0.9-2.1-0.9-3.4c0-1.2,0.3-2.3,0.8-3.3c0.6-1,1.3-1.8,2.3-2.3
		c1-0.6,2.1-0.8,3.3-0.8c1.2,0,2.3,0.3,3.3,0.8c1,0.6,1.7,1.3,2.2,2.3c0.5,1,0.8,2.1,0.8,3.4C382,470.7,382,471,381.9,471.2z
		 M372.9,467c-0.7,0.7-1.2,1.6-1.3,2.6h8.2c-0.1-1.1-0.6-1.9-1.3-2.6c-0.7-0.7-1.7-1-2.8-1S373.7,466.3,372.9,467z"/>
</g>
<rect x="584.4" y="292.5" width="9.5" height="1.5"/>
<line class="st1" x1="23.1" y1="298.7" x2="1230.3" y2="298.7"/>
<line class="st1" x1="23.1" y1="433.7" x2="1230.3" y2="433.7"/>
<rect x="739.6" y="187" class="st6" width="325" height="300.2"/>
<g class="st3">
	<path d="M871.2,196.6c0.9,0.9,1.3,1.9,1.3,3.3c0,1-0.2,1.8-0.7,2.6c-0.5,0.8-1.2,1.4-2.1,1.8s-2.1,0.7-3.5,0.7
		c-1.2,0-2.4-0.2-3.5-0.5c-1.1-0.4-2-0.9-2.7-1.5l1.1-1.9c0.6,0.5,1.3,1,2.2,1.3c0.9,0.3,1.8,0.5,2.9,0.5c1.2,0,2.2-0.3,2.9-0.8
		c0.7-0.5,1-1.3,1-2.2s-0.3-1.6-1-2.2c-0.7-0.5-1.7-0.8-3.1-0.8h-1.3v-1.7l4.2-5.2h-8.1V188h11.1v1.6l-4.4,5.4
		C869.1,195.3,870.4,195.8,871.2,196.6z"/>
	<path d="M878.1,204c-1-0.7-1.8-1.7-2.4-3s-0.9-2.8-0.9-4.6c0-1.8,0.3-3.3,0.9-4.6s1.4-2.3,2.4-3c1-0.7,2.2-1,3.5-1
		c1.3,0,2.5,0.3,3.5,1c1,0.7,1.8,1.7,2.4,3s0.9,2.8,0.9,4.6c0,1.8-0.3,3.3-0.9,4.6s-1.4,2.3-2.4,3c-1,0.7-2.2,1-3.5,1
		C880.3,205,879.1,204.7,878.1,204z M884.8,201.2c0.8-1.1,1.2-2.7,1.2-4.8c0-2.1-0.4-3.7-1.2-4.8c-0.8-1.1-1.9-1.7-3.2-1.7
		c-1.4,0-2.4,0.6-3.3,1.7c-0.8,1.1-1.2,2.7-1.2,4.8c0,2.1,0.4,3.7,1.2,4.8c0.8,1.1,1.9,1.7,3.3,1.7C883,202.9,884,202.3,884.8,201.2
		z"/>
	<path d="M906.9,193.3c0.9,0.9,1.4,2.2,1.4,3.9v7.7h-2.2v-1.7c-0.4,0.6-0.9,1-1.6,1.4c-0.7,0.3-1.6,0.5-2.5,0.5
		c-1.4,0-2.6-0.3-3.4-1c-0.9-0.7-1.3-1.6-1.3-2.7s0.4-2,1.2-2.7c0.8-0.7,2.1-1,3.9-1h3.6v-0.5c0-1-0.3-1.8-0.9-2.3
		c-0.6-0.5-1.4-0.8-2.5-0.8c-0.8,0-1.5,0.1-2.2,0.4c-0.7,0.2-1.3,0.6-1.8,1l-1-1.7c0.7-0.5,1.4-0.9,2.4-1.2s1.9-0.4,2.9-0.4
		C904.6,192,906,192.4,906.9,193.3z M904.6,202.6c0.6-0.4,1.1-0.9,1.4-1.7v-1.8h-3.6c-2,0-2.9,0.7-2.9,2c0,0.6,0.2,1.1,0.7,1.5
		c0.5,0.4,1.2,0.6,2.1,0.6S904,203,904.6,202.6z"/>
	<path d="M928.1,196.1c1.1,0.9,1.7,2.1,1.7,3.7c0,1-0.2,1.9-0.7,2.7c-0.5,0.8-1.2,1.4-2.1,1.9s-2.1,0.7-3.5,0.7
		c-1.2,0-2.3-0.2-3.4-0.5c-1.1-0.4-2-0.9-2.7-1.5l1.1-1.9c0.6,0.5,1.3,1,2.2,1.3c0.9,0.3,1.8,0.5,2.8,0.5c1.3,0,2.2-0.3,2.9-0.8
		s1-1.3,1-2.2c0-1-0.4-1.8-1.2-2.3c-0.8-0.5-2.1-0.8-3.9-0.8h-3.8l0.9-8.8h9.5v2.1h-7.5l-0.5,4.6h1.9
		C925.2,194.7,927,195.2,928.1,196.1z"/>
	<path d="M941.9,196.6c0.9,0.9,1.3,1.9,1.3,3.3c0,1-0.2,1.8-0.7,2.6c-0.5,0.8-1.2,1.4-2.1,1.8s-2.1,0.7-3.5,0.7
		c-1.2,0-2.4-0.2-3.5-0.5c-1.1-0.4-2-0.9-2.7-1.5l1.1-1.9c0.6,0.5,1.3,1,2.2,1.3c0.9,0.3,1.8,0.5,2.9,0.5c1.2,0,2.2-0.3,2.9-0.8
		c0.7-0.5,1-1.3,1-2.2s-0.3-1.6-1-2.2c-0.7-0.5-1.7-0.8-3.1-0.8h-1.3v-1.7l4.2-5.2h-8.1V188h11.1v1.6l-4.4,5.4
		C939.8,195.3,941,195.8,941.9,196.6z"/>
</g>
<g class="st3">
	<path d="M873.6,270.8v2.1h-12.1v-1.6l6.8-6.6c0.8-0.8,1.4-1.5,1.7-2.1s0.4-1.2,0.4-1.8c0-0.9-0.3-1.6-0.9-2.1s-1.5-0.7-2.7-0.7
		c-1.9,0-3.3,0.6-4.3,1.8l-1.6-1.4c0.7-0.8,1.5-1.4,2.6-1.9c1.1-0.4,2.3-0.7,3.6-0.7c1.8,0,3.2,0.4,4.2,1.3c1,0.8,1.6,2,1.6,3.4
		c0,0.9-0.2,1.7-0.6,2.5c-0.4,0.8-1.1,1.7-2.2,2.7l-5.1,4.9H873.6z"/>
	<path d="M887.4,270.8v2.1h-12.1v-1.6l6.8-6.6c0.8-0.8,1.4-1.5,1.7-2.1c0.3-0.6,0.4-1.2,0.4-1.8c0-0.9-0.3-1.6-0.9-2.1
		c-0.6-0.5-1.5-0.7-2.7-0.7c-1.9,0-3.3,0.6-4.3,1.8l-1.6-1.4c0.7-0.8,1.5-1.4,2.6-1.9c1.1-0.4,2.3-0.7,3.6-0.7
		c1.8,0,3.2,0.4,4.2,1.3c1,0.8,1.6,2,1.6,3.4c0,0.9-0.2,1.7-0.6,2.5c-0.4,0.8-1.1,1.7-2.2,2.7l-5.1,4.9H887.4z"/>
	<path d="M905.5,261.3c0.9,0.9,1.4,2.2,1.4,3.9v7.7h-2.2v-1.7c-0.4,0.6-0.9,1-1.6,1.4c-0.7,0.3-1.6,0.5-2.5,0.5
		c-1.4,0-2.6-0.3-3.4-1c-0.9-0.7-1.3-1.6-1.3-2.7s0.4-2,1.2-2.7s2.1-1,3.9-1h3.6v-0.5c0-1-0.3-1.8-0.9-2.3c-0.6-0.5-1.4-0.8-2.5-0.8
		c-0.8,0-1.5,0.1-2.2,0.4s-1.3,0.6-1.8,1l-1-1.7c0.7-0.5,1.4-0.9,2.4-1.2s1.9-0.4,2.9-0.4C903.2,260,904.6,260.4,905.5,261.3z
		 M903.2,270.6c0.6-0.4,1.1-0.9,1.4-1.7v-1.8h-3.6c-2,0-2.9,0.7-2.9,2c0,0.6,0.2,1.1,0.7,1.5s1.2,0.6,2.1,0.6
		C901.8,271.2,902.6,271,903.2,270.6z"/>
	<path d="M926.8,264.6c0.9,0.9,1.3,1.9,1.3,3.3c0,1-0.2,1.8-0.7,2.6c-0.5,0.8-1.2,1.4-2.1,1.8s-2.1,0.7-3.5,0.7
		c-1.2,0-2.4-0.2-3.5-0.5c-1.1-0.4-2-0.9-2.7-1.5l1.1-1.9c0.6,0.5,1.3,1,2.2,1.3c0.9,0.3,1.8,0.5,2.9,0.5c1.2,0,2.2-0.3,2.9-0.8
		c0.7-0.5,1-1.3,1-2.2s-0.3-1.6-1-2.2c-0.7-0.5-1.7-0.8-3.1-0.8h-1.3v-1.7l4.2-5.2h-8.1V256h11.1v1.6l-4.4,5.4
		C924.7,263.3,926,263.8,926.8,264.6z"/>
	<path d="M942.3,256v1.6l-6.8,15.2H933l6.6-14.7h-7.7v3h-2.3V256H942.3z"/>
</g>
<g class="st3">
	<path d="M871.9,338.8v2.1h-12.1v-1.6l6.8-6.6c0.8-0.8,1.4-1.5,1.7-2.1s0.4-1.2,0.4-1.8c0-0.9-0.3-1.6-0.9-2.1s-1.5-0.7-2.7-0.7
		c-1.9,0-3.3,0.6-4.3,1.8l-1.6-1.4c0.7-0.8,1.5-1.4,2.6-1.9c1.1-0.4,2.3-0.7,3.6-0.7c1.8,0,3.2,0.4,4.2,1.3c1,0.8,1.6,2,1.6,3.4
		c0,0.9-0.2,1.7-0.6,2.5c-0.4,0.8-1.1,1.7-2.2,2.7l-5.1,4.9H871.9z"/>
	<path d="M877.1,340c-1-0.7-1.8-1.7-2.4-3s-0.9-2.8-0.9-4.6c0-1.8,0.3-3.3,0.9-4.6s1.4-2.3,2.4-3c1-0.7,2.2-1,3.5-1
		c1.3,0,2.5,0.3,3.5,1c1,0.7,1.8,1.7,2.4,3s0.9,2.8,0.9,4.6c0,1.8-0.3,3.3-0.9,4.6s-1.4,2.3-2.4,3c-1,0.7-2.2,1-3.5,1
		C879.4,341,878.2,340.7,877.1,340z M883.9,337.2c0.8-1.1,1.2-2.7,1.2-4.8c0-2.1-0.4-3.7-1.2-4.8c-0.8-1.1-1.9-1.7-3.2-1.7
		c-1.4,0-2.4,0.6-3.3,1.7c-0.8,1.1-1.2,2.7-1.2,4.8c0,2.1,0.4,3.7,1.2,4.8c0.8,1.1,1.9,1.7,3.3,1.7
		C882,338.9,883.1,338.3,883.9,337.2z"/>
	<path d="M906,329.3c0.9,0.9,1.4,2.2,1.4,3.9v7.7h-2.2v-1.7c-0.4,0.6-0.9,1-1.6,1.4c-0.7,0.3-1.6,0.5-2.5,0.5c-1.4,0-2.6-0.3-3.4-1
		c-0.9-0.7-1.3-1.6-1.3-2.7s0.4-2,1.2-2.7c0.8-0.7,2.1-1,3.9-1h3.6v-0.5c0-1-0.3-1.8-0.9-2.3c-0.6-0.5-1.4-0.8-2.5-0.8
		c-0.8,0-1.5,0.1-2.2,0.4c-0.7,0.2-1.3,0.6-1.8,1l-1-1.7c0.7-0.5,1.4-0.9,2.4-1.2s1.9-0.4,2.9-0.4C903.7,328,905.1,328.4,906,329.3z
		 M903.7,338.6c0.6-0.4,1.1-0.9,1.4-1.7v-1.8h-3.6c-2,0-2.9,0.7-2.9,2c0,0.6,0.2,1.1,0.7,1.5c0.5,0.4,1.2,0.6,2.1,0.6
		S903.1,339,903.7,338.6z"/>
	<path d="M928.9,338.8v2.1h-12.1v-1.6l6.8-6.6c0.8-0.8,1.4-1.5,1.7-2.1s0.4-1.2,0.4-1.8c0-0.9-0.3-1.6-0.9-2.1s-1.5-0.7-2.7-0.7
		c-1.9,0-3.3,0.6-4.3,1.8l-1.6-1.4c0.7-0.8,1.5-1.4,2.6-1.9c1.1-0.4,2.3-0.7,3.6-0.7c1.8,0,3.2,0.4,4.2,1.3c1,0.8,1.6,2,1.6,3.4
		c0,0.9-0.2,1.7-0.6,2.5c-0.4,0.8-1.1,1.7-2.2,2.7l-5.1,4.9H928.9z"/>
	<path d="M943.3,333.6c0.5,0.7,0.8,1.5,0.8,2.5c0,1-0.3,1.9-0.8,2.6s-1.3,1.3-2.3,1.7c-1,0.4-2.2,0.6-3.6,0.6
		c-1.3,0-2.5-0.2-3.5-0.6c-1-0.4-1.8-1-2.3-1.7s-0.8-1.6-0.8-2.6c0-1,0.3-1.8,0.8-2.5c0.5-0.7,1.2-1.2,2.2-1.6
		c-0.8-0.4-1.4-0.9-1.8-1.5c-0.4-0.6-0.6-1.3-0.6-2.2c0-0.9,0.3-1.7,0.8-2.4c0.5-0.7,1.2-1.2,2.1-1.6c0.9-0.4,2-0.6,3.2-0.6
		c1.2,0,2.3,0.2,3.2,0.6c0.9,0.4,1.6,0.9,2.1,1.6c0.5,0.7,0.8,1.5,0.8,2.4c0,0.8-0.2,1.5-0.6,2.1c-0.4,0.6-1,1.1-1.8,1.5
		C942.1,332.4,942.8,332.9,943.3,333.6z M940.6,338.3c0.8-0.6,1.2-1.3,1.2-2.2c0-0.9-0.4-1.7-1.2-2.2c-0.8-0.5-1.8-0.8-3.1-0.8
		s-2.4,0.3-3.1,0.8s-1.1,1.3-1.1,2.2c0,0.9,0.4,1.7,1.1,2.2s1.8,0.8,3.1,0.8S939.8,338.8,940.6,338.3z M934.7,326.5
		c-0.7,0.5-1,1.1-1,2s0.3,1.5,1,2c0.6,0.5,1.5,0.7,2.7,0.7c1.2,0,2.1-0.2,2.7-0.7c0.7-0.5,1-1.1,1-2s-0.3-1.5-1-2
		c-0.7-0.5-1.6-0.7-2.7-0.7S935.4,326,934.7,326.5z"/>
</g>
<g class="st3">
	<path d="M868.9,392v16.8h-2.4v-14.7h-3.8V392H868.9z"/>
	<path d="M885.1,401.6c0.5,0.7,0.8,1.5,0.8,2.5c0,1-0.3,1.9-0.8,2.6s-1.3,1.3-2.3,1.7c-1,0.4-2.2,0.6-3.6,0.6
		c-1.3,0-2.5-0.2-3.5-0.6c-1-0.4-1.8-1-2.3-1.7c-0.5-0.7-0.8-1.6-0.8-2.6c0-1,0.3-1.8,0.8-2.5c0.5-0.7,1.2-1.2,2.2-1.6
		c-0.8-0.4-1.4-0.9-1.8-1.5c-0.4-0.6-0.6-1.3-0.6-2.2c0-0.9,0.3-1.7,0.8-2.4c0.5-0.7,1.2-1.2,2.1-1.6c0.9-0.4,2-0.6,3.2-0.6
		c1.2,0,2.3,0.2,3.2,0.6c0.9,0.4,1.6,0.9,2.1,1.6c0.5,0.7,0.8,1.5,0.8,2.4c0,0.8-0.2,1.5-0.6,2.1c-0.4,0.6-1,1.1-1.8,1.5
		C883.8,400.4,884.6,400.9,885.1,401.6z M882.3,406.3c0.8-0.6,1.2-1.3,1.2-2.2c0-0.9-0.4-1.7-1.2-2.2c-0.8-0.5-1.8-0.8-3.1-0.8
		c-1.3,0-2.4,0.3-3.1,0.8c-0.8,0.5-1.1,1.3-1.1,2.2c0,0.9,0.4,1.7,1.1,2.2c0.8,0.6,1.8,0.8,3.1,0.8
		C880.5,407.1,881.5,406.8,882.3,406.3z M876.5,394.5c-0.7,0.5-1,1.1-1,2s0.3,1.5,1,2c0.6,0.5,1.5,0.7,2.7,0.7
		c1.2,0,2.1-0.2,2.7-0.7c0.7-0.5,1-1.1,1-2s-0.3-1.5-1-2c-0.7-0.5-1.6-0.7-2.7-0.7C878,393.8,877.1,394,876.5,394.5z"/>
	<path d="M904.2,397.3c0.9,0.9,1.4,2.2,1.4,3.9v7.7h-2.2v-1.7c-0.4,0.6-0.9,1-1.6,1.4c-0.7,0.3-1.6,0.5-2.5,0.5
		c-1.4,0-2.6-0.3-3.4-1c-0.9-0.7-1.3-1.6-1.3-2.7s0.4-2,1.2-2.7s2.1-1,3.9-1h3.6v-0.5c0-1-0.3-1.8-0.9-2.3c-0.6-0.5-1.4-0.8-2.5-0.8
		c-0.8,0-1.5,0.1-2.2,0.4s-1.3,0.6-1.8,1l-1-1.7c0.7-0.5,1.4-0.9,2.4-1.2s1.9-0.4,2.9-0.4C901.9,396,903.3,396.4,904.2,397.3z
		 M901.9,406.6c0.6-0.4,1.1-0.9,1.4-1.7v-1.8h-3.6c-2,0-2.9,0.7-2.9,2c0,0.6,0.2,1.1,0.7,1.5s1.2,0.6,2.1,0.6
		C900.5,407.2,901.3,407,901.9,406.6z"/>
	<path d="M927.1,406.8v2.1h-12.1v-1.6l6.8-6.6c0.8-0.8,1.4-1.5,1.7-2.1c0.3-0.6,0.4-1.2,0.4-1.8c0-0.9-0.3-1.6-0.9-2.1
		c-0.6-0.5-1.5-0.7-2.7-0.7c-1.9,0-3.3,0.6-4.3,1.8l-1.6-1.4c0.7-0.8,1.5-1.4,2.6-1.9c1.1-0.4,2.3-0.7,3.6-0.7
		c1.8,0,3.2,0.4,4.2,1.3c1,0.8,1.6,2,1.6,3.4c0,0.9-0.2,1.7-0.6,2.5c-0.4,0.8-1.1,1.7-2.2,2.7l-5.1,4.9H927.1z"/>
	<path d="M939.2,400.1c1.1,0.9,1.7,2.1,1.7,3.7c0,1-0.2,1.9-0.7,2.7s-1.2,1.4-2.1,1.9s-2.1,0.7-3.5,0.7c-1.2,0-2.3-0.2-3.4-0.5
		c-1.1-0.4-2-0.9-2.7-1.5l1.1-1.9c0.6,0.5,1.3,1,2.2,1.3c0.9,0.3,1.8,0.5,2.8,0.5c1.3,0,2.2-0.3,2.9-0.8c0.7-0.5,1-1.3,1-2.2
		c0-1-0.4-1.8-1.2-2.3c-0.8-0.5-2.1-0.8-3.9-0.8h-3.8l0.9-8.8h9.5v2.1h-7.5l-0.5,4.6h1.9C936.3,398.7,938.1,399.2,939.2,400.1z"/>
</g>
<g class="st3">
	<path d="M868.6,460v16.8h-2.4v-14.7h-3.8V460H868.6z"/>
	<path d="M884.1,474.8v2.1H872v-1.6l6.8-6.6c0.8-0.8,1.4-1.5,1.7-2.1c0.3-0.6,0.4-1.2,0.4-1.8c0-0.9-0.3-1.6-0.9-2.1
		c-0.6-0.5-1.5-0.7-2.7-0.7c-1.9,0-3.3,0.6-4.3,1.8l-1.6-1.4c0.7-0.8,1.5-1.4,2.6-1.9c1.1-0.4,2.3-0.7,3.6-0.7
		c1.8,0,3.2,0.4,4.2,1.3c1,0.8,1.6,2,1.6,3.4c0,0.9-0.2,1.7-0.6,2.5c-0.4,0.8-1.1,1.7-2.2,2.7l-5.1,4.9H884.1z"/>
	<path d="M902.2,465.3c0.9,0.9,1.4,2.2,1.4,3.9v7.7h-2.2v-1.7c-0.4,0.6-0.9,1-1.6,1.4c-0.7,0.3-1.6,0.5-2.5,0.5
		c-1.4,0-2.6-0.3-3.4-1c-0.9-0.7-1.3-1.6-1.3-2.7s0.4-2,1.2-2.7s2.1-1,3.9-1h3.6v-0.5c0-1-0.3-1.8-0.9-2.3c-0.6-0.5-1.4-0.8-2.5-0.8
		c-0.8,0-1.5,0.1-2.2,0.4s-1.3,0.6-1.8,1l-1-1.7c0.7-0.5,1.4-0.9,2.4-1.2s1.9-0.4,2.9-0.4C900,464,901.3,464.4,902.2,465.3z
		 M899.9,474.6c0.6-0.4,1.1-0.9,1.4-1.7v-1.8h-3.6c-2,0-2.9,0.7-2.9,2c0,0.6,0.2,1.1,0.7,1.5s1.2,0.6,2.1,0.6
		C898.5,475.2,899.3,475,899.9,474.6z"/>
	<path d="M925.1,474.8v2.1h-12.1v-1.6l6.8-6.6c0.8-0.8,1.4-1.5,1.7-2.1s0.4-1.2,0.4-1.8c0-0.9-0.3-1.6-0.9-2.1s-1.5-0.7-2.7-0.7
		c-1.9,0-3.3,0.6-4.3,1.8l-1.6-1.4c0.7-0.8,1.5-1.4,2.6-1.9c1.1-0.4,2.3-0.7,3.6-0.7c1.8,0,3.2,0.4,4.2,1.3c1,0.8,1.6,2,1.6,3.4
		c0,0.9-0.2,1.7-0.6,2.5c-0.4,0.8-1.1,1.7-2.2,2.7l-5.1,4.9H925.1z"/>
	<path d="M930.4,476c-1-0.7-1.8-1.7-2.4-3c-0.6-1.3-0.9-2.8-0.9-4.6c0-1.8,0.3-3.3,0.9-4.6c0.6-1.3,1.4-2.3,2.4-3c1-0.7,2.2-1,3.5-1
		c1.3,0,2.5,0.3,3.5,1c1,0.7,1.8,1.7,2.4,3s0.9,2.8,0.9,4.6c0,1.8-0.3,3.3-0.9,4.6s-1.4,2.3-2.4,3c-1,0.7-2.2,1-3.5,1
		C932.6,477,931.4,476.7,930.4,476z M937.1,473.2c0.8-1.1,1.2-2.7,1.2-4.8c0-2.1-0.4-3.7-1.2-4.8c-0.8-1.1-1.9-1.7-3.2-1.7
		c-1.4,0-2.4,0.6-3.3,1.7c-0.8,1.1-1.2,2.7-1.2,4.8c0,2.1,0.4,3.7,1.2,4.8c0.8,1.1,1.9,1.7,3.3,1.7
		C935.2,474.9,936.3,474.3,937.1,473.2z"/>
</g>
<g id="sn57nT_1_">
	
		<image style="overflow:visible;enable-background:new    ;" width="1141" height="600" id="sn57nT" xlink:href="3BD279FD3BE56C65.png"  transform="matrix(0.7571 0 0 0.7571 168.433 618.9358)">
	</image>
</g>
</svg>
