<?xml version="1.0" encoding="utf-8"?>
<!-- Generator: Adobe Illustrator 24.2.1, SVG Export Plug-In . SVG Version: 6.00 Build 0)  -->
<svg version="1.1" id="Layer_1" xmlns="http://www.w3.org/2000/svg" xmlns:xlink="http://www.w3.org/1999/xlink" x="0px" y="0px"
	 viewBox="0 0 70 70" style="enable-background:new 0 0 70 70;" xml:space="preserve">
<style type="text/css">
	.st0{fill:#FF8831;}
</style>
<g>
	<path class="st0" d="M18.2,11.3c-1.3,0-2.4,0.4-3.2,1.3c-0.8,0.8-1.2,2.1-1.2,3.7v2.8h8.8v-2.8c0-1.6-0.4-2.9-1.2-3.7
		C20.6,11.7,19.5,11.3,18.2,11.3z"/>
	<path class="st0" d="M64.9,31.6H38.4V5.1c0-2.8-2.3-5.1-5.1-5.1H5.1C2.3,0,0,2.3,0,5.1v28.2c0,2.8,2.3,5.1,5.1,5.1h26.4v26.4
		c0,2.8,2.3,5.1,5.1,5.1h28.2c2.8,0,5.1-2.3,5.1-5.1V36.7C70,33.9,67.7,31.6,64.9,31.6z M29,29h-6.4v-5h-8.8v5H7.5V16.8
		c0-2.3,0.4-4.2,1.3-5.8c0.9-1.6,2.1-2.8,3.8-3.7c1.6-0.8,3.5-1.3,5.6-1.3c2.1,0,4,0.4,5.6,1.3c1.6,0.8,2.9,2.1,3.8,3.7
		c0.9,1.6,1.3,3.6,1.3,5.8V29z M60.1,61.3H42.8v-3.8l8.8-10.1h-8.5v-4.7h16.6v3.8l-8.8,10.2h9.3V61.3z"/>
</g>
</svg>
