<?xml version="1.0" encoding="utf-8"?>
<!-- Generator: Adobe Illustrator 23.1.1, SVG Export Plug-In . SVG Version: 6.00 Build 0)  -->
<svg version="1.1" id="Layer_1" xmlns="http://www.w3.org/2000/svg" xmlns:xlink="http://www.w3.org/1999/xlink" x="0px" y="0px"
	 viewBox="0 0 30 30" style="enable-background:new 0 0 30 30;" xml:space="preserve">
<style type="text/css">
	.st0{fill:#FF8831;}
</style>
<path class="st0" d="M14.1,50.4L3.2,39.6c-0.8-0.8-0.8-2.1,0-2.9c0.8-0.8,2.1-0.8,2.9,0L18.4,49c0.8,0.8,0.8,2,0.1,2.8L6.2,64.2
	c-0.5,0.4-1,0.6-1.5,0.6s-1.1-0.2-1.5-0.6c-0.8-0.8-0.8-2.1,0-2.9L14.1,50.4z"/>
<path class="st0" d="M26.7,50.4L15.8,39.6c-0.8-0.8-0.8-2.1,0-2.9c0.8-0.8,2.1-0.8,2.9,0L31,49c0.8,0.8,0.8,2,0.1,2.8L18.7,64.2
	c-0.4,0.4-0.9,0.6-1.5,0.6c-0.5,0-1.1-0.2-1.5-0.6c-0.8-0.8-0.8-2.1,0-2.9L26.7,50.4z"/>
<g>
	<path class="st0" d="M7.7,24.7v-7.4l-5.5-10h2.6l2.5,4.8c0.7,1.3,1.2,2.4,1.7,3.6H9c0.5-1.1,1.1-2.3,1.8-3.6l2.5-4.8h2.6l-5.8,10
		v7.4H7.7z"/>
	<path class="st0" d="M21.9,9.2h-5.3V7.3h12.9v1.9h-5.3v15.5h-2.3V9.2z"/>
</g>
</svg>
