<?xml version="1.0" encoding="utf-8"?>
<!-- Generator: Adobe Illustrator 23.1.1, SVG Export Plug-In . SVG Version: 6.00 Build 0)  -->
<svg version="1.1" id="Layer_1" xmlns="http://www.w3.org/2000/svg" xmlns:xlink="http://www.w3.org/1999/xlink" x="0px" y="0px"
	 viewBox="0 0 30 30" style="enable-background:new 0 0 30 30;" xml:space="preserve">
<style type="text/css">
	.st0{fill:#FF8831;}
</style>
<path class="st0" d="M14.1,50.4L3.2,39.6c-0.8-0.8-0.8-2.1,0-2.9c0.8-0.8,2.1-0.8,2.9,0L18.4,49c0.8,0.8,0.8,2,0.1,2.8L6.2,64.2
	c-0.5,0.4-1,0.6-1.5,0.6s-1.1-0.2-1.5-0.6c-0.8-0.8-0.8-2.1,0-2.9L14.1,50.4z"/>
<path class="st0" d="M26.7,50.4L15.8,39.6c-0.8-0.8-0.8-2.1,0-2.9c0.8-0.8,2.1-0.8,2.9,0L31,49c0.8,0.8,0.8,2,0.1,2.8L18.7,64.2
	c-0.4,0.4-0.9,0.6-1.5,0.6c-0.5,0-1.1-0.2-1.5-0.6c-0.8-0.8-0.8-2.1,0-2.9L26.7,50.4z"/>
<g>
	<path class="st0" d="M4.2,19.9C5.1,20.5,6.5,21,8,21c2.2,0,3.4-1.1,3.4-2.8c0-1.5-0.9-2.4-3.1-3.3C5.6,14,4,12.6,4,10.3
		c0-2.6,2.1-4.5,5.3-4.5c1.7,0,2.9,0.4,3.6,0.8l-0.6,1.7c-0.5-0.3-1.6-0.8-3.1-0.8C7,7.6,6.1,8.9,6.1,10c0,1.5,1,2.3,3.3,3.2
		c2.8,1.1,4.2,2.4,4.2,4.8c0,2.5-1.9,4.7-5.7,4.7c-1.6,0-3.3-0.5-4.2-1L4.2,19.9z"/>
	<path class="st0" d="M27.9,22c-0.8,0.4-2.3,0.8-4.3,0.8c-4.6,0-8.1-2.9-8.1-8.3c0-5.1,3.5-8.6,8.6-8.6c2,0,3.3,0.4,3.9,0.7
		l-0.5,1.7c-0.8-0.4-1.9-0.7-3.3-0.7c-3.8,0-6.4,2.5-6.4,6.8c0,4,2.3,6.6,6.3,6.6c1.3,0,2.6-0.3,3.5-0.7L27.9,22z"/>
</g>
</svg>
