<?xml version="1.0" encoding="utf-8"?>
<!-- Generator: Adobe Illustrator 24.2.1, SVG Export Plug-In . SVG Version: 6.00 Build 0)  -->
<svg version="1.1" xmlns="http://www.w3.org/2000/svg" xmlns:xlink="http://www.w3.org/1999/xlink" x="0px" y="0px"
	 viewBox="0 0 70 70" style="enable-background:new 0 0 70 70;" xml:space="preserve">

<path fill="#ff8831" d="M19.8,10.1H4.1c-0.6,0-1.1,0.5-1.1,1.1v4.5h17.9v-4.5C20.9,10.6,20.4,10.1,19.8,10.1z"/>
<path fill="#ff8831" d="M3,54.7h17.9V17.9H3V54.7z M6.4,22.3c0-0.6,0.5-1.1,1.1-1.1h8.9c0.6,0,1.1,0.5,1.1,1.1v8.9
	c0,0.6-0.5,1.1-1.1,1.1H7.5c-0.6,0-1.1-0.5-1.1-1.1V22.3z"/>
<path fill="#ff8831" d="M3,67c0,0.6,0.5,1.1,1.1,1.1h15.6c0.6,0,1.1-0.5,1.1-1.1v-5.6H3V67z"/>
<rect x="3" y="57" fill="#ff8831" width="17.9" height="2.2"/>
<rect x="23.1" y="57" fill="#ff8831" width="14.5" height="2.2"/>
<path fill="#ff8831" d="M37.6,2.3c0-0.6-0.5-1.1-1.1-1.1H24.2c-0.6,0-1.1,0.5-1.1,1.1v3.3h14.5V2.3z"/>
<path fill="#ff8831" d="M23.1,67c0,0.6,0.5,1.1,1.1,1.1h12.3c0.6,0,1.1-0.5,1.1-1.1v-5.6H23.1V67z"/>
<rect x="23.1" y="7.8" fill="#ff8831" width="14.5" height="3.3"/>
<polygon fill="#ff8831" points="58.7,19.2 39.8,24.3 40.4,26.5 59.3,21.5 "/>
<polygon fill="#ff8831" points="66.9,50.4 48,55.4 49.2,60 68.1,55 "/>
<polygon fill="#ff8831" points="59.9,23.7 41,28.7 47.4,53.3 66.3,48.2 "/>
<path fill="#ff8831" d="M56.6,10.9c-0.2-0.6-0.8-1-1.4-0.8l-16.7,4.5c-0.5,0.1-0.8,0.6-0.8,1.1v-2.3H23.1v41.3h14.5v-39
	c0,0.1,0,0.1,0,0.2l1.6,6.2l18.9-5L56.6,10.9z"/>
<path fill="#ff8831" d="M70,62.3l-1.3-5.1l-18.9,5l1.3,5.1c0.1,0.3,0.3,0.5,0.5,0.7c0.2,0.1,0.4,0.2,0.6,0.2c0.1,0,0.2,0,0.3,0
	l16.7-4.5C69.8,63.5,70.1,62.9,70,62.3z"/>
</svg>
