<?xml version="1.0" encoding="utf-8"?>
<!-- Generator: Adobe Illustrator 24.2.1, SVG Export Plug-In . SVG Version: 6.00 Build 0)  -->
<svg version="1.1" id="Layer_1" xmlns="http://www.w3.org/2000/svg" xmlns:xlink="http://www.w3.org/1999/xlink" x="0px" y="0px"
	 viewBox="0 0 70 70" style="enable-background:new 0 0 70 70;" xml:space="preserve">
<style type="text/css">
	.st0{fill:#FF8831;}
</style>
<g>
	<g>
		<g>
			<path class="st0" d="M7.3,61.2c-2.4,0-4.4,2-4.4,4.4s2,4.4,4.4,4.4s4.4-2,4.4-4.4S9.7,61.2,7.3,61.2z"/>
			<path class="st0" d="M20.4,52.5c-3.2,0-5.8,2.6-5.8,5.8c0,3.2,2.6,5.8,5.8,5.8c3.2,0,5.8-2.6,5.8-5.8
				C26.2,55.1,23.6,52.5,20.4,52.5L20.4,52.5z"/>
			<path class="st0" d="M46.7,0C39.8,0,33.4,3,29,8.2c-2.9-1.5-6-2.3-9.3-2.3C8.8,5.8,0,14.7,0,25.5s8.8,19.7,19.7,19.7h0.2
				c1.8,4.4,6,7.3,10.8,7.3c4.4,0,8.5-2.6,10.4-6.5c1.8,0.5,3.7,0.7,5.6,0.7C59.5,46.7,70,36.2,70,23.3S59.5,0,46.7,0L46.7,0z"/>
		</g>
	</g>
</g>
</svg>
