<?xml version="1.0" encoding="utf-8"?>
<!-- Generator: Adobe Illustrator 24.2.1, SVG Export Plug-In . SVG Version: 6.00 Build 0)  -->
<svg version="1.1" id="Layer_1" xmlns="http://www.w3.org/2000/svg" xmlns:xlink="http://www.w3.org/1999/xlink" x="0px" y="0px"
	 viewBox="0 0 70 70" style="enable-background:new 0 0 70 70;" xml:space="preserve">
<style type="text/css">
	.st0{fill:#FF8831;}
</style>
<g>
	<path class="st0" d="M39.6,14.4H7.7c-4.2,0-7.7,3.4-7.7,7.7v25.8c0,4.2,3.4,7.7,7.7,7.7h31.9c4.2,0,7.7-3.4,7.7-7.7V22.1
		C47.3,17.8,43.8,14.4,39.6,14.4z"/>
	<path class="st0" d="M64.3,18.6c-0.5,0.1-0.9,0.3-1.3,0.5l-11.9,6.9v17.8l12,6.9c2.2,1.3,5,0.5,6.3-1.7c0.4-0.7,0.6-1.5,0.6-2.3
		V23.1C70,20.3,67.3,18,64.3,18.6z"/>
</g>
</svg>
